# Blender v3.6.0 OBJ File: 'AllModules_Unreal.blend'
# www.blender.org
mtllib Decal_AccessPoint.mtl
o Decal_AccessPoint_Plane.053
v 0.448454 0.000000 -0.108519
v -1.025718 0.000000 -0.108518
v 0.632451 0.000000 -0.058900
v 0.632451 0.000000 0.091979
v 0.338080 0.000000 0.091979
v -1.025718 0.000000 0.091979
vt 0.236597 0.226397
vt 0.236597 0.189286
vt 0.489028 0.189286
vt 0.543514 0.189286
vt 0.543514 0.217213
vt 0.509458 0.226397
vn 0.0000 1.0000 0.0000
usemtl M_Decal_White
s off
f 2/1/1 6/2/1 5/3/1 4/4/1 3/5/1 1/6/1
