# Blender v3.6.0 OBJ File: 'AllModules_Unreal.blend'
# www.blender.org
mtllib Column_SmallSupport.mtl
o Column_SmallSupport_Plane.025
v 0.015437 2.000000 -0.017433
v -0.056082 2.000000 -0.017433
v 0.018565 2.000000 0.000000
v -0.056082 2.000000 0.000000
v 0.049302 2.000000 0.000000
v -0.023871 2.000000 0.000000
v -0.020743 2.000000 0.000000
v 0.015437 2.000000 0.000000
v 0.018565 1.685097 0.000000
v 0.015437 1.686378 0.000000
v -0.023871 1.644948 0.000000
v -0.020743 1.651033 0.000000
v 0.018565 1.492745 0.000000
v 0.015437 1.488181 0.000000
v -0.023871 1.537885 0.000000
v -0.020743 1.529670 0.000000
v -0.015293 1.523421 0.000000
v -0.015293 1.441091 0.000000
v -0.020743 1.440227 0.000000
v -0.023871 1.429336 0.000000
v 0.018565 1.396885 0.000000
v -0.015293 1.317396 0.000000
v 0.015437 1.404491 0.000000
v -0.020743 1.318232 0.000000
v 0.018565 1.360173 0.000000
v 0.015437 1.353959 0.000000
v -0.023871 1.328880 0.000000
v -0.015293 1.235095 0.000000
v 0.015437 1.270335 0.000000
v -0.020743 1.228846 0.000000
v 0.018565 1.267929 0.000000
v -0.023871 1.220631 0.000000
v -0.023871 2.000000 -0.017433
v -0.056082 0.999583 0.000000
v 0.018565 0.999583 0.000000
v 0.049303 0.999583 -0.017433
v -0.023871 0.999583 0.000000
v 0.049303 0.999583 0.000000
v 0.018565 2.000000 -0.017433
v 0.049302 2.000000 -0.017433
v 0.018566 0.000000 0.000000
v -0.056082 -0.000000 0.000000
v 0.049303 0.000000 0.000000
v -0.023871 -0.000000 0.000000
v -0.020742 -0.000000 0.000000
v 0.015437 0.000000 0.000000
v 0.018566 0.314069 0.000000
v 0.015437 0.312789 0.000000
v -0.023871 0.354219 0.000000
v -0.020743 0.348134 0.000000
v 0.018566 0.506422 0.000000
v 0.015437 0.510986 0.000000
v -0.023871 0.461282 0.000000
v -0.020743 0.469497 0.000000
v -0.015293 0.475746 0.000000
v -0.015293 0.558076 0.000000
v -0.020743 0.558940 0.000000
v -0.023871 0.569831 0.000000
v 0.018566 0.602282 0.000000
v -0.015293 0.681771 0.000000
v 0.015437 0.594675 0.000000
v -0.020743 0.680935 0.000000
v 0.018566 0.638994 0.000000
v 0.015437 0.645207 0.000000
v -0.023871 0.670286 0.000000
v -0.015293 0.764071 0.000000
v 0.015437 0.728831 0.000000
v -0.020743 0.770321 0.000000
v 0.018566 0.731238 0.000000
v -0.023871 0.778535 0.000000
v -0.020743 2.000000 -0.017433
v 0.015437 1.686378 -0.017433
v 0.018565 1.685097 -0.017433
v -0.023871 1.644948 -0.017433
v -0.020743 1.651033 -0.017433
v 0.018565 1.492745 -0.017433
v 0.015437 1.404491 -0.017433
v 0.015437 1.488181 -0.017433
v -0.023871 1.537885 -0.017433
v -0.020743 1.529670 -0.017433
v -0.015293 1.523421 -0.017433
v -0.023871 1.429336 -0.017433
v -0.015293 1.441091 -0.017433
v -0.020743 1.440227 -0.017433
v 0.018565 1.396885 -0.017433
v 0.018565 1.360173 -0.017433
v 0.015437 1.270335 -0.017433
v 0.015437 1.353959 -0.017433
v -0.015293 1.317396 -0.017433
v -0.020743 1.318232 -0.017433
v -0.023871 1.328880 -0.017433
v -0.015293 1.235095 -0.017433
v -0.020743 1.228846 -0.017433
v 0.018565 1.267929 -0.017433
v -0.023871 1.220631 -0.017433
v -0.056082 0.999583 -0.017433
v 0.018565 0.999583 -0.017433
v -0.023871 0.999583 -0.017433
v 0.049303 0.000000 -0.017433
v 0.018566 0.000000 -0.017433
v -0.023871 -0.000000 -0.017433
v -0.056082 -0.000000 -0.017433
v 0.015437 0.000000 -0.017433
v -0.020742 -0.000000 -0.017433
v 0.015437 0.312789 -0.017433
v 0.018566 0.314069 -0.017433
v -0.023871 0.354219 -0.017433
v -0.020743 0.348134 -0.017433
v 0.018566 0.506422 -0.017433
v 0.015437 0.594675 -0.017433
v 0.015437 0.510986 -0.017433
v -0.023871 0.461282 -0.017433
v -0.020743 0.469497 -0.017433
v -0.015293 0.475746 -0.017433
v -0.023871 0.569831 -0.017433
v -0.015293 0.558076 -0.017433
v -0.020743 0.558940 -0.017433
v 0.018566 0.602282 -0.017433
v 0.018566 0.638994 -0.017433
v 0.015437 0.728831 -0.017433
v 0.015437 0.645207 -0.017433
v -0.015293 0.681771 -0.017433
v -0.020743 0.680935 -0.017433
v -0.023871 0.670286 -0.017433
v -0.015293 0.764071 -0.017433
v -0.020743 0.770321 -0.017433
v 0.018566 0.731238 -0.017433
v -0.023871 0.778535 -0.017433
vt 0.238081 0.625724
vt 0.279246 0.625724
vt 0.279678 0.622999
vt 0.234957 0.622999
vt 0.000000 0.622999
vt 0.174275 0.622999
vt 0.156603 0.641089
vt 0.000000 0.641089
vt 0.157243 0.642653
vt 0.000000 0.642653
vt 0.177318 0.621435
vt 0.000000 0.621435
vt 0.238081 0.625724
vt 0.234957 0.622999
vt 0.279678 0.622999
vt 0.279246 0.625724
vt 0.255701 0.641089
vt 0.297546 0.641089
vt 0.285124 0.621435
vt 0.230849 0.621435
vt 0.341094 0.625724
vt 0.340676 0.622999
vt 0.385369 0.622999
vt 0.382244 0.625724
vt 0.301349 0.642653
vt 0.253419 0.642653
vt 0.322812 0.641089
vt 0.364624 0.641089
vt 0.319705 0.642653
vt 0.365827 0.642653
vt 0.389476 0.621435
vt 0.335351 0.621435
vt 0.177318 0.621435
vt 0.000000 0.621435
vt 0.000000 0.622999
vt 0.174275 0.622999
vt 0.500000 0.605330
vt 0.500000 0.621435
vt 0.000000 0.605330
vt 0.500000 0.642653
vt 0.500000 0.658022
vt 0.000000 0.658022
vt 0.156603 0.641089
vt 0.000000 0.641089
vt 0.000000 0.642653
vt 0.157243 0.642653
vt 1.000000 0.622999
vt 1.000000 0.641089
vt 0.843397 0.641089
vt 0.825725 0.622999
vt 1.000000 0.642653
vt 0.842757 0.642653
vt 0.822682 0.621435
vt 1.000000 0.621435
vt 0.761919 0.625724
vt 0.720754 0.625724
vt 0.720322 0.622999
vt 0.765043 0.622999
vt 0.744299 0.641089
vt 0.702454 0.641089
vt 0.714876 0.621435
vt 0.769151 0.621435
vt 0.658906 0.625724
vt 0.617756 0.625724
vt 0.614631 0.622999
vt 0.659324 0.622999
vt 0.746581 0.642653
vt 0.698651 0.642653
vt 0.677188 0.641089
vt 0.635376 0.641089
vt 0.680295 0.642653
vt 0.634173 0.642653
vt 0.610524 0.621435
vt 0.664648 0.621435
vt 1.000000 0.605330
vt 1.000000 0.658022
vt 0.255701 0.641089
vt 0.297546 0.641089
vt 0.285124 0.621435
vt 0.230849 0.621435
vt 0.341094 0.625724
vt 0.382244 0.625724
vt 0.385369 0.622999
vt 0.340676 0.622999
vt 0.253419 0.642653
vt 0.301349 0.642653
vt 0.322812 0.641089
vt 0.364624 0.641089
vt 0.319705 0.642653
vt 0.365827 0.642653
vt 0.389476 0.621435
vt 0.335351 0.621435
vt 0.500000 0.605330
vt 0.000000 0.605330
vt 0.500000 0.621435
vt 0.500000 0.642653
vt 0.000000 0.658022
vt 0.500000 0.658022
vt 1.000000 0.622999
vt 0.825725 0.622999
vt 0.843397 0.641089
vt 1.000000 0.641089
vt 0.842757 0.642653
vt 1.000000 0.642653
vt 0.822682 0.621435
vt 1.000000 0.621435
vt 0.761919 0.625724
vt 0.765043 0.622999
vt 0.720322 0.622999
vt 0.720754 0.625724
vt 0.744299 0.641089
vt 0.702454 0.641089
vt 0.714876 0.621435
vt 0.769151 0.621435
vt 0.658906 0.625724
vt 0.659324 0.622999
vt 0.614631 0.622999
vt 0.617756 0.625724
vt 0.698651 0.642653
vt 0.746581 0.642653
vt 0.677188 0.641089
vt 0.635376 0.641089
vt 0.680295 0.642653
vt 0.634173 0.642653
vt 0.610524 0.621435
vt 0.664648 0.621435
vt 1.000000 0.605330
vt 1.000000 0.658022
vt 0.500000 0.938138
vt 0.500000 0.999850
vt 4.039946 0.999849
vt 4.039946 0.938138
vt 0.427497 0.999850
vt 0.427496 0.938138
vt 0.313471 0.938138
vt 0.313471 0.999850
vt -3.039946 0.938139
vt -3.039946 0.999850
vt 0.313471 0.938138
vt 0.313471 0.999850
vt 0.427496 0.999850
vt 0.427496 0.938138
vt 0.566646 0.999850
vt 0.566646 0.938138
vt 0.438571 0.938138
vt 0.438571 0.999850
vt 0.438570 0.938138
vt 0.438571 0.999850
vt 0.566646 0.999850
vt 0.566646 0.938138
vt 0.577720 0.999850
vt 0.577720 0.938138
vt 0.577721 0.999850
vt 0.577720 0.938138
vt 4.039950 0.999849
vt 4.039950 0.938138
vt 0.500000 0.938138
vt 0.500000 0.999849
vt -3.039951 0.938139
vt -3.039951 0.999850
vt 0.686529 0.999850
vt 0.686529 0.938138
vt 0.686529 0.999850
vt 0.686529 0.938138
vn 0.0000 0.0000 -1.0000
vn 0.0000 0.0000 1.0000
vn 1.0000 0.0000 -0.0000
vn 0.9611 0.2761 -0.0000
vn -0.9248 -0.3804 0.0000
vn 0.0000 1.0000 -0.0000
vn -0.7658 -0.6430 0.0000
vn -0.9248 0.3804 -0.0000
vn 0.0000 -1.0000 0.0000
vn -1.0000 -0.0000 0.0000
vn -0.7658 0.6430 0.0000
vn 0.1517 0.9884 -0.0000
vn -0.7655 0.6434 0.0000
vn 0.1517 -0.9884 -0.0000
vn -0.8932 0.4497 -0.0000
vn -0.7655 -0.6434 0.0000
vn -0.8932 -0.4497 -0.0000
vn 0.9595 0.2819 -0.0000
vn -0.3788 -0.9255 0.0000
vn 0.9595 -0.2819 -0.0000
vn -0.3788 0.9255 -0.0000
vn 0.8894 -0.4572 0.0000
vn 0.7537 -0.6572 0.0000
vn 0.6988 -0.7153 0.0000
vn 0.8894 0.4572 -0.0000
vn -0.6097 -0.7926 -0.0000
vn 0.7537 0.6572 0.0000
vn 0.6988 0.7153 -0.0000
vn -0.6097 0.7926 0.0000
vn -0.8248 0.5654 0.0000
vn 0.9345 -0.3559 -0.0000
vn -0.8248 -0.5654 -0.0000
vn 0.9345 0.3559 -0.0000
vn 0.1566 -0.9877 0.0000
vn 0.9611 -0.2761 0.0000
vn 0.1566 0.9877 -0.0000
usemtl MI_Trim_01
s off
f 81/1/1 83/2/1 84/3/1 80/4/1
f 7/5/2 12/6/2 10/7/2 8/8/2
f 10/7/2 9/9/2 3/10/2 8/8/2
f 11/11/2 12/6/2 7/5/2 6/12/2
f 17/13/2 16/14/2 19/15/2 18/16/2
f 14/17/2 17/13/2 18/16/2 23/18/2
f 20/19/2 19/15/2 16/14/2 15/20/2
f 22/21/2 24/22/2 30/23/2 28/24/2
f 23/18/2 21/25/2 13/26/2 14/17/2
f 26/27/2 22/21/2 28/24/2 29/28/2
f 25/29/2 26/27/2 29/28/2 31/30/2
f 32/31/2 30/23/2 24/22/2 27/32/2
f 74/33/1 33/34/1 71/35/1 75/36/1
f 34/37/2 37/38/2 32/31/2 27/32/2 20/19/2 15/20/2 11/11/2 6/12/2 4/39/2
f 35/40/2 38/41/2 5/42/2 3/10/2 9/9/2 13/26/2 21/25/2 25/29/2 31/30/2
f 72/43/1 1/44/1 39/45/1 73/46/1
f 45/47/2 46/48/2 48/49/2 50/50/2
f 48/49/2 46/48/2 41/51/2 47/52/2
f 49/53/2 44/54/2 45/47/2 50/50/2
f 55/55/2 56/56/2 57/57/2 54/58/2
f 52/59/2 61/60/2 56/56/2 55/55/2
f 58/61/2 53/62/2 54/58/2 57/57/2
f 60/63/2 66/64/2 68/65/2 62/66/2
f 61/60/2 52/59/2 51/67/2 59/68/2
f 64/69/2 67/70/2 66/64/2 60/63/2
f 63/71/2 69/72/2 67/70/2 64/69/2
f 70/73/2 65/74/2 62/66/2 68/65/2
f 71/35/1 1/44/1 72/43/1 75/36/1
f 34/37/2 42/75/2 44/54/2 49/53/2 53/62/2 58/61/2 65/74/2 70/73/2 37/38/2
f 35/40/2 69/72/2 63/71/2 59/68/2 51/67/2 47/52/2 41/51/2 43/76/2 38/41/2
f 78/77/1 77/78/1 83/2/1 81/1/1
f 82/79/1 79/80/1 80/4/1 84/3/1
f 89/81/1 92/82/1 93/83/1 90/84/1
f 77/78/1 78/77/1 76/85/1 85/86/1
f 88/87/1 87/88/1 92/82/1 89/81/1
f 86/89/1 94/90/1 87/88/1 88/87/1
f 95/91/1 91/92/1 90/84/1 93/83/1
f 96/93/1 2/94/1 33/34/1 74/33/1 79/80/1 82/79/1 91/92/1 95/91/1 98/95/1
f 97/96/1 94/90/1 86/89/1 85/86/1 76/85/1 73/46/1 39/45/1 40/97/1 36/98/1
f 104/99/1 108/100/1 105/101/1 103/102/1
f 105/101/1 106/103/1 100/104/1 103/102/1
f 107/105/1 108/100/1 104/99/1 101/106/1
f 114/107/1 113/108/1 117/109/1 116/110/1
f 111/111/1 114/107/1 116/110/1 110/112/1
f 115/113/1 117/109/1 113/108/1 112/114/1
f 122/115/1 123/116/1 126/117/1 125/118/1
f 110/112/1 118/119/1 109/120/1 111/111/1
f 121/121/1 122/115/1 125/118/1 120/122/1
f 119/123/1 121/121/1 120/122/1 127/124/1
f 128/125/1 126/117/1 123/116/1 124/126/1
f 96/93/1 98/95/1 128/125/1 124/126/1 115/113/1 112/114/1 107/105/1 101/106/1 102/127/1
f 97/96/1 36/98/1 99/128/1 100/104/1 106/103/1 109/120/1 118/119/1 119/123/1 127/124/1
f 38/129/3 36/130/3 40/131/3 5/132/3
f 57/57/4 117/109/4 115/113/4 58/61/4
f 23/18/5 77/78/5 85/86/5 21/25/5
f 6/133/6 33/134/6 2/135/6 4/136/6
f 43/137/3 99/138/3 36/130/3 38/129/3
f 18/16/7 83/2/7 77/78/7 23/18/7
f 59/68/8 118/119/8 110/112/8 61/60/8
f 42/139/9 102/140/9 101/141/9 44/142/9
f 21/25/10 85/86/10 86/89/10 25/29/10
f 61/60/11 110/112/11 116/110/11 56/56/11
f 8/143/6 1/144/6 71/145/6 7/146/6
f 63/71/10 119/123/10 118/119/10 59/68/10
f 22/21/12 89/81/12 90/84/12 24/22/12
f 45/147/9 104/148/9 103/149/9 46/150/9
f 26/27/13 88/87/13 89/81/13 22/21/13
f 7/146/6 71/145/6 33/134/6 6/133/6
f 62/66/14 123/116/14 122/115/14 60/63/14
f 25/29/15 86/89/15 88/87/15 26/27/15
f 3/151/6 39/152/6 1/144/6 8/143/6
f 60/63/16 122/115/16 121/121/16 64/69/16
f 44/142/9 101/141/9 104/148/9 45/147/9
f 27/32/3 91/92/3 82/79/3 20/19/3
f 64/69/17 121/121/17 119/123/17 63/71/17
f 46/150/9 103/149/9 100/153/9 41/154/9
f 24/22/18 90/84/18 91/92/18 27/32/18
f 10/7/19 72/43/19 73/46/19 9/9/19
f 58/61/3 115/113/3 124/126/3 65/74/3
f 65/74/20 124/126/20 123/116/20 62/66/20
f 47/52/21 106/103/21 105/101/21 48/49/21
f 11/11/22 74/33/22 75/36/22 12/6/22
f 28/24/23 92/82/23 87/88/23 29/28/23
f 12/6/24 75/36/24 72/43/24 10/7/24
f 50/50/25 108/100/25 107/105/25 49/53/25
f 29/28/26 87/88/26 94/90/26 31/30/26
f 9/9/10 73/46/10 76/85/10 13/26/10
f 67/70/27 120/122/27 125/118/27 66/64/27
f 48/49/28 105/101/28 108/100/28 50/50/28
f 30/23/23 93/83/23 92/82/23 28/24/23
f 69/72/29 127/124/29 120/122/29 67/70/29
f 51/67/10 109/120/10 106/103/10 47/52/10
f 13/26/30 76/85/30 78/77/30 14/17/30
f 66/64/27 125/118/27 126/117/27 68/65/27
f 32/31/31 95/91/31 93/83/31 30/23/31
f 15/20/3 79/80/3 74/33/3 11/11/3
f 52/59/32 111/111/32 109/120/32 51/67/32
f 16/14/33 80/4/33 79/80/33 15/20/33
f 68/65/33 126/117/33 128/125/33 70/73/33
f 49/53/3 107/105/3 112/114/3 53/62/3
f 4/155/10 2/156/10 96/157/10 34/158/10
f 14/17/27 78/77/27 81/1/27 17/13/27
f 53/62/31 112/114/31 113/108/31 54/58/31
f 17/13/27 81/1/27 80/4/27 16/14/27
f 34/158/10 96/157/10 102/159/10 42/160/10
f 55/55/23 114/107/23 111/111/23 52/59/23
f 31/30/10 94/90/10 97/96/10 35/40/10
f 35/40/10 97/96/10 127/124/10 69/72/10
f 54/58/23 113/108/23 114/107/23 55/55/23
f 37/38/3 98/95/3 95/91/3 32/31/3
f 70/73/3 128/125/3 98/95/3 37/38/3
f 19/15/34 84/3/34 83/2/34 18/16/34
f 5/161/6 40/162/6 39/152/6 3/151/6
f 20/19/35 82/79/35 84/3/35 19/15/35
f 56/56/36 116/110/36 117/109/36 57/57/36
f 41/154/9 100/153/9 99/163/9 43/164/9
