# Blender v3.6.0 OBJ File: 'AllModules_Unreal.blend'
# www.blender.org
mtllib Column_Large3.mtl
o Column_Large3_Cube.038
v 0.000000 8.401675 1.501452
v 0.000000 9.954741 1.500501
v 0.000000 9.954136 -0.031255
v 0.000000 7.411652 -0.031255
v -0.769360 9.954136 -0.031255
v -0.760186 7.411652 -0.031255
v -0.753950 9.954216 0.814058
v -0.752331 7.956412 0.808956
v 0.000000 7.369013 1.162084
v 0.000000 6.430243 0.976726
v -0.760186 6.430243 0.452904
v 0.000000 6.430243 0.452904
v -0.758302 7.500722 0.165935
v -0.765665 9.954155 0.175786
v 0.000000 6.430243 0.714815
v -0.752418 6.430243 0.724569
v 0.000000 -0.003150 3.661763
v 0.000000 3.469475 1.953938
v 0.000000 5.296787 1.063072
v 0.000000 1.608926 2.861009
v 0.000000 7.225111 0.122959
v -0.695622 -0.003150 3.661763
v -0.689402 3.469475 1.953938
v -0.689402 5.296786 1.063072
v -0.689402 -0.003150 4.698178
v -0.689402 7.975000 0.781570
v -0.689402 3.872913 2.781455
v -0.689402 5.700225 1.890588
v -0.689402 1.608926 2.861010
v -0.689402 2.213027 3.580925
v -0.689402 -0.003150 3.883664
v -0.689402 3.558612 2.136773
v -0.689402 5.385924 1.245906
v -0.689402 1.698063 3.043844
v -0.689402 7.225701 0.348962
v -0.689402 7.225114 0.122957
v 0.000000 4.383131 1.508505
v -0.689402 4.383131 1.508505
v -0.689402 4.786569 2.336021
v -0.689402 4.472268 1.691339
v 0.000000 0.213360 3.544881
v -0.694714 0.213360 3.544881
v -0.689402 0.477883 4.433031
v -0.689402 0.302497 3.720625
v 0.000000 -0.003150 5.442480
v 0.000000 0.775400 5.063987
v 0.000000 1.979877 4.463429
v 0.000000 7.975000 0.781570
v 0.000000 3.872913 2.781455
v 0.000000 5.700225 1.890588
v 0.000000 2.213027 3.580925
v 0.000000 4.786569 2.336021
v -0.689402 1.702911 3.831436
v -0.689402 1.417402 3.179950
v -0.690440 1.336199 2.994655
v 0.000000 1.336198 2.994655
v -0.324881 -0.003150 5.706658
v -0.324880 0.113027 5.706658
v -0.324880 0.724043 5.090888
v -0.324881 -0.003150 5.442480
v 0.000000 -0.003150 5.706658
v 0.000000 0.113027 5.706658
v 0.000000 -0.003150 5.442480
v 0.000000 0.724043 5.090888
v 0.000000 1.702912 4.601525
v -0.538217 -0.003150 5.074726
v -0.538217 2.096452 4.022177
v -0.538217 0.626642 4.748509
v 0.000000 2.096452 4.022177
v -0.538217 1.702912 4.216481
v -0.459091 2.035440 4.253116
v -0.208427 1.979877 4.463429
v -0.399133 2.007659 4.358273
v -0.307383 1.987321 4.435253
v -0.208464 -0.003150 5.447217
v -0.460113 -0.003150 5.269254
v -0.307539 -0.003150 5.424860
v -0.399649 -0.003150 5.359721
v -0.208427 0.775400 5.063987
v -0.458077 0.705495 4.915737
v -0.307247 0.766035 5.044125
v -0.398626 0.740448 4.989862
v -0.458790 1.702912 4.418768
v -0.208427 1.702912 4.601525
v -0.398982 1.702912 4.510147
v -0.307343 1.702912 4.577041
v -0.324881 -0.003150 5.306655
v -0.324880 0.724043 4.955063
v 0.000000 -0.003150 5.306655
v 0.000000 0.724043 4.955063
v -0.718181 9.954567 1.273038
v -0.512631 9.954741 1.500501
v -0.684154 9.954655 1.386770
v -0.608917 9.954718 1.470027
v -0.717589 8.186903 1.272722
v -0.512630 8.401675 1.501452
v -0.683858 8.294289 1.387087
v -0.608838 8.372900 1.470808
v -0.737102 7.567500 1.048906
v -0.541527 7.369013 1.168978
v -0.708054 7.468257 1.109817
v -0.636469 7.395606 1.153766
v -0.556902 6.430243 0.991315
v -0.749253 6.430243 0.835237
v -0.651392 6.430243 0.972205
v -0.721798 6.430243 0.915076
v 0.769360 9.954136 -0.031255
v 0.760186 7.411652 -0.031255
v 0.753950 9.954216 0.814058
v 0.752331 7.956412 0.808956
v 0.760186 6.430243 0.452904
v 0.758302 7.500722 0.165935
v 0.765665 9.954155 0.175786
v 0.752418 6.430243 0.724569
v 0.695622 -0.003150 3.661763
v 0.689402 3.469475 1.953938
v 0.689402 5.296786 1.063072
v 0.689402 -0.003150 4.698178
v 0.689402 7.975000 0.781570
v 0.689402 3.872913 2.781455
v 0.689402 5.700225 1.890588
v 0.689402 1.608926 2.861010
v 0.689402 2.213027 3.580925
v 0.689402 -0.003150 3.883664
v 0.689402 3.558612 2.136773
v 0.689402 5.385924 1.245906
v 0.689402 1.698063 3.043844
v 0.689402 7.225701 0.348962
v 0.689402 7.225114 0.122957
v 0.689402 4.383131 1.508505
v 0.689402 4.786569 2.336021
v 0.689402 4.472268 1.691339
v 0.694714 0.213360 3.544881
v 0.689402 0.477883 4.433031
v 0.689402 0.302497 3.720625
v 0.689402 1.702911 3.831436
v 0.689402 1.417402 3.179950
v 0.690440 1.336199 2.994655
v 0.324881 -0.003150 5.706658
v 0.324880 0.113027 5.706658
v 0.324880 0.724043 5.090888
v 0.324881 -0.003150 5.442480
v 0.538217 -0.003150 5.074726
v 0.538217 2.096452 4.022177
v 0.538217 0.626642 4.748509
v 0.538217 1.702912 4.216481
v 0.459091 2.035440 4.253116
v 0.208427 1.979877 4.463429
v 0.399133 2.007659 4.358273
v 0.307383 1.987321 4.435253
v 0.208464 -0.003150 5.447217
v 0.460113 -0.003150 5.269254
v 0.307539 -0.003150 5.424860
v 0.399649 -0.003150 5.359721
v 0.208427 0.775400 5.063987
v 0.458077 0.705495 4.915737
v 0.307247 0.766035 5.044125
v 0.398626 0.740448 4.989862
v 0.458790 1.702912 4.418768
v 0.208427 1.702912 4.601525
v 0.398982 1.702912 4.510147
v 0.307343 1.702912 4.577041
v 0.324881 -0.003150 5.306655
v 0.324880 0.724043 4.955063
v 0.718181 9.954567 1.273038
v 0.512631 9.954741 1.500501
v 0.684154 9.954655 1.386770
v 0.608917 9.954718 1.470027
v 0.717589 8.186903 1.272722
v 0.512630 8.401675 1.501452
v 0.683858 8.294289 1.387087
v 0.608838 8.372900 1.470808
v 0.737102 7.567500 1.048906
v 0.541527 7.369013 1.168978
v 0.708054 7.468257 1.109817
v 0.636469 7.395606 1.153766
v 0.556902 6.430243 0.991315
v 0.749253 6.430243 0.835237
v 0.651392 6.430243 0.972205
v 0.721798 6.430243 0.915076
v -0.000000 5.105368 2.744955
v -0.000000 8.222034 1.269232
v -0.242680 8.194044 1.210538
v -0.420335 8.117575 1.050183
v -0.485361 8.013116 0.831135
v -0.000000 7.450525 1.626606
v -0.237924 7.423084 1.569062
v -0.412097 7.348114 1.411850
v -0.475848 7.245702 1.197096
v -0.000000 7.548559 1.579856
v -0.237924 7.521118 1.522312
v -0.412097 7.446147 1.365101
v -0.475848 7.343736 1.150346
v -0.123133 5.098347 2.730232
v -0.125594 8.214872 1.254215
v -0.343130 8.160812 1.140851
v -0.468725 8.067177 0.944499
v -0.459538 7.298704 1.308237
v -0.336405 7.390504 1.500741
v -0.123133 7.443505 1.611883
v -0.000000 7.669309 1.523590
v -0.238519 7.641799 1.465904
v -0.413126 7.566642 1.308299
v -0.477037 7.463974 1.093007
v -0.459538 7.396737 1.261488
v -0.336405 7.488537 1.453992
v -0.123133 7.541538 1.565134
v -0.123440 7.662271 1.508832
v -0.337246 7.609138 1.397412
v -0.460686 7.517108 1.204427
v -0.106945 5.071326 2.673569
v -0.206161 5.053676 2.636558
v -0.206161 7.239732 1.594081
v -0.291279 5.025517 2.577507
v -0.356700 4.988878 2.500678
v -0.356700 7.174934 1.458201
v -0.397704 4.946172 2.411124
v -0.411802 4.900545 2.315444
v -0.411802 7.086601 1.272967
v -0.397704 7.132228 1.368647
v -0.291279 7.211573 1.535030
v -0.106945 7.257382 1.631093
v 0.242680 8.194044 1.210538
v 0.420335 8.117575 1.050183
v 0.485361 8.013116 0.831135
v 0.237924 7.423084 1.569062
v 0.412097 7.348114 1.411850
v 0.475848 7.245702 1.197096
v 0.237924 7.521118 1.522312
v 0.412097 7.446147 1.365101
v 0.475848 7.343736 1.150346
v 0.123133 5.098347 2.730232
v 0.125594 8.214872 1.254215
v 0.343130 8.160812 1.140851
v 0.468725 8.067177 0.944499
v 0.459538 7.298704 1.308237
v 0.336405 7.390504 1.500741
v 0.123133 7.443505 1.611883
v 0.238519 7.641799 1.465904
v 0.413126 7.566642 1.308299
v 0.477037 7.463974 1.093007
v 0.459538 7.396737 1.261488
v 0.336405 7.488537 1.453992
v 0.123133 7.541538 1.565134
v 0.123440 7.662271 1.508832
v 0.337246 7.609138 1.397412
v 0.460686 7.517108 1.204427
v 0.106945 5.071326 2.673569
v 0.206161 5.053676 2.636558
v 0.206161 7.239732 1.594081
v 0.291279 5.025517 2.577507
v 0.356700 4.988878 2.500678
v 0.356700 7.174934 1.458201
v 0.397704 4.946172 2.411124
v 0.411802 4.900545 2.315444
v 0.411802 7.086601 1.272967
v 0.397704 7.132228 1.368647
v 0.291279 7.211573 1.535030
v 0.106945 7.257382 1.631093
v -0.000000 4.695722 1.885934
v -0.000000 7.804198 0.393037
v -0.242680 7.832188 0.451731
v -0.420335 7.908657 0.612086
v -0.000000 7.040879 0.767585
v -0.237924 7.068320 0.825129
v -0.412097 7.143291 0.982340
v -0.000000 7.138913 0.720835
v -0.237924 7.166354 0.778379
v -0.412097 7.241324 0.935590
v -0.123133 4.702742 1.900656
v -0.125594 7.811359 0.408054
v -0.343130 7.865419 0.521418
v -0.468725 7.959055 0.717770
v -0.459538 7.192702 1.085953
v -0.336405 7.100901 0.893449
v -0.123133 7.047900 0.782307
v -0.000000 7.258639 0.662423
v -0.238519 7.286149 0.720110
v -0.413126 7.361307 0.877715
v -0.459538 7.290735 1.039204
v -0.336405 7.198934 0.846699
v -0.123133 7.145933 0.735557
v -0.123440 7.265677 0.677182
v -0.337246 7.318811 0.788602
v -0.460686 7.410841 0.981587
v -0.106945 4.729763 1.957319
v -0.206161 4.747413 1.994329
v -0.206161 6.933469 0.951853
v -0.291279 4.775573 2.053380
v -0.356700 4.812211 2.130210
v -0.356700 6.998267 1.087733
v -0.397704 4.854918 2.219764
v -0.397704 7.040974 1.177287
v -0.291279 6.961629 1.010903
v -0.106945 6.915820 0.914841
v 0.242680 7.832188 0.451731
v 0.420335 7.908657 0.612086
v 0.237924 7.068320 0.825129
v 0.412097 7.143291 0.982340
v 0.237924 7.166354 0.778379
v 0.412097 7.241324 0.935590
v 0.123133 4.702742 1.900656
v 0.125594 7.811359 0.408054
v 0.343130 7.865419 0.521418
v 0.468725 7.959055 0.717770
v 0.459538 7.192702 1.085953
v 0.336405 7.100901 0.893449
v 0.123133 7.047900 0.782307
v 0.238519 7.286149 0.720110
v 0.413126 7.361307 0.877715
v 0.459538 7.290735 1.039204
v 0.336405 7.198934 0.846699
v 0.123133 7.145933 0.735557
v 0.123440 7.265677 0.677182
v 0.337246 7.318811 0.788602
v 0.460686 7.410841 0.981587
v 0.106945 4.729763 1.957319
v 0.206161 4.747413 1.994329
v 0.206161 6.933469 0.951853
v 0.291279 4.775573 2.053380
v 0.356700 4.812211 2.130210
v 0.356700 6.998267 1.087733
v 0.397704 4.854918 2.219764
v 0.397704 7.040974 1.177287
v 0.291279 6.961629 1.010903
v 0.106945 6.915820 0.914841
v -0.000000 1.996891 4.237851
v -0.242680 1.968902 4.179157
v -0.420335 1.892432 4.018802
v -0.485361 1.787974 3.799754
v -0.000000 2.760210 3.863303
v -0.237924 2.732769 3.805759
v -0.412097 2.657798 3.648548
v -0.475848 2.555387 3.433793
v -0.000000 2.662177 3.910053
v -0.237924 2.634735 3.852509
v -0.412097 2.559765 3.695298
v -0.475848 2.457353 3.480543
v -0.125594 1.989730 4.222835
v -0.343130 1.935670 4.109471
v -0.468725 1.842034 3.913118
v -0.459538 2.608387 3.544935
v -0.336405 2.700188 3.737439
v -0.123133 2.753189 3.848581
v -0.000000 2.542450 3.968465
v -0.238519 2.514940 3.910778
v -0.413126 2.439782 3.753173
v -0.477037 2.337115 3.537882
v -0.459538 2.510354 3.591685
v -0.336405 2.602155 3.784189
v -0.123133 2.655156 3.895331
v -0.123440 2.535412 3.953706
v -0.337246 2.482278 3.842287
v -0.460686 2.390248 3.649301
v -0.206161 2.867620 3.679035
v -0.356700 2.802822 3.543155
v -0.411802 2.714489 3.357921
v -0.397704 2.760116 3.453601
v -0.291279 2.839460 3.619985
v -0.106945 2.885270 3.716047
v 0.242680 1.968902 4.179157
v 0.420335 1.892432 4.018802
v 0.485361 1.787974 3.799754
v 0.237924 2.732769 3.805759
v 0.412097 2.657798 3.648548
v 0.475848 2.555387 3.433793
v 0.237924 2.634735 3.852509
v 0.412097 2.559765 3.695298
v 0.475848 2.457353 3.480543
v 0.125594 1.989730 4.222835
v 0.343130 1.935670 4.109471
v 0.468725 1.842034 3.913118
v 0.459538 2.608387 3.544935
v 0.336405 2.700188 3.737439
v 0.123133 2.753189 3.848581
v 0.238519 2.514940 3.910778
v 0.413126 2.439782 3.753173
v 0.477037 2.337115 3.537882
v 0.459538 2.510354 3.591685
v 0.336405 2.602155 3.784189
v 0.123133 2.655156 3.895331
v 0.123440 2.535412 3.953706
v 0.337246 2.482278 3.842287
v 0.460686 2.390248 3.649301
v 0.206161 2.867620 3.679035
v 0.356700 2.802822 3.543155
v 0.411802 2.714489 3.357921
v 0.397704 2.760116 3.453601
v 0.291279 2.839460 3.619985
v 0.106945 2.885270 3.716047
v 0.000000 1.579056 3.361656
v -0.242680 1.607045 3.420350
v -0.420335 1.683514 3.580705
v -0.000000 2.350564 3.004282
v -0.237924 2.378005 3.061826
v -0.412097 2.452975 3.219038
v 0.000000 2.252530 3.051032
v -0.237924 2.279971 3.108576
v -0.412097 2.354942 3.265787
v -0.125594 1.586217 3.376673
v -0.343130 1.640277 3.490037
v -0.468725 1.733913 3.686389
v -0.459538 2.502386 3.322651
v -0.336405 2.410585 3.130147
v -0.123133 2.357584 3.019005
v 0.000000 2.131780 3.107298
v -0.238519 2.159290 3.164985
v -0.413126 2.234447 3.322589
v -0.459538 2.404352 3.369401
v -0.336405 2.312552 3.176896
v -0.123133 2.259551 3.065754
v -0.123440 2.138818 3.122056
v -0.337246 2.191952 3.233476
v -0.460686 2.283982 3.426462
v -0.206161 2.561357 3.036807
v -0.356700 2.626155 3.172687
v -0.397704 2.668861 3.262242
v -0.291279 2.589516 3.095857
v -0.106945 2.543707 2.999796
v 0.242680 1.607045 3.420350
v 0.420335 1.683514 3.580705
v 0.237924 2.378005 3.061826
v 0.412097 2.452975 3.219038
v 0.237924 2.279971 3.108576
v 0.412097 2.354942 3.265787
v 0.125594 1.586217 3.376673
v 0.343130 1.640277 3.490037
v 0.468725 1.733913 3.686389
v 0.459538 2.502386 3.322651
v 0.336405 2.410585 3.130147
v 0.123133 2.357584 3.019005
v 0.238519 2.159290 3.164985
v 0.413126 2.234447 3.322589
v 0.459538 2.404352 3.369401
v 0.336405 2.312552 3.176896
v 0.123133 2.259551 3.065754
v 0.123440 2.138818 3.122056
v 0.337246 2.191952 3.233476
v 0.460686 2.283982 3.426462
v 0.206161 2.561357 3.036807
v 0.356700 2.626155 3.172687
v 0.397704 2.668861 3.262242
v 0.291279 2.589516 3.095857
v 0.106945 2.543707 2.999796
vt 0.000000 0.000000
vt 0.000000 0.000000
vt 0.000000 0.000000
vt 0.000000 0.000000
vt 0.000000 0.000000
vt 0.000000 0.000000
vt 0.000000 0.000000
vt 0.000000 0.000000
vt 0.000000 0.000000
vt 0.804209 0.459442
vt 0.804209 0.479681
vt 0.644272 0.479681
vt 0.644272 0.459442
vt 0.360187 0.421833
vt 0.339247 0.377206
vt 0.339247 0.392866
vt 0.360187 0.458934
vt 0.183781 0.458934
vt 0.183781 0.421833
vt 0.197455 0.421833
vt 0.197455 0.458934
vt 0.531331 0.479681
vt 0.531331 0.459442
vt 0.485388 0.458934
vt 0.634223 0.458934
vt 0.634223 0.421833
vt 0.485388 0.421833
vt 0.485388 0.479308
vt 0.634223 0.479308
vt 0.216264 0.479308
vt 0.360187 0.479308
vt 0.360187 0.458934
vt 0.216264 0.458934
vt 0.360187 0.421833
vt 0.216264 0.421833
vt 0.422788 0.479308
vt 0.422788 0.458934
vt 0.422788 0.421833
vt 0.197455 0.458934
vt 0.212588 0.458934
vt 0.212588 0.421833
vt 0.197455 0.421833
vt 0.057614 0.156331
vt 0.059551 0.332396
vt 0.030836 0.333818
vt 0.029603 0.156138
vt 0.057031 0.103239
vt 0.029338 0.118394
vt 0.194240 0.458934
vt 0.194240 0.421833
vt 0.060038 0.376718
vt 0.031135 0.376975
vt 0.300932 0.478927
vt 0.206854 0.478927
vt 0.206854 0.222088
vt 0.300932 0.222088
vt 0.298692 0.561463
vt 0.358329 0.561463
vt 0.358329 0.572724
vt 0.298692 0.572724
vt 0.282707 0.421832
vt 0.298208 0.264514
vt 0.345426 0.244749
vt 0.354118 0.265514
vt 0.282707 0.421832
vt 0.298208 0.264514
vt 0.206854 0.478927
vt 0.300932 0.478927
vt 0.804209 0.459442
vt 0.644272 0.459442
vt 0.644272 0.479681
vt 0.804209 0.479681
vt 0.360187 0.458934
vt 0.339247 0.392866
vt 0.183781 0.458934
vt 0.197455 0.458934
vt 0.531331 0.479681
vt 0.531331 0.459442
vt 0.485388 0.458934
vt 0.634223 0.458934
vt 0.485388 0.479308
vt 0.634223 0.479308
vt 0.216264 0.479308
vt 0.216264 0.458934
vt 0.360187 0.458934
vt 0.360187 0.479308
vt 0.422788 0.479308
vt 0.422788 0.458934
vt 0.197455 0.458934
vt 0.212588 0.458934
vt 0.057614 0.156331
vt 0.029603 0.156138
vt 0.030836 0.333818
vt 0.059551 0.332396
vt 0.057031 0.103239
vt 0.029338 0.118394
vt 0.194240 0.458934
vt 0.031135 0.376975
vt 0.060038 0.376718
vt 0.206854 0.222088
vt 0.206854 0.478927
vt 0.358329 0.572724
vt 0.358329 0.561463
vt 0.282707 0.421832
vt 0.354118 0.265514
vt 0.345426 0.244749
vt 0.298208 0.264514
vt 0.298208 0.264514
vt 0.282707 0.421832
vt 0.206854 0.478927
vt 0.668065 0.594708
vt 0.642065 0.594757
vt 0.642065 0.555777
vt 0.668065 0.555825
vt 0.619548 0.595099
vt 0.619548 0.555438
vt 0.466327 0.837836
vt 0.507676 0.837836
vt 0.507676 0.813940
vt 0.466327 0.813940
vt 0.424978 0.837835
vt 0.424978 0.813939
vt 0.383630 0.837835
vt 0.383630 0.837835
vt 0.689263 0.594708
vt 0.689263 0.555825
vt 1.196359 0.555825
vt 1.196359 0.594708
vt 0.549025 0.837836
vt 0.590374 0.837835
vt 0.590374 0.813939
vt 0.549025 0.813940
vt 0.587751 0.574619
vt 0.587751 0.550420
vt 0.609818 0.550420
vt 0.609817 0.574619
vt 0.653950 0.574620
vt 0.653950 0.550420
vt 0.676017 0.550420
vt 0.676017 0.574620
vt 0.698083 0.550420
vt 0.698083 0.574619
vt 0.631884 0.550420
vt 0.631884 0.574620
vt 0.332329 0.842952
vt 0.705851 0.842952
vt 0.677271 0.862952
vt 0.360908 0.862952
vt 0.493376 0.694105
vt 0.493376 0.689028
vt 0.493376 0.683951
vt 0.493376 0.678874
vt 0.493376 0.673797
vt 0.493376 0.668720
vt 0.668065 0.555825
vt 0.642065 0.555777
vt 0.619548 0.555438
vt 0.466327 0.837836
vt 0.466327 0.813940
vt 0.507676 0.813940
vt 0.507676 0.837836
vt 0.424978 0.837835
vt 0.424978 0.813939
vt 0.383630 0.837835
vt 0.383630 0.837835
vt 1.196359 0.555825
vt 0.689263 0.555825
vt 0.549025 0.837836
vt 0.549025 0.813940
vt 0.590374 0.813939
vt 0.590374 0.837835
vt 0.587751 0.574619
vt 0.609817 0.574619
vt 0.609818 0.550420
vt 0.587751 0.550420
vt 0.653950 0.574620
vt 0.676017 0.574620
vt 0.676017 0.550420
vt 0.653950 0.550420
vt 0.698083 0.574619
vt 0.698083 0.550420
vt 0.631884 0.574620
vt 0.631884 0.550420
vt 0.332329 0.842952
vt 0.360908 0.862952
vt 0.677271 0.862952
vt 0.705851 0.842952
vt 0.493376 0.668720
vt 0.493376 0.673797
vt 0.493376 0.678874
vt 0.493376 0.683951
vt 0.493376 0.689028
vt 0.493376 0.694105
vt 0.668065 0.594708
vt 0.668065 0.555825
vt 0.642065 0.555777
vt 0.642065 0.594757
vt 0.619548 0.555438
vt 0.619548 0.595099
vt 0.466327 0.837836
vt 0.466327 0.813940
vt 0.507676 0.813940
vt 0.507676 0.837836
vt 0.424978 0.837835
vt 0.424978 0.813939
vt 0.383630 0.837835
vt 0.383630 0.837835
vt 0.689263 0.594708
vt 1.196359 0.594708
vt 1.196359 0.555825
vt 0.689263 0.555825
vt 0.549025 0.837836
vt 0.549025 0.813940
vt 0.587751 0.574619
vt 0.609817 0.574619
vt 0.609818 0.550420
vt 0.587751 0.550420
vt 0.653950 0.574620
vt 0.676017 0.574620
vt 0.676017 0.550420
vt 0.653950 0.550420
vt 0.631884 0.574620
vt 0.631884 0.550420
vt 0.332329 0.842952
vt 0.360908 0.862952
vt 0.677271 0.862952
vt 0.705851 0.842952
vt 0.493376 0.668720
vt 0.493376 0.673797
vt 0.493376 0.678874
vt 0.493376 0.683951
vt 0.493376 0.689028
vt 0.642065 0.555777
vt 0.668065 0.555825
vt 0.619548 0.555438
vt 0.466327 0.837836
vt 0.507676 0.837836
vt 0.507676 0.813940
vt 0.466327 0.813940
vt 0.424978 0.837835
vt 0.424978 0.813939
vt 0.383630 0.837835
vt 0.383630 0.837835
vt 0.689263 0.555825
vt 1.196359 0.555825
vt 0.549025 0.837836
vt 0.549025 0.813940
vt 0.587751 0.574619
vt 0.587751 0.550420
vt 0.609818 0.550420
vt 0.609817 0.574619
vt 0.653950 0.574620
vt 0.653950 0.550420
vt 0.676017 0.550420
vt 0.676017 0.574620
vt 0.631884 0.550420
vt 0.631884 0.574620
vt 0.332329 0.842952
vt 0.705851 0.842952
vt 0.677271 0.862952
vt 0.360908 0.862952
vt 0.493376 0.689028
vt 0.493376 0.683951
vt 0.493376 0.678874
vt 0.493376 0.673797
vt 0.493376 0.668720
vt 0.668065 0.594708
vt 0.668065 0.555825
vt 0.642065 0.555777
vt 0.642065 0.594757
vt 0.619548 0.555438
vt 0.619548 0.595099
vt 0.466327 0.837836
vt 0.466327 0.813940
vt 0.507676 0.813940
vt 0.507676 0.837836
vt 0.424978 0.837835
vt 0.424978 0.813939
vt 0.383630 0.837835
vt 0.383630 0.837835
vt 0.689263 0.594708
vt 0.689263 0.555825
vt 0.549025 0.837836
vt 0.549025 0.813940
vt 0.590374 0.813939
vt 0.590374 0.837835
vt 0.587751 0.574619
vt 0.609817 0.574619
vt 0.609818 0.550420
vt 0.587751 0.550420
vt 0.653950 0.574620
vt 0.676017 0.574620
vt 0.676017 0.550420
vt 0.653950 0.550420
vt 0.698083 0.574619
vt 0.698083 0.550420
vt 0.631884 0.574620
vt 0.631884 0.550420
vt 0.677271 0.862952
vt 0.705851 0.842952
vt 0.493376 0.668720
vt 0.493376 0.673797
vt 0.493376 0.678874
vt 0.493376 0.683951
vt 0.493376 0.689028
vt 0.493376 0.694105
vt 0.642065 0.555777
vt 0.668065 0.555825
vt 0.619548 0.555438
vt 0.466327 0.837836
vt 0.507676 0.837836
vt 0.507676 0.813940
vt 0.466327 0.813940
vt 0.424978 0.837835
vt 0.424978 0.813939
vt 0.383630 0.837835
vt 0.383630 0.837835
vt 0.689263 0.555825
vt 0.549025 0.837836
vt 0.590374 0.837835
vt 0.590374 0.813939
vt 0.549025 0.813940
vt 0.587751 0.574619
vt 0.587751 0.550420
vt 0.609818 0.550420
vt 0.609817 0.574619
vt 0.653950 0.574620
vt 0.653950 0.550420
vt 0.676017 0.550420
vt 0.676017 0.574620
vt 0.698083 0.550420
vt 0.698083 0.574619
vt 0.631884 0.550420
vt 0.631884 0.574620
vt 0.705851 0.842952
vt 0.677271 0.862952
vt 0.493376 0.694105
vt 0.493376 0.689028
vt 0.493376 0.683951
vt 0.493376 0.678874
vt 0.493376 0.673797
vt 0.493376 0.668720
vt 0.668065 0.594708
vt 0.642065 0.594757
vt 0.642065 0.555777
vt 0.668065 0.555825
vt 0.619548 0.595099
vt 0.619548 0.555438
vt 0.466327 0.837836
vt 0.507676 0.837836
vt 0.507676 0.813940
vt 0.466327 0.813940
vt 0.424978 0.837835
vt 0.424978 0.813939
vt 0.383630 0.837835
vt 0.383630 0.837835
vt 0.689263 0.594708
vt 0.689263 0.555825
vt 0.549025 0.837836
vt 0.549025 0.813940
vt 0.587751 0.574619
vt 0.587751 0.550420
vt 0.609818 0.550420
vt 0.609817 0.574619
vt 0.653950 0.574620
vt 0.653950 0.550420
vt 0.676017 0.550420
vt 0.676017 0.574620
vt 0.631884 0.550420
vt 0.631884 0.574620
vt 0.705851 0.842952
vt 0.677271 0.862952
vt 0.493376 0.689028
vt 0.493376 0.683951
vt 0.493376 0.678874
vt 0.493376 0.673797
vt 0.493376 0.668720
vt 0.668065 0.555825
vt 0.642065 0.555777
vt 0.619548 0.555438
vt 0.466327 0.837836
vt 0.466327 0.813940
vt 0.507676 0.813940
vt 0.507676 0.837836
vt 0.424978 0.837835
vt 0.424978 0.813939
vt 0.383630 0.837835
vt 0.383630 0.837835
vt 0.689263 0.555825
vt 0.549025 0.837836
vt 0.549025 0.813940
vt 0.587751 0.574619
vt 0.609817 0.574619
vt 0.609818 0.550420
vt 0.587751 0.550420
vt 0.653950 0.574620
vt 0.676017 0.574620
vt 0.676017 0.550420
vt 0.653950 0.550420
vt 0.631884 0.574620
vt 0.631884 0.550420
vt 0.677271 0.862952
vt 0.705851 0.842952
vt 0.493376 0.668720
vt 0.493376 0.673797
vt 0.493376 0.678874
vt 0.493376 0.683951
vt 0.493376 0.689028
vt 0.067932 0.743388
vt 0.495530 0.735182
vt 0.494049 0.870995
vt 0.063683 0.881018
vt 0.693242 0.254712
vt 0.634906 0.217907
vt 0.805670 0.185782
vt 0.784798 0.723810
vt 0.785754 0.869947
vt 0.577346 0.933280
vt 0.577742 0.763814
vt 0.652030 0.763814
vt 0.651438 0.890553
vt 0.645431 0.911938
vt 0.629336 0.927574
vt 0.607448 0.933280
vt 0.462690 0.265330
vt 0.462847 0.248605
vt 0.623768 0.351264
vt 0.459559 0.479681
vt 0.459559 0.459442
vt 0.175588 0.463235
vt 0.175566 0.589793
vt 0.145095 0.589793
vt 0.145073 0.462928
vt 0.077818 0.108183
vt 0.076452 0.339402
vt -0.049414 0.339402
vt -0.049291 0.134272
vt 0.480815 0.344611
vt 0.637677 0.344611
vt 0.633509 0.247112
vt 0.480800 0.247112
vt -0.052134 0.344611
vt 0.323953 0.344611
vt 0.328090 0.247112
vt 0.017116 0.247112
vt 1.043317 0.344611
vt 0.974346 0.247112
vt 0.082774 0.069626
vt -0.046950 0.069626
vt 0.183984 0.505934
vt 0.158189 0.537194
vt 0.142850 0.550035
vt 0.124435 0.556647
vt 0.107877 0.555260
vt 0.076579 0.543120
vt 0.103162 0.474585
vt 0.178587 0.298677
vt 0.143410 0.312704
vt 0.145163 0.107684
vt 0.180862 0.107420
vt 0.637677 0.344611
vt 1.043317 0.344611
vt 0.148555 0.069626
vt 0.182538 0.069626
vt 0.480815 0.344611
vt 0.323953 0.344611
vt -0.052134 0.344611
vt 0.204451 0.471989
vt 0.284234 0.471989
vt 0.281465 0.535673
vt 0.203104 0.506950
vt 0.278252 0.339402
vt 0.241350 0.339402
vt 0.241990 0.286086
vt 0.278891 0.286182
vt 0.244131 0.107540
vt 0.281032 0.107954
vt 0.327334 0.454808
vt 0.325099 0.503986
vt 0.233270 0.446205
vt 0.129745 0.406050
vt 0.223791 0.342717
vt 0.224454 0.287924
vt 0.209729 0.339402
vt 0.210284 0.293040
vt 0.370210 0.442194
vt 0.368734 0.472298
vt 0.347937 0.487401
vt 0.349977 0.445781
vt 0.118985 0.589793
vt 0.118935 0.464385
vt 0.214312 0.070134
vt 0.212509 0.107185
vt 0.198398 0.107302
vt 0.200070 0.069831
vt 0.226634 0.107427
vt 0.196170 0.292408
vt 1.041898 0.720429
vt 1.042599 0.869733
vt 0.994430 0.184910
vt 0.833204 0.167941
vt 0.994349 0.166754
vt 0.852885 0.150534
vt 0.994251 0.149733
vt 0.068841 0.716333
vt 0.504452 0.708856
vt 0.619945 0.207750
vt 0.608228 0.195727
vt 0.778755 0.697746
vt 0.462878 0.235851
vt 0.462186 0.222170
vt 1.042918 0.694630
vt 0.994430 0.254966
vt 0.994067 0.351341
vt 0.067932 0.743388
vt 0.495530 0.735182
vt 0.693242 0.254712
vt 0.805670 0.185782
vt 0.634906 0.217907
vt 0.784798 0.723810
vt 0.577346 0.933280
vt 0.607448 0.933280
vt 0.629336 0.927574
vt 0.645431 0.911938
vt 0.651438 0.890553
vt 0.462690 0.265330
vt 0.623768 0.351264
vt 0.462847 0.248605
vt 0.145073 0.462928
vt 0.145095 0.589793
vt 0.077818 0.108183
vt -0.049291 0.134272
vt -0.049414 0.339402
vt 0.076452 0.339402
vt 0.480815 0.344611
vt 0.480800 0.247112
vt 0.633509 0.247112
vt 0.637677 0.344611
vt -0.052134 0.344611
vt 0.017116 0.247112
vt 0.328090 0.247112
vt 0.323953 0.344611
vt 0.974346 0.247112
vt 1.043317 0.344611
vt 0.082774 0.069626
vt -0.046950 0.069626
vt 0.183984 0.505934
vt 0.107877 0.555260
vt 0.124435 0.556647
vt 0.142850 0.550035
vt 0.158189 0.537194
vt 0.178587 0.298677
vt 0.180862 0.107420
vt 0.145163 0.107684
vt 0.143410 0.312704
vt 0.182538 0.069626
vt 0.148555 0.069626
vt 0.204451 0.471989
vt 0.203104 0.506950
vt 0.281465 0.535673
vt 0.284234 0.471989
vt 0.241990 0.286086
vt 0.241350 0.339402
vt 0.244131 0.107540
vt 0.325099 0.503986
vt 0.327334 0.454808
vt 0.233270 0.446205
vt 0.224454 0.287924
vt 0.223791 0.342717
vt 0.210284 0.293040
vt 0.209729 0.339402
vt 0.370210 0.442194
vt 0.349977 0.445781
vt 0.347937 0.487401
vt 0.368734 0.472298
vt 0.118935 0.464385
vt 0.118985 0.589793
vt 0.214312 0.070134
vt 0.200070 0.069831
vt 0.198398 0.107302
vt 0.212509 0.107185
vt 0.226634 0.107427
vt 0.196170 0.292408
vt 1.041898 0.720429
vt 0.994430 0.184910
vt 0.994349 0.166754
vt 0.833204 0.167941
vt 0.994251 0.149733
vt 0.852885 0.150534
vt 0.068841 0.716333
vt 0.504452 0.708856
vt 0.619945 0.207750
vt 0.608228 0.195727
vt 0.778755 0.697746
vt 0.462878 0.235851
vt 0.462186 0.222170
vt 1.042918 0.694630
vt 0.994430 0.254966
vt 0.994067 0.351341
vt 0.987020 0.289970
vt 0.987020 0.309295
vt 0.229159 0.309295
vt 0.229159 0.289970
vt 0.987020 0.328619
vt 0.229159 0.328619
vt 0.987020 0.251320
vt 0.987020 0.270645
vt 0.229159 0.270645
vt 0.229159 0.251320
vt 0.229159 0.226085
vt 0.987020 0.226085
vt 0.987020 0.247380
vt 0.229159 0.247380
vt 0.987020 0.289970
vt 0.229159 0.289970
vt 0.229159 0.309295
vt 0.987020 0.309295
vt 0.229159 0.328619
vt 0.987020 0.328619
vt 0.987020 0.251320
vt 0.229159 0.251320
vt 0.229159 0.270645
vt 0.987020 0.270645
vt 0.229159 0.226085
vt 0.229159 0.247380
vt 0.987020 0.247380
vt 0.987020 0.226085
vt 0.987020 0.289970
vt 0.229159 0.289970
vt 0.229159 0.309295
vt 0.987020 0.309295
vt 0.987020 0.251320
vt 0.229159 0.251320
vt 0.229159 0.270645
vt 0.987020 0.270645
vt 0.229159 0.226085
vt 0.229159 0.247380
vt 0.987020 0.247380
vt 0.987020 0.226085
vt 0.987020 0.289970
vt 0.987020 0.309295
vt 0.229159 0.309295
vt 0.229159 0.289970
vt 0.987020 0.251320
vt 0.987020 0.270645
vt 0.229159 0.270645
vt 0.229159 0.251320
vt 0.229159 0.226085
vt 0.987020 0.226085
vt 0.987020 0.247380
vt 0.229159 0.247380
vt 0.987020 0.289970
vt 0.987020 0.309295
vt 0.987020 0.328619
vt 0.987020 0.251320
vt 0.987020 0.270645
vt 0.987020 0.247380
vt 0.987020 0.226085
vt 0.987020 0.289970
vt 0.987020 0.309295
vt 0.987020 0.328619
vt 0.987020 0.251320
vt 0.987020 0.270645
vt 0.987020 0.226085
vt 0.987020 0.247380
vt 0.987020 0.289970
vt 0.987020 0.309295
vt 0.987020 0.251320
vt 0.987020 0.270645
vt 0.987020 0.226085
vt 0.987020 0.247380
vt 0.987020 0.289970
vt 0.987020 0.309295
vt 0.987020 0.251320
vt 0.987020 0.270645
vt 0.987020 0.247380
vt 0.987020 0.226085
vt 0.461799 0.668720
vt 0.461799 0.673797
vt 0.430223 0.668720
vt 0.430223 0.673797
vt 0.461799 0.678874
vt 0.430223 0.678874
vt 0.461799 0.683951
vt 0.430223 0.683951
vt 0.461799 0.689028
vt 0.430223 0.689028
vt 0.461799 0.694105
vt 0.430223 0.694105
vt 0.461799 0.668720
vt 0.461799 0.673797
vt 0.430223 0.668720
vt 0.430223 0.673797
vt 0.430223 0.678874
vt 0.461799 0.678874
vt 0.461799 0.683951
vt 0.430223 0.683951
vt 0.430223 0.689028
vt 0.461799 0.689028
vt 0.461799 0.694105
vt 0.430223 0.694105
vt 0.461799 0.668720
vt 0.461799 0.673797
vt 0.430223 0.668720
vt 0.430223 0.673797
vt 0.430223 0.678874
vt 0.461799 0.678874
vt 0.461799 0.683951
vt 0.430223 0.683951
vt 0.430223 0.689028
vt 0.461799 0.689028
vt 0.461799 0.668720
vt 0.461799 0.673797
vt 0.430223 0.668720
vt 0.430223 0.673797
vt 0.461799 0.678874
vt 0.430223 0.678874
vt 0.461799 0.683951
vt 0.430223 0.683951
vt 0.461799 0.689028
vt 0.430223 0.689028
vt 0.461799 0.668720
vt 0.461799 0.673797
vt 0.430223 0.668720
vt 0.430223 0.673797
vt 0.430223 0.678874
vt 0.461799 0.678874
vt 0.461799 0.683951
vt 0.430223 0.683951
vt 0.430223 0.689028
vt 0.461799 0.689028
vt 0.461799 0.694105
vt 0.430223 0.694105
vt 0.461799 0.668720
vt 0.461799 0.673797
vt 0.430223 0.668720
vt 0.430223 0.673797
vt 0.461799 0.678874
vt 0.430223 0.678874
vt 0.461799 0.683951
vt 0.430223 0.683951
vt 0.461799 0.689028
vt 0.430223 0.689028
vt 0.461799 0.694105
vt 0.430223 0.694105
vt 0.461799 0.668720
vt 0.461799 0.673797
vt 0.430223 0.668720
vt 0.430223 0.673797
vt 0.461799 0.678874
vt 0.430223 0.678874
vt 0.461799 0.683951
vt 0.430223 0.683951
vt 0.461799 0.689028
vt 0.430223 0.689028
vt 0.461799 0.668720
vt 0.461799 0.673797
vt 0.430223 0.668720
vt 0.430223 0.673797
vt 0.430223 0.678874
vt 0.461799 0.678874
vt 0.461799 0.683951
vt 0.430223 0.683951
vt 0.430223 0.689028
vt 0.461799 0.689028
vn 0.0000 -1.0000 0.0000
vn -0.9999 -0.0027 0.0145
vn -0.9999 -0.0033 0.0145
vn -0.9998 0.0025 0.0172
vn -0.9998 0.0002 0.0185
vn 0.0000 -0.2271 -0.9739
vn 0.0000 -0.4424 -0.8968
vn -0.0000 -0.2269 -0.9739
vn 0.0000 0.0000 -1.0000
vn -0.9998 0.0069 0.0193
vn -0.9997 0.0019 0.0227
vn 0.0000 -0.4382 -0.8989
vn -1.0000 0.0000 0.0000
vn -1.0000 0.0007 0.0004
vn -1.0000 0.0013 0.0008
vn -0.0000 -0.4391 -0.8984
vn -0.0000 -0.4577 -0.8891
vn -0.0000 -0.4400 -0.8980
vn -0.0000 -0.4576 -0.8891
vn -0.9999 0.0061 0.0099
vn -1.0000 0.0028 0.0039
vn -1.0000 0.0055 0.0074
vn -0.9997 0.0120 0.0195
vn -0.9999 0.0053 0.0088
vn -0.9996 0.0154 0.0255
vn 0.0000 -0.4750 -0.8800
vn 0.0000 0.7098 0.7044
vn 0.0000 0.0000 1.0000
vn 0.0000 -0.4353 -0.9003
vn 0.0000 1.0000 0.0000
vn 0.9999 -0.0027 0.0145
vn 0.9998 0.0002 0.0185
vn 0.9998 0.0025 0.0172
vn 0.9999 -0.0033 0.0145
vn 0.9998 0.0069 0.0193
vn 0.9997 0.0019 0.0227
vn 1.0000 0.0000 0.0000
vn 1.0000 0.0007 0.0004
vn 1.0000 0.0013 0.0008
vn 0.9999 0.0061 0.0099
vn 0.9997 0.0120 0.0195
vn 1.0000 0.0055 0.0074
vn 1.0000 0.0028 0.0039
vn 0.9999 0.0053 0.0088
vn 0.9996 0.0154 0.0255
vn 0.0000 0.4264 0.9045
vn 0.0000 0.4202 0.9074
vn -0.2588 0.4055 0.8767
vn -0.2588 0.4117 0.8738
vn 0.0000 0.4180 0.9084
vn -0.2588 0.4034 0.8777
vn -0.6965 0.1446 0.7029
vn -0.8531 0.0572 0.5186
vn -0.8525 0.0524 0.5201
vn -0.6960 0.1398 0.7043
vn -0.4924 0.2116 0.8443
vn -0.4922 0.2066 0.8456
vn -0.2550 0.3376 0.9061
vn -0.3760 0.2324 0.8970
vn -0.0000 0.4304 0.9026
vn -0.1313 0.4267 0.8948
vn -0.9516 -0.0447 0.3040
vn -0.9853 -0.1544 0.0736
vn -0.9844 -0.1589 0.0758
vn -0.9508 -0.0493 0.3058
vn -0.5000 0.3687 0.7836
vn -0.8660 0.2112 0.4532
vn -0.9659 0.1074 0.2355
vn -1.0000 -0.0040 0.0019
vn -0.7071 0.3003 0.6402
vn -0.9683 -0.1075 -0.2254
vn 0.0000 0.9026 -0.4304
vn 0.2588 0.4117 0.8738
vn 0.2588 0.4055 0.8767
vn 0.2588 0.4034 0.8777
vn 0.6965 0.1446 0.7029
vn 0.6960 0.1398 0.7043
vn 0.8525 0.0524 0.5201
vn 0.8531 0.0572 0.5186
vn 0.4924 0.2116 0.8443
vn 0.4922 0.2066 0.8456
vn 0.2550 0.3376 0.9061
vn 0.3760 0.2324 0.8970
vn 0.1313 0.4267 0.8948
vn 0.9516 -0.0447 0.3040
vn 0.9508 -0.0493 0.3058
vn 0.9844 -0.1589 0.0758
vn 0.9853 -0.1544 0.0736
vn 0.5000 0.3687 0.7836
vn 0.9659 0.1074 0.2355
vn 0.8660 0.2112 0.4532
vn 1.0000 -0.0040 0.0019
vn 0.7071 0.3003 0.6402
vn 0.9683 -0.1075 -0.2254
vn 0.0000 -0.4345 -0.9007
vn -0.2588 -0.4198 -0.8699
vn -0.2588 -0.4259 -0.8669
vn 0.0000 -0.4406 -0.8977
vn -0.2588 -0.4281 -0.8659
vn 0.0000 -0.4427 -0.8966
vn -0.6965 -0.4551 -0.5548
vn -0.6960 -0.4593 -0.5519
vn -0.8525 -0.3712 -0.3681
vn -0.8531 -0.3670 -0.3708
vn -0.4924 -0.5229 -0.6958
vn -0.4922 -0.5270 -0.6928
vn -0.2550 -0.4915 -0.8327
vn -0.3760 -0.5508 -0.7452
vn 0.0000 -0.4304 -0.9026
vn -0.1313 -0.4267 -0.8948
vn -0.9516 -0.2644 -0.1566
vn -0.9508 -0.2687 -0.1542
vn -0.5000 -0.3768 -0.7798
vn -0.9659 -0.1154 -0.2317
vn -0.8660 -0.2192 -0.4494
vn -0.7071 -0.3084 -0.6363
vn -0.9683 0.1075 0.2254
vn 0.2588 -0.4259 -0.8669
vn 0.2588 -0.4198 -0.8699
vn 0.2588 -0.4281 -0.8659
vn 0.6965 -0.4551 -0.5548
vn 0.8531 -0.3670 -0.3708
vn 0.8525 -0.3712 -0.3681
vn 0.6960 -0.4593 -0.5519
vn 0.4924 -0.5229 -0.6958
vn 0.4922 -0.5270 -0.6928
vn 0.2550 -0.4915 -0.8327
vn 0.3760 -0.5508 -0.7452
vn 0.1313 -0.4267 -0.8948
vn 0.9516 -0.2644 -0.1566
vn 0.9508 -0.2687 -0.1542
vn 0.5000 -0.3768 -0.7798
vn 0.8660 -0.2192 -0.4494
vn 0.9659 -0.1154 -0.2317
vn 0.7071 -0.3084 -0.6363
vn 0.9683 0.1075 0.2254
vn -0.0000 0.4345 0.9007
vn -0.2588 0.4198 0.8699
vn -0.2588 0.4259 0.8669
vn 0.0000 0.4406 0.8977
vn -0.2588 0.4281 0.8659
vn 0.0000 0.4427 0.8966
vn -0.6965 0.4551 0.5548
vn -0.6960 0.4593 0.5519
vn -0.8525 0.3712 0.3681
vn -0.8531 0.3670 0.3708
vn -0.4924 0.5229 0.6958
vn -0.4922 0.5270 0.6928
vn -0.2550 0.4915 0.8327
vn -0.3760 0.5508 0.7452
vn -0.9516 0.2644 0.1566
vn -0.9508 0.2687 0.1542
vn -0.9844 0.1589 -0.0758
vn -0.9853 0.1544 -0.0736
vn -0.5000 0.3768 0.7798
vn -0.9659 0.1154 0.2317
vn -0.8660 0.2192 0.4494
vn -1.0000 0.0040 -0.0019
vn -0.7071 0.3084 0.6363
vn -0.0000 -0.9026 0.4304
vn 0.2588 0.4259 0.8669
vn 0.2588 0.4198 0.8699
vn 0.2588 0.4281 0.8659
vn 0.6965 0.4551 0.5548
vn 0.8531 0.3670 0.3708
vn 0.8525 0.3712 0.3681
vn 0.6960 0.4593 0.5519
vn 0.4924 0.5229 0.6958
vn 0.4922 0.5270 0.6928
vn 0.2550 0.4915 0.8327
vn 0.3760 0.5508 0.7452
vn 0.9516 0.2644 0.1566
vn 0.9853 0.1544 -0.0736
vn 0.9844 0.1589 -0.0758
vn 0.9508 0.2687 0.1542
vn 0.5000 0.3768 0.7798
vn 0.8660 0.2192 0.4494
vn 0.9659 0.1154 0.2317
vn 1.0000 0.0040 -0.0019
vn 0.7071 0.3084 0.6363
vn -0.0000 -0.4264 -0.9045
vn 0.0000 -0.4202 -0.9074
vn -0.2588 -0.4055 -0.8767
vn -0.2588 -0.4117 -0.8738
vn 0.0000 -0.4180 -0.9084
vn -0.2588 -0.4034 -0.8777
vn -0.6965 -0.1446 -0.7029
vn -0.8531 -0.0572 -0.5186
vn -0.8525 -0.0524 -0.5201
vn -0.6960 -0.1398 -0.7043
vn -0.4924 -0.2116 -0.8443
vn -0.4922 -0.2066 -0.8456
vn -0.2550 -0.3376 -0.9061
vn -0.3760 -0.2324 -0.8970
vn -0.9516 0.0447 -0.3040
vn -0.9508 0.0493 -0.3058
vn -0.5000 -0.3687 -0.7836
vn -0.8660 -0.2112 -0.4532
vn -0.9659 -0.1074 -0.2355
vn -0.7071 -0.3003 -0.6402
vn 0.2588 -0.4117 -0.8738
vn 0.2588 -0.4055 -0.8767
vn 0.2588 -0.4034 -0.8777
vn 0.6965 -0.1446 -0.7029
vn 0.6960 -0.1398 -0.7043
vn 0.8525 -0.0524 -0.5201
vn 0.8531 -0.0572 -0.5186
vn 0.4924 -0.2116 -0.8443
vn 0.4922 -0.2066 -0.8456
vn 0.2550 -0.3376 -0.9061
vn 0.3760 -0.2324 -0.8970
vn 0.9516 0.0447 -0.3040
vn 0.9508 0.0493 -0.3058
vn 0.5000 -0.3687 -0.7836
vn 0.9659 -0.1074 -0.2355
vn 0.8660 -0.2112 -0.4532
vn 0.7071 -0.3003 -0.6402
vn -0.1531 0.0006 0.9882
vn -0.1335 -0.1387 0.9813
vn 0.0000 -0.1563 0.9877
vn 0.0000 0.0006 1.0000
vn -0.9991 0.0003 0.0414
vn -0.9823 -0.0379 0.1832
vn -0.9756 -0.0376 0.2165
vn -0.0994 -0.2410 0.9654
vn 0.0000 -0.2501 0.9682
vn -0.9858 -0.0240 0.1661
vn 0.0000 0.4394 0.8983
vn 0.0000 0.4428 0.8966
vn -0.1041 0.4412 0.8914
vn -0.0962 0.4389 0.8934
vn -0.9792 0.0924 0.1804
vn -0.9788 0.0904 0.1836
vn -0.9959 0.0400 0.0812
vn -0.9624 0.1276 0.2398
vn 0.0000 0.9668 0.2554
vn -0.8671 0.2215 0.4462
vn -0.9163 0.1773 0.3592
vn -0.9155 0.1822 0.3586
vn -0.8664 0.2237 0.4465
vn 0.0000 0.4382 0.8989
vn -0.9144 0.1865 0.3594
vn -0.8504 0.2369 0.4698
vn 0.0000 0.4361 0.8999
vn 0.0000 0.4339 0.9009
vn 0.0000 0.4462 0.8949
vn -0.1148 0.4432 0.8890
vn -0.1088 0.4435 0.8896
vn -0.9158 0.1775 0.3602
vn -0.4188 0.4050 0.8128
vn -0.3881 0.4111 0.8248
vn -0.7292 0.3049 0.6127
vn -0.6887 0.3232 0.6491
vn -0.8877 0.2045 0.4125
vn -0.3847 0.4107 0.8267
vn -0.3607 0.4137 0.8359
vn -0.6870 0.3241 0.6504
vn -0.6561 0.3365 0.6755
vn -0.0930 -0.1853 0.9783
vn 0.0000 -0.1900 0.9818
vn -0.9834 -0.0005 0.1817
vn -0.8304 -0.0995 0.5482
vn -0.8723 -0.0001 0.4889
vn -0.4947 -0.1258 0.8599
vn -0.5420 0.0003 0.8404
vn -0.8196 -0.1321 0.5575
vn -0.4343 -0.2100 0.8759
vn -0.8256 -0.0940 0.5564
vn -0.4333 -0.1606 0.8868
vn -0.9990 -0.0014 0.0455
vn 0.1531 0.0006 0.9882
vn 0.1335 -0.1387 0.9813
vn 0.9991 0.0003 0.0414
vn 0.9756 -0.0376 0.2165
vn 0.9823 -0.0379 0.1832
vn 0.0994 -0.2410 0.9654
vn 0.9858 -0.0240 0.1661
vn 0.0962 0.4389 0.8934
vn 0.1041 0.4412 0.8914
vn 0.9792 0.0924 0.1804
vn 0.9788 0.0904 0.1836
vn 0.9959 0.0400 0.0812
vn 0.9624 0.1276 0.2398
vn 0.8671 0.2215 0.4462
vn 0.8664 0.2237 0.4465
vn 0.9155 0.1822 0.3586
vn 0.9163 0.1773 0.3592
vn 0.8504 0.2369 0.4698
vn 0.9144 0.1865 0.3594
vn 0.1088 0.4435 0.8896
vn 0.1148 0.4432 0.8890
vn 0.9158 0.1775 0.3602
vn 0.3881 0.4111 0.8248
vn 0.4188 0.4050 0.8128
vn 0.6887 0.3232 0.6491
vn 0.7292 0.3049 0.6127
vn 0.8877 0.2045 0.4125
vn 0.3607 0.4137 0.8359
vn 0.3847 0.4107 0.8267
vn 0.6561 0.3365 0.6755
vn 0.6870 0.3241 0.6504
vn 0.0930 -0.1853 0.9783
vn 0.9834 -0.0005 0.1817
vn 0.8723 -0.0001 0.4889
vn 0.8304 -0.0995 0.5482
vn 0.5420 0.0003 0.8404
vn 0.4947 -0.1258 0.8599
vn 0.8196 -0.1321 0.5575
vn 0.4343 -0.2100 0.8759
vn 0.8256 -0.0940 0.5564
vn 0.4333 -0.1606 0.8868
vn 0.9990 -0.0014 0.0455
vn -0.9659 0.1115 0.2338
vn -0.8660 0.2152 0.4513
vn -0.7071 0.3044 0.6382
vn -0.5000 0.3728 0.7817
vn -0.3820 0.3978 0.8342
vn 0.8660 0.2152 0.4513
vn 0.9659 0.1115 0.2338
vn 0.5000 0.3728 0.7817
vn 0.7071 0.3044 0.6382
vn 0.3820 0.3978 0.8342
vn -0.8660 -0.2152 -0.4513
vn -0.9659 -0.1115 -0.2338
vn -0.5000 -0.3728 -0.7817
vn -0.7071 -0.3044 -0.6382
vn -0.3819 -0.3978 -0.8342
vn 0.9659 -0.1115 -0.2338
vn 0.8660 -0.2152 -0.4513
vn 0.7071 -0.3044 -0.6382
vn 0.5000 -0.3728 -0.7817
vn 0.3819 -0.3978 -0.8342
vn -0.5000 0.3604 0.7875
vn -0.5000 0.3625 0.7865
vn -0.7071 0.2941 0.6431
vn -0.7070 0.2920 0.6441
vn -0.8659 0.2029 0.4572
vn -0.8660 0.2050 0.4561
vn -0.9659 0.1012 0.2385
vn -0.9658 0.0990 0.2395
vn -0.9999 -0.0123 0.0059
vn -0.9999 -0.0102 0.0049
vn 0.5000 0.3625 0.7865
vn 0.5000 0.3604 0.7875
vn 0.7071 0.2941 0.6431
vn 0.7070 0.2920 0.6441
vn 0.8660 0.2050 0.4561
vn 0.8659 0.2029 0.4572
vn 0.9659 0.1012 0.2385
vn 0.9658 0.0990 0.2395
vn 0.9999 -0.0102 0.0049
vn 0.9999 -0.0123 0.0059
vn -0.5000 -0.3830 -0.7768
vn -0.5000 -0.3851 -0.7757
vn -0.7071 -0.3145 -0.6333
vn -0.7070 -0.3167 -0.6323
vn -0.8660 -0.2254 -0.4464
vn -0.8659 -0.2275 -0.4454
vn -0.9659 -0.1216 -0.2287
vn -0.9658 -0.1237 -0.2277
vn 0.5000 -0.3851 -0.7757
vn 0.5000 -0.3830 -0.7768
vn 0.7071 -0.3145 -0.6333
vn 0.7070 -0.3167 -0.6323
vn 0.8659 -0.2275 -0.4454
vn 0.8660 -0.2254 -0.4464
vn 0.9659 -0.1216 -0.2287
vn 0.9658 -0.1237 -0.2277
vn -0.5000 0.3830 0.7768
vn -0.5000 0.3851 0.7757
vn -0.7071 0.3145 0.6333
vn -0.7070 0.3167 0.6323
vn -0.8660 0.2254 0.4464
vn -0.8659 0.2275 0.4454
vn -0.9659 0.1216 0.2287
vn -0.9658 0.1237 0.2277
vn -0.9999 0.0102 -0.0049
vn -0.9999 0.0123 -0.0059
vn 0.5000 0.3851 0.7757
vn 0.5000 0.3830 0.7768
vn 0.7071 0.3145 0.6333
vn 0.7070 0.3167 0.6323
vn 0.8659 0.2275 0.4454
vn 0.8660 0.2254 0.4464
vn 0.9659 0.1216 0.2287
vn 0.9658 0.1237 0.2277
vn 0.9999 0.0123 -0.0059
vn 0.9999 0.0102 -0.0049
vn -0.5000 -0.3604 -0.7875
vn -0.5000 -0.3625 -0.7865
vn -0.7071 -0.2941 -0.6431
vn -0.7070 -0.2920 -0.6441
vn -0.8659 -0.2028 -0.4572
vn -0.8660 -0.2050 -0.4561
vn -0.9659 -0.1012 -0.2385
vn -0.9658 -0.0990 -0.2395
vn 0.5000 -0.3625 -0.7865
vn 0.5000 -0.3604 -0.7875
vn 0.7071 -0.2941 -0.6431
vn 0.7070 -0.2920 -0.6441
vn 0.8660 -0.2050 -0.4561
vn 0.8659 -0.2028 -0.4572
vn 0.9659 -0.1012 -0.2385
vn 0.9658 -0.0990 -0.2395
usemtl MI_Trim_03
s off
f 60/1/1 63/2/1 61/3/1 57/4/1
f 63/2/1 60/1/1 87/5/1 89/6/1
f 142/7/1 139/8/1 61/3/1 63/2/1
f 63/2/1 89/6/1 163/9/1 142/7/1
usemtl MI_Trim_01
s 1
f 14/10/2 5/11/3 6/12/4 13/13/5
f 4/14/6 12/15/7 11/16/7 6/17/8
f 5/18/9 3/19/9 4/20/6 6/21/8
f 11/22/10 16/23/11 13/13/5 6/12/4
f 24/24/12 36/25/12 21/26/12 19/27/12
f 33/28/13 35/29/13 36/25/13 24/24/13
f 34/30/14 32/31/13 23/32/13 29/33/15
f 29/33/16 23/32/12 18/34/12 20/35/16
f 40/36/13 33/28/13 24/24/13 38/37/13
f 38/37/12 24/24/12 19/27/12 37/38/12
f 42/39/17 55/40/18 56/41/18 41/42/19
f 44/43/20 54/44/21 55/45/22 42/46/23
f 23/32/12 38/37/12 37/38/12 18/34/12
f 32/31/13 40/36/13 38/37/13 23/32/13
f 31/47/24 44/43/20 42/46/23 22/48/25
f 22/49/26 42/39/17 41/42/19 17/50/26
f 55/45/22 54/44/21 34/51/14 29/52/15
f 56/41/18 55/40/18 29/33/16 20/35/16
f 64/53/27 59/54/27 58/55/27 62/56/27
f 62/57/28 58/58/28 57/59/28 61/60/28
f 59/61/13 60/62/13 57/63/13 58/64/13
f 60/62/13 59/61/13 88/65/13 87/66/13
f 88/67/29 90/68/29 89/6/29 87/5/29
f 59/54/30 64/53/30 90/68/30 88/67/30
f 113/69/31 112/70/32 108/71/33 107/72/34
f 4/14/6 108/73/8 111/74/7 12/15/7
f 107/75/9 108/76/8 4/20/6 3/19/9
f 111/77/35 108/71/33 112/70/32 114/78/36
f 117/79/12 19/27/12 21/26/12 129/80/12
f 126/81/37 117/79/37 129/80/37 128/82/37
f 127/83/38 122/84/39 116/85/37 125/86/37
f 122/84/16 20/35/16 18/34/12 116/85/12
f 132/87/37 130/88/37 117/79/37 126/81/37
f 130/88/12 37/38/12 19/27/12 117/79/12
f 133/89/17 41/42/19 56/41/18 138/90/18
f 135/91/40 133/92/41 138/93/42 137/94/43
f 116/85/12 18/34/12 37/38/12 130/88/12
f 125/86/37 116/85/37 130/88/37 132/87/37
f 124/95/44 115/96/45 133/92/41 135/91/40
f 115/97/26 17/50/26 41/42/19 133/89/17
f 138/93/42 122/98/39 127/99/38 137/94/43
f 56/41/18 20/35/16 122/84/16 138/90/18
f 64/53/27 62/56/27 140/100/27 141/101/27
f 62/57/28 61/60/28 139/102/28 140/103/28
f 141/104/37 140/105/37 139/106/37 142/107/37
f 142/107/37 163/108/37 164/109/37 141/104/37
f 164/110/29 163/9/29 89/6/29 90/68/29
f 141/101/30 164/110/30 90/68/30 64/53/30
f 190/111/46 201/112/47 208/113/48 207/114/49
f 201/112/47 182/115/50 195/116/51 208/113/48
f 199/117/52 188/118/53 216/119/54 221/120/55
f 187/121/56 199/117/52 221/120/55 213/122/57
f 200/123/58 187/121/56 213/122/57 222/124/59
f 186/125/60 200/126/58 194/127/61 181/128/60
f 198/129/62 189/130/63 219/131/64 220/132/65
f 190/111/46 207/114/49 200/126/58 186/125/60
f 200/133/58 207/134/49 191/135/66 187/136/56
f 188/137/53 192/138/67 205/139/68 198/140/62
f 198/140/62 205/139/68 193/141/69 189/142/63
f 191/135/66 206/143/70 199/144/52 187/136/56
f 199/144/52 206/143/70 192/138/67 188/137/53
f 188/118/53 198/129/62 220/132/65 216/119/54
f 194/145/71 200/146/71 222/147/71 211/148/71
f 182/115/72 185/149/72 197/150/72 184/151/72 196/152/72 183/153/72 195/154/72
f 190/111/46 244/155/73 245/156/74 201/112/47
f 201/112/47 245/156/74 233/157/75 182/115/50
f 237/158/76 258/159/77 253/160/78 227/161/79
f 226/162/80 250/163/81 258/159/77 237/158/76
f 238/164/82 259/165/83 250/163/81 226/162/80
f 186/125/60 181/128/60 232/166/84 238/167/82
f 236/168/85 257/169/86 256/170/87 228/171/88
f 190/111/46 186/125/60 238/167/82 244/155/73
f 238/172/82 226/173/80 229/174/89 244/175/73
f 227/176/79 236/177/85 242/178/90 230/179/91
f 236/177/85 228/180/88 231/181/92 242/178/90
f 229/174/89 226/173/80 237/182/76 243/183/93
f 237/182/76 227/176/79 230/179/91 243/183/93
f 227/161/79 253/160/78 257/169/86 236/168/85
f 232/184/94 248/185/94 259/186/94 238/187/94
f 182/115/72 233/188/72 223/189/72 234/190/72 224/191/72 235/192/72 225/193/72
f 267/194/95 282/195/96 283/196/97 277/197/98
f 277/197/98 283/196/97 271/198/99 261/199/100
f 275/200/101 294/201/102 291/202/103 266/203/104
f 265/204/105 288/205/106 294/201/102 275/200/101
f 276/206/107 295/207/108 288/205/106 265/204/105
f 264/208/109 260/209/109 270/210/110 276/211/107
f 274/212/111 293/213/112 219/131/64 189/130/63
f 267/194/95 264/208/109 276/211/107 282/195/96
f 276/214/107 265/215/105 268/216/113 282/217/96
f 266/218/104 274/219/111 280/220/114 269/221/115
f 274/219/111 189/142/63 193/141/69 280/220/114
f 268/216/113 265/215/105 275/222/101 281/223/116
f 275/222/101 266/218/104 269/221/115 281/223/116
f 266/203/104 291/202/103 293/213/112 274/212/111
f 270/224/117 286/225/117 295/226/117 276/227/117
f 261/199/72 271/228/72 262/229/72 272/230/72 263/231/72 273/232/72 185/149/72
f 267/194/95 277/197/98 314/233/118 313/234/119
f 277/197/98 261/199/100 303/235/120 314/233/118
f 307/236/121 299/237/122 322/238/123 325/239/124
f 298/240/125 307/236/121 325/239/124 319/241/126
f 308/242/127 298/240/125 319/241/126 326/243/128
f 264/208/109 308/244/127 302/245/129 260/209/109
f 306/246/130 228/171/88 256/170/87 324/247/131
f 267/194/95 313/234/119 308/244/127 264/208/109
f 308/248/127 313/249/119 300/250/132 298/251/125
f 299/252/122 301/253/133 311/254/134 306/255/130
f 306/255/130 311/254/134 231/181/92 228/180/88
f 300/250/132 312/256/135 307/257/121 298/251/125
f 307/257/121 312/256/135 301/253/133 299/252/122
f 299/237/122 306/246/130 324/247/131 322/238/123
f 302/258/136 308/259/136 326/260/136 317/261/136
f 261/199/72 225/193/72 305/262/72 297/263/72 304/264/72 296/265/72 303/266/72
f 335/267/137 351/268/138 352/269/139 345/270/140
f 345/270/140 352/269/139 339/271/141 327/272/142
f 343/273/143 359/274/144 356/275/145 333/276/146
f 332/277/147 355/278/148 359/274/144 343/273/143
f 344/279/149 360/280/150 355/278/148 332/277/147
f 331/281/60 181/128/60 194/127/61 344/282/149
f 342/283/151 358/284/152 357/285/153 334/286/154
f 335/267/137 331/281/60 344/282/149 351/268/138
f 344/287/149 332/288/147 336/289/155 351/290/138
f 333/291/146 342/292/151 349/293/156 337/294/157
f 342/292/151 334/295/154 338/296/158 349/293/156
f 336/289/155 332/288/147 343/297/143 350/298/159
f 343/297/143 333/291/146 337/294/157 350/298/159
f 333/276/146 356/275/145 358/284/152 342/283/151
f 194/145/71 211/148/71 360/299/71 344/300/71
f 327/272/160 339/301/160 328/302/160 340/303/160 329/304/160 341/305/160 330/306/160
f 335/267/137 345/270/140 382/307/161 381/308/162
f 345/270/140 327/272/142 370/309/163 382/307/161
f 374/310/164 365/311/165 386/312/166 389/313/167
f 364/314/168 374/310/164 389/313/167 385/315/169
f 375/316/170 364/314/168 385/315/169 390/317/171
f 331/281/60 375/318/170 232/166/84 181/128/60
f 373/319/172 366/320/173 387/321/174 388/322/175
f 335/267/137 381/308/162 375/318/170 331/281/60
f 375/323/170 381/324/162 367/325/176 364/326/168
f 365/327/165 368/328/177 379/329/178 373/330/172
f 373/330/172 379/329/178 369/331/179 366/332/173
f 367/325/176 380/333/180 374/334/164 364/326/168
f 374/334/164 380/333/180 368/328/177 365/327/165
f 365/311/165 373/319/172 388/322/175 386/312/166
f 232/184/94 375/335/94 390/336/94 248/185/94
f 327/272/160 363/337/160 372/338/160 362/339/160 371/340/160 361/341/160 370/342/160
f 397/343/181 406/344/182 412/345/183 411/346/184
f 406/344/182 391/347/185 400/348/186 412/345/183
f 404/349/187 396/350/188 416/351/189 418/352/190
f 395/353/191 404/349/187 418/352/190 415/354/192
f 405/355/193 395/353/191 415/354/192 419/356/194
f 394/357/109 405/358/193 270/210/110 260/209/109
f 403/359/195 334/286/154 357/285/153 417/360/196
f 397/343/181 411/346/184 405/358/193 394/357/109
f 405/361/193 411/362/184 398/363/197 395/364/191
f 396/365/188 399/366/198 409/367/199 403/368/195
f 403/368/195 409/367/199 338/296/158 334/295/154
f 398/363/197 410/369/200 404/370/187 395/364/191
f 404/370/187 410/369/200 399/366/198 396/365/188
f 396/350/188 403/359/195 417/360/196 416/351/189
f 270/224/117 405/371/117 419/372/117 286/225/117
f 391/347/160 330/306/160 402/373/160 393/374/160 401/375/160 392/376/160 400/377/160
f 397/343/181 436/378/201 437/379/202 406/344/182
f 406/344/182 437/379/202 426/380/203 391/347/185
f 430/381/204 443/382/205 441/383/206 423/384/207
f 422/385/208 440/386/209 443/382/205 430/381/204
f 431/387/210 444/388/211 440/386/209 422/385/208
f 394/357/109 260/209/109 302/245/129 431/389/210
f 429/390/212 442/391/213 387/321/174 366/320/173
f 397/343/181 394/357/109 431/389/210 436/378/201
f 431/392/210 422/393/208 424/394/214 436/395/201
f 423/396/207 429/397/212 434/398/215 425/399/216
f 429/397/212 366/332/173 369/331/179 434/398/215
f 424/394/214 422/393/208 430/400/204 435/401/217
f 430/400/204 423/396/207 425/399/216 435/401/217
f 423/384/207 441/383/206 442/391/213 429/390/212
f 302/258/136 317/261/136 444/402/136 431/403/136
f 391/347/160 426/404/160 420/405/160 427/406/160 421/407/160 428/408/160 363/337/160
usemtl MI_Trim_03_Dark
f 92/409/218 96/410/219 1/411/220 2/412/221
f 8/413/222 99/414/223 95/415/224
f 100/416/225 9/417/226 1/411/220 96/410/219
f 16/418/1 15/419/1 10/420/1 103/421/1 105/422/1 106/423/1 104/424/1
f 16/425/11 104/426/227 99/414/223 8/413/222 13/427/5
f 11/22/1 12/428/1 15/429/1 16/23/1
f 45/430/228 46/431/229 79/432/230 75/433/231
f 43/434/232 53/435/233 54/436/21 44/437/20
f 39/438/13 28/439/13 33/440/13 40/441/13
f 30/442/234 27/443/13 32/444/13 34/445/14
f 28/439/13 26/446/13 35/447/13 33/440/13
f 27/443/13 39/438/13 40/441/13 32/444/13
f 25/448/235 43/434/232 44/437/20 31/449/24
f 67/450/236 71/451/236 73/452/236 74/453/236 72/454/236 47/455/236 69/456/236
f 83/457/237 70/458/238 68/459/239 80/460/240
f 26/446/241 28/439/241 50/461/241 48/462/241
f 68/459/239 66/463/242 76/464/243 80/460/240
f 28/439/241 39/438/241 52/465/241 50/461/241
f 39/438/241 27/443/244 49/466/244 52/465/241
f 27/443/244 30/442/245 51/467/245 49/466/244
f 54/468/21 53/469/233 30/470/234 34/471/14
f 47/472/246 72/473/247 84/474/248 65/475/246
f 70/458/238 53/435/233 43/434/232 68/459/239
f 65/475/246 84/474/248 79/476/230 46/477/229
f 53/469/233 70/478/238 67/479/249 30/470/234
f 30/480/236 67/450/236 69/456/236 51/481/236
f 43/434/232 25/448/235 66/463/242 68/459/239
f 84/474/248 72/473/247 74/482/250 86/483/251
f 86/483/251 74/482/250 73/484/252 85/485/253
f 85/486/253 73/487/252 71/488/254 83/489/237
f 75/433/231 79/432/230 81/490/255 77/491/256
f 77/492/256 81/493/255 82/494/257 78/495/258
f 78/495/258 82/494/257 80/460/240 76/464/243
f 79/476/230 84/474/248 86/483/251 81/496/255
f 81/496/255 86/483/251 85/497/253 82/494/257
f 82/494/257 85/497/253 83/457/237 80/460/240
f 70/478/238 83/489/237 71/488/254 67/479/249
f 103/498/259 10/499/260 9/417/226 100/416/225
f 91/500/261 95/415/224 97/501/262 93/502/263
f 93/502/263 97/501/262 98/503/264 94/504/265
f 94/505/265 98/506/264 96/410/219 92/409/218
f 95/415/224 99/414/223 101/507/266 97/501/262
f 97/501/262 101/507/266 102/508/267 98/503/264
f 98/506/264 102/509/267 100/416/225 96/410/219
f 99/414/223 104/426/227 106/510/268 101/507/266
f 101/507/266 106/510/268 105/511/269 102/508/267
f 102/509/267 105/512/269 103/498/259 100/416/225
f 8/413/222 95/415/224 91/500/261 7/513/270
f 7/513/270 14/514/2 13/427/5 8/413/222
f 166/515/271 2/412/221 1/411/220 170/516/272
f 110/517/273 169/518/274 173/519/275
f 174/520/276 170/516/272 1/411/220 9/417/226
f 114/521/1 178/522/1 180/523/1 179/524/1 177/525/1 10/420/1 15/419/1
f 114/526/36 112/527/32 110/517/273 173/519/275 178/528/277
f 111/77/1 114/78/1 15/429/1 12/428/1
f 45/430/228 151/529/278 155/530/279 46/431/229
f 134/531/280 135/532/40 137/533/43 136/534/281
f 131/535/37 132/536/37 126/537/37 121/538/37
f 123/539/282 127/540/38 125/541/37 120/542/37
f 121/538/37 126/537/37 128/543/37 119/544/37
f 120/542/37 125/541/37 132/536/37 131/535/37
f 118/545/283 124/546/44 135/532/40 134/531/280
f 144/547/236 69/456/236 47/455/236 148/548/236 150/549/236 149/550/236 147/551/236
f 159/552/284 156/553/285 145/554/286 146/555/287
f 119/544/241 48/462/241 50/461/241 121/538/241
f 145/554/286 156/553/285 152/556/288 143/557/289
f 121/538/241 50/461/241 52/465/241 131/535/241
f 131/535/241 52/465/241 49/466/244 120/542/244
f 120/542/244 49/466/244 51/467/245 123/539/245
f 137/558/43 127/559/38 123/560/282 136/561/281
f 47/472/246 65/475/246 160/562/290 148/563/291
f 146/555/287 145/554/286 134/531/280 136/534/281
f 65/475/246 46/477/229 155/564/279 160/562/290
f 136/561/281 123/560/282 144/565/292 146/566/287
f 123/567/236 51/481/236 69/456/236 144/547/236
f 134/531/280 145/554/286 143/557/289 118/545/283
f 160/562/290 162/568/293 150/569/294 148/563/291
f 162/568/293 161/570/295 149/571/296 150/569/294
f 161/572/295 159/573/284 147/574/297 149/575/296
f 151/529/278 153/576/298 157/577/299 155/530/279
f 153/578/298 154/579/300 158/580/301 157/581/299
f 154/579/300 152/556/288 156/553/285 158/580/301
f 155/564/279 157/582/299 162/568/293 160/562/290
f 157/582/299 158/580/301 161/583/295 162/568/293
f 158/580/301 156/553/285 159/552/284 161/583/295
f 146/566/287 144/565/292 147/574/297 159/573/284
f 177/584/302 174/520/276 9/417/226 10/499/260
f 165/585/303 167/586/304 171/587/305 169/518/274
f 167/586/304 168/588/306 172/589/307 171/587/305
f 168/590/306 166/515/271 170/516/272 172/591/307
f 169/518/274 171/587/305 175/592/308 173/519/275
f 171/587/305 172/589/307 176/593/309 175/592/308
f 172/591/307 170/516/272 174/520/276 176/594/309
f 173/519/275 175/592/308 180/595/310 178/528/277
f 175/592/308 176/593/309 179/596/311 180/595/310
f 176/594/309 174/520/276 177/584/302 179/597/311
f 110/517/273 109/598/312 165/585/303 169/518/274
f 109/598/312 110/517/273 112/527/32 113/599/31
f 216/600/54 220/601/65 217/602/313 215/603/314
f 217/602/313 220/601/65 219/604/64 218/605/13
f 213/606/57 221/607/55 214/608/315 212/609/316
f 214/608/315 221/607/55 216/600/54 215/603/314
f 211/610/317 222/611/59 213/612/57 212/613/316
f 253/614/78 252/615/318 254/616/319 257/617/86
f 254/616/319 255/618/37 256/619/87 257/617/86
f 250/620/81 249/621/320 251/622/321 258/623/77
f 251/622/321 252/615/318 253/614/78 258/623/77
f 248/624/322 249/625/320 250/626/81 259/627/83
f 291/628/103 290/629/323 292/630/324 293/631/112
f 292/630/324 218/605/13 219/604/64 293/631/112
f 288/632/106 287/633/325 289/634/326 294/635/102
f 289/634/326 290/629/323 291/628/103 294/635/102
f 286/636/327 287/637/325 288/638/106 295/639/108
f 322/640/123 324/641/131 323/642/328 321/643/329
f 323/642/328 324/641/131 256/619/87 255/618/37
f 319/644/126 325/645/124 320/646/330 318/647/331
f 320/646/330 325/645/124 322/640/123 321/643/329
f 317/648/332 326/649/128 319/650/126 318/651/331
f 356/652/145 215/603/314 217/602/313 358/653/152
f 217/602/313 218/605/13 357/654/153 358/653/152
f 355/655/148 212/609/316 214/608/315 359/656/144
f 214/608/315 215/603/314 356/652/145 359/656/144
f 211/610/317 212/613/316 355/657/148 360/658/150
f 386/659/166 388/660/175 254/616/319 252/615/318
f 254/616/319 388/660/175 387/661/174 255/618/37
f 385/662/169 389/663/167 251/622/321 249/621/320
f 251/622/321 389/663/167 386/659/166 252/615/318
f 248/624/322 390/664/171 385/665/169 249/625/320
f 416/666/189 417/667/196 292/630/324 290/629/323
f 292/630/324 417/667/196 357/654/153 218/605/13
f 415/668/192 418/669/190 289/634/326 287/633/325
f 289/634/326 418/669/190 416/666/189 290/629/323
f 286/636/327 419/670/194 415/671/192 287/637/325
f 441/672/206 321/643/329 323/642/328 442/673/213
f 323/642/328 255/618/37 387/661/174 442/673/213
f 440/674/209 318/647/331 320/646/330 443/675/205
f 320/646/330 321/643/329 441/672/206 443/675/205
f 317/648/332 318/651/331 440/676/209 444/677/211
usemtl MI_Trim_02
f 208/678/48 195/154/51 183/153/333 202/679/334
f 207/680/49 208/678/48 202/679/334 191/681/66
f 191/681/66 202/679/334 209/682/335 206/683/70
f 202/679/334 183/153/333 196/152/336 209/682/335
f 209/682/335 196/152/336 184/151/337 203/684/338
f 206/683/70 209/682/335 203/684/338 192/685/67
f 192/685/67 203/684/338 210/686/339 205/687/68
f 203/684/338 184/151/337 197/150/340 210/686/339
f 210/686/339 197/150/340 185/149/341 204/688/342
f 205/687/68 210/686/339 204/688/342 193/689/69
f 245/690/74 239/691/343 223/189/344 233/188/75
f 244/692/73 229/693/89 239/691/343 245/690/74
f 229/693/89 243/694/93 246/695/345 239/691/343
f 239/691/343 246/695/345 234/190/346 223/189/344
f 246/695/345 240/696/347 224/191/348 234/190/346
f 243/694/93 230/697/91 240/696/347 246/695/345
f 230/697/91 242/698/90 247/699/349 240/696/347
f 240/696/347 247/699/349 235/192/350 224/191/348
f 247/699/349 241/700/351 225/193/352 235/192/350
f 242/698/90 231/701/92 241/700/351 247/699/349
f 283/702/97 278/703/353 262/229/354 271/228/99
f 282/704/96 268/705/113 278/703/353 283/702/97
f 268/705/113 281/706/116 284/707/355 278/703/353
f 278/703/353 284/707/355 272/230/356 262/229/354
f 284/707/355 279/708/357 263/231/358 272/230/356
f 281/706/116 269/709/115 279/708/357 284/707/355
f 269/709/115 280/710/114 285/711/359 279/708/357
f 279/708/357 285/711/359 273/232/360 263/231/358
f 285/711/359 204/688/342 185/149/341 273/232/360
f 280/710/114 193/689/69 204/688/342 285/711/359
f 314/712/118 303/266/120 296/265/361 309/713/362
f 313/714/119 314/712/118 309/713/362 300/715/132
f 300/715/132 309/713/362 315/716/363 312/717/135
f 309/713/362 296/265/361 304/264/364 315/716/363
f 315/716/363 304/264/364 297/263/365 310/718/366
f 312/717/135 315/716/363 310/718/366 301/719/133
f 301/719/133 310/718/366 316/720/367 311/721/134
f 310/718/366 297/263/365 305/262/368 316/720/367
f 316/720/367 305/262/368 225/193/352 241/700/351
f 311/721/134 316/720/367 241/700/351 231/701/92
f 352/722/139 346/723/369 328/302/370 339/301/141
f 351/724/138 336/725/155 346/723/369 352/722/139
f 336/725/155 350/726/159 353/727/371 346/723/369
f 346/723/369 353/727/371 340/303/372 328/302/370
f 353/727/371 347/728/373 329/304/374 340/303/372
f 350/726/159 337/729/157 347/728/373 353/727/371
f 337/729/157 349/730/156 354/731/375 347/728/373
f 347/728/373 354/731/375 341/305/376 329/304/374
f 354/731/375 348/732/377 330/306/378 341/305/376
f 349/730/156 338/733/158 348/732/377 354/731/375
f 382/734/161 370/342/163 361/341/379 376/735/380
f 381/736/162 382/734/161 376/735/380 367/737/176
f 367/737/176 376/735/380 383/738/381 380/739/180
f 376/735/380 361/341/379 371/340/382 383/738/381
f 383/738/381 371/340/382 362/339/383 377/740/384
f 380/739/180 383/738/381 377/740/384 368/741/177
f 368/741/177 377/740/384 384/742/385 379/743/178
f 377/740/384 362/339/383 372/338/386 384/742/385
f 384/742/385 372/338/386 363/337/387 378/744/388
f 379/743/178 384/742/385 378/744/388 369/745/179
f 412/746/183 400/377/186 392/376/389 407/747/390
f 411/748/184 412/746/183 407/747/390 398/749/197
f 398/749/197 407/747/390 413/750/391 410/751/200
f 407/747/390 392/376/389 401/375/392 413/750/391
f 413/750/391 401/375/392 393/374/393 408/752/394
f 410/751/200 413/750/391 408/752/394 399/753/198
f 399/753/198 408/752/394 414/754/395 409/755/199
f 408/752/394 393/374/393 402/373/396 414/754/395
f 414/754/395 402/373/396 330/306/378 348/732/377
f 409/755/199 414/754/395 348/732/377 338/733/158
f 437/756/202 432/757/397 420/405/398 426/404/203
f 436/758/201 424/759/214 432/757/397 437/756/202
f 424/759/214 435/760/217 438/761/399 432/757/397
f 432/757/397 438/761/399 427/406/400 420/405/398
f 438/761/399 433/762/401 421/407/402 427/406/400
f 435/760/217 425/763/216 433/762/401 438/761/399
f 425/763/216 434/764/215 439/765/403 433/762/401
f 433/762/401 439/765/403 428/408/404 421/407/402
f 439/765/403 378/744/388 363/337/387 428/408/404
f 434/764/215 369/745/179 378/744/388 439/765/403
