# Blender v3.6.0 OBJ File: 'AllModules_Unreal.blend'
# www.blender.org
mtllib Column_Dark.mtl
o Column_Dark_Cube.003
v -0.405864 0.000000 0.500000
v -0.500000 0.000000 0.405864
v -0.500000 5.000000 0.405864
v -0.405864 5.000000 0.499999
v -0.500000 -0.000000 -0.405864
v -0.405864 -0.000000 -0.500000
v -0.405864 5.000000 -0.500001
v -0.500000 5.000000 -0.405865
v 0.500000 0.000000 0.405864
v 0.405864 0.000000 0.500000
v 0.405864 5.000000 0.499999
v 0.500000 5.000000 0.405864
v 0.405864 -0.000000 -0.500000
v 0.500000 -0.000000 -0.405864
v 0.500000 5.000000 -0.405865
v 0.405864 5.000000 -0.500001
vt 0.000000 0.199274
vt 1.000000 0.199274
vt 1.000000 0.369474
vt 0.000000 0.369474
vt 0.000000 0.170288
vt 1.000000 0.170288
vt 1.000000 0.398842
vt 0.000000 0.398842
vt 0.577155 0.342279
vt 0.563213 0.356221
vt 0.442988 0.356221
vt 0.429046 0.342279
vt 0.429046 0.222054
vt 0.442988 0.208112
vt 0.563213 0.208112
vt 0.577155 0.222054
vt -0.000000 0.170288
vt 1.000000 0.170288
vt 1.000000 0.398842
vt -0.000000 0.398842
vt 0.000000 0.199274
vt 1.000000 0.199274
vt 1.000000 0.369474
vt 0.000000 0.369474
vt 1.000000 0.398842
vt 0.000000 0.398842
vt 0.000000 0.170288
vt 1.000000 0.170288
vt 1.000000 0.398842
vt 0.000000 0.398842
vt 0.000000 0.170288
vt 1.000000 0.170288
vt 0.429046 0.342279
vt 0.442988 0.356221
vt 0.563213 0.356221
vt 0.577155 0.342279
vt 0.577155 0.222054
vt 0.563213 0.208112
vt 0.442988 0.208112
vt 0.429046 0.222054
vn 0.0000 0.0000 1.0000
vn 1.0000 0.0000 0.0000
vn 0.0000 1.0000 0.0000
vn -1.0000 -0.0000 0.0000
vn 0.0000 -0.0000 -1.0000
vn -0.7071 0.0000 0.7071
vn -0.7071 -0.0000 -0.7071
vn 0.7071 -0.0000 -0.7071
vn 0.7071 0.0000 0.7071
vn 0.0000 -1.0000 0.0000
usemtl MI_Trim_01
s 1
f 10/1/1 11/2/1 4/3/1 1/4/1
f 14/5/2 15/6/2 12/7/2 9/8/2
f 15/9/3 16/10/3 7/11/3 8/12/3 3/13/3 4/14/3 11/15/3 12/16/3
f 2/17/4 3/18/4 8/19/4 5/20/4
f 6/21/5 7/22/5 16/23/5 13/24/5
f 1/4/6 4/3/6 3/25/6 2/26/6
f 7/22/7 6/21/7 5/27/7 8/28/7
f 15/29/8 14/30/8 13/24/8 16/23/8
f 11/2/9 10/1/9 9/31/9 12/32/9
f 5/33/10 6/34/10 13/35/10 14/36/10 9/37/10 10/38/10 1/39/10 2/40/10
