# Blender v3.6.0 OBJ File: 'AllModules_Unreal.blend'
# www.blender.org
mtllib Column_BentSquare.mtl
o Column_BentSquare_Cube.024
v -0.500000 4.050085 -0.331130
v -0.500000 4.949915 -0.331130
v -0.450539 5.000000 -0.450539
v -0.487146 5.000000 -0.395754
v -0.487146 4.949915 -0.395754
v -0.487146 4.050085 -0.395754
v -0.450539 4.949915 -0.450539
v -0.450539 4.050085 -0.450539
v -0.500000 5.000000 -0.331130
v -0.480967 4.949915 -0.316789
v -0.480967 4.050085 -0.316789
v -0.480967 5.000000 -0.316789
v -0.450539 4.000000 -0.450539
v -0.480967 4.000000 -0.316789
v -0.331130 5.000000 -0.500000
v -0.331130 4.949915 -0.500000
v -0.331130 4.050085 -0.500000
v -0.395754 4.050085 -0.487146
v -0.395754 4.949915 -0.487146
v -0.395754 5.000000 -0.487146
v -0.316789 5.000000 -0.480967
v -0.316789 4.050085 -0.480967
v -0.316789 4.949915 -0.480967
v -0.395754 4.000000 -0.487146
v -0.316789 4.000000 -0.480967
v -0.500000 1.050085 -0.331130
v -0.500000 2.050085 -0.331130
v -0.500000 1.949915 -0.331130
v -0.500000 3.050085 -0.331130
v -0.500000 2.684129 -0.331130
v -0.450539 2.000000 -0.450539
v -0.500000 3.949915 -0.331130
v -0.487146 3.949915 -0.395754
v -0.487146 2.000000 -0.395754
v -0.487146 2.684129 -0.395754
v -0.487146 3.050085 -0.395754
v -0.487146 1.949915 -0.395754
v -0.487146 2.050085 -0.395754
v -0.487146 4.000000 -0.395754
v -0.487146 1.050085 -0.395754
v -0.450539 3.949915 -0.450539
v -0.450539 2.684129 -0.450539
v -0.450539 3.050085 -0.450539
v -0.450539 1.949915 -0.450539
v -0.450539 2.050085 -0.450539
v -0.450539 1.050085 -0.450539
v -0.500000 2.000000 -0.331130
v -0.480967 2.684129 -0.316789
v -0.480967 3.050085 -0.316789
v -0.480967 1.949915 -0.316789
v -0.480967 2.050085 -0.316789
v -0.500000 4.000000 -0.331130
v -0.480967 1.050085 -0.316789
v -0.450539 1.000000 -0.450539
v -0.500000 1.000000 -0.331130
v -0.480967 1.000000 -0.316789
v -0.331130 2.000000 -0.500000
v -0.331130 4.000000 -0.500000
v -0.331130 3.949915 -0.500000
v -0.331130 3.050085 -0.500000
v -0.331130 2.684129 -0.500000
v -0.331130 2.050085 -0.500000
v -0.331130 1.949915 -0.500000
v -0.331130 1.050085 -0.500000
v -0.395754 1.050085 -0.487146
v -0.395754 2.050085 -0.487146
v -0.395754 1.949915 -0.487146
v -0.395754 3.050085 -0.487146
v -0.395754 2.684129 -0.487146
v -0.395754 2.000000 -0.487146
v -0.395754 3.949915 -0.487146
v -0.316789 2.000000 -0.480967
v -0.316789 1.949915 -0.480967
v -0.316789 2.050085 -0.480967
v -0.316789 2.684129 -0.480967
v -0.316789 3.050085 -0.480967
v -0.316789 3.949915 -0.480967
v -0.316789 1.000000 -0.480967
v -0.500000 0.050085 -0.331130
v -0.500000 0.949915 -0.331130
v -0.487146 1.000000 -0.395754
v -0.487146 0.949915 -0.395754
v -0.487146 0.050085 -0.395754
v -0.450539 0.949915 -0.450539
v -0.450539 0.050085 -0.450539
v -0.480967 0.949915 -0.316789
v -0.480967 0.050085 -0.316789
v -0.450539 0.000000 -0.450539
v -0.487146 0.000000 -0.395754
v -0.500000 0.000000 -0.331130
v -0.331130 1.000000 -0.500000
v -0.331130 0.949915 -0.500000
v -0.331130 0.050085 -0.500000
v -0.395754 0.050085 -0.487146
v -0.395754 0.949915 -0.487146
v -0.395754 1.000000 -0.487146
v -0.316789 0.050085 -0.480967
v -0.316789 0.949915 -0.480967
v -0.331130 0.000000 -0.500000
v -0.395754 0.000000 -0.487146
v -0.316789 0.000000 -0.480967
v -0.500000 4.050085 0.331130
v -0.500000 4.949915 0.331130
v -0.450539 5.000000 0.450539
v -0.487146 5.000000 0.395754
v -0.487146 4.949915 0.395754
v -0.487146 4.050085 0.395754
v -0.450539 4.949915 0.450539
v -0.450539 4.050085 0.450539
v -0.500000 5.000000 0.331130
v -0.480967 4.949915 0.316789
v -0.480967 4.050085 0.316789
v -0.480967 5.000000 0.316789
v -0.450539 4.000000 0.450539
v -0.331130 5.000000 0.500000
v -0.331130 4.949915 0.500000
v -0.331130 4.050085 0.500000
v -0.395754 4.050085 0.487146
v -0.395754 4.949915 0.487146
v -0.395754 5.000000 0.487146
v -0.395754 4.000000 0.487146
v -0.500000 1.050085 0.025263
v -0.500000 2.050085 0.025263
v -0.500000 1.949915 0.025263
v -0.500000 3.050085 0.331130
v -0.500000 2.684129 0.025263
v -0.450539 2.000000 0.144672
v -0.500000 3.949915 0.331130
v -0.487146 3.949915 0.395754
v -0.487146 2.000000 0.089886
v -0.487146 2.684129 0.089886
v -0.487146 3.050085 0.395754
v -0.487146 1.949915 0.089886
v -0.487146 2.050085 0.089886
v -0.487146 4.000000 0.395754
v -0.487146 1.050085 0.089886
v -0.450539 3.949915 0.450539
v -0.450539 2.684129 0.144672
v -0.450539 3.050085 0.450539
v -0.450539 1.949915 0.144672
v -0.450539 2.050085 0.144672
v -0.450539 1.050085 0.144672
v -0.500000 2.000000 0.025263
v -0.480967 2.684129 0.010922
v -0.480967 3.050085 0.316789
v -0.480967 2.050085 0.010922
v -0.500000 4.000000 0.331130
v -0.480967 1.050085 0.010922
v -0.480967 2.000000 0.010922
v -0.450539 1.000000 0.144672
v -0.500000 1.000000 0.025263
v -0.480967 1.000000 0.010922
v -0.331130 2.000000 0.194132
v -0.331130 4.000000 0.500000
v -0.331130 3.949915 0.500000
v -0.331130 3.050085 0.500000
v -0.331130 2.684129 0.194132
v -0.331130 2.050085 0.194132
v -0.331130 1.949915 0.194132
v -0.331130 1.050085 0.194132
v -0.395754 1.050085 0.181278
v -0.395754 2.050085 0.181278
v -0.395754 1.949915 0.181278
v -0.395754 3.050085 0.487146
v -0.395754 2.684129 0.181278
v -0.395754 2.000000 0.181278
v -0.395754 3.949915 0.487146
v -0.316789 1.050085 0.175100
v -0.316789 2.050085 0.175100
v -0.500000 0.050085 0.025263
v -0.500000 0.949915 0.025263
v -0.487146 1.000000 0.089886
v -0.487146 0.949915 0.089886
v -0.487146 0.050085 0.089886
v -0.450539 0.949915 0.144672
v -0.450539 0.050085 0.144672
v -0.480967 0.949915 0.010922
v -0.480967 0.050085 0.010922
v -0.450539 0.000000 0.144672
v -0.487146 0.000000 0.089886
v -0.500000 0.000000 0.025263
v -0.331130 1.000000 0.194132
v -0.331130 0.949915 0.194132
v -0.331130 0.050085 0.194132
v -0.395754 0.050085 0.181278
v -0.395754 0.949915 0.181278
v -0.395754 1.000000 0.181278
v -0.331130 0.000000 0.194132
v -0.395754 0.000000 0.181278
v 0.500000 4.050085 -0.331130
v 0.500000 4.949915 -0.331130
v 0.450539 5.000000 -0.450539
v 0.487146 5.000000 -0.395754
v 0.487146 4.949915 -0.395754
v 0.487146 4.050085 -0.395754
v 0.450539 4.949915 -0.450539
v 0.450539 4.050085 -0.450539
v 0.500000 5.000000 -0.331130
v 0.480967 5.000000 -0.316789
v 0.450539 4.000000 -0.450539
v 0.480967 4.000000 -0.316789
v 0.331130 5.000000 -0.500000
v 0.331130 4.949915 -0.500000
v 0.331130 4.050085 -0.500000
v 0.395754 4.050085 -0.487146
v 0.395754 4.949915 -0.487146
v 0.395754 5.000000 -0.487146
v 0.316789 5.000000 -0.480967
v 0.316789 4.050085 -0.480967
v 0.316789 4.949915 -0.480967
v 0.395754 4.000000 -0.487146
v 0.500000 1.050085 -0.331130
v 0.500000 2.050085 -0.331130
v 0.500000 1.949915 -0.331130
v 0.500000 3.050085 -0.331130
v 0.500000 2.684129 -0.331130
v 0.450539 2.000000 -0.450539
v 0.500000 3.949915 -0.331130
v 0.487146 3.949915 -0.395754
v 0.487146 2.000000 -0.395754
v 0.487146 2.684129 -0.395754
v 0.487146 3.050085 -0.395754
v 0.487146 1.949915 -0.395754
v 0.487146 2.050085 -0.395754
v 0.487146 4.000000 -0.395754
v 0.487146 1.050085 -0.395754
v 0.450539 3.949915 -0.450539
v 0.450539 2.684129 -0.450539
v 0.450539 3.050085 -0.450539
v 0.450539 1.949915 -0.450539
v 0.450539 2.050085 -0.450539
v 0.450539 1.050085 -0.450539
v 0.480967 3.949915 -0.316789
v 0.500000 2.000000 -0.331130
v 0.500000 4.000000 -0.331130
v 0.480967 1.050085 -0.316789
v 0.450539 1.000000 -0.450539
v 0.500000 1.000000 -0.331130
v 0.331130 2.000000 -0.500000
v 0.331130 4.000000 -0.500000
v 0.331130 3.949915 -0.500000
v 0.331130 3.050085 -0.500000
v 0.331130 2.684129 -0.500000
v 0.331130 2.050085 -0.500000
v 0.331130 1.949915 -0.500000
v 0.331130 1.050085 -0.500000
v 0.395754 1.050085 -0.487146
v 0.395754 2.050085 -0.487146
v 0.395754 1.949915 -0.487146
v 0.395754 3.050085 -0.487146
v 0.395754 2.684129 -0.487146
v 0.395754 2.000000 -0.487146
v 0.395754 3.949915 -0.487146
v 0.316789 2.000000 -0.480967
v 0.316789 1.050085 -0.480967
v 0.316789 1.949915 -0.480967
v 0.316789 2.050085 -0.480967
v 0.316789 2.684129 -0.480967
v 0.316789 3.050085 -0.480967
v 0.316789 3.949915 -0.480967
v 0.316789 1.000000 -0.480967
v 0.500000 0.050085 -0.331130
v 0.500000 0.949915 -0.331130
v 0.487146 1.000000 -0.395754
v 0.487146 0.949915 -0.395754
v 0.487146 0.050085 -0.395754
v 0.450539 0.949915 -0.450539
v 0.450539 0.050085 -0.450539
v 0.450539 0.000000 -0.450539
v 0.487146 0.000000 -0.395754
v 0.500000 0.000000 -0.331130
v 0.331130 1.000000 -0.500000
v 0.331130 0.949915 -0.500000
v 0.331130 0.050085 -0.500000
v 0.395754 0.050085 -0.487146
v 0.395754 0.949915 -0.487146
v 0.395754 1.000000 -0.487146
v 0.316789 0.050085 -0.480967
v 0.316789 0.949915 -0.480967
v 0.331130 0.000000 -0.500000
v 0.395754 0.000000 -0.487146
v 0.316789 0.000000 -0.480967
v 0.500000 4.050085 0.331130
v 0.500000 4.949915 0.331130
v 0.450539 5.000000 0.450539
v 0.487146 5.000000 0.395754
v 0.487146 4.949915 0.395754
v 0.487146 4.050085 0.395754
v 0.450539 4.949915 0.450539
v 0.450539 4.050085 0.450539
v 0.500000 5.000000 0.331130
v 0.480967 4.949915 0.316789
v 0.450539 4.000000 0.450539
v 0.331130 5.000000 0.500000
v 0.331130 4.949915 0.500000
v 0.331130 4.050085 0.500000
v 0.395754 4.050085 0.487146
v 0.395754 4.949915 0.487146
v 0.395754 5.000000 0.487146
v 0.395754 4.000000 0.487146
v 0.500000 1.050085 0.025263
v 0.500000 2.050085 0.025263
v 0.500000 1.949915 0.025263
v 0.500000 3.050085 0.331130
v 0.500000 2.684129 0.025263
v 0.450539 2.000000 0.144672
v 0.500000 3.949915 0.331130
v 0.487146 3.949915 0.395754
v 0.487146 2.000000 0.089886
v 0.487146 2.684129 0.089886
v 0.487146 3.050085 0.395754
v 0.487146 1.949915 0.089886
v 0.487146 2.050085 0.089886
v 0.487146 4.000000 0.395754
v 0.487146 1.050085 0.089886
v 0.450539 3.949915 0.450539
v 0.450539 2.684129 0.144672
v 0.450539 3.050085 0.450539
v 0.450539 1.949915 0.144672
v 0.450539 2.050085 0.144672
v 0.450539 1.050085 0.144672
v 0.500000 2.000000 0.025263
v 0.480967 2.050085 0.010922
v 0.500000 4.000000 0.331130
v 0.480967 1.050085 0.010922
v 0.450539 1.000000 0.144672
v 0.500000 1.000000 0.025263
v 0.331130 2.000000 0.194132
v 0.331130 4.000000 0.500000
v 0.331130 3.949915 0.500000
v 0.331130 3.050085 0.500000
v 0.331130 2.684129 0.194132
v 0.331130 2.050085 0.194132
v 0.331130 1.949915 0.194132
v 0.331130 1.050085 0.194132
v 0.395754 1.050085 0.181278
v 0.395754 2.050085 0.181278
v 0.395754 1.949915 0.181278
v 0.395754 3.050085 0.487146
v 0.395754 2.684129 0.181278
v 0.395754 2.000000 0.181278
v 0.395754 3.949915 0.487146
v 0.316789 1.050085 0.175100
v 0.500000 0.050085 0.025263
v 0.500000 0.949915 0.025263
v 0.487146 1.000000 0.089886
v 0.487146 0.949915 0.089886
v 0.487146 0.050085 0.089886
v 0.450539 0.949915 0.144672
v 0.450539 0.050085 0.144672
v 0.450539 0.000000 0.144672
v 0.487146 0.000000 0.089886
v 0.500000 0.000000 0.025263
v 0.331130 1.000000 0.194132
v 0.331130 0.949915 0.194132
v 0.331130 0.050085 0.194132
v 0.395754 0.050085 0.181278
v 0.395754 0.949915 0.181278
v 0.395754 1.000000 0.181278
v 0.331130 0.000000 0.194132
v 0.395754 0.000000 0.181278
v 0.316789 0.000000 0.175100
v -0.480967 4.000000 0.316789
v -0.480967 3.949915 -0.316789
v -0.480967 1.949915 0.010922
v -0.480967 3.949915 0.316789
v -0.480967 2.000000 -0.316789
v -0.480967 0.000000 -0.316789
v -0.480967 0.000000 0.010922
v 0.316789 4.050085 0.480967
v -0.316789 4.050085 0.480967
v -0.316789 4.000000 0.480967
v 0.316789 4.000000 0.480967
v -0.316789 2.000000 0.175100
v 0.316789 3.949915 0.480967
v 0.316789 2.684129 0.175100
v 0.316789 3.050085 0.480967
v 0.316789 1.949915 0.175100
v 0.316789 2.050085 0.175100
v -0.316789 1.949915 0.175100
v -0.316789 2.684129 0.175100
v -0.316789 3.050085 0.480967
v -0.316789 3.949915 0.480967
v 0.316789 2.000000 0.175100
v 0.316789 1.000000 0.175100
v -0.316789 1.000000 0.175100
v 0.316789 0.949915 0.175100
v -0.316789 0.949915 0.175100
v 0.316789 0.050085 0.175100
v -0.316789 0.050085 0.175100
v -0.316789 0.000000 0.175100
v 0.316789 5.000000 0.480967
v -0.316789 5.000000 0.480967
v 0.316789 4.949915 0.480967
v -0.316789 4.949915 0.480967
v 0.316789 4.000000 -0.480967
v -0.316789 1.050085 -0.480967
v 0.480967 4.050085 0.316789
v 0.480967 4.050085 -0.316789
v 0.480967 4.000000 0.316789
v 0.480967 2.000000 -0.316789
v 0.480967 3.949915 0.316789
v 0.480967 2.684129 0.010922
v 0.480967 3.050085 0.316789
v 0.480967 1.949915 0.010922
v 0.480967 1.949915 -0.316789
v 0.480967 2.050085 -0.316789
v 0.480967 2.684129 -0.316789
v 0.480967 3.050085 -0.316789
v 0.480967 2.000000 0.010922
v 0.480967 1.000000 0.010922
v 0.480967 1.000000 -0.316789
v 0.480967 0.949915 0.010922
v 0.480967 0.949915 -0.316789
v 0.480967 0.050085 0.010922
v 0.480967 0.050085 -0.316789
v 0.480967 0.000000 0.010922
v 0.480967 0.000000 -0.316789
v 0.480967 5.000000 0.316789
v 0.480967 4.949915 -0.316789
vt 1.582966 0.762019
vt 2.212107 0.762019
vt 2.212107 0.802747
vt 1.582966 0.802746
vt 2.212107 0.843475
vt 1.582966 0.843475
vt 1.582966 0.747288
vt 2.212107 0.747288
vt 2.247125 0.747288
vt 2.247125 0.762019
vt 2.247125 0.802747
vt 2.247125 0.843475
vt 1.547948 0.762019
vt 1.547948 0.747288
vt 1.547948 0.802746
vt 1.547948 0.843475
vt 2.212107 0.884203
vt 1.582966 0.884203
vt 1.582966 0.924931
vt 2.212107 0.924931
vt 2.212107 0.939661
vt 1.582966 0.939661
vt 1.547947 0.884203
vt 2.247125 0.884203
vt 1.547948 0.924931
vt 2.247125 0.924931
vt 2.247125 0.939661
vt 1.547948 0.939661
vt 0.883789 0.802746
vt 1.512930 0.802746
vt 1.512930 0.843475
vt 0.883789 0.843475
vt -0.514566 0.762018
vt 0.114575 0.762018
vt 0.114575 0.802746
vt -0.514566 0.802746
vt 0.184611 0.762018
vt 0.813753 0.762018
vt 0.813753 0.802746
vt 0.184611 0.802746
vt 0.883789 0.762018
vt 1.512930 0.762019
vt 0.114575 0.843474
vt -0.514566 0.843474
vt 0.813753 0.843474
vt 0.184611 0.843474
vt -0.514566 0.747288
vt 0.114575 0.747288
vt 0.184611 0.747288
vt 0.813753 0.747288
vt 0.883789 0.747288
vt 1.512930 0.747288
vt 0.149593 0.747288
vt 0.149593 0.762018
vt 0.149593 0.802746
vt 0.149593 0.843474
vt -0.549584 0.762018
vt -0.549584 0.747288
vt -0.549584 0.802746
vt -0.549584 0.843474
vt 1.512930 0.924931
vt 0.883789 0.924931
vt 0.883789 0.884202
vt 1.512930 0.884203
vt 0.114575 0.884202
vt -0.514566 0.884202
vt 0.813753 0.884202
vt 0.184611 0.884202
vt 1.512930 0.939661
vt 0.883789 0.939661
vt 0.184611 0.924930
vt 0.813753 0.924931
vt 0.813753 0.939661
vt 0.184611 0.939661
vt -0.514566 0.924930
vt 0.114575 0.924930
vt 0.114575 0.939661
vt -0.514566 0.939661
vt 0.149593 0.884202
vt -0.549584 0.884202
vt 0.149593 0.924930
vt -0.549584 0.924930
vt 0.149593 0.939661
vt -0.549584 0.939661
vt -1.213743 0.762018
vt -0.584602 0.762018
vt -0.584602 0.802746
vt -1.213743 0.802746
vt -0.584602 0.843474
vt -1.213743 0.843474
vt -1.213743 0.747288
vt -0.584602 0.747288
vt -1.248761 0.762018
vt -1.248761 0.747288
vt -1.248761 0.802746
vt -1.248761 0.843474
vt -0.584602 0.884202
vt -1.213743 0.884202
vt -1.213743 0.924930
vt -0.584602 0.924930
vt -0.584602 0.939661
vt -1.213743 0.939661
vt -1.248761 0.884202
vt -1.248761 0.924930
vt -1.248761 0.939661
vt 1.582966 0.762019
vt 1.582966 0.802746
vt 2.212107 0.802747
vt 2.212107 0.762019
vt 1.582966 0.843475
vt 2.212107 0.843475
vt 1.582966 0.747288
vt 2.212107 0.747288
vt 2.247125 0.747288
vt 2.247125 0.762019
vt 2.247125 0.802747
vt 2.247125 0.843475
vt 1.547948 0.747288
vt 1.547948 0.762019
vt 1.547948 0.802746
vt 1.547948 0.843475
vt 2.212107 0.884203
vt 1.582966 0.884203
vt 1.582966 0.924931
vt 1.582966 0.939661
vt 2.212107 0.939661
vt 2.212107 0.924931
vt 1.547947 0.884203
vt 2.247125 0.884203
vt 1.547948 0.924931
vt 2.247125 0.924931
vt 2.247125 0.939661
vt 1.547948 0.939661
vt 0.883789 0.802746
vt 0.883789 0.843475
vt 1.512930 0.843475
vt 1.512930 0.802746
vt -0.514566 0.762018
vt -0.514566 0.802746
vt 0.114575 0.802746
vt 0.114575 0.762018
vt 0.184611 0.762018
vt 0.184611 0.802746
vt 0.813753 0.802746
vt 0.813753 0.762018
vt 0.883789 0.762018
vt 1.512930 0.762019
vt -0.514566 0.843474
vt 0.114575 0.843474
vt 0.184611 0.843474
vt 0.813753 0.843474
vt -0.514566 0.747288
vt 0.114575 0.747288
vt 0.184611 0.747288
vt 0.813753 0.747288
vt 0.883789 0.747288
vt 1.512930 0.747288
vt 0.149593 0.747288
vt 0.149593 0.762018
vt 0.149593 0.802746
vt 0.149593 0.843474
vt -0.549584 0.747288
vt -0.549584 0.762018
vt -0.549584 0.802746
vt -0.549584 0.843474
vt 1.512930 0.924931
vt 1.512930 0.884203
vt 0.883789 0.884202
vt 0.883789 0.924931
vt 0.114575 0.884202
vt -0.514566 0.884202
vt 0.813753 0.884202
vt 0.184611 0.884202
vt 0.883789 0.939661
vt 1.512930 0.939661
vt 0.184611 0.924930
vt 0.184611 0.939661
vt 0.813753 0.939661
vt 0.813753 0.924931
vt -0.514566 0.924930
vt -0.514566 0.939661
vt 0.114575 0.939661
vt 0.114575 0.924930
vt 0.149593 0.884202
vt -0.549584 0.884202
vt 0.149593 0.924930
vt -0.549584 0.924930
vt 0.149593 0.939661
vt -0.549584 0.939661
vt -1.213743 0.762018
vt -1.213743 0.802746
vt -0.584602 0.802746
vt -0.584602 0.762018
vt -1.213743 0.843474
vt -0.584602 0.843474
vt -1.213743 0.747288
vt -0.584602 0.747288
vt -1.248761 0.747288
vt -1.248761 0.762018
vt -1.248761 0.802746
vt -1.248761 0.843474
vt -0.584602 0.884202
vt -1.213743 0.884202
vt -1.213743 0.924930
vt -1.213743 0.939661
vt -0.584602 0.939661
vt -0.584602 0.924930
vt -1.248761 0.884202
vt -1.248761 0.924930
vt -1.248761 0.939661
vt 1.582966 0.762019
vt 1.582966 0.802746
vt 2.212107 0.802747
vt 2.212107 0.762019
vt 1.582966 0.843475
vt 2.212107 0.843475
vt 1.582966 0.747288
vt 2.212107 0.747288
vt 2.247125 0.747288
vt 2.247125 0.762019
vt 2.247125 0.802747
vt 2.247125 0.843475
vt 1.547948 0.747288
vt 1.547948 0.762019
vt 1.547948 0.802746
vt 1.547948 0.843475
vt 2.212107 0.884203
vt 1.582966 0.884203
vt 1.582966 0.924931
vt 1.582966 0.939661
vt 2.212107 0.939661
vt 2.212107 0.924931
vt 1.547947 0.884203
vt 2.247125 0.884203
vt 1.547948 0.924931
vt 2.247125 0.924931
vt 2.247125 0.939661
vt 1.547948 0.939661
vt 0.883789 0.802746
vt 0.883789 0.843475
vt 1.512930 0.843475
vt 1.512930 0.802746
vt -0.514566 0.762018
vt -0.514566 0.802746
vt 0.114575 0.802746
vt 0.114575 0.762018
vt 0.184611 0.762018
vt 0.184611 0.802746
vt 0.813753 0.802746
vt 0.813753 0.762018
vt 0.883789 0.762018
vt 1.512930 0.762019
vt -0.514566 0.843474
vt 0.114575 0.843474
vt 0.184611 0.843474
vt 0.813753 0.843474
vt -0.514566 0.747288
vt 0.114575 0.747288
vt 0.184611 0.747288
vt 0.813753 0.747288
vt 0.883789 0.747288
vt 1.512930 0.747288
vt 0.149593 0.747288
vt 0.149593 0.762018
vt 0.149593 0.802746
vt 0.149593 0.843474
vt -0.549584 0.747288
vt -0.549584 0.762018
vt -0.549584 0.802746
vt -0.549584 0.843474
vt 1.512930 0.924931
vt 1.512930 0.884203
vt 0.883789 0.884202
vt 0.883789 0.924931
vt 0.114575 0.884202
vt -0.514566 0.884202
vt 0.813753 0.884202
vt 0.184611 0.884202
vt 0.883789 0.939661
vt 1.512930 0.939661
vt 0.184611 0.924930
vt 0.184611 0.939661
vt 0.813753 0.939661
vt 0.813753 0.924931
vt -0.514566 0.924930
vt -0.514566 0.939661
vt 0.114575 0.939661
vt 0.114575 0.924930
vt 0.149593 0.884202
vt -0.549584 0.884202
vt 0.149593 0.924930
vt -0.549584 0.924930
vt 0.149593 0.939661
vt -0.549584 0.939661
vt -1.213743 0.762018
vt -1.213743 0.802746
vt -0.584602 0.802746
vt -0.584602 0.762018
vt -1.213743 0.843474
vt -0.584602 0.843474
vt -1.213743 0.747288
vt -0.584602 0.747288
vt -1.248761 0.747288
vt -1.248761 0.762018
vt -1.248761 0.802746
vt -1.248761 0.843474
vt -0.584602 0.884202
vt -1.213743 0.884202
vt -1.213743 0.924930
vt -1.213743 0.939661
vt -0.584602 0.939661
vt -0.584602 0.924930
vt -1.248761 0.884202
vt -1.248761 0.924930
vt -1.248761 0.939661
vt 1.582966 0.762019
vt 2.212107 0.762019
vt 2.212107 0.802747
vt 1.582966 0.802746
vt 2.212107 0.843475
vt 1.582966 0.843475
vt 1.582966 0.747288
vt 2.212107 0.747288
vt 2.247125 0.747288
vt 2.247125 0.762019
vt 2.247125 0.802747
vt 2.247125 0.843475
vt 1.547948 0.762019
vt 1.547948 0.747288
vt 1.547948 0.802746
vt 1.547948 0.843475
vt 2.212107 0.884203
vt 1.582966 0.884203
vt 1.582966 0.924931
vt 2.212107 0.924931
vt 2.212107 0.939661
vt 1.582966 0.939661
vt 1.547947 0.884203
vt 2.247125 0.884203
vt 1.547948 0.924931
vt 2.247125 0.924931
vt 2.247125 0.939661
vt 1.547948 0.939661
vt 0.883789 0.802746
vt 1.512930 0.802746
vt 1.512930 0.843475
vt 0.883789 0.843475
vt -0.514566 0.762018
vt 0.114575 0.762018
vt 0.114575 0.802746
vt -0.514566 0.802746
vt 0.184611 0.762018
vt 0.813753 0.762018
vt 0.813753 0.802746
vt 0.184611 0.802746
vt 0.883789 0.762018
vt 1.512930 0.762019
vt 0.114575 0.843474
vt -0.514566 0.843474
vt 0.813753 0.843474
vt 0.184611 0.843474
vt -0.514566 0.747288
vt 0.114575 0.747288
vt 0.184611 0.747288
vt 0.813753 0.747288
vt 0.883789 0.747288
vt 1.512930 0.747288
vt 0.149593 0.747288
vt 0.149593 0.762018
vt 0.149593 0.802746
vt 0.149593 0.843474
vt -0.549584 0.762018
vt -0.549584 0.747288
vt -0.549584 0.802746
vt -0.549584 0.843474
vt 1.512930 0.924931
vt 0.883789 0.924931
vt 0.883789 0.884202
vt 1.512930 0.884203
vt 0.114575 0.884202
vt -0.514566 0.884202
vt 0.813753 0.884202
vt 0.184611 0.884202
vt 1.512930 0.939661
vt 0.883789 0.939661
vt 0.184611 0.924930
vt 0.813753 0.924931
vt 0.813753 0.939661
vt 0.184611 0.939661
vt -0.514566 0.924930
vt 0.114575 0.924930
vt 0.114575 0.939661
vt -0.514566 0.939661
vt 0.149593 0.884202
vt -0.549584 0.884202
vt 0.149593 0.924930
vt -0.549584 0.924930
vt 0.149593 0.939661
vt -0.549584 0.939661
vt -1.213743 0.762018
vt -0.584602 0.762018
vt -0.584602 0.802746
vt -1.213743 0.802746
vt -0.584602 0.843474
vt -1.213743 0.843474
vt -1.213743 0.747288
vt -0.584602 0.747288
vt -1.248761 0.762018
vt -1.248761 0.747288
vt -1.248761 0.802746
vt -1.248761 0.843474
vt -0.584602 0.884202
vt -1.213743 0.884202
vt -1.213743 0.924930
vt -0.584602 0.924930
vt -0.584602 0.939661
vt -1.213743 0.939661
vt -1.248761 0.884202
vt -1.248761 0.924930
vt -1.248761 0.939661
vt 0.315772 0.386590
vt 0.528112 0.386590
vt 0.528112 0.407760
vt 0.315772 0.407760
vt 0.315772 0.365419
vt 0.528112 0.365419
vt 0.528112 0.407760
vt 0.315772 0.407760
vt 0.315772 0.386590
vt 0.528112 0.386590
vt 0.528112 0.407760
vt 0.315772 0.407760
vt 0.315772 0.386589
vt 0.528112 0.386589
vt 0.528112 0.407760
vt 0.315772 0.407760
vt 0.315772 0.365419
vt 0.528112 0.365419
vt 0.315772 0.365419
vt 0.528112 0.365419
vt 0.315772 0.365419
vt 0.528112 0.365419
vt 0.315772 0.386589
vt 0.528112 0.386589
vt 0.528112 0.407760
vt 0.315772 0.407760
vt 0.315772 0.365419
vt 0.528112 0.365419
vt 0.528112 0.386589
vt 0.315772 0.386589
vt 0.315772 0.386590
vt 0.315772 0.407760
vt 0.528112 0.407760
vt 0.528112 0.386590
vt 0.315772 0.365419
vt 0.315772 0.407760
vt 0.528112 0.407760
vt 0.528112 0.365419
vt 0.315772 0.386590
vt 0.315772 0.407760
vt 0.528112 0.407760
vt 0.528112 0.386590
vt 0.315772 0.386589
vt 0.315772 0.407760
vt 0.528112 0.407760
vt 0.528112 0.386589
vt 0.315772 0.365419
vt 0.528112 0.365419
vt 0.315772 0.365419
vt 0.528112 0.365419
vt 0.315772 0.365419
vt 0.528112 0.365419
vt 0.315772 0.386589
vt 0.315772 0.407760
vt 0.528112 0.407760
vt 0.528112 0.386589
vt 0.315772 0.365419
vt 0.315772 0.386589
vt 0.528112 0.386589
vt 0.528112 0.365419
vt 0.315772 0.386590
vt 0.528112 0.386590
vt 0.528112 0.407760
vt 0.315772 0.407760
vt 0.315772 0.365419
vt 0.528112 0.365419
vt 0.528112 0.407760
vt 0.315772 0.407760
vt 0.315772 0.386590
vt 0.528112 0.386590
vt 0.528112 0.407760
vt 0.315772 0.407760
vt 0.315772 0.386589
vt 0.528112 0.386589
vt 0.528112 0.407760
vt 0.315772 0.407760
vt 0.315772 0.365419
vt 0.528112 0.365419
vt 0.315772 0.365419
vt 0.528112 0.365419
vt 0.315772 0.365419
vt 0.528112 0.365419
vt 0.315772 0.386589
vt 0.528112 0.386589
vt 0.528112 0.407760
vt 0.315772 0.407760
vt 0.315772 0.365419
vt 0.528112 0.365419
vt 0.528112 0.386589
vt 0.315772 0.386589
vt 0.175666 0.496262
vt 0.179056 0.500760
vt 0.328788 0.500760
vt 0.332177 0.496262
vt 0.347449 0.499300
vt 0.360397 0.507951
vt 0.369048 0.520899
vt 0.372086 0.536171
vt 0.367588 0.539560
vt 0.367588 0.689292
vt 0.372086 0.692682
vt 0.369048 0.707954
vt 0.360397 0.720901
vt 0.347449 0.729552
vt 0.332177 0.732590
vt 0.328788 0.728092
vt 0.179056 0.728092
vt 0.175666 0.732590
vt 0.160394 0.729552
vt 0.147447 0.720901
vt 0.138796 0.707954
vt 0.135758 0.692682
vt 0.140256 0.689292
vt 0.140256 0.539560
vt 0.135758 0.536171
vt 0.138796 0.520899
vt 0.147447 0.507951
vt 0.160394 0.499300
vt 0.175666 0.496262
vt 0.160394 0.499300
vt 0.147447 0.507951
vt 0.138796 0.520899
vt 0.135758 0.536171
vt 0.140256 0.539560
vt 0.140256 0.689292
vt 0.135758 0.692682
vt 0.138796 0.707954
vt 0.147447 0.720901
vt 0.160394 0.729552
vt 0.175666 0.732590
vt 0.179056 0.728092
vt 0.328788 0.728092
vt 0.332177 0.732590
vt 0.347449 0.729552
vt 0.360397 0.720901
vt 0.369048 0.707954
vt 0.372086 0.692682
vt 0.367588 0.689292
vt 0.367588 0.539560
vt 0.372086 0.536171
vt 0.369048 0.520899
vt 0.360397 0.507951
vt 0.347449 0.499300
vt 0.332177 0.496262
vt 0.328788 0.500760
vt 0.179056 0.500760
vt 0.042554 0.718600
vt 0.042554 0.942724
vt 0.237124 0.942724
vt 0.237124 0.718600
vt 0.042554 0.718599
vt 0.042554 0.942725
vt 0.237124 0.942725
vt 0.237124 0.718599
vt 0.042554 0.718599
vt 0.042554 0.942725
vt 0.237124 0.942725
vt 0.237124 0.718599
vt 0.042557 0.718600
vt 0.042553 0.942724
vt 0.237123 0.942724
vt 0.237123 0.718600
vt 0.042555 0.718599
vt 0.042555 0.942725
vt 0.237125 0.942725
vt 0.237125 0.718599
vt 1.402671 0.607480
vt 1.402671 0.658080
vt 1.230345 0.658080
vt 1.230345 0.607480
vt 1.220754 0.607480
vt 1.220754 0.658080
vt 1.211162 0.607480
vt 1.211162 0.658080
vt 1.038836 0.658080
vt 1.038836 0.607480
vt 0.977198 0.607480
vt 0.977198 0.658080
vt 0.804873 0.658080
vt 0.804873 0.607480
vt 0.785689 0.607480
vt 0.785689 0.658080
vt 0.613364 0.658080
vt 0.613364 0.607480
vt 0.795281 0.607480
vt 0.795281 0.658080
vt 0.603772 0.607480
vt 0.603772 0.658080
vt 0.594180 0.607480
vt 0.594180 0.658080
vt 0.421854 0.658080
vt 0.421854 0.607480
vt 0.412263 0.607480
vt 0.412263 0.658080
vt 1.412263 0.607480
vt 1.412263 0.658080
vt 0.042554 0.718600
vt 0.237124 0.718600
vt 0.237124 0.942724
vt 0.042554 0.942724
vt 0.042554 0.718599
vt 0.237124 0.718599
vt 0.237124 0.942725
vt 0.042554 0.942725
vt 0.042554 0.718599
vt 0.237124 0.718599
vt 0.237124 0.942725
vt 0.042554 0.942725
vt 0.042557 0.718600
vt 0.237123 0.718600
vt 0.237123 0.942724
vt 0.042553 0.942724
vt 0.042555 0.718599
vt 0.237125 0.718599
vt 0.237125 0.942725
vt 0.042555 0.942725
vt 0.042554 0.718600
vt 0.042554 0.942724
vt 0.237124 0.942724
vt 0.237124 0.718600
vt 0.042554 0.718599
vt 0.042554 0.942725
vt 0.237124 0.942725
vt 0.237124 0.718599
vt 0.042554 0.718599
vt 0.042554 0.942725
vt 0.237124 0.942725
vt 0.237124 0.718599
vt 0.042557 0.718600
vt 0.042553 0.942724
vt 0.237123 0.942724
vt 0.237123 0.718600
vt 0.042555 0.718599
vt 0.042555 0.942725
vt 0.237125 0.942725
vt 0.237125 0.718599
vn -0.9808 0.0000 -0.1951
vn -0.9239 0.0000 -0.3827
vn -0.7071 0.0000 -0.7071
vn -0.6018 0.0000 0.7987
vn -0.3827 0.0000 -0.9239
vn 0.7987 0.0000 -0.6018
vn -0.1951 0.0000 -0.9808
vn -0.9808 0.0000 0.1951
vn -0.9239 0.0000 0.3827
vn -0.7071 0.0000 0.7071
vn -0.6018 0.0000 -0.7987
vn -0.3827 0.0000 0.9239
vn 0.7987 0.0000 0.6018
vn -0.1951 0.0000 0.9808
vn -0.8957 -0.1755 0.4086
vn -0.6652 -0.2661 0.6976
vn -0.9314 -0.1267 0.3414
vn -0.9791 -0.0584 0.1948
vn -0.9763 -0.0951 0.1942
vn -0.7041 -0.2576 0.6618
vn -0.5005 0.5552 -0.6643
vn 0.7852 -0.1830 0.5916
vn 0.7702 -0.2645 0.5804
vn -0.3298 -0.6054 0.7243
vn -0.2813 -0.6154 0.7363
vn -0.1509 -0.6340 0.7585
vn 0.9808 0.0000 -0.1951
vn 0.9239 0.0000 -0.3827
vn 0.7071 0.0000 -0.7071
vn 0.6018 0.0000 0.7987
vn 0.3827 0.0000 -0.9239
vn -0.7987 -0.0000 -0.6018
vn 0.1951 0.0000 -0.9808
vn 0.9808 0.0000 0.1951
vn 0.9239 0.0000 0.3827
vn 0.7071 0.0000 0.7071
vn 0.6018 0.0000 -0.7987
vn 0.3827 0.0000 0.9239
vn -0.7987 0.0000 0.6018
vn 0.1951 0.0000 0.9808
vn 0.8957 -0.1755 0.4086
vn 0.6652 -0.2661 0.6976
vn 0.9791 -0.0584 0.1948
vn 0.9314 -0.1267 0.3414
vn 0.9763 -0.0951 0.1942
vn 0.7041 -0.2576 0.6618
vn 0.5005 0.5552 -0.6643
vn -0.7852 -0.1830 0.5916
vn -0.7702 -0.2645 0.5804
vn 0.3298 -0.6054 0.7243
vn 0.2813 -0.6154 0.7363
vn 0.1509 -0.6340 0.7585
vn -1.0000 -0.0000 0.0000
vn 0.0000 -0.0000 -1.0000
vn 1.0000 0.0000 0.0000
vn 0.0000 1.0000 -0.0000
vn 0.0000 -1.0000 0.0000
vn 0.0000 0.0000 1.0000
vn 0.0000 -0.6413 0.7673
usemtl MI_Trim_02
s 1
f 1/1/1 2/2/1 5/3/2 6/4/2
f 6/4/2 5/3/2 7/5/3 8/6/3
f 11/7/4 10/8/4 2/2/4 1/1/4
f 12/9/4 9/10/4 2/2/4 10/8/4
f 4/11/2 3/12/3 7/5/3 5/3/2
f 9/10/1 4/11/2 5/3/2 2/2/1
f 11/7/4 1/1/4 52/13/4 14/14/4
f 1/1/1 6/4/2 39/15/2 52/13/1
f 6/4/2 8/6/3 13/16/3 39/15/2
f 19/17/5 18/18/5 8/6/3 7/5/3
f 17/19/6 16/20/6 23/21/6 22/22/6
f 16/20/7 17/19/7 18/18/5 19/17/5
f 24/23/5 13/16/3 8/6/3 18/18/5
f 19/17/5 7/5/3 3/12/3 20/24/5
f 58/25/7 24/23/5 18/18/5 17/19/7
f 16/20/7 19/17/5 20/24/5 15/26/7
f 15/26/6 21/27/6 23/21/6 16/20/6
f 17/19/6 22/22/6 25/28/6 58/25/6
f 36/29/2 33/30/2 41/31/3 43/32/3
f 26/33/1 28/34/1 37/35/2 40/36/2
f 27/37/1 30/38/1 35/39/2 38/40/2
f 29/41/1 32/42/1 33/30/2 36/29/2
f 40/36/2 37/35/2 44/43/3 46/44/3
f 38/40/2 35/39/2 42/45/3 45/46/3
f 53/47/4 50/48/4 28/34/4 26/33/4
f 51/49/4 48/50/4 30/38/4 27/37/4
f 49/51/4 364/52/4 32/42/4 29/41/4
f 367/53/4 47/54/4 28/34/4 50/48/4
f 49/51/4 29/41/4 30/38/4 48/50/4
f 14/14/4 52/13/4 32/42/4 364/52/4
f 51/49/4 27/37/4 47/54/4 367/53/4
f 34/55/2 31/56/3 44/43/3 37/35/2
f 36/29/2 43/32/3 42/45/3 35/39/2
f 39/15/2 13/16/3 41/31/3 33/30/2
f 47/54/1 34/55/2 37/35/2 28/34/1
f 29/41/1 36/29/2 35/39/2 30/38/1
f 52/13/1 39/15/2 33/30/2 32/42/1
f 53/47/4 26/33/4 55/57/4 56/58/4
f 26/33/1 40/36/2 81/59/2 55/57/1
f 40/36/2 46/44/3 54/60/3 81/59/2
f 38/40/2 45/46/3 31/56/3 34/55/2
f 27/37/1 38/40/2 34/55/2 47/54/1
f 59/61/7 60/62/7 68/63/5 71/64/5
f 67/65/5 65/66/5 46/44/3 44/43/3
f 71/64/5 68/63/5 43/32/3 41/31/3
f 69/67/5 66/68/5 45/46/3 42/45/3
f 60/62/6 59/61/6 77/69/6 76/70/6
f 62/71/6 61/72/6 75/73/6 74/74/6
f 64/75/6 63/76/6 73/77/6 397/78/6
f 63/76/7 64/75/7 65/66/5 67/65/5
f 61/72/7 62/71/7 66/68/5 69/67/5
f 69/67/5 42/45/3 43/32/3 68/63/5
f 70/79/5 31/56/3 45/46/3 66/68/5
f 96/80/5 54/60/3 46/44/3 65/66/5
f 67/65/5 44/43/3 31/56/3 70/79/5
f 61/72/7 69/67/5 68/63/5 60/62/7
f 57/81/7 70/79/5 66/68/5 62/71/7
f 91/82/7 96/80/5 65/66/5 64/75/7
f 63/76/7 67/65/5 70/79/5 57/81/7
f 71/64/5 41/31/3 13/16/3 24/23/5
f 57/81/6 72/83/6 73/77/6 63/76/6
f 60/62/6 76/70/6 75/73/6 61/72/6
f 58/25/6 25/28/6 77/69/6 59/61/6
f 59/61/7 71/64/5 24/23/5 58/25/7
f 64/75/6 397/78/6 78/84/6 91/82/6
f 62/71/6 74/74/6 72/83/6 57/81/6
f 79/85/1 80/86/1 82/87/2 83/88/2
f 83/88/2 82/87/2 84/89/3 85/90/3
f 87/91/4 86/92/4 80/86/4 79/85/4
f 56/58/4 55/57/4 80/86/4 86/92/4
f 81/59/2 54/60/3 84/89/3 82/87/2
f 55/57/1 81/59/2 82/87/2 80/86/1
f 87/91/4 79/85/4 90/93/4 368/94/4
f 79/85/1 83/88/2 89/95/2 90/93/1
f 83/88/2 85/90/3 88/96/3 89/95/2
f 95/97/5 94/98/5 85/90/3 84/89/3
f 93/99/6 92/100/6 98/101/6 97/102/6
f 92/100/7 93/99/7 94/98/5 95/97/5
f 100/103/5 88/96/3 85/90/3 94/98/5
f 95/97/5 84/89/3 54/60/3 96/80/5
f 99/104/7 100/103/5 94/98/5 93/99/7
f 92/100/7 95/97/5 96/80/5 91/82/7
f 91/82/6 78/84/6 98/101/6 92/100/6
f 93/99/6 97/102/6 101/105/6 99/104/6
f 102/106/8 107/107/9 106/108/9 103/109/8
f 107/107/9 109/110/10 108/111/10 106/108/9
f 112/112/11 102/106/11 103/109/11 111/113/11
f 113/114/11 111/113/11 103/109/11 110/115/11
f 105/116/9 106/108/9 108/111/10 104/117/10
f 110/115/8 103/109/8 106/108/9 105/116/9
f 112/112/11 363/118/11 147/119/11 102/106/11
f 102/106/8 147/119/8 135/120/9 107/107/9
f 107/107/9 135/120/9 114/121/10 109/110/10
f 119/122/12 108/111/10 109/110/10 118/123/12
f 117/124/13 371/125/13 395/126/13 116/127/13
f 116/127/14 119/122/12 118/123/12 117/124/14
f 121/128/12 118/123/12 109/110/10 114/121/10
f 119/122/12 120/129/12 104/117/10 108/111/10
f 154/130/14 117/124/14 118/123/12 121/128/12
f 116/127/14 115/131/14 120/129/12 119/122/12
f 115/131/13 116/127/13 395/126/13 393/132/13
f 117/124/13 154/130/13 372/133/13 371/125/13
f 132/134/15 139/135/16 137/136/10 129/137/9
f 122/138/8 136/139/9 133/140/9 124/141/8
f 123/142/8 134/143/9 131/144/17 126/145/18
f 125/146/19 132/134/15 129/137/9 128/147/8
f 136/139/9 142/148/10 140/149/10 133/140/9
f 134/143/9 141/150/10 138/151/20 131/144/17
f 148/152/11 122/138/11 124/141/11 365/153/11
f 146/154/11 123/142/11 126/145/11 144/155/11
f 145/156/11 125/146/11 128/147/11 366/157/11
f 149/158/11 365/153/11 124/141/11 143/159/11
f 145/156/21 144/155/21 126/145/21 125/146/21
f 363/118/11 366/157/11 128/147/11 147/119/11
f 146/154/11 149/158/11 143/159/11 123/142/11
f 130/160/9 133/140/9 140/149/10 127/161/10
f 132/134/15 131/144/17 138/151/20 139/135/16
f 135/120/9 129/137/9 137/136/10 114/121/10
f 143/159/8 124/141/8 133/140/9 130/160/9
f 125/146/19 126/145/18 131/144/17 132/134/15
f 147/119/8 128/147/8 129/137/9 135/120/9
f 148/152/11 152/162/11 151/163/11 122/138/11
f 122/138/8 151/163/8 172/164/9 136/139/9
f 136/139/9 172/164/9 150/165/10 142/148/10
f 134/143/9 130/160/9 127/161/10 141/150/10
f 123/142/8 143/159/8 130/160/9 134/143/9
f 155/166/14 167/167/12 164/168/12 156/169/14
f 163/170/12 140/149/10 142/148/10 161/171/12
f 167/167/12 137/136/10 139/135/16 164/168/12
f 165/172/12 138/151/20 141/150/10 162/173/12
f 156/169/22 382/174/23 383/175/13 155/166/13
f 158/176/13 169/177/13 381/178/22 157/179/23
f 160/180/13 168/181/13 380/182/13 159/183/13
f 159/183/14 163/170/12 161/171/12 160/180/14
f 157/179/14 165/172/12 162/173/12 158/176/14
f 165/172/24 164/168/25 139/135/16 138/151/20
f 166/184/12 162/173/12 141/150/10 127/161/10
f 187/185/12 161/171/12 142/148/10 150/165/10
f 163/170/12 166/184/12 127/161/10 140/149/10
f 157/179/26 156/169/26 164/168/25 165/172/24
f 153/186/14 158/176/14 162/173/12 166/184/12
f 182/187/14 160/180/14 161/171/12 187/185/12
f 159/183/14 153/186/14 166/184/12 163/170/12
f 167/167/12 121/128/12 114/121/10 137/136/10
f 153/186/13 159/183/13 380/182/13 374/188/13
f 156/169/22 157/179/23 381/178/22 382/174/23
f 154/130/13 155/166/13 383/175/13 372/133/13
f 155/166/14 154/130/14 121/128/12 167/167/12
f 160/180/13 182/187/13 386/189/13 168/181/13
f 158/176/13 153/186/13 374/188/13 169/177/13
f 170/190/8 174/191/9 173/192/9 171/193/8
f 174/191/9 176/194/10 175/195/10 173/192/9
f 178/196/11 170/190/11 171/193/11 177/197/11
f 152/162/11 177/197/11 171/193/11 151/163/11
f 172/164/9 173/192/9 175/195/10 150/165/10
f 151/163/8 171/193/8 173/192/9 172/164/9
f 178/196/11 369/198/11 181/199/11 170/190/11
f 170/190/8 181/199/8 180/200/9 174/191/9
f 174/191/9 180/200/9 179/201/10 176/194/10
f 186/202/12 175/195/10 176/194/10 185/203/12
f 184/204/13 390/205/13 388/206/13 183/207/13
f 183/207/14 186/202/12 185/203/12 184/204/14
f 189/208/12 185/203/12 176/194/10 179/201/10
f 186/202/12 187/185/12 150/165/10 175/195/10
f 188/209/14 184/204/14 185/203/12 189/208/12
f 183/207/14 182/187/14 187/185/12 186/202/12
f 182/187/13 183/207/13 388/206/13 386/189/13
f 184/204/13 188/209/13 391/210/13 390/205/13
f 190/211/27 195/212/28 194/213/28 191/214/27
f 195/212/28 197/215/29 196/216/29 194/213/28
f 399/217/30 190/211/30 191/214/30 420/218/30
f 199/219/30 420/218/30 191/214/30 198/220/30
f 193/221/28 194/213/28 196/216/29 192/222/29
f 198/220/27 191/214/27 194/213/28 193/221/28
f 399/217/30 201/223/30 235/224/30 190/211/30
f 190/211/27 235/224/27 225/225/28 195/212/28
f 195/212/28 225/225/28 200/226/29 197/215/29
f 206/227/31 196/216/29 197/215/29 205/228/31
f 204/229/32 209/230/32 210/231/32 203/232/32
f 203/232/33 206/227/31 205/228/31 204/229/33
f 211/233/31 205/228/31 197/215/29 200/226/29
f 206/227/31 207/234/31 192/222/29 196/216/29
f 240/235/33 204/229/33 205/228/31 211/233/31
f 203/232/33 202/236/33 207/234/31 206/227/31
f 202/236/32 203/232/32 210/231/32 208/237/32
f 204/229/32 240/235/32 396/238/32 209/230/32
f 222/239/28 229/240/29 227/241/29 219/242/28
f 212/243/27 226/244/28 223/245/28 214/246/27
f 213/247/27 224/248/28 221/249/28 216/250/27
f 215/251/27 222/239/28 219/242/28 218/252/27
f 226/244/28 232/253/29 230/254/29 223/245/28
f 224/248/28 231/255/29 228/256/29 221/249/28
f 236/257/30 212/243/30 214/246/30 406/258/30
f 407/259/30 213/247/30 216/250/30 408/260/30
f 409/261/30 215/251/30 218/252/30 233/262/30
f 401/263/30 406/258/30 214/246/30 234/264/30
f 409/261/30 408/260/30 216/250/30 215/251/30
f 201/223/30 233/262/30 218/252/30 235/224/30
f 407/259/30 401/263/30 234/264/30 213/247/30
f 220/265/28 223/245/28 230/254/29 217/266/29
f 222/239/28 221/249/28 228/256/29 229/240/29
f 225/225/28 219/242/28 227/241/29 200/226/29
f 234/264/27 214/246/27 223/245/28 220/265/28
f 215/251/27 216/250/27 221/249/28 222/239/28
f 235/224/27 218/252/27 219/242/28 225/225/28
f 236/257/30 412/267/30 238/268/30 212/243/30
f 212/243/27 238/268/27 264/269/28 226/244/28
f 226/244/28 264/269/28 237/270/29 232/253/29
f 224/248/28 220/265/28 217/266/29 231/255/29
f 213/247/27 234/264/27 220/265/28 224/248/28
f 241/271/33 253/272/31 250/273/31 242/274/33
f 249/275/31 230/254/29 232/253/29 247/276/31
f 253/272/31 227/241/29 229/240/29 250/273/31
f 251/277/31 228/256/29 231/255/29 248/278/31
f 242/274/32 259/279/32 260/280/32 241/271/32
f 244/281/32 257/282/32 258/283/32 243/284/32
f 246/285/32 255/286/32 256/287/32 245/288/32
f 245/288/33 249/275/31 247/276/31 246/285/33
f 243/284/33 251/277/31 248/278/31 244/281/33
f 251/277/31 250/273/31 229/240/29 228/256/29
f 252/289/31 248/278/31 231/255/29 217/266/29
f 277/290/31 247/276/31 232/253/29 237/270/29
f 249/275/31 252/289/31 217/266/29 230/254/29
f 243/284/33 242/274/33 250/273/31 251/277/31
f 239/291/33 244/281/33 248/278/31 252/289/31
f 272/292/33 246/285/33 247/276/31 277/290/31
f 245/288/33 239/291/33 252/289/31 249/275/31
f 253/272/31 211/233/31 200/226/29 227/241/29
f 239/291/32 245/288/32 256/287/32 254/293/32
f 242/274/32 243/284/32 258/283/32 259/279/32
f 240/235/32 241/271/32 260/280/32 396/238/32
f 241/271/33 240/235/33 211/233/31 253/272/31
f 246/285/32 272/292/32 261/294/32 255/286/32
f 244/281/32 239/291/32 254/293/32 257/282/32
f 262/295/27 266/296/28 265/297/28 263/298/27
f 266/296/28 268/299/29 267/300/29 265/297/28
f 416/301/30 262/295/30 263/298/30 414/302/30
f 412/267/30 414/302/30 263/298/30 238/268/30
f 264/269/28 265/297/28 267/300/29 237/270/29
f 238/268/27 263/298/27 265/297/28 264/269/28
f 416/301/30 418/303/30 271/304/30 262/295/30
f 262/295/27 271/304/27 270/305/28 266/296/28
f 266/296/28 270/305/28 269/306/29 268/299/29
f 276/307/31 267/300/29 268/299/29 275/308/31
f 274/309/32 278/310/32 279/311/32 273/312/32
f 273/312/33 276/307/31 275/308/31 274/309/33
f 281/313/31 275/308/31 268/299/29 269/306/29
f 276/307/31 277/290/31 237/270/29 267/300/29
f 280/314/33 274/309/33 275/308/31 281/313/31
f 273/312/33 272/292/33 277/290/31 276/307/31
f 272/292/32 273/312/32 279/311/32 261/294/32
f 274/309/32 280/314/32 282/315/32 278/310/32
f 283/316/34 284/317/34 287/318/35 288/319/35
f 288/319/35 287/318/35 289/320/36 290/321/36
f 398/322/37 292/323/37 284/317/37 283/316/37
f 419/324/37 291/325/37 284/317/37 292/323/37
f 286/326/35 285/327/36 289/320/36 287/318/35
f 291/325/34 286/326/35 287/318/35 284/317/34
f 398/322/37 283/316/37 324/328/37 400/329/37
f 283/316/34 288/319/35 314/330/35 324/328/34
f 288/319/35 290/321/36 293/331/36 314/330/35
f 298/332/38 297/333/38 290/321/36 289/320/36
f 296/334/39 295/335/39 394/336/39 370/337/39
f 295/335/40 296/334/40 297/333/38 298/332/38
f 300/338/38 293/331/36 290/321/36 297/333/38
f 298/332/38 289/320/36 285/327/36 299/339/38
f 329/340/40 300/338/38 297/333/38 296/334/40
f 295/335/40 298/332/38 299/339/38 294/341/40
f 294/341/39 392/342/39 394/336/39 295/335/39
f 296/334/39 370/337/39 373/343/39 329/340/39
f 311/344/41 308/345/35 316/346/36 318/347/42
f 301/348/34 303/349/34 312/350/35 315/351/35
f 302/352/34 305/353/43 310/354/44 313/355/35
f 304/356/45 307/357/34 308/345/35 311/344/41
f 315/351/35 312/350/35 319/358/36 321/359/36
f 313/355/35 310/354/44 317/360/46 320/361/36
f 325/362/37 405/363/37 303/349/37 301/348/37
f 323/364/37 403/365/37 305/353/37 302/352/37
f 404/366/37 402/367/37 307/357/37 304/356/37
f 410/368/37 322/369/37 303/349/37 405/363/37
f 404/366/47 304/356/47 305/353/47 403/365/47
f 400/329/37 324/328/37 307/357/37 402/367/37
f 323/364/37 302/352/37 322/369/37 410/368/37
f 309/370/35 306/371/36 319/358/36 312/350/35
f 311/344/41 318/347/42 317/360/46 310/354/44
f 314/330/35 293/331/36 316/346/36 308/345/35
f 322/369/34 309/370/35 312/350/35 303/349/34
f 304/356/45 311/344/41 310/354/44 305/353/43
f 324/328/34 314/330/35 308/345/35 307/357/34
f 325/362/37 301/348/37 327/372/37 411/373/37
f 301/348/34 315/351/35 346/374/35 327/372/34
f 315/351/35 321/359/36 326/375/36 346/374/35
f 313/355/35 320/361/36 306/371/36 309/370/35
f 302/352/34 313/355/35 309/370/35 322/369/34
f 330/376/40 331/377/40 339/378/38 342/379/38
f 338/380/38 336/381/38 321/359/36 319/358/36
f 342/379/38 339/378/38 318/347/42 316/346/36
f 340/382/38 337/383/38 320/361/36 317/360/46
f 331/377/48 330/376/39 375/384/39 377/385/49
f 333/386/39 332/387/49 376/388/48 379/389/39
f 335/390/39 334/391/39 378/392/39 343/393/39
f 334/391/40 335/390/40 336/381/38 338/380/38
f 332/387/40 333/386/40 337/383/38 340/382/38
f 340/382/50 317/360/46 318/347/42 339/378/51
f 341/394/38 306/371/36 320/361/36 337/383/38
f 359/395/38 326/375/36 321/359/36 336/381/38
f 338/380/38 319/358/36 306/371/36 341/394/38
f 332/387/52 340/382/50 339/378/51 331/377/52
f 328/396/40 341/394/38 337/383/38 333/386/40
f 354/397/40 359/395/38 336/381/38 335/390/40
f 334/391/40 338/380/38 341/394/38 328/396/40
f 342/379/38 316/346/36 293/331/36 300/338/38
f 328/396/39 384/398/39 378/392/39 334/391/39
f 331/377/48 377/385/49 376/388/48 332/387/49
f 329/340/39 373/343/39 375/384/39 330/376/39
f 330/376/40 342/379/38 300/338/38 329/340/40
f 335/390/39 343/393/39 385/399/39 354/397/39
f 333/386/39 379/389/39 384/398/39 328/396/39
f 344/400/34 345/401/34 347/402/35 348/403/35
f 348/403/35 347/402/35 349/404/36 350/405/36
f 415/406/37 413/407/37 345/401/37 344/400/37
f 411/373/37 327/372/37 345/401/37 413/407/37
f 346/374/35 326/375/36 349/404/36 347/402/35
f 327/372/34 346/374/35 347/402/35 345/401/34
f 415/406/37 344/400/37 353/408/37 417/409/37
f 344/400/34 348/403/35 352/410/35 353/408/34
f 348/403/35 350/405/36 351/411/36 352/410/35
f 358/412/38 357/413/38 350/405/36 349/404/36
f 356/414/39 355/415/39 387/416/39 389/417/39
f 355/415/40 356/414/40 357/413/38 358/412/38
f 361/418/38 351/411/36 350/405/36 357/413/38
f 358/412/38 349/404/36 326/375/36 359/395/38
f 360/419/40 361/418/38 357/413/38 356/414/40
f 355/415/40 358/412/38 359/395/38 354/397/40
f 354/397/39 385/399/39 387/416/39 355/415/39
f 356/414/39 389/417/39 362/420/39 360/419/39
f 14/421/53 363/422/53 112/423/53 11/424/53
f 48/425/53 144/426/53 145/427/53 49/428/53
f 367/429/53 149/430/53 146/431/53 51/432/53
f 56/433/53 152/434/53 148/435/53 53/436/53
f 50/437/53 365/438/53 149/430/53 367/429/53
f 364/439/53 366/440/53 363/422/53 14/421/53
f 86/441/53 177/442/53 152/434/53 56/433/53
f 368/443/53 369/444/53 178/445/53 87/446/53
f 10/447/53 111/448/53 113/449/53 12/450/53
f 25/451/54 22/452/54 209/453/54 396/454/54
f 75/455/54 76/456/54 259/457/54 258/458/54
f 72/459/54 74/460/54 257/461/54 254/462/54
f 78/463/54 397/464/54 255/465/54 261/466/54
f 73/467/54 72/459/54 254/462/54 256/468/54
f 77/469/54 25/451/54 396/454/54 260/470/54
f 98/471/54 78/463/54 261/466/54 279/472/54
f 101/473/54 97/474/54 278/475/54 282/476/54
f 23/477/54 21/478/54 208/479/54 210/480/54
f 400/481/55 201/482/55 399/483/55 398/484/55
f 403/485/55 408/486/55 409/487/55 404/488/55
f 410/489/55 401/490/55 407/491/55 323/492/55
f 411/493/55 412/494/55 236/495/55 325/496/55
f 405/497/55 406/498/55 401/490/55 410/489/55
f 402/499/55 233/500/55 201/482/55 400/481/55
f 413/501/55 414/502/55 412/494/55 411/493/55
f 417/503/55 418/504/55 416/505/55 415/506/55
f 292/507/55 420/508/55 199/509/55 419/510/55
f 9/511/56 12/512/56 113/513/56 110/514/56 105/515/56 104/516/56 120/517/56 115/518/56 393/519/56 392/520/56 294/521/56 299/522/56 285/523/56 286/524/56 291/525/56 419/526/56 199/527/56 198/528/56 193/529/56 192/530/56 207/531/56 202/532/56 208/533/56 21/534/56 15/535/56 20/536/56 3/537/56 4/538/56
f 90/539/57 89/540/57 88/541/57 100/542/57 99/543/57 101/544/57 282/545/57 280/546/57 281/547/57 269/548/57 270/549/57 271/550/57 418/551/57 417/552/57 353/553/57 352/554/57 351/555/57 361/556/57 360/557/57 362/558/57 391/559/57 188/560/57 189/561/57 179/562/57 180/563/57 181/564/57 369/565/57 368/566/57
usemtl MI_Trim_01
f 10/567/53 11/568/53 112/569/53 111/570/53
f 364/571/53 49/572/53 145/573/53 366/574/53
f 48/575/53 51/576/53 146/577/53 144/578/53
f 50/579/53 53/580/53 148/581/53 365/582/53
f 86/583/53 87/584/53 178/585/53 177/586/53
f 394/587/58 395/588/58 371/589/58 370/590/58
f 373/591/58 370/590/58 371/589/58 372/592/58
f 375/593/58 383/594/58 382/595/58 377/596/58
f 376/597/58 381/598/58 169/599/58 379/600/58
f 378/601/58 380/602/58 168/603/58 343/604/58
f 376/597/59 377/596/59 382/595/59 381/598/59
f 384/605/58 379/600/58 169/599/58 374/606/58
f 385/607/58 343/604/58 168/603/58 386/608/58
f 378/601/58 384/605/58 374/606/58 380/602/58
f 375/593/58 373/591/58 372/592/58 383/594/58
f 387/609/58 388/610/58 390/611/58 389/612/58
f 387/609/58 385/607/58 386/608/58 388/610/58
f 362/613/58 389/612/58 390/611/58 391/614/58
f 394/587/58 392/615/58 393/616/58 395/588/58
f 23/617/54 210/618/54 209/619/54 22/620/54
f 77/621/54 260/622/54 259/623/54 76/624/54
f 75/625/54 258/626/54 257/627/54 74/628/54
f 73/629/54 256/630/54 255/631/54 397/632/54
f 98/633/54 279/634/54 278/635/54 97/636/54
f 292/637/55 398/638/55 399/639/55 420/640/55
f 402/641/55 404/642/55 409/643/55 233/644/55
f 403/645/55 323/646/55 407/647/55 408/648/55
f 405/649/55 325/650/55 236/651/55 406/652/55
f 413/653/55 415/654/55 416/655/55 414/656/55
