# Blender v3.6.0 OBJ File: 'AllModules_Unreal.blend'
# www.blender.org
mtllib Column_SimpleSquare.mtl
o Column_SimpleSquare_Cube.012
v -0.331130 4.050085 0.500000
v -0.331130 4.949915 0.500000
v -0.450539 5.000000 0.450539
v -0.395754 5.000000 0.487146
v -0.395754 4.949915 0.487146
v -0.395754 4.050085 0.487146
v -0.450539 4.949915 0.450539
v -0.450539 4.050085 0.450539
v -0.331130 5.000000 0.500000
v -0.316789 4.949915 0.480967
v -0.316789 4.050085 0.480967
v -0.316789 5.000000 0.480967
v -0.450539 4.000000 0.450539
v -0.316789 4.000000 0.480967
v -0.500000 5.000000 0.331130
v -0.500000 4.949915 0.331130
v -0.500000 4.050085 0.331130
v -0.487146 4.050085 0.395754
v -0.487146 4.949915 0.395754
v -0.487146 5.000000 0.395754
v -0.480967 5.000000 0.316789
v -0.480967 4.050085 0.316789
v -0.480967 4.949915 0.316789
v -0.487146 4.000000 0.395754
v -0.480967 4.000000 0.316789
v -0.331130 1.050085 0.500000
v -0.331130 2.050085 0.500000
v -0.331130 1.949915 0.500000
v -0.331130 3.050085 0.500000
v -0.331130 2.949915 0.500000
v -0.450539 2.000000 0.450539
v -0.331130 3.949915 0.500000
v -0.395754 3.949915 0.487146
v -0.395754 2.000000 0.487146
v -0.395754 2.949915 0.487146
v -0.395754 3.050085 0.487146
v -0.395754 1.949915 0.487146
v -0.395754 2.050085 0.487146
v -0.395754 4.000000 0.487146
v -0.395754 1.050085 0.487146
v -0.450539 3.949915 0.450539
v -0.450539 2.949915 0.450539
v -0.450539 3.050085 0.450539
v -0.450539 1.949915 0.450539
v -0.450539 2.050085 0.450539
v -0.450539 1.050085 0.450539
v -0.331130 2.000000 0.500000
v -0.316789 2.949915 0.480967
v -0.316789 3.050085 0.480967
v -0.316789 1.949915 0.480967
v -0.316789 2.050085 0.480967
v -0.331130 4.000000 0.500000
v -0.316789 1.050085 0.480967
v -0.450539 1.000000 0.450539
v -0.331130 1.000000 0.500000
v -0.316789 1.000000 0.480967
v -0.500000 2.000000 0.331130
v -0.500000 4.000000 0.331130
v -0.500000 3.949915 0.331130
v -0.500000 3.050085 0.331130
v -0.500000 2.949915 0.331130
v -0.500000 2.050085 0.331130
v -0.500000 1.949915 0.331130
v -0.500000 1.050085 0.331130
v -0.487146 1.050085 0.395754
v -0.487146 2.050085 0.395754
v -0.487146 1.949915 0.395754
v -0.487146 3.050085 0.395754
v -0.487146 2.949915 0.395754
v -0.487146 2.000000 0.395754
v -0.487146 3.949915 0.395754
v -0.480967 2.000000 0.316789
v -0.480967 1.949915 0.316789
v -0.480967 2.050085 0.316789
v -0.480967 2.949915 0.316789
v -0.480967 3.050085 0.316789
v -0.480967 3.949915 0.316789
v -0.480967 1.000000 0.316789
v -0.331130 0.050085 0.500000
v -0.331130 0.949915 0.500000
v -0.395754 1.000000 0.487146
v -0.395754 0.949915 0.487146
v -0.395754 0.050085 0.487146
v -0.450539 0.949915 0.450539
v -0.450539 0.050085 0.450539
v -0.316789 0.949915 0.480967
v -0.316789 0.050085 0.480967
v -0.450539 0.000000 0.450539
v -0.395754 0.000000 0.487146
v -0.331130 0.000000 0.500000
v -0.500000 1.000000 0.331130
v -0.500000 0.949915 0.331130
v -0.500000 0.050085 0.331130
v -0.487146 0.050085 0.395754
v -0.487146 0.949915 0.395754
v -0.487146 1.000000 0.395754
v -0.480967 0.050085 0.316789
v -0.480967 0.949915 0.316789
v -0.500000 0.000000 0.331130
v -0.487146 0.000000 0.395754
v -0.480967 0.000000 0.316789
v 0.331130 4.050085 0.500000
v 0.331130 4.949915 0.500000
v 0.450539 5.000000 0.450539
v 0.395754 5.000000 0.487146
v 0.395754 4.949915 0.487146
v 0.395754 4.050085 0.487146
v 0.450539 4.949915 0.450539
v 0.450539 4.050085 0.450539
v 0.331130 5.000000 0.500000
v 0.316789 4.949915 0.480967
v 0.316789 4.050085 0.480967
v 0.316789 5.000000 0.480967
v 0.450539 4.000000 0.450539
v 0.500000 5.000000 0.331130
v 0.500000 4.949915 0.331130
v 0.500000 4.050085 0.331130
v 0.487146 4.050085 0.395754
v 0.487146 4.949915 0.395754
v 0.487146 5.000000 0.395754
v 0.487146 4.000000 0.395754
v 0.331130 1.050085 0.500000
v 0.331130 2.050085 0.500000
v 0.331130 1.949915 0.500000
v 0.331130 3.050085 0.500000
v 0.331130 2.949915 0.500000
v 0.450539 2.000000 0.450539
v 0.331130 3.949915 0.500000
v 0.395754 3.949915 0.487146
v 0.395754 2.000000 0.487146
v 0.395754 2.949915 0.487146
v 0.395754 3.050085 0.487146
v 0.395754 1.949915 0.487146
v 0.395754 2.050085 0.487146
v 0.395754 4.000000 0.487146
v 0.395754 1.050085 0.487146
v 0.450539 3.949915 0.450539
v 0.450539 2.949915 0.450539
v 0.450539 3.050085 0.450539
v 0.450539 1.949915 0.450539
v 0.450539 2.050085 0.450539
v 0.450539 1.050085 0.450539
v 0.331130 2.000000 0.500000
v 0.316789 2.949915 0.480967
v 0.316789 3.050085 0.480967
v 0.316789 2.050085 0.480967
v 0.331130 4.000000 0.500000
v 0.316789 1.050085 0.480967
v 0.316789 2.000000 0.480967
v 0.450539 1.000000 0.450539
v 0.331130 1.000000 0.500000
v 0.316789 1.000000 0.480967
v 0.500000 2.000000 0.331130
v 0.500000 4.000000 0.331130
v 0.500000 3.949915 0.331130
v 0.500000 3.050085 0.331130
v 0.500000 2.949915 0.331130
v 0.500000 2.050085 0.331130
v 0.500000 1.949915 0.331130
v 0.500000 1.050085 0.331130
v 0.487146 1.050085 0.395754
v 0.487146 2.050085 0.395754
v 0.487146 1.949915 0.395754
v 0.487146 3.050085 0.395754
v 0.487146 2.949915 0.395754
v 0.487146 2.000000 0.395754
v 0.487146 3.949915 0.395754
v 0.480967 1.050085 0.316789
v 0.480967 2.050085 0.316789
v 0.331130 0.050085 0.500000
v 0.331130 0.949915 0.500000
v 0.395754 1.000000 0.487146
v 0.395754 0.949915 0.487146
v 0.395754 0.050085 0.487146
v 0.450539 0.949915 0.450539
v 0.450539 0.050085 0.450539
v 0.316789 0.949915 0.480967
v 0.316789 0.050085 0.480967
v 0.450539 0.000000 0.450539
v 0.395754 0.000000 0.487146
v 0.331130 0.000000 0.500000
v 0.500000 1.000000 0.331130
v 0.500000 0.949915 0.331130
v 0.500000 0.050085 0.331130
v 0.487146 0.050085 0.395754
v 0.487146 0.949915 0.395754
v 0.487146 1.000000 0.395754
v 0.500000 0.000000 0.331130
v 0.487146 0.000000 0.395754
v -0.331130 4.050085 -0.500000
v -0.331130 4.949915 -0.500000
v -0.450539 5.000000 -0.450539
v -0.395754 5.000000 -0.487146
v -0.395754 4.949915 -0.487146
v -0.395754 4.050085 -0.487146
v -0.450539 4.949915 -0.450539
v -0.450539 4.050085 -0.450539
v -0.331130 5.000000 -0.500000
v -0.316789 5.000000 -0.480967
v -0.450539 4.000000 -0.450539
v -0.316789 4.000000 -0.480967
v -0.500000 5.000000 -0.331130
v -0.500000 4.949915 -0.331130
v -0.500000 4.050085 -0.331130
v -0.487146 4.050085 -0.395754
v -0.487146 4.949915 -0.395754
v -0.487146 5.000000 -0.395754
v -0.480967 5.000000 -0.316789
v -0.480967 4.050085 -0.316789
v -0.480967 4.949915 -0.316789
v -0.487146 4.000000 -0.395754
v -0.331130 1.050085 -0.500000
v -0.331130 2.050085 -0.500000
v -0.331130 1.949915 -0.500000
v -0.331130 3.050085 -0.500000
v -0.331130 2.949915 -0.500000
v -0.450539 2.000000 -0.450539
v -0.331130 3.949915 -0.500000
v -0.395754 3.949915 -0.487146
v -0.395754 2.000000 -0.487146
v -0.395754 2.949915 -0.487146
v -0.395754 3.050085 -0.487146
v -0.395754 1.949915 -0.487146
v -0.395754 2.050085 -0.487146
v -0.395754 4.000000 -0.487146
v -0.395754 1.050085 -0.487146
v -0.450539 3.949915 -0.450539
v -0.450539 2.949915 -0.450539
v -0.450539 3.050085 -0.450539
v -0.450539 1.949915 -0.450539
v -0.450539 2.050085 -0.450539
v -0.450539 1.050085 -0.450539
v -0.316789 3.949915 -0.480967
v -0.331130 2.000000 -0.500000
v -0.331130 4.000000 -0.500000
v -0.316789 1.050085 -0.480967
v -0.450539 1.000000 -0.450539
v -0.331130 1.000000 -0.500000
v -0.500000 2.000000 -0.331130
v -0.500000 4.000000 -0.331130
v -0.500000 3.949915 -0.331130
v -0.500000 3.050085 -0.331130
v -0.500000 2.949915 -0.331130
v -0.500000 2.050085 -0.331130
v -0.500000 1.949915 -0.331130
v -0.500000 1.050085 -0.331130
v -0.487146 1.050085 -0.395754
v -0.487146 2.050085 -0.395754
v -0.487146 1.949915 -0.395754
v -0.487146 3.050085 -0.395754
v -0.487146 2.949915 -0.395754
v -0.487146 2.000000 -0.395754
v -0.487146 3.949915 -0.395754
v -0.480967 2.000000 -0.316789
v -0.480967 1.050085 -0.316789
v -0.480967 1.949915 -0.316789
v -0.480967 2.050085 -0.316789
v -0.480967 2.949915 -0.316789
v -0.480967 3.050085 -0.316789
v -0.480967 3.949915 -0.316789
v -0.480967 1.000000 -0.316789
v -0.331130 0.050085 -0.500000
v -0.331130 0.949915 -0.500000
v -0.395754 1.000000 -0.487146
v -0.395754 0.949915 -0.487146
v -0.395754 0.050085 -0.487146
v -0.450539 0.949915 -0.450539
v -0.450539 0.050085 -0.450539
v -0.450539 0.000000 -0.450539
v -0.395754 0.000000 -0.487146
v -0.331130 0.000000 -0.500000
v -0.500000 1.000000 -0.331130
v -0.500000 0.949915 -0.331130
v -0.500000 0.050085 -0.331130
v -0.487146 0.050085 -0.395754
v -0.487146 0.949915 -0.395754
v -0.487146 1.000000 -0.395754
v -0.480967 0.050085 -0.316789
v -0.480967 0.949915 -0.316789
v -0.500000 0.000000 -0.331130
v -0.487146 0.000000 -0.395754
v -0.480967 0.000000 -0.316789
v 0.331130 4.050085 -0.500000
v 0.331130 4.949915 -0.500000
v 0.450539 5.000000 -0.450539
v 0.395754 5.000000 -0.487146
v 0.395754 4.949915 -0.487146
v 0.395754 4.050085 -0.487146
v 0.450539 4.949915 -0.450539
v 0.450539 4.050085 -0.450539
v 0.331130 5.000000 -0.500000
v 0.316789 4.949915 -0.480967
v 0.450539 4.000000 -0.450539
v 0.500000 5.000000 -0.331130
v 0.500000 4.949915 -0.331130
v 0.500000 4.050085 -0.331130
v 0.487146 4.050085 -0.395754
v 0.487146 4.949915 -0.395754
v 0.487146 5.000000 -0.395754
v 0.487146 4.000000 -0.395754
v 0.331130 1.050085 -0.500000
v 0.331130 2.050085 -0.500000
v 0.331130 1.949915 -0.500000
v 0.331130 3.050085 -0.500000
v 0.331130 2.949915 -0.500000
v 0.450539 2.000000 -0.450539
v 0.331130 3.949915 -0.500000
v 0.395754 3.949915 -0.487146
v 0.395754 2.000000 -0.487146
v 0.395754 2.949915 -0.487146
v 0.395754 3.050085 -0.487146
v 0.395754 1.949915 -0.487146
v 0.395754 2.050085 -0.487146
v 0.395754 4.000000 -0.487146
v 0.395754 1.050085 -0.487146
v 0.450539 3.949915 -0.450539
v 0.450539 2.949915 -0.450539
v 0.450539 3.050085 -0.450539
v 0.450539 1.949915 -0.450539
v 0.450539 2.050085 -0.450539
v 0.450539 1.050085 -0.450539
v 0.331130 2.000000 -0.500000
v 0.316789 2.050085 -0.480967
v 0.331130 4.000000 -0.500000
v 0.316789 1.050085 -0.480967
v 0.450539 1.000000 -0.450539
v 0.331130 1.000000 -0.500000
v 0.500000 2.000000 -0.331130
v 0.500000 4.000000 -0.331130
v 0.500000 3.949915 -0.331130
v 0.500000 3.050085 -0.331130
v 0.500000 2.949915 -0.331130
v 0.500000 2.050085 -0.331130
v 0.500000 1.949915 -0.331130
v 0.500000 1.050085 -0.331130
v 0.487146 1.050085 -0.395754
v 0.487146 2.050085 -0.395754
v 0.487146 1.949915 -0.395754
v 0.487146 3.050085 -0.395754
v 0.487146 2.949915 -0.395754
v 0.487146 2.000000 -0.395754
v 0.487146 3.949915 -0.395754
v 0.480967 1.050085 -0.316789
v 0.331130 0.050085 -0.500000
v 0.331130 0.949915 -0.500000
v 0.395754 1.000000 -0.487146
v 0.395754 0.949915 -0.487146
v 0.395754 0.050085 -0.487146
v 0.450539 0.949915 -0.450539
v 0.450539 0.050085 -0.450539
v 0.450539 0.000000 -0.450539
v 0.395754 0.000000 -0.487146
v 0.331130 0.000000 -0.500000
v 0.500000 1.000000 -0.331130
v 0.500000 0.949915 -0.331130
v 0.500000 0.050085 -0.331130
v 0.487146 0.050085 -0.395754
v 0.487146 0.949915 -0.395754
v 0.487146 1.000000 -0.395754
v 0.500000 0.000000 -0.331130
v 0.487146 0.000000 -0.395754
v 0.480967 0.000000 -0.316789
v 0.316789 4.000000 0.480967
v -0.316789 3.949915 0.480967
v 0.316789 1.949915 0.480967
v 0.316789 3.949915 0.480967
v -0.316789 2.000000 0.480967
v -0.316789 0.000000 0.480967
v 0.316789 0.000000 0.480967
v 0.480967 4.050085 -0.316789
v 0.480967 4.050085 0.316789
v 0.480967 4.000000 0.316789
v 0.480967 4.000000 -0.316789
v 0.480967 2.000000 0.316789
v 0.480967 3.949915 -0.316789
v 0.480967 2.949915 -0.316789
v 0.480967 3.050085 -0.316789
v 0.480967 1.949915 -0.316789
v 0.480967 2.050085 -0.316789
v 0.480967 1.949915 0.316789
v 0.480967 2.949915 0.316789
v 0.480967 3.050085 0.316789
v 0.480967 3.949915 0.316789
v 0.480967 2.000000 -0.316789
v 0.480967 1.000000 -0.316789
v 0.480967 1.000000 0.316789
v 0.480967 0.949915 -0.316789
v 0.480967 0.949915 0.316789
v 0.480967 0.050085 -0.316789
v 0.480967 0.050085 0.316789
v 0.480967 0.000000 0.316789
v 0.480967 5.000000 -0.316789
v 0.480967 5.000000 0.316789
v 0.480967 4.949915 -0.316789
v 0.480967 4.949915 0.316789
v -0.480967 4.000000 -0.316789
v -0.480967 1.050085 0.316789
v 0.316789 4.050085 -0.480967
v -0.316789 4.050085 -0.480967
v 0.316789 4.000000 -0.480967
v -0.316789 2.000000 -0.480967
v 0.316789 3.949915 -0.480967
v 0.316789 2.949915 -0.480967
v 0.316789 3.050085 -0.480967
v 0.316789 1.949915 -0.480967
v -0.316789 1.949915 -0.480967
v -0.316789 2.050085 -0.480967
v -0.316789 2.949915 -0.480967
v -0.316789 3.050085 -0.480967
v 0.316789 2.000000 -0.480967
v 0.316789 1.000000 -0.480967
v -0.316789 1.000000 -0.480967
v 0.316789 0.949915 -0.480967
v -0.316789 0.949915 -0.480967
v 0.316789 0.050085 -0.480967
v -0.316789 0.050085 -0.480967
v 0.316789 0.000000 -0.480967
v -0.316789 0.000000 -0.480967
v 0.316789 5.000000 -0.480967
v -0.316789 4.949915 -0.480967
vt 1.582966 0.762019
vt 2.212107 0.762019
vt 2.212107 0.802747
vt 1.582966 0.802746
vt 2.212107 0.843475
vt 1.582966 0.843475
vt 1.582966 0.747288
vt 2.212107 0.747288
vt 2.247125 0.747288
vt 2.247125 0.762019
vt 2.247125 0.802747
vt 2.247125 0.843475
vt 1.547948 0.762019
vt 1.547948 0.747288
vt 1.547948 0.802746
vt 1.547948 0.843475
vt 2.212107 0.884203
vt 1.582966 0.884203
vt 1.582966 0.924931
vt 2.212107 0.924931
vt 2.212107 0.939661
vt 1.582966 0.939661
vt 1.547947 0.884203
vt 2.247125 0.884203
vt 1.547948 0.924931
vt 2.247125 0.924931
vt 2.247125 0.939661
vt 1.547948 0.939661
vt 0.883789 0.802746
vt 1.512930 0.802746
vt 1.512930 0.843475
vt 0.883789 0.843475
vt -0.514566 0.762018
vt 0.114575 0.762018
vt 0.114575 0.802746
vt -0.514566 0.802746
vt 0.184611 0.762018
vt 0.813753 0.762018
vt 0.813753 0.802746
vt 0.184611 0.802746
vt 0.883789 0.762018
vt 1.512930 0.762019
vt 0.114575 0.843474
vt -0.514566 0.843474
vt 0.813753 0.843474
vt 0.184611 0.843474
vt -0.514566 0.747288
vt 0.114575 0.747288
vt 0.184611 0.747288
vt 0.813753 0.747288
vt 0.883789 0.747288
vt 1.512930 0.747288
vt 0.149593 0.747288
vt 0.149593 0.762018
vt 0.149593 0.802746
vt 0.149593 0.843474
vt -0.549584 0.762018
vt -0.549584 0.747288
vt -0.549584 0.802746
vt -0.549584 0.843474
vt 1.512930 0.924931
vt 0.883789 0.924931
vt 0.883789 0.884202
vt 1.512930 0.884203
vt 0.114575 0.884202
vt -0.514566 0.884202
vt 0.813753 0.884202
vt 0.184611 0.884202
vt 1.512930 0.939661
vt 0.883789 0.939661
vt 0.184611 0.924930
vt 0.813753 0.924931
vt 0.813753 0.939661
vt 0.184611 0.939661
vt -0.514566 0.924930
vt 0.114575 0.924930
vt 0.114575 0.939661
vt -0.514566 0.939661
vt 0.149593 0.884202
vt -0.549584 0.884202
vt 0.149593 0.924930
vt -0.549584 0.924930
vt 0.149593 0.939661
vt -0.549584 0.939661
vt -1.213743 0.762018
vt -0.584602 0.762018
vt -0.584602 0.802746
vt -1.213743 0.802746
vt -0.584602 0.843474
vt -1.213743 0.843474
vt -1.213743 0.747288
vt -0.584602 0.747288
vt -1.248761 0.762018
vt -1.248761 0.747288
vt -1.248761 0.802746
vt -1.248761 0.843474
vt -0.584602 0.884202
vt -1.213743 0.884202
vt -1.213743 0.924930
vt -0.584602 0.924930
vt -0.584602 0.939661
vt -1.213743 0.939661
vt -1.248761 0.884202
vt -1.248761 0.924930
vt -1.248761 0.939661
vt 1.582966 0.762019
vt 1.582966 0.802746
vt 2.212107 0.802747
vt 2.212107 0.762019
vt 1.582966 0.843475
vt 2.212107 0.843475
vt 1.582966 0.747288
vt 2.212107 0.747288
vt 2.247125 0.747288
vt 2.247125 0.762019
vt 2.247125 0.802747
vt 2.247125 0.843475
vt 1.547948 0.747288
vt 1.547948 0.762019
vt 1.547948 0.802746
vt 1.547948 0.843475
vt 2.212107 0.884203
vt 1.582966 0.884203
vt 1.582966 0.924931
vt 1.582966 0.939661
vt 2.212107 0.939661
vt 2.212107 0.924931
vt 1.547947 0.884203
vt 2.247125 0.884203
vt 1.547948 0.924931
vt 2.247125 0.924931
vt 2.247125 0.939661
vt 1.547948 0.939661
vt 0.883789 0.802746
vt 0.883789 0.843475
vt 1.512930 0.843475
vt 1.512930 0.802746
vt -0.514566 0.762018
vt -0.514566 0.802746
vt 0.114575 0.802746
vt 0.114575 0.762018
vt 0.184611 0.762018
vt 0.184611 0.802746
vt 0.813753 0.802746
vt 0.813753 0.762018
vt 0.883789 0.762018
vt 1.512930 0.762019
vt -0.514566 0.843474
vt 0.114575 0.843474
vt 0.184611 0.843474
vt 0.813753 0.843474
vt -0.514566 0.747288
vt 0.114575 0.747288
vt 0.184611 0.747288
vt 0.813753 0.747288
vt 0.883789 0.747288
vt 1.512930 0.747288
vt 0.149593 0.747288
vt 0.149593 0.762018
vt 0.149593 0.802746
vt 0.149593 0.843474
vt -0.549584 0.747288
vt -0.549584 0.762018
vt -0.549584 0.802746
vt -0.549584 0.843474
vt 1.512930 0.924931
vt 1.512930 0.884203
vt 0.883789 0.884202
vt 0.883789 0.924931
vt 0.114575 0.884202
vt -0.514566 0.884202
vt 0.813753 0.884202
vt 0.184611 0.884202
vt 0.883789 0.939661
vt 1.512930 0.939661
vt 0.184611 0.924930
vt 0.184611 0.939661
vt 0.813753 0.939661
vt 0.813753 0.924931
vt -0.514566 0.924930
vt -0.514566 0.939661
vt 0.114575 0.939661
vt 0.114575 0.924930
vt 0.149593 0.884202
vt -0.549584 0.884202
vt 0.149593 0.924930
vt -0.549584 0.924930
vt 0.149593 0.939661
vt -0.549584 0.939661
vt -1.213743 0.762018
vt -1.213743 0.802746
vt -0.584602 0.802746
vt -0.584602 0.762018
vt -1.213743 0.843474
vt -0.584602 0.843474
vt -1.213743 0.747288
vt -0.584602 0.747288
vt -1.248761 0.747288
vt -1.248761 0.762018
vt -1.248761 0.802746
vt -1.248761 0.843474
vt -0.584602 0.884202
vt -1.213743 0.884202
vt -1.213743 0.924930
vt -1.213743 0.939661
vt -0.584602 0.939661
vt -0.584602 0.924930
vt -1.248761 0.884202
vt -1.248761 0.924930
vt -1.248761 0.939661
vt 1.582966 0.762019
vt 1.582966 0.802746
vt 2.212107 0.802747
vt 2.212107 0.762019
vt 1.582966 0.843475
vt 2.212107 0.843475
vt 1.582966 0.747288
vt 2.212107 0.747288
vt 2.247125 0.747288
vt 2.247125 0.762019
vt 2.247125 0.802747
vt 2.247125 0.843475
vt 1.547948 0.747288
vt 1.547948 0.762019
vt 1.547948 0.802746
vt 1.547948 0.843475
vt 2.212107 0.884203
vt 1.582966 0.884203
vt 1.582966 0.924931
vt 1.582966 0.939661
vt 2.212107 0.939661
vt 2.212107 0.924931
vt 1.547947 0.884203
vt 2.247125 0.884203
vt 1.547948 0.924931
vt 2.247125 0.924931
vt 2.247125 0.939661
vt 1.547948 0.939661
vt 0.883789 0.802746
vt 0.883789 0.843475
vt 1.512930 0.843475
vt 1.512930 0.802746
vt -0.514566 0.762018
vt -0.514566 0.802746
vt 0.114575 0.802746
vt 0.114575 0.762018
vt 0.184611 0.762018
vt 0.184611 0.802746
vt 0.813753 0.802746
vt 0.813753 0.762018
vt 0.883789 0.762018
vt 1.512930 0.762019
vt -0.514566 0.843474
vt 0.114575 0.843474
vt 0.184611 0.843474
vt 0.813753 0.843474
vt -0.514566 0.747288
vt 0.114575 0.747288
vt 0.184611 0.747288
vt 0.813753 0.747288
vt 0.883789 0.747288
vt 1.512930 0.747288
vt 0.149593 0.747288
vt 0.149593 0.762018
vt 0.149593 0.802746
vt 0.149593 0.843474
vt -0.549584 0.747288
vt -0.549584 0.762018
vt -0.549584 0.802746
vt -0.549584 0.843474
vt 1.512930 0.924931
vt 1.512930 0.884203
vt 0.883789 0.884202
vt 0.883789 0.924931
vt 0.114575 0.884202
vt -0.514566 0.884202
vt 0.813753 0.884202
vt 0.184611 0.884202
vt 0.883789 0.939661
vt 1.512930 0.939661
vt 0.184611 0.924930
vt 0.184611 0.939661
vt 0.813753 0.939661
vt 0.813753 0.924931
vt -0.514566 0.924930
vt -0.514566 0.939661
vt 0.114575 0.939661
vt 0.114575 0.924930
vt 0.149593 0.884202
vt -0.549584 0.884202
vt 0.149593 0.924930
vt -0.549584 0.924930
vt 0.149593 0.939661
vt -0.549584 0.939661
vt -1.213743 0.762018
vt -1.213743 0.802746
vt -0.584602 0.802746
vt -0.584602 0.762018
vt -1.213743 0.843474
vt -0.584602 0.843474
vt -1.213743 0.747288
vt -0.584602 0.747288
vt -1.248761 0.747288
vt -1.248761 0.762018
vt -1.248761 0.802746
vt -1.248761 0.843474
vt -0.584602 0.884202
vt -1.213743 0.884202
vt -1.213743 0.924930
vt -1.213743 0.939661
vt -0.584602 0.939661
vt -0.584602 0.924930
vt -1.248761 0.884202
vt -1.248761 0.924930
vt -1.248761 0.939661
vt 1.582966 0.762019
vt 2.212107 0.762019
vt 2.212107 0.802747
vt 1.582966 0.802746
vt 2.212107 0.843475
vt 1.582966 0.843475
vt 1.582966 0.747288
vt 2.212107 0.747288
vt 2.247125 0.747288
vt 2.247125 0.762019
vt 2.247125 0.802747
vt 2.247125 0.843475
vt 1.547948 0.762019
vt 1.547948 0.747288
vt 1.547948 0.802746
vt 1.547948 0.843475
vt 2.212107 0.884203
vt 1.582966 0.884203
vt 1.582966 0.924931
vt 2.212107 0.924931
vt 2.212107 0.939661
vt 1.582966 0.939661
vt 1.547947 0.884203
vt 2.247125 0.884203
vt 1.547948 0.924931
vt 2.247125 0.924931
vt 2.247125 0.939661
vt 1.547948 0.939661
vt 0.883789 0.802746
vt 1.512930 0.802746
vt 1.512930 0.843475
vt 0.883789 0.843475
vt -0.514566 0.762018
vt 0.114575 0.762018
vt 0.114575 0.802746
vt -0.514566 0.802746
vt 0.184611 0.762018
vt 0.813753 0.762018
vt 0.813753 0.802746
vt 0.184611 0.802746
vt 0.883789 0.762018
vt 1.512930 0.762019
vt 0.114575 0.843474
vt -0.514566 0.843474
vt 0.813753 0.843474
vt 0.184611 0.843474
vt -0.514566 0.747288
vt 0.114575 0.747288
vt 0.184611 0.747288
vt 0.813753 0.747288
vt 0.883789 0.747288
vt 1.512930 0.747288
vt 0.149593 0.747288
vt 0.149593 0.762018
vt 0.149593 0.802746
vt 0.149593 0.843474
vt -0.549584 0.762018
vt -0.549584 0.747288
vt -0.549584 0.802746
vt -0.549584 0.843474
vt 1.512930 0.924931
vt 0.883789 0.924931
vt 0.883789 0.884202
vt 1.512930 0.884203
vt 0.114575 0.884202
vt -0.514566 0.884202
vt 0.813753 0.884202
vt 0.184611 0.884202
vt 1.512930 0.939661
vt 0.883789 0.939661
vt 0.184611 0.924930
vt 0.813753 0.924931
vt 0.813753 0.939661
vt 0.184611 0.939661
vt -0.514566 0.924930
vt 0.114575 0.924930
vt 0.114575 0.939661
vt -0.514566 0.939661
vt 0.149593 0.884202
vt -0.549584 0.884202
vt 0.149593 0.924930
vt -0.549584 0.924930
vt 0.149593 0.939661
vt -0.549584 0.939661
vt -1.213743 0.762018
vt -0.584602 0.762018
vt -0.584602 0.802746
vt -1.213743 0.802746
vt -0.584602 0.843474
vt -1.213743 0.843474
vt -1.213743 0.747288
vt -0.584602 0.747288
vt -1.248761 0.762018
vt -1.248761 0.747288
vt -1.248761 0.802746
vt -1.248761 0.843474
vt -0.584602 0.884202
vt -1.213743 0.884202
vt -1.213743 0.924930
vt -0.584602 0.924930
vt -0.584602 0.939661
vt -1.213743 0.939661
vt -1.248761 0.884202
vt -1.248761 0.924930
vt -1.248761 0.939661
vt 0.315772 0.386590
vt 0.528112 0.386590
vt 0.528112 0.407760
vt 0.315772 0.407760
vt 0.315772 0.365419
vt 0.528112 0.365419
vt 0.528112 0.407760
vt 0.315772 0.407760
vt 0.315772 0.386590
vt 0.528112 0.386590
vt 0.528112 0.407760
vt 0.315772 0.407760
vt 0.315772 0.386589
vt 0.528112 0.386589
vt 0.528112 0.407760
vt 0.315772 0.407760
vt 0.315772 0.365419
vt 0.528112 0.365419
vt 0.315772 0.365419
vt 0.528112 0.365419
vt 0.315772 0.365419
vt 0.528112 0.365419
vt 0.315772 0.386589
vt 0.528112 0.386589
vt 0.528112 0.407760
vt 0.315772 0.407760
vt 0.315772 0.365419
vt 0.528112 0.365419
vt 0.528112 0.386589
vt 0.315772 0.386589
vt 0.315772 0.386590
vt 0.315772 0.407760
vt 0.528112 0.407760
vt 0.528112 0.386590
vt 0.315772 0.365419
vt 0.315772 0.407760
vt 0.528112 0.407760
vt 0.528112 0.365419
vt 0.315772 0.386590
vt 0.315772 0.407760
vt 0.528112 0.407760
vt 0.528112 0.386590
vt 0.315772 0.386589
vt 0.315772 0.407760
vt 0.528112 0.407760
vt 0.528112 0.386589
vt 0.315772 0.365419
vt 0.528112 0.365419
vt 0.315772 0.365419
vt 0.528112 0.365419
vt 0.315772 0.365419
vt 0.528112 0.365419
vt 0.315772 0.386589
vt 0.315772 0.407760
vt 0.528112 0.407760
vt 0.528112 0.386589
vt 0.315772 0.365419
vt 0.315772 0.386589
vt 0.528112 0.386589
vt 0.528112 0.365419
vt 0.315772 0.386590
vt 0.315772 0.407760
vt 0.528112 0.407760
vt 0.528112 0.386590
vt 0.315772 0.365419
vt 0.315772 0.407760
vt 0.528112 0.407760
vt 0.528112 0.365419
vt 0.315772 0.386590
vt 0.315772 0.407760
vt 0.528112 0.407760
vt 0.528112 0.386590
vt 0.315772 0.386589
vt 0.315772 0.407760
vt 0.528112 0.407760
vt 0.528112 0.386589
vt 0.315772 0.365419
vt 0.528112 0.365419
vt 0.315772 0.365419
vt 0.528112 0.365419
vt 0.315772 0.365419
vt 0.528112 0.365419
vt 0.315772 0.386589
vt 0.315772 0.407760
vt 0.528112 0.407760
vt 0.528112 0.386589
vt 0.315772 0.365419
vt 0.315772 0.386589
vt 0.528112 0.386589
vt 0.528112 0.365419
vt 0.315772 0.386590
vt 0.528112 0.386590
vt 0.528112 0.407760
vt 0.315772 0.407760
vt 0.315772 0.365419
vt 0.528112 0.365419
vt 0.528112 0.407760
vt 0.315772 0.407760
vt 0.315772 0.386590
vt 0.528112 0.386590
vt 0.528112 0.407760
vt 0.315772 0.407760
vt 0.315772 0.386589
vt 0.528112 0.386589
vt 0.528112 0.407760
vt 0.315772 0.407760
vt 0.315772 0.365419
vt 0.528112 0.365419
vt 0.315772 0.365419
vt 0.528112 0.365419
vt 0.315772 0.365419
vt 0.528112 0.365419
vt 0.315772 0.386589
vt 0.528112 0.386589
vt 0.528112 0.407760
vt 0.315772 0.407760
vt 0.315772 0.365419
vt 0.528112 0.365419
vt 0.528112 0.386589
vt 0.315772 0.386589
vt 0.175666 0.496262
vt 0.179056 0.500760
vt 0.328788 0.500760
vt 0.332177 0.496262
vt 0.347449 0.499300
vt 0.360397 0.507951
vt 0.369048 0.520899
vt 0.372086 0.536171
vt 0.367588 0.539560
vt 0.367588 0.689292
vt 0.372086 0.692682
vt 0.369048 0.707954
vt 0.360397 0.720901
vt 0.347449 0.729552
vt 0.332177 0.732590
vt 0.328788 0.728092
vt 0.179056 0.728092
vt 0.175666 0.732590
vt 0.160394 0.729552
vt 0.147447 0.720901
vt 0.138796 0.707954
vt 0.135758 0.692682
vt 0.140256 0.689292
vt 0.140256 0.539560
vt 0.135758 0.536171
vt 0.138796 0.520899
vt 0.147447 0.507951
vt 0.160394 0.499300
vt 0.175666 0.496262
vt 0.160394 0.499300
vt 0.147447 0.507951
vt 0.138796 0.520899
vt 0.135758 0.536171
vt 0.140256 0.539560
vt 0.140256 0.689292
vt 0.135758 0.692682
vt 0.138796 0.707954
vt 0.147447 0.720901
vt 0.160394 0.729552
vt 0.175666 0.732590
vt 0.179056 0.728092
vt 0.328788 0.728092
vt 0.332177 0.732590
vt 0.347449 0.729552
vt 0.360397 0.720901
vt 0.369048 0.707954
vt 0.372086 0.692682
vt 0.367588 0.689292
vt 0.367588 0.539560
vt 0.372086 0.536171
vt 0.369048 0.520899
vt 0.360397 0.507951
vt 0.347449 0.499300
vt 0.332177 0.496262
vt 0.328788 0.500760
vt 0.179056 0.500760
vt 0.042554 0.718600
vt 0.042554 0.942724
vt 0.237124 0.942724
vt 0.237124 0.718600
vt 0.042554 0.718599
vt 0.042554 0.942725
vt 0.237124 0.942725
vt 0.237124 0.718599
vt 0.042554 0.718599
vt 0.042554 0.942725
vt 0.237124 0.942725
vt 0.237124 0.718599
vt 0.042557 0.718600
vt 0.042553 0.942724
vt 0.237123 0.942724
vt 0.237123 0.718600
vt 0.042555 0.718599
vt 0.042555 0.942725
vt 0.237125 0.942725
vt 0.237125 0.718599
vt 0.042554 0.718600
vt 0.237124 0.718600
vt 0.237124 0.942724
vt 0.042554 0.942724
vt 0.042554 0.718599
vt 0.237124 0.718599
vt 0.237124 0.942725
vt 0.042554 0.942725
vt 0.042554 0.718599
vt 0.237124 0.718599
vt 0.237124 0.942725
vt 0.042554 0.942725
vt 0.042557 0.718600
vt 0.237123 0.718600
vt 0.237123 0.942724
vt 0.042553 0.942724
vt 0.042555 0.718599
vt 0.237125 0.718599
vt 0.237125 0.942725
vt 0.042555 0.942725
vt 0.042554 0.718600
vt 0.237124 0.718600
vt 0.237124 0.942724
vt 0.042554 0.942724
vt 0.042554 0.718599
vt 0.237124 0.718599
vt 0.237124 0.942725
vt 0.042554 0.942725
vt 0.042554 0.718599
vt 0.237124 0.718599
vt 0.237124 0.942725
vt 0.042554 0.942725
vt 0.042557 0.718600
vt 0.237123 0.718600
vt 0.237123 0.942724
vt 0.042553 0.942724
vt 0.042555 0.718599
vt 0.237125 0.718599
vt 0.237125 0.942725
vt 0.042555 0.942725
vt 0.042554 0.718600
vt 0.042554 0.942724
vt 0.237124 0.942724
vt 0.237124 0.718600
vt 0.042554 0.718599
vt 0.042554 0.942725
vt 0.237124 0.942725
vt 0.237124 0.718599
vt 0.042554 0.718599
vt 0.042554 0.942725
vt 0.237124 0.942725
vt 0.237124 0.718599
vt 0.042557 0.718600
vt 0.042553 0.942724
vt 0.237123 0.942724
vt 0.237123 0.718600
vt 0.042555 0.718599
vt 0.042555 0.942725
vt 0.237125 0.942725
vt 0.237125 0.718599
vn -0.1951 0.0000 0.9808
vn -0.3827 0.0000 0.9239
vn -0.7071 0.0000 0.7071
vn 0.7987 0.0000 0.6018
vn -0.9239 0.0000 0.3827
vn -0.6018 0.0000 -0.7987
vn -0.9808 0.0000 0.1951
vn 0.1951 0.0000 0.9808
vn 0.3827 0.0000 0.9239
vn 0.7071 0.0000 0.7071
vn -0.7987 -0.0000 0.6018
vn 0.9239 0.0000 0.3827
vn 0.6018 0.0000 -0.7987
vn 0.9808 0.0000 0.1951
vn -0.1951 0.0000 -0.9808
vn -0.3827 0.0000 -0.9239
vn -0.7071 0.0000 -0.7071
vn 0.7987 0.0000 -0.6018
vn -0.9239 0.0000 -0.3827
vn -0.6018 -0.0000 0.7987
vn -0.9808 0.0000 -0.1951
vn 0.1951 0.0000 -0.9808
vn 0.3827 0.0000 -0.9239
vn 0.7071 0.0000 -0.7071
vn -0.7987 -0.0000 -0.6018
vn 0.9239 0.0000 -0.3827
vn 0.6018 0.0000 0.7987
vn 0.9808 0.0000 -0.1951
vn 0.0000 -0.0000 1.0000
vn 1.0000 0.0000 0.0000
vn -1.0000 0.0000 -0.0000
vn 0.0000 0.0000 -1.0000
vn 0.0000 1.0000 0.0000
vn 0.0000 -1.0000 0.0000
usemtl MI_Trim_02
s 1
f 1/1/1 2/2/1 5/3/2 6/4/2
f 6/4/2 5/3/2 7/5/3 8/6/3
f 11/7/4 10/8/4 2/2/4 1/1/4
f 12/9/4 9/10/4 2/2/4 10/8/4
f 4/11/2 3/12/3 7/5/3 5/3/2
f 9/10/1 4/11/2 5/3/2 2/2/1
f 11/7/4 1/1/4 52/13/4 14/14/4
f 1/1/1 6/4/2 39/15/2 52/13/1
f 6/4/2 8/6/3 13/16/3 39/15/2
f 19/17/5 18/18/5 8/6/3 7/5/3
f 17/19/6 16/20/6 23/21/6 22/22/6
f 16/20/7 17/19/7 18/18/5 19/17/5
f 24/23/5 13/16/3 8/6/3 18/18/5
f 19/17/5 7/5/3 3/12/3 20/24/5
f 58/25/7 24/23/5 18/18/5 17/19/7
f 16/20/7 19/17/5 20/24/5 15/26/7
f 15/26/6 21/27/6 23/21/6 16/20/6
f 17/19/6 22/22/6 25/28/6 58/25/6
f 36/29/2 33/30/2 41/31/3 43/32/3
f 26/33/1 28/34/1 37/35/2 40/36/2
f 27/37/1 30/38/1 35/39/2 38/40/2
f 29/41/1 32/42/1 33/30/2 36/29/2
f 40/36/2 37/35/2 44/43/3 46/44/3
f 38/40/2 35/39/2 42/45/3 45/46/3
f 53/47/4 50/48/4 28/34/4 26/33/4
f 51/49/4 48/50/4 30/38/4 27/37/4
f 49/51/4 364/52/4 32/42/4 29/41/4
f 367/53/4 47/54/4 28/34/4 50/48/4
f 49/51/4 29/41/4 30/38/4 48/50/4
f 14/14/4 52/13/4 32/42/4 364/52/4
f 51/49/4 27/37/4 47/54/4 367/53/4
f 34/55/2 31/56/3 44/43/3 37/35/2
f 36/29/2 43/32/3 42/45/3 35/39/2
f 39/15/2 13/16/3 41/31/3 33/30/2
f 47/54/1 34/55/2 37/35/2 28/34/1
f 29/41/1 36/29/2 35/39/2 30/38/1
f 52/13/1 39/15/2 33/30/2 32/42/1
f 53/47/4 26/33/4 55/57/4 56/58/4
f 26/33/1 40/36/2 81/59/2 55/57/1
f 40/36/2 46/44/3 54/60/3 81/59/2
f 38/40/2 45/46/3 31/56/3 34/55/2
f 27/37/1 38/40/2 34/55/2 47/54/1
f 59/61/7 60/62/7 68/63/5 71/64/5
f 67/65/5 65/66/5 46/44/3 44/43/3
f 71/64/5 68/63/5 43/32/3 41/31/3
f 69/67/5 66/68/5 45/46/3 42/45/3
f 60/62/6 59/61/6 77/69/6 76/70/6
f 62/71/6 61/72/6 75/73/6 74/74/6
f 64/75/6 63/76/6 73/77/6 397/78/6
f 63/76/7 64/75/7 65/66/5 67/65/5
f 61/72/7 62/71/7 66/68/5 69/67/5
f 69/67/5 42/45/3 43/32/3 68/63/5
f 70/79/5 31/56/3 45/46/3 66/68/5
f 96/80/5 54/60/3 46/44/3 65/66/5
f 67/65/5 44/43/3 31/56/3 70/79/5
f 61/72/7 69/67/5 68/63/5 60/62/7
f 57/81/7 70/79/5 66/68/5 62/71/7
f 91/82/7 96/80/5 65/66/5 64/75/7
f 63/76/7 67/65/5 70/79/5 57/81/7
f 71/64/5 41/31/3 13/16/3 24/23/5
f 57/81/6 72/83/6 73/77/6 63/76/6
f 60/62/6 76/70/6 75/73/6 61/72/6
f 58/25/6 25/28/6 77/69/6 59/61/6
f 59/61/7 71/64/5 24/23/5 58/25/7
f 64/75/6 397/78/6 78/84/6 91/82/6
f 62/71/6 74/74/6 72/83/6 57/81/6
f 79/85/1 80/86/1 82/87/2 83/88/2
f 83/88/2 82/87/2 84/89/3 85/90/3
f 87/91/4 86/92/4 80/86/4 79/85/4
f 56/58/4 55/57/4 80/86/4 86/92/4
f 81/59/2 54/60/3 84/89/3 82/87/2
f 55/57/1 81/59/2 82/87/2 80/86/1
f 87/91/4 79/85/4 90/93/4 368/94/4
f 79/85/1 83/88/2 89/95/2 90/93/1
f 83/88/2 85/90/3 88/96/3 89/95/2
f 95/97/5 94/98/5 85/90/3 84/89/3
f 93/99/6 92/100/6 98/101/6 97/102/6
f 92/100/7 93/99/7 94/98/5 95/97/5
f 100/103/5 88/96/3 85/90/3 94/98/5
f 95/97/5 84/89/3 54/60/3 96/80/5
f 99/104/7 100/103/5 94/98/5 93/99/7
f 92/100/7 95/97/5 96/80/5 91/82/7
f 91/82/6 78/84/6 98/101/6 92/100/6
f 93/99/6 97/102/6 101/105/6 99/104/6
f 102/106/8 107/107/9 106/108/9 103/109/8
f 107/107/9 109/110/10 108/111/10 106/108/9
f 112/112/11 102/106/11 103/109/11 111/113/11
f 113/114/11 111/113/11 103/109/11 110/115/11
f 105/116/9 106/108/9 108/111/10 104/117/10
f 110/115/8 103/109/8 106/108/9 105/116/9
f 112/112/11 363/118/11 147/119/11 102/106/11
f 102/106/8 147/119/8 135/120/9 107/107/9
f 107/107/9 135/120/9 114/121/10 109/110/10
f 119/122/12 108/111/10 109/110/10 118/123/12
f 117/124/13 371/125/13 395/126/13 116/127/13
f 116/127/14 119/122/12 118/123/12 117/124/14
f 121/128/12 118/123/12 109/110/10 114/121/10
f 119/122/12 120/129/12 104/117/10 108/111/10
f 154/130/14 117/124/14 118/123/12 121/128/12
f 116/127/14 115/131/14 120/129/12 119/122/12
f 115/131/13 116/127/13 395/126/13 393/132/13
f 117/124/13 154/130/13 372/133/13 371/125/13
f 132/134/9 139/135/10 137/136/10 129/137/9
f 122/138/8 136/139/9 133/140/9 124/141/8
f 123/142/8 134/143/9 131/144/9 126/145/8
f 125/146/8 132/134/9 129/137/9 128/147/8
f 136/139/9 142/148/10 140/149/10 133/140/9
f 134/143/9 141/150/10 138/151/10 131/144/9
f 148/152/11 122/138/11 124/141/11 365/153/11
f 146/154/11 123/142/11 126/145/11 144/155/11
f 145/156/11 125/146/11 128/147/11 366/157/11
f 149/158/11 365/153/11 124/141/11 143/159/11
f 145/156/11 144/155/11 126/145/11 125/146/11
f 363/118/11 366/157/11 128/147/11 147/119/11
f 146/154/11 149/158/11 143/159/11 123/142/11
f 130/160/9 133/140/9 140/149/10 127/161/10
f 132/134/9 131/144/9 138/151/10 139/135/10
f 135/120/9 129/137/9 137/136/10 114/121/10
f 143/159/8 124/141/8 133/140/9 130/160/9
f 125/146/8 126/145/8 131/144/9 132/134/9
f 147/119/8 128/147/8 129/137/9 135/120/9
f 148/152/11 152/162/11 151/163/11 122/138/11
f 122/138/8 151/163/8 172/164/9 136/139/9
f 136/139/9 172/164/9 150/165/10 142/148/10
f 134/143/9 130/160/9 127/161/10 141/150/10
f 123/142/8 143/159/8 130/160/9 134/143/9
f 155/166/14 167/167/12 164/168/12 156/169/14
f 163/170/12 140/149/10 142/148/10 161/171/12
f 167/167/12 137/136/10 139/135/10 164/168/12
f 165/172/12 138/151/10 141/150/10 162/173/12
f 156/169/13 382/174/13 383/175/13 155/166/13
f 158/176/13 169/177/13 381/178/13 157/179/13
f 160/180/13 168/181/13 380/182/13 159/183/13
f 159/183/14 163/170/12 161/171/12 160/180/14
f 157/179/14 165/172/12 162/173/12 158/176/14
f 165/172/12 164/168/12 139/135/10 138/151/10
f 166/184/12 162/173/12 141/150/10 127/161/10
f 187/185/12 161/171/12 142/148/10 150/165/10
f 163/170/12 166/184/12 127/161/10 140/149/10
f 157/179/14 156/169/14 164/168/12 165/172/12
f 153/186/14 158/176/14 162/173/12 166/184/12
f 182/187/14 160/180/14 161/171/12 187/185/12
f 159/183/14 153/186/14 166/184/12 163/170/12
f 167/167/12 121/128/12 114/121/10 137/136/10
f 153/186/13 159/183/13 380/182/13 374/188/13
f 156/169/13 157/179/13 381/178/13 382/174/13
f 154/130/13 155/166/13 383/175/13 372/133/13
f 155/166/14 154/130/14 121/128/12 167/167/12
f 160/180/13 182/187/13 386/189/13 168/181/13
f 158/176/13 153/186/13 374/188/13 169/177/13
f 170/190/8 174/191/9 173/192/9 171/193/8
f 174/191/9 176/194/10 175/195/10 173/192/9
f 178/196/11 170/190/11 171/193/11 177/197/11
f 152/162/11 177/197/11 171/193/11 151/163/11
f 172/164/9 173/192/9 175/195/10 150/165/10
f 151/163/8 171/193/8 173/192/9 172/164/9
f 178/196/11 369/198/11 181/199/11 170/190/11
f 170/190/8 181/199/8 180/200/9 174/191/9
f 174/191/9 180/200/9 179/201/10 176/194/10
f 186/202/12 175/195/10 176/194/10 185/203/12
f 184/204/13 390/205/13 388/206/13 183/207/13
f 183/207/14 186/202/12 185/203/12 184/204/14
f 189/208/12 185/203/12 176/194/10 179/201/10
f 186/202/12 187/185/12 150/165/10 175/195/10
f 188/209/14 184/204/14 185/203/12 189/208/12
f 183/207/14 182/187/14 187/185/12 186/202/12
f 182/187/13 183/207/13 388/206/13 386/189/13
f 184/204/13 188/209/13 391/210/13 390/205/13
f 190/211/15 195/212/16 194/213/16 191/214/15
f 195/212/16 197/215/17 196/216/17 194/213/16
f 399/217/18 190/211/18 191/214/18 420/218/18
f 199/219/18 420/218/18 191/214/18 198/220/18
f 193/221/16 194/213/16 196/216/17 192/222/17
f 198/220/15 191/214/15 194/213/16 193/221/16
f 399/217/18 201/223/18 235/224/18 190/211/18
f 190/211/15 235/224/15 225/225/16 195/212/16
f 195/212/16 225/225/16 200/226/17 197/215/17
f 206/227/19 196/216/17 197/215/17 205/228/19
f 204/229/20 209/230/20 210/231/20 203/232/20
f 203/232/21 206/227/19 205/228/19 204/229/21
f 211/233/19 205/228/19 197/215/17 200/226/17
f 206/227/19 207/234/19 192/222/17 196/216/17
f 240/235/21 204/229/21 205/228/19 211/233/19
f 203/232/21 202/236/21 207/234/19 206/227/19
f 202/236/20 203/232/20 210/231/20 208/237/20
f 204/229/20 240/235/20 396/238/20 209/230/20
f 222/239/16 229/240/17 227/241/17 219/242/16
f 212/243/15 226/244/16 223/245/16 214/246/15
f 213/247/15 224/248/16 221/249/16 216/250/15
f 215/251/15 222/239/16 219/242/16 218/252/15
f 226/244/16 232/253/17 230/254/17 223/245/16
f 224/248/16 231/255/17 228/256/17 221/249/16
f 236/257/18 212/243/18 214/246/18 406/258/18
f 407/259/18 213/247/18 216/250/18 408/260/18
f 409/261/18 215/251/18 218/252/18 233/262/18
f 401/263/18 406/258/18 214/246/18 234/264/18
f 409/261/18 408/260/18 216/250/18 215/251/18
f 201/223/18 233/262/18 218/252/18 235/224/18
f 407/259/18 401/263/18 234/264/18 213/247/18
f 220/265/16 223/245/16 230/254/17 217/266/17
f 222/239/16 221/249/16 228/256/17 229/240/17
f 225/225/16 219/242/16 227/241/17 200/226/17
f 234/264/15 214/246/15 223/245/16 220/265/16
f 215/251/15 216/250/15 221/249/16 222/239/16
f 235/224/15 218/252/15 219/242/16 225/225/16
f 236/257/18 412/267/18 238/268/18 212/243/18
f 212/243/15 238/268/15 264/269/16 226/244/16
f 226/244/16 264/269/16 237/270/17 232/253/17
f 224/248/16 220/265/16 217/266/17 231/255/17
f 213/247/15 234/264/15 220/265/16 224/248/16
f 241/271/21 253/272/19 250/273/19 242/274/21
f 249/275/19 230/254/17 232/253/17 247/276/19
f 253/272/19 227/241/17 229/240/17 250/273/19
f 251/277/19 228/256/17 231/255/17 248/278/19
f 242/274/20 259/279/20 260/280/20 241/271/20
f 244/281/20 257/282/20 258/283/20 243/284/20
f 246/285/20 255/286/20 256/287/20 245/288/20
f 245/288/21 249/275/19 247/276/19 246/285/21
f 243/284/21 251/277/19 248/278/19 244/281/21
f 251/277/19 250/273/19 229/240/17 228/256/17
f 252/289/19 248/278/19 231/255/17 217/266/17
f 277/290/19 247/276/19 232/253/17 237/270/17
f 249/275/19 252/289/19 217/266/17 230/254/17
f 243/284/21 242/274/21 250/273/19 251/277/19
f 239/291/21 244/281/21 248/278/19 252/289/19
f 272/292/21 246/285/21 247/276/19 277/290/19
f 245/288/21 239/291/21 252/289/19 249/275/19
f 253/272/19 211/233/19 200/226/17 227/241/17
f 239/291/20 245/288/20 256/287/20 254/293/20
f 242/274/20 243/284/20 258/283/20 259/279/20
f 240/235/20 241/271/20 260/280/20 396/238/20
f 241/271/21 240/235/21 211/233/19 253/272/19
f 246/285/20 272/292/20 261/294/20 255/286/20
f 244/281/20 239/291/20 254/293/20 257/282/20
f 262/295/15 266/296/16 265/297/16 263/298/15
f 266/296/16 268/299/17 267/300/17 265/297/16
f 416/301/18 262/295/18 263/298/18 414/302/18
f 412/267/18 414/302/18 263/298/18 238/268/18
f 264/269/16 265/297/16 267/300/17 237/270/17
f 238/268/15 263/298/15 265/297/16 264/269/16
f 416/301/18 418/303/18 271/304/18 262/295/18
f 262/295/15 271/304/15 270/305/16 266/296/16
f 266/296/16 270/305/16 269/306/17 268/299/17
f 276/307/19 267/300/17 268/299/17 275/308/19
f 274/309/20 278/310/20 279/311/20 273/312/20
f 273/312/21 276/307/19 275/308/19 274/309/21
f 281/313/19 275/308/19 268/299/17 269/306/17
f 276/307/19 277/290/19 237/270/17 267/300/17
f 280/314/21 274/309/21 275/308/19 281/313/19
f 273/312/21 272/292/21 277/290/19 276/307/19
f 272/292/20 273/312/20 279/311/20 261/294/20
f 274/309/20 280/314/20 282/315/20 278/310/20
f 283/316/22 284/317/22 287/318/23 288/319/23
f 288/319/23 287/318/23 289/320/24 290/321/24
f 398/322/25 292/323/25 284/317/25 283/316/25
f 419/324/25 291/325/25 284/317/25 292/323/25
f 286/326/23 285/327/24 289/320/24 287/318/23
f 291/325/22 286/326/23 287/318/23 284/317/22
f 398/322/25 283/316/25 324/328/25 400/329/25
f 283/316/22 288/319/23 314/330/23 324/328/22
f 288/319/23 290/321/24 293/331/24 314/330/23
f 298/332/26 297/333/26 290/321/24 289/320/24
f 296/334/27 295/335/27 394/336/27 370/337/27
f 295/335/28 296/334/28 297/333/26 298/332/26
f 300/338/26 293/331/24 290/321/24 297/333/26
f 298/332/26 289/320/24 285/327/24 299/339/26
f 329/340/28 300/338/26 297/333/26 296/334/28
f 295/335/28 298/332/26 299/339/26 294/341/28
f 294/341/27 392/342/27 394/336/27 295/335/27
f 296/334/27 370/337/27 373/343/27 329/340/27
f 311/344/23 308/345/23 316/346/24 318/347/24
f 301/348/22 303/349/22 312/350/23 315/351/23
f 302/352/22 305/353/22 310/354/23 313/355/23
f 304/356/22 307/357/22 308/345/23 311/344/23
f 315/351/23 312/350/23 319/358/24 321/359/24
f 313/355/23 310/354/23 317/360/24 320/361/24
f 325/362/25 405/363/25 303/349/25 301/348/25
f 323/364/25 403/365/25 305/353/25 302/352/25
f 404/366/25 402/367/25 307/357/25 304/356/25
f 410/368/25 322/369/25 303/349/25 405/363/25
f 404/366/25 304/356/25 305/353/25 403/365/25
f 400/329/25 324/328/25 307/357/25 402/367/25
f 323/364/25 302/352/25 322/369/25 410/368/25
f 309/370/23 306/371/24 319/358/24 312/350/23
f 311/344/23 318/347/24 317/360/24 310/354/23
f 314/330/23 293/331/24 316/346/24 308/345/23
f 322/369/22 309/370/23 312/350/23 303/349/22
f 304/356/22 311/344/23 310/354/23 305/353/22
f 324/328/22 314/330/23 308/345/23 307/357/22
f 325/362/25 301/348/25 327/372/25 411/373/25
f 301/348/22 315/351/23 346/374/23 327/372/22
f 315/351/23 321/359/24 326/375/24 346/374/23
f 313/355/23 320/361/24 306/371/24 309/370/23
f 302/352/22 313/355/23 309/370/23 322/369/22
f 330/376/28 331/377/28 339/378/26 342/379/26
f 338/380/26 336/381/26 321/359/24 319/358/24
f 342/379/26 339/378/26 318/347/24 316/346/24
f 340/382/26 337/383/26 320/361/24 317/360/24
f 331/377/27 330/376/27 375/384/27 377/385/27
f 333/386/27 332/387/27 376/388/27 379/389/27
f 335/390/27 334/391/27 378/392/27 343/393/27
f 334/391/28 335/390/28 336/381/26 338/380/26
f 332/387/28 333/386/28 337/383/26 340/382/26
f 340/382/26 317/360/24 318/347/24 339/378/26
f 341/394/26 306/371/24 320/361/24 337/383/26
f 359/395/26 326/375/24 321/359/24 336/381/26
f 338/380/26 319/358/24 306/371/24 341/394/26
f 332/387/28 340/382/26 339/378/26 331/377/28
f 328/396/28 341/394/26 337/383/26 333/386/28
f 354/397/28 359/395/26 336/381/26 335/390/28
f 334/391/28 338/380/26 341/394/26 328/396/28
f 342/379/26 316/346/24 293/331/24 300/338/26
f 328/396/27 384/398/27 378/392/27 334/391/27
f 331/377/27 377/385/27 376/388/27 332/387/27
f 329/340/27 373/343/27 375/384/27 330/376/27
f 330/376/28 342/379/26 300/338/26 329/340/28
f 335/390/27 343/393/27 385/399/27 354/397/27
f 333/386/27 379/389/27 384/398/27 328/396/27
f 344/400/22 345/401/22 347/402/23 348/403/23
f 348/403/23 347/402/23 349/404/24 350/405/24
f 415/406/25 413/407/25 345/401/25 344/400/25
f 411/373/25 327/372/25 345/401/25 413/407/25
f 346/374/23 326/375/24 349/404/24 347/402/23
f 327/372/22 346/374/23 347/402/23 345/401/22
f 415/406/25 344/400/25 353/408/25 417/409/25
f 344/400/22 348/403/23 352/410/23 353/408/22
f 348/403/23 350/405/24 351/411/24 352/410/23
f 358/412/26 357/413/26 350/405/24 349/404/24
f 356/414/27 355/415/27 387/416/27 389/417/27
f 355/415/28 356/414/28 357/413/26 358/412/26
f 361/418/26 351/411/24 350/405/24 357/413/26
f 358/412/26 349/404/24 326/375/24 359/395/26
f 360/419/28 361/418/26 357/413/26 356/414/28
f 355/415/28 358/412/26 359/395/26 354/397/28
f 354/397/27 385/399/27 387/416/27 355/415/27
f 356/414/27 389/417/27 362/420/27 360/419/27
f 14/421/29 363/422/29 112/423/29 11/424/29
f 48/425/29 144/426/29 145/427/29 49/428/29
f 367/429/29 149/430/29 146/431/29 51/432/29
f 56/433/29 152/434/29 148/435/29 53/436/29
f 50/437/29 365/438/29 149/430/29 367/429/29
f 364/439/29 366/440/29 363/422/29 14/421/29
f 86/441/29 177/442/29 152/434/29 56/433/29
f 368/443/29 369/444/29 178/445/29 87/446/29
f 10/447/29 111/448/29 113/449/29 12/450/29
f 373/451/30 370/452/30 371/453/30 372/454/30
f 376/455/30 377/456/30 382/457/30 381/458/30
f 384/459/30 379/460/30 169/461/30 374/462/30
f 385/463/30 343/464/30 168/465/30 386/466/30
f 378/467/30 384/459/30 374/462/30 380/468/30
f 375/469/30 373/451/30 372/454/30 383/470/30
f 387/471/30 385/463/30 386/466/30 388/472/30
f 362/473/30 389/474/30 390/475/30 391/476/30
f 394/477/30 392/478/30 393/479/30 395/480/30
f 25/481/31 22/482/31 209/483/31 396/484/31
f 75/485/31 76/486/31 259/487/31 258/488/31
f 72/489/31 74/490/31 257/491/31 254/492/31
f 78/493/31 397/494/31 255/495/31 261/496/31
f 73/497/31 72/489/31 254/492/31 256/498/31
f 77/499/31 25/481/31 396/484/31 260/500/31
f 98/501/31 78/493/31 261/496/31 279/502/31
f 101/503/31 97/504/31 278/505/31 282/506/31
f 23/507/31 21/508/31 208/509/31 210/510/31
f 400/511/32 201/512/32 399/513/32 398/514/32
f 403/515/32 408/516/32 409/517/32 404/518/32
f 410/519/32 401/520/32 407/521/32 323/522/32
f 411/523/32 412/524/32 236/525/32 325/526/32
f 405/527/32 406/528/32 401/520/32 410/519/32
f 402/529/32 233/530/32 201/512/32 400/511/32
f 413/531/32 414/532/32 412/524/32 411/523/32
f 417/533/32 418/534/32 416/535/32 415/536/32
f 292/537/32 420/538/32 199/539/32 419/540/32
f 9/541/33 12/542/33 113/543/33 110/544/33 105/545/33 104/546/33 120/547/33 115/548/33 393/549/33 392/550/33 294/551/33 299/552/33 285/553/33 286/554/33 291/555/33 419/556/33 199/557/33 198/558/33 193/559/33 192/560/33 207/561/33 202/562/33 208/563/33 21/564/33 15/565/33 20/566/33 3/567/33 4/568/33
f 90/569/34 89/570/34 88/571/34 100/572/34 99/573/34 101/574/34 282/575/34 280/576/34 281/577/34 269/578/34 270/579/34 271/580/34 418/581/34 417/582/34 353/583/34 352/584/34 351/585/34 361/586/34 360/587/34 362/588/34 391/589/34 188/590/34 189/591/34 179/592/34 180/593/34 181/594/34 369/595/34 368/596/34
usemtl MI_Trim_01
f 10/597/29 11/598/29 112/599/29 111/600/29
f 364/601/29 49/602/29 145/603/29 366/604/29
f 48/605/29 51/606/29 146/607/29 144/608/29
f 50/609/29 53/610/29 148/611/29 365/612/29
f 86/613/29 87/614/29 178/615/29 177/616/29
f 394/617/30 395/618/30 371/619/30 370/620/30
f 375/621/30 383/622/30 382/623/30 377/624/30
f 376/625/30 381/626/30 169/627/30 379/628/30
f 378/629/30 380/630/30 168/631/30 343/632/30
f 387/633/30 388/634/30 390/635/30 389/636/30
f 23/637/31 210/638/31 209/639/31 22/640/31
f 77/641/31 260/642/31 259/643/31 76/644/31
f 75/645/31 258/646/31 257/647/31 74/648/31
f 73/649/31 256/650/31 255/651/31 397/652/31
f 98/653/31 279/654/31 278/655/31 97/656/31
f 292/657/32 398/658/32 399/659/32 420/660/32
f 402/661/32 404/662/32 409/663/32 233/664/32
f 403/665/32 323/666/32 407/667/32 408/668/32
f 405/669/32 325/670/32 236/671/32 406/672/32
f 413/673/32 415/674/32 416/675/32 414/676/32
