# Blender v3.6.0 OBJ File: 'AllModules_Unreal.blend'
# www.blender.org
mtllib Column_Large2.mtl
o Column_Large2_Cube
v 0.555826 0.281763 3.243312
v 0.555826 0.991781 3.243312
v 0.548526 7.658535 -0.019167
v 0.548526 10.008509 -0.019167
v 0.000000 0.281763 3.243312
v 0.000000 0.991781 3.243312
v 0.000000 1.651541 4.584342
v 0.000000 7.658535 -0.019167
v 0.000000 10.008509 -0.019167
v 0.442166 1.507977 4.289869
v 0.065658 1.651541 4.584342
v 0.391723 1.579759 4.437106
v 0.253912 1.632307 4.544891
v 0.442166 8.174732 1.039636
v 0.391723 8.246514 1.186872
v 0.253912 8.299062 1.294657
v 0.442166 9.291701 1.039174
v 0.253912 9.291701 1.294595
v 0.391723 9.291701 1.186641
v 0.548526 3.556448 1.980718
v 0.000000 3.556448 1.980718
v 0.442166 4.072644 3.039520
v 0.391723 4.144426 3.186757
v 0.253912 4.196974 3.294542
v 0.000000 5.383760 1.089851
v 0.442166 5.899956 2.148654
v 0.548526 5.383759 1.089852
v 0.391723 5.971738 2.295890
v 0.253912 6.024286 2.403675
v 0.548526 0.281763 4.058223
v 0.548526 1.395218 4.058583
v 0.548526 8.061974 0.808350
v 0.548526 10.008509 0.807989
v 0.548526 3.959886 2.808234
v 0.548526 5.787197 1.917368
v 0.354959 0.281763 4.045348
v 0.192865 0.281763 4.490331
v 0.311526 0.281763 4.391611
v 0.030772 0.281763 4.526464
v 0.354959 0.281763 4.256757
v 0.000000 0.281763 4.526464
v 0.000000 0.281763 3.288945
v 0.354959 0.281763 3.288945
v 0.548526 1.695899 2.887789
v 0.391723 1.953873 4.254714
v 0.253912 2.006421 4.362499
v 0.065658 2.025656 4.401951
v 0.000000 1.695899 2.887789
v 0.000000 2.025656 4.401951
v 0.442166 1.882091 4.107478
v 0.548526 1.769333 3.876191
v 0.182358 1.639618 4.559886
v 0.182358 8.306374 1.309652
v 0.182358 9.291701 1.309614
v 0.182358 4.204285 3.309537
v 0.182358 6.031597 2.418671
v 0.182358 2.013732 4.377495
v 0.000000 8.306374 1.332402
v 0.000000 9.291701 1.332364
v 0.000000 4.204285 3.332287
v 0.000000 6.031597 2.441421
v 0.076895 6.031597 2.441421
v 0.076895 4.204285 3.332287
v 0.076895 9.291701 1.332364
v 0.076895 8.306374 1.332402
v 0.131255 0.281763 4.504065
v 0.354959 -0.012255 4.045348
v 0.192865 -0.012255 4.490331
v 0.311526 -0.012255 4.391611
v 0.030772 -0.012255 4.526464
v 0.354959 -0.012255 4.256757
v 0.000000 -0.012255 4.526464
v 0.000000 -0.012255 3.288945
v 0.354959 -0.012255 3.288945
v 0.131255 -0.012255 4.504065
v 0.548526 0.281763 3.413821
v 0.548526 1.080917 3.413901
v 0.548526 7.747672 0.163667
v 0.548526 10.008509 0.163588
v 0.548526 3.645585 2.163552
v 0.548526 5.472897 1.272686
v 0.354959 0.281763 3.456067
v 0.548526 1.785036 3.070623
v 0.354959 -0.012255 3.456067
v 0.548526 7.312674 0.375741
v 0.548526 7.312087 0.149736
v 0.548526 8.061972 -0.019167
v 0.548526 8.061972 0.163656
v 0.000000 8.061972 -0.019167
v 0.000000 7.312083 0.149738
v 0.442166 1.427884 4.125587
v 0.442166 8.094641 0.875353
v 0.442166 9.291701 0.874963
v 0.442166 3.992552 2.875238
v 0.442166 5.819863 1.984371
v 0.354959 0.281763 4.106593
v 0.442166 1.801998 3.943195
v 0.354959 -0.012255 4.106593
v 0.000000 0.281763 4.536971
v 0.000000 0.337873 4.584342
v 0.382961 0.281763 4.267241
v 0.442166 0.337873 4.289429
v 0.037316 0.281763 4.537321
v 0.065658 0.337873 4.584342
v 0.335292 0.281763 4.405025
v 0.391723 0.337873 4.436885
v 0.207764 0.281763 4.503631
v 0.253912 0.337873 4.544831
v 0.182358 0.337873 4.559849
v 0.142300 0.281763 4.516120
v 0.442166 0.337873 4.125216
v 0.383080 0.281763 4.112592
v 0.489647 0.281763 4.095298
v -0.555826 0.281763 3.243312
v -0.555826 0.991781 3.243312
v -0.548526 7.658535 -0.019167
v -0.548526 10.008509 -0.019167
v -0.442166 1.507977 4.289869
v -0.065658 1.651541 4.584342
v -0.391723 1.579759 4.437106
v -0.253912 1.632307 4.544891
v -0.442166 8.174732 1.039636
v -0.391723 8.246514 1.186872
v -0.253912 8.299062 1.294657
v -0.442166 9.291701 1.039174
v -0.253912 9.291701 1.294595
v -0.391723 9.291701 1.186641
v -0.548526 3.556448 1.980718
v -0.442166 4.072644 3.039520
v -0.391723 4.144426 3.186757
v -0.253912 4.196974 3.294542
v -0.442166 5.899956 2.148654
v -0.548526 5.383759 1.089852
v -0.391723 5.971738 2.295890
v -0.253912 6.024286 2.403675
v -0.548526 0.281763 4.058223
v -0.548526 1.395218 4.058583
v -0.548526 8.061974 0.808350
v -0.548526 10.008509 0.807989
v -0.548526 3.959886 2.808234
v -0.548526 5.787197 1.917368
v -0.354959 0.281763 4.045348
v -0.192865 0.281763 4.490331
v -0.311526 0.281763 4.391611
v -0.030772 0.281763 4.526464
v -0.354959 0.281763 4.256757
v -0.354959 0.281763 3.288945
v -0.548526 1.695899 2.887789
v -0.391723 1.953873 4.254714
v -0.253912 2.006421 4.362499
v -0.065658 2.025656 4.401951
v -0.442166 1.882091 4.107478
v -0.548526 1.769333 3.876191
v -0.182358 1.639618 4.559886
v -0.182358 8.306374 1.309652
v -0.182358 9.291701 1.309614
v -0.182358 4.204285 3.309537
v -0.182358 6.031597 2.418671
v -0.182358 2.013732 4.377495
v -0.076895 6.031597 2.441421
v -0.076895 4.204285 3.332287
v -0.076895 9.291701 1.332364
v -0.076895 8.306374 1.332402
v -0.131255 0.281763 4.504065
v -0.354959 -0.012255 4.045348
v -0.192865 -0.012255 4.490331
v -0.311526 -0.012255 4.391611
v -0.030772 -0.012255 4.526464
v -0.354959 -0.012255 4.256757
v -0.354959 -0.012255 3.288945
v -0.131255 -0.012255 4.504065
v -0.548526 0.281763 3.413821
v -0.548526 1.080917 3.413901
v -0.548526 7.747672 0.163667
v -0.548526 10.008509 0.163588
v -0.548526 3.645585 2.163552
v -0.548526 5.472897 1.272686
v -0.354959 0.281763 3.456067
v -0.548526 1.785036 3.070623
v -0.354959 -0.012255 3.456067
v -0.548526 7.312674 0.375741
v -0.548526 7.312087 0.149736
v -0.548526 8.061972 -0.019167
v -0.548526 8.061972 0.163656
v -0.442166 1.427884 4.125587
v -0.442166 8.094641 0.875353
v -0.442166 9.291701 0.874963
v -0.442166 3.992552 2.875238
v -0.442166 5.819863 1.984371
v -0.354959 0.281763 4.106593
v -0.442166 1.801998 3.943195
v -0.354959 -0.012255 4.106593
v -0.382961 0.281763 4.267241
v -0.442166 0.337873 4.289429
v -0.037316 0.281763 4.537321
v -0.065658 0.337873 4.584342
v -0.335292 0.281763 4.405025
v -0.391723 0.337873 4.436885
v -0.207764 0.281763 4.503631
v -0.253912 0.337873 4.544831
v -0.182358 0.337873 4.559849
v -0.142300 0.281763 4.516120
v -0.442166 0.337873 4.125216
v -0.383080 0.281763 4.112592
v -0.489647 0.281763 4.095298
v 0.517241 9.995896 3.404288
v 0.517241 9.995896 0.072480
v 0.517241 9.995896 4.820307
v 0.517241 9.459984 3.404288
v 0.450442 9.336205 3.404288
v 0.517241 8.501192 0.072480
v 0.450442 8.377689 0.072480
v 0.450442 9.863087 4.820307
v 0.517241 9.987220 4.820307
v 0.517241 9.995896 1.847819
v 0.517241 9.995896 1.068897
v 0.517241 9.995896 1.736544
v 0.517241 9.995896 1.625270
v 0.517241 9.995896 1.513995
v 0.517241 9.995896 1.402721
v 0.517241 9.995896 1.291446
v 0.517241 9.995896 1.180172
v 0.450442 9.087319 1.077422
v 0.450442 9.336205 1.847819
v 0.450442 9.142701 1.166330
v 0.450442 9.195307 1.271738
v 0.450442 9.242497 1.388358
v 0.450442 9.281906 1.510344
v 0.450442 9.311558 1.631579
v 0.450442 9.329967 1.745983
v 0.517241 9.208102 1.073453
v 0.517241 9.459855 1.847819
v 0.517241 9.264115 1.163245
v 0.517241 9.317322 1.269491
v 0.517241 9.365053 1.386864
v 0.517241 9.404916 1.509479
v 0.517241 9.434912 1.631186
v 0.517241 9.453536 1.745883
v 0.000000 9.863087 4.820307
v 0.000000 9.995896 3.404288
v 0.000000 9.995896 1.180172
v 0.000000 9.995896 1.402721
v 0.000000 9.087319 1.077422
v 0.000000 9.195307 1.271738
v 0.000000 9.281906 1.510344
v 0.000000 9.329967 1.745983
v 0.000000 9.995896 4.820307
v 0.000000 8.377689 0.072480
v 0.000000 9.995896 1.847819
v 0.000000 9.995896 1.625270
v 0.000000 9.336205 3.404288
v 0.000000 9.995896 1.068897
v 0.000000 9.995896 1.291446
v 0.000000 9.995896 1.513995
v 0.000000 9.995896 1.736544
v 0.000000 9.242497 1.388358
v 0.000000 9.311558 1.631579
v 0.000000 9.142701 1.166330
v 0.000000 9.995896 0.072480
v 0.000000 9.336205 1.847819
v -0.517241 9.995896 3.404288
v -0.517241 9.995896 0.072480
v -0.517241 9.995896 4.820307
v -0.517241 9.459984 3.404288
v -0.450442 9.336205 3.404288
v -0.517241 8.501192 0.072480
v -0.450442 8.377689 0.072480
v -0.450442 9.863087 4.820307
v -0.517241 9.987220 4.820307
v -0.517241 9.995896 1.847819
v -0.517241 9.995896 1.068897
v -0.517241 9.995896 1.736544
v -0.517241 9.995896 1.625270
v -0.517241 9.995896 1.513995
v -0.517241 9.995896 1.402721
v -0.517241 9.995896 1.291446
v -0.517241 9.995896 1.180172
v -0.450442 9.087319 1.077422
v -0.450442 9.336205 1.847819
v -0.450442 9.142701 1.166330
v -0.450442 9.195307 1.271738
v -0.450442 9.242497 1.388358
v -0.450442 9.281906 1.510344
v -0.450442 9.311558 1.631579
v -0.450442 9.329967 1.745983
v -0.517241 9.208102 1.073453
v -0.517241 9.459855 1.847819
v -0.517241 9.264115 1.163245
v -0.517241 9.317322 1.269491
v -0.517241 9.365053 1.386864
v -0.517241 9.404916 1.509479
v -0.517241 9.434912 1.631186
v -0.517241 9.453536 1.745883
v 0.554739 -0.019152 4.415154
v 0.048091 -0.019152 5.264495
v 0.554739 -0.019152 4.814769
v 0.000000 -0.019152 5.264495
v 0.000000 -0.019152 3.153879
v 0.554739 -0.019152 3.153879
v 0.205129 -0.019152 5.227145
v 0.554739 -0.019152 3.432549
v 0.554739 -0.019152 4.517278
v 0.554739 0.104343 4.415154
v 0.048091 0.104343 5.217399
v 0.554739 0.104343 4.767672
v 0.000000 0.104343 5.217399
v 0.000000 0.104343 3.153879
v 0.554739 0.104343 3.153879
v 0.205129 0.104343 5.180048
v 0.554739 0.104343 3.432549
v 0.554739 0.104343 4.517278
v 0.482166 0.104343 4.433209
v 0.051424 0.104343 5.138545
v 0.482166 0.104343 4.743145
v 0.000000 0.104343 5.138545
v 0.000000 0.104343 3.238509
v 0.482166 0.104343 3.238509
v 0.184934 0.104343 5.105706
v 0.482166 0.104343 3.431444
v 0.482166 0.104343 4.522997
v 0.337814 -0.019152 5.171934
v 0.256884 -0.019152 5.214835
v 0.337829 0.104343 5.124824
v 0.256880 0.104343 5.167739
v 0.222257 0.104343 5.096525
v 0.303225 0.104343 5.052130
v 0.510522 -0.019152 4.961250
v 0.432422 -0.019152 5.087955
v 0.510549 0.104343 4.914063
v 0.432456 0.104343 5.040828
v 0.370085 0.104343 4.990756
v 0.448176 0.104343 4.859588
v -0.554739 -0.019152 4.415154
v -0.048091 -0.019152 5.264495
v -0.554739 -0.019152 4.814769
v -0.554739 -0.019152 3.153879
v -0.205129 -0.019152 5.227145
v -0.554739 -0.019152 3.432549
v -0.554739 -0.019152 4.517278
v -0.554739 0.104343 4.415154
v -0.048091 0.104343 5.217399
v -0.554739 0.104343 4.767672
v -0.554739 0.104343 3.153879
v -0.205129 0.104343 5.180048
v -0.554739 0.104343 3.432549
v -0.554739 0.104343 4.517278
v -0.482166 0.104343 4.433209
v -0.051424 0.104343 5.138545
v -0.482166 0.104343 4.743145
v -0.482166 0.104343 3.238509
v -0.184934 0.104343 5.105706
v -0.482166 0.104343 3.431444
v -0.482166 0.104343 4.522997
v -0.337814 -0.019152 5.171934
v -0.256884 -0.019152 5.214835
v -0.337829 0.104343 5.124824
v -0.256880 0.104343 5.167739
v -0.222257 0.104343 5.096525
v -0.303225 0.104343 5.052130
v -0.510522 -0.019152 4.961250
v -0.432422 -0.019152 5.087955
v -0.510549 0.104343 4.914063
v -0.432456 0.104343 5.040828
v -0.370085 0.104343 4.990756
v -0.448176 0.104343 4.859588
vt 0.445479 0.330699
vt 0.457767 0.330700
vt 0.457767 0.330700
vt 0.445479 0.330699
vt 0.409093 0.330696
vt 0.422923 0.330697
vt 0.422923 0.330697
vt 0.409093 0.330696
vt 0.300341 0.330693
vt 0.338098 0.330693
vt 0.338098 0.330693
vt 0.300341 0.330693
vt 0.578871 0.277963
vt 0.786845 0.277963
vt 0.786845 0.297698
vt 0.578871 0.297698
vt 0.786845 0.317147
vt 0.578871 0.317147
vt 0.893409 0.277963
vt 0.878259 0.297698
vt 0.863329 0.317147
vt 0.482625 0.622734
vt 0.482625 0.364294
vt 0.514002 0.364269
vt 0.514000 0.619802
vt 0.202968 0.297698
vt 0.403922 0.297698
vt 0.403922 0.317147
vt 0.202968 0.317147
vt 0.202968 0.277963
vt 0.403922 0.277963
vt 0.533236 0.618004
vt 0.533240 0.364254
vt 0.579302 0.364140
vt 0.579272 0.605080
vt 0.158447 0.342118
vt 0.158447 0.335755
vt 0.202968 0.335755
vt 0.202968 0.342118
vt 0.158447 0.277963
vt 0.158447 0.297698
vt 0.158447 0.317147
vt 0.158447 0.324426
vt 0.202968 0.324426
vt 0.578871 0.324426
vt 0.403922 0.324426
vt 0.857741 0.324426
vt 0.786845 0.324426
vt 0.578871 0.335755
vt 0.786845 0.335755
vt 0.786845 0.342118
vt 0.578871 0.342118
vt 0.849043 0.335755
vt 0.844159 0.342118
vt 0.403922 0.335755
vt 0.403922 0.342118
vt 0.620310 0.363967
vt 0.620224 0.587424
vt 0.373296 0.330694
vt 0.373296 0.330694
vt 0.663519 0.363747
vt 0.663450 0.567723
vt 0.158447 0.256664
vt 0.202968 0.256664
vt 0.786845 0.256664
vt 1.070529 0.256664
vt 1.070529 0.277963
vt 0.578871 0.256664
vt 0.403922 0.256664
vt 0.284941 0.330693
vt 0.293466 0.330693
vt 0.284941 0.330693
vt 0.553334 0.309053
vt 0.526272 0.309053
vt 0.526272 0.281417
vt 0.553334 0.281417
vt 0.459872 0.309053
vt 0.459872 0.281417
vt 0.398667 0.309053
vt 0.398667 0.281417
vt 0.618718 0.309053
vt 0.595603 0.309053
vt 0.595603 0.281417
vt 0.618718 0.281417
vt 0.333652 0.309053
vt 0.333652 0.281417
vt 0.465348 0.622734
vt 0.465348 0.364294
vt 0.445479 0.330699
vt 0.445479 0.330699
vt 0.409093 0.330696
vt 0.409093 0.330696
vt 0.422923 0.330697
vt 0.422923 0.330697
vt 0.300341 0.330693
vt 0.300341 0.330693
vt 0.338098 0.330693
vt 0.338098 0.330693
vt 0.578871 0.277963
vt 0.578871 0.297698
vt 0.786845 0.297698
vt 0.786845 0.277963
vt 0.578871 0.317147
vt 0.786845 0.317147
vt 0.878259 0.297698
vt 0.893409 0.277963
vt 0.863329 0.317147
vt 0.482625 0.622734
vt 0.514000 0.619802
vt 0.514002 0.364269
vt 0.482625 0.364294
vt 0.202968 0.297698
vt 0.202968 0.317147
vt 0.403922 0.317147
vt 0.403922 0.297698
vt 0.202968 0.277963
vt 0.403922 0.277963
vt 0.533236 0.618004
vt 0.579272 0.605080
vt 0.579302 0.364140
vt 0.533240 0.364254
vt 0.202968 0.335755
vt 0.158447 0.335755
vt 0.158447 0.277963
vt 0.158447 0.297698
vt 0.158447 0.317147
vt 0.158447 0.324426
vt 0.202968 0.324426
vt 0.403922 0.324426
vt 0.578871 0.324426
vt 0.786845 0.324426
vt 0.857741 0.324426
vt 0.578871 0.335755
vt 0.786845 0.335755
vt 0.849043 0.335755
vt 0.403922 0.335755
vt 0.620224 0.587424
vt 0.620310 0.363967
vt 0.373296 0.330694
vt 0.373296 0.330694
vt 0.663519 0.363747
vt 0.663450 0.567723
vt 0.202968 0.256664
vt 0.158447 0.256664
vt 0.909760 0.256664
vt 0.786845 0.256664
vt 0.578871 0.256664
vt 0.403922 0.256664
vt 0.284941 0.330693
vt 0.284941 0.330693
vt 0.293466 0.330693
vt 0.553334 0.309053
vt 0.553334 0.281417
vt 0.526272 0.281417
vt 0.526272 0.309053
vt 0.459872 0.281417
vt 0.459872 0.309053
vt 0.398667 0.281417
vt 0.398667 0.309053
vt 0.595603 0.281417
vt 0.595603 0.309053
vt 0.333652 0.281417
vt 0.333652 0.309053
vt 0.114158 0.421833
vt 0.183781 0.421833
vt 0.183781 0.458934
vt 0.114158 0.458934
vt 0.659983 0.479308
vt 0.659983 0.458934
vt 0.682999 0.458934
vt 0.682999 0.479308
vt 0.659983 0.421833
vt 0.682999 0.421833
vt 0.485388 0.458934
vt 0.485388 0.421833
vt 0.634223 0.421833
vt 0.634223 0.458934
vt 0.485388 0.479308
vt 0.634223 0.479308
vt 0.034832 0.518299
vt 0.145254 0.518299
vt 0.145254 0.526889
vt 0.040238 0.526889
vt 0.034832 0.523054
vt 0.216264 0.479308
vt 0.216264 0.458934
vt 0.360187 0.458934
vt 0.360187 0.479308
vt 0.216264 0.421833
vt 0.360187 0.421833
vt 0.423518 0.526889
vt 0.423518 0.518299
vt 0.621837 0.518299
vt 0.621837 0.526889
vt 0.195721 0.526889
vt 0.195721 0.518299
vt -0.024585 0.603031
vt 0.077608 0.605960
vt 0.077608 0.656761
vt -0.024585 0.656761
vt 0.857591 0.518299
vt 0.857591 0.526889
vt 1.035952 0.518299
vt 1.035952 0.526888
vt 0.183781 0.479308
vt 0.339134 0.054533
vt 0.214134 0.054533
vt 0.214134 0.054533
vt 0.339134 0.054533
vt 0.136771 0.330693
vt 0.136771 0.330693
vt 0.836560 0.657764
vt 0.657135 0.657764
vt 0.657135 0.603936
vt 0.836560 0.603936
vt 0.638486 0.657764
vt 0.592764 0.657764
vt 0.592764 0.603936
vt 0.638486 0.603936
vt 0.508264 0.657764
vt 0.492432 0.657764
vt 0.492432 0.603936
vt 0.508264 0.603936
vt 0.550316 0.657764
vt 0.550316 0.603936
vt 0.466611 0.657764
vt 0.458985 0.657764
vt 0.458985 0.603936
vt 0.466611 0.603936
vt 0.975418 0.657764
vt 0.887446 0.657764
vt 0.887446 0.603936
vt 0.975418 0.603936
vt 0.094749 0.330693
vt 0.094749 0.330693
vt 0.172552 0.605960
vt 0.123724 0.656761
vt 0.114158 0.479308
vt 0.380836 0.660449
vt 0.383737 0.605797
vt 0.597929 0.605797
vt 0.600852 0.660449
vt 0.117084 0.660449
vt 0.165650 0.605797
vt 0.836959 0.605797
vt 0.885329 0.660449
vt 0.878583 0.657636
vt 0.889690 0.604097
vt 1.024844 0.604119
vt 1.024835 0.657636
vt 0.836690 0.607380
vt 0.867577 0.604094
vt 0.794282 0.421833
vt 0.794282 0.458934
vt 0.794282 0.479308
vt 0.034832 0.526889
vt 0.114158 0.458934
vt 0.183781 0.458934
vt 0.659983 0.479308
vt 0.682999 0.479308
vt 0.682999 0.458934
vt 0.659983 0.458934
vt 0.485388 0.458934
vt 0.634223 0.458934
vt 0.485388 0.479308
vt 0.634223 0.479308
vt 0.034832 0.518299
vt 0.034832 0.523054
vt 0.040238 0.526889
vt 0.145254 0.526889
vt 0.145254 0.518299
vt 0.216264 0.479308
vt 0.360187 0.479308
vt 0.360187 0.458934
vt 0.216264 0.458934
vt 0.423518 0.526889
vt 0.621837 0.526889
vt 0.621837 0.518299
vt 0.423518 0.518299
vt 0.195721 0.526889
vt 0.195721 0.518299
vt -0.024585 0.603031
vt -0.024585 0.652110
vt 0.077608 0.652110
vt 0.077608 0.605960
vt 0.857591 0.526889
vt 0.857591 0.518299
vt 1.035952 0.526888
vt 1.035952 0.518299
vt 0.183781 0.479308
vt 0.214134 0.054533
vt 0.214134 0.054533
vt 0.136771 0.330693
vt 0.136771 0.330693
vt 0.836560 0.657764
vt 0.836560 0.603936
vt 0.657135 0.603936
vt 0.657135 0.657764
vt 0.638486 0.657764
vt 0.638486 0.603936
vt 0.592764 0.603936
vt 0.592764 0.657764
vt 0.508264 0.657764
vt 0.508264 0.603936
vt 0.492432 0.603936
vt 0.492432 0.657764
vt 0.550316 0.603936
vt 0.550316 0.657764
vt 0.466611 0.657764
vt 0.466611 0.603936
vt 0.887446 0.603936
vt 0.887446 0.657764
vt 0.094749 0.330693
vt 0.094749 0.330693
vt 0.123724 0.652110
vt 0.172552 0.605960
vt 0.114158 0.479308
vt 0.380836 0.655799
vt 0.600852 0.655799
vt 0.597929 0.605797
vt 0.383737 0.605797
vt 0.117084 0.655799
vt 0.165650 0.605797
vt 0.885329 0.655799
vt 0.836959 0.605797
vt 0.878583 0.652985
vt 1.024835 0.652985
vt 1.024844 0.604119
vt 0.889690 0.604097
vt 0.867577 0.604094
vt 0.836690 0.607380
vt 0.794282 0.458934
vt 0.794282 0.479308
vt 0.034832 0.526889
vt 0.159615 0.237540
vt 0.165321 0.238812
vt 0.177699 0.244963
vt 0.187921 0.253467
vt 0.199860 0.271642
vt 0.205057 0.287776
vt 0.205057 0.318280
vt 0.205057 0.330721
vt 0.205057 0.469526
vt 0.205057 0.496259
vt 0.131341 0.496259
vt 0.131341 0.232989
vt 0.139203 0.232989
vt 0.159615 0.237540
vt 0.139203 0.232989
vt 0.205057 0.496259
vt 0.205057 0.469526
vt 0.205057 0.330721
vt 0.205057 0.318280
vt 0.205057 0.287776
vt 0.199860 0.271642
vt 0.187921 0.253467
vt 0.177699 0.244963
vt 0.165321 0.238812
vt 0.696065 0.750000
vt 0.696066 0.878759
vt 0.581745 0.878759
vt 0.581222 0.750000
vt 0.288818 0.750000
vt 0.288818 0.878759
vt -0.065152 0.756057
vt -0.065152 0.756057
vt 0.625000 0.633211
vt 0.746392 0.633211
vt 0.746392 0.750000
vt 0.625000 0.750000
vt 0.547202 0.750000
vt 0.547202 0.878759
vt 0.746392 0.750000
vt 0.625000 0.750000
vt 0.375000 0.772815
vt 0.608667 0.750000
vt 0.625000 0.871392
vt 0.375000 0.871613
vt 0.187164 0.371246
vt 0.487773 0.371246
vt 0.487773 0.405404
vt 0.187164 0.405404
vt -0.112010 0.405404
vt -0.112010 0.371246
vt 0.650466 0.371246
vt 0.901123 0.371246
vt 0.901123 0.405404
vt 0.650466 0.405404
vt 0.532625 0.703536
vt 0.532625 0.608250
vt 0.544099 0.608250
vt 0.544099 0.703536
vt 0.557294 0.608250
vt 0.557294 0.703536
vt 0.571758 0.608250
vt 0.571758 0.703536
vt 0.586923 0.608250
vt 0.586923 0.703536
vt 0.602165 0.608250
vt 0.602165 0.703536
vt 0.616855 0.608250
vt 0.616855 0.703536
vt 0.630407 0.608250
vt 0.630407 0.703536
vt 0.627671 0.405404
vt 0.627671 0.371246
vt 0.603574 0.405404
vt 0.603574 0.371246
vt 0.578854 0.405404
vt 0.578854 0.371246
vt 0.554235 0.405404
vt 0.554235 0.371246
vt 0.530436 0.405404
vt 0.530436 0.371246
vt 0.508110 0.405404
vt 0.508110 0.371246
vt 0.492378 0.878759
vt 0.492378 0.750000
vt 0.504073 0.750000
vt 0.505144 0.878759
vt 0.517232 0.750000
vt 0.517911 0.878759
vt 0.531196 0.750000
vt 0.530678 0.878759
vt 0.545264 0.750000
vt 0.543445 0.878759
vt 0.558730 0.750000
vt 0.556211 0.878759
vt 0.570920 0.750000
vt 0.568978 0.878759
vt 0.625000 0.500000
vt 0.746392 0.500000
vt 0.746392 0.574765
vt 0.625000 0.574765
vt 0.746392 0.599814
vt 0.746392 0.608163
vt 0.625000 0.608163
vt 0.625000 0.599814
vt 0.746392 0.583115
vt 0.746392 0.591464
vt 0.625000 0.591464
vt 0.625000 0.583115
vt 0.746392 0.616513
vt 0.746392 0.624862
vt 0.625000 0.624862
vt 0.625000 0.616513
vt 0.357962 0.608250
vt 0.357962 0.703536
vt 0.375000 0.378387
vt 0.625000 0.378608
vt 0.421803 0.500000
vt 0.375000 0.477185
vt 0.793276 0.608250
vt 0.793276 0.703536
vt 0.176683 0.608250
vt 0.176683 0.703536
vt 0.696065 0.750000
vt 0.581222 0.750000
vt 0.581745 0.878759
vt 0.696066 0.878759
vt 0.288818 0.750000
vt -0.065152 0.756057
vt -0.065152 0.756057
vt 0.288818 0.878759
vt 0.625000 0.633211
vt 0.625000 0.750000
vt 0.547202 0.750000
vt 0.547202 0.878759
vt 0.625000 0.750000
vt 0.375000 0.772815
vt 0.608667 0.750000
vt 0.187164 0.371246
vt 0.187164 0.405404
vt 0.487773 0.405404
vt 0.487773 0.371246
vt -0.112010 0.371246
vt -0.112010 0.405404
vt 0.650466 0.371246
vt 0.650466 0.405404
vt 0.901123 0.405404
vt 0.901123 0.371246
vt 0.532625 0.703536
vt 0.544099 0.703536
vt 0.557294 0.703536
vt 0.571758 0.703536
vt 0.586923 0.703536
vt 0.602165 0.703536
vt 0.616855 0.703536
vt 0.630407 0.703536
vt 0.627671 0.371246
vt 0.627671 0.405404
vt 0.603574 0.371246
vt 0.603574 0.405404
vt 0.578854 0.371246
vt 0.578854 0.405404
vt 0.554235 0.371246
vt 0.554235 0.405404
vt 0.530436 0.371246
vt 0.530436 0.405404
vt 0.508110 0.371246
vt 0.508110 0.405404
vt 0.492378 0.878759
vt 0.505144 0.878759
vt 0.504073 0.750000
vt 0.492378 0.750000
vt 0.517911 0.878759
vt 0.517232 0.750000
vt 0.530678 0.878759
vt 0.531196 0.750000
vt 0.543445 0.878759
vt 0.545264 0.750000
vt 0.556211 0.878759
vt 0.558730 0.750000
vt 0.568978 0.878759
vt 0.570920 0.750000
vt 0.625000 0.500000
vt 0.625000 0.574765
vt 0.625000 0.599814
vt 0.625000 0.608163
vt 0.625000 0.583115
vt 0.625000 0.591464
vt 0.625000 0.616513
vt 0.625000 0.624862
vt 0.357962 0.703536
vt 0.375000 0.477185
vt 0.421803 0.500000
vt 0.793276 0.703536
vt 0.176683 0.703536
vt 0.214633 0.371577
vt 0.229047 0.371577
vt 0.229047 0.405990
vt 0.214633 0.405990
vt 0.154077 0.371577
vt 0.168823 0.371577
vt 0.168823 0.405990
vt 0.154077 0.405990
vt 0.371912 0.371577
vt 0.443142 0.371577
vt 0.443142 0.405990
vt 0.371912 0.405990
vt 0.745094 0.371577
vt 0.814745 0.371577
vt 0.814745 0.405990
vt 0.745094 0.405990
vt 0.973747 0.371577
vt 0.973747 0.405990
vt 0.256137 0.371577
vt 0.289416 0.371577
vt 0.289416 0.405990
vt 0.256137 0.405990
vt 0.470394 0.371577
vt 0.470394 0.405990
vt 0.297774 0.371886
vt 0.305999 0.371886
vt 0.305999 0.405694
vt 0.297774 0.405694
vt 0.263218 0.371886
vt 0.271633 0.371886
vt 0.271633 0.405694
vt 0.263218 0.405694
vt 0.387524 0.371886
vt 0.428171 0.371886
vt 0.428171 0.405694
vt 0.387524 0.405694
vt 0.600477 0.371886
vt 0.640223 0.371886
vt 0.640223 0.405694
vt 0.600477 0.405694
vt 0.730956 0.371886
vt 0.730956 0.405694
vt 0.321458 0.371886
vt 0.340449 0.371886
vt 0.340449 0.405694
vt 0.321458 0.405694
vt 0.443722 0.371886
vt 0.443722 0.405694
vt 0.364764 0.371886
vt 0.364764 0.405694
vt 0.332027 0.371577
vt 0.332027 0.405990
vt 0.214633 0.371577
vt 0.214633 0.405990
vt 0.229047 0.405990
vt 0.229047 0.371577
vt 0.168823 0.405990
vt 0.168823 0.371577
vt 0.371912 0.371577
vt 0.371912 0.405990
vt 0.443142 0.405990
vt 0.443142 0.371577
vt 0.745094 0.371577
vt 0.745094 0.405990
vt 0.814745 0.405990
vt 0.814745 0.371577
vt 0.256137 0.371577
vt 0.256137 0.405990
vt 0.289416 0.405990
vt 0.289416 0.371577
vt 0.470394 0.405990
vt 0.470394 0.371577
vt 0.297774 0.371886
vt 0.297774 0.405694
vt 0.305999 0.405694
vt 0.305999 0.371886
vt 0.271633 0.405694
vt 0.271633 0.371886
vt 0.387524 0.371886
vt 0.387524 0.405694
vt 0.428171 0.405694
vt 0.428171 0.371886
vt 0.600477 0.371886
vt 0.600477 0.405694
vt 0.640223 0.405694
vt 0.640223 0.371886
vt 0.321458 0.371886
vt 0.321458 0.405694
vt 0.340449 0.405694
vt 0.340449 0.371886
vt 0.443722 0.405694
vt 0.443722 0.371886
vt 0.364764 0.371886
vt 0.364764 0.405694
vt 0.332027 0.371577
vt 0.332027 0.405990
vn 0.0000 -1.0000 0.0000
vn 0.9889 0.0652 0.1338
vn 0.9915 0.0326 0.1260
vn 0.8510 0.1178 0.5118
vn 0.8382 0.2390 0.4901
vn 0.4600 0.1929 0.8667
vn 0.4552 0.3902 0.8004
vn 0.9864 0.0001 0.1641
vn 0.8149 0.0001 0.5796
vn 0.4218 0.0001 0.9067
vn 0.1099 0.2268 0.9677
vn 0.1032 -0.0000 0.9947
vn 0.2053 -0.0000 0.9787
vn 0.2216 0.2187 0.9503
vn 0.4346 0.2052 0.8769
vn 0.4218 -0.0001 0.9067
vn 0.8149 -0.0001 0.5796
vn 0.8141 0.1235 0.5675
vn 0.0000 0.2249 0.9744
vn 0.1097 0.4364 0.8930
vn 0.0000 0.4395 0.8983
vn 0.9845 0.0328 0.1722
vn 0.2227 0.4274 0.8762
vn 0.2087 0.4286 0.8791
vn 0.2133 0.4283 0.8781
vn 0.2081 0.0000 0.9781
vn 0.2139 0.2129 0.9534
vn 0.0956 0.4362 0.8947
vn 0.1048 0.2271 0.9682
vn 0.0000 0.4382 0.8989
vn 0.1060 0.0000 0.9944
vn 0.0000 0.0000 1.0000
vn 0.1010 0.4368 0.8939
vn 0.9864 -0.0000 0.1641
vn 1.0000 0.0000 0.0000
vn 0.1481 -0.6717 0.7258
vn 0.2627 -0.7034 0.6605
vn 0.3152 -0.7161 0.6228
vn 0.1476 -0.6696 0.7279
vn 0.5274 -0.7543 0.3909
vn 0.5382 -0.7552 0.3742
vn 0.6641 -0.7410 0.0995
vn 0.6584 -0.7432 0.1193
vn 0.0000 -0.6433 0.7656
vn 0.0592 -0.6583 0.7504
vn 0.0886 -0.6644 0.7421
vn 0.6882 -0.7255 0.0003
vn -0.9889 0.0652 0.1338
vn -0.8382 0.2390 0.4901
vn -0.8510 0.1178 0.5118
vn -0.9915 0.0326 0.1260
vn -0.4552 0.3902 0.8004
vn -0.4600 0.1929 0.8667
vn -0.8149 0.0001 0.5796
vn -0.9864 0.0001 0.1641
vn -0.4218 0.0001 0.9067
vn -0.1099 0.2268 0.9677
vn -0.2216 0.2187 0.9503
vn -0.2053 -0.0000 0.9787
vn -0.1032 -0.0000 0.9947
vn -0.4346 0.2052 0.8769
vn -0.8141 0.1235 0.5675
vn -0.8149 -0.0001 0.5796
vn -0.4218 -0.0001 0.9067
vn -0.1097 0.4364 0.8930
vn -0.9845 0.0328 0.1722
vn -0.2227 0.4274 0.8762
vn -0.2133 0.4283 0.8781
vn -0.2087 0.4286 0.8791
vn -0.2139 0.2129 0.9534
vn -0.2081 0.0000 0.9781
vn -0.0956 0.4362 0.8947
vn -0.1048 0.2271 0.9682
vn -0.1060 0.0000 0.9944
vn -0.1010 0.4368 0.8939
vn -0.9864 -0.0000 0.1641
vn -1.0000 0.0000 0.0000
vn -0.1481 -0.6717 0.7258
vn -0.1476 -0.6696 0.7279
vn -0.3152 -0.7161 0.6228
vn -0.2627 -0.7034 0.6605
vn -0.5382 -0.7552 0.3742
vn -0.5274 -0.7543 0.3909
vn -0.6584 -0.7432 0.1193
vn -0.6641 -0.7410 0.0995
vn -0.0886 -0.6644 0.7421
vn -0.0592 -0.6583 0.7504
vn -0.6882 -0.7255 0.0003
vn 0.0000 0.0000 -1.0000
vn 0.0000 -0.2317 -0.9728
vn 0.0000 -0.2310 -0.9730
vn -0.0000 -0.2249 -0.9744
vn -0.0000 -0.4382 -0.8989
vn 0.5329 -0.0003 0.8462
vn 0.5619 0.1689 0.8098
vn 0.5653 0.1987 0.8006
vn 0.3998 -0.1444 0.9052
vn 0.4427 -0.1005 0.8910
vn 1.0000 0.0031 0.0036
vn 1.0000 0.0061 0.0072
vn 0.0000 -0.4445 -0.8958
vn 0.5739 0.3589 0.7361
vn 0.9998 -0.0000 0.0214
vn 0.9999 0.0031 0.0111
vn 0.5651 0.1989 0.8007
vn 0.5617 0.1691 0.8099
vn 0.5325 0.0002 0.8464
vn 0.9995 0.0053 0.0305
vn 0.9879 0.0000 0.1552
vn 0.4409 0.0000 0.8975
vn 0.2176 0.0000 0.9760
vn 0.8286 0.0000 0.5599
vn 0.1094 0.0000 0.9940
vn 0.9991 -0.0000 0.0428
vn 0.1492 -0.3640 0.9194
vn -0.5329 -0.0003 0.8462
vn -0.4427 -0.1005 0.8910
vn -0.3998 -0.1444 0.9052
vn -0.5653 0.1987 0.8006
vn -0.5619 0.1689 0.8098
vn -1.0000 0.0031 0.0036
vn -1.0000 0.0061 0.0072
vn -0.5739 0.3589 0.7361
vn -0.9998 -0.0000 0.0214
vn -0.9999 0.0031 0.0111
vn -0.5617 0.1691 0.8099
vn -0.5651 0.1989 0.8007
vn -0.5325 0.0002 0.8464
vn -0.9995 0.0053 0.0305
vn -0.9879 0.0000 0.1552
vn -0.4409 0.0000 0.8975
vn -0.2176 0.0000 0.9760
vn -0.8286 0.0000 0.5599
vn -0.1094 0.0000 0.9940
vn -0.9991 -0.0000 0.0428
vn -0.1492 -0.3640 0.9194
vn 0.0000 1.0000 -0.0000
vn 0.8799 -0.4751 0.0000
vn 0.8669 -0.4672 0.1739
vn 0.8339 -0.4509 0.3184
vn 0.0000 -0.9981 0.0612
vn 0.0000 -0.9873 0.1589
vn 0.0000 -0.9714 0.2376
vn 0.0000 -0.9516 0.3074
vn 0.0000 -0.9270 0.3751
vn 0.0000 -0.8948 0.4465
vn 0.0000 -0.8488 0.5287
vn 0.8429 -0.4567 0.2847
vn 0.8549 -0.4641 0.2320
vn 0.8628 -0.4684 0.1900
vn 0.8687 -0.4712 0.1527
vn 0.8734 -0.4730 0.1161
vn 0.8770 -0.4743 0.0767
vn 0.8794 -0.4752 0.0293
vn 0.0000 -0.8169 0.5768
vn 0.0000 -0.9372 0.3487
vn -0.8799 -0.4751 0.0000
vn -0.8669 -0.4672 0.1739
vn -0.8339 -0.4509 0.3184
vn -0.8429 -0.4567 0.2847
vn -0.8549 -0.4641 0.2320
vn -0.8628 -0.4684 0.1900
vn -0.8687 -0.4712 0.1527
vn -0.8734 -0.4730 0.1161
vn -0.8770 -0.4743 0.0767
vn -0.8794 -0.4752 0.0293
vn 0.2169 0.3478 0.9121
vn 0.3234 0.3372 0.8841
vn 0.3417 0.3349 0.8781
vn 0.0000 0.3563 0.9344
vn 0.1062 0.3543 0.9291
vn 0.1119 0.3541 0.9285
vn 0.9816 0.0680 0.1784
vn 0.9927 0.0429 0.1125
vn 0.5318 0.3018 0.7913
vn 0.7267 0.2448 0.6418
vn 0.7614 0.2310 0.6057
vn 0.5571 0.2959 0.7759
vn 0.8886 0.1635 0.4287
vn 0.9132 0.1452 0.3807
vn -0.2169 0.3478 0.9121
vn -0.3417 0.3349 0.8781
vn -0.3234 0.3372 0.8841
vn -0.1119 0.3541 0.9285
vn -0.1062 0.3543 0.9291
vn -0.9816 0.0680 0.1784
vn -0.9927 0.0429 0.1125
vn -0.5318 0.3018 0.7913
vn -0.5571 0.2959 0.7759
vn -0.7614 0.2310 0.6057
vn -0.7267 0.2448 0.6418
vn -0.8886 0.1635 0.4287
vn -0.9132 0.1452 0.3807
usemtl MI_Trim_03
s 1
f 103/1/1 99/2/1 41/3/1 39/4/1
f 107/5/1 110/6/1 66/7/1 37/8/1
f 112/9/1 101/10/1 40/11/1 96/12/1
f 26/13/2 14/14/3 15/15/4 28/16/5
f 28/16/5 15/15/4 16/17/6 29/18/7
f 14/14/3 17/19/8 19/20/9 15/15/4
f 15/15/4 19/20/9 18/21/10 16/17/6
f 11/22/11 104/23/12 109/24/13 52/25/14
f 45/26/5 23/27/5 24/28/7 46/29/7
f 50/30/2 22/31/2 23/27/5 45/26/5
f 23/27/5 28/16/5 29/18/7 24/28/7
f 22/31/2 26/13/2 28/16/5 23/27/5
f 13/32/15 108/33/16 106/34/17 12/35/18
f 7/36/19 11/37/11 47/38/20 49/39/21
f 10/40/22 50/30/2 45/26/5 12/41/18
f 12/41/18 45/26/5 46/29/7 13/42/15
f 52/43/14 57/44/23 47/38/20 11/37/11
f 13/42/15 46/29/7 57/44/23 52/43/14
f 24/28/7 29/18/7 56/45/24 55/46/25
f 46/29/7 24/28/7 55/46/25 57/44/23
f 16/17/6 18/21/10 54/47/26 53/48/27
f 29/18/7 16/17/6 53/48/27 56/45/24
f 110/6/1 103/1/1 39/4/1 66/7/1
f 62/49/28 65/50/29 58/51/19 61/52/30
f 65/50/29 64/53/31 59/54/32 58/51/19
f 63/55/33 62/49/28 61/52/30 60/56/21
f 47/38/20 63/55/33 60/56/21 49/39/21
f 57/44/23 55/46/25 63/55/33 47/38/20
f 56/45/24 53/48/27 65/50/29 62/49/28
f 55/46/25 56/45/24 62/49/28 63/55/33
f 53/48/27 54/47/26 64/53/31 65/50/29
f 12/35/18 106/34/17 102/57/34 10/58/22
f 101/10/1 105/59/1 38/60/1 40/11/1
f 52/25/14 109/24/13 108/33/16 13/32/15
f 105/59/1 107/5/1 37/8/1 38/60/1
f 111/61/35 91/62/35 10/58/22 102/57/34
f 10/40/22 91/63/35 97/64/35 50/30/2
f 14/14/3 92/65/35 93/66/35 17/67/8
f 26/13/2 95/68/35 92/65/35 14/14/3
f 50/30/2 97/64/35 94/69/35 22/31/2
f 22/31/2 94/69/35 95/68/35 26/13/2
f 30/70/1 113/71/1 112/9/1 96/12/1 36/72/1
f 110/73/36 107/74/37 108/75/38 109/76/39
f 107/74/37 105/77/40 106/78/41 108/75/38
f 105/77/40 101/79/42 102/80/43 106/78/41
f 99/81/44 103/82/45 104/83/46 100/84/44
f 103/82/45 110/73/36 109/76/39 104/83/46
f 101/79/42 112/85/47 111/86/47 102/80/43
f 104/23/12 11/22/11 7/87/19 100/88/32
f 195/89/1 145/90/1 41/3/1 99/2/1
f 199/91/1 143/92/1 164/93/1 202/94/1
f 204/95/1 190/96/1 146/97/1 193/98/1
f 132/99/48 134/100/49 123/101/50 122/102/51
f 134/100/49 135/103/52 124/104/53 123/101/50
f 122/102/51 123/101/50 127/105/54 125/106/55
f 123/101/50 124/104/53 126/107/56 127/105/54
f 119/108/57 154/109/58 201/110/59 196/111/60
f 149/112/49 150/113/52 131/114/52 130/115/49
f 152/116/48 149/112/49 130/115/49 129/117/48
f 130/115/49 131/114/52 135/103/52 134/100/49
f 129/117/48 130/115/49 134/100/49 132/99/48
f 121/118/61 120/119/62 198/120/63 200/121/64
f 7/36/19 49/39/21 151/122/65 119/123/57
f 118/124/66 120/125/62 149/112/49 152/116/48
f 120/125/62 121/126/61 150/113/52 149/112/49
f 154/127/58 119/123/57 151/122/65 159/128/67
f 121/126/61 154/127/58 159/128/67 150/113/52
f 131/114/52 157/129/68 158/130/69 135/103/52
f 150/113/52 159/128/67 157/129/68 131/114/52
f 124/104/53 155/131/70 156/132/71 126/107/56
f 135/103/52 158/130/69 155/131/70 124/104/53
f 202/94/1 164/93/1 145/90/1 195/89/1
f 160/133/72 61/52/30 58/51/19 163/134/73
f 163/134/73 58/51/19 59/54/32 162/135/74
f 161/136/75 60/56/21 61/52/30 160/133/72
f 151/122/65 49/39/21 60/56/21 161/136/75
f 159/128/67 151/122/65 161/136/75 157/129/68
f 158/130/69 160/133/72 163/134/73 155/131/70
f 157/129/68 161/136/75 160/133/72 158/130/69
f 155/131/70 163/134/73 162/135/74 156/132/71
f 120/119/62 118/137/66 194/138/76 198/120/63
f 193/98/1 146/97/1 144/139/1 197/140/1
f 154/109/58 121/118/61 200/121/64 201/110/59
f 197/140/1 144/139/1 143/92/1 199/91/1
f 203/141/77 194/138/76 118/137/66 185/142/77
f 118/124/66 152/116/48 191/143/77 185/144/77
f 122/102/51 125/106/55 187/145/77 186/146/77
f 132/99/48 122/102/51 186/146/77 189/147/77
f 152/116/48 129/117/48 188/148/77 191/143/77
f 129/117/48 132/99/48 189/147/77 188/148/77
f 136/149/1 142/150/1 190/96/1 204/95/1 205/151/1
f 202/152/78 201/153/79 200/154/80 199/155/81
f 199/155/81 200/154/80 198/156/82 197/157/83
f 197/157/83 198/156/82 194/158/84 193/159/85
f 99/81/44 100/84/44 196/160/86 195/161/87
f 195/161/87 196/160/86 201/153/79 202/152/78
f 193/159/85 194/158/84 203/162/88 204/163/88
f 196/111/60 100/88/32 7/87/19 119/108/57
usemtl MI_Trim_01
f 5/164/89 6/165/90 2/166/91 1/167/89
f 78/168/35 3/169/35 87/170/35 88/171/35
f 3/169/92 8/172/92 89/173/89 87/170/89
f 27/174/93 25/175/93 90/176/93 86/177/93
f 81/178/35 27/174/35 86/177/35 85/179/35
f 30/180/94 31/181/95 91/182/96 111/183/97 113/184/98
f 83/185/99 44/186/100 20/187/35 80/188/35
f 44/186/101 48/189/101 21/190/93 20/187/93
f 80/188/35 20/187/35 27/174/35 81/178/35
f 20/187/93 21/190/93 25/175/93 27/174/93
f 94/191/102 34/192/102 35/193/102 95/194/102
f 97/195/102 51/196/102 34/192/102 94/191/102
f 76/197/103 77/198/104 31/199/35 30/200/35
f 95/194/102 35/193/102 32/201/105 92/202/106
f 92/202/106 32/201/105 33/203/107 93/204/107
f 91/182/96 31/181/95 51/196/102 97/195/102
f 2/166/91 6/165/90 48/189/101 44/186/101
f 77/205/104 2/166/108 44/186/100 83/185/99
f 5/206/1 1/207/1 43/208/1 42/209/1
f 76/210/1 30/70/1 36/72/1 82/211/1
f 82/212/35 36/213/35 67/214/35 84/215/35
f 96/216/35 40/217/109 71/218/109 98/219/35
f 37/220/110 66/221/111 75/222/111 68/223/110
f 40/217/109 38/224/112 69/225/112 71/218/109
f 39/226/113 41/227/32 72/228/32 70/229/113
f 66/221/111 39/226/113 70/229/113 75/222/111
f 42/230/89 43/231/89 74/232/89 73/233/89
f 38/224/112 37/220/110 68/223/110 69/225/112
f 43/231/35 82/212/35 84/215/35 74/232/35
f 1/234/1 76/210/1 82/211/1 43/235/1
f 31/199/35 77/198/104 83/236/99 51/237/35
f 1/167/114 2/166/108 77/205/104 76/238/103
f 34/239/35 80/240/35 81/241/35 35/242/35
f 51/243/35 83/244/99 80/240/35 34/239/35
f 35/242/35 81/241/35 85/245/35 32/246/35
f 32/247/35 88/248/35 79/249/35 33/250/35
f 32/247/35 85/251/35 78/252/35
f 85/179/35 86/177/35 3/169/35 78/168/35
f 88/248/35 32/247/35 78/252/35
f 87/170/89 89/173/89 9/253/89 4/254/89
f 88/171/35 87/170/35 4/254/35 79/255/35
f 86/177/93 90/176/93 8/172/92 3/169/92
f 36/213/35 96/216/35 98/219/35 67/214/35
f 111/183/97 112/256/115 113/184/98
f 5/164/89 114/257/89 115/258/91 6/165/90
f 174/259/77 184/260/77 183/261/77 116/262/77
f 116/262/92 183/261/89 89/173/89 8/172/92
f 133/263/93 182/264/93 90/176/93 25/175/93
f 177/265/77 181/266/77 182/264/77 133/263/77
f 136/267/116 205/268/117 203/269/118 185/270/119 137/271/120
f 179/272/121 176/273/77 128/274/77 148/275/122
f 148/275/101 128/274/93 21/190/93 48/189/101
f 176/273/77 177/265/77 133/263/77 128/274/77
f 128/274/93 133/263/93 25/175/93 21/190/93
f 188/276/123 189/277/123 141/278/123 140/279/123
f 191/280/123 188/276/123 140/279/123 153/281/123
f 172/282/124 136/283/77 137/284/77 173/285/125
f 189/277/123 186/286/126 138/287/127 141/278/123
f 186/286/126 187/288/128 139/289/128 138/287/127
f 185/270/119 191/280/123 153/281/123 137/271/120
f 115/258/91 148/275/101 48/189/101 6/165/90
f 173/290/125 179/272/121 148/275/122 115/258/129
f 5/206/1 42/209/1 147/291/1 114/292/1
f 172/293/1 178/294/1 142/150/1 136/149/1
f 178/295/77 180/296/77 165/297/77 142/298/77
f 190/299/77 192/300/77 169/301/130 146/302/130
f 143/303/131 166/304/131 171/305/132 164/306/132
f 146/302/130 169/301/130 167/307/133 144/308/133
f 145/309/134 168/310/134 72/228/32 41/227/32
f 164/306/132 171/305/132 168/310/134 145/309/134
f 42/230/89 73/233/89 170/311/89 147/312/89
f 144/308/133 167/307/133 166/304/131 143/303/131
f 147/312/77 170/311/77 180/296/77 178/295/77
f 114/313/1 147/314/1 178/294/1 172/293/1
f 137/284/77 153/315/77 179/316/121 173/285/125
f 114/257/135 172/317/124 173/290/125 115/258/129
f 140/318/77 141/319/77 177/320/77 176/321/77
f 153/322/77 140/318/77 176/321/77 179/323/121
f 141/319/77 138/324/77 181/325/77 177/320/77
f 138/326/77 139/327/77 175/328/77 184/329/77
f 138/326/77 174/330/77 181/331/77
f 181/266/77 174/259/77 116/262/77 182/264/77
f 184/329/77 174/330/77 138/326/77
f 183/261/89 117/332/89 9/253/89 89/173/89
f 184/260/77 175/333/77 117/332/77 183/261/77
f 182/264/93 116/262/92 8/172/92 90/176/93
f 142/298/77 165/297/77 192/300/77 190/299/77
f 203/269/118 205/268/117 204/334/136
f 318/335/137 325/336/137 326/337/137 331/338/137 332/339/137 314/340/137 320/341/137 312/342/137 319/343/137 317/344/137 316/345/137 315/346/137 313/347/137
f 351/348/137 348/349/137 315/346/137 316/345/137 350/350/137 352/351/137 347/352/137 353/353/137 349/354/137 365/355/137 364/356/137 359/357/137 358/358/137
usemtl MI_Trim_02
s off
f 211/359/35 207/360/35 216/361/35 231/362/35
f 209/363/35 206/364/35 208/365/35 214/366/35
f 215/367/137 249/368/137 240/369/137 206/370/137
f 232/371/35 215/372/35 206/364/35 209/363/35
f 206/370/137 240/369/137 247/373/137 208/374/137
f 213/375/32 214/376/32 208/374/32 247/377/32 239/378/32
f 210/379/138 224/380/138 232/381/138 209/382/138
f 209/382/139 214/383/139 213/384/139 210/379/139
f 223/385/140 212/386/140 211/387/140 231/388/140
f 224/389/141 260/390/141 246/391/141 230/392/141
f 230/392/142 246/391/142 257/393/142 229/394/142
f 229/394/143 257/393/143 245/395/143 228/396/143
f 228/396/144 245/395/144 256/397/144 227/398/144
f 227/398/145 256/397/145 244/399/145 226/400/145
f 226/400/146 244/399/146 258/401/146 225/402/146
f 225/402/147 258/401/147 243/403/147 223/404/147
f 223/385/148 231/388/148 233/405/148 225/406/148
f 225/406/149 233/405/149 234/407/149 226/408/149
f 226/408/150 234/407/150 235/409/150 227/410/150
f 227/410/151 235/409/151 236/411/151 228/412/151
f 228/412/152 236/411/152 237/413/152 229/414/152
f 229/414/153 237/413/153 238/415/153 230/416/153
f 230/416/154 238/415/154 232/381/154 224/380/154
f 215/417/35 232/418/35 238/419/35 217/420/35
f 217/420/35 238/419/35 237/421/35 218/422/35
f 218/422/35 237/421/35 236/423/35 219/424/35
f 219/424/35 236/423/35 235/425/35 220/426/35
f 220/426/35 235/425/35 234/427/35 221/428/35
f 221/428/35 234/427/35 233/429/35 222/430/35
f 222/430/35 233/429/35 231/362/35 216/361/35
f 207/431/137 259/432/137 252/433/137 216/434/137
f 242/435/137 254/436/137 219/437/137 220/438/137
f 241/439/137 253/440/137 221/441/137 222/442/137
f 250/443/137 255/444/137 217/445/137 218/446/137
f 251/447/1 260/390/1 224/389/1 210/448/1
f 248/449/89 259/450/89 207/431/89 211/451/89 212/452/89
f 254/436/137 250/443/137 218/446/137 219/437/137
f 253/440/137 242/435/137 220/438/137 221/441/137
f 255/444/137 249/368/137 215/367/137 217/445/137
f 252/433/137 241/439/137 222/442/137 216/434/137
f 243/403/155 248/453/155 212/454/155 223/404/155
f 239/455/156 251/447/156 210/448/156 213/456/156
f 266/457/77 286/458/77 271/459/77 262/460/77
f 264/461/77 269/462/77 263/463/77 261/464/77
f 270/465/137 261/466/137 240/369/137 249/368/137
f 287/467/77 264/461/77 261/464/77 270/468/77
f 261/466/137 263/469/137 247/373/137 240/369/137
f 268/470/32 239/378/32 247/377/32 263/469/32 269/471/32
f 265/472/157 264/473/157 287/474/157 279/475/157
f 264/473/158 265/472/158 268/476/158 269/477/158
f 278/478/159 286/479/159 266/480/159 267/481/159
f 279/482/141 285/483/141 246/391/141 260/390/141
f 285/483/142 284/484/142 257/393/142 246/391/142
f 284/484/143 283/485/143 245/395/143 257/393/143
f 283/485/144 282/486/144 256/397/144 245/395/144
f 282/486/145 281/487/145 244/399/145 256/397/145
f 281/487/146 280/488/146 258/401/146 244/399/146
f 280/488/147 278/489/147 243/403/147 258/401/147
f 278/478/160 280/490/160 288/491/160 286/479/160
f 280/490/161 281/492/161 289/493/161 288/491/161
f 281/492/162 282/494/162 290/495/162 289/493/162
f 282/494/163 283/496/163 291/497/163 290/495/163
f 283/496/164 284/498/164 292/499/164 291/497/164
f 284/498/165 285/500/165 293/501/165 292/499/165
f 285/500/166 279/475/166 287/474/166 293/501/166
f 270/502/77 272/503/77 293/504/77 287/505/77
f 272/503/77 273/506/77 292/507/77 293/504/77
f 273/506/77 274/508/77 291/509/77 292/507/77
f 274/508/77 275/510/77 290/511/77 291/509/77
f 275/510/77 276/512/77 289/513/77 290/511/77
f 276/512/77 277/514/77 288/515/77 289/513/77
f 277/514/77 271/459/77 286/458/77 288/515/77
f 262/516/137 271/517/137 252/433/137 259/432/137
f 242/435/137 275/518/137 274/519/137 254/436/137
f 241/439/137 277/520/137 276/521/137 253/440/137
f 250/443/137 273/522/137 272/523/137 255/444/137
f 251/447/1 265/524/1 279/482/1 260/390/1
f 248/449/89 267/525/89 266/526/89 262/516/89 259/450/89
f 254/436/137 274/519/137 273/522/137 250/443/137
f 253/440/137 276/521/137 275/518/137 242/435/137
f 255/444/137 272/523/137 270/465/137 249/368/137
f 252/433/137 271/517/137 277/520/137 241/439/137
f 243/403/155 278/489/155 267/527/155 248/453/155
f 239/455/156 268/528/156 265/524/156 251/447/156
s 1
f 300/529/167 322/530/168 324/531/169 309/532/167
f 297/533/170 295/534/171 304/535/172 306/536/170
f 296/537/173 302/538/35 311/539/35 305/540/174
f 301/541/35 299/542/35 308/543/35 310/544/35
f 295/534/171 300/529/167 309/532/167 304/535/172
f 299/542/89 298/545/89 307/546/89 308/543/89
f 321/547/175 328/548/176 330/549/177 323/550/178
f 302/538/35 294/551/35 303/552/35 311/539/35
f 294/551/35 301/541/35 310/544/35 303/552/35
f 309/553/137 324/554/137 325/555/137 318/556/137
f 306/557/137 304/558/137 313/559/137 315/560/137
f 305/561/137 311/562/137 320/563/137 314/564/137
f 310/565/137 308/566/137 317/567/137 319/568/137
f 304/558/137 309/553/137 318/556/137 313/559/137
f 308/566/137 307/569/137 316/570/137 317/567/137
f 323/571/137 330/572/137 331/573/137 326/574/137
f 311/562/137 303/575/137 312/576/137 320/563/137
f 303/575/137 310/565/137 319/568/137 312/576/137
f 324/531/169 322/530/168 321/547/175 323/550/178
f 325/555/137 324/554/137 323/571/137 326/574/137
f 329/577/137 305/561/137 314/564/137 332/578/137
f 327/579/179 329/580/180 330/549/177 328/548/176
f 329/577/137 332/578/137 331/573/137 330/572/137
f 327/579/179 296/537/173 305/540/174 329/580/180
f 337/581/181 344/582/181 357/583/182 355/584/183
f 297/533/170 306/536/170 341/585/184 334/586/185
f 335/587/186 342/588/187 346/589/77 339/590/77
f 338/591/77 345/592/77 343/593/77 336/594/77
f 334/586/185 341/585/184 344/582/181 337/581/181
f 336/594/89 343/593/89 307/546/89 298/545/89
f 354/595/188 356/596/189 363/597/190 361/598/191
f 339/590/77 346/589/77 340/599/77 333/600/77
f 333/600/77 340/599/77 345/592/77 338/591/77
f 344/601/137 351/602/137 358/603/137 357/604/137
f 306/557/137 315/560/137 348/605/137 341/606/137
f 342/607/137 349/608/137 353/609/137 346/610/137
f 345/611/137 352/612/137 350/613/137 343/614/137
f 341/606/137 348/605/137 351/602/137 344/601/137
f 343/614/137 350/613/137 316/570/137 307/569/137
f 356/615/137 359/616/137 364/617/137 363/618/137
f 346/610/137 353/609/137 347/619/137 340/620/137
f 340/620/137 347/619/137 352/612/137 345/611/137
f 357/583/182 356/596/189 354/595/188 355/584/183
f 358/603/137 359/616/137 356/615/137 357/604/137
f 362/621/137 365/622/137 349/608/137 342/607/137
f 360/623/192 361/598/191 363/597/190 362/624/193
f 362/621/137 363/618/137 364/617/137 365/622/137
f 360/623/192 362/624/193 342/588/187 335/587/186
