# Blender v3.6.0 OBJ File: 'AllModules_Unreal.blend'
# www.blender.org
mtllib Door_Frame_Square_Side.mtl
o Door_Frame_Square_Side_Cube.013
v -1.200000 0.000000 0.253425
v -1.200000 5.000000 0.253425
v 1.000000 5.000000 0.253425
v -0.366102 0.000000 0.175866
v 1.000000 3.497002 0.175866
v -0.366102 3.155642 0.175866
v -0.024743 3.497002 0.175866
v -1.200000 4.415903 0.253425
v 1.000000 3.721195 0.253425
v -0.606645 0.000000 0.253425
v -0.182727 3.721195 0.253425
v -0.606645 3.280032 0.253425
v -1.200000 0.000000 0.000000
v -1.200000 5.000000 0.000000
v 1.000000 5.000000 0.000000
v -0.366102 3.155642 0.000000
v -1.200000 4.415902 0.000000
v 1.000000 3.497002 0.000000
v 1.000000 3.685165 0.175866
v -0.564747 0.000000 0.175866
v -0.169138 3.685165 0.175866
v -0.564747 3.280032 0.175866
v -0.366102 0.000000 0.000000
v -0.024743 3.497002 0.000000
v -0.878652 5.000000 0.253425
v 0.087116 3.497002 0.175866
v -0.009969 3.721195 0.253425
v 0.087116 3.497002 0.000000
v -0.878652 5.000000 0.000000
v 0.087116 3.685165 0.175866
v 0.140175 3.740048 0.244950
v 0.140175 3.590328 0.203369
v 0.350255 3.740048 0.244950
v 0.350255 3.590328 0.203369
v 0.140175 3.590328 0.170451
v 0.140175 3.740048 0.170451
v 0.350255 3.740048 0.170451
v 0.350255 3.590328 0.170451
v -0.225121 0.000000 0.222119
v -0.225121 0.000000 0.000000
v -0.594680 0.000000 0.222119
v -0.594680 0.000000 0.000000
v -0.225121 0.251884 0.000000
v -0.225121 0.251884 0.222119
v -0.594680 0.660984 0.000000
v -0.594680 0.660984 0.222119
v 1.000000 -0.013425 0.201216
v 1.000000 -0.013425 0.000000
v -0.296173 -0.013425 0.201216
v -0.296173 -0.013425 0.000000
v 1.000000 0.057456 0.000000
v 1.000000 0.057456 0.176171
v -0.296173 0.057456 0.000000
v -0.296173 0.057456 0.176171
v -1.200000 0.000000 -0.253425
v -1.200000 5.000000 -0.253425
v 1.000000 5.000000 -0.253425
v -0.366102 0.000000 -0.175866
v 1.000000 3.497002 -0.175866
v -0.366102 3.155642 -0.175866
v -0.024743 3.497002 -0.175866
v -1.200000 4.415903 -0.253425
v 1.000000 3.721195 -0.253425
v -0.606645 0.000000 -0.253425
v -0.182727 3.721195 -0.253425
v -0.606645 3.280032 -0.253425
v 1.000000 3.685165 -0.175866
v -0.564747 0.000000 -0.175866
v -0.169138 3.685165 -0.175866
v -0.564747 3.280032 -0.175866
v -0.878652 5.000000 -0.253425
v 0.087116 3.497002 -0.175866
v -0.009969 3.721195 -0.253425
v 0.087116 3.685165 -0.175866
v 0.140175 3.740048 -0.244950
v 0.140175 3.590328 -0.203369
v 0.350255 3.740048 -0.244950
v 0.350255 3.590328 -0.203369
v 0.140175 3.590328 -0.170451
v 0.140175 3.740048 -0.170451
v 0.350255 3.740048 -0.170451
v 0.350255 3.590328 -0.170451
v -0.225121 0.000000 -0.222119
v -0.594680 0.000000 -0.222119
v -0.225121 0.251884 -0.222119
v -0.594680 0.660984 -0.222119
v 1.000000 -0.013425 -0.201216
v -0.296173 -0.013425 -0.201216
v 1.000000 0.057456 -0.176171
v -0.296173 0.057456 -0.176171
v 0.087116 3.721195 -0.253425
v 0.087116 5.000000 0.253425
v 0.087116 5.000000 -0.253425
v 0.087116 5.000000 0.000000
v 0.087116 3.721195 0.253425
v 0.005759 -0.013425 0.000000
v 0.005759 0.057456 0.176171
v 0.005759 0.057456 -0.176171
v 0.005759 -0.013425 0.201216
v 0.005759 -0.013425 -0.201216
v 0.005759 0.057456 0.000000
vt 0.904937 0.126699
vt 0.999173 0.126699
vt 0.999173 0.001699
vt 0.904938 0.001699
vt 0.447249 0.705272
vt 0.416213 0.705272
vt 0.416213 0.658339
vt 0.447249 0.658339
vt 0.336263 0.705272
vt 0.336263 0.658339
vt 0.643183 0.126699
vt 0.643183 0.001699
vt 0.687002 0.001699
vt 0.687002 0.126699
vt 0.568482 0.406186
vt 0.708399 0.479276
vt 0.164445 0.479276
vt 0.164445 0.406186
vt 0.780349 0.479276
vt 0.622825 0.353967
vt 0.780349 0.439692
vt 0.622825 0.332687
vt 0.968896 0.550052
vt 0.881193 0.550052
vt 0.881193 0.511044
vt 0.968896 0.511044
vt 0.155063 0.550052
vt 0.155063 0.511044
vt 0.311903 0.001699
vt 0.311903 0.126699
vt 0.996089 0.550052
vt 0.996089 0.511044
vt -0.268916 0.705272
vt -0.268916 0.658339
vt 1.155062 0.550052
vt 1.155063 0.511044
vt 0.780349 0.208278
vt 0.780349 0.320728
vt 0.622825 0.320728
vt 0.622825 0.208278
vt 0.628688 0.705272
vt 0.628688 0.658339
vt 0.354020 0.126699
vt 0.621724 0.126699
vt 0.621725 0.001699
vt 0.354020 0.001699
vt 0.565207 0.132683
vt 0.434627 0.132683
vt 0.434627 0.085749
vt 0.565207 0.085749
vt 0.565207 0.132683
vt 0.565207 0.085749
vt 0.434627 0.085749
vt 0.434627 0.132683
vt 0.000000 0.000000
vt 0.000000 0.000000
vt 0.000000 0.000000
vt 0.000000 0.000000
vt 0.052943 0.181362
vt 0.024033 0.181362
vt 0.024033 0.368958
vt 0.052943 0.368958
vt 0.357971 0.216161
vt 0.433756 0.216161
vt 0.433756 0.267815
vt 0.357971 0.351709
vt 0.479307 0.216161
vt 0.479307 0.267815
vt 0.000000 0.000000
vt 0.000000 0.000000
vt 0.000000 0.000000
vt 0.000000 0.000000
vt 0.000000 0.000000
vt 0.000000 0.000000
vt 0.672680 0.536348
vt 0.672680 0.508353
vt 0.269042 0.508353
vt 0.269042 0.536348
vt 0.371368 0.101019
vt 0.371368 0.088914
vt 0.600610 0.088914
vt 0.600610 0.101019
vt 0.000000 0.000000
vt 0.000000 0.000000
vt 0.000000 0.000000
vt 0.000000 0.000000
vt 0.904938 0.001699
vt 0.999173 0.001699
vt 0.447249 0.705272
vt 0.447249 0.658339
vt 0.416213 0.658339
vt 0.416213 0.705272
vt 0.336263 0.658339
vt 0.336263 0.705272
vt 0.687002 0.001699
vt 0.643183 0.001699
vt 0.568482 0.406186
vt 0.164445 0.406186
vt 0.164445 0.479276
vt 0.708399 0.479276
vt 0.780349 0.479276
vt 0.622825 0.353967
vt 0.780349 0.439692
vt 0.622825 0.332687
vt 0.968896 0.550052
vt 0.881193 0.550052
vt 0.155063 0.550052
vt 0.311903 0.001699
vt 0.996089 0.550052
vt -0.268916 0.658339
vt -0.268916 0.705272
vt 1.155062 0.550052
vt 0.780349 0.208278
vt 0.622825 0.208278
vt 0.622825 0.320728
vt 0.780349 0.320728
vt 0.628688 0.705272
vt 0.628688 0.658339
vt 0.354020 0.001699
vt 0.621725 0.001699
vt 0.565207 0.132683
vt 0.565207 0.085749
vt 0.434627 0.085749
vt 0.434627 0.132683
vt 0.565207 0.132683
vt 0.434627 0.132683
vt 0.434627 0.085749
vt 0.565207 0.085749
vt 0.000000 0.000000
vt 0.000000 0.000000
vt 0.052943 0.181362
vt 0.052943 0.368958
vt 0.357971 0.216161
vt 0.357971 0.351709
vt 0.433756 0.267815
vt 0.433756 0.216161
vt 0.000000 0.000000
vt 0.000000 0.000000
vt 0.000000 0.000000
vt 0.672680 0.536348
vt 0.269042 0.536348
vt 0.371368 0.101019
vt 0.600610 0.101019
vt 0.600610 0.088914
vt 0.371368 0.088914
vt 0.000000 0.000000
vt 0.000000 0.000000
vt 0.146464 0.508353
vt 0.146464 0.536348
vt 0.146464 0.536348
vt 0.670227 0.088914
vt 0.670227 0.101019
vt 0.670227 0.101019
vt 0.670227 0.088914
vt 1.289314 0.938138
vt 1.289314 0.999850
vt -1.765336 0.999850
vt -1.765336 0.938139
vt 1.692865 0.999850
vt 1.692865 0.938138
vt 1.850716 0.999850
vt 1.850716 0.938138
vt 2.765336 0.999850
vt 1.938636 0.999850
vt 2.765336 0.938138
vt 1.289314 0.938138
vt -1.765336 0.938139
vt -1.765336 0.999850
vt 1.289314 0.999850
vt 1.692865 0.999850
vt 1.692865 0.938138
vt 1.850716 0.999850
vt 1.850716 0.938138
vt 2.765336 0.999850
vt 2.765336 0.938138
vt 1.938636 0.999850
vn 0.0000 1.0000 0.0000
vn 0.0000 0.0000 1.0000
vn -1.0000 0.0000 0.0000
vn 0.7071 -0.7071 0.0000
vn 1.0000 0.0000 0.0000
vn 0.0000 -1.0000 0.0000
vn 0.0000 -0.2676 0.9635
vn 0.0000 0.0000 -1.0000
vn 0.7421 0.6703 0.0000
vn 0.0000 0.3332 0.9429
vn 0.0000 -0.2676 -0.9635
vn 0.0000 0.3332 -0.9429
vn 0.8798 0.0000 0.4753
vn 0.6627 -0.6417 0.3861
vn 0.0000 -0.9069 0.4213
vn 0.8798 0.0000 -0.4753
vn 0.6627 -0.6417 -0.3861
vn 0.0000 -0.9069 -0.4213
usemtl MI_Trim_01
s off
f 29/1/1 14/2/1 2/3/1 25/4/1
f 30/5/2 21/6/2 7/7/2 26/8/2
f 21/6/2 22/9/2 6/10/2 7/7/2
f 17/11/3 8/12/3 2/13/3 14/14/3
f 12/15/2 8/16/2 1/17/2 10/18/2
f 2/19/2 8/16/2 12/15/2 11/20/2
f 25/21/2 2/19/2 11/20/2 27/22/2
f 7/23/4 6/24/4 16/25/4 24/26/4
f 6/24/5 4/27/5 23/28/5 16/25/5
f 1/29/3 8/12/3 17/11/3 13/30/3
f 26/31/6 7/23/6 24/26/6 28/32/6
f 6/10/2 22/9/2 20/33/2 4/34/2
f 5/35/6 26/31/6 28/32/6 18/36/6
f 3/37/2 92/38/2 95/39/2 9/40/2
f 19/41/2 30/5/2 26/8/2 5/42/2
f 15/43/1 94/44/1 92/45/1 3/46/1
f 32/47/7 34/48/7 33/49/7 31/50/7
f 35/51/8 36/52/8 37/53/8 38/54/8
f 31/50/3 36/52/3 35/51/3 32/47/3
f 34/48/5 38/54/5 37/53/5 33/49/5
f 33/49/1 37/53/1 36/52/1 31/50/1
f 32/47/6 35/51/6 38/54/6 34/48/6
f 39/55/6 41/56/6 42/57/6 40/58/6
f 44/59/9 43/60/9 45/61/9 46/62/9
f 41/63/2 39/64/2 44/65/2 46/66/2
f 39/64/5 40/67/5 43/68/5 44/65/5
f 42/57/3 41/56/3 46/69/3 45/70/3
f 47/71/6 99/72/6 96/73/6 48/74/6
f 52/75/1 51/76/1 101/77/1 97/78/1
f 47/79/10 52/80/10 97/81/10 99/82/10
f 49/83/3 54/84/3 53/85/3 50/86/3
f 29/1/1 71/87/1 56/88/1 14/2/1
f 74/89/8 72/90/8 61/91/8 69/92/8
f 69/92/8 61/91/8 60/93/8 70/94/8
f 17/11/3 14/14/3 56/95/3 62/96/3
f 66/97/8 64/98/8 55/99/8 62/100/8
f 56/101/8 65/102/8 66/97/8 62/100/8
f 71/103/8 73/104/8 65/102/8 56/101/8
f 61/105/4 24/26/4 16/25/4 60/106/4
f 60/106/5 16/25/5 23/28/5 58/107/5
f 55/108/3 13/30/3 17/11/3 62/96/3
f 72/109/6 28/32/6 24/26/6 61/105/6
f 60/93/8 58/110/8 68/111/8 70/94/8
f 59/112/6 18/36/6 28/32/6 72/109/6
f 57/113/8 63/114/8 91/115/8 93/116/8
f 67/117/8 59/118/8 72/90/8 74/89/8
f 15/43/1 57/119/1 93/120/1 94/44/1
f 76/121/11 75/122/11 77/123/11 78/124/11
f 79/125/2 82/126/2 81/127/2 80/128/2
f 75/122/3 76/121/3 79/125/3 80/128/3
f 78/124/5 77/123/5 81/127/5 82/126/5
f 77/123/1 75/122/1 80/128/1 81/127/1
f 76/121/6 78/124/6 82/126/6 79/125/6
f 83/129/6 40/58/6 42/57/6 84/130/6
f 85/131/9 86/132/9 45/61/9 43/60/9
f 84/133/8 86/134/8 85/135/8 83/136/8
f 83/136/5 85/135/5 43/68/5 40/67/5
f 42/57/3 45/70/3 86/137/3 84/130/3
f 87/138/6 48/74/6 96/73/6 100/139/6
f 89/140/1 98/141/1 101/77/1 51/76/1
f 87/142/12 100/143/12 98/144/12 89/145/12
f 88/146/3 50/86/3 53/85/3 90/147/3
f 93/116/8 91/115/8 73/104/8 71/103/8
f 92/45/1 94/44/1 29/1/1 25/4/1
f 94/44/1 93/120/1 71/87/1 29/1/1
f 95/39/2 92/38/2 25/21/2 27/22/2
f 100/139/6 96/73/6 50/86/6 88/146/6
f 97/78/1 101/77/1 53/148/1 54/149/1
f 101/77/1 98/141/1 90/150/1 53/148/1
f 99/82/10 97/81/10 54/151/10 49/152/10
f 98/144/12 100/143/12 88/153/12 90/154/12
f 96/73/6 99/72/6 49/83/6 50/86/6
usemtl MI_Trim_02
f 22/155/13 12/156/13 10/157/13 20/158/13
f 11/159/14 12/156/14 22/155/14 21/160/14
f 27/161/15 11/159/15 21/160/15 30/162/15
f 9/163/15 95/164/15 30/162/15 19/165/15
f 70/166/16 68/167/16 64/168/16 66/169/16
f 65/170/17 69/171/17 70/166/17 66/169/17
f 73/172/18 74/173/18 69/171/18 65/170/18
f 63/174/18 67/175/18 74/173/18 91/176/18
f 30/162/15 95/164/15 27/161/15
f 91/176/18 74/173/18 73/172/18
