# Blender v3.6.0 OBJ File: 'AllModules_Unreal.blend'
# www.blender.org
mtllib Door_Frame_A_Middle.mtl
o Door_Frame_A_Middle_Cube.032
v 0.000000 -0.021077 0.346677
v 0.000000 -0.032013 0.346677
v 0.000000 0.055762 0.275272
v -1.000000 -0.021077 0.346677
v -1.000000 -0.032013 0.346677
v -1.000000 0.055762 0.275272
v 1.000000 -0.021077 0.346677
v 1.000000 -0.032013 0.346677
v 1.000000 0.055762 0.275272
v 1.000000 3.834151 0.400000
v -1.000000 3.834151 0.400000
v 1.000000 3.892175 0.400000
v 1.000000 5.039759 0.400000
v 1.000000 4.562099 0.400000
v -1.000000 5.039759 0.000000
v 1.000000 5.039759 0.000000
v -1.000000 4.562099 0.400000
v -1.000000 3.892435 0.400000
v -1.000000 5.039759 0.400000
v 0.000000 -0.021077 0.000000
v -1.000000 -0.021077 0.000000
v 1.000000 -0.021077 0.000000
v 0.000000 0.055762 0.000000
v -1.000000 0.055762 0.000000
v 1.000000 0.055762 0.000000
v 1.000000 3.834151 0.000000
v -1.000000 3.834151 0.000000
v 0.000000 -0.021077 -0.346677
v 0.000000 -0.032013 -0.346677
v 0.000000 0.055762 -0.275272
v -1.000000 -0.021077 -0.346677
v -1.000000 -0.032013 -0.346677
v -1.000000 0.055762 -0.275272
v 1.000000 -0.021077 -0.346677
v 1.000000 -0.032013 -0.346677
v 1.000000 0.055762 -0.275272
v 1.000000 3.834151 -0.400000
v -1.000000 3.834151 -0.400000
v 1.000000 3.892175 -0.400000
v 1.000000 5.039759 -0.400000
v 1.000000 4.562099 -0.400000
v -1.000000 4.562099 -0.400000
v -1.000000 3.892435 -0.400000
v -1.000000 5.039759 -0.400000
vt 0.356460 0.530645
vt 0.356460 0.530645
vt 0.545297 0.530645
vt 0.545297 0.530645
vt 0.356460 0.537049
vt 0.545297 0.537049
vt 0.356460 0.561735
vt 0.545297 0.561735
vt 0.356460 0.530645
vt 0.356460 0.530645
vt 0.356460 0.537049
vt 0.356460 0.561735
vt -0.085520 0.634140
vt -0.085520 0.658622
vt 0.094401 0.658622
vt 0.094401 0.634140
vt 0.545297 0.564281
vt 0.356460 0.564281
vt 0.356460 0.564281
vt 0.356460 0.530645
vt 0.545297 0.530645
vt 0.545297 0.530645
vt 0.356460 0.530645
vt 0.356460 0.537049
vt 0.545297 0.537049
vt 0.356460 0.530645
vt 0.356460 0.530645
vt 0.356460 0.537049
vt 0.094401 0.658622
vt -0.085520 0.658622
vt 0.783679 1.000393
vt 0.789868 0.965504
vt 0.240026 0.965504
vt 0.230525 1.000393
vt 0.752824 0.845215
vt 0.249618 0.845215
vt 0.249618 0.752592
vt 0.752824 0.752592
vt 0.074486 0.486653
vt 0.116223 0.486652
vt 0.116223 0.736935
vt 0.074486 0.736935
vt 0.174735 0.486652
vt 0.174735 0.736935
vt 0.783679 1.000393
vt 0.230525 1.000393
vt 0.240026 0.965504
vt 0.789868 0.965504
vt 0.752824 0.752592
vt 0.249618 0.752592
vt 0.074486 0.486653
vt 0.074486 0.736935
vt 0.116223 0.736935
vt 0.116223 0.486652
vt 0.174735 0.486652
vt 0.174735 0.736935
vn 0.0000 0.0000 -1.0000
vn 0.0000 0.6311 0.7757
vn 0.0000 1.0000 -0.0000
vn 0.0000 -1.0000 -0.0000
vn 0.0000 0.0000 1.0000
vn 0.0000 0.6311 -0.7757
usemtl MI_Trim_01
s off
f 5/1/1 4/2/1 1/3/1 2/4/1
f 6/5/2 5/1/2 2/4/2 3/6/2
f 24/7/3 6/5/3 3/6/3 23/8/3
f 8/9/1 2/4/1 1/3/1 7/10/1
f 9/11/2 3/6/2 2/4/2 8/9/2
f 25/12/3 23/8/3 3/6/3 9/11/3
f 26/13/4 10/14/4 11/15/4 27/16/4
f 7/10/4 1/3/4 20/17/4 22/18/4
f 4/2/4 21/19/4 20/17/4 1/3/4
f 32/20/5 29/21/5 28/22/5 31/23/5
f 33/24/6 30/25/6 29/21/6 32/20/6
f 24/7/3 23/8/3 30/25/3 33/24/3
f 35/26/5 34/27/5 28/22/5 29/21/5
f 36/28/6 35/26/6 29/21/6 30/25/6
f 25/12/3 36/28/3 30/25/3 23/8/3
f 26/13/4 27/16/4 38/29/4 37/30/4
f 34/27/4 22/18/4 20/17/4 28/22/4
f 31/23/4 28/22/4 20/17/4 21/19/4
usemtl MI_Trim_02
f 10/31/5 12/32/5 18/33/5 11/34/5
f 16/35/3 15/36/3 19/37/3 13/38/3
f 19/39/5 17/40/5 14/41/5 13/42/5
f 18/43/5 12/44/5 14/41/5 17/40/5
f 37/45/1 38/46/1 43/47/1 39/48/1
f 16/35/3 40/49/3 44/50/3 15/36/3
f 44/51/1 40/52/1 41/53/1 42/54/1
f 43/55/1 42/54/1 41/53/1 39/56/1
