# Blender v3.6.0 OBJ File: 'AllModules_Unreal.blend'
# www.blender.org
mtllib Door_Frame_Square_Middle.mtl
o Door_Frame_Square_Middle_Cube.018
v 0.000000 5.000000 0.253425
v 0.000000 3.497002 0.175866
v 0.000000 3.721195 0.253425
v 0.000000 5.000000 0.000000
v 0.000000 3.497002 0.000000
v 0.000000 3.685165 0.175866
v -1.000000 3.497002 0.175866
v -1.000000 3.497002 0.000000
v -1.000000 3.685165 0.175866
v 0.000000 -0.013425 0.201216
v 0.000000 -0.013425 0.000000
v 0.000000 0.057456 0.000000
v 0.000000 0.057456 0.176171
v 0.000000 5.000000 -0.253425
v 0.000000 3.497002 -0.175866
v 0.000000 3.721195 -0.253425
v 0.000000 3.685165 -0.175866
v -1.000000 3.497002 -0.175866
v -1.000000 3.685165 -0.175866
v 0.000000 -0.013425 -0.201216
v 0.000000 0.057456 -0.176171
v -1.000000 3.721195 -0.253425
v -1.000000 5.000000 0.253425
v -1.000000 5.000000 -0.253425
v -1.000000 5.000000 0.000000
v -1.000000 3.721195 0.253425
v -1.000000 -0.013425 0.000000
v -1.000000 0.057456 0.176171
v -1.000000 0.057456 -0.176171
v -1.000000 -0.013425 0.201216
v -1.000000 -0.013425 -0.201216
v -1.000000 0.057456 0.000000
v 1.000000 3.497002 0.175866
v 1.000000 3.497002 0.000000
v 1.000000 3.685165 0.175866
v 1.000000 3.497002 -0.175866
v 1.000000 3.685165 -0.175866
v 1.000000 3.721195 -0.253425
v 1.000000 5.000000 0.253425
v 1.000000 5.000000 -0.253425
v 1.000000 5.000000 0.000000
v 1.000000 3.721195 0.253425
v 1.000000 -0.013425 0.000000
v 1.000000 0.057456 0.176171
v 1.000000 0.057456 -0.176171
v 1.000000 -0.013425 0.201216
v 1.000000 -0.013425 -0.201216
v 1.000000 0.057456 0.000000
v -0.105040 3.740048 0.244950
v -0.105040 3.590328 0.203369
v 0.105040 3.740048 0.244950
v 0.105040 3.590328 0.203369
v -0.105040 3.590328 0.170451
v -0.105040 3.740048 0.170451
v 0.105040 3.740048 0.170451
v 0.105040 3.590328 0.170451
v -0.105040 3.740048 -0.244950
v -0.105040 3.590328 -0.203369
v 0.105040 3.740048 -0.244950
v 0.105040 3.590328 -0.203369
v -0.105040 3.590328 -0.170451
v -0.105040 3.740048 -0.170451
v 0.105040 3.740048 -0.170451
v 0.105040 3.590328 -0.170451
vt 1.155062 0.550052
vt 0.996089 0.550052
vt 0.996089 0.511044
vt 1.155063 0.511044
vt 0.780349 0.208278
vt 0.780349 0.320728
vt 0.622825 0.320728
vt 0.622825 0.208278
vt 0.628688 0.705272
vt 0.447249 0.705272
vt 0.447249 0.658339
vt 0.628688 0.658339
vt 0.354020 0.126699
vt 0.621724 0.126699
vt 0.621725 0.001699
vt 0.354020 0.001699
vt 0.000000 0.000000
vt 0.000000 0.000000
vt 0.000000 0.000000
vt 0.000000 0.000000
vt 0.712586 0.536348
vt 0.712586 0.508353
vt 0.333425 0.508353
vt 0.333425 0.536348
vt 0.274606 0.101019
vt 0.274606 0.088914
vt 0.621005 0.088914
vt 0.621005 0.101019
vt 1.155062 0.550052
vt 0.996089 0.550052
vt 0.780349 0.208278
vt 0.622825 0.208278
vt 0.622825 0.320728
vt 0.780349 0.320728
vt 0.628688 0.705272
vt 0.628688 0.658339
vt 0.447249 0.658339
vt 0.447249 0.705272
vt 0.354020 0.001699
vt 0.621725 0.001699
vt 0.000000 0.000000
vt 0.000000 0.000000
vt 0.712586 0.536348
vt 0.333425 0.536348
vt 0.274606 0.101019
vt 0.621005 0.101019
vt 0.621005 0.088914
vt 0.274606 0.088914
vt 0.996089 0.511044
vt 0.996089 0.550052
vt 0.622825 0.320728
vt 0.780349 0.320728
vt 0.447249 0.658339
vt 0.447249 0.705272
vt 0.621725 0.001699
vt 0.621724 0.126699
vt 0.000000 0.000000
vt 0.000000 0.000000
vt 0.333425 0.536348
vt 0.333425 0.508353
vt 0.621005 0.101019
vt 0.621005 0.088914
vt 0.996089 0.550052
vt 0.780349 0.320728
vt 0.622825 0.320728
vt 0.447249 0.705272
vt 0.447249 0.658339
vt 0.621725 0.001699
vt 0.000000 0.000000
vt 0.333425 0.536348
vt 0.621005 0.088914
vt 0.621005 0.101019
vt 0.565207 0.132683
vt 0.434627 0.132683
vt 0.434627 0.085749
vt 0.565207 0.085749
vt 0.565207 0.132683
vt 0.565207 0.085749
vt 0.434627 0.085749
vt 0.434627 0.132683
vt 0.565207 0.132683
vt 0.565207 0.085749
vt 0.434627 0.085749
vt 0.434627 0.132683
vt 0.565207 0.132683
vt 0.434627 0.132683
vt 0.434627 0.085749
vt 0.565207 0.085749
vt 2.765336 0.999850
vt 1.938636 0.999850
vt 1.850716 0.938138
vt 2.765336 0.938138
vt 2.765336 0.999850
vt 2.765336 0.938138
vt 1.850716 0.938138
vt 1.938636 0.999850
vt 1.850716 0.938138
vt 1.938636 0.999850
vt 1.938636 0.999850
vt 1.850716 0.938138
vn 0.0000 -1.0000 0.0000
vn 0.0000 0.0000 1.0000
vn 0.0000 1.0000 0.0000
vn 0.0000 0.3332 0.9429
vn 0.0000 0.0000 -1.0000
vn 0.0000 0.3332 -0.9429
vn 0.0000 -0.2676 0.9635
vn -1.0000 -0.0000 0.0000
vn 1.0000 0.0000 0.0000
vn 0.0000 -0.2676 -0.9635
vn 0.0000 -0.9069 0.4213
vn 0.0000 -0.9069 -0.4213
usemtl MI_Trim_01
s off
f 2/1/1 7/2/1 8/3/1 5/4/1
f 1/5/2 23/6/2 26/7/2 3/8/2
f 6/9/2 9/10/2 7/11/2 2/12/2
f 4/13/3 25/14/3 23/15/3 1/16/3
f 10/17/1 30/18/1 27/19/1 11/20/1
f 13/21/3 12/22/3 32/23/3 28/24/3
f 10/25/4 13/26/4 28/27/4 30/28/4
f 15/29/1 5/4/1 8/3/1 18/30/1
f 14/31/5 16/32/5 22/33/5 24/34/5
f 17/35/5 15/36/5 18/37/5 19/38/5
f 4/13/3 14/39/3 24/40/3 25/14/3
f 20/41/1 11/20/1 27/19/1 31/42/1
f 21/43/3 29/44/3 32/23/3 12/22/3
f 20/45/6 31/46/6 29/47/6 21/48/6
f 2/1/1 5/4/1 34/49/1 33/50/1
f 1/5/2 3/8/2 42/51/2 39/52/2
f 6/9/2 2/12/2 33/53/2 35/54/2
f 4/13/3 1/16/3 39/55/3 41/56/3
f 10/17/1 11/20/1 43/57/1 46/58/1
f 13/21/3 44/59/3 48/60/3 12/22/3
f 10/25/4 46/61/4 44/62/4 13/26/4
f 15/29/1 36/63/1 34/49/1 5/4/1
f 14/31/5 40/64/5 38/65/5 16/32/5
f 17/35/5 37/66/5 36/67/5 15/36/5
f 4/13/3 41/56/3 40/68/3 14/39/3
f 20/41/1 47/69/1 43/57/1 11/20/1
f 21/43/3 12/22/3 48/60/3 45/70/3
f 20/45/6 21/48/6 45/71/6 47/72/6
f 50/73/7 52/74/7 51/75/7 49/76/7
f 53/77/5 54/78/5 55/79/5 56/80/5
f 49/76/8 54/78/8 53/77/8 50/73/8
f 52/74/9 56/80/9 55/79/9 51/75/9
f 51/75/3 55/79/3 54/78/3 49/76/3
f 50/73/1 53/77/1 56/80/1 52/74/1
f 58/81/10 57/82/10 59/83/10 60/84/10
f 61/85/2 64/86/2 63/87/2 62/88/2
f 57/82/8 58/81/8 61/85/8 62/88/8
f 60/84/9 59/83/9 63/87/9 64/86/9
f 59/83/3 57/82/3 62/88/3 63/87/3
f 58/81/1 60/84/1 64/86/1 61/85/1
usemtl MI_Trim_02
f 3/89/11 26/90/11 9/91/11 6/92/11
f 16/93/12 17/94/12 19/95/12 22/96/12
f 3/89/11 6/92/11 35/97/11 42/98/11
f 16/93/12 38/99/12 37/100/12 17/94/12
