# Blender v3.6.0 OBJ File: 'AllModules_Unreal.blend'
# www.blender.org
mtllib Door_Frame_A_Side.mtl
o Door_Frame_A_Side_Cube.028
v -1.105721 -0.021077 0.346677
v -1.105721 -0.032013 0.346677
v 1.000000 -0.021077 0.346677
v 1.000000 -0.032013 0.346677
v -1.105721 0.055762 0.275272
v 1.000000 0.055762 0.275272
v -0.760395 -0.118961 0.400000
v -0.880787 0.741978 0.400000
v 1.000000 3.834151 0.400000
v -0.630375 0.088941 0.400000
v -0.880984 -0.098999 0.400000
v -0.892842 0.747683 0.347588
v -0.650642 0.116524 0.347588
v -0.506537 0.352158 0.347588
v -0.759107 1.003894 0.347588
v 0.607033 3.834151 0.400000
v -0.821265 0.561159 0.347588
v -0.684466 0.811289 0.347588
v 0.557545 3.892467 0.400000
v 1.000000 3.892175 0.400000
v -0.749572 0.104728 0.400000
v -0.999984 0.757765 0.400000
v -1.400000 -0.098999 0.400000
v -1.400000 4.562099 0.400000
v -1.400000 0.411026 0.400000
v -1.400000 0.767886 0.400000
v -1.400000 5.039759 0.400000
v 1.000000 5.039759 0.400000
v -1.400000 3.902590 0.400000
v 1.000000 4.562099 0.400000
v -0.136877 2.288064 0.400000
v -1.400000 2.335238 0.400000
v -0.221219 2.325116 0.400000
v 0.607032 3.967364 0.400000
v 0.607032 4.562099 0.400000
v 0.607033 3.892435 0.400000
v 0.607033 5.039759 0.400000
v -0.650642 0.116524 0.000000
v -0.506537 0.352158 0.000000
v -0.759107 1.003894 0.000000
v -0.684466 0.811289 0.000000
v -0.760395 -0.118961 0.000000
v 1.000000 3.834151 0.000000
v -0.630375 0.088941 0.000000
v -0.880787 0.741978 0.000000
v 0.607033 3.834151 0.000000
v -0.136877 2.288064 0.000000
v 1.000000 5.039759 0.000000
v -1.400000 5.039759 0.000000
v -1.400000 4.562099 0.000000
v -1.400000 3.902590 0.000000
v -1.400000 0.767886 0.000000
v -1.400000 0.411026 0.000000
v -1.400000 -0.098999 0.000000
v -1.400000 2.335238 0.000000
v 0.607033 5.039759 0.000000
v -1.105721 -0.021077 0.000000
v 1.000000 -0.021077 0.000000
v -1.105721 0.055762 0.000000
v 1.000000 0.055762 0.000000
v -1.105721 -0.021077 -0.346677
v -1.105721 -0.032013 -0.346677
v 1.000000 -0.021077 -0.346677
v 1.000000 -0.032013 -0.346677
v -1.105721 0.055762 -0.275272
v 1.000000 0.055762 -0.275272
v -0.760395 -0.118961 -0.400000
v -0.880787 0.741978 -0.400000
v 1.000000 3.834151 -0.400000
v -0.630375 0.088941 -0.400000
v -0.880984 -0.098999 -0.400000
v -0.892842 0.747683 -0.347588
v -0.650642 0.116524 -0.347588
v -0.506537 0.352158 -0.347588
v -0.759107 1.003894 -0.347588
v 0.607033 3.834151 -0.400000
v -0.821265 0.561159 -0.347588
v -0.684466 0.811289 -0.347588
v 0.557545 3.892467 -0.400000
v 1.000000 3.892175 -0.400000
v -0.749572 0.104728 -0.400000
v -0.999984 0.757765 -0.400000
v -1.400000 -0.098999 -0.400000
v -1.400000 4.562099 -0.400000
v -1.400000 0.411026 -0.400000
v -1.400000 0.767886 -0.400000
v -1.400000 5.039759 -0.400000
v 1.000000 5.039759 -0.400000
v -1.400000 3.902590 -0.400000
v 1.000000 4.562099 -0.400000
v -0.136877 2.288064 -0.400000
v -1.400000 2.335238 -0.400000
v -0.221219 2.325116 -0.400000
v 0.607032 3.967364 -0.400000
v 0.607032 4.562099 -0.400000
v 0.607033 3.892435 -0.400000
v 0.607033 5.039759 -0.400000
vt 0.167623 0.530645
vt 0.167623 0.530645
vt 0.545297 0.530645
vt 0.545297 0.530645
vt 0.167623 0.537049
vt 0.545297 0.537049
vt 0.167623 0.561735
vt 0.545297 0.561735
vt 0.201862 0.634140
vt 0.201862 0.658622
vt 0.357307 0.658622
vt 0.357307 0.634140
vt 0.034794 0.634140
vt 0.034794 0.658622
vt 0.100022 0.638407
vt 0.100022 0.650171
vt 0.036270 0.650171
vt 0.036270 0.638407
vt 0.083593 0.605661
vt 0.036923 0.653080
vt 0.000180 0.653080
vt 0.048650 0.606056
vt 0.000509 0.638407
vt 0.000509 0.650171
vt -0.064786 0.634140
vt -0.064786 0.658622
vt -0.041670 0.658622
vt -0.041670 0.634140
vt 0.166888 0.604719
vt 0.124513 0.653080
vt 0.126767 0.638407
vt 0.126767 0.650171
vt -0.122673 0.634140
vt -0.122673 0.658622
vt 0.115798 0.658622
vt 0.115798 0.634140
vt 0.167623 0.564281
vt 0.545297 0.564281
vt 0.167623 0.530645
vt 0.545297 0.530645
vt 0.545297 0.530645
vt 0.167623 0.530645
vt 0.167623 0.537049
vt 0.545297 0.537049
vt 0.357307 0.658622
vt 0.201862 0.658622
vt 0.034794 0.658622
vt 0.036270 0.650171
vt 0.100022 0.650171
vt 0.083593 0.605661
vt 0.048650 0.606056
vt 0.000180 0.653080
vt 0.036923 0.653080
vt 0.000509 0.650171
vt -0.041670 0.658622
vt -0.064786 0.658622
vt 0.166888 0.604719
vt 0.124513 0.653080
vt 0.126767 0.650171
vt -0.122673 0.658622
vt 0.115798 0.658622
vt 1.042832 1.000393
vt 1.041400 0.965504
vt 0.745236 0.965504
vt 0.754289 1.000393
vt 0.584872 0.965504
vt 0.593924 1.000393
vt 0.389519 0.965504
vt 0.394830 1.000393
vt 1.360981 1.000393
vt 1.367170 0.965504
vt 1.340875 0.965504
vt 1.331374 1.000393
vt 0.503688 0.420792
vt 0.477887 0.363152
vt 0.520849 0.363152
vt 0.520588 0.410055
vt 0.448642 0.400720
vt 0.447826 0.363152
vt 0.116223 0.361925
vt 0.116223 0.541140
vt 0.074486 0.541140
vt 0.074486 0.361925
vt 0.310804 0.363152
vt 0.311688 0.468768
vt 0.116223 0.575477
vt 0.168191 0.541140
vt 0.174735 0.541140
vt 0.174735 0.575477
vt 0.248369 0.845215
vt 0.087873 0.845215
vt 0.087873 0.752592
vt 0.248369 0.752592
vt 2.243667 0.845215
vt 2.048580 0.845215
vt 2.048580 0.752592
vt 2.243667 0.752592
vt 1.779176 0.845215
vt 1.779176 0.752592
vt 1.139037 0.845215
vt 0.498897 0.845215
vt 0.498897 0.752591
vt 1.139037 0.752592
vt 0.353147 0.845215
vt 0.353147 0.752591
vt 0.251309 0.845215
vt 0.251309 0.752591
vt 0.173850 0.363152
vt 0.174735 0.536816
vt 1.337563 0.965504
vt 0.074486 0.575477
vt 0.173850 0.362984
vt -0.749804 0.845215
vt -0.749804 0.752592
vt 1.042832 1.000393
vt 0.754289 1.000393
vt 0.745236 0.965504
vt 1.041400 0.965504
vt 0.593924 1.000393
vt 0.584872 0.965504
vt 0.394830 1.000393
vt 0.389519 0.965504
vt 1.360981 1.000393
vt 1.331374 1.000393
vt 1.340875 0.965504
vt 1.367170 0.965504
vt 0.503688 0.420792
vt 0.520588 0.410055
vt 0.520849 0.363152
vt 0.477887 0.363152
vt 0.448642 0.400720
vt 0.447826 0.363152
vt 0.116223 0.361925
vt 0.074486 0.361925
vt 0.074486 0.541140
vt 0.116223 0.541140
vt 0.310804 0.363152
vt 0.311688 0.468768
vt 0.116223 0.575477
vt 0.168191 0.541140
vt 0.174735 0.575477
vt 0.174735 0.541140
vt 0.248369 0.752592
vt 0.087873 0.752592
vt 2.243667 0.752592
vt 2.048580 0.752592
vt 1.779176 0.752592
vt 1.139037 0.752592
vt 0.498897 0.752591
vt 0.353147 0.752591
vt 0.251309 0.752591
vt 0.173850 0.363152
vt 0.174735 0.536816
vt 1.337563 0.965504
vt 0.074486 0.575477
vt 0.173850 0.362984
vt -0.749804 0.752592
vn 0.0000 0.0000 -1.0000
vn 0.0000 0.6311 0.7757
vn 0.0000 1.0000 -0.0000
vn 0.8479 -0.5302 -0.0000
vn 0.9337 0.3580 0.0000
vn 0.9324 0.3613 0.0000
vn 0.0000 0.0000 1.0000
vn 0.8531 -0.5217 0.0000
vn 0.0000 -1.0000 0.0000
vn 0.9011 -0.4336 0.0000
vn 0.0000 0.6311 -0.7757
vn -1.0000 0.0000 0.0000
usemtl MI_Trim_01
s off
f 2/1/1 1/2/1 3/3/1 4/4/1
f 5/5/2 2/1/2 4/4/2 6/6/2
f 59/7/3 5/5/3 6/6/3 60/8/3
f 44/9/4 10/10/4 7/11/4 42/12/4
f 45/13/5 8/14/5 10/10/5 44/9/5
f 41/15/6 18/16/6 14/17/6 39/18/6
f 17/19/7 18/20/7 15/21/7 12/22/7
f 38/23/8 39/18/8 14/17/8 13/24/8
f 43/25/9 9/26/9 16/27/9 46/28/9
f 13/29/7 14/30/7 18/20/7 17/19/7
f 40/31/6 15/32/6 18/16/6 41/15/6
f 8/14/10 45/13/10 47/33/10 31/34/10
f 31/35/10 47/36/10 46/28/10 16/27/10
f 1/2/9 57/37/9 58/38/9 3/3/9
f 62/39/7 64/40/7 63/41/7 61/42/7
f 65/43/11 66/44/11 64/40/11 62/39/11
f 59/7/3 60/8/3 66/44/3 65/43/3
f 44/9/4 42/12/4 67/45/4 70/46/4
f 45/13/5 44/9/5 70/46/5 68/47/5
f 41/15/6 39/18/6 74/48/6 78/49/6
f 77/50/1 72/51/1 75/52/1 78/53/1
f 38/23/8 73/54/8 74/48/8 39/18/8
f 43/25/9 46/28/9 76/55/9 69/56/9
f 73/57/1 77/50/1 78/53/1 74/58/1
f 40/31/6 41/15/6 78/49/6 75/59/6
f 68/47/10 91/60/10 47/33/10 45/13/10
f 91/61/10 76/55/10 46/28/10 47/36/10
f 61/42/9 63/41/9 58/38/9 57/37/9
usemtl MI_Trim_02
f 31/62/7 33/63/7 22/64/7 8/65/7
f 8/65/7 22/64/7 21/66/7 10/67/7
f 10/67/7 21/66/7 11/68/7 7/69/7
f 9/70/7 20/71/7 36/72/7 16/73/7
f 21/74/7 25/75/7 23/76/7 11/77/7
f 22/78/7 26/79/7 25/75/7 21/74/7
f 24/80/7 35/81/7 37/82/7 27/83/7
f 32/84/7 26/79/7 22/78/7 33/85/7
f 30/86/7 35/81/7 34/87/7
f 30/86/7 34/87/7 36/88/7 20/89/7
f 48/90/3 56/91/3 37/92/3 28/93/3
f 49/94/12 50/95/12 24/96/12 27/97/12
f 50/95/12 51/98/12 29/99/12 24/96/12
f 55/100/12 52/101/12 26/102/12 32/103/12
f 52/101/12 53/104/12 25/105/12 26/102/12
f 53/104/12 54/106/12 23/107/12 25/105/12
f 51/98/12 55/100/12 32/103/12 29/99/12
f 29/108/7 32/84/7 33/85/7 19/109/7
f 16/73/7 19/110/7 33/63/7 31/62/7
f 36/88/7 34/87/7 19/109/7
f 16/73/7 36/72/7 19/110/7
f 37/82/7 35/81/7 30/86/7 28/111/7
f 34/87/7 35/81/7 24/80/7 29/112/7 19/109/7
f 37/92/3 56/91/3 49/113/3 27/114/3
f 91/115/1 68/116/1 82/117/1 93/118/1
f 68/116/1 70/119/1 81/120/1 82/117/1
f 70/119/1 67/121/1 71/122/1 81/120/1
f 69/123/1 76/124/1 96/125/1 80/126/1
f 81/127/1 71/128/1 83/129/1 85/130/1
f 82/131/1 81/127/1 85/130/1 86/132/1
f 84/133/1 87/134/1 97/135/1 95/136/1
f 92/137/1 93/138/1 82/131/1 86/132/1
f 90/139/1 94/140/1 95/136/1
f 90/139/1 80/141/1 96/142/1 94/140/1
f 48/90/3 88/143/3 97/144/3 56/91/3
f 49/94/12 87/145/12 84/146/12 50/95/12
f 50/95/12 84/146/12 89/147/12 51/98/12
f 55/100/12 92/148/12 86/149/12 52/101/12
f 52/101/12 86/149/12 85/150/12 53/104/12
f 53/104/12 85/150/12 83/151/12 54/106/12
f 51/98/12 89/147/12 92/148/12 55/100/12
f 89/152/1 79/153/1 93/138/1 92/137/1
f 76/124/1 91/115/1 93/118/1 79/154/1
f 96/142/1 79/153/1 94/140/1
f 76/124/1 79/154/1 96/125/1
f 97/135/1 88/155/1 90/139/1 95/136/1
f 94/140/1 79/153/1 89/156/1 84/133/1 95/136/1
f 97/144/3 87/157/3 49/113/3 56/91/3
