# Blender v3.6.0 OBJ File: 'AllModules_Unreal.blend'
# www.blender.org
mtllib Door_Frame_SquareTall_Side.mtl
o Door_Frame_SquareTall_Side_Cube.011
v -1.200000 0.000000 0.253425
v -1.200000 5.000000 0.253425
v 1.000000 5.000000 0.253425
v -0.366102 0.000000 0.175866
v 1.000000 4.338295 0.175866
v -0.366102 3.996935 0.175866
v -0.024743 4.338295 0.175866
v -1.200000 4.415903 0.253425
v 1.000000 4.562488 0.253425
v -0.606645 0.000000 0.253425
v -0.182727 4.562488 0.253425
v -0.606645 4.121325 0.253425
v -1.200000 0.000000 0.000000
v -1.200000 5.000000 0.000000
v 1.000000 5.000000 0.000000
v -0.366102 3.996935 0.000000
v -1.200000 4.415902 0.000000
v 1.000000 4.338295 0.000000
v 1.000000 4.526458 0.175866
v -0.564747 0.000000 0.175866
v -0.169138 4.526458 0.175866
v -0.564747 4.121325 0.175866
v -0.366102 0.000000 0.000000
v -0.024743 4.338295 0.000000
v -0.878652 5.000000 0.253425
v 0.087116 4.338295 0.175866
v -0.009969 4.562488 0.253425
v 0.087116 4.338295 0.000000
v -0.878652 5.000000 0.000000
v 0.087116 4.526458 0.175866
v 0.140175 4.581341 0.244950
v 0.140175 4.431621 0.203369
v 0.350255 4.581341 0.244950
v 0.350255 4.431621 0.203369
v 0.140175 4.431621 0.170451
v 0.140175 4.581341 0.170451
v 0.350255 4.581341 0.170451
v 0.350255 4.431621 0.170451
v -0.225121 0.000000 0.222119
v -0.225121 0.000000 0.000000
v -0.594680 0.000000 0.222119
v -0.594680 0.000000 0.000000
v -0.225121 0.251884 0.000000
v -0.225121 0.251884 0.222119
v -0.594680 0.660984 0.000000
v -0.594680 0.660984 0.222119
v 1.000000 -0.013425 0.201216
v 1.000000 -0.013425 0.000000
v -0.296173 -0.013425 0.201216
v -0.296173 -0.013425 0.000000
v 1.000000 0.057456 0.000000
v 1.000000 0.057456 0.176171
v -0.296173 0.057456 0.000000
v -0.296173 0.057456 0.176171
v -1.200000 0.000000 -0.253425
v -1.200000 5.000000 -0.253425
v 1.000000 5.000000 -0.253425
v -0.366102 0.000000 -0.175866
v 1.000000 4.338295 -0.175866
v -0.366102 3.996935 -0.175866
v -0.024743 4.338295 -0.175866
v -1.200000 4.415903 -0.253425
v 1.000000 4.562488 -0.253425
v -0.606645 0.000000 -0.253425
v -0.182727 4.562488 -0.253425
v -0.606645 4.121325 -0.253425
v 1.000000 4.526458 -0.175866
v -0.564747 0.000000 -0.175866
v -0.169138 4.526458 -0.175866
v -0.564747 4.121325 -0.175866
v -0.878652 5.000000 -0.253425
v 0.087116 4.338295 -0.175866
v -0.009969 4.562488 -0.253425
v 0.087116 4.526458 -0.175866
v 0.140175 4.581341 -0.244950
v 0.140175 4.431621 -0.203369
v 0.350255 4.581341 -0.244950
v 0.350255 4.431621 -0.203369
v 0.140175 4.431621 -0.170451
v 0.140175 4.581341 -0.170451
v 0.350255 4.581341 -0.170451
v 0.350255 4.431621 -0.170451
v -0.225121 0.000000 -0.222119
v -0.594680 0.000000 -0.222119
v -0.225121 0.251884 -0.222119
v -0.594680 0.660984 -0.222119
v 1.000000 -0.013425 -0.201216
v -0.296173 -0.013425 -0.201216
v 1.000000 0.057456 -0.176171
v -0.296173 0.057456 -0.176171
v -0.024743 5.000000 -0.253425
v -0.024743 4.562488 0.253425
v -0.024743 4.526458 -0.175866
v -0.024743 4.526458 0.175866
v -0.024743 4.569929 -0.253425
v -0.024743 4.569929 0.253425
v -0.024743 5.000000 0.000000
v -0.024743 4.562488 -0.253425
v -0.024743 5.000000 0.253425
v 0.006336 -0.013425 0.000000
v 0.006336 0.057456 0.176171
v 0.006336 -0.013425 0.201216
v 0.006336 -0.013425 -0.201216
v 0.006336 0.057456 -0.176171
v 0.006336 0.057456 0.000000
vt 0.904937 0.126699
vt 0.999173 0.126699
vt 0.999173 0.001699
vt 0.904938 0.001699
vt 0.447249 0.705272
vt 0.433701 0.705272
vt 0.416213 0.658339
vt 0.447249 0.658339
vt 0.416213 0.705272
vt 0.336263 0.705272
vt 0.336263 0.658339
vt 0.643183 0.126699
vt 0.643183 0.001699
vt 0.687002 0.001699
vt 0.687002 0.126699
vt 0.659845 0.423714
vt 0.687958 0.480340
vt 0.266531 0.480340
vt 0.266531 0.423714
vt 0.743700 0.480340
vt 0.701947 0.383258
vt 0.743700 0.449673
vt 0.701947 0.368181
vt 0.702657 0.368181
vt 0.968896 0.550052
vt 0.881193 0.550052
vt 0.881193 0.511044
vt 0.968896 0.511044
vt 0.155063 0.550052
vt 0.155063 0.511044
vt 0.311903 0.001699
vt 0.311903 0.126699
vt 0.996089 0.550052
vt 0.996089 0.511044
vt -0.268916 0.705272
vt -0.268916 0.658339
vt 1.155062 0.550052
vt 1.155063 0.511044
vt 0.743700 0.270386
vt 0.743700 0.368181
vt 0.701947 0.366771
vt 0.701947 0.270386
vt 0.628688 0.705272
vt 0.628688 0.658339
vt 0.354020 0.126699
vt 0.654527 0.126699
vt 0.654528 0.001699
vt 0.354020 0.001699
vt 0.565207 0.132683
vt 0.434627 0.132683
vt 0.434627 0.085749
vt 0.565207 0.085749
vt 0.565207 0.132683
vt 0.565207 0.085749
vt 0.434627 0.085749
vt 0.434627 0.132683
vt 0.000000 0.000000
vt 0.000000 0.000000
vt 0.000000 0.000000
vt 0.000000 0.000000
vt 0.052943 0.181362
vt 0.024033 0.181362
vt 0.024033 0.368958
vt 0.052943 0.368958
vt 0.357971 0.216161
vt 0.433756 0.216161
vt 0.433756 0.267815
vt 0.357971 0.351709
vt 0.479307 0.216161
vt 0.479307 0.267815
vt 0.000000 0.000000
vt 0.000000 0.000000
vt 0.000000 0.000000
vt 0.000000 0.000000
vt 0.000000 0.000000
vt 0.000000 0.000000
vt 0.671760 0.536348
vt 0.671760 0.508353
vt 0.268356 0.508353
vt 0.268356 0.536348
vt 0.357544 0.101019
vt 0.357544 0.088914
vt 0.703742 0.088914
vt 0.703742 0.101019
vt 0.904938 0.001699
vt 0.999173 0.001699
vt 0.447249 0.705272
vt 0.447249 0.658339
vt 0.416213 0.658339
vt 0.433701 0.705272
vt 0.416213 0.705272
vt 0.336263 0.658339
vt 0.336263 0.705272
vt 0.687002 0.001699
vt 0.643183 0.001699
vt 0.659845 0.423714
vt 0.266531 0.423714
vt 0.266531 0.480340
vt 0.687958 0.480340
vt 0.743700 0.480340
vt 0.701947 0.383258
vt 0.743700 0.449673
vt 0.702657 0.368181
vt 0.701947 0.368181
vt 0.968896 0.550052
vt 0.881193 0.550052
vt 0.155063 0.550052
vt 0.311903 0.001699
vt 0.996089 0.550052
vt -0.268916 0.658339
vt -0.268916 0.705272
vt 1.155062 0.550052
vt 0.743700 0.270386
vt 0.701947 0.270386
vt 0.701947 0.366771
vt 0.743700 0.368181
vt 0.628688 0.705272
vt 0.628688 0.658339
vt 0.354020 0.001699
vt 0.654528 0.001699
vt 0.565207 0.132683
vt 0.565207 0.085749
vt 0.434627 0.085749
vt 0.434627 0.132683
vt 0.565207 0.132683
vt 0.434627 0.132683
vt 0.434627 0.085749
vt 0.565207 0.085749
vt 0.000000 0.000000
vt 0.000000 0.000000
vt 0.052943 0.181362
vt 0.052943 0.368958
vt 0.357971 0.216161
vt 0.357971 0.351709
vt 0.433756 0.267815
vt 0.433756 0.216161
vt 0.000000 0.000000
vt 0.000000 0.000000
vt 0.000000 0.000000
vt 0.671760 0.536348
vt 0.268356 0.536348
vt 0.357544 0.101019
vt 0.703742 0.101019
vt 0.703742 0.088914
vt 0.357544 0.088914
vt 0.000000 0.000000
vt 0.000000 0.000000
vt 0.145544 0.536348
vt 0.145544 0.508353
vt 0.145544 0.536348
vt 0.809138 0.101019
vt 0.809138 0.088914
vt 0.809138 0.088914
vt 0.809138 0.101019
vt 0.000000 0.000000
vt 1.289314 0.938138
vt 1.289314 0.999850
vt -1.765336 0.999850
vt -1.765336 0.938139
vt 1.692865 0.999850
vt 1.692865 0.938138
vt 1.850716 0.999850
vt 1.837217 0.999850
vt 1.781811 0.938138
vt 1.850716 0.938138
vt 2.765336 0.999850
vt 2.765336 0.938138
vt 1.289314 0.938138
vt -1.765336 0.938139
vt -1.765336 0.999850
vt 1.289314 0.999850
vt 1.692865 0.999850
vt 1.692865 0.938138
vt 1.850716 0.999850
vt 1.850716 0.938138
vt 1.781811 0.938138
vt 1.837217 0.999850
vt 2.765336 0.999850
vt 2.765336 0.938138
vn 0.0000 1.0000 0.0000
vn 0.0000 0.0000 1.0000
vn -1.0000 0.0000 0.0000
vn 0.7071 -0.7071 0.0000
vn 1.0000 0.0000 0.0000
vn 0.0000 -1.0000 0.0000
vn 0.0000 -0.2676 0.9635
vn 0.0000 0.0000 -1.0000
vn 0.7421 0.6703 0.0000
vn 0.0000 0.3332 0.9429
vn 0.0000 -0.2676 -0.9635
vn 0.0000 0.3332 -0.9429
vn 0.8798 0.0000 0.4753
vn 0.6627 -0.6417 0.3861
vn 0.0000 -0.9069 0.4213
vn 0.8798 0.0000 -0.4753
vn 0.6627 -0.6417 -0.3861
vn 0.0000 -0.9069 -0.4213
usemtl MI_Trim_01
s off
f 29/1/1 14/2/1 2/3/1 25/4/1
f 30/5/2 94/6/2 7/7/2 26/8/2
f 21/9/2 22/10/2 6/11/2 7/7/2
f 17/12/3 8/13/3 2/14/3 14/15/3
f 12/16/2 8/17/2 1/18/2 10/19/2
f 2/20/2 8/17/2 12/16/2 11/21/2
f 25/22/2 2/20/2 11/21/2 92/23/2 96/24/2
f 7/25/4 6/26/4 16/27/4 24/28/4
f 6/26/5 4/29/5 23/30/5 16/27/5
f 1/31/3 8/13/3 17/12/3 13/32/3
f 26/33/6 7/25/6 24/28/6 28/34/6
f 6/11/2 22/10/2 20/35/2 4/36/2
f 5/37/6 26/33/6 28/34/6 18/38/6
f 3/39/2 99/40/2 96/24/2 27/41/2 9/42/2
f 19/43/2 30/5/2 26/8/2 5/44/2
f 15/45/1 97/46/1 99/47/1 3/48/1
f 32/49/7 34/50/7 33/51/7 31/52/7
f 35/53/8 36/54/8 37/55/8 38/56/8
f 31/52/3 36/54/3 35/53/3 32/49/3
f 34/50/5 38/56/5 37/55/5 33/51/5
f 33/51/1 37/55/1 36/54/1 31/52/1
f 32/49/6 35/53/6 38/56/6 34/50/6
f 39/57/6 41/58/6 42/59/6 40/60/6
f 44/61/9 43/62/9 45/63/9 46/64/9
f 41/65/2 39/66/2 44/67/2 46/68/2
f 39/66/5 40/69/5 43/70/5 44/67/5
f 42/59/3 41/58/3 46/71/3 45/72/3
f 47/73/6 102/74/6 100/75/6 48/76/6
f 52/77/1 51/78/1 105/79/1 101/80/1
f 47/81/10 52/82/10 101/83/10 102/84/10
f 29/1/1 71/85/1 56/86/1 14/2/1
f 74/87/8 72/88/8 61/89/8 93/90/8
f 69/91/8 61/89/8 60/92/8 70/93/8
f 17/12/3 14/15/3 56/94/3 62/95/3
f 66/96/8 64/97/8 55/98/8 62/99/8
f 56/100/8 65/101/8 66/96/8 62/99/8
f 71/102/8 95/103/8 98/104/8 65/101/8 56/100/8
f 61/105/4 24/28/4 16/27/4 60/106/4
f 60/106/5 16/27/5 23/30/5 58/107/5
f 55/108/3 13/32/3 17/12/3 62/95/3
f 72/109/6 28/34/6 24/28/6 61/105/6
f 60/92/8 58/110/8 68/111/8 70/93/8
f 59/112/6 18/38/6 28/34/6 72/109/6
f 57/113/8 63/114/8 73/115/8 95/103/8 91/116/8
f 67/117/8 59/118/8 72/88/8 74/87/8
f 15/45/1 57/119/1 91/120/1 97/46/1
f 76/121/11 75/122/11 77/123/11 78/124/11
f 79/125/2 82/126/2 81/127/2 80/128/2
f 75/122/3 76/121/3 79/125/3 80/128/3
f 78/124/5 77/123/5 81/127/5 82/126/5
f 77/123/1 75/122/1 80/128/1 81/127/1
f 76/121/6 78/124/6 82/126/6 79/125/6
f 83/129/6 40/60/6 42/59/6 84/130/6
f 85/131/9 86/132/9 45/63/9 43/62/9
f 84/133/8 86/134/8 85/135/8 83/136/8
f 83/136/5 85/135/5 43/70/5 40/69/5
f 42/59/3 45/72/3 86/137/3 84/130/3
f 87/138/6 48/76/6 100/75/6 103/139/6
f 89/140/1 104/141/1 105/79/1 51/78/1
f 87/142/12 103/143/12 104/144/12 89/145/12
f 97/46/1 91/120/1 71/85/1 29/1/1
f 93/90/8 61/89/8 69/91/8
f 91/116/8 95/103/8 71/102/8
f 96/24/2 92/23/2 27/41/2
f 96/24/2 99/40/2 25/22/2
f 98/104/8 95/103/8 73/115/8
f 7/7/2 94/6/2 21/9/2
f 99/47/1 97/46/1 29/1/1 25/4/1
f 100/75/6 102/74/6 49/146/6 50/147/6
f 105/79/1 104/141/1 90/148/1 53/149/1
f 101/80/1 105/79/1 53/149/1 54/150/1
f 104/144/12 103/143/12 88/151/12 90/152/12
f 102/84/10 101/83/10 54/153/10 49/154/10
f 103/139/6 100/75/6 50/147/6 88/155/6
usemtl MI_Trim_02
f 22/156/13 12/157/13 10/158/13 20/159/13
f 11/160/14 12/157/14 22/156/14 21/161/14
f 27/162/15 92/163/15 94/164/15 30/165/15
f 9/166/15 27/162/15 30/165/15 19/167/15
f 70/168/16 68/169/16 64/170/16 66/171/16
f 65/172/17 69/173/17 70/168/17 66/171/17
f 73/174/18 74/175/18 93/176/18 98/177/18
f 63/178/18 67/179/18 74/175/18 73/174/18
f 94/164/15 92/163/15 11/160/15 21/161/15
f 98/177/18 93/176/18 69/173/18 65/172/18
