# Blender v3.6.0 OBJ File: 'AllModules_Unreal.blend'
# www.blender.org
mtllib Door_Frame_Square_Symmetric.mtl
o Door_Frame_Square_Symmetric_Cube.014
v -2.421874 5.000000 0.253425
v 0.000000 5.000000 0.253425
v 0.000000 4.338295 0.175866
v -1.366102 3.996935 0.175866
v -1.024743 4.338295 0.175866
v -2.421874 4.415903 0.253425
v 0.000000 4.562488 0.253425
v -1.182727 4.562488 0.253425
v -1.606645 4.121325 0.253425
v -2.421874 5.000000 0.000000
v 0.000000 5.000000 0.000000
v -1.366102 3.996935 0.000000
v -2.421874 4.415902 0.000000
v 0.000000 4.338295 0.000000
v 0.000000 4.526458 0.175866
v -1.169138 4.526458 0.175866
v -1.564747 4.121325 0.175866
v -1.024743 4.338295 0.000000
v -1.878652 5.000000 0.253425
v -0.912884 4.338295 0.175866
v -1.009969 4.562488 0.253425
v -0.912884 4.338295 0.000000
v -1.878652 5.000000 0.000000
v -0.912884 4.526458 0.175866
v -0.859825 4.581341 0.244950
v -0.859825 4.431621 0.203369
v -0.649745 4.581341 0.244950
v -0.649745 4.431621 0.203369
v -0.859825 4.431621 0.170451
v -0.859825 4.581341 0.170451
v -0.649745 4.581341 0.170451
v -0.649745 4.431621 0.170451
v -1.366102 0.712990 0.000000
v -1.366102 0.712990 0.175866
v -2.421874 0.712990 0.253425
v -1.606645 0.712990 0.253425
v -1.564747 3.996935 0.175866
v -2.421874 3.996936 0.253425
v -2.421874 3.996936 0.000000
v -1.606645 3.996935 0.253425
v -2.421874 0.010052 0.253425
v 0.000000 0.010052 0.253425
v 0.000000 0.368875 0.175866
v -1.024743 0.368875 0.175866
v -2.421874 0.291267 0.253425
v 0.000000 0.144682 0.253425
v -1.182727 0.144682 0.253425
v -1.606645 0.585845 0.253425
v -2.421874 0.010052 0.000000
v 0.000000 0.010052 0.000000
v -2.421874 0.291267 0.000000
v 0.000000 0.368875 0.000000
v 0.000000 0.180711 0.175866
v -1.169138 0.180711 0.175866
v -1.564747 0.585845 0.175866
v -1.024743 0.368875 0.000000
v -1.878652 0.010052 0.253425
v -0.912884 0.368875 0.175866
v -1.009969 0.144682 0.253425
v -0.912884 0.368875 0.000000
v -1.878652 0.010052 0.000000
v -0.912884 0.180711 0.175866
v -0.859825 0.125829 0.244950
v -0.859825 0.275549 0.203369
v -0.649745 0.125829 0.244950
v -0.649745 0.275549 0.203369
v -0.859825 0.275549 0.170451
v -0.859825 0.125829 0.170451
v -0.649745 0.125829 0.170451
v -0.649745 0.275549 0.170451
v -1.564747 0.712990 0.175866
v -2.421874 0.712990 0.000000
v 2.421874 5.000000 0.253425
v 1.366102 3.996935 0.175866
v 1.024743 4.338295 0.175866
v 2.421874 4.415903 0.253425
v 1.182727 4.562488 0.253425
v 1.606645 4.121325 0.253425
v 2.421874 5.000000 0.000000
v 1.366102 3.996935 0.000000
v 2.421874 4.415902 0.000000
v 1.169138 4.526458 0.175866
v 1.564747 4.121325 0.175866
v 1.024743 4.338295 0.000000
v 1.878652 5.000000 0.253425
v 0.912884 4.338295 0.175866
v 1.009969 4.562488 0.253425
v 0.912884 4.338295 0.000000
v 1.878652 5.000000 0.000000
v 0.912884 4.526458 0.175866
v 0.859825 4.581341 0.244950
v 0.859825 4.431621 0.203369
v 0.649745 4.581341 0.244950
v 0.649745 4.431621 0.203369
v 0.859825 4.431621 0.170451
v 0.859825 4.581341 0.170451
v 0.649745 4.581341 0.170451
v 0.649745 4.431621 0.170451
v 1.366102 0.712990 0.000000
v 1.366102 0.712990 0.175866
v 2.421874 0.712990 0.253425
v 1.606645 0.712990 0.253425
v 1.564747 3.996935 0.175866
v 2.421874 3.996936 0.253425
v 2.421874 3.996936 0.000000
v 1.606645 3.996935 0.253425
v 2.421874 0.010052 0.253425
v 1.024743 0.368875 0.175866
v 2.421874 0.291267 0.253425
v 1.182727 0.144682 0.253425
v 1.606645 0.585845 0.253425
v 2.421874 0.010052 0.000000
v 2.421874 0.291267 0.000000
v 1.169138 0.180711 0.175866
v 1.564747 0.585845 0.175866
v 1.024743 0.368875 0.000000
v 1.878652 0.010052 0.253425
v 0.912884 0.368875 0.175866
v 1.009969 0.144682 0.253425
v 0.912884 0.368875 0.000000
v 1.878652 0.010052 0.000000
v 0.912884 0.180711 0.175866
v 0.859825 0.125829 0.244950
v 0.859825 0.275549 0.203369
v 0.649745 0.125829 0.244950
v 0.649745 0.275549 0.203369
v 0.859825 0.275549 0.170451
v 0.859825 0.125829 0.170451
v 0.649745 0.125829 0.170451
v 0.649745 0.275549 0.170451
v 1.564747 0.712990 0.175866
v 2.421874 0.712990 0.000000
v -2.421874 5.000000 -0.253425
v 0.000000 5.000000 -0.253425
v 0.000000 4.338295 -0.175866
v -1.366102 3.996935 -0.175866
v -1.024743 4.338295 -0.175866
v -2.421874 4.415903 -0.253425
v 0.000000 4.562488 -0.253425
v -1.182727 4.562488 -0.253425
v -1.606645 4.121325 -0.253425
v 0.000000 4.526458 -0.175866
v -1.169138 4.526458 -0.175866
v -1.564747 4.121325 -0.175866
v -1.878652 5.000000 -0.253425
v -0.912884 4.338295 -0.175866
v -1.009969 4.562488 -0.253425
v -0.912884 4.526458 -0.175866
v -0.859825 4.581341 -0.244950
v -0.859825 4.431621 -0.203369
v -0.649745 4.581341 -0.244950
v -0.649745 4.431621 -0.203369
v -0.859825 4.431621 -0.170451
v -0.859825 4.581341 -0.170451
v -0.649745 4.581341 -0.170451
v -0.649745 4.431621 -0.170451
v -1.366102 0.712990 -0.175866
v -2.421874 0.712990 -0.253425
v -1.606645 0.712990 -0.253425
v -1.564747 3.996935 -0.175866
v -2.421874 3.996936 -0.253425
v -1.606645 3.996935 -0.253425
v -2.421874 0.010052 -0.253425
v 0.000000 0.010052 -0.253425
v 0.000000 0.368875 -0.175866
v -1.024743 0.368875 -0.175866
v -2.421874 0.291267 -0.253425
v 0.000000 0.144682 -0.253425
v -1.182727 0.144682 -0.253425
v -1.606645 0.585845 -0.253425
v 0.000000 0.180711 -0.175866
v -1.169138 0.180711 -0.175866
v -1.564747 0.585845 -0.175866
v -1.878652 0.010052 -0.253425
v -0.912884 0.368875 -0.175866
v -1.009969 0.144682 -0.253425
v -0.912884 0.180711 -0.175866
v -0.859825 0.125829 -0.244950
v -0.859825 0.275549 -0.203369
v -0.649745 0.125829 -0.244950
v -0.649745 0.275549 -0.203369
v -0.859825 0.275549 -0.170451
v -0.859825 0.125829 -0.170451
v -0.649745 0.125829 -0.170451
v -0.649745 0.275549 -0.170451
v -1.564747 0.712990 -0.175866
v 2.421874 5.000000 -0.253425
v 1.366102 3.996935 -0.175866
v 1.024743 4.338295 -0.175866
v 2.421874 4.415903 -0.253425
v 1.182727 4.562488 -0.253425
v 1.606645 4.121325 -0.253425
v 1.169138 4.526458 -0.175866
v 1.564747 4.121325 -0.175866
v 1.878652 5.000000 -0.253425
v 0.912884 4.338295 -0.175866
v 1.009969 4.562488 -0.253425
v 0.912884 4.526458 -0.175866
v 0.859825 4.581341 -0.244950
v 0.859825 4.431621 -0.203369
v 0.649745 4.581341 -0.244950
v 0.649745 4.431621 -0.203369
v 0.859825 4.431621 -0.170451
v 0.859825 4.581341 -0.170451
v 0.649745 4.581341 -0.170451
v 0.649745 4.431621 -0.170451
v 1.366102 0.712990 -0.175866
v 2.421874 0.712990 -0.253425
v 1.606645 0.712990 -0.253425
v 1.564747 3.996935 -0.175866
v 2.421874 3.996936 -0.253425
v 1.606645 3.996935 -0.253425
v 2.421874 0.010052 -0.253425
v 1.024743 0.368875 -0.175866
v 2.421874 0.291267 -0.253425
v 1.182727 0.144682 -0.253425
v 1.606645 0.585845 -0.253425
v 1.169138 0.180711 -0.175866
v 1.564747 0.585845 -0.175866
v 1.878652 0.010052 -0.253425
v 0.912884 0.368875 -0.175866
v 1.009969 0.144682 -0.253425
v 0.912884 0.180711 -0.175866
v 0.859825 0.125829 -0.244950
v 0.859825 0.275549 -0.203369
v 0.649745 0.125829 -0.244950
v 0.649745 0.275549 -0.203369
v 0.859825 0.275549 -0.170451
v 0.859825 0.125829 -0.170451
v 0.649745 0.125829 -0.170451
v 0.649745 0.275549 -0.170451
v 1.564747 0.712990 -0.175866
vt 0.904937 0.126699
vt 0.999173 0.126699
vt 0.999173 0.001699
vt 0.904938 0.001699
vt 0.447249 0.705272
vt 0.416213 0.705272
vt 0.416213 0.658339
vt 0.447249 0.658339
vt 0.336263 0.705272
vt 0.336263 0.658339
vt 0.643183 0.126699
vt 0.643183 0.001699
vt 0.687002 0.001699
vt 0.687002 0.126699
vt 0.688313 0.409567
vt 0.714050 0.480793
vt 0.669649 0.480793
vt 0.674965 0.409567
vt 1.289314 0.955206
vt 1.289314 0.997723
vt 1.197119 0.997723
vt 1.197119 0.955206
vt 0.765082 0.480793
vt 0.726857 0.372530
vt 0.765082 0.433332
vt 0.726857 0.357436
vt 0.968896 0.550052
vt 0.881193 0.550052
vt 0.881193 0.511044
vt 0.968896 0.511044
vt 0.348468 0.550052
vt 0.348468 0.511044
vt 0.996089 0.550052
vt 0.996089 0.511044
vt 0.317997 0.705272
vt -0.112591 0.705272
vt -0.107726 0.658339
vt 1.692865 0.997723
vt 1.692865 0.955206
vt 1.850716 0.997723
vt 1.850716 0.955206
vt 2.765336 0.997723
vt 2.765336 0.955206
vt 1.155062 0.550052
vt 1.155063 0.511044
vt 0.765082 0.269196
vt 0.726857 0.269196
vt 0.628688 0.705272
vt 0.628688 0.658339
vt 0.354020 0.126699
vt 0.354020 0.001699
vt 0.565207 0.132683
vt 0.434627 0.132683
vt 0.434627 0.085749
vt 0.565207 0.085749
vt 0.565207 0.132683
vt 0.565207 0.085749
vt 0.434627 0.085749
vt 0.434627 0.132683
vt 0.391769 0.126699
vt 0.391769 0.001699
vt 0.611753 0.001699
vt 0.611753 0.126699
vt 0.904937 0.126699
vt 0.904938 0.001699
vt 0.999173 0.001699
vt 0.999173 0.126699
vt 0.663760 0.409567
vt 0.658443 0.480793
vt 0.358885 0.480793
vt 0.360301 0.409567
vt -0.976283 0.997723
vt -0.976283 0.955206
vt 0.447249 0.705272
vt 0.447249 0.658339
vt 0.416213 0.658339
vt 0.416213 0.705272
vt 0.336263 0.658339
vt 0.336263 0.705272
vt 0.643183 0.126699
vt 0.687002 0.126699
vt 0.687002 0.001699
vt 0.643183 0.001699
vt 0.681777 0.409567
vt 0.663760 0.409567
vt 0.658443 0.480793
vt 0.707514 0.480793
vt 1.289314 0.955206
vt 1.197119 0.955206
vt 1.197119 0.997723
vt 1.289314 0.997723
vt 0.765082 0.480793
vt 0.726857 0.372530
vt 0.765082 0.433332
vt 0.726857 0.357436
vt 0.968896 0.550052
vt 0.968896 0.511044
vt 0.881193 0.511044
vt 0.881193 0.550052
vt 0.996089 0.550052
vt 0.996089 0.511044
vt 1.692865 0.997723
vt 1.692865 0.955206
vt 1.850716 0.997723
vt 1.850716 0.955206
vt 2.765336 0.997723
vt 2.765336 0.955206
vt 1.155062 0.550052
vt 1.155063 0.511044
vt 0.765082 0.269196
vt 0.726857 0.269196
vt 0.628688 0.705272
vt 0.628688 0.658339
vt 0.354020 0.126699
vt 0.354020 0.001699
vt 0.565207 0.132683
vt 0.565207 0.085749
vt 0.434627 0.085749
vt 0.434627 0.132683
vt 0.565207 0.132683
vt 0.434627 0.132683
vt 0.434627 0.085749
vt 0.565207 0.085749
vt 0.317997 0.705272
vt 0.611753 0.126699
vt 0.611753 0.001699
vt 0.904937 0.126699
vt 0.904938 0.001699
vt 0.999173 0.001699
vt 0.999173 0.126699
vt 0.447249 0.705272
vt 0.447249 0.658339
vt 0.416213 0.658339
vt 0.416213 0.705272
vt 0.336263 0.658339
vt 0.336263 0.705272
vt 0.643183 0.126699
vt 0.687002 0.126699
vt 0.687002 0.001699
vt 0.643183 0.001699
vt 0.688313 0.409567
vt 0.674965 0.409567
vt 0.669649 0.480793
vt 0.714050 0.480793
vt 1.289314 0.955206
vt 1.197119 0.955206
vt 1.197119 0.997723
vt 1.289314 0.997723
vt 0.765082 0.480793
vt 0.726857 0.372530
vt 0.765082 0.433332
vt 0.726857 0.357436
vt 0.968896 0.550052
vt 0.968896 0.511044
vt 0.881193 0.511044
vt 0.881193 0.550052
vt 0.348468 0.511044
vt 0.348468 0.550052
vt 0.996089 0.550052
vt 0.996089 0.511044
vt -0.107726 0.658339
vt -0.112591 0.705272
vt 0.317997 0.705272
vt 1.692865 0.997723
vt 1.692865 0.955206
vt 1.850716 0.997723
vt 1.850716 0.955206
vt 0.565207 0.132683
vt 0.565207 0.085749
vt 0.434627 0.085749
vt 0.434627 0.132683
vt 0.565207 0.132683
vt 0.434627 0.132683
vt 0.434627 0.085749
vt 0.565207 0.085749
vt 0.391769 0.126699
vt 0.611753 0.126699
vt 0.611753 0.001699
vt 0.391769 0.001699
vt 0.904937 0.126699
vt 0.999173 0.126699
vt 0.999173 0.001699
vt 0.904938 0.001699
vt 0.663760 0.409567
vt 0.360301 0.409567
vt 0.358885 0.480793
vt 0.658443 0.480793
vt -0.976283 0.955206
vt -0.976283 0.997723
vt 0.447249 0.705272
vt 0.416213 0.705272
vt 0.416213 0.658339
vt 0.447249 0.658339
vt 0.336263 0.705272
vt 0.336263 0.658339
vt 0.643183 0.126699
vt 0.643183 0.001699
vt 0.687002 0.001699
vt 0.687002 0.126699
vt 0.681777 0.409567
vt 0.707514 0.480793
vt 0.658443 0.480793
vt 0.663760 0.409567
vt 1.289314 0.955206
vt 1.289314 0.997723
vt 1.197119 0.997723
vt 1.197119 0.955206
vt 0.765082 0.480793
vt 0.726857 0.372530
vt 0.765082 0.433332
vt 0.726857 0.357436
vt 0.968896 0.550052
vt 0.881193 0.550052
vt 0.881193 0.511044
vt 0.968896 0.511044
vt 0.996089 0.550052
vt 0.996089 0.511044
vt 1.692865 0.997723
vt 1.692865 0.955206
vt 1.850716 0.997723
vt 1.850716 0.955206
vt 0.565207 0.132683
vt 0.434627 0.132683
vt 0.434627 0.085749
vt 0.565207 0.085749
vt 0.565207 0.132683
vt 0.565207 0.085749
vt 0.434627 0.085749
vt 0.434627 0.132683
vt 0.317997 0.705272
vt 0.611753 0.126699
vt 0.611753 0.001699
vt 0.904938 0.001699
vt 0.999173 0.001699
vt 0.447249 0.705272
vt 0.447249 0.658339
vt 0.416213 0.658339
vt 0.416213 0.705272
vt 0.336263 0.658339
vt 0.336263 0.705272
vt 0.687002 0.001699
vt 0.643183 0.001699
vt 0.688313 0.409567
vt 0.674965 0.409567
vt 0.669649 0.480793
vt 0.714050 0.480793
vt 1.289314 0.955206
vt 1.197119 0.955206
vt 1.197119 0.997723
vt 1.289314 0.997723
vt 0.765082 0.480793
vt 0.726857 0.372530
vt 0.765082 0.433332
vt 0.726857 0.357436
vt 0.968896 0.550052
vt 0.881193 0.550052
vt 0.348468 0.550052
vt 0.996089 0.550052
vt -0.107726 0.658339
vt -0.112591 0.705272
vt 0.317997 0.705272
vt 1.692865 0.997723
vt 1.692865 0.955206
vt 1.850716 0.997723
vt 1.850716 0.955206
vt 2.765336 0.997723
vt 2.765336 0.955206
vt 1.155062 0.550052
vt 0.765082 0.269196
vt 0.726857 0.269196
vt 0.628688 0.705272
vt 0.628688 0.658339
vt 0.354020 0.001699
vt 0.565207 0.132683
vt 0.565207 0.085749
vt 0.434627 0.085749
vt 0.434627 0.132683
vt 0.565207 0.132683
vt 0.434627 0.132683
vt 0.434627 0.085749
vt 0.565207 0.085749
vt 0.611753 0.001699
vt 0.391769 0.001699
vt 0.999173 0.001699
vt 0.904938 0.001699
vt 0.663760 0.409567
vt 0.360301 0.409567
vt 0.358885 0.480793
vt 0.658443 0.480793
vt -0.976283 0.955206
vt -0.976283 0.997723
vt 0.447249 0.705272
vt 0.416213 0.705272
vt 0.416213 0.658339
vt 0.447249 0.658339
vt 0.336263 0.705272
vt 0.336263 0.658339
vt 0.643183 0.001699
vt 0.687002 0.001699
vt 0.681777 0.409567
vt 0.707514 0.480793
vt 0.658443 0.480793
vt 0.663760 0.409567
vt 1.289314 0.955206
vt 1.289314 0.997723
vt 1.197119 0.997723
vt 1.197119 0.955206
vt 0.765082 0.480793
vt 0.726857 0.372530
vt 0.765082 0.433332
vt 0.726857 0.357436
vt 0.968896 0.550052
vt 0.881193 0.550052
vt 0.996089 0.550052
vt 1.692865 0.997723
vt 1.692865 0.955206
vt 1.850716 0.997723
vt 1.850716 0.955206
vt 2.765336 0.997723
vt 2.765336 0.955206
vt 1.155062 0.550052
vt 0.765082 0.269196
vt 0.726857 0.269196
vt 0.628688 0.705272
vt 0.628688 0.658339
vt 0.354020 0.001699
vt 0.565207 0.132683
vt 0.434627 0.132683
vt 0.434627 0.085749
vt 0.565207 0.085749
vt 0.565207 0.132683
vt 0.565207 0.085749
vt 0.434627 0.085749
vt 0.434627 0.132683
vt 0.317997 0.705272
vt 0.611753 0.001699
vt 0.999173 0.001699
vt 0.904938 0.001699
vt 0.447249 0.705272
vt 0.416213 0.705272
vt 0.416213 0.658339
vt 0.447249 0.658339
vt 0.336263 0.705272
vt 0.336263 0.658339
vt 0.643183 0.001699
vt 0.687002 0.001699
vt 0.688313 0.409567
vt 0.714050 0.480793
vt 0.669649 0.480793
vt 0.674965 0.409567
vt 1.289314 0.955206
vt 1.289314 0.997723
vt 1.197119 0.997723
vt 1.197119 0.955206
vt 0.765082 0.480793
vt 0.726857 0.372530
vt 0.765082 0.433332
vt 0.726857 0.357436
vt 0.968896 0.550052
vt 0.881193 0.550052
vt 0.348468 0.550052
vt 0.996089 0.550052
vt 0.317997 0.705272
vt -0.112591 0.705272
vt -0.107726 0.658339
vt 1.692865 0.997723
vt 1.692865 0.955206
vt 1.850716 0.997723
vt 1.850716 0.955206
vt 0.565207 0.132683
vt 0.434627 0.132683
vt 0.434627 0.085749
vt 0.565207 0.085749
vt 0.565207 0.132683
vt 0.565207 0.085749
vt 0.434627 0.085749
vt 0.434627 0.132683
vt 0.391769 0.001699
vt 0.611753 0.001699
vt 0.904938 0.001699
vt 0.999173 0.001699
vt 0.663760 0.409567
vt 0.658443 0.480793
vt 0.358885 0.480793
vt 0.360301 0.409567
vt -0.976283 0.997723
vt -0.976283 0.955206
vt 0.447249 0.705272
vt 0.447249 0.658339
vt 0.416213 0.658339
vt 0.416213 0.705272
vt 0.336263 0.658339
vt 0.336263 0.705272
vt 0.687002 0.001699
vt 0.643183 0.001699
vt 0.681777 0.409567
vt 0.663760 0.409567
vt 0.658443 0.480793
vt 0.707514 0.480793
vt 1.289314 0.955206
vt 1.197119 0.955206
vt 1.197119 0.997723
vt 1.289314 0.997723
vt 0.765082 0.480793
vt 0.726857 0.372530
vt 0.765082 0.433332
vt 0.726857 0.357436
vt 0.968896 0.550052
vt 0.881193 0.550052
vt 0.996089 0.550052
vt 1.692865 0.997723
vt 1.692865 0.955206
vt 1.850716 0.997723
vt 1.850716 0.955206
vt 0.565207 0.132683
vt 0.565207 0.085749
vt 0.434627 0.085749
vt 0.434627 0.132683
vt 0.565207 0.132683
vt 0.434627 0.132683
vt 0.434627 0.085749
vt 0.565207 0.085749
vt 0.317997 0.705272
vt 0.611753 0.001699
vn 0.0000 1.0000 0.0000
vn 0.0000 0.0000 1.0000
vn -1.0000 0.0000 0.0000
vn 0.8798 0.0000 0.4753
vn 0.7071 -0.7071 0.0000
vn 1.0000 0.0000 0.0000
vn 0.0000 -1.0000 0.0000
vn 0.6627 -0.6417 0.3861
vn 0.0000 -0.9069 0.4213
vn 0.0000 -0.2676 0.9635
vn 0.0000 0.0000 -1.0000
vn 0.7099 0.7043 0.0000
vn 0.6627 0.6417 0.3861
vn 0.0000 0.9069 0.4213
vn 0.0000 0.2676 0.9635
vn -0.8798 0.0000 0.4753
vn -0.7071 -0.7071 0.0000
vn -0.6627 -0.6417 0.3861
vn -0.7099 0.7043 0.0000
vn -0.6627 0.6417 0.3861
vn 0.8798 0.0000 -0.4753
vn 0.6627 -0.6417 -0.3861
vn 0.0000 -0.9069 -0.4213
vn 0.0000 -0.2676 -0.9635
vn 0.6627 0.6417 -0.3861
vn 0.0000 0.9069 -0.4213
vn 0.0000 0.2676 -0.9635
vn -0.8798 0.0000 -0.4753
vn -0.6627 -0.6417 -0.3861
vn -0.6627 0.6417 -0.3861
usemtl MI_Trim_01
s off
f 23/1/1 10/2/1 1/3/1 19/4/1
f 24/5/2 16/6/2 5/7/2 20/8/2
f 16/6/2 17/9/2 4/10/2 5/7/2
f 13/11/3 6/12/3 1/13/3 10/14/3
f 9/15/2 6/16/2 38/17/2 40/18/2
f 17/19/4 9/20/4 40/21/4 37/22/4
f 1/23/2 6/16/2 9/15/2 8/24/2
f 19/25/2 1/23/2 8/24/2 21/26/2
f 5/27/5 4/28/5 12/29/5 18/30/5
f 4/28/6 34/31/6 33/32/6 12/29/6
f 20/33/7 5/27/7 18/30/7 22/34/7
f 4/10/2 37/35/2 71/36/2 34/37/2
f 8/38/8 9/20/8 17/19/8 16/39/8
f 21/40/9 8/38/9 16/39/9 24/41/9
f 7/42/9 21/40/9 24/41/9 15/43/9
f 3/44/7 20/33/7 22/34/7 14/45/7
f 2/46/2 19/25/2 21/26/2 7/47/2
f 15/48/2 24/5/2 20/8/2 3/49/2
f 11/50/1 23/1/1 19/4/1 2/51/1
f 26/52/10 28/53/10 27/54/10 25/55/10
f 29/56/11 30/57/11 31/58/11 32/59/11
f 25/55/3 30/57/3 29/56/3 26/52/3
f 28/53/6 32/59/6 31/58/6 27/54/6
f 27/54/1 31/58/1 30/57/1 25/55/1
f 26/52/7 29/56/7 32/59/7 28/53/7
f 72/60/3 35/61/3 38/62/3 39/63/3
f 61/64/7 57/65/7 41/66/7 49/67/7
f 40/68/2 38/69/2 35/70/2 36/71/2
f 37/22/4 40/21/4 36/72/4 71/73/4
f 37/35/2 4/10/2 17/9/2
f 39/63/3 38/62/3 6/12/3 13/11/3
f 62/74/2 58/75/2 44/76/2 54/77/2
f 54/77/2 44/76/2 34/78/2 55/79/2
f 51/80/3 49/81/3 41/82/3 45/83/3
f 48/84/2 36/85/2 35/86/2 45/87/2
f 55/88/4 71/89/4 36/90/4 48/91/4
f 41/92/2 47/93/2 48/84/2 45/87/2
f 57/94/2 59/95/2 47/93/2 41/92/2
f 44/96/12 56/97/12 33/98/12 34/99/12
f 58/100/1 60/101/1 56/97/1 44/96/1
f 47/102/13 54/103/13 55/88/13 48/91/13
f 59/104/14 62/105/14 54/103/14 47/102/14
f 46/106/14 53/107/14 62/105/14 59/104/14
f 43/108/1 52/109/1 60/101/1 58/100/1
f 42/110/2 46/111/2 59/95/2 57/94/2
f 53/112/2 43/113/2 58/75/2 62/74/2
f 50/114/7 42/115/7 57/65/7 61/64/7
f 64/116/15 63/117/15 65/118/15 66/119/15
f 67/120/11 70/121/11 69/122/11 68/123/11
f 63/117/3 64/116/3 67/120/3 68/123/3
f 66/119/6 65/118/6 69/122/6 70/121/6
f 65/118/7 63/117/7 68/123/7 69/122/7
f 64/116/1 66/119/1 70/121/1 67/120/1
f 71/124/2 55/79/2 34/78/2
f 72/125/3 51/80/3 45/83/3 35/126/3
f 89/127/1 85/128/1 73/129/1 79/130/1
f 90/131/2 86/132/2 75/133/2 82/134/2
f 82/134/2 75/133/2 74/135/2 83/136/2
f 81/137/6 79/138/6 73/139/6 76/140/6
f 78/141/2 106/142/2 104/143/2 76/144/2
f 83/145/16 103/146/16 106/147/16 78/148/16
f 73/149/2 77/150/2 78/141/2 76/144/2
f 85/151/2 87/152/2 77/150/2 73/149/2
f 75/153/17 84/154/17 80/155/17 74/156/17
f 74/156/3 80/155/3 99/157/3 100/158/3
f 86/159/7 88/160/7 84/154/7 75/153/7
f 74/135/2 100/161/2 131/162/2 103/163/2
f 77/164/18 82/165/18 83/145/18 78/148/18
f 87/166/9 90/167/9 82/165/9 77/164/9
f 7/42/9 15/43/9 90/167/9 87/166/9
f 3/44/7 14/45/7 88/160/7 86/159/7
f 2/46/2 7/47/2 87/152/2 85/151/2
f 15/48/2 3/49/2 86/132/2 90/131/2
f 11/50/1 2/51/1 85/128/1 89/127/1
f 92/168/10 91/169/10 93/170/10 94/171/10
f 95/172/11 98/173/11 97/174/11 96/175/11
f 91/169/6 92/168/6 95/172/6 96/175/6
f 94/171/3 93/170/3 97/174/3 98/173/3
f 93/170/1 91/169/1 96/175/1 97/174/1
f 92/168/7 94/171/7 98/173/7 95/172/7
f 132/176/6 105/177/6 104/178/6 101/179/6
f 121/180/7 112/181/7 107/182/7 117/183/7
f 106/184/2 102/185/2 101/186/2 104/187/2
f 103/146/16 131/188/16 102/189/16 106/147/16
f 103/163/2 83/136/2 74/135/2
f 105/177/6 81/137/6 76/140/6 104/178/6
f 122/190/2 114/191/2 108/192/2 118/193/2
f 114/191/2 115/194/2 100/195/2 108/192/2
f 113/196/6 109/197/6 107/198/6 112/199/6
f 111/200/2 109/201/2 101/202/2 102/203/2
f 115/204/16 111/205/16 102/206/16 131/207/16
f 107/208/2 109/201/2 111/200/2 110/209/2
f 117/210/2 107/208/2 110/209/2 119/211/2
f 108/212/19 100/213/19 99/214/19 116/215/19
f 118/216/1 108/212/1 116/215/1 120/217/1
f 110/218/20 111/205/20 115/204/20 114/219/20
f 119/220/14 110/218/14 114/219/14 122/221/14
f 46/106/14 119/220/14 122/221/14 53/107/14
f 43/108/1 118/216/1 120/217/1 52/109/1
f 42/110/2 117/210/2 119/211/2 46/111/2
f 53/112/2 122/190/2 118/193/2 43/113/2
f 50/114/7 121/180/7 117/183/7 42/115/7
f 124/222/15 126/223/15 125/224/15 123/225/15
f 127/226/11 128/227/11 129/228/11 130/229/11
f 123/225/6 128/227/6 127/226/6 124/222/6
f 126/223/3 130/229/3 129/228/3 125/224/3
f 125/224/7 129/228/7 128/227/7 123/225/7
f 124/222/1 127/226/1 130/229/1 126/223/1
f 131/230/2 100/195/2 115/194/2
f 132/231/6 101/232/6 109/197/6 113/196/6
f 23/1/1 145/233/1 133/234/1 10/2/1
f 148/235/11 146/236/11 137/237/11 143/238/11
f 143/238/11 137/237/11 136/239/11 144/240/11
f 13/11/3 10/14/3 133/241/3 138/242/3
f 141/243/11 162/244/11 161/245/11 138/246/11
f 144/247/21 160/248/21 162/249/21 141/250/21
f 133/251/11 140/252/11 141/243/11 138/246/11
f 145/253/11 147/254/11 140/252/11 133/251/11
f 137/255/5 18/30/5 12/29/5 136/256/5
f 136/256/6 12/29/6 33/32/6 157/257/6
f 146/258/7 22/34/7 18/30/7 137/255/7
f 136/239/11 157/259/11 186/260/11 160/261/11
f 140/262/22 143/263/22 144/247/22 141/250/22
f 147/264/23 148/265/23 143/263/23 140/262/23
f 139/266/23 142/267/23 148/265/23 147/264/23
f 135/268/7 14/45/7 22/34/7 146/258/7
f 134/269/11 139/270/11 147/254/11 145/253/11
f 142/271/11 135/272/11 146/236/11 148/235/11
f 11/50/1 134/273/1 145/233/1 23/1/1
f 150/274/24 149/275/24 151/276/24 152/277/24
f 153/278/2 156/279/2 155/280/2 154/281/2
f 149/275/3 150/274/3 153/278/3 154/281/3
f 152/277/6 151/276/6 155/280/6 156/279/6
f 151/276/1 149/275/1 154/281/1 155/280/1
f 150/274/7 152/277/7 156/279/7 153/278/7
f 72/60/3 39/63/3 161/282/3 158/283/3
f 61/64/7 49/67/7 163/284/7 174/285/7
f 162/286/11 159/287/11 158/288/11 161/289/11
f 160/248/21 186/290/21 159/291/21 162/249/21
f 160/261/11 144/240/11 136/239/11
f 39/63/3 13/11/3 138/242/3 161/282/3
f 177/292/11 172/293/11 166/294/11 175/295/11
f 172/293/11 173/296/11 157/297/11 166/294/11
f 51/80/3 167/298/3 163/299/3 49/81/3
f 170/300/11 167/301/11 158/302/11 159/303/11
f 173/304/21 170/305/21 159/306/21 186/307/21
f 163/308/11 167/301/11 170/300/11 169/309/11
f 174/310/11 163/308/11 169/309/11 176/311/11
f 166/312/12 157/313/12 33/98/12 56/97/12
f 175/314/1 166/312/1 56/97/1 60/101/1
f 169/315/25 170/305/25 173/304/25 172/316/25
f 176/317/26 169/315/26 172/316/26 177/318/26
f 168/319/26 176/317/26 177/318/26 171/320/26
f 165/321/1 175/314/1 60/101/1 52/109/1
f 164/322/11 174/310/11 176/311/11 168/323/11
f 171/324/11 177/292/11 175/295/11 165/325/11
f 50/114/7 61/64/7 174/285/7 164/326/7
f 179/327/27 181/328/27 180/329/27 178/330/27
f 182/331/2 183/332/2 184/333/2 185/334/2
f 178/330/3 183/332/3 182/331/3 179/327/3
f 181/328/6 185/334/6 184/333/6 180/329/6
f 180/329/7 184/333/7 183/332/7 178/330/7
f 179/327/1 182/331/1 185/334/1 181/328/1
f 186/335/11 157/297/11 173/296/11
f 72/125/3 158/336/3 167/298/3 51/80/3
f 89/127/1 79/130/1 187/337/1 195/338/1
f 198/339/11 193/340/11 189/341/11 196/342/11
f 193/340/11 194/343/11 188/344/11 189/341/11
f 81/137/6 190/345/6 187/346/6 79/138/6
f 192/347/11 190/348/11 211/349/11 212/350/11
f 194/351/28 192/352/28 212/353/28 210/354/28
f 187/355/11 190/348/11 192/347/11 191/356/11
f 195/357/11 187/355/11 191/356/11 197/358/11
f 189/359/17 188/360/17 80/155/17 84/154/17
f 188/360/3 207/361/3 99/157/3 80/155/3
f 196/362/7 189/359/7 84/154/7 88/160/7
f 188/344/11 210/363/11 232/364/11 207/365/11
f 191/366/29 192/352/29 194/351/29 193/367/29
f 197/368/23 191/366/23 193/367/23 198/369/23
f 139/266/23 197/368/23 198/369/23 142/267/23
f 135/268/7 196/362/7 88/160/7 14/45/7
f 134/269/11 195/357/11 197/358/11 139/270/11
f 142/271/11 198/339/11 196/342/11 135/272/11
f 11/50/1 89/127/1 195/338/1 134/273/1
f 200/370/24 202/371/24 201/372/24 199/373/24
f 203/374/2 204/375/2 205/376/2 206/377/2
f 199/373/6 204/375/6 203/374/6 200/370/6
f 202/371/3 206/377/3 205/376/3 201/372/3
f 201/372/1 205/376/1 204/375/1 199/373/1
f 200/370/7 203/374/7 206/377/7 202/371/7
f 132/176/6 208/378/6 211/379/6 105/177/6
f 121/180/7 220/380/7 213/381/7 112/181/7
f 212/382/11 211/383/11 208/384/11 209/385/11
f 210/354/28 212/353/28 209/386/28 232/387/28
f 210/363/11 188/344/11 194/343/11
f 105/177/6 211/379/6 190/345/6 81/137/6
f 223/388/11 221/389/11 214/390/11 218/391/11
f 218/391/11 214/390/11 207/392/11 219/393/11
f 113/196/6 112/199/6 213/394/6 215/395/6
f 217/396/11 209/397/11 208/398/11 215/399/11
f 219/400/28 232/401/28 209/402/28 217/403/28
f 213/404/11 216/405/11 217/396/11 215/399/11
f 220/406/11 222/407/11 216/405/11 213/404/11
f 214/408/19 116/215/19 99/214/19 207/409/19
f 221/410/1 120/217/1 116/215/1 214/408/1
f 216/411/30 218/412/30 219/400/30 217/403/30
f 222/413/26 223/414/26 218/412/26 216/411/26
f 168/319/26 171/320/26 223/414/26 222/413/26
f 165/321/1 52/109/1 120/217/1 221/410/1
f 164/322/11 168/323/11 222/407/11 220/406/11
f 171/324/11 165/325/11 221/389/11 223/388/11
f 50/114/7 164/326/7 220/380/7 121/180/7
f 225/415/27 224/416/27 226/417/27 227/418/27
f 228/419/2 231/420/2 230/421/2 229/422/2
f 224/416/6 225/415/6 228/419/6 229/422/6
f 227/418/3 226/417/3 230/421/3 231/420/3
f 226/417/7 224/416/7 229/422/7 230/421/7
f 225/415/1 227/418/1 231/420/1 228/419/1
f 232/423/11 219/393/11 207/392/11
f 132/231/6 113/196/6 215/395/6 208/424/6
