# Blender v3.6.0 OBJ File: 'AllModules_Unreal.blend'
# www.blender.org
mtllib Door_Frame_SquareTall_Middle.mtl
o Door_Frame_SquareTall_Middle_Cube.015
v 0.000000 -0.013425 0.201216
v 0.000000 -0.013425 0.000000
v 0.000000 0.057456 0.000000
v 0.000000 0.057456 0.176171
v 0.000000 -0.013425 -0.201216
v 0.000000 0.057456 -0.176171
v -1.000000 -0.013425 0.000000
v -1.000000 0.057456 0.176171
v -1.000000 -0.013425 0.201216
v -1.000000 -0.013425 -0.201216
v -1.000000 0.057456 -0.176171
v -1.000000 0.057456 0.000000
v 0.000000 5.000000 0.253425
v 0.000000 4.338295 0.175866
v -1.000000 4.338295 0.175866
v 0.000000 4.562488 0.253425
v 0.000000 5.000000 0.000000
v 0.000000 4.338295 0.000000
v 0.000000 4.526458 0.175866
v -1.000000 4.338295 0.000000
v -1.000000 4.562488 0.253425
v -0.097513 4.581341 0.244950
v -0.097513 4.431621 0.203369
v 0.112567 4.581341 0.244950
v 0.112567 4.431621 0.203369
v -0.097513 4.431621 0.170451
v -0.097513 4.581341 0.170451
v 0.112567 4.581341 0.170451
v 0.112567 4.431621 0.170451
v 0.000000 5.000000 -0.253425
v 0.000000 4.338295 -0.175866
v -1.000000 4.338295 -0.175866
v 0.000000 4.562488 -0.253425
v 0.000000 4.526458 -0.175866
v -0.097513 4.581341 -0.244950
v -0.097513 4.431621 -0.203369
v 0.112567 4.581341 -0.244950
v 0.112567 4.431621 -0.203369
v -0.097513 4.431621 -0.170451
v -0.097513 4.581341 -0.170451
v 0.112567 4.581341 -0.170451
v 0.112567 4.431621 -0.170451
v -1.000000 5.000000 -0.253425
v -1.000000 4.526458 -0.175866
v -1.000000 4.526458 0.175866
v -1.000000 5.000000 0.000000
v -1.000000 4.562488 -0.253425
v -1.000000 5.000000 0.253425
v 1.000000 -0.013425 0.000000
v 1.000000 0.057456 0.176171
v 1.000000 -0.013425 0.201216
v 1.000000 -0.013425 -0.201216
v 1.000000 0.057456 -0.176171
v 1.000000 0.057456 0.000000
v 1.000000 4.338295 0.175866
v 1.000000 4.338295 0.000000
v 1.000000 4.562488 0.253425
v 1.000000 4.338295 -0.175866
v 1.000000 5.000000 -0.253425
v 1.000000 4.526458 -0.175866
v 1.000000 4.526458 0.175866
v 1.000000 5.000000 0.000000
v 1.000000 4.562488 -0.253425
v 1.000000 5.000000 0.253425
vt 0.000000 0.000000
vt 0.000000 0.000000
vt 0.000000 0.000000
vt 0.000000 0.000000
vt 0.763194 0.536348
vt 0.763194 0.508353
vt 0.359789 0.508353
vt 0.359789 0.536348
vt 0.449900 0.101019
vt 0.449900 0.088914
vt 0.582660 0.088914
vt 0.582660 0.101019
vt 0.000000 0.000000
vt 0.000000 0.000000
vt 0.763194 0.536348
vt 0.359789 0.536348
vt 0.449900 0.101019
vt 0.582660 0.101019
vt 0.582660 0.088914
vt 0.449900 0.088914
vt 0.628688 0.705272
vt 0.433701 0.705272
vt 0.416213 0.658339
vt 0.628688 0.658339
vt 1.155062 0.550052
vt 0.968896 0.550052
vt 0.968896 0.511044
vt 1.155063 0.511044
vt 0.743700 0.270386
vt 0.743700 0.368181
vt 0.701947 0.366771
vt 0.701947 0.270386
vt 0.354020 0.126699
vt 0.654527 0.126699
vt 0.654528 0.001699
vt 0.354020 0.001699
vt 0.565207 0.132683
vt 0.434627 0.132683
vt 0.434627 0.085749
vt 0.565207 0.085749
vt 0.565207 0.132683
vt 0.565207 0.085749
vt 0.434627 0.085749
vt 0.434627 0.132683
vt 0.701947 0.368181
vt 0.743700 0.368181
vt 0.743700 0.270386
vt 0.701947 0.270386
vt 1.155062 0.550052
vt 0.968896 0.550052
vt 0.628688 0.705272
vt 0.628688 0.658339
vt 0.416213 0.658339
vt 0.433701 0.705272
vt 0.354020 0.001699
vt 0.654528 0.001699
vt 0.565207 0.132683
vt 0.565207 0.085749
vt 0.434627 0.085749
vt 0.434627 0.132683
vt 0.565207 0.132683
vt 0.434627 0.132683
vt 0.434627 0.085749
vt 0.565207 0.085749
vt 0.000000 0.000000
vt 0.000000 0.000000
vt 0.359789 0.536348
vt 0.359789 0.508353
vt 0.582660 0.101019
vt 0.582660 0.088914
vt 0.000000 0.000000
vt 0.359789 0.536348
vt 0.582660 0.088914
vt 0.582660 0.101019
vt 0.416213 0.658339
vt 0.433701 0.705272
vt 0.968896 0.511044
vt 0.968896 0.550052
vt 0.701947 0.366771
vt 0.743700 0.368181
vt 0.654528 0.001699
vt 0.654527 0.126699
vt 0.701947 0.368181
vt 0.743700 0.368181
vt 0.968896 0.550052
vt 0.433701 0.705272
vt 0.416213 0.658339
vt 0.654528 0.001699
vt 2.765336 0.999850
vt 2.765336 0.938138
vt 1.781811 0.938138
vt 1.837217 0.999850
vt 2.765336 0.999850
vt 1.837217 0.999850
vt 1.781811 0.938138
vt 2.765336 0.938138
vt 1.837217 0.999850
vt 1.781811 0.938138
vt 1.781811 0.938138
vt 1.837217 0.999850
vn 0.0000 -1.0000 0.0000
vn 0.0000 1.0000 0.0000
vn 0.0000 0.3332 0.9429
vn 0.0000 0.3332 -0.9429
vn 0.0000 0.0000 1.0000
vn 0.0000 -0.2676 0.9635
vn 0.0000 0.0000 -1.0000
vn -1.0000 0.0000 0.0000
vn 1.0000 -0.0000 0.0000
vn 0.0000 -0.2676 -0.9635
vn 0.0000 -0.9069 -0.4213
vn 0.0000 -0.9069 0.4213
usemtl MI_Trim_01
s off
f 1/1/1 9/2/1 7/3/1 2/4/1
f 4/5/2 3/6/2 12/7/2 8/8/2
f 1/9/3 4/10/3 8/11/3 9/12/3
f 5/13/1 2/4/1 7/3/1 10/14/1
f 6/15/2 11/16/2 12/7/2 3/6/2
f 5/17/4 10/18/4 11/19/4 6/20/4
f 19/21/5 45/22/5 15/23/5 14/24/5
f 14/25/1 15/26/1 20/27/1 18/28/1
f 13/29/5 48/30/5 21/31/5 16/32/5
f 17/33/2 46/34/2 48/35/2 13/36/2
f 23/37/6 25/38/6 24/39/6 22/40/6
f 26/41/7 27/42/7 28/43/7 29/44/7
f 22/40/8 27/42/8 26/41/8 23/37/8
f 25/38/9 29/44/9 28/43/9 24/39/9
f 24/39/2 28/43/2 27/42/2 22/40/2
f 23/37/1 26/41/1 29/44/1 25/38/1
f 47/45/7 43/46/7 30/47/7 33/48/7
f 31/49/1 18/28/1 20/27/1 32/50/1
f 34/51/7 31/52/7 32/53/7 44/54/7
f 17/33/2 30/55/2 43/56/2 46/34/2
f 36/57/10 35/58/10 37/59/10 38/60/10
f 39/61/5 42/62/5 41/63/5 40/64/5
f 35/58/8 36/57/8 39/61/8 40/64/8
f 38/60/9 37/59/9 41/63/9 42/62/9
f 37/59/2 35/58/2 40/64/2 41/63/2
f 36/57/1 38/60/1 42/62/1 39/61/1
f 1/1/1 2/4/1 49/65/1 51/66/1
f 4/5/2 50/67/2 54/68/2 3/6/2
f 1/9/3 51/69/3 50/70/3 4/10/3
f 5/13/1 52/71/1 49/65/1 2/4/1
f 6/15/2 3/6/2 54/68/2 53/72/2
f 5/17/4 6/20/4 53/73/4 52/74/4
f 19/21/5 14/24/5 55/75/5 61/76/5
f 14/25/1 18/28/1 56/77/1 55/78/1
f 13/29/5 16/32/5 57/79/5 64/80/5
f 17/33/2 13/36/2 64/81/2 62/82/2
f 63/83/7 33/48/7 30/47/7 59/84/7
f 31/49/1 58/85/1 56/77/1 18/28/1
f 34/51/7 60/86/7 58/87/7 31/52/7
f 17/33/2 62/82/2 59/88/2 30/55/2
usemtl MI_Trim_02
f 33/89/11 34/90/11 44/91/11 47/92/11
f 16/93/12 21/94/12 45/95/12 19/96/12
f 33/89/11 63/97/11 60/98/11 34/90/11
f 16/93/12 19/96/12 61/99/12 57/100/12
