# Blender v3.6.0 OBJ File: 'AllModules_Unreal.blend'
# www.blender.org
mtllib Platform_RedAccent.mtl
o Platform_RedAccent_Plane.181
v 2.000000 0.000000 -2.000000
v 0.000000 0.000000 -2.000000
v 2.000000 0.000000 0.000000
v -2.000000 0.000000 -2.000000
v -2.000000 0.000000 -0.000000
v 2.000000 0.000000 2.000000
v -0.000000 0.000000 2.000000
v -2.000000 0.000000 2.000000
v 1.881668 0.000000 0.000000
v 1.881668 0.000000 -1.881667
v 0.000000 0.000000 -1.881668
v -1.881668 0.000000 -0.000000
v -1.881667 0.000000 -1.881668
v 1.881667 0.000000 1.881668
v -0.000000 0.000000 1.881668
v -1.881668 0.000000 1.881667
v 0.000000 0.000000 0.000000
v 1.881668 0.000000 -0.000001
v 1.881667 0.000000 -1.881669
v 0.000000 0.000000 -1.881668
v 1.881669 0.000000 1.881667
v -0.000000 0.000000 1.881668
v 0.589982 0.000000 -1.881668
v 0.589983 0.000000 -0.000000
v 0.589984 0.000000 1.881667
v -1.881668 0.000000 -0.000001
v -1.881666 0.000000 -1.881669
v -1.881669 0.000000 1.881666
v -0.589981 0.000000 -1.881668
v -0.589983 0.000000 -0.000000
v -0.589984 0.000000 1.881667
vt 0.500000 0.656771
vt 0.500000 0.500000
vt 1.000000 0.500000
vt 1.000000 0.656771
vt 1.500000 0.656771
vt 1.500000 0.500000
vt 1.000000 1.000000
vt 0.500000 1.000000
vt 0.500000 0.656771
vt 1.000000 0.656771
vt 0.000000 1.000000
vt 0.000000 0.656771
vt 0.500000 0.656771
vt 1.000000 0.656771
vt 1.500000 0.656771
vt 1.000000 1.000000
vt 1.000000 0.656771
vt 0.500000 0.656771
vt 0.500000 1.000000
vt 0.000000 1.000000
vt 0.000000 0.656771
vt -0.481310 0.938138
vt 0.500000 0.938138
vt 0.500000 0.999850
vt -0.543022 0.999850
vt 0.500000 0.938138
vt 1.481306 0.938138
vt 1.543018 0.999850
vt 0.500000 0.999850
vt 0.500000 0.938138
vt 1.481306 0.938138
vt 1.543017 0.999850
vt 0.500000 0.999850
vt -0.481306 0.938139
vt -0.543018 0.999850
vt 1.481310 0.938138
vt 1.543022 0.999850
vt -0.481309 0.938138
vt 0.500000 0.938138
vt 0.500000 0.999850
vt -0.543021 0.999850
vt -0.481306 0.938139
vt -0.543017 0.999850
vt 1.481309 0.938138
vt 1.543021 0.999850
vn 0.0000 1.0000 0.0000
usemtl MI_Trim_01
s off
f 23/1/1 20/2/1 17/3/1 24/4/1
f 25/5/1 24/4/1 17/3/1 22/6/1
f 21/7/1 18/8/1 24/9/1 25/10/1
f 19/11/1 23/12/1 24/9/1 18/8/1
f 29/13/1 30/14/1 17/3/1 20/2/1
f 31/15/1 22/6/1 17/3/1 30/14/1
f 28/16/1 31/17/1 30/18/1 26/19/1
f 27/20/1 26/19/1 30/18/1 29/21/1
usemtl MI_Trim_02
f 10/22/1 9/23/1 3/24/1 1/25/1
f 11/26/1 10/27/1 1/28/1 2/29/1
f 12/30/1 13/31/1 4/32/1 5/33/1
f 13/34/1 11/26/1 2/29/1 4/35/1
f 9/23/1 14/36/1 6/37/1 3/24/1
f 14/38/1 15/39/1 7/40/1 6/41/1
f 16/42/1 12/30/1 5/33/1 8/43/1
f 15/39/1 16/44/1 8/45/1 7/40/1
