# Blender v3.6.0 OBJ File: 'AllModules_Unreal.blend'
# www.blender.org
mtllib Platform_Ramp2_4.mtl
o Platform_Ramp2_4_Cube.025
v 1.000000 0.000000 4.000000
v 1.000000 1.000000 2.000000
v 0.000000 1.000000 2.000000
v 0.000000 0.000000 4.000000
v 0.000000 0.048773 3.900553
v 0.248418 1.000000 2.000000
v 0.248492 0.000000 4.000000
v 0.248482 0.048773 3.900553
v 0.505876 1.000000 2.000000
v 0.505949 0.000000 4.000000
v 0.505940 0.048773 3.900553
v 0.000000 2.000000 0.000000
v 0.249852 2.000000 0.000000
v 0.505802 2.000000 0.000000
v 1.000000 0.000000 3.900552
v 0.999990 0.048773 3.900553
v 0.999852 2.000000 0.000000
v 1.000026 1.000000 1.674859
v 1.000026 0.000000 1.990000
v 1.000026 0.000000 3.674859
v 1.000026 1.841452 0.000000
v 1.000026 1.000000 0.000000
v 1.000026 0.000000 0.000000
v 0.000000 1.000000 0.000000
v 0.000000 1.841452 0.000000
v 0.000000 0.000000 0.000000
v 0.500019 1.000000 0.000000
v 0.500019 0.000000 0.000000
v 0.500019 1.841452 0.000000
v 0.250016 1.841452 0.000000
v 0.250016 1.000000 0.000000
v 0.250016 0.000000 0.000000
v -1.000000 0.000000 4.000000
v -1.000000 1.000000 2.000000
v -0.248418 1.000000 2.000000
v -0.248492 0.000000 4.000000
v -0.248482 0.048773 3.900553
v -0.505876 1.000000 2.000000
v -0.505949 0.000000 4.000000
v -0.505940 0.048773 3.900553
v -0.249852 2.000000 0.000000
v -0.505802 2.000000 0.000000
v -1.000000 0.000000 3.900552
v -0.999990 0.048773 3.900553
v -0.999852 2.000000 0.000000
v -1.000026 1.000000 1.674859
v -1.000026 0.000000 1.990000
v -1.000026 0.000000 3.674859
v -1.000026 1.841452 0.000000
v -1.000026 1.000000 0.000000
v -1.000026 0.000000 0.000000
v -0.500019 1.000000 0.000000
v -0.500019 0.000000 0.000000
v -0.500019 1.841452 0.000000
v -0.250016 1.841452 0.000000
v -0.250016 1.000000 0.000000
v -0.250016 0.000000 0.000000
v 0.069517 0.166401 3.666923
v -0.069518 0.166402 3.666921
v 0.069517 0.118959 3.762623
v -0.069518 0.118960 3.762622
v 0.069516 1.096044 1.808849
v -0.069519 1.096044 1.808847
v 0.069516 1.048601 1.904549
v -0.069519 1.048602 1.904548
vt 0.262499 0.847400
vt 0.262499 0.812297
vt 0.737724 0.812297
vt 0.737724 0.847400
vt 0.262499 0.530514
vt 0.262499 0.495544
vt 0.737724 0.495544
vt 0.737724 0.530514
vt 0.262499 0.597621
vt 0.737724 0.597621
vt 0.262499 0.847400
vt 0.262499 0.812297
vt 0.737724 0.812297
vt 0.737724 0.847400
vt 0.262499 0.530514
vt 0.262499 0.495544
vt 0.737724 0.495544
vt 0.737724 0.530514
vt 0.262499 0.597621
vt 0.737724 0.597621
vt 0.262499 0.847400
vt 0.737724 0.847400
vt 0.262499 0.530514
vt 0.737724 0.530514
vt 0.737724 0.495544
vt 0.262499 0.495544
vt 0.262499 0.597621
vt 0.737724 0.597621
vt 0.262499 0.847400
vt 0.737724 0.847400
vt 0.262499 0.530514
vt 0.737724 0.530514
vt 0.737724 0.495544
vt 0.262499 0.495544
vt 0.262499 0.597621
vt 0.737724 0.597621
vt 0.516806 1.000027
vt 0.475073 1.000027
vt 0.516806 0.937427
vt 0.620359 0.999850
vt 0.500000 0.999850
vt 0.500000 0.938138
vt 0.620359 0.938138
vt 0.745062 0.999850
vt 0.745062 0.938138
vt 0.984360 0.999850
vt 0.984360 0.938139
vt 0.516806 1.000027
vt 0.516806 0.937427
vt 0.475073 1.000027
vt 0.620359 0.999850
vt 0.620359 0.938138
vt 0.745062 0.999850
vt 0.745062 0.938138
vt 0.984360 0.999850
vt 0.984360 0.938139
vt 0.666262 0.135532
vt 0.666262 0.057430
vt 0.726264 0.057430
vt 0.726265 0.135532
vt 0.666262 0.135532
vt 0.666262 0.057430
vt 0.726264 0.057430
vt 0.726265 0.135532
vt 0.349063 0.500270
vt 0.759463 0.500434
vt 0.763675 0.508858
vt 0.726421 0.527485
vt 0.294633 0.527485
vt 0.290950 0.806428
vt 0.258921 0.837390
vt 0.258965 0.742385
vt 0.314592 0.500270
vt 0.743716 0.500270
vt 0.689622 0.527317
vt 0.328200 0.527485
vt 0.290906 0.901433
vt 0.258921 0.917406
vt 0.282328 0.879045
vt 0.282328 0.776433
vt 0.323167 0.858112
vt 0.347072 0.175432
vt 0.347072 0.360132
vt 0.291869 0.360132
vt 0.291869 0.175432
vt 0.372305 0.396059
vt 0.372284 0.360612
vt 0.400263 0.360612
vt 0.400280 0.396059
vt 0.372284 0.172486
vt 0.400263 0.172486
vt 0.288347 0.172486
vt 0.344305 0.172486
vt 0.344305 0.360612
vt 0.288347 0.360612
vt 0.288380 0.396059
vt 0.344330 0.396059
vt 0.374674 0.175432
vt 0.374674 0.360132
vt 0.402275 0.175432
vt 0.402275 0.360132
vt 0.349063 0.500270
vt 0.294633 0.527485
vt 0.726421 0.527485
vt 0.763675 0.508858
vt 0.759463 0.500434
vt 0.290950 0.806428
vt 0.258965 0.742385
vt 0.258921 0.837390
vt 0.314592 0.500270
vt 0.328200 0.527485
vt 0.689622 0.527317
vt 0.743716 0.500270
vt 0.290906 0.901433
vt 0.258921 0.917406
vt 0.282328 0.879045
vt 0.323167 0.858112
vt 0.282328 0.776433
vt 0.347072 0.175432
vt 0.291869 0.175432
vt 0.291869 0.360132
vt 0.347072 0.360132
vt 0.372305 0.396059
vt 0.372284 0.360612
vt 0.372284 0.172486
vt 0.288347 0.172486
vt 0.288347 0.360612
vt 0.344305 0.360612
vt 0.344305 0.172486
vt 0.288380 0.396059
vt 0.344330 0.396059
vt 0.374674 0.175432
vt 0.374674 0.360132
vn 0.0000 0.8942 0.4476
vn 0.0000 0.8944 0.4472
vn 1.0000 0.0002 0.0000
vn 0.0000 0.8978 0.4403
vn -1.0000 0.0002 0.0000
vn -0.0000 0.8960 0.4442
vn -0.0000 0.8959 0.4442
vn 1.0000 0.0002 0.0001
vn 1.0000 0.0000 0.0000
vn 1.0000 0.0007 0.0003
vn 0.0000 0.0000 -1.0000
vn -1.0000 0.0002 0.0001
vn -1.0000 0.0000 0.0000
vn -1.0000 0.0007 0.0003
usemtl MI_Trim_01
s off
f 6/1/1 3/2/1 5/3/1 8/4/1
f 9/5/1 6/6/1 8/7/1 11/8/1
f 2/9/1 9/5/1 11/8/1 16/10/1
f 13/11/2 12/12/2 3/13/2 6/14/2
f 14/15/2 13/16/2 6/17/2 9/18/2
f 17/19/2 14/15/2 9/18/2 2/20/2
f 35/21/1 37/22/1 5/3/1 3/2/1
f 38/23/1 40/24/1 37/25/1 35/26/1
f 34/27/1 44/28/1 40/24/1 38/23/1
f 41/29/2 35/30/2 3/13/2 12/12/2
f 42/31/2 38/32/2 35/33/2 41/34/2
f 45/35/2 34/36/2 38/32/2 42/31/2
usemtl MI_Trim_02
f 15/37/3 16/38/3 1/39/3
f 8/40/4 5/41/4 4/42/4 7/43/4
f 11/44/4 8/40/4 7/43/4 10/45/4
f 16/46/4 11/44/4 10/45/4 1/47/4
f 43/48/5 33/49/5 44/50/5
f 37/51/4 36/52/4 4/42/4 5/41/4
f 40/53/4 39/54/4 36/52/4 37/51/4
f 44/55/4 33/56/4 39/54/4 40/53/4
usemtl M_Decal_White
f 61/57/6 60/58/6 58/59/6 59/60/6
f 65/61/7 64/62/7 62/63/7 63/64/7
usemtl MI_Trim_01_Floor
f 2/65/8 16/66/8 15/67/8 20/68/8 18/69/8
f 19/70/9 18/71/9 20/72/9
f 17/73/10 2/74/10 18/75/10 21/76/10
f 22/77/9 21/78/9 18/71/9
f 19/70/9 22/77/9 18/71/9
f 22/79/9 19/80/9 23/81/9
f 28/82/11 27/83/11 22/84/11 23/85/11
f 13/86/11 30/87/11 25/88/11 12/89/11
f 31/90/11 24/91/11 25/88/11 30/87/11
f 22/92/11 27/93/11 29/94/11 21/95/11
f 17/96/11 21/95/11 29/94/11 14/97/11
f 32/98/11 31/99/11 27/83/11 28/82/11
f 26/100/11 24/101/11 31/99/11 32/98/11
f 27/93/11 31/90/11 30/87/11 29/94/11
f 14/97/11 29/94/11 30/87/11 13/86/11
f 34/102/12 46/103/12 48/104/12 43/105/12 44/106/12
f 47/107/13 48/108/13 46/109/13
f 45/110/14 49/111/14 46/112/14 34/113/14
f 50/114/13 46/109/13 49/115/13
f 47/107/13 46/109/13 50/114/13
f 50/116/13 51/117/13 47/118/13
f 53/119/11 51/120/11 50/121/11 52/122/11
f 41/123/11 12/89/11 25/88/11 55/124/11
f 56/125/11 55/124/11 25/88/11 24/91/11
f 50/126/11 49/127/11 54/128/11 52/129/11
f 45/130/11 42/131/11 54/128/11 49/127/11
f 57/132/11 53/119/11 52/122/11 56/133/11
f 26/100/11 57/132/11 56/133/11 24/101/11
f 52/129/11 54/128/11 55/124/11 56/125/11
f 42/131/11 41/123/11 55/124/11 54/128/11
