# Blender v3.6.0 OBJ File: 'AllModules_Unreal.blend'
# www.blender.org
mtllib Platform_WidePlates.mtl
o Platform_WidePlates_Plane.078
v -2.000000 0.000000 2.000000
v 2.000000 0.000000 2.000000
v -2.000000 0.000000 -2.000000
v 2.000000 0.000000 -2.000000
v 0.000000 0.000000 2.000000
v 0.000000 0.000000 -2.000000
vt 1.000000 0.884471
vt 1.000000 0.526007
vt 0.000000 0.526007
vt 0.000000 0.884470
vt 1.000000 0.526007
vt -0.000000 0.526007
vn 0.0000 1.0000 0.0000
usemtl MI_Trim_01
s off
f 5/1/1 2/2/1 4/3/1 6/4/1
f 1/5/1 5/1/1 6/4/1 3/6/1
