# Blender v3.6.0 OBJ File: 'AllModules_Unreal.blend'
# www.blender.org
mtllib Platform_Ramp2_2Short.mtl
o Platform_Ramp2_2Short_Cube.049
v 1.000000 0.000000 1.500000
v 0.999852 1.000000 0.000000
v 1.000000 0.841451 0.000000
v 1.000000 0.000000 0.000000
v 1.000000 0.000000 1.262177
v 1.000000 0.000000 1.401389
v 0.999990 0.065740 1.401389
v 0.506701 1.000000 0.000000
v 0.506849 0.000000 1.500000
v 0.506840 0.065740 1.401389
v 0.506849 0.841451 0.000000
v 0.506849 0.000000 0.000000
v 0.282258 0.841451 0.000000
v 0.282258 0.000000 0.000000
v 0.282110 1.000000 0.000000
v 0.282258 0.000000 1.500000
v 0.282248 0.065740 1.401389
v 0.000000 0.841451 0.000000
v 0.000000 0.000000 0.000000
v 0.000000 1.000000 0.000000
v 0.000000 0.000000 1.500000
v 0.000000 0.065740 1.401389
v -1.000000 0.000000 1.500000
v -0.999852 1.000000 0.000000
v -1.000000 0.841451 0.000000
v -1.000000 0.000000 0.000000
v -1.000000 0.000000 1.262177
v -1.000000 0.000000 1.401389
v -0.999990 0.065740 1.401389
v -0.506701 1.000000 0.000000
v -0.506849 0.000000 1.500000
v -0.506840 0.065740 1.401389
v -0.506849 0.841451 0.000000
v -0.506849 0.000000 0.000000
v -0.282258 0.841451 0.000000
v -0.282258 0.000000 0.000000
v -0.282110 1.000000 0.000000
v -0.282258 0.000000 1.500000
v -0.282248 0.065740 1.401389
v 0.069517 0.162794 1.259000
v -0.069518 0.162795 1.258998
v 0.069517 0.103428 1.347797
v -0.069518 0.103428 1.347796
v -0.069517 0.162794 1.259000
v 0.069518 0.162795 1.258998
v -0.069517 0.103428 1.347797
v 0.069518 0.103428 1.347796
vt 0.665543 0.528103
vt 0.316742 0.528103
vt 0.309190 0.516775
vt 0.333178 0.500783
vt 0.647330 0.500783
vt 0.322684 0.861836
vt 0.254884 0.907239
vt 0.254580 0.760136
vt 0.288380 0.396059
vt 0.288347 0.360612
vt 0.398602 0.360612
vt 0.398635 0.396059
vt 0.288347 0.172486
vt 0.398602 0.172486
vt 0.236877 0.597952
vt 0.236877 0.532116
vt 0.722527 0.532116
vt 0.722527 0.597952
vt 0.456792 0.360612
vt 0.456826 0.396059
vt 0.456793 0.172486
vt 0.332489 0.530792
vt 0.332489 0.499884
vt 0.626916 0.499884
vt 0.626916 0.530792
vt 0.596143 0.360612
vt 0.596176 0.396059
vt 0.596143 0.172485
vt 0.282471 0.889331
vt 0.282471 0.764851
vt 0.728770 0.764851
vt 0.728770 0.889331
vt 0.665543 0.528103
vt 0.647330 0.500783
vt 0.333178 0.500783
vt 0.309190 0.516775
vt 0.316742 0.528103
vt 0.322684 0.861836
vt 0.254580 0.760136
vt 0.254884 0.907239
vt 0.288380 0.396059
vt 0.398635 0.396059
vt 0.398602 0.360612
vt 0.288347 0.360612
vt 0.288347 0.172486
vt 0.398602 0.172486
vt 0.236877 0.597952
vt 0.722527 0.597952
vt 0.722527 0.532116
vt 0.236877 0.532116
vt 0.456826 0.396059
vt 0.456792 0.360612
vt 0.456793 0.172486
vt 0.332489 0.530792
vt 0.626916 0.530792
vt 0.626916 0.499884
vt 0.332489 0.499884
vt 0.282471 0.889331
vt 0.728770 0.889331
vt 0.516806 1.000027
vt 0.475073 1.000027
vt 0.516806 0.937427
vt 0.984360 0.999850
vt 0.745498 0.999850
vt 0.745498 0.938138
vt 0.984360 0.938139
vt 0.619431 0.999850
vt 0.619431 0.938138
vt 0.317536 0.999850
vt 0.317536 0.938138
vt 0.516806 1.000027
vt 0.516806 0.937427
vt 0.475073 1.000027
vt 0.984360 0.999850
vt 0.984360 0.938139
vt 0.745498 0.938138
vt 0.745498 0.999850
vt 0.619431 0.938138
vt 0.619431 0.999850
vt 0.666262 0.135532
vt 0.666262 0.057430
vt 0.726264 0.057430
vt 0.726265 0.135532
vt 0.666262 0.135532
vt 0.726265 0.135532
vt 0.726264 0.057430
vt 0.666262 0.057430
vn 1.0000 0.0005 0.0003
vn 1.0000 0.0000 0.0000
vn 0.0000 0.0000 -1.0000
vn 0.0000 0.8321 0.5547
vn -1.0000 0.0005 0.0003
vn -1.0000 0.0000 0.0000
vn 1.0000 0.0001 0.0000
vn -1.0000 0.0001 0.0000
vn -0.0000 0.8313 0.5558
usemtl MI_Trim_01_Floor
s off
f 2/1/1 7/2/1 6/3/1 5/4/1 3/5/1
f 4/6/2 3/7/2 5/8/2
f 2/9/3 3/10/3 11/11/3 8/12/3
f 4/13/3 12/14/3 11/11/3 3/10/3
f 2/15/4 8/16/4 10/17/4 7/18/4
f 8/12/3 11/11/3 13/19/3 15/20/3
f 12/14/3 14/21/3 13/19/3 11/11/3
f 8/22/4 15/23/4 17/24/4 10/25/4
f 15/20/3 13/19/3 18/26/3 20/27/3
f 14/21/3 19/28/3 18/26/3 13/19/3
f 15/29/4 20/30/4 22/31/4 17/32/4
f 24/33/5 25/34/5 27/35/5 28/36/5 29/37/5
f 26/38/6 27/39/6 25/40/6
f 24/41/3 30/42/3 33/43/3 25/44/3
f 26/45/3 25/44/3 33/43/3 34/46/3
f 24/47/4 29/48/4 32/49/4 30/50/4
f 30/42/3 37/51/3 35/52/3 33/43/3
f 34/46/3 33/43/3 35/52/3 36/53/3
f 30/54/4 32/55/4 39/56/4 37/57/4
f 37/51/3 20/27/3 18/26/3 35/52/3
f 36/53/3 35/52/3 18/26/3 19/28/3
f 37/58/4 39/59/4 22/31/4 20/30/4
usemtl MI_Trim_02
f 6/60/7 7/61/7 1/62/7
f 7/63/4 10/64/4 9/65/4 1/66/4
f 10/64/4 17/67/4 16/68/4 9/65/4
f 17/67/4 22/69/4 21/70/4 16/68/4
f 28/71/8 23/72/8 29/73/8
f 29/74/4 23/75/4 31/76/4 32/77/4
f 32/77/4 31/76/4 38/78/4 39/79/4
f 39/79/4 38/78/4 21/70/4 22/69/4
usemtl M_Decal_White
f 43/80/9 42/81/9 40/82/9 41/83/9
f 47/84/9 45/85/9 44/86/9 46/87/9
