# Blender v3.6.0 OBJ File: 'AllModules_Unreal.blend'
# www.blender.org
mtllib Platform_WidePlates_Curve.mtl
o Platform_WidePlates_Curve_Plane.058
v -2.000000 -0.000000 2.000000
v -1.991436 -0.000000 1.738387
v -1.965780 -0.000000 1.477895
v -1.923142 -0.000000 1.219639
v -1.863704 -0.000000 0.964724
v -1.787721 -0.000000 0.714242
v -1.695519 -0.000000 0.469266
v -1.587492 -0.000000 0.230845
v -1.464103 -0.000000 -0.000000
v -1.325880 -0.000000 -0.222281
v -1.173415 -0.000000 -0.435046
v -1.007361 -0.000000 -0.637384
v -0.828429 -0.000000 -0.828428
v -0.637385 -0.000000 -1.007360
v -0.435048 -0.000000 -1.173414
v -0.222283 -0.000000 -1.325879
v -0.000002 -0.000000 -1.464103
v 2.000000 -0.000000 2.000000
v 0.230843 -0.000000 -1.587492
v 0.469264 -0.000000 -1.695520
v 0.714240 -0.000000 -1.787722
v 0.964722 -0.000000 -1.863705
v 1.219637 -0.000000 -1.923143
v 1.477894 -0.000000 -1.965781
v 1.738386 -0.000000 -1.991438
v 1.999999 -0.000000 -2.000002
v 2.000000 -0.000000 1.285042
v 1.860518 -0.000000 1.298780
v 1.953239 -0.000000 1.286573
v 1.906679 -0.000000 1.291158
v 1.814955 -0.000000 1.309403
v 1.683782 -0.000000 1.358774
v 1.770184 -0.000000 1.322985
v 1.726397 -0.000000 1.339465
v 1.642521 -0.000000 1.380828
v 1.528595 -0.000000 1.462466
v 1.602790 -0.000000 1.405534
v 1.564761 -0.000000 1.432786
v 1.494448 -0.000000 1.494448
v 1.405534 -0.000000 1.602791
v 1.462466 -0.000000 1.528596
v 1.432786 -0.000000 1.564761
v 1.380828 -0.000000 1.642521
v 1.322985 -0.000000 1.770184
v 1.358773 -0.000000 1.683782
v 1.339465 -0.000000 1.726397
v 1.309403 -0.000000 1.814955
v 1.286573 -0.000000 1.953240
v 1.298780 -0.000000 1.860519
v 1.291158 -0.000000 1.906679
v 1.285042 -0.000000 2.000000
v 2.000000 -0.000000 1.578144
v 1.917700 -0.000000 1.586250
v 1.972409 -0.000000 1.579048
v 1.944937 -0.000000 1.581753
v 1.890815 -0.000000 1.592519
v 1.813418 -0.000000 1.621649
v 1.864399 -0.000000 1.600532
v 1.838563 -0.000000 1.610256
v 1.789072 -0.000000 1.634663
v 1.721851 -0.000000 1.682832
v 1.765629 -0.000000 1.649240
v 1.743191 -0.000000 1.665320
v 1.701703 -0.000000 1.701703
v 1.649240 -0.000000 1.765630
v 1.682832 -0.000000 1.721852
v 1.665319 -0.000000 1.743191
v 1.634662 -0.000000 1.789072
v 1.600532 -0.000000 1.864399
v 1.621649 -0.000000 1.813418
v 1.610256 -0.000000 1.838563
v 1.592519 -0.000000 1.890816
v 1.579048 -0.000000 1.972409
v 1.586250 -0.000000 1.917700
v 1.581753 -0.000000 1.944937
v 1.578145 -0.000000 2.000000
v -1.266321 -0.000000 2.000000
v -1.259328 -0.000000 1.786372
v -1.238378 -0.000000 1.573660
v -1.203560 -0.000000 1.362772
v -1.155025 -0.000000 1.154614
v -1.092979 -0.000000 0.950075
v -1.017688 -0.000000 0.750033
v -0.929475 -0.000000 0.555343
v -0.828718 -0.000000 0.366839
v -0.715848 -0.000000 0.185329
v -0.591348 -0.000000 0.011589
v -0.455752 -0.000000 -0.153636
v -0.309639 -0.000000 -0.309638
v -0.153637 -0.000000 -0.455751
v 0.011588 -0.000000 -0.591347
v 0.185328 -0.000000 -0.715847
v 0.366838 -0.000000 -0.828718
v 0.555341 -0.000000 -0.929475
v 0.750031 -0.000000 -1.017688
v 0.950074 -0.000000 -1.092979
v 1.154612 -0.000000 -1.155025
v 1.362771 -0.000000 -1.203561
v 1.573658 -0.000000 -1.238379
v 1.786371 -0.000000 -1.259330
v 1.999999 -0.000000 -1.266323
v -1.567586 -0.000000 2.000000
v -1.559947 -0.000000 1.766669
v -1.537065 -0.000000 1.534337
v -1.499036 -0.000000 1.303999
v -1.446024 -0.000000 1.076641
v -1.378255 -0.000000 0.853237
v -1.296020 -0.000000 0.634744
v -1.199672 -0.000000 0.422097
v -1.089621 -0.000000 0.216207
v -0.966340 -0.000000 0.017955
v -0.830357 -0.000000 -0.171809
v -0.682255 -0.000000 -0.352273
v -0.522666 -0.000000 -0.522665
v -0.352274 -0.000000 -0.682254
v -0.171810 -0.000000 -0.830357
v 0.017954 -0.000000 -0.966340
v 0.216205 -0.000000 -1.089621
v 0.422096 -0.000000 -1.199672
v 0.634742 -0.000000 -1.296021
v 0.853236 -0.000000 -1.378256
v 1.076639 -0.000000 -1.446025
v 1.303997 -0.000000 -1.499037
v 1.534335 -0.000000 -1.537066
v 1.766667 -0.000000 -1.559949
v 1.999999 -0.000000 -1.567588
v 2.000000 -0.000000 0.773562
v 1.760733 -0.000000 0.797127
v 1.919787 -0.000000 0.776188
v 1.839917 -0.000000 0.784054
v 1.682574 -0.000000 0.815352
v 1.457560 -0.000000 0.900041
v 1.605774 -0.000000 0.838649
v 1.530662 -0.000000 0.866919
v 1.386780 -0.000000 0.937873
v 1.191353 -0.000000 1.077915
v 1.318627 -0.000000 0.980254
v 1.253391 -0.000000 1.027001
v 1.132777 -0.000000 1.132777
v 0.980254 -0.000000 1.318628
v 1.077915 -0.000000 1.191353
v 1.027001 -0.000000 1.253392
v 0.937873 -0.000000 1.386781
v 0.838649 -0.000000 1.605775
v 0.900041 -0.000000 1.457560
v 0.866919 -0.000000 1.530663
v 0.815352 -0.000000 1.682575
v 0.776188 -0.000000 1.919787
v 0.797128 -0.000000 1.760734
v 0.784054 -0.000000 1.839918
v 0.773562 -0.000000 2.000000
v -1.032794 -0.000000 2.000000
v -1.026301 -0.000000 1.801646
v -1.006849 -0.000000 1.604141
v -0.974520 -0.000000 1.408331
v -0.929455 -0.000000 1.215055
v -0.871845 -0.000000 1.025140
v -0.801937 -0.000000 0.839400
v -0.720031 -0.000000 0.658629
v -0.626478 -0.000000 0.483603
v -0.521677 -0.000000 0.315070
v -0.406079 -0.000000 0.153752
v -0.280177 -0.000000 0.000340
v -0.144511 -0.000000 -0.144510
v 0.000339 -0.000000 -0.280176
v 0.153750 -0.000000 -0.406078
v 0.315068 -0.000000 -0.521677
v 0.483601 -0.000000 -0.626478
v 0.658628 -0.000000 -0.720031
v 0.839399 -0.000000 -0.801937
v 1.025139 -0.000000 -0.871845
v 1.215054 -0.000000 -0.929455
v 1.408330 -0.000000 -0.974521
v 1.604140 -0.000000 -1.006850
v 1.801644 -0.000000 -1.026302
v 1.999999 -0.000000 -1.032796
v 2.000000 -0.000000 0.983203
v 1.801632 -0.000000 1.002740
v 1.933498 -0.000000 0.985380
v 1.867281 -0.000000 0.991902
v 1.736833 -0.000000 1.017849
v 1.550282 -0.000000 1.088062
v 1.673161 -0.000000 1.037164
v 1.610888 -0.000000 1.060602
v 1.491601 -0.000000 1.119428
v 1.329579 -0.000000 1.235531
v 1.435097 -0.000000 1.154564
v 1.381013 -0.000000 1.193321
v 1.281016 -0.000000 1.281016
v 1.154564 -0.000000 1.435098
v 1.235531 -0.000000 1.329579
v 1.193320 -0.000000 1.381013
v 1.119428 -0.000000 1.491602
v 1.037164 -0.000000 1.673161
v 1.088062 -0.000000 1.550282
v 1.060602 -0.000000 1.610889
v 1.017849 -0.000000 1.736834
v 0.985380 -0.000000 1.933498
v 1.002740 -0.000000 1.801633
v 0.991902 -0.000000 1.867281
v 0.983203 -0.000000 2.000000
v -0.258199 -0.000000 2.000000
v -0.774596 -0.000000 2.000000
v -0.253364 -0.000000 1.852307
v -0.768655 -0.000000 1.818533
v -0.238880 -0.000000 1.705246
v -0.750859 -0.000000 1.637843
v -0.214808 -0.000000 1.559447
v -0.721283 -0.000000 1.458703
v -0.181253 -0.000000 1.415535
v -0.680054 -0.000000 1.281882
v -0.138357 -0.000000 1.274126
v -0.627349 -0.000000 1.108135
v -0.086304 -0.000000 1.135825
v -0.563393 -0.000000 0.938208
v -0.025317 -0.000000 1.001224
v -0.488460 -0.000000 0.772828
v 0.044342 -0.000000 0.870901
v -0.402871 -0.000000 0.612702
v 0.122376 -0.000000 0.745412
v -0.306993 -0.000000 0.458517
v 0.208450 -0.000000 0.625296
v -0.201236 -0.000000 0.310933
v 0.302195 -0.000000 0.511066
v -0.086053 -0.000000 0.170582
v 0.403211 -0.000000 0.403212
v 0.038063 -0.000000 0.038064
v 0.511065 -0.000000 0.302196
v 0.170581 -0.000000 -0.086052
v 0.625295 -0.000000 0.208450
v 0.310932 -0.000000 -0.201235
v 0.745411 -0.000000 0.122376
v 0.458516 -0.000000 -0.306993
v 0.870900 -0.000000 0.044342
v 0.612701 -0.000000 -0.402871
v 1.001223 -0.000000 -0.025317
v 0.772826 -0.000000 -0.488460
v 1.135824 -0.000000 -0.086304
v 0.938207 -0.000000 -0.563393
v 1.274125 -0.000000 -0.138357
v 1.108134 -0.000000 -0.627349
v 1.415534 -0.000000 -0.181253
v 1.281881 -0.000000 -0.680055
v 1.559446 -0.000000 -0.214809
v 1.458702 -0.000000 -0.721284
v 1.705245 -0.000000 -0.238880
v 1.637841 -0.000000 -0.750860
v 1.852306 -0.000000 -0.253365
v 1.818532 -0.000000 -0.768656
v 1.999999 -0.000000 -0.258200
v 1.999999 -0.000000 -0.774597
v 1.999999 -0.000000 0.257853
v 1.660123 -0.000000 0.291328
v 1.886057 -0.000000 0.261583
v 1.772604 -0.000000 0.272758
v 1.549099 -0.000000 0.317215
v 1.229468 -0.000000 0.437516
v 1.440005 -0.000000 0.350309
v 1.333309 -0.000000 0.390466
v 1.128926 -0.000000 0.491257
v 0.851323 -0.000000 0.690185
v 1.032115 -0.000000 0.551458
v 0.939448 -0.000000 0.617862
v 0.768116 -0.000000 0.768117
v 0.551458 -0.000000 1.032115
v 0.690184 -0.000000 0.851323
v 0.617862 -0.000000 0.939449
v 0.491257 -0.000000 1.128927
v 0.350309 -0.000000 1.440006
v 0.437516 -0.000000 1.229469
v 0.390467 -0.000000 1.333310
v 0.317216 -0.000000 1.549099
v 0.261584 -0.000000 1.886058
v 0.291329 -0.000000 1.660124
v 0.272758 -0.000000 1.772604
v 0.257854 -0.000000 2.000000
vt 0.000000 0.603927
vt 0.044857 0.603927
vt 0.044857 0.527692
vt 0.000000 0.527692
vt 0.086299 0.603927
vt 0.086299 0.527692
vt 0.127741 0.603927
vt 0.127741 0.527692
vt 0.169183 0.603927
vt 0.169183 0.527692
vt 0.210625 0.603927
vt 0.210625 0.527692
vt 0.252067 0.603927
vt 0.252067 0.527692
vt 0.293509 0.603927
vt 0.293509 0.527692
vt 0.334951 0.603927
vt 0.334951 0.527692
vt 0.376393 0.603927
vt 0.376393 0.527692
vt 0.417835 0.603927
vt 0.417835 0.527692
vt 0.459277 0.603927
vt 0.459277 0.527692
vt 0.500719 0.603927
vt 0.500719 0.527692
vt 0.542161 0.603927
vt 0.542161 0.527692
vt 0.583603 0.603927
vt 0.583603 0.527692
vt 0.625045 0.603927
vt 0.625045 0.527692
vt 0.666487 0.603927
vt 0.666487 0.527692
vt 0.707929 0.603927
vt 0.707929 0.527692
vt 0.333949 0.838650
vt 0.333949 0.838793
vt 0.313102 0.838793
vt 0.313103 0.838650
vt 0.749371 0.603927
vt 0.749371 0.527692
vt 0.417335 0.838650
vt 0.417335 0.838793
vt 0.396489 0.838793
vt 0.396489 0.838650
vt 0.790813 0.603927
vt 0.790813 0.527692
vt 0.292256 0.838793
vt 0.292256 0.838650
vt 0.354796 0.838650
vt 0.354796 0.838793
vt 0.500721 0.838650
vt 0.500721 0.838793
vt 0.479874 0.838793
vt 0.479875 0.838650
vt 0.271410 0.838793
vt 0.271410 0.838650
vt 0.832255 0.603927
vt 0.832255 0.527692
vt 0.375642 0.838793
vt 0.375642 0.838650
vt 0.438182 0.838651
vt 0.438182 0.838793
vt 0.584107 0.838650
vt 0.584107 0.838793
vt 0.563260 0.838793
vt 0.563260 0.838650
vt 0.873697 0.603927
vt 0.873697 0.527692
vt 0.459028 0.838793
vt 0.459028 0.838650
vt 0.521567 0.838650
vt 0.521567 0.838793
vt 0.667493 0.838650
vt 0.667493 0.838793
vt 0.646646 0.838793
vt 0.646646 0.838650
vt 0.915140 0.603927
vt 0.915139 0.527692
vt 0.542414 0.838793
vt 0.542414 0.838650
vt 0.604954 0.838650
vt 0.604954 0.838793
vt 0.751873 0.838651
vt 0.750879 0.838793
vt 0.730033 0.838793
vt 0.730032 0.838650
vt 0.956581 0.603927
vt 0.956581 0.527692
vt 0.625800 0.838793
vt 0.625800 0.838650
vt 0.688339 0.838650
vt 0.688339 0.838793
vt 0.709186 0.838651
vt 0.709186 0.838793
vt 0.998024 0.603927
vt 0.998024 0.527692
vt 0.750879 0.746560
vt 0.730032 0.746560
vt 0.068418 0.603039
vt 0.075879 0.603039
vt 0.075879 0.654370
vt 0.068418 0.654370
vt 0.060956 0.603039
vt 0.060956 0.654370
vt 0.046032 0.603039
vt 0.053494 0.603039
vt 0.053494 0.654370
vt 0.046032 0.654370
vt 0.083697 0.603039
vt 0.083697 0.654370
vt 0.038570 0.603039
vt 0.038570 0.654370
vt 0.031108 0.603039
vt 0.031108 0.654370
vt 0.016184 0.603039
vt 0.023646 0.603039
vt 0.023646 0.654370
vt 0.016184 0.654370
vt 0.008722 0.603039
vt 0.008722 0.654370
vt 0.001260 0.603039
vt 0.001260 0.654370
vt -0.013664 0.603039
vt -0.006202 0.603039
vt -0.006202 0.654370
vt -0.013664 0.654370
vt -0.021126 0.603039
vt -0.021126 0.654370
vt -0.028588 0.603039
vt -0.028588 0.654370
vt -0.043512 0.603039
vt -0.036050 0.603039
vt -0.036050 0.654370
vt -0.043512 0.654370
vt -0.050974 0.603039
vt -0.050974 0.654370
vt -0.058436 0.603039
vt -0.058436 0.654370
vt -0.073360 0.603039
vt -0.065898 0.603039
vt -0.065898 0.654370
vt -0.073360 0.654370
vt -0.080822 0.603039
vt -0.080822 0.654370
vt -0.088283 0.603039
vt -0.088283 0.654370
vt -0.095745 0.603039
vt -0.095745 0.654370
vt -0.098401 0.527692
vt -0.098401 0.603039
vt -0.105570 0.603039
vt -0.069725 0.527692
vt -0.069725 0.603039
vt -0.076894 0.603039
vt -0.091232 0.527692
vt -0.091232 0.603039
vt -0.084063 0.527692
vt -0.084063 0.603039
vt -0.041049 0.527692
vt -0.041049 0.603039
vt -0.048218 0.603039
vt -0.076894 0.527692
vt -0.062556 0.527692
vt -0.062556 0.603039
vt -0.055387 0.527692
vt -0.055387 0.603039
vt -0.012374 0.527692
vt -0.012374 0.603039
vt -0.019543 0.603039
vt -0.048218 0.527692
vt -0.033881 0.527692
vt -0.033881 0.603039
vt -0.026712 0.527692
vt -0.026712 0.603039
vt 0.016302 0.527692
vt 0.016302 0.603039
vt 0.009133 0.603039
vt -0.019543 0.527692
vt -0.005205 0.527692
vt -0.005205 0.603039
vt 0.001964 0.527692
vt 0.001964 0.603039
vt 0.044978 0.527692
vt 0.044978 0.603039
vt 0.037809 0.603039
vt 0.009133 0.527692
vt 0.023471 0.527692
vt 0.023471 0.603039
vt 0.030640 0.527692
vt 0.030640 0.603039
vt 0.066826 0.527692
vt 0.066826 0.603039
vt 0.059315 0.603039
vt 0.037809 0.527692
vt 0.052147 0.527692
vt 0.052147 0.603039
vt 0.059315 0.527692
vt 0.956581 0.700443
vt 0.998024 0.700443
vt 0.998024 0.658733
vt 0.956581 0.658733
vt 0.915140 0.700444
vt 0.915140 0.658733
vt 0.873697 0.700443
vt 0.873697 0.658733
vt 0.832255 0.700443
vt 0.832255 0.658733
vt 0.790813 0.700443
vt 0.790813 0.658733
vt 0.749371 0.700443
vt 0.749371 0.658733
vt 0.707929 0.700443
vt 0.707929 0.658733
vt 0.666487 0.700443
vt 0.666487 0.658733
vt 0.625045 0.700443
vt 0.625045 0.658733
vt 0.583603 0.700444
vt 0.583603 0.658733
vt 0.542161 0.700443
vt 0.542161 0.658733
vt 0.500719 0.700443
vt 0.500719 0.658733
vt 0.459277 0.700443
vt 0.459277 0.658733
vt 0.417835 0.700444
vt 0.417835 0.658733
vt 0.376393 0.700443
vt 0.376393 0.658733
vt 0.334951 0.700443
vt 0.334951 0.658733
vt 0.293509 0.700443
vt 0.293509 0.658733
vt 0.252067 0.700443
vt 0.252067 0.658733
vt 0.210625 0.700443
vt 0.210625 0.658733
vt 0.169183 0.700443
vt 0.169183 0.658733
vt 0.127741 0.700443
vt 0.127741 0.658733
vt 0.086299 0.700443
vt 0.086299 0.658733
vt 0.044857 0.700443
vt 0.044857 0.658733
vt 0.000000 0.700443
vt 0.000000 0.658733
vt 0.709186 0.708521
vt 0.730032 0.708521
vt 0.730032 0.746131
vt 0.709186 0.746131
vt 0.688339 0.708521
vt 0.688339 0.746131
vt 0.646646 0.708521
vt 0.667493 0.708521
vt 0.667493 0.746131
vt 0.646646 0.746131
vt 0.751873 0.708521
vt 0.751873 0.746131
vt 0.625800 0.708521
vt 0.625800 0.746131
vt 0.604953 0.708521
vt 0.604953 0.746131
vt 0.563261 0.708521
vt 0.584107 0.708521
vt 0.584107 0.746131
vt 0.563261 0.746131
vt 0.542414 0.708521
vt 0.542414 0.746131
vt 0.521568 0.708521
vt 0.521568 0.746131
vt 0.479875 0.708521
vt 0.500721 0.708521
vt 0.500721 0.746131
vt 0.479875 0.746131
vt 0.459028 0.708521
vt 0.459028 0.746131
vt 0.438182 0.708521
vt 0.438182 0.746131
vt 0.396489 0.708521
vt 0.417335 0.708521
vt 0.417335 0.746131
vt 0.396489 0.746131
vt 0.375642 0.708521
vt 0.375642 0.746131
vt 0.354796 0.708521
vt 0.354796 0.746131
vt 0.313103 0.708521
vt 0.333949 0.708521
vt 0.333949 0.746131
vt 0.313103 0.746131
vt 0.292256 0.708521
vt 0.292256 0.746131
vt 0.271410 0.708521
vt 0.271410 0.746131
vt 0.250563 0.708521
vt 0.250563 0.746131
vt 0.248845 0.746560
vt 0.271410 0.746560
vt 0.271410 0.700443
vt 0.248845 0.700443
vt 0.292256 0.746560
vt 0.292256 0.700443
vt 0.313103 0.746560
vt 0.313103 0.700443
vt 0.333949 0.746560
vt 0.333949 0.700443
vt 0.354796 0.746560
vt 0.354796 0.700443
vt 0.375642 0.746560
vt 0.375642 0.700443
vt 0.396489 0.746560
vt 0.396489 0.700443
vt 0.417335 0.746560
vt 0.417335 0.700443
vt 0.438182 0.746560
vt 0.438182 0.700443
vt 0.459028 0.746560
vt 0.459028 0.700444
vt 0.479874 0.746560
vt 0.479875 0.700443
vt 0.500721 0.746560
vt 0.521567 0.746560
vt 0.521568 0.700443
vt 0.542414 0.746560
vt 0.542414 0.700444
vt 0.563261 0.746560
vt 0.563261 0.700443
vt 0.584107 0.746560
vt 0.584107 0.700443
vt 0.604953 0.746560
vt 0.604953 0.700443
vt 0.625800 0.746560
vt 0.625800 0.700443
vt 0.646646 0.746560
vt 0.646646 0.700443
vt 0.667493 0.746560
vt 0.667493 0.700443
vt 0.688339 0.746560
vt 0.688339 0.700443
vt 0.709186 0.746560
vt 0.709186 0.700444
vt 0.730032 0.700443
vt 0.750879 0.700443
vt 0.003415 0.654370
vt 0.044857 0.654370
vt 0.044857 0.708521
vt 0.003415 0.708521
vt 0.169183 0.654370
vt 0.210625 0.654370
vt 0.210625 0.708521
vt 0.169183 0.708521
vt 0.086299 0.654370
vt 0.086299 0.708521
vt 0.127741 0.654370
vt 0.127741 0.708521
vt 0.334951 0.654370
vt 0.376393 0.654370
vt 0.376393 0.708521
vt 0.334951 0.708521
vt 0.252067 0.654370
vt 0.252067 0.708521
vt 0.293509 0.654370
vt 0.293509 0.708521
vt 0.500719 0.654370
vt 0.542161 0.654370
vt 0.542161 0.708521
vt 0.417835 0.654370
vt 0.417835 0.708521
vt 0.459277 0.654370
vt 0.459277 0.708521
vt 0.666487 0.654370
vt 0.707929 0.654370
vt 0.707929 0.708521
vt 0.666487 0.708521
vt 0.583603 0.654370
vt 0.583603 0.708521
vt 0.625045 0.654370
vt 0.625045 0.708521
vt 0.832255 0.654370
vt 0.873697 0.654370
vt 0.873697 0.708521
vt 0.832255 0.708521
vt 0.749371 0.654370
vt 0.749371 0.708521
vt 0.790813 0.654370
vt 0.790813 0.708521
vt 0.956581 0.654370
vt 1.000000 0.654370
vt 1.000000 0.708521
vt 0.956581 0.708521
vt 0.915139 0.654370
vt 0.915139 0.708521
vt 0.248845 0.838793
vt 0.250563 0.838650
vn 0.0000 1.0000 0.0000
usemtl MI_Trim_01
s 1
f 102/1/1 103/2/1 2/3/1 1/4/1
f 103/2/1 104/5/1 3/6/1 2/3/1
f 104/5/1 105/7/1 4/8/1 3/6/1
f 105/7/1 106/9/1 5/10/1 4/8/1
f 106/9/1 107/11/1 6/12/1 5/10/1
f 107/11/1 108/13/1 7/14/1 6/12/1
f 108/13/1 109/15/1 8/16/1 7/14/1
f 109/15/1 110/17/1 9/18/1 8/16/1
f 110/17/1 111/19/1 10/20/1 9/18/1
f 111/19/1 112/21/1 11/22/1 10/20/1
f 112/21/1 113/23/1 12/24/1 11/22/1
f 113/23/1 114/25/1 13/26/1 12/24/1
f 114/25/1 115/27/1 14/28/1 13/26/1
f 115/27/1 116/29/1 15/30/1 14/28/1
f 116/29/1 117/31/1 16/32/1 15/30/1
f 117/31/1 118/33/1 17/34/1 16/32/1
f 118/33/1 119/35/1 19/36/1 17/34/1
f 272/37/1 210/38/1 208/39/1 274/40/1
f 119/35/1 120/41/1 20/42/1 19/36/1
f 268/43/1 218/44/1 216/45/1 270/46/1
f 120/41/1 121/47/1 21/48/1 20/42/1
f 274/40/1 208/39/1 206/49/1 275/50/1
f 269/51/1 212/52/1 210/38/1 272/37/1
f 264/53/1 226/54/1 224/55/1 266/56/1
f 275/50/1 206/49/1 204/57/1 273/58/1
f 121/47/1 122/59/1 22/60/1 21/48/1
f 270/46/1 216/45/1 214/61/1 271/62/1
f 265/63/1 220/64/1 218/44/1 268/43/1
f 260/65/1 234/66/1 232/67/1 262/68/1
f 271/62/1 214/61/1 212/52/1 269/51/1
f 122/59/1 123/69/1 23/70/1 22/60/1
f 266/56/1 224/55/1 222/71/1 267/72/1
f 261/73/1 228/74/1 226/54/1 264/53/1
f 256/75/1 242/76/1 240/77/1 258/78/1
f 267/72/1 222/71/1 220/64/1 265/63/1
f 123/69/1 124/79/1 24/80/1 23/70/1
f 262/68/1 232/67/1 230/81/1 263/82/1
f 257/83/1 236/84/1 234/66/1 260/65/1
f 252/85/1 250/86/1 248/87/1 254/88/1
f 263/82/1 230/81/1 228/74/1 261/73/1
f 124/79/1 125/89/1 25/90/1 24/80/1
f 258/78/1 240/77/1 238/91/1 259/92/1
f 253/93/1 244/94/1 242/76/1 256/75/1
f 255/95/1 246/96/1 244/94/1 253/93/1
f 259/92/1 238/91/1 236/84/1 257/83/1
f 125/89/1 126/97/1 26/98/1 25/90/1
f 254/88/1 248/87/1 246/96/1 255/95/1
f 250/86/1 251/99/1 249/100/1 248/87/1
f 55/101/1 54/102/1 29/103/1 30/104/1
f 53/105/1 55/101/1 30/104/1 28/106/1
f 58/107/1 56/108/1 31/109/1 33/110/1
f 54/102/1 52/111/1 27/112/1 29/103/1
f 59/113/1 58/107/1 33/110/1 34/114/1
f 57/115/1 59/113/1 34/114/1 32/116/1
f 62/117/1 60/118/1 35/119/1 37/120/1
f 56/108/1 53/105/1 28/106/1 31/109/1
f 63/121/1 62/117/1 37/120/1 38/122/1
f 61/123/1 63/121/1 38/122/1 36/124/1
f 66/125/1 64/126/1 39/127/1 41/128/1
f 60/118/1 57/115/1 32/116/1 35/119/1
f 67/129/1 66/125/1 41/128/1 42/130/1
f 65/131/1 67/129/1 42/130/1 40/132/1
f 70/133/1 68/134/1 43/135/1 45/136/1
f 64/126/1 61/123/1 36/124/1 39/127/1
f 71/137/1 70/133/1 45/136/1 46/138/1
f 69/139/1 71/137/1 46/138/1 44/140/1
f 74/141/1 72/142/1 47/143/1 49/144/1
f 68/134/1 65/131/1 40/132/1 43/135/1
f 75/145/1 74/141/1 49/144/1 50/146/1
f 73/147/1 75/145/1 50/146/1 48/148/1
f 72/142/1 69/139/1 44/140/1 47/143/1
f 76/149/1 73/147/1 48/148/1 51/150/1
f 18/151/1 73/152/1 76/153/1
f 18/154/1 69/155/1 72/156/1
f 18/157/1 75/158/1 73/152/1
f 18/159/1 74/160/1 75/158/1
f 18/161/1 65/162/1 68/163/1
f 18/164/1 72/156/1 74/160/1
f 18/165/1 71/166/1 69/155/1
f 18/167/1 70/168/1 71/166/1
f 18/169/1 61/170/1 64/171/1
f 18/172/1 68/163/1 70/168/1
f 18/173/1 67/174/1 65/162/1
f 18/175/1 66/176/1 67/174/1
f 18/177/1 57/178/1 60/179/1
f 18/180/1 64/171/1 66/176/1
f 18/181/1 63/182/1 61/170/1
f 18/183/1 62/184/1 63/182/1
f 18/185/1 53/186/1 56/187/1
f 18/188/1 60/179/1 62/184/1
f 18/189/1 59/190/1 57/178/1
f 18/191/1 58/192/1 59/190/1
f 18/193/1 52/194/1 54/195/1
f 18/196/1 56/187/1 58/192/1
f 18/197/1 55/198/1 53/186/1
f 18/199/1 54/195/1 55/198/1
f 175/200/1 176/201/1 101/202/1 100/203/1
f 174/204/1 175/200/1 100/203/1 99/205/1
f 173/206/1 174/204/1 99/205/1 98/207/1
f 172/208/1 173/206/1 98/207/1 97/209/1
f 171/210/1 172/208/1 97/209/1 96/211/1
f 170/212/1 171/210/1 96/211/1 95/213/1
f 169/214/1 170/212/1 95/213/1 94/215/1
f 168/216/1 169/214/1 94/215/1 93/217/1
f 167/218/1 168/216/1 93/217/1 92/219/1
f 166/220/1 167/218/1 92/219/1 91/221/1
f 165/222/1 166/220/1 91/221/1 90/223/1
f 164/224/1 165/222/1 90/223/1 89/225/1
f 163/226/1 164/224/1 89/225/1 88/227/1
f 162/228/1 163/226/1 88/227/1 87/229/1
f 161/230/1 162/228/1 87/229/1 86/231/1
f 160/232/1 161/230/1 86/231/1 85/233/1
f 159/234/1 160/232/1 85/233/1 84/235/1
f 158/236/1 159/234/1 84/235/1 83/237/1
f 157/238/1 158/236/1 83/237/1 82/239/1
f 156/240/1 157/238/1 82/239/1 81/241/1
f 155/242/1 156/240/1 81/241/1 80/243/1
f 154/244/1 155/242/1 80/243/1 79/245/1
f 153/246/1 154/244/1 79/245/1 78/247/1
f 152/248/1 153/246/1 78/247/1 77/249/1
f 100/203/1 101/202/1 126/97/1 125/89/1
f 99/205/1 100/203/1 125/89/1 124/79/1
f 98/207/1 99/205/1 124/79/1 123/69/1
f 97/209/1 98/207/1 123/69/1 122/59/1
f 96/211/1 97/209/1 122/59/1 121/47/1
f 95/213/1 96/211/1 121/47/1 120/41/1
f 94/215/1 95/213/1 120/41/1 119/35/1
f 93/217/1 94/215/1 119/35/1 118/33/1
f 92/219/1 93/217/1 118/33/1 117/31/1
f 91/221/1 92/219/1 117/31/1 116/29/1
f 90/223/1 91/221/1 116/29/1 115/27/1
f 89/225/1 90/223/1 115/27/1 114/25/1
f 88/227/1 89/225/1 114/25/1 113/23/1
f 87/229/1 88/227/1 113/23/1 112/21/1
f 86/231/1 87/229/1 112/21/1 111/19/1
f 85/233/1 86/231/1 111/19/1 110/17/1
f 84/235/1 85/233/1 110/17/1 109/15/1
f 83/237/1 84/235/1 109/15/1 108/13/1
f 82/239/1 83/237/1 108/13/1 107/11/1
f 81/241/1 82/239/1 107/11/1 106/9/1
f 80/243/1 81/241/1 106/9/1 105/7/1
f 79/245/1 80/243/1 105/7/1 104/5/1
f 78/247/1 79/245/1 104/5/1 103/2/1
f 77/249/1 78/247/1 103/2/1 102/1/1
f 180/250/1 179/251/1 129/252/1 130/253/1
f 178/254/1 180/250/1 130/253/1 128/255/1
f 183/256/1 181/257/1 131/258/1 133/259/1
f 179/251/1 177/260/1 127/261/1 129/252/1
f 184/262/1 183/256/1 133/259/1 134/263/1
f 182/264/1 184/262/1 134/263/1 132/265/1
f 187/266/1 185/267/1 135/268/1 137/269/1
f 181/257/1 178/254/1 128/255/1 131/258/1
f 188/270/1 187/266/1 137/269/1 138/271/1
f 186/272/1 188/270/1 138/271/1 136/273/1
f 191/274/1 189/275/1 139/276/1 141/277/1
f 185/267/1 182/264/1 132/265/1 135/268/1
f 192/278/1 191/274/1 141/277/1 142/279/1
f 190/280/1 192/278/1 142/279/1 140/281/1
f 195/282/1 193/283/1 143/284/1 145/285/1
f 189/275/1 186/272/1 136/273/1 139/276/1
f 196/286/1 195/282/1 145/285/1 146/287/1
f 194/288/1 196/286/1 146/287/1 144/289/1
f 199/290/1 197/291/1 147/292/1 149/293/1
f 193/283/1 190/280/1 140/281/1 143/284/1
f 200/294/1 199/290/1 149/293/1 150/295/1
f 198/296/1 200/294/1 150/295/1 148/297/1
f 197/291/1 194/288/1 144/289/1 147/292/1
f 201/298/1 198/296/1 148/297/1 151/299/1
f 203/300/1 205/301/1 153/302/1 152/303/1
f 205/301/1 207/304/1 154/305/1 153/302/1
f 207/304/1 209/306/1 155/307/1 154/305/1
f 209/306/1 211/308/1 156/309/1 155/307/1
f 211/308/1 213/310/1 157/311/1 156/309/1
f 213/310/1 215/312/1 158/313/1 157/311/1
f 215/312/1 217/314/1 159/315/1 158/313/1
f 217/314/1 219/316/1 160/317/1 159/315/1
f 219/316/1 221/318/1 161/319/1 160/317/1
f 221/318/1 223/320/1 162/321/1 161/319/1
f 223/320/1 225/322/1 163/323/1 162/321/1
f 225/322/1 227/324/1 164/224/1 163/323/1
f 227/324/1 229/325/1 165/326/1 164/224/1
f 229/325/1 231/327/1 166/328/1 165/326/1
f 231/327/1 233/329/1 167/330/1 166/328/1
f 233/329/1 235/331/1 168/332/1 167/330/1
f 235/331/1 237/333/1 169/334/1 168/332/1
f 237/333/1 239/335/1 170/336/1 169/334/1
f 239/335/1 241/337/1 171/338/1 170/336/1
f 241/337/1 243/339/1 172/340/1 171/338/1
f 243/339/1 245/341/1 173/342/1 172/340/1
f 245/341/1 247/343/1 174/344/1 173/342/1
f 247/343/1 249/100/1 175/345/1 174/344/1
f 249/100/1 251/99/1 176/346/1 175/345/1
f 51/347/1 48/348/1 198/349/1 201/350/1
f 47/351/1 44/352/1 194/353/1 197/354/1
f 48/348/1 50/355/1 200/356/1 198/349/1
f 50/355/1 49/357/1 199/358/1 200/356/1
f 43/359/1 40/360/1 190/361/1 193/362/1
f 49/357/1 47/351/1 197/354/1 199/358/1
f 44/352/1 46/363/1 196/364/1 194/353/1
f 46/363/1 45/365/1 195/366/1 196/364/1
f 39/367/1 36/368/1 186/369/1 189/275/1
f 45/365/1 43/359/1 193/362/1 195/366/1
f 40/360/1 42/370/1 192/371/1 190/361/1
f 42/370/1 41/372/1 191/373/1 192/371/1
f 35/374/1 32/375/1 182/376/1 185/377/1
f 41/372/1 39/367/1 189/275/1 191/373/1
f 36/368/1 38/378/1 188/379/1 186/369/1
f 38/378/1 37/380/1 187/381/1 188/379/1
f 31/382/1 28/383/1 178/384/1 181/385/1
f 37/380/1 35/374/1 185/377/1 187/381/1
f 32/375/1 34/386/1 184/387/1 182/376/1
f 34/386/1 33/388/1 183/389/1 184/387/1
f 29/390/1 27/391/1 177/392/1 179/393/1
f 33/388/1 31/382/1 181/385/1 183/389/1
f 28/383/1 30/394/1 180/395/1 178/384/1
f 30/394/1 29/390/1 179/393/1 180/395/1
f 248/87/1 249/100/1 247/343/1 246/96/1
f 246/96/1 247/343/1 245/341/1 244/94/1
f 244/94/1 245/341/1 243/339/1 242/76/1
f 242/76/1 243/339/1 241/337/1 240/77/1
f 240/77/1 241/337/1 239/335/1 238/91/1
f 238/91/1 239/335/1 237/333/1 236/84/1
f 236/84/1 237/333/1 235/331/1 234/66/1
f 234/66/1 235/331/1 233/329/1 232/67/1
f 232/67/1 233/329/1 231/327/1 230/81/1
f 230/81/1 231/327/1 229/325/1 228/74/1
f 228/74/1 229/325/1 227/324/1 226/54/1
f 226/54/1 227/324/1 225/322/1 224/55/1
f 224/55/1 225/322/1 223/320/1 222/71/1
f 222/71/1 223/320/1 221/318/1 220/64/1
f 220/64/1 221/318/1 219/316/1 218/44/1
f 218/44/1 219/316/1 217/314/1 216/45/1
f 216/45/1 217/314/1 215/312/1 214/61/1
f 214/61/1 215/312/1 213/310/1 212/52/1
f 212/52/1 213/310/1 211/308/1 210/38/1
f 210/38/1 211/308/1 209/306/1 208/39/1
f 208/39/1 209/306/1 207/304/1 206/49/1
f 206/49/1 207/304/1 205/301/1 204/57/1
f 204/57/1 205/301/1 203/300/1 202/396/1
f 129/252/1 254/88/1 255/95/1 130/253/1
f 130/253/1 255/95/1 253/93/1 128/255/1
f 131/258/1 256/75/1 258/78/1 133/259/1
f 127/261/1 252/85/1 254/88/1 129/252/1
f 133/259/1 258/78/1 259/92/1 134/263/1
f 134/263/1 259/92/1 257/83/1 132/265/1
f 135/268/1 260/65/1 262/68/1 137/269/1
f 128/255/1 253/93/1 256/75/1 131/258/1
f 137/269/1 262/68/1 263/82/1 138/271/1
f 138/271/1 263/82/1 261/73/1 136/273/1
f 139/276/1 264/53/1 266/56/1 141/277/1
f 132/265/1 257/83/1 260/65/1 135/268/1
f 141/277/1 266/56/1 267/72/1 142/279/1
f 142/279/1 267/72/1 265/63/1 140/281/1
f 143/284/1 268/43/1 270/46/1 145/285/1
f 136/273/1 261/73/1 264/53/1 139/276/1
f 145/285/1 270/46/1 271/62/1 146/287/1
f 146/287/1 271/62/1 269/51/1 144/289/1
f 147/292/1 272/37/1 274/40/1 149/293/1
f 140/281/1 265/63/1 268/43/1 143/284/1
f 149/293/1 274/40/1 275/50/1 150/295/1
f 150/295/1 275/50/1 273/58/1 148/297/1
f 144/289/1 269/51/1 272/37/1 147/292/1
f 148/297/1 273/58/1 276/397/1 151/299/1
f 273/58/1 204/57/1 202/396/1 276/397/1
