# Blender v3.6.0 OBJ File: 'AllModules_Unreal.blend'
# www.blender.org
mtllib Platform_RedAccent_Curve.mtl
o Platform_RedAccent_Curve_Plane.190
v -2.000000 0.000000 2.000000
v -1.991436 0.000000 1.738387
v -1.965780 0.000000 1.477895
v -1.923141 0.000000 1.219638
v -1.863703 0.000000 0.964723
v -1.787721 0.000000 0.714241
v -1.695519 0.000000 0.469265
v -1.587492 0.000000 0.230844
v -1.464103 0.000000 -0.000002
v -1.325879 0.000000 -0.222283
v 2.000000 0.000000 1.999998
v -1.173414 0.000000 -0.435048
v -1.007360 0.000000 -0.637386
v -0.828428 0.000000 -0.828430
v -0.637384 0.000000 -1.007362
v -0.435046 0.000000 -1.173417
v -0.222281 0.000000 -1.325882
v 0.000000 0.000000 -1.464105
v 0.230846 0.000000 -1.587495
v 0.469267 0.000000 -1.695522
v 0.714243 0.000000 -1.787725
v 0.964725 0.000000 -1.863708
v 1.219640 0.000000 -1.923146
v 1.477897 0.000000 -1.965784
v 1.738390 0.000000 -1.991441
v 2.000002 0.000000 -2.000005
v -0.591107 0.000000 2.000000
v -0.585559 0.000000 1.830533
v -0.568940 0.000000 1.661792
v -0.541320 0.000000 1.494499
v -0.502818 0.000000 1.329371
v -0.453598 0.000000 1.167115
v -0.393871 0.000000 1.008425
v -0.323894 0.000000 0.853981
v -0.243965 0.000000 0.704445
v -0.154427 0.000000 0.560456
v -0.055664 0.000000 0.422632
v 0.051902 0.000000 0.291562
v 0.167810 0.000000 0.167808
v 0.291564 0.000000 0.051900
v 0.422634 0.000000 -0.055666
v 0.560458 0.000000 -0.154430
v 0.704447 0.000000 -0.243968
v 0.853983 0.000000 -0.323897
v 1.008427 0.000000 -0.393874
v 1.167117 0.000000 -0.453601
v 1.329373 0.000000 -0.502821
v 1.494502 0.000000 -0.541324
v 1.661794 0.000000 -0.568944
v 1.830536 0.000000 -0.585564
v 2.000002 0.000000 -0.591112
v 0.584731 0.000000 2.000000
v 0.001012 0.000000 2.000000
v 0.587761 0.000000 1.907436
v 0.005292 0.000000 1.869259
v 0.596839 0.000000 1.815270
v 0.018113 0.000000 1.739079
v 0.611925 0.000000 1.723894
v 0.039422 0.000000 1.610016
v 0.632955 0.000000 1.633700
v 0.069125 0.000000 1.482623
v 0.659839 0.000000 1.545076
v 0.107098 0.000000 1.357445
v 0.692462 0.000000 1.458399
v 0.153175 0.000000 1.235019
v 0.730684 0.000000 1.374041
v 0.207162 0.000000 1.115869
v 0.774341 0.000000 1.292364
v 0.268825 0.000000 1.000504
v 0.823247 0.000000 1.213717
v 0.337902 0.000000 0.889420
v 0.877191 0.000000 1.138437
v 0.414096 0.000000 0.783091
v 0.935944 0.000000 1.066846
v 0.497081 0.000000 0.681973
v 0.999254 0.000000 0.999251
v 0.586502 0.000000 0.586500
v 1.066848 0.000000 0.935942
v 0.681975 0.000000 0.497078
v 1.138439 0.000000 0.877189
v 0.783093 0.000000 0.414093
v 1.213719 0.000000 0.823244
v 0.889422 0.000000 0.337899
v 1.292366 0.000000 0.774338
v 1.000506 0.000000 0.268822
v 1.374043 0.000000 0.730681
v 1.115871 0.000000 0.207159
v 1.458401 0.000000 0.692459
v 1.235021 0.000000 0.153172
v 1.545077 0.000000 0.659836
v 1.357447 0.000000 0.107094
v 1.633702 0.000000 0.632952
v 1.482625 0.000000 0.069122
v 1.723896 0.000000 0.611921
v 1.610018 0.000000 0.039418
v 1.815272 0.000000 0.596835
v 1.739081 0.000000 0.018110
v 1.907439 0.000000 0.587758
v 1.869262 0.000000 0.005288
v 2.000002 0.000000 0.584727
v 2.000002 0.000000 0.001008
vt 0.006809 0.998073
vt 0.045718 0.998073
vt 0.045718 0.655453
vt 0.006809 0.655453
vt 0.082691 0.998073
vt 0.082691 0.655453
vt 0.377272 0.999787
vt 0.386244 0.656807
vt 0.386244 0.999787
vt 0.389945 0.999787
vt 0.398917 0.656807
vt 0.398917 0.999787
vt 0.156637 0.998073
vt 0.193610 0.998073
vt 0.193610 0.655453
vt 0.156637 0.655453
vt 0.230583 0.998073
vt 0.230583 0.655453
vt 0.267556 0.998073
vt 0.267556 0.655453
vt 0.465980 0.999787
vt 0.474952 0.656807
vt 0.474952 0.999787
vt 0.304529 0.998073
vt 0.304529 0.655453
vt 0.341502 0.998073
vt 0.341502 0.655453
vt 0.378475 0.998073
vt 0.378475 0.655453
vt 0.415448 0.998073
vt 0.415448 0.655453
vt 0.518240 0.998683
vt 0.476567 0.998683
vt 0.476567 0.656064
vt 0.518240 0.656064
vt 0.451796 0.998073
vt 0.451796 0.655453
vt 0.525642 0.656807
vt 0.525642 0.999787
vt 0.516669 0.999787
vt 0.538314 0.656807
vt 0.538314 0.999787
vt 0.529342 0.999787
vt 0.388646 0.998684
vt 0.344686 0.998683
vt 0.344686 0.656064
vt 0.388646 0.656064
vt 0.300725 0.998684
vt 0.300725 0.656064
vt 0.256765 0.998683
vt 0.256765 0.656064
vt 0.212805 0.998684
vt 0.212805 0.656064
vt 0.168844 0.998684
vt 0.168844 0.656064
vt 0.124884 0.998684
vt 0.124884 0.656064
vt 0.558129 0.500498
vt 0.558129 0.656573
vt 0.500316 0.656573
vt 0.500316 0.500498
vt 0.080923 0.998684
vt 0.080923 0.656064
vt 0.036963 0.998684
vt 0.036963 0.656064
vt -0.007737 0.998684
vt -0.007737 0.656064
vt 0.652367 0.656807
vt 0.652367 0.999787
vt 0.643395 0.999787
vt 0.639694 0.656807
vt 0.639694 0.999787
vt 0.630722 0.999787
vt 0.627022 0.656807
vt 0.627022 0.999787
vt 0.618050 0.999787
vt 0.614349 0.656807
vt 0.614349 0.999787
vt 0.605377 0.999787
vt 0.601677 0.656807
vt 0.601677 0.999787
vt 0.592705 0.999787
vt 0.589004 0.656807
vt 0.589004 0.999787
vt 0.580032 0.999787
vt 0.576332 0.656807
vt 0.576332 0.999787
vt 0.567360 0.999787
vt 0.563659 0.656807
vt 0.563659 0.999787
vt 0.554687 0.999787
vt 0.550987 0.656807
vt 0.550987 0.999787
vt 0.542014 0.999787
vt 0.432607 0.656064
vt 0.432607 0.998683
vt 0.491324 0.999787
vt 0.500297 0.656807
vt 0.500297 0.999787
vt 0.512969 0.656807
vt 0.512969 0.999787
vt 0.503997 0.999787
vt 0.478652 0.999787
vt 0.487624 0.656807
vt 0.487624 0.999787
vt 0.453307 0.999787
vt 0.462279 0.656807
vt 0.462279 0.999787
vt 0.440635 0.999787
vt 0.449607 0.656807
vt 0.449607 0.999787
vt 0.427962 0.999787
vt 0.436934 0.656807
vt 0.436934 0.999787
vt 0.415290 0.999787
vt 0.424262 0.656807
vt 0.424262 0.999787
vt 0.402617 0.999787
vt 0.411589 0.656807
vt 0.411589 0.999787
vt 0.119664 0.655453
vt 0.119664 0.998073
vt 0.364600 0.999787
vt 0.373572 0.656807
vt 0.373572 0.999787
vt 0.351927 0.999787
vt 0.360899 0.656807
vt 0.360899 0.999787
vt 0.535231 0.649954
vt 0.559820 0.649954
vt 0.559820 0.501746
vt 0.525089 0.501746
vt 0.613067 0.500498
vt 0.613067 0.656573
vt 0.569961 0.649954
vt 0.594550 0.649954
vt 0.594550 0.501746
vt 0.777882 0.500498
vt 0.777882 0.656573
vt 0.722943 0.656573
vt 0.722943 0.500498
vt 0.674153 0.649954
vt 0.698742 0.649954
vt 0.698742 0.501746
vt 0.664011 0.501746
vt 0.832820 0.500498
vt 0.832820 0.656573
vt 0.708884 0.649954
vt 0.733473 0.649954
vt 0.733473 0.501746
vt 0.887758 0.500498
vt 0.887758 0.656573
vt 0.743614 0.649954
vt 0.768203 0.649954
vt 0.768203 0.501746
vt 0.942696 0.500498
vt 0.942696 0.656573
vt 0.778345 0.649954
vt 0.802934 0.649954
vt 0.802934 0.501746
vt 0.997634 0.500498
vt 0.997634 0.656573
vt 0.813076 0.649954
vt 0.837665 0.649954
vt 0.837665 0.501746
vt 1.052572 0.500498
vt 1.052572 0.656573
vt 0.847806 0.649954
vt 0.872395 0.649954
vt 0.872395 0.501746
vt 1.107511 0.500498
vt 1.107511 0.656573
vt 0.882537 0.649954
vt 0.907126 0.649954
vt 0.907126 0.501746
vt 1.161519 0.500498
vt 1.161519 0.656573
vt 0.917267 0.649954
vt 0.941856 0.649954
vt 0.941856 0.501746
vt 0.681315 0.499836
vt 0.681315 0.655911
vt 0.619394 0.655911
vt 0.619394 0.499836
vt 0.951998 0.649954
vt 0.976587 0.649954
vt 0.976587 0.501746
vt 0.877277 0.499836
vt 0.877277 0.655911
vt 0.811956 0.655911
vt 0.811956 0.499836
vt 1.056190 0.649954
vt 1.080779 0.649954
vt 1.080779 0.501746
vt 1.046049 0.501746
vt 0.942598 0.499836
vt 0.942598 0.655911
vt 1.090921 0.649954
vt 1.115510 0.649954
vt 1.115510 0.501746
vt 1.007918 0.499836
vt 1.007918 0.655911
vt 1.125652 0.649954
vt 1.150241 0.649954
vt 1.150241 0.501746
vt 1.073239 0.499836
vt 1.073239 0.655911
vt 1.160382 0.649954
vt 1.184971 0.649954
vt 1.184971 0.501746
vt 1.138560 0.499836
vt 1.138560 0.655911
vt 1.195113 0.649954
vt 1.219702 0.649954
vt 1.219702 0.501746
vt 1.203880 0.499836
vt 1.203880 0.655911
vt 1.229843 0.649954
vt 1.254433 0.649954
vt 1.254433 0.501746
vt 1.269201 0.499836
vt 1.269201 0.655911
vt 1.264574 0.649954
vt 1.289163 0.649954
vt 1.289163 0.501746
vt 1.334522 0.499836
vt 1.334522 0.655911
vt 1.299305 0.649954
vt 1.323894 0.649954
vt 1.323894 0.501746
vt 1.400941 0.499836
vt 1.400941 0.655911
vt 1.334036 0.649954
vt 1.358625 0.649954
vt 1.358625 0.501746
vt 0.746636 0.655911
vt 0.746636 0.499836
vt 1.021460 0.649954
vt 1.046049 0.649954
vt 1.011318 0.501746
vt 0.986729 0.649954
vt 1.011318 0.649954
vt 0.668005 0.656573
vt 0.668005 0.500498
vt 0.639423 0.649954
vt 0.664011 0.649954
vt 0.629281 0.501746
vt 0.604692 0.649954
vt 0.629281 0.649954
vn 0.0000 1.0000 0.0000
usemtl MI_Trim_01
s off
f 27/1/1 28/2/1 2/3/1 1/4/1
f 28/2/1 29/5/1 3/6/1 2/3/1
f 56/7/1 11/8/1 58/9/1
f 58/10/1 11/11/1 60/12/1
f 31/13/1 32/14/1 6/15/1 5/16/1
f 32/14/1 33/17/1 7/18/1 6/15/1
f 33/17/1 34/19/1 8/20/1 7/18/1
f 70/21/1 11/22/1 72/23/1
f 35/24/1 9/25/1 8/20/1 34/19/1
f 36/26/1 10/27/1 9/25/1 35/24/1
f 37/28/1 12/29/1 10/27/1 36/26/1
f 38/30/1 13/31/1 12/29/1 37/28/1
f 39/32/1 40/33/1 15/34/1 14/35/1
f 39/36/1 14/37/1 13/31/1 38/30/1
f 11/38/1 80/39/1 78/40/1
f 11/41/1 82/42/1 80/43/1
f 42/44/1 43/45/1 18/46/1 17/47/1
f 43/45/1 44/48/1 19/49/1 18/46/1
f 44/48/1 45/50/1 20/51/1 19/49/1
f 46/52/1 21/53/1 20/51/1 45/50/1
f 47/54/1 22/55/1 21/53/1 46/52/1
f 48/56/1 23/57/1 22/55/1 47/54/1
f 55/58/1 28/59/1 27/60/1 53/61/1
f 49/62/1 24/63/1 23/57/1 48/56/1
f 50/64/1 25/65/1 24/63/1 49/62/1
f 50/64/1 51/66/1 26/67/1 25/65/1
f 11/68/1 100/69/1 98/70/1
f 11/71/1 98/72/1 96/73/1
f 11/74/1 96/75/1 94/76/1
f 11/77/1 94/78/1 92/79/1
f 11/80/1 92/81/1 90/82/1
f 11/83/1 90/84/1 88/85/1
f 11/86/1 88/87/1 86/88/1
f 11/89/1 86/90/1 84/91/1
f 11/92/1 84/93/1 82/94/1
f 16/95/1 41/96/1 42/44/1 17/47/1
f 15/34/1 40/33/1 41/96/1 16/95/1
f 74/97/1 11/98/1 76/99/1
f 11/100/1 78/101/1 76/102/1
f 72/103/1 11/104/1 74/105/1
f 68/106/1 11/107/1 70/108/1
f 66/109/1 11/110/1 68/111/1
f 64/112/1 11/113/1 66/114/1
f 62/115/1 11/116/1 64/117/1
f 60/118/1 11/119/1 62/120/1
f 4/121/1 30/122/1 31/13/1 5/16/1
f 3/6/1 29/5/1 30/122/1 4/121/1
f 54/123/1 11/124/1 56/125/1
f 52/126/1 11/127/1 54/128/1
f 52/129/1 54/130/1 55/131/1 53/132/1
f 57/133/1 29/134/1 28/59/1 55/58/1
f 54/135/1 56/136/1 57/137/1 55/131/1
f 63/138/1 32/139/1 31/140/1 61/141/1
f 60/142/1 62/143/1 63/144/1 61/145/1
f 65/146/1 33/147/1 32/139/1 63/138/1
f 62/148/1 64/149/1 65/150/1 63/144/1
f 67/151/1 34/152/1 33/147/1 65/146/1
f 64/153/1 66/154/1 67/155/1 65/150/1
f 69/156/1 35/157/1 34/152/1 67/151/1
f 66/158/1 68/159/1 69/160/1 67/155/1
f 71/161/1 36/162/1 35/157/1 69/156/1
f 68/163/1 70/164/1 71/165/1 69/160/1
f 73/166/1 37/167/1 36/162/1 71/161/1
f 70/168/1 72/169/1 73/170/1 71/165/1
f 75/171/1 38/172/1 37/167/1 73/166/1
f 72/173/1 74/174/1 75/175/1 73/170/1
f 77/176/1 39/177/1 38/172/1 75/171/1
f 74/178/1 76/179/1 77/180/1 75/175/1
f 79/181/1 40/182/1 39/183/1 77/184/1
f 76/185/1 78/186/1 79/187/1 77/180/1
f 85/188/1 43/189/1 42/190/1 83/191/1
f 82/192/1 84/193/1 85/194/1 83/195/1
f 87/196/1 44/197/1 43/189/1 85/188/1
f 84/198/1 86/199/1 87/200/1 85/194/1
f 89/201/1 45/202/1 44/197/1 87/196/1
f 86/203/1 88/204/1 89/205/1 87/200/1
f 91/206/1 46/207/1 45/202/1 89/201/1
f 88/208/1 90/209/1 91/210/1 89/205/1
f 93/211/1 47/212/1 46/207/1 91/206/1
f 90/213/1 92/214/1 93/215/1 91/210/1
f 95/216/1 48/217/1 47/212/1 93/211/1
f 92/218/1 94/219/1 95/220/1 93/215/1
f 97/221/1 49/222/1 48/217/1 95/216/1
f 94/223/1 96/224/1 97/225/1 95/220/1
f 99/226/1 50/227/1 49/222/1 97/221/1
f 96/228/1 98/229/1 99/230/1 97/225/1
f 101/231/1 51/232/1 50/227/1 99/226/1
f 98/233/1 100/234/1 101/235/1 99/230/1
f 41/236/1 81/237/1 83/191/1 42/190/1
f 80/238/1 82/239/1 83/195/1 81/240/1
f 40/182/1 79/181/1 81/237/1 41/236/1
f 78/241/1 80/242/1 81/240/1 79/187/1
f 30/243/1 59/244/1 61/141/1 31/140/1
f 58/245/1 60/246/1 61/145/1 59/247/1
f 29/134/1 57/133/1 59/244/1 30/243/1
f 56/248/1 58/249/1 59/247/1 57/137/1
