# Blender v3.6.0 OBJ File: 'AllModules_Unreal.blend'
# www.blender.org
mtllib Platform_Ramp2_2.mtl
o Platform_Ramp2_2_Cube.022
v 1.000000 0.000000 2.000000
v 0.999852 1.000000 0.000000
v 1.000000 0.841451 0.000000
v 1.000000 0.000000 0.000000
v 1.000000 0.000000 1.684859
v 1.000000 0.000000 1.900552
v 0.999990 0.048772 1.900553
v 0.069517 0.166401 1.666923
v -0.069518 0.166402 1.666921
v 0.000000 1.000000 0.000000
v 0.000000 0.000000 2.000000
v 0.000000 0.048772 1.900553
v 0.000000 0.841451 0.000000
v 0.000000 0.000000 0.000000
v 0.248344 1.000000 0.000000
v 0.248492 0.000000 2.000000
v 0.248482 0.048772 1.900553
v 0.248492 0.841451 0.000000
v 0.248492 0.000000 0.000000
v 0.069517 0.118959 1.762623
v -0.069518 0.118960 1.762622
v 0.505802 1.000000 0.000000
v 0.505949 0.000000 2.000000
v 0.505940 0.048772 1.900553
v 0.505949 0.841451 0.000000
v 0.505949 0.000000 0.000000
v -1.000000 0.000000 2.000000
v -0.999852 1.000000 0.000000
v -1.000000 0.841451 0.000000
v -1.000000 0.000000 0.000000
v -1.000000 0.000000 1.684859
v -1.000000 0.000000 1.900552
v -0.999990 0.048772 1.900553
v -0.069517 0.166401 1.666923
v 0.069518 0.166402 1.666921
v -0.248344 1.000000 0.000000
v -0.248492 0.000000 2.000000
v -0.248482 0.048772 1.900553
v -0.248492 0.841451 0.000000
v -0.248492 0.000000 0.000000
v -0.069517 0.118959 1.762623
v 0.069518 0.118960 1.762622
v -0.505802 1.000000 0.000000
v -0.505949 0.000000 2.000000
v -0.505940 0.048772 1.900553
v -0.505949 0.841451 0.000000
v -0.505949 0.000000 0.000000
vt 0.665543 0.528103
vt 0.316742 0.528103
vt 0.309190 0.516775
vt 0.333178 0.500783
vt 0.647330 0.500783
vt 0.322684 0.861836
vt 0.254884 0.907239
vt 0.254580 0.760136
vt 0.456397 0.396059
vt 0.456364 0.360612
vt 0.511920 0.360612
vt 0.511953 0.396059
vt 0.456364 0.172486
vt 0.511920 0.172485
vt 0.262499 0.847400
vt 0.262499 0.812297
vt 0.737724 0.812297
vt 0.737724 0.847400
vt 0.262499 0.530514
vt 0.262499 0.495544
vt 0.737724 0.495544
vt 0.737724 0.530514
vt 0.398803 0.172486
vt 0.398803 0.360612
vt 0.398836 0.396059
vt 0.288380 0.396059
vt 0.288347 0.360612
vt 0.288347 0.172486
vt 0.262499 0.597621
vt 0.737724 0.597621
vt 0.665543 0.528103
vt 0.647330 0.500783
vt 0.333178 0.500783
vt 0.309190 0.516775
vt 0.316742 0.528103
vt 0.322684 0.861836
vt 0.254580 0.760136
vt 0.254884 0.907239
vt 0.456397 0.396059
vt 0.456364 0.360612
vt 0.456364 0.172486
vt 0.262499 0.847400
vt 0.737724 0.847400
vt 0.262499 0.530514
vt 0.737724 0.530514
vt 0.737724 0.495544
vt 0.262499 0.495544
vt 0.398803 0.172486
vt 0.398803 0.360612
vt 0.398836 0.396059
vt 0.288380 0.396059
vt 0.288347 0.360612
vt 0.288347 0.172486
vt 0.262499 0.597621
vt 0.737724 0.597621
vt 0.516806 1.000027
vt 0.475073 1.000027
vt 0.516806 0.937427
vt 0.620359 0.999850
vt 0.500000 0.999850
vt 0.500000 0.938138
vt 0.620359 0.938138
vt 0.745062 0.999850
vt 0.745062 0.938138
vt 0.984360 0.999850
vt 0.984360 0.938139
vt 0.516806 1.000027
vt 0.516806 0.937427
vt 0.475073 1.000027
vt 0.620359 0.999850
vt 0.620359 0.938138
vt 0.745062 0.999850
vt 0.745062 0.938138
vt 0.984360 0.999850
vt 0.984360 0.938139
vt 0.666262 0.135532
vt 0.666262 0.057430
vt 0.726264 0.057430
vt 0.726265 0.135532
vt 0.666262 0.135532
vt 0.726265 0.135532
vt 0.726264 0.057430
vt 0.666262 0.057430
vn 1.0000 0.0005 0.0002
vn 1.0000 0.0000 0.0000
vn 0.0000 0.0000 -1.0000
vn 0.0000 0.8942 0.4476
vn -1.0000 0.0005 0.0002
vn -1.0000 0.0000 0.0000
vn 1.0000 0.0002 0.0000
vn 0.0000 0.8978 0.4403
vn -1.0000 0.0002 0.0000
vn -0.0000 0.8960 0.4442
usemtl MI_Trim_01
s off
f 2/1/1 7/2/1 6/3/1 5/4/1 3/5/1
f 4/6/2 3/7/2 5/8/2
f 15/9/3 18/10/3 13/11/3 10/12/3
f 19/13/3 14/14/3 13/11/3 18/10/3
f 15/15/4 10/16/4 12/17/4 17/18/4
f 22/19/4 15/20/4 17/21/4 24/22/4
f 26/23/3 19/13/3 18/10/3 25/24/3
f 22/25/3 25/24/3 18/10/3 15/9/3
f 2/26/3 3/27/3 25/24/3 22/25/3
f 4/28/3 26/23/3 25/24/3 3/27/3
f 2/29/4 22/19/4 24/22/4 7/30/4
f 28/31/5 29/32/5 31/33/5 32/34/5 33/35/5
f 30/36/6 31/37/6 29/38/6
f 36/39/3 10/12/3 13/11/3 39/40/3
f 40/41/3 39/40/3 13/11/3 14/14/3
f 36/42/4 38/43/4 12/17/4 10/16/4
f 43/44/4 45/45/4 38/46/4 36/47/4
f 47/48/3 46/49/3 39/40/3 40/41/3
f 43/50/3 36/39/3 39/40/3 46/49/3
f 28/51/3 43/50/3 46/49/3 29/52/3
f 30/53/3 29/52/3 46/49/3 47/48/3
f 28/54/4 33/55/4 45/45/4 43/44/4
usemtl MI_Trim_02
f 6/56/7 7/57/7 1/58/7
f 17/59/8 12/60/8 11/61/8 16/62/8
f 24/63/8 17/59/8 16/62/8 23/64/8
f 7/65/8 24/63/8 23/64/8 1/66/8
f 32/67/9 27/68/9 33/69/9
f 38/70/8 37/71/8 11/61/8 12/60/8
f 45/72/8 44/73/8 37/71/8 38/70/8
f 33/74/8 27/75/8 44/73/8 45/72/8
usemtl M_Decal_White
f 21/76/10 20/77/10 8/78/10 9/79/10
f 42/80/10 35/81/10 34/82/10 41/83/10
