# Blender v3.6.0 OBJ File: 'AllModules_Unreal.blend'
# www.blender.org
mtllib Platform_Round2.mtl
o Platform_Round2_Cylinder.010
v 2.995400 -0.015037 0.000000
v 2.969774 -0.015037 0.390978
v 2.893334 -0.015037 0.775267
v 2.767389 -0.015037 1.146290
v 2.594093 -0.015037 1.497700
v 2.376411 -0.015037 1.823484
v 2.118068 -0.015037 2.118068
v 1.823484 -0.015037 2.376411
v 1.497700 -0.015037 2.594093
v 1.146290 -0.015037 2.767389
v 0.775267 -0.015037 2.893334
v 0.390978 -0.015037 2.969774
v 0.000000 -0.015037 2.995400
v 0.000000 0.112659 2.578888
v 0.000000 0.044864 2.843876
v 0.336613 0.112659 2.556825
v 0.371200 0.044864 2.819547
v 0.667465 0.112659 2.491014
v 0.736049 0.044864 2.746974
v 0.986897 0.112659 2.382582
v 1.088304 0.044864 2.627399
v 1.289444 0.112659 2.233382
v 1.421938 0.044864 2.462869
v 1.569927 0.112659 2.045969
v 1.731242 0.044864 2.256199
v 1.823549 0.112659 1.823549
v 2.010924 0.044864 2.010924
v 2.045969 0.112659 1.569927
v 2.256199 0.044864 1.731242
v 2.233382 0.112659 1.289444
v 2.462869 0.044864 1.421938
v 2.382582 0.112659 0.986897
v 2.627399 0.044864 1.088304
v 2.491014 0.112659 0.667465
v 2.746974 0.044864 0.736049
v 2.556825 0.112659 0.336613
v 2.819547 0.044864 0.371200
v 2.578888 0.112659 0.000000
v 2.843876 0.044864 0.000000
v 0.000000 0.081440 1.766269
v 0.230545 0.081440 1.751159
v 0.457144 0.081440 1.706085
v 0.675922 0.081440 1.631820
v 0.883135 0.081440 1.529634
v 1.075237 0.081440 1.401276
v 1.248941 0.081440 1.248941
v 1.401276 0.081440 1.075237
v 1.529634 0.081440 0.883135
v 1.631820 0.081440 0.675922
v 1.706085 0.081440 0.457144
v 1.751159 0.081440 0.230545
v 1.766269 0.081440 0.000000
v 0.085067 0.081440 0.646148
v 0.000000 0.081440 0.651723
v 0.168678 0.081440 0.629517
v 0.249404 0.081440 0.602114
v 0.325862 0.081440 0.564409
v 0.396744 0.081440 0.517047
v 0.460838 0.081440 0.460838
v 0.517047 0.081440 0.396744
v 0.564409 0.081440 0.325862
v 0.602114 0.081440 0.249404
v 0.629517 0.081440 0.168678
v 0.646148 0.081440 0.085067
v 0.651724 0.081440 0.000000
v 0.000000 0.081440 0.000000
v 0.000000 0.081440 1.295187
v 0.647594 0.081440 1.121665
v 0.495646 0.081440 1.196596
v 1.295187 0.081440 0.000000
v 1.284106 0.081440 0.169056
v 0.788460 0.081440 1.027541
v 0.915835 0.081440 0.915835
v 1.027541 0.081440 0.788460
v 1.121665 0.081440 0.647594
v 0.169056 0.081440 1.284106
v 1.196597 0.081440 0.495646
v 0.335219 0.081440 1.251055
v 1.251055 0.081440 0.335219
v -2.995400 -0.015037 0.000000
v -2.969774 -0.015037 0.390978
v -2.893334 -0.015037 0.775267
v -2.767389 -0.015037 1.146290
v -2.594093 -0.015037 1.497700
v -2.376411 -0.015037 1.823484
v -2.118068 -0.015037 2.118068
v -1.823484 -0.015037 2.376411
v -1.497700 -0.015037 2.594093
v -1.146290 -0.015037 2.767389
v -0.775267 -0.015037 2.893334
v -0.390978 -0.015037 2.969774
v -0.336613 0.112659 2.556825
v -0.371200 0.044864 2.819547
v -0.667465 0.112659 2.491014
v -0.736049 0.044864 2.746974
v -0.986897 0.112659 2.382582
v -1.088304 0.044864 2.627399
v -1.289444 0.112659 2.233382
v -1.421938 0.044864 2.462869
v -1.569927 0.112659 2.045969
v -1.731242 0.044864 2.256199
v -1.823549 0.112659 1.823549
v -2.010924 0.044864 2.010924
v -2.045969 0.112659 1.569927
v -2.256199 0.044864 1.731242
v -2.233382 0.112659 1.289444
v -2.462869 0.044864 1.421938
v -2.382582 0.112659 0.986897
v -2.627399 0.044864 1.088304
v -2.491014 0.112659 0.667465
v -2.746974 0.044864 0.736049
v -2.556825 0.112659 0.336613
v -2.819547 0.044864 0.371200
v -2.578888 0.112659 0.000000
v -2.843876 0.044864 0.000000
v -0.230545 0.081440 1.751159
v -0.457144 0.081440 1.706085
v -0.675922 0.081440 1.631820
v -0.883135 0.081440 1.529634
v -1.075237 0.081440 1.401276
v -1.248941 0.081440 1.248941
v -1.401276 0.081440 1.075237
v -1.529634 0.081440 0.883135
v -1.631820 0.081440 0.675922
v -1.706085 0.081440 0.457144
v -1.751159 0.081440 0.230545
v -1.766269 0.081440 0.000000
v -0.085067 0.081440 0.646148
v -0.168678 0.081440 0.629517
v -0.249404 0.081440 0.602114
v -0.325862 0.081440 0.564409
v -0.396744 0.081440 0.517047
v -0.460838 0.081440 0.460838
v -0.517047 0.081440 0.396744
v -0.564409 0.081440 0.325862
v -0.602114 0.081440 0.249404
v -0.629517 0.081440 0.168678
v -0.646148 0.081440 0.085067
v -0.651724 0.081440 0.000000
v -0.647594 0.081440 1.121665
v -0.495646 0.081440 1.196596
v -1.295187 0.081440 0.000000
v -1.284106 0.081440 0.169056
v -0.788460 0.081440 1.027541
v -0.915835 0.081440 0.915835
v -1.027541 0.081440 0.788460
v -1.121665 0.081440 0.647594
v -0.169056 0.081440 1.284106
v -1.196597 0.081440 0.495646
v -0.335219 0.081440 1.251055
v -1.251055 0.081440 0.335219
v 2.969774 -0.015037 -0.390978
v 2.893334 -0.015037 -0.775267
v 2.767389 -0.015037 -1.146290
v 2.594093 -0.015037 -1.497700
v 2.376411 -0.015037 -1.823484
v 2.118068 -0.015037 -2.118068
v 1.823484 -0.015037 -2.376411
v 1.497700 -0.015037 -2.594093
v 1.146290 -0.015037 -2.767389
v 0.775267 -0.015037 -2.893334
v 0.390978 -0.015037 -2.969774
v 0.000000 -0.015037 -2.995400
v 0.000000 0.112659 -2.578888
v 0.000000 0.044864 -2.843876
v 0.336613 0.112659 -2.556825
v 0.371200 0.044864 -2.819547
v 0.667465 0.112659 -2.491014
v 0.736049 0.044864 -2.746974
v 0.986897 0.112659 -2.382582
v 1.088304 0.044864 -2.627399
v 1.289444 0.112659 -2.233382
v 1.421938 0.044864 -2.462869
v 1.569927 0.112659 -2.045969
v 1.731242 0.044864 -2.256199
v 1.823549 0.112659 -1.823549
v 2.010924 0.044864 -2.010924
v 2.045969 0.112659 -1.569927
v 2.256199 0.044864 -1.731242
v 2.233382 0.112659 -1.289444
v 2.462869 0.044864 -1.421938
v 2.382582 0.112659 -0.986897
v 2.627399 0.044864 -1.088304
v 2.491014 0.112659 -0.667465
v 2.746974 0.044864 -0.736049
v 2.556825 0.112659 -0.336613
v 2.819547 0.044864 -0.371200
v 0.000000 0.081440 -1.766269
v 0.230545 0.081440 -1.751159
v 0.457144 0.081440 -1.706085
v 0.675922 0.081440 -1.631820
v 0.883135 0.081440 -1.529634
v 1.075237 0.081440 -1.401276
v 1.248941 0.081440 -1.248941
v 1.401276 0.081440 -1.075237
v 1.529634 0.081440 -0.883135
v 1.631820 0.081440 -0.675922
v 1.706085 0.081440 -0.457144
v 1.751159 0.081440 -0.230545
v 0.085067 0.081440 -0.646148
v 0.000000 0.081440 -0.651723
v 0.168678 0.081440 -0.629517
v 0.249404 0.081440 -0.602114
v 0.325862 0.081440 -0.564409
v 0.396744 0.081440 -0.517047
v 0.460838 0.081440 -0.460838
v 0.517047 0.081440 -0.396744
v 0.564409 0.081440 -0.325862
v 0.602114 0.081440 -0.249404
v 0.629517 0.081440 -0.168678
v 0.646148 0.081440 -0.085067
v 0.000000 0.081440 -1.295187
v 0.647594 0.081440 -1.121665
v 0.495646 0.081440 -1.196596
v 1.284106 0.081440 -0.169056
v 0.788460 0.081440 -1.027541
v 0.915835 0.081440 -0.915835
v 1.027541 0.081440 -0.788460
v 1.121665 0.081440 -0.647594
v 0.169056 0.081440 -1.284106
v 1.196597 0.081440 -0.495646
v 0.335219 0.081440 -1.251055
v 1.251055 0.081440 -0.335219
v -2.969774 -0.015037 -0.390978
v -2.893334 -0.015037 -0.775267
v -2.767389 -0.015037 -1.146290
v -2.594093 -0.015037 -1.497700
v -2.376411 -0.015037 -1.823484
v -2.118068 -0.015037 -2.118068
v -1.823484 -0.015037 -2.376411
v -1.497700 -0.015037 -2.594093
v -1.146290 -0.015037 -2.767389
v -0.775267 -0.015037 -2.893334
v -0.390978 -0.015037 -2.969774
v -0.336613 0.112659 -2.556825
v -0.371200 0.044864 -2.819547
v -0.667465 0.112659 -2.491014
v -0.736049 0.044864 -2.746974
v -0.986897 0.112659 -2.382582
v -1.088304 0.044864 -2.627399
v -1.289444 0.112659 -2.233382
v -1.421938 0.044864 -2.462869
v -1.569927 0.112659 -2.045969
v -1.731242 0.044864 -2.256199
v -1.823549 0.112659 -1.823549
v -2.010924 0.044864 -2.010924
v -2.045969 0.112659 -1.569927
v -2.256199 0.044864 -1.731242
v -2.233382 0.112659 -1.289444
v -2.462869 0.044864 -1.421938
v -2.382582 0.112659 -0.986897
v -2.627399 0.044864 -1.088304
v -2.491014 0.112659 -0.667465
v -2.746974 0.044864 -0.736049
v -2.556825 0.112659 -0.336613
v -2.819547 0.044864 -0.371200
v -0.230545 0.081440 -1.751159
v -0.457144 0.081440 -1.706085
v -0.675922 0.081440 -1.631820
v -0.883135 0.081440 -1.529634
v -1.075237 0.081440 -1.401276
v -1.248941 0.081440 -1.248941
v -1.401276 0.081440 -1.075237
v -1.529634 0.081440 -0.883135
v -1.631820 0.081440 -0.675922
v -1.706085 0.081440 -0.457144
v -1.751159 0.081440 -0.230545
v -0.085067 0.081440 -0.646148
v -0.168678 0.081440 -0.629517
v -0.249404 0.081440 -0.602114
v -0.325862 0.081440 -0.564409
v -0.396744 0.081440 -0.517047
v -0.460838 0.081440 -0.460838
v -0.517047 0.081440 -0.396744
v -0.564409 0.081440 -0.325862
v -0.602114 0.081440 -0.249404
v -0.629517 0.081440 -0.168678
v -0.646148 0.081440 -0.085067
v -0.647594 0.081440 -1.121665
v -0.495646 0.081440 -1.196596
v -1.284106 0.081440 -0.169056
v -0.788460 0.081440 -1.027541
v -0.915835 0.081440 -0.915835
v -1.027541 0.081440 -0.788460
v -1.121665 0.081440 -0.647594
v -0.169056 0.081440 -1.284106
v -1.196597 0.081440 -0.495646
v -0.335219 0.081440 -1.251055
v -1.251055 0.081440 -0.335219
vt 0.887221 0.712116
vt 0.951989 0.712116
vt 0.951989 0.737182
vt 0.887221 0.737182
vt 0.628148 0.712116
vt 0.692916 0.712116
vt 0.692916 0.737182
vt 0.628148 0.737182
vt 1.211063 0.712116
vt 1.275831 0.712116
vt 1.275831 0.737182
vt 1.211063 0.737182
vt 1.016758 0.712116
vt 1.016758 0.737182
vt 0.757685 0.712116
vt 0.757685 0.737182
vt 1.081526 0.712116
vt 1.081526 0.737182
vt 0.822453 0.712116
vt 0.822453 0.737182
vt 0.498611 0.712116
vt 0.563380 0.712116
vt 0.563380 0.737182
vt 0.498611 0.737183
vt 1.146294 0.712116
vt 1.146294 0.737182
vt 0.563380 0.803370
vt 0.498611 0.803370
vt 0.628148 0.803370
vt 0.692916 0.803370
vt 0.757685 0.803370
vt 0.822453 0.803370
vt 0.887221 0.803370
vt 0.951989 0.803370
vt 1.016758 0.803370
vt 1.081526 0.803370
vt 1.146294 0.803370
vt 1.211063 0.803370
vt 1.275831 0.803370
vt 0.757685 0.997789
vt 0.692916 0.997789
vt 1.081526 0.997789
vt 1.016758 0.997789
vt 0.822453 0.997789
vt 0.563380 0.997789
vt 0.498611 0.997789
vt 1.146294 0.997789
vt 0.887221 0.997789
vt 0.628148 0.997789
vt 1.211063 0.997789
vt 0.951989 0.997789
vt 1.275831 0.997789
vt 0.581294 0.188749
vt 0.581637 0.221293
vt 0.549092 0.221637
vt 0.549326 0.217386
vt 0.550112 0.213202
vt 0.551438 0.209157
vt 0.553281 0.205319
vt 0.555609 0.201754
vt 0.558382 0.198524
vt 0.561553 0.195683
vt 0.565067 0.193281
vt 0.568865 0.191358
vt 0.572882 0.189947
vt 0.577048 0.189072
vt 0.887221 0.712116
vt 0.887221 0.737182
vt 0.951989 0.737182
vt 0.951989 0.712116
vt 0.628148 0.712116
vt 0.628148 0.737182
vt 0.692916 0.737182
vt 0.692916 0.712116
vt 1.211063 0.712116
vt 1.211063 0.737182
vt 1.275831 0.737182
vt 1.275831 0.712116
vt 1.016758 0.737182
vt 1.016758 0.712116
vt 0.757685 0.737182
vt 0.757685 0.712116
vt 1.081526 0.737182
vt 1.081526 0.712116
vt 0.822453 0.737182
vt 0.822453 0.712116
vt 0.563380 0.737182
vt 0.563380 0.712116
vt 1.146294 0.737182
vt 1.146294 0.712116
vt 0.563380 0.803370
vt 0.628148 0.803370
vt 0.692916 0.803370
vt 0.757685 0.803370
vt 0.822453 0.803370
vt 0.887221 0.803370
vt 0.951989 0.803370
vt 1.016758 0.803370
vt 1.081526 0.803370
vt 1.146294 0.803370
vt 1.211063 0.803370
vt 1.275831 0.803370
vt 0.692916 0.997789
vt 0.757685 0.997789
vt 1.016758 0.997789
vt 1.081526 0.997789
vt 0.822453 0.997789
vt 0.563380 0.997789
vt 1.146294 0.997789
vt 0.887221 0.997789
vt 0.628148 0.997789
vt 1.211063 0.997789
vt 0.951989 0.997789
vt 1.275831 0.997789
vt 0.581981 0.253838
vt 0.577730 0.253605
vt 0.573546 0.252818
vt 0.569500 0.251492
vt 0.565662 0.249650
vt 0.562098 0.247322
vt 0.558867 0.244549
vt 0.556027 0.241378
vt 0.553624 0.237863
vt 0.551701 0.234065
vt 0.550290 0.230048
vt 0.549416 0.225882
vt 0.887221 0.712116
vt 0.887221 0.737182
vt 0.951989 0.737182
vt 0.951989 0.712116
vt 0.628148 0.712116
vt 0.628148 0.737182
vt 0.692916 0.737182
vt 0.692916 0.712116
vt 1.211063 0.712116
vt 1.211063 0.737182
vt 1.016758 0.737182
vt 1.016758 0.712116
vt 0.757685 0.737182
vt 0.757685 0.712116
vt 1.081526 0.737182
vt 1.081526 0.712116
vt 0.822453 0.737182
vt 0.822453 0.712116
vt 0.498611 0.712116
vt 0.498611 0.737183
vt 0.563380 0.737182
vt 0.563380 0.712116
vt 1.146294 0.737182
vt 1.146294 0.712116
vt 0.498611 0.803370
vt 0.563380 0.803370
vt 0.628148 0.803370
vt 0.692916 0.803370
vt 0.757685 0.803370
vt 0.822453 0.803370
vt 0.887221 0.803370
vt 0.951989 0.803370
vt 1.016758 0.803370
vt 1.081526 0.803370
vt 1.146294 0.803370
vt 1.211063 0.803370
vt 0.692916 0.997789
vt 0.757685 0.997789
vt 1.016758 0.997789
vt 1.081526 0.997789
vt 0.822453 0.997789
vt 0.498611 0.997789
vt 0.563380 0.997789
vt 1.146294 0.997789
vt 0.887221 0.997789
vt 0.628148 0.997789
vt 1.211063 0.997789
vt 0.951989 0.997789
vt 0.585544 0.188982
vt 0.589728 0.189769
vt 0.593774 0.191095
vt 0.597612 0.192937
vt 0.601176 0.195265
vt 0.604407 0.198038
vt 0.607247 0.201209
vt 0.609650 0.204724
vt 0.611573 0.208522
vt 0.612984 0.212538
vt 0.613858 0.216705
vt 0.614182 0.220950
vt 0.887221 0.712116
vt 0.951989 0.712116
vt 0.951989 0.737182
vt 0.887221 0.737182
vt 0.628148 0.712116
vt 0.692916 0.712116
vt 0.692916 0.737182
vt 0.628148 0.737182
vt 1.211063 0.712116
vt 1.211063 0.737182
vt 1.016758 0.712116
vt 1.016758 0.737182
vt 0.757685 0.712116
vt 0.757685 0.737182
vt 1.081526 0.712116
vt 1.081526 0.737182
vt 0.822453 0.712116
vt 0.822453 0.737182
vt 0.563380 0.712116
vt 0.563380 0.737182
vt 1.146294 0.712116
vt 1.146294 0.737182
vt 0.563380 0.803370
vt 0.628148 0.803370
vt 0.692916 0.803370
vt 0.757685 0.803370
vt 0.822453 0.803370
vt 0.887221 0.803370
vt 0.951989 0.803370
vt 1.016758 0.803370
vt 1.081526 0.803370
vt 1.146294 0.803370
vt 1.211063 0.803370
vt 0.757685 0.997789
vt 0.692916 0.997789
vt 1.081526 0.997789
vt 1.016758 0.997789
vt 0.822453 0.997789
vt 0.563380 0.997789
vt 1.146294 0.997789
vt 0.887221 0.997789
vt 0.628148 0.997789
vt 1.211063 0.997789
vt 0.951989 0.997789
vt 0.613948 0.225201
vt 0.613162 0.229385
vt 0.611836 0.233430
vt 0.609993 0.237268
vt 0.607666 0.240833
vt 0.604892 0.244063
vt 0.601722 0.246904
vt 0.598207 0.249306
vt 0.594409 0.251229
vt 0.590392 0.252640
vt 0.586226 0.253515
vt 0.400872 0.534371
vt 0.423882 0.534371
vt 0.423882 0.600706
vt 0.400872 0.600706
vt 0.584955 0.534371
vt 0.607966 0.534371
vt 0.607966 0.600706
vt 0.584955 0.600706
vt 0.446893 0.534371
vt 0.446893 0.600706
vt 0.469903 0.534371
vt 0.469903 0.600706
vt 0.492914 0.534371
vt 0.492914 0.600706
vt 0.515924 0.534371
vt 0.515924 0.600706
vt 0.331840 0.534371
vt 0.354851 0.534371
vt 0.354851 0.600706
vt 0.331840 0.600706
vt 0.538934 0.534371
vt 0.538934 0.600706
vt 0.377861 0.534371
vt 0.377861 0.600706
vt 0.561945 0.534371
vt 0.561945 0.600706
vt 0.625935 0.604377
vt 0.657812 0.604377
vt 0.657812 0.653597
vt 0.625935 0.653597
vt 0.370914 0.604377
vt 0.402792 0.604377
vt 0.402792 0.653597
vt 0.370914 0.653597
vt 0.594057 0.604377
vt 0.594057 0.653597
vt 0.339036 0.604377
vt 0.339036 0.653597
vt 0.562180 0.604377
vt 0.562180 0.653597
vt 0.307159 0.604377
vt 0.307159 0.653597
vt 0.530302 0.604377
vt 0.530302 0.653597
vt 0.498424 0.604377
vt 0.498424 0.653597
vt 0.466547 0.604377
vt 0.466547 0.653597
vt 0.434669 0.604377
vt 0.434669 0.653597
vt 0.689690 0.604377
vt 0.689690 0.653597
vt 0.400872 0.534371
vt 0.400872 0.600706
vt 0.423882 0.600706
vt 0.423882 0.534371
vt 0.584955 0.534371
vt 0.584955 0.600706
vt 0.607966 0.600706
vt 0.607966 0.534371
vt 0.446893 0.600706
vt 0.446893 0.534371
vt 0.469903 0.600706
vt 0.469903 0.534371
vt 0.492914 0.600706
vt 0.492914 0.534371
vt 0.515924 0.600706
vt 0.515924 0.534371
vt 0.354851 0.600706
vt 0.354851 0.534371
vt 0.538934 0.600706
vt 0.538934 0.534371
vt 0.377861 0.600706
vt 0.377861 0.534371
vt 0.561945 0.600706
vt 0.561945 0.534371
vt 0.625935 0.604377
vt 0.625935 0.653597
vt 0.657812 0.653597
vt 0.657812 0.604377
vt 0.370914 0.604377
vt 0.370914 0.653597
vt 0.402792 0.653597
vt 0.402792 0.604377
vt 0.594057 0.604377
vt 0.594057 0.653597
vt 0.339036 0.604377
vt 0.339036 0.653597
vt 0.562180 0.604377
vt 0.562180 0.653597
vt 0.530302 0.604377
vt 0.530302 0.653597
vt 0.498424 0.604377
vt 0.498424 0.653597
vt 0.466547 0.604377
vt 0.466547 0.653597
vt 0.434669 0.604377
vt 0.434669 0.653597
vt 0.689690 0.653597
vt 0.689690 0.604377
vt 0.400872 0.534371
vt 0.400872 0.600706
vt 0.423882 0.600706
vt 0.423882 0.534371
vt 0.584955 0.534371
vt 0.584955 0.600706
vt 0.446893 0.600706
vt 0.446893 0.534371
vt 0.469903 0.600706
vt 0.469903 0.534371
vt 0.492914 0.600706
vt 0.492914 0.534371
vt 0.515924 0.600706
vt 0.515924 0.534371
vt 0.331840 0.534371
vt 0.331840 0.600706
vt 0.354851 0.600706
vt 0.354851 0.534371
vt 0.538934 0.600706
vt 0.538934 0.534371
vt 0.377861 0.600706
vt 0.377861 0.534371
vt 0.561945 0.600706
vt 0.561945 0.534371
vt 0.625935 0.604377
vt 0.625935 0.653597
vt 0.657812 0.653597
vt 0.657812 0.604377
vt 0.370914 0.604377
vt 0.370914 0.653597
vt 0.402792 0.653597
vt 0.402792 0.604377
vt 0.594057 0.604377
vt 0.594057 0.653597
vt 0.339036 0.604377
vt 0.339036 0.653597
vt 0.562180 0.604377
vt 0.562180 0.653597
vt 0.307159 0.604377
vt 0.307159 0.653597
vt 0.530302 0.604377
vt 0.530302 0.653597
vt 0.498424 0.604377
vt 0.498424 0.653597
vt 0.466547 0.604377
vt 0.466547 0.653597
vt 0.434669 0.604377
vt 0.434669 0.653597
vt 0.400872 0.534371
vt 0.423882 0.534371
vt 0.423882 0.600706
vt 0.400872 0.600706
vt 0.584955 0.534371
vt 0.584955 0.600706
vt 0.446893 0.534371
vt 0.446893 0.600706
vt 0.469903 0.534371
vt 0.469903 0.600706
vt 0.492914 0.534371
vt 0.492914 0.600706
vt 0.515924 0.534371
vt 0.515924 0.600706
vt 0.354851 0.534371
vt 0.354851 0.600706
vt 0.538934 0.534371
vt 0.538934 0.600706
vt 0.377861 0.534371
vt 0.377861 0.600706
vt 0.561945 0.534371
vt 0.561945 0.600706
vt 0.625935 0.604377
vt 0.657812 0.604377
vt 0.657812 0.653597
vt 0.625935 0.653597
vt 0.370914 0.604377
vt 0.402792 0.604377
vt 0.402792 0.653597
vt 0.370914 0.653597
vt 0.594057 0.604377
vt 0.594057 0.653597
vt 0.339036 0.604377
vt 0.339036 0.653597
vt 0.562180 0.604377
vt 0.562180 0.653597
vt 0.530302 0.604377
vt 0.530302 0.653597
vt 0.498424 0.604377
vt 0.498424 0.653597
vt 0.466547 0.604377
vt 0.466547 0.653597
vt 0.434669 0.604377
vt 0.434669 0.653597
vn 0.2600 0.9300 0.2600
vn 0.2917 0.9300 0.2238
vn 0.2465 0.9505 0.1892
vn 0.2197 0.9505 0.2197
vn 0.0952 0.9300 0.3551
vn 0.1407 0.9300 0.3397
vn 0.1189 0.9505 0.2871
vn 0.0804 0.9505 0.3001
vn 0.3645 0.9300 0.0480
vn 0.3676 0.9300 0.0000
vn 0.3107 0.9505 0.0000
vn 0.3081 0.9505 0.0406
vn 0.3184 0.9300 0.1838
vn 0.2691 0.9505 0.1554
vn 0.1838 0.9300 0.3184
vn 0.1554 0.9505 0.2691
vn 0.3397 0.9300 0.1407
vn 0.2871 0.9505 0.1189
vn 0.2238 0.9300 0.2917
vn 0.1892 0.9505 0.2465
vn 0.0000 0.9300 0.3676
vn 0.0480 0.9300 0.3645
vn 0.0406 0.9505 0.3081
vn 0.0000 0.9505 0.3107
vn 0.3551 0.9300 0.0952
vn 0.3001 0.9505 0.0804
vn 0.0324 0.9688 0.2457
vn 0.0000 0.9688 0.2479
vn 0.0642 0.9688 0.2394
vn 0.0949 0.9688 0.2290
vn 0.1239 0.9688 0.2146
vn 0.1509 0.9688 0.1966
vn 0.1753 0.9688 0.1753
vn 0.1966 0.9688 0.1509
vn 0.2146 0.9688 0.1239
vn 0.2290 0.9688 0.0949
vn 0.2394 0.9688 0.0642
vn 0.2457 0.9688 0.0324
vn 0.2479 0.9688 0.0000
vn -0.0147 0.9993 -0.0355
vn -0.0192 0.9993 -0.0332
vn -0.0100 0.9998 -0.0173
vn -0.0077 0.9998 -0.0185
vn -0.0332 0.9993 -0.0192
vn -0.0355 0.9993 -0.0147
vn -0.0185 0.9998 -0.0077
vn -0.0173 0.9998 -0.0100
vn -0.0234 0.9993 -0.0305
vn -0.0122 0.9998 -0.0159
vn -0.0000 0.9993 -0.0384
vn -0.0050 0.9993 -0.0381
vn -0.0026 0.9998 -0.0198
vn -0.0000 0.9998 -0.0200
vn -0.0371 0.9993 -0.0099
vn -0.0193 0.9998 -0.0052
vn -0.0271 0.9993 -0.0271
vn -0.0141 0.9998 -0.0141
vn -0.0099 0.9993 -0.0371
vn -0.0052 0.9998 -0.0193
vn -0.0381 0.9993 -0.0050
vn -0.0198 0.9998 -0.0026
vn -0.0305 0.9993 -0.0234
vn -0.0159 0.9998 -0.0122
vn -0.0384 0.9993 0.0000
vn -0.0200 0.9998 -0.0000
vn 0.0000 1.0000 -0.0000
vn -0.2600 0.9300 0.2600
vn -0.2197 0.9505 0.2197
vn -0.2465 0.9505 0.1892
vn -0.2917 0.9300 0.2238
vn -0.0952 0.9300 0.3551
vn -0.0804 0.9505 0.3001
vn -0.1189 0.9505 0.2871
vn -0.1407 0.9300 0.3397
vn -0.3645 0.9300 0.0480
vn -0.3081 0.9505 0.0406
vn -0.3107 0.9505 -0.0000
vn -0.3676 0.9300 0.0000
vn -0.2691 0.9505 0.1554
vn -0.3184 0.9300 0.1838
vn -0.1554 0.9505 0.2691
vn -0.1838 0.9300 0.3184
vn -0.2871 0.9505 0.1189
vn -0.3397 0.9300 0.1407
vn -0.1892 0.9505 0.2465
vn -0.2238 0.9300 0.2917
vn -0.0406 0.9505 0.3081
vn -0.0480 0.9300 0.3645
vn -0.3001 0.9505 0.0804
vn -0.3551 0.9300 0.0952
vn -0.0324 0.9688 0.2457
vn -0.0642 0.9688 0.2394
vn -0.0949 0.9688 0.2290
vn -0.1239 0.9688 0.2146
vn -0.1509 0.9688 0.1966
vn -0.1753 0.9688 0.1753
vn -0.1966 0.9688 0.1509
vn -0.2146 0.9688 0.1239
vn -0.2290 0.9688 0.0949
vn -0.2394 0.9688 0.0641
vn -0.2457 0.9688 0.0324
vn -0.2479 0.9688 -0.0000
vn 0.0147 0.9993 -0.0355
vn 0.0077 0.9998 -0.0185
vn 0.0100 0.9998 -0.0173
vn 0.0192 0.9993 -0.0332
vn 0.0332 0.9993 -0.0192
vn 0.0173 0.9998 -0.0100
vn 0.0185 0.9998 -0.0077
vn 0.0355 0.9993 -0.0147
vn 0.0122 0.9998 -0.0159
vn 0.0234 0.9993 -0.0305
vn 0.0026 0.9998 -0.0198
vn 0.0050 0.9993 -0.0381
vn 0.0193 0.9998 -0.0052
vn 0.0371 0.9993 -0.0099
vn 0.0141 0.9998 -0.0141
vn 0.0271 0.9993 -0.0271
vn 0.0052 0.9998 -0.0193
vn 0.0099 0.9993 -0.0371
vn 0.0198 0.9998 -0.0026
vn 0.0381 0.9993 -0.0050
vn 0.0159 0.9998 -0.0122
vn 0.0305 0.9993 -0.0234
vn 0.0200 0.9998 0.0000
vn 0.0384 0.9993 -0.0000
vn 0.2600 0.9300 -0.2600
vn 0.2197 0.9505 -0.2197
vn 0.2465 0.9505 -0.1892
vn 0.2917 0.9300 -0.2238
vn 0.0952 0.9300 -0.3551
vn 0.0804 0.9505 -0.3001
vn 0.1189 0.9505 -0.2871
vn 0.1407 0.9300 -0.3397
vn 0.3645 0.9300 -0.0480
vn 0.3081 0.9505 -0.0406
vn 0.2691 0.9505 -0.1554
vn 0.3184 0.9300 -0.1838
vn 0.1554 0.9505 -0.2691
vn 0.1838 0.9300 -0.3184
vn 0.2871 0.9505 -0.1189
vn 0.3397 0.9300 -0.1407
vn 0.1892 0.9505 -0.2465
vn 0.2238 0.9300 -0.2917
vn -0.0000 0.9300 -0.3676
vn -0.0000 0.9505 -0.3107
vn 0.0406 0.9505 -0.3081
vn 0.0480 0.9300 -0.3645
vn 0.3001 0.9505 -0.0804
vn 0.3551 0.9300 -0.0952
vn 0.0000 0.9688 -0.2479
vn 0.0324 0.9688 -0.2457
vn 0.0642 0.9688 -0.2394
vn 0.0949 0.9688 -0.2290
vn 0.1239 0.9688 -0.2146
vn 0.1509 0.9688 -0.1966
vn 0.1753 0.9688 -0.1753
vn 0.1966 0.9688 -0.1509
vn 0.2146 0.9688 -0.1239
vn 0.2290 0.9688 -0.0949
vn 0.2394 0.9688 -0.0641
vn 0.2457 0.9688 -0.0324
vn -0.0147 0.9993 0.0355
vn -0.0077 0.9998 0.0185
vn -0.0100 0.9998 0.0173
vn -0.0192 0.9993 0.0332
vn -0.0332 0.9993 0.0192
vn -0.0173 0.9998 0.0100
vn -0.0185 0.9998 0.0077
vn -0.0355 0.9993 0.0147
vn -0.0122 0.9998 0.0159
vn -0.0234 0.9993 0.0305
vn 0.0000 0.9993 0.0384
vn 0.0000 0.9998 0.0200
vn -0.0026 0.9998 0.0198
vn -0.0050 0.9993 0.0381
vn -0.0193 0.9998 0.0052
vn -0.0371 0.9993 0.0099
vn -0.0141 0.9998 0.0141
vn -0.0271 0.9993 0.0271
vn -0.0052 0.9998 0.0193
vn -0.0099 0.9993 0.0371
vn -0.0198 0.9998 0.0026
vn -0.0381 0.9993 0.0050
vn -0.0159 0.9998 0.0122
vn -0.0305 0.9993 0.0234
vn -0.2600 0.9300 -0.2600
vn -0.2917 0.9300 -0.2238
vn -0.2465 0.9505 -0.1892
vn -0.2197 0.9505 -0.2197
vn -0.0952 0.9300 -0.3551
vn -0.1407 0.9300 -0.3397
vn -0.1189 0.9505 -0.2871
vn -0.0804 0.9505 -0.3001
vn -0.3645 0.9300 -0.0480
vn -0.3081 0.9505 -0.0406
vn -0.3184 0.9300 -0.1838
vn -0.2691 0.9505 -0.1554
vn -0.1838 0.9300 -0.3184
vn -0.1554 0.9505 -0.2691
vn -0.3397 0.9300 -0.1407
vn -0.2871 0.9505 -0.1189
vn -0.2238 0.9300 -0.2917
vn -0.1892 0.9505 -0.2465
vn -0.0480 0.9300 -0.3645
vn -0.0406 0.9505 -0.3081
vn -0.3551 0.9300 -0.0952
vn -0.3001 0.9505 -0.0804
vn -0.0324 0.9688 -0.2457
vn -0.0642 0.9688 -0.2394
vn -0.0949 0.9688 -0.2290
vn -0.1239 0.9688 -0.2146
vn -0.1509 0.9688 -0.1966
vn -0.1753 0.9688 -0.1753
vn -0.1966 0.9688 -0.1509
vn -0.2146 0.9688 -0.1239
vn -0.2290 0.9688 -0.0949
vn -0.2394 0.9688 -0.0642
vn -0.2457 0.9688 -0.0324
vn 0.0147 0.9993 0.0355
vn 0.0192 0.9993 0.0332
vn 0.0100 0.9998 0.0173
vn 0.0077 0.9998 0.0185
vn 0.0332 0.9993 0.0192
vn 0.0355 0.9993 0.0147
vn 0.0185 0.9998 0.0077
vn 0.0173 0.9998 0.0100
vn 0.0234 0.9993 0.0305
vn 0.0122 0.9998 0.0159
vn 0.0050 0.9993 0.0381
vn 0.0026 0.9998 0.0198
vn 0.0371 0.9993 0.0099
vn 0.0193 0.9998 0.0052
vn 0.0271 0.9993 0.0271
vn 0.0141 0.9998 0.0141
vn 0.0099 0.9993 0.0371
vn 0.0052 0.9998 0.0193
vn 0.0381 0.9993 0.0050
vn 0.0198 0.9998 0.0026
vn 0.0305 0.9993 0.0234
vn 0.0159 0.9998 0.0122
usemtl MI_Trim_02
s 1
f 7/1/1 6/2/2 29/3/3 27/4/4
f 11/5/5 10/6/6 21/7/7 19/8/8
f 2/9/9 1/10/10 39/11/11 37/12/12
f 6/2/2 5/13/13 31/14/14 29/3/3
f 10/6/6 9/15/15 23/16/16 21/7/7
f 5/13/13 4/17/17 33/18/18 31/14/14
f 9/15/15 8/19/19 25/20/20 23/16/16
f 13/21/21 12/22/22 17/23/23 15/24/24
f 4/17/17 3/25/25 35/26/26 33/18/18
f 8/19/19 7/1/1 27/4/4 25/20/20
f 12/22/22 11/5/5 19/8/8 17/23/23
f 3/25/25 2/9/9 37/12/12 35/26/26
f 15/24/24 17/23/23 16/27/27 14/28/28
f 17/23/23 19/8/8 18/29/29 16/27/27
f 19/8/8 21/7/7 20/30/30 18/29/29
f 21/7/7 23/16/16 22/31/31 20/30/30
f 23/16/16 25/20/20 24/32/32 22/31/31
f 25/20/20 27/4/4 26/33/33 24/32/32
f 27/4/4 29/3/3 28/34/34 26/33/33
f 29/3/3 31/14/14 30/35/35 28/34/34
f 31/14/14 33/18/18 32/36/36 30/35/35
f 33/18/18 35/26/26 34/37/37 32/36/36
f 35/26/26 37/12/12 36/38/38 34/37/37
f 37/12/12 39/11/11 38/39/39 36/38/38
f 20/30/40 22/31/41 44/40/42 43/41/43
f 30/35/44 32/36/45 49/42/46 48/43/47
f 22/31/41 24/32/48 45/44/49 44/40/42
f 14/28/50 16/27/51 41/45/52 40/46/53
f 32/36/45 34/37/54 50/47/55 49/42/46
f 24/32/48 26/33/56 46/48/57 45/44/49
f 16/27/51 18/29/58 42/49/59 41/45/52
f 34/37/54 36/38/60 51/50/61 50/47/55
f 26/33/56 28/34/62 47/51/63 46/48/57
f 18/29/58 20/30/40 43/41/43 42/49/59
f 36/38/60 38/39/64 52/52/65 51/50/61
f 28/34/62 30/35/44 48/43/47 47/51/63
f 65/53/66 66/54/66 54/55/66 53/56/66 55/57/66 56/58/66 57/59/66 58/60/66 59/61/66 60/62/66 61/63/66 62/64/66 63/65/66 64/66/66
f 86/67/67 103/68/68 105/69/69 85/70/70
f 90/71/71 95/72/72 97/73/73 89/74/74
f 81/75/75 113/76/76 115/77/77 80/78/78
f 85/70/70 105/69/69 107/79/79 84/80/80
f 89/74/74 97/73/73 99/81/81 88/82/82
f 84/80/80 107/79/79 109/83/83 83/84/84
f 88/82/82 99/81/81 101/85/85 87/86/86
f 13/21/21 15/24/24 93/87/87 91/88/88
f 83/84/84 109/83/83 111/89/89 82/90/90
f 87/86/86 101/85/85 103/68/68 86/67/67
f 91/88/88 93/87/87 95/72/72 90/71/71
f 82/90/90 111/89/89 113/76/76 81/75/75
f 15/24/24 14/28/28 92/91/91 93/87/87
f 93/87/87 92/91/91 94/92/92 95/72/72
f 95/72/72 94/92/92 96/93/93 97/73/73
f 97/73/73 96/93/93 98/94/94 99/81/81
f 99/81/81 98/94/94 100/95/95 101/85/85
f 101/85/85 100/95/95 102/96/96 103/68/68
f 103/68/68 102/96/96 104/97/97 105/69/69
f 105/69/69 104/97/97 106/98/98 107/79/79
f 107/79/79 106/98/98 108/99/99 109/83/83
f 109/83/83 108/99/99 110/100/100 111/89/89
f 111/89/89 110/100/100 112/101/101 113/76/76
f 113/76/76 112/101/101 114/102/102 115/77/77
f 96/93/103 118/103/104 119/104/105 98/94/106
f 106/98/107 123/105/108 124/106/109 108/99/110
f 98/94/106 119/104/105 120/107/111 100/95/112
f 14/28/50 40/46/53 116/108/113 92/91/114
f 108/99/110 124/106/109 125/109/115 110/100/116
f 100/95/112 120/107/111 121/110/117 102/96/118
f 92/91/114 116/108/113 117/111/119 94/92/120
f 110/100/116 125/109/115 126/112/121 112/101/122
f 102/96/118 121/110/117 122/113/123 104/97/124
f 94/92/120 117/111/119 118/103/104 96/93/103
f 112/101/122 126/112/121 127/114/125 114/102/126
f 104/97/124 122/113/123 123/105/108 106/98/107
f 139/115/66 138/116/66 137/117/66 136/118/66 135/119/66 134/120/66 133/121/66 132/122/66 131/123/66 130/124/66 129/125/66 128/126/66 54/55/66 66/54/66
f 157/127/127 177/128/128 179/129/129 156/130/130
f 161/131/131 169/132/132 171/133/133 160/134/134
f 152/135/135 187/136/136 39/11/11 1/10/10
f 156/130/130 179/129/129 181/137/137 155/138/138
f 160/134/134 171/133/133 173/139/139 159/140/140
f 155/138/138 181/137/137 183/141/141 154/142/142
f 159/140/140 173/139/139 175/143/143 158/144/144
f 163/145/145 165/146/146 167/147/147 162/148/148
f 154/142/142 183/141/141 185/149/149 153/150/150
f 158/144/144 175/143/143 177/128/128 157/127/127
f 162/148/148 167/147/147 169/132/132 161/131/131
f 153/150/150 185/149/149 187/136/136 152/135/135
f 165/146/146 164/151/151 166/152/152 167/147/147
f 167/147/147 166/152/152 168/153/153 169/132/132
f 169/132/132 168/153/153 170/154/154 171/133/133
f 171/133/133 170/154/154 172/155/155 173/139/139
f 173/139/139 172/155/155 174/156/156 175/143/143
f 175/143/143 174/156/156 176/157/157 177/128/128
f 177/128/128 176/157/157 178/158/158 179/129/129
f 179/129/129 178/158/158 180/159/159 181/137/137
f 181/137/137 180/159/159 182/160/160 183/141/141
f 183/141/141 182/160/160 184/161/161 185/149/149
f 185/149/149 184/161/161 186/162/162 187/136/136
f 187/136/136 186/162/162 38/39/39 39/11/11
f 170/154/163 191/163/164 192/164/165 172/155/166
f 180/159/167 196/165/168 197/166/169 182/160/170
f 172/155/166 192/164/165 193/167/171 174/156/172
f 164/151/173 188/168/174 189/169/175 166/152/176
f 182/160/170 197/166/169 198/170/177 184/161/178
f 174/156/172 193/167/171 194/171/179 176/157/180
f 166/152/176 189/169/175 190/172/181 168/153/182
f 184/161/178 198/170/177 199/173/183 186/162/184
f 176/157/180 194/171/179 195/174/185 178/158/186
f 168/153/182 190/172/181 191/163/164 170/154/163
f 186/162/184 199/173/183 52/52/65 38/39/64
f 178/158/186 195/174/185 196/165/168 180/159/167
f 65/53/66 211/175/66 210/176/66 209/177/66 208/178/66 207/179/66 206/180/66 205/181/66 204/182/66 203/183/66 202/184/66 200/185/66 201/186/66 66/54/66
f 229/187/187 228/188/188 248/189/189 246/190/190
f 233/191/191 232/192/192 240/193/193 238/194/194
f 224/195/195 80/78/78 115/77/77 256/196/196
f 228/188/188 227/197/197 250/198/198 248/189/189
f 232/192/192 231/199/199 242/200/200 240/193/193
f 227/197/197 226/201/201 252/202/202 250/198/198
f 231/199/199 230/203/203 244/204/204 242/200/200
f 163/145/145 234/205/205 236/206/206 165/146/146
f 226/201/201 225/207/207 254/208/208 252/202/202
f 230/203/203 229/187/187 246/190/190 244/204/204
f 234/205/205 233/191/191 238/194/194 236/206/206
f 225/207/207 224/195/195 256/196/196 254/208/208
f 165/146/146 236/206/206 235/209/209 164/151/151
f 236/206/206 238/194/194 237/210/210 235/209/209
f 238/194/194 240/193/193 239/211/211 237/210/210
f 240/193/193 242/200/200 241/212/212 239/211/211
f 242/200/200 244/204/204 243/213/213 241/212/212
f 244/204/204 246/190/190 245/214/214 243/213/213
f 246/190/190 248/189/189 247/215/215 245/214/214
f 248/189/189 250/198/198 249/216/216 247/215/215
f 250/198/198 252/202/202 251/217/217 249/216/216
f 252/202/202 254/208/208 253/218/218 251/217/217
f 254/208/208 256/196/196 255/219/219 253/218/218
f 256/196/196 115/77/77 114/102/102 255/219/219
f 239/211/220 241/212/221 260/220/222 259/221/223
f 249/216/224 251/217/225 265/222/226 264/223/227
f 241/212/221 243/213/228 261/224/229 260/220/222
f 164/151/173 235/209/230 257/225/231 188/168/174
f 251/217/225 253/218/232 266/226/233 265/222/226
f 243/213/228 245/214/234 262/227/235 261/224/229
f 235/209/230 237/210/236 258/228/237 257/225/231
f 253/218/232 255/219/238 267/229/239 266/226/233
f 245/214/234 247/215/240 263/230/241 262/227/235
f 237/210/236 239/211/220 259/221/223 258/228/237
f 255/219/238 114/102/126 127/114/125 267/229/239
f 247/215/240 249/216/224 264/223/227 263/230/241
f 139/115/66 66/54/66 201/186/66 268/231/66 269/232/66 270/233/66 271/234/66 272/235/66 273/236/66 274/237/66 275/238/66 276/239/66 277/240/66 278/241/66
usemtl MI_Trim_01
f 69/242/66 68/243/66 57/244/66 56/245/66
f 71/246/66 70/247/66 65/248/66 64/249/66
f 68/243/66 72/250/66 58/251/66 57/244/66
f 72/250/66 73/252/66 59/253/66 58/251/66
f 73/252/66 74/254/66 60/255/66 59/253/66
f 74/254/66 75/256/66 61/257/66 60/255/66
f 67/258/66 76/259/66 53/260/66 54/261/66
f 75/256/66 77/262/66 62/263/66 61/257/66
f 76/259/66 78/264/66 55/265/66 53/260/66
f 77/262/66 79/266/66 63/267/66 62/263/66
f 78/264/66 69/242/66 56/245/66 55/265/66
f 79/266/66 71/246/66 64/249/66 63/267/66
f 50/268/55 51/269/61 71/270/66 79/271/66
f 42/272/59 43/273/43 69/274/66 78/275/66
f 49/276/46 50/268/55 79/271/66 77/277/66
f 41/278/52 42/272/59 78/275/66 76/279/66
f 48/280/47 49/276/46 77/277/66 75/281/66
f 40/282/53 41/278/52 76/279/66 67/283/66
f 47/284/63 48/280/47 75/281/66 74/285/66
f 46/286/57 47/284/63 74/285/66 73/287/66
f 45/288/49 46/286/57 73/287/66 72/289/66
f 44/290/42 45/288/49 72/289/66 68/291/66
f 51/269/61 52/292/65 70/293/66 71/270/66
f 43/273/43 44/290/42 68/291/66 69/274/66
f 141/294/66 130/295/66 131/296/66 140/297/66
f 143/298/66 138/299/66 139/300/66 142/301/66
f 140/297/66 131/296/66 132/302/66 144/303/66
f 144/303/66 132/302/66 133/304/66 145/305/66
f 145/305/66 133/304/66 134/306/66 146/307/66
f 146/307/66 134/306/66 135/308/66 147/309/66
f 67/258/66 54/261/66 128/310/66 148/311/66
f 147/309/66 135/308/66 136/312/66 149/313/66
f 148/311/66 128/310/66 129/314/66 150/315/66
f 149/313/66 136/312/66 137/316/66 151/317/66
f 150/315/66 129/314/66 130/295/66 141/294/66
f 151/317/66 137/316/66 138/299/66 143/298/66
f 125/318/115 151/319/66 143/320/66 126/321/121
f 117/322/119 150/323/66 141/324/66 118/325/104
f 124/326/109 149/327/66 151/319/66 125/318/115
f 116/328/113 148/329/66 150/323/66 117/322/119
f 123/330/108 147/331/66 149/327/66 124/326/109
f 40/282/53 67/283/66 148/329/66 116/328/113
f 122/332/123 146/333/66 147/331/66 123/330/108
f 121/334/117 145/335/66 146/333/66 122/332/123
f 120/336/111 144/337/66 145/335/66 121/334/117
f 119/338/105 140/339/66 144/337/66 120/336/111
f 126/321/121 143/320/66 142/340/66 127/341/125
f 118/325/104 141/324/66 140/339/66 119/338/105
f 214/342/66 203/343/66 204/344/66 213/345/66
f 215/346/66 211/347/66 65/248/66 70/247/66
f 213/345/66 204/344/66 205/348/66 216/349/66
f 216/349/66 205/348/66 206/350/66 217/351/66
f 217/351/66 206/350/66 207/352/66 218/353/66
f 218/353/66 207/352/66 208/354/66 219/355/66
f 212/356/66 201/357/66 200/358/66 220/359/66
f 219/355/66 208/354/66 209/360/66 221/361/66
f 220/359/66 200/358/66 202/362/66 222/363/66
f 221/361/66 209/360/66 210/364/66 223/365/66
f 222/363/66 202/362/66 203/343/66 214/342/66
f 223/365/66 210/364/66 211/347/66 215/346/66
f 198/366/177 223/367/66 215/368/66 199/369/183
f 190/370/181 222/371/66 214/372/66 191/373/164
f 197/374/169 221/375/66 223/367/66 198/366/177
f 189/376/175 220/377/66 222/371/66 190/370/181
f 196/378/168 219/379/66 221/375/66 197/374/169
f 188/380/174 212/381/66 220/377/66 189/376/175
f 195/382/185 218/383/66 219/379/66 196/378/168
f 194/384/179 217/385/66 218/383/66 195/382/185
f 193/386/171 216/387/66 217/385/66 194/384/179
f 192/388/165 213/389/66 216/387/66 193/386/171
f 199/369/183 215/368/66 70/293/66 52/292/65
f 191/373/164 214/372/66 213/389/66 192/388/165
f 280/390/66 279/391/66 271/392/66 270/393/66
f 281/394/66 142/301/66 139/300/66 278/395/66
f 279/391/66 282/396/66 272/397/66 271/392/66
f 282/396/66 283/398/66 273/399/66 272/397/66
f 283/398/66 284/400/66 274/401/66 273/399/66
f 284/400/66 285/402/66 275/403/66 274/401/66
f 212/356/66 286/404/66 268/405/66 201/357/66
f 285/402/66 287/406/66 276/407/66 275/403/66
f 286/404/66 288/408/66 269/409/66 268/405/66
f 287/406/66 289/410/66 277/411/66 276/407/66
f 288/408/66 280/390/66 270/393/66 269/409/66
f 289/410/66 281/394/66 278/395/66 277/411/66
f 266/412/233 267/413/239 281/414/66 289/415/66
f 258/416/237 259/417/223 280/418/66 288/419/66
f 265/420/226 266/412/233 289/415/66 287/421/66
f 257/422/231 258/416/237 288/419/66 286/423/66
f 264/424/227 265/420/226 287/421/66 285/425/66
f 188/380/174 257/422/231 286/423/66 212/381/66
f 263/426/241 264/424/227 285/425/66 284/427/66
f 262/428/235 263/426/241 284/427/66 283/429/66
f 261/430/229 262/428/235 283/429/66 282/431/66
f 260/432/222 261/430/229 282/431/66 279/433/66
f 267/413/239 127/341/125 142/340/66 281/414/66
f 259/417/223 260/432/222 279/433/66 280/418/66
