# Blender v3.6.0 OBJ File: 'AllModules_Unreal.blend'
# www.blender.org
mtllib Prop_Fan_Big_Propeller.mtl
o Prop_Fan_Big_Propeller_Cube.063
v -0.033011 0.326890 -0.944126
v 0.122113 0.459302 0.002637
v -0.111147 0.259416 0.002637
v -0.111147 0.259416 -0.944126
v -0.011472 0.301948 -0.944126
v 0.143652 0.434359 0.002637
v -0.089608 0.234474 -0.944126
v -0.089608 0.234473 0.002637
v 0.443475 0.326890 -0.834143
v 0.104434 0.459302 0.063340
v -0.097575 0.259416 -0.053290
v 0.375807 0.259416 -0.873211
v 0.462128 0.301948 -0.823373
v 0.123088 0.434359 0.074109
v 0.394460 0.234474 -0.862441
v -0.078921 0.234473 -0.042520
v 0.801132 0.326890 -0.500651
v 0.058773 0.459302 0.107071
v -0.057857 0.259416 -0.094938
v 0.762064 0.259416 -0.568319
v 0.811902 0.301948 -0.481998
v 0.069542 0.434359 0.125724
v 0.772834 0.234474 -0.549666
v -0.047088 0.234473 -0.076284
v 0.944126 0.326890 -0.033011
v -0.002637 0.459302 0.122113
v -0.002637 0.259416 -0.111147
v 0.944126 0.259416 -0.111147
v 0.944126 0.301948 -0.011472
v -0.002637 0.434359 0.143652
v 0.944126 0.234474 -0.089608
v -0.002637 0.234473 -0.089608
v 0.834143 0.326890 0.443475
v -0.063340 0.459302 0.104434
v 0.053290 0.259416 -0.097575
v 0.873211 0.259416 0.375807
v 0.823373 0.301948 0.462128
v -0.074109 0.434359 0.123088
v 0.862441 0.234474 0.394460
v 0.042520 0.234473 -0.078921
v 0.500651 0.326890 0.801132
v -0.107071 0.459302 0.058773
v 0.094938 0.259416 -0.057857
v 0.568319 0.259416 0.762064
v 0.481998 0.301948 0.811902
v -0.125724 0.434359 0.069542
v 0.549666 0.234474 0.772834
v 0.076284 0.234473 -0.047088
v 0.033011 0.326890 0.944126
v -0.122113 0.459302 -0.002637
v 0.111147 0.259416 -0.002637
v 0.111147 0.259416 0.944126
v 0.011472 0.301948 0.944126
v -0.143652 0.434359 -0.002637
v 0.089608 0.234474 0.944126
v 0.089608 0.234473 -0.002637
v -0.443475 0.326890 0.834143
v -0.104434 0.459302 -0.063340
v 0.097575 0.259416 0.053290
v -0.375807 0.259416 0.873211
v -0.462128 0.301948 0.823373
v -0.123088 0.434359 -0.074109
v -0.394460 0.234474 0.862441
v 0.078921 0.234473 0.042520
v -0.801132 0.326890 0.500651
v -0.058773 0.459302 -0.107071
v 0.057857 0.259416 0.094938
v -0.762064 0.259416 0.568319
v -0.811902 0.301948 0.481998
v -0.069542 0.434359 -0.125724
v -0.772834 0.234474 0.549666
v 0.047088 0.234473 0.076284
v -0.944126 0.326890 0.033011
v 0.002637 0.459302 -0.122113
v 0.002637 0.259416 0.111147
v -0.944126 0.259416 0.111147
v -0.944126 0.301948 0.011472
v 0.002637 0.434359 -0.143652
v -0.944126 0.234474 0.089608
v 0.002637 0.234473 0.089608
v -0.834143 0.326890 -0.443475
v 0.063340 0.459302 -0.104434
v -0.053290 0.259416 0.097575
v -0.873211 0.259416 -0.375807
v -0.823373 0.301948 -0.462128
v 0.074109 0.434359 -0.123088
v -0.862441 0.234474 -0.394460
v -0.042520 0.234473 0.078921
v -0.500651 0.326890 -0.801132
v 0.107071 0.459302 -0.058773
v -0.094938 0.259416 0.057857
v -0.568319 0.259416 -0.762064
v -0.481998 0.301948 -0.811902
v 0.125724 0.434359 -0.069542
v -0.549666 0.234474 -0.772834
v -0.076284 0.234473 0.047088
v 0.000000 -0.016821 -0.353842
v 0.109343 -0.016821 -0.336524
v 0.207983 -0.016821 -0.286264
v 0.286264 -0.016821 -0.207983
v 0.336524 -0.016821 -0.109343
v 0.353842 -0.016821 0.000000
v 0.336524 -0.016821 0.109343
v 0.286264 -0.016821 0.207983
v 0.207983 -0.016821 0.286264
v 0.109343 -0.016821 0.336524
v 0.000000 -0.016821 0.353842
v -0.109343 -0.016821 0.336524
v -0.207983 -0.016821 0.286264
v -0.286264 -0.016821 0.207983
v -0.336524 -0.016821 0.109343
v -0.353842 -0.016821 0.000000
v -0.336524 -0.016821 -0.109343
v -0.286264 -0.016821 -0.207983
v -0.207983 -0.016821 -0.286264
v -0.109343 -0.016821 -0.336524
v -0.000000 0.472802 -0.167601
v -0.000000 0.449063 -0.216833
v 0.051791 0.472802 -0.159398
v 0.067005 0.449063 -0.206221
v 0.098513 0.472802 -0.135592
v 0.127452 0.449063 -0.175422
v 0.135592 0.472802 -0.098513
v 0.175422 0.449063 -0.127452
v 0.159398 0.472802 -0.051791
v 0.206221 0.449063 -0.067005
v 0.167601 0.472802 -0.000000
v 0.216833 0.449063 -0.000000
v 0.159398 0.472802 0.051791
v 0.206221 0.449063 0.067005
v 0.135592 0.472802 0.098513
v 0.175422 0.449063 0.127452
v 0.098513 0.472802 0.135592
v 0.127452 0.449063 0.175422
v 0.051791 0.472802 0.159398
v 0.067005 0.449063 0.206221
v -0.000000 0.472802 0.167601
v -0.000000 0.449063 0.216833
v -0.051791 0.472802 0.159398
v -0.067005 0.449063 0.206221
v -0.098513 0.472802 0.135592
v -0.127452 0.449063 0.175422
v -0.135592 0.472802 0.098513
v -0.175422 0.449063 0.127452
v -0.159398 0.472802 0.051791
v -0.206221 0.449063 0.067005
v -0.167601 0.472802 -0.000000
v -0.216833 0.449063 -0.000000
v -0.159398 0.472802 -0.051791
v -0.206221 0.449063 -0.067005
v -0.135592 0.472802 -0.098513
v -0.175422 0.449063 -0.127452
v -0.098513 0.472802 -0.135592
v -0.127452 0.449063 -0.175422
v -0.051791 0.472802 -0.159398
v -0.067005 0.449063 -0.206221
vt 0.228916 0.533815
vt 0.228916 0.570388
vt -0.102276 0.570388
vt -0.102276 0.535463
vt 0.228916 0.533815
vt -0.102276 0.535463
vt -0.102276 0.570388
vt 0.228916 0.570388
vt -0.310795 0.983749
vt -0.310795 0.954239
vt -0.432437 0.954239
vt -0.432437 0.983749
vt 1.432436 0.983749
vt 1.432436 0.954239
vt 0.519247 0.954239
vt 0.519247 0.983750
vt 0.437636 0.983750
vt 0.437636 0.954239
vt 0.228916 0.533815
vt 0.228916 0.570388
vt -0.102276 0.570388
vt -0.102276 0.535463
vt 0.228916 0.533815
vt -0.102276 0.535463
vt -0.102276 0.570388
vt 0.228916 0.570388
vt -0.310795 0.983749
vt -0.310795 0.954239
vt -0.432437 0.954239
vt -0.432437 0.983749
vt 1.432436 0.983749
vt 1.432436 0.954239
vt 0.519247 0.954239
vt 0.519247 0.983750
vt 0.437636 0.983750
vt 0.437636 0.954239
vt 0.228916 0.533815
vt 0.228916 0.570388
vt -0.102276 0.570388
vt -0.102276 0.535463
vt 0.228916 0.533815
vt -0.102276 0.535463
vt -0.102276 0.570388
vt 0.228916 0.570388
vt -0.310795 0.983749
vt -0.310795 0.954239
vt -0.432437 0.954239
vt -0.432437 0.983749
vt 1.432436 0.983749
vt 1.432436 0.954239
vt 0.519247 0.954239
vt 0.519247 0.983750
vt 0.437636 0.983750
vt 0.437636 0.954239
vt 0.228916 0.533815
vt 0.228916 0.570388
vt -0.102276 0.570388
vt -0.102276 0.535463
vt 0.228916 0.533815
vt -0.102276 0.535463
vt -0.102276 0.570388
vt 0.228916 0.570388
vt -0.310795 0.983749
vt -0.310795 0.954239
vt -0.432437 0.954239
vt -0.432437 0.983749
vt 1.432436 0.983749
vt 1.432436 0.954239
vt 0.519247 0.954239
vt 0.519247 0.983750
vt 0.437636 0.983750
vt 0.437636 0.954239
vt 0.228916 0.533815
vt 0.228916 0.570388
vt -0.102276 0.570388
vt -0.102276 0.535463
vt 0.228916 0.533815
vt -0.102276 0.535463
vt -0.102276 0.570388
vt 0.228916 0.570388
vt -0.310795 0.983749
vt -0.310795 0.954239
vt -0.432437 0.954239
vt -0.432437 0.983749
vt 1.432436 0.983749
vt 1.432436 0.954239
vt 0.519247 0.954239
vt 0.519247 0.983750
vt 0.437636 0.983750
vt 0.437636 0.954239
vt 0.228916 0.533815
vt 0.228916 0.570388
vt -0.102276 0.570388
vt -0.102276 0.535463
vt 0.228916 0.533815
vt -0.102276 0.535463
vt -0.102276 0.570388
vt 0.228916 0.570388
vt -0.310795 0.983749
vt -0.310795 0.954239
vt -0.432437 0.954239
vt -0.432437 0.983749
vt 1.432436 0.983749
vt 1.432436 0.954239
vt 0.519247 0.954239
vt 0.519247 0.983750
vt 0.437636 0.983750
vt 0.437636 0.954239
vt 0.228916 0.533815
vt 0.228916 0.570388
vt -0.102276 0.570388
vt -0.102276 0.535463
vt 0.228916 0.533815
vt -0.102276 0.535463
vt -0.102276 0.570388
vt 0.228916 0.570388
vt -0.310795 0.983749
vt -0.310795 0.954239
vt -0.432437 0.954239
vt -0.432437 0.983749
vt 1.432436 0.983749
vt 1.432436 0.954239
vt 0.519247 0.954239
vt 0.519247 0.983750
vt 0.437636 0.983750
vt 0.437636 0.954239
vt 0.228916 0.533815
vt 0.228916 0.570388
vt -0.102276 0.570388
vt -0.102276 0.535463
vt 0.228916 0.533815
vt -0.102276 0.535463
vt -0.102276 0.570388
vt 0.228916 0.570388
vt -0.310795 0.983749
vt -0.310795 0.954239
vt -0.432437 0.954239
vt -0.432437 0.983749
vt 1.432436 0.983749
vt 1.432436 0.954239
vt 0.519247 0.954239
vt 0.519247 0.983750
vt 0.437636 0.983750
vt 0.437636 0.954239
vt 0.228916 0.533815
vt 0.228916 0.570388
vt -0.102276 0.570388
vt -0.102276 0.535463
vt 0.228916 0.533815
vt -0.102276 0.535463
vt -0.102276 0.570388
vt 0.228916 0.570388
vt -0.310795 0.983749
vt -0.310795 0.954239
vt -0.432437 0.954239
vt -0.432437 0.983749
vt 1.432436 0.983749
vt 1.432436 0.954239
vt 0.519247 0.954239
vt 0.519247 0.983750
vt 0.437636 0.983750
vt 0.437636 0.954239
vt 0.228916 0.533815
vt 0.228916 0.570388
vt -0.102276 0.570388
vt -0.102276 0.535463
vt 0.228916 0.533815
vt -0.102276 0.535463
vt -0.102276 0.570388
vt 0.228916 0.570388
vt -0.310795 0.983749
vt -0.310795 0.954239
vt -0.432437 0.954239
vt -0.432437 0.983749
vt 1.432436 0.983749
vt 1.432436 0.954239
vt 0.519247 0.954239
vt 0.519247 0.983750
vt 0.437636 0.983750
vt 0.437636 0.954239
vt 0.228916 0.533815
vt 0.228916 0.570388
vt -0.102276 0.570388
vt -0.102276 0.535463
vt 0.228916 0.533815
vt -0.102276 0.535463
vt -0.102276 0.570388
vt 0.228916 0.570388
vt -0.310795 0.983749
vt -0.310795 0.954239
vt -0.432437 0.954239
vt -0.432437 0.983749
vt 1.432436 0.983749
vt 1.432436 0.954239
vt 0.519247 0.954239
vt 0.519247 0.983750
vt 0.437636 0.983750
vt 0.437636 0.954239
vt 0.228916 0.533815
vt 0.228916 0.570388
vt -0.102276 0.570388
vt -0.102276 0.535463
vt 0.228916 0.533815
vt -0.102276 0.535463
vt -0.102276 0.570388
vt 0.228916 0.570388
vt -0.310795 0.983749
vt -0.310795 0.954239
vt -0.432437 0.954239
vt -0.432437 0.983749
vt 1.432436 0.983749
vt 1.432436 0.954239
vt 0.519247 0.954239
vt 0.519247 0.983750
vt 0.437636 0.983750
vt 0.437636 0.954239
vt 0.347407 0.771159
vt 0.347407 0.878777
vt 0.330437 0.878777
vt 0.330437 0.771159
vt 0.635909 0.771159
vt 0.635909 0.878777
vt 0.618938 0.878777
vt 0.618938 0.771159
vt 0.601967 0.878777
vt 0.601967 0.771159
vt 0.584997 0.878777
vt 0.584997 0.771159
vt 0.568026 0.878777
vt 0.568026 0.771159
vt 0.551055 0.878777
vt 0.551055 0.771159
vt 0.534085 0.878777
vt 0.534085 0.771159
vt 0.517114 0.878777
vt 0.517114 0.771159
vt 0.500143 0.878777
vt 0.500143 0.771159
vt 0.483173 0.878777
vt 0.483173 0.771159
vt 0.466202 0.878777
vt 0.466202 0.771159
vt 0.449231 0.878777
vt 0.449231 0.771159
vt 0.432261 0.878777
vt 0.432261 0.771159
vt 0.415290 0.878777
vt 0.415290 0.771159
vt 0.398319 0.878777
vt 0.398319 0.771159
vt 0.381349 0.878777
vt 0.381349 0.771159
vt 0.364378 0.878777
vt 0.364378 0.771159
vt 0.669850 0.771159
vt 0.669850 0.878777
vt 0.652879 0.878777
vt 0.652879 0.771159
vt 0.473247 0.895854
vt 0.456137 0.883423
vt 0.443706 0.866313
vt 0.437170 0.846199
vt 0.437170 0.825050
vt 0.443706 0.804935
vt 0.456137 0.787825
vt 0.473247 0.775394
vt 0.493362 0.768858
vt 0.514511 0.768858
vt 0.534625 0.775394
vt 0.551735 0.787825
vt 0.564167 0.804935
vt 0.570702 0.825049
vt 0.570702 0.846199
vt 0.564167 0.866313
vt 0.551736 0.883423
vt 0.534625 0.895854
vt 0.514511 0.902390
vt 0.493362 0.902390
vt 0.408538 0.938138
vt 0.500000 0.938138
vt 0.500000 0.999850
vt 0.408538 0.999850
vt 0.317077 0.938138
vt 0.317077 0.999850
vt 0.225616 0.938138
vt 0.225616 0.999850
vt 0.134154 0.938138
vt 0.134154 0.999850
vt 0.042693 0.938138
vt 0.042693 0.999850
vt -0.048768 0.938138
vt -0.048768 0.999850
vt -0.140230 0.938138
vt -0.140230 0.999850
vt -0.231691 0.938138
vt -0.231691 0.999850
vt -0.323152 0.938138
vt -0.323152 0.999850
vt -0.414614 0.938138
vt -0.414614 0.999850
vt 1.323152 0.938138
vt 1.414614 0.938138
vt 1.414614 0.999850
vt 1.323152 0.999850
vt 1.231691 0.938138
vt 1.231691 0.999850
vt 1.140230 0.938138
vt 1.140230 0.999850
vt 1.048768 0.938138
vt 1.048768 0.999850
vt 0.957307 0.938138
vt 0.957307 0.999850
vt 0.865845 0.938138
vt 0.865845 0.999850
vt 0.774384 0.938138
vt 0.774384 0.999850
vt 0.682922 0.938138
vt 0.682922 0.999850
vt 0.591461 0.938138
vt 0.591461 0.999850
vn -0.6514 0.7587 0.0003
vn 0.6514 -0.7587 -0.0003
vn -0.0000 0.0000 1.0000
vn 0.7399 0.6389 -0.2106
vn -0.7569 -0.6536 -0.0000
vn -0.0000 0.0000 -1.0000
vn -0.5643 0.7587 -0.3254
vn 0.5643 -0.7587 0.3254
vn -0.5000 0.0000 0.8660
vn 0.7461 0.6389 0.1876
vn -0.6555 -0.6536 -0.3784
vn 0.5000 -0.0000 -0.8660
vn -0.3260 0.7587 -0.5640
vn 0.3260 -0.7587 0.5640
vn -0.8660 0.0000 0.5000
vn 0.5523 0.6389 0.5355
vn -0.3784 -0.6536 -0.6555
vn 0.8660 -0.0000 -0.5000
vn -0.0003 0.7587 -0.6514
vn 0.0003 -0.7587 0.6514
vn -1.0000 0.0000 -0.0000
vn 0.2106 0.6389 0.7399
vn 0.0000 -0.6536 -0.7569
vn 1.0000 0.0000 0.0000
vn 0.3254 0.7587 -0.5643
vn -0.3254 -0.7587 0.5643
vn -0.8660 0.0000 -0.5000
vn -0.1876 0.6389 0.7461
vn 0.3784 -0.6536 -0.6555
vn 0.8660 0.0000 0.5000
vn 0.5640 0.7587 -0.3260
vn -0.5640 -0.7587 0.3260
vn -0.5000 0.0000 -0.8660
vn -0.5355 0.6389 0.5523
vn 0.6555 -0.6536 -0.3784
vn 0.5000 0.0000 0.8660
vn 0.6514 0.7587 -0.0003
vn -0.6514 -0.7587 0.0003
vn -0.7399 0.6389 0.2106
vn 0.7569 -0.6536 0.0000
vn 0.5643 0.7587 0.3254
vn -0.5643 -0.7587 -0.3254
vn -0.7461 0.6389 -0.1876
vn 0.6555 -0.6536 0.3784
vn 0.3260 0.7587 0.5640
vn -0.3260 -0.7587 -0.5640
vn -0.5523 0.6389 -0.5355
vn 0.3784 -0.6536 0.6555
vn 0.0003 0.7587 0.6514
vn -0.0003 -0.7587 -0.6514
vn -0.2106 0.6389 -0.7399
vn -0.0000 -0.6536 0.7569
vn -0.3254 0.7587 0.5643
vn 0.3254 -0.7587 -0.5643
vn 0.1876 0.6389 -0.7461
vn -0.3784 -0.6536 0.6555
vn -0.5640 0.7587 0.3260
vn 0.5640 -0.7587 -0.3260
vn 0.5355 0.6389 -0.5523
vn -0.6555 -0.6536 0.3784
vn -0.2965 0.2821 -0.9124
vn 0.0000 0.2821 -0.9594
vn 0.5639 0.2821 -0.7762
vn 0.7762 0.2821 -0.5639
vn 0.9124 0.2821 -0.2965
vn 0.9594 0.2821 0.0000
vn 0.9124 0.2821 0.2965
vn 0.7762 0.2821 0.5639
vn 0.5639 0.2821 0.7762
vn 0.2965 0.2821 0.9124
vn 0.0000 0.2821 0.9594
vn -0.2965 0.2821 0.9124
vn -0.5639 0.2821 0.7762
vn -0.7762 0.2821 0.5639
vn -0.9124 0.2821 0.2965
vn -0.9594 0.2821 0.0000
vn -0.9124 0.2821 -0.2965
vn -0.7762 0.2821 -0.5639
vn -0.5639 0.2821 -0.7762
vn 0.2965 0.2821 -0.9124
vn 0.0000 1.0000 -0.0000
vn 0.1342 0.9008 -0.4131
vn -0.0000 0.9008 -0.4343
vn 0.2553 0.9008 -0.3514
vn 0.3514 0.9008 -0.2553
vn 0.4131 0.9008 -0.1342
vn 0.4343 0.9008 0.0000
vn 0.4131 0.9008 0.1342
vn 0.3514 0.9008 0.2553
vn 0.2553 0.9008 0.3514
vn 0.1342 0.9008 0.4131
vn 0.0000 0.9008 0.4343
vn -0.1342 0.9008 0.4131
vn -0.2553 0.9008 0.3514
vn -0.3514 0.9008 0.2553
vn -0.4131 0.9008 0.1342
vn -0.4343 0.9008 -0.0000
vn -0.4131 0.9008 -0.1342
vn -0.3514 0.9008 -0.2553
vn -0.2553 0.9008 -0.3514
vn -0.1342 0.9008 -0.4131
usemtl MI_Trim_01
s off
f 1/1/1 4/2/1 3/3/1 2/4/1
f 5/5/2 6/6/2 8/7/2 7/8/2
f 3/9/3 8/10/3 6/11/3 2/12/3
f 2/13/4 6/14/4 5/15/4 1/16/4
f 4/17/5 7/18/5 8/10/5 3/9/5
f 1/16/6 5/15/6 7/18/6 4/17/6
f 9/19/7 12/20/7 11/21/7 10/22/7
f 13/23/8 14/24/8 16/25/8 15/26/8
f 11/27/9 16/28/9 14/29/9 10/30/9
f 10/31/10 14/32/10 13/33/10 9/34/10
f 12/35/11 15/36/11 16/28/11 11/27/11
f 9/34/12 13/33/12 15/36/12 12/35/12
f 17/37/13 20/38/13 19/39/13 18/40/13
f 21/41/14 22/42/14 24/43/14 23/44/14
f 19/45/15 24/46/15 22/47/15 18/48/15
f 18/49/16 22/50/16 21/51/16 17/52/16
f 20/53/17 23/54/17 24/46/17 19/45/17
f 17/52/18 21/51/18 23/54/18 20/53/18
f 25/55/19 28/56/19 27/57/19 26/58/19
f 29/59/20 30/60/20 32/61/20 31/62/20
f 27/63/21 32/64/21 30/65/21 26/66/21
f 26/67/22 30/68/22 29/69/22 25/70/22
f 28/71/23 31/72/23 32/64/23 27/63/23
f 25/70/24 29/69/24 31/72/24 28/71/24
f 33/73/25 36/74/25 35/75/25 34/76/25
f 37/77/26 38/78/26 40/79/26 39/80/26
f 35/81/27 40/82/27 38/83/27 34/84/27
f 34/85/28 38/86/28 37/87/28 33/88/28
f 36/89/29 39/90/29 40/82/29 35/81/29
f 33/88/30 37/87/30 39/90/30 36/89/30
f 41/91/31 44/92/31 43/93/31 42/94/31
f 45/95/32 46/96/32 48/97/32 47/98/32
f 43/99/33 48/100/33 46/101/33 42/102/33
f 42/103/34 46/104/34 45/105/34 41/106/34
f 44/107/35 47/108/35 48/100/35 43/99/35
f 41/106/36 45/105/36 47/108/36 44/107/36
f 49/109/37 52/110/37 51/111/37 50/112/37
f 53/113/38 54/114/38 56/115/38 55/116/38
f 51/117/6 56/118/6 54/119/6 50/120/6
f 50/121/39 54/122/39 53/123/39 49/124/39
f 52/125/40 55/126/40 56/118/40 51/117/40
f 49/124/3 53/123/3 55/126/3 52/125/3
f 57/127/41 60/128/41 59/129/41 58/130/41
f 61/131/42 62/132/42 64/133/42 63/134/42
f 59/135/12 64/136/12 62/137/12 58/138/12
f 58/139/43 62/140/43 61/141/43 57/142/43
f 60/143/44 63/144/44 64/136/44 59/135/44
f 57/142/9 61/141/9 63/144/9 60/143/9
f 65/145/45 68/146/45 67/147/45 66/148/45
f 69/149/46 70/150/46 72/151/46 71/152/46
f 67/153/18 72/154/18 70/155/18 66/156/18
f 66/157/47 70/158/47 69/159/47 65/160/47
f 68/161/48 71/162/48 72/154/48 67/153/48
f 65/160/15 69/159/15 71/162/15 68/161/15
f 73/163/49 76/164/49 75/165/49 74/166/49
f 77/167/50 78/168/50 80/169/50 79/170/50
f 75/171/24 80/172/24 78/173/24 74/174/24
f 74/175/51 78/176/51 77/177/51 73/178/51
f 76/179/52 79/180/52 80/172/52 75/171/52
f 73/178/21 77/177/21 79/180/21 76/179/21
f 81/181/53 84/182/53 83/183/53 82/184/53
f 85/185/54 86/186/54 88/187/54 87/188/54
f 83/189/30 88/190/30 86/191/30 82/192/30
f 82/193/55 86/194/55 85/195/55 81/196/55
f 84/197/56 87/198/56 88/190/56 83/189/56
f 81/196/27 85/195/27 87/198/27 84/197/27
f 89/199/57 92/200/57 91/201/57 90/202/57
f 93/203/58 94/204/58 96/205/58 95/206/58
f 91/207/36 96/208/36 94/209/36 90/210/36
f 90/211/59 94/212/59 93/213/59 89/214/59
f 92/215/60 95/216/60 96/208/60 91/207/60
f 89/214/33 93/213/33 95/216/33 92/215/33
s 1
f 116/217/61 156/218/61 118/219/62 97/220/62
f 99/221/63 122/222/63 124/223/64 100/224/64
f 100/224/64 124/223/64 126/225/65 101/226/65
f 101/226/65 126/225/65 128/227/66 102/228/66
f 102/228/66 128/227/66 130/229/67 103/230/67
f 103/230/67 130/229/67 132/231/68 104/232/68
f 104/232/68 132/231/68 134/233/69 105/234/69
f 105/234/69 134/233/69 136/235/70 106/236/70
f 106/236/70 136/235/70 138/237/71 107/238/71
f 107/238/71 138/237/71 140/239/72 108/240/72
f 108/240/72 140/239/72 142/241/73 109/242/73
f 109/242/73 142/241/73 144/243/74 110/244/74
f 110/244/74 144/243/74 146/245/75 111/246/75
f 111/246/75 146/245/75 148/247/76 112/248/76
f 112/248/76 148/247/76 150/249/77 113/250/77
f 113/250/77 150/249/77 152/251/78 114/252/78
f 114/252/78 152/251/78 154/253/79 115/254/79
f 115/254/79 154/253/79 156/218/61 116/217/61
f 97/255/62 118/256/62 120/257/80 98/258/80
f 98/258/80 120/257/80 122/222/63 99/221/63
f 119/259/81 117/260/81 155/261/81 153/262/81 151/263/81 149/264/81 147/265/81 145/266/81 143/267/81 141/268/81 139/269/81 137/270/81 135/271/81 133/272/81 131/273/81 129/274/81 127/275/81 125/276/81 123/277/81 121/278/81
usemtl MI_Trim_02
f 120/279/82 118/280/83 117/281/83 119/282/82
f 122/283/84 120/279/82 119/282/82 121/284/84
f 124/285/85 122/283/84 121/284/84 123/286/85
f 126/287/86 124/285/85 123/286/85 125/288/86
f 128/289/87 126/287/86 125/288/86 127/290/87
f 130/291/88 128/289/87 127/290/87 129/292/88
f 132/293/89 130/291/88 129/292/88 131/294/89
f 134/295/90 132/293/89 131/294/89 133/296/90
f 136/297/91 134/295/90 133/296/90 135/298/91
f 138/299/92 136/297/91 135/298/91 137/300/92
f 140/301/93 138/302/92 137/303/92 139/304/93
f 142/305/94 140/301/93 139/304/93 141/306/94
f 144/307/95 142/305/94 141/306/94 143/308/95
f 146/309/96 144/307/95 143/308/95 145/310/96
f 148/311/97 146/309/96 145/310/96 147/312/97
f 150/313/98 148/311/97 147/312/97 149/314/98
f 152/315/99 150/313/98 149/314/98 151/316/99
f 154/317/100 152/315/99 151/316/99 153/318/100
f 156/319/101 154/317/100 153/318/100 155/320/101
f 118/280/83 156/319/101 155/320/101 117/281/83
