# Blender v3.6.0 OBJ File: 'AllModules_Unreal.blend'
# www.blender.org
mtllib Prop_Pipe_Small_Straight.mtl
o Prop_Pipe_Small_Straight_Cylinder.004
v 0.000000 -0.062500 0.000000
v 0.031250 -0.054127 -0.000000
v 0.054127 -0.031250 -0.000000
v 0.062500 0.000000 -0.000000
v 0.054127 0.031250 -0.000000
v 0.031250 0.054127 -0.000000
v -0.000000 0.062500 0.000000
v -0.000000 -0.069997 -2.000000
v 0.034998 -0.060619 -2.000000
v 0.060619 -0.034999 -2.000000
v 0.069997 0.000000 -2.000000
v 0.060619 0.034999 -2.000000
v 0.034998 0.060619 -2.000000
v -0.000000 0.069997 -2.000000
v -0.000000 -0.062500 -1.757893
v 0.031250 -0.054127 -1.757893
v 0.054126 -0.031250 -1.757893
v 0.062500 0.000000 -1.757893
v 0.054126 0.031250 -1.757893
v 0.031250 0.054127 -1.757893
v -0.000000 0.062500 -1.757893
v -0.000000 -0.069997 -1.769203
v 0.034998 -0.060619 -1.769203
v 0.060619 -0.034999 -1.769203
v 0.069997 0.000000 -1.769203
v 0.060619 0.034999 -1.769203
v 0.034998 0.060619 -1.769203
v -0.000000 0.069997 -1.769203
v -0.000000 -0.062500 -1.481200
v 0.031250 -0.054127 -1.481200
v 0.054126 -0.031250 -1.481200
v 0.062500 0.000000 -1.481200
v 0.054126 0.031250 -1.481200
v 0.031250 0.054127 -1.481200
v -0.000000 0.062500 -1.481200
v -0.000000 -0.062500 -1.556678
v 0.031250 -0.054127 -1.556678
v 0.054126 -0.031250 -1.556678
v 0.062500 0.000000 -1.556678
v 0.054126 0.031250 -1.556678
v 0.031250 0.054127 -1.556678
v -0.000000 0.062500 -1.556678
v -0.000000 -0.067741 -1.548625
v -0.000000 -0.067741 -1.489253
v 0.033870 -0.058666 -1.548625
v 0.033870 -0.058666 -1.489253
v 0.058665 -0.033871 -1.548625
v 0.058665 -0.033871 -1.489253
v 0.067741 0.000000 -1.548625
v 0.067741 0.000000 -1.489253
v 0.058665 0.033871 -1.548625
v 0.058665 0.033871 -1.489253
v 0.033870 0.058666 -1.548625
v 0.033870 0.058666 -1.489253
v -0.000000 0.067741 -1.548625
v -0.000000 0.067741 -1.489253
v -0.031250 -0.054127 0.000000
v -0.054127 -0.031250 0.000000
v -0.062500 -0.000000 0.000000
v -0.054127 0.031250 0.000000
v -0.031250 0.054127 0.000000
v -0.034999 -0.060619 -2.000000
v -0.060620 -0.034999 -2.000000
v -0.069997 -0.000000 -2.000000
v -0.060620 0.034999 -2.000000
v -0.034999 0.060619 -2.000000
v -0.031250 -0.054127 -1.757893
v -0.054127 -0.031250 -1.757893
v -0.062500 -0.000000 -1.757893
v -0.054127 0.031250 -1.757893
v -0.031250 0.054127 -1.757893
v -0.034999 -0.060619 -1.769203
v -0.060620 -0.034999 -1.769203
v -0.069997 -0.000000 -1.769203
v -0.060620 0.034999 -1.769203
v -0.034999 0.060619 -1.769203
v -0.031250 -0.054127 -1.481200
v -0.054127 -0.031250 -1.481200
v -0.062500 -0.000000 -1.481200
v -0.054127 0.031250 -1.481200
v -0.031250 0.054127 -1.481200
v -0.031250 -0.054127 -1.556678
v -0.054127 -0.031250 -1.556678
v -0.062500 -0.000000 -1.556678
v -0.054127 0.031250 -1.556678
v -0.031250 0.054127 -1.556678
v -0.033871 -0.058666 -1.548625
v -0.033871 -0.058666 -1.489253
v -0.058666 -0.033871 -1.548625
v -0.058666 -0.033871 -1.489253
v -0.067741 -0.000000 -1.548625
v -0.067741 -0.000000 -1.489253
v -0.058666 0.033871 -1.548625
v -0.058666 0.033871 -1.489253
v -0.033871 0.058666 -1.548625
v -0.033871 0.058666 -1.489253
v 0.000000 -0.069997 2.000000
v 0.034999 -0.060619 2.000000
v 0.060620 -0.034999 2.000000
v 0.069997 0.000000 2.000000
v 0.060620 0.034999 2.000000
v 0.034999 0.060619 2.000000
v 0.000000 0.069997 2.000000
v 0.000000 -0.062500 1.757893
v 0.031250 -0.054127 1.757893
v 0.054127 -0.031250 1.757893
v 0.062500 0.000000 1.757893
v 0.054127 0.031250 1.757893
v 0.031250 0.054127 1.757893
v 0.000000 0.062500 1.757893
v 0.000000 -0.069997 1.769203
v 0.034999 -0.060619 1.769203
v 0.060620 -0.034999 1.769203
v 0.069997 0.000000 1.769203
v 0.060620 0.034999 1.769203
v 0.034999 0.060619 1.769203
v 0.000000 0.069997 1.769203
v 0.000000 -0.062500 1.481200
v 0.031250 -0.054127 1.481200
v 0.054127 -0.031250 1.481200
v 0.062500 0.000000 1.481200
v 0.054127 0.031250 1.481200
v 0.031250 0.054127 1.481200
v 0.000000 0.062500 1.481200
v 0.000000 -0.062500 1.556678
v 0.031250 -0.054127 1.556678
v 0.054127 -0.031250 1.556678
v 0.062500 0.000000 1.556678
v 0.054127 0.031250 1.556678
v 0.031250 0.054127 1.556678
v 0.000000 0.062500 1.556678
v 0.000000 -0.067741 1.548625
v 0.000000 -0.067741 1.489253
v 0.033871 -0.058666 1.548625
v 0.033871 -0.058666 1.489253
v 0.058666 -0.033871 1.548625
v 0.058666 -0.033871 1.489253
v 0.067741 0.000000 1.548625
v 0.067741 0.000000 1.489253
v 0.058666 0.033871 1.548625
v 0.058666 0.033871 1.489253
v 0.033871 0.058666 1.548625
v 0.033871 0.058666 1.489253
v 0.000000 0.067741 1.548625
v 0.000000 0.067741 1.489253
v -0.034998 -0.060619 2.000000
v -0.060619 -0.034999 2.000000
v -0.069997 -0.000000 2.000000
v -0.060619 0.034999 2.000000
v -0.034998 0.060619 2.000000
v -0.031250 -0.054127 1.757893
v -0.054126 -0.031250 1.757893
v -0.062500 -0.000000 1.757893
v -0.054126 0.031250 1.757893
v -0.031250 0.054127 1.757893
v -0.034998 -0.060619 1.769203
v -0.060619 -0.034999 1.769203
v -0.069997 -0.000000 1.769203
v -0.060619 0.034999 1.769203
v -0.034998 0.060619 1.769203
v -0.031250 -0.054127 1.481200
v -0.054126 -0.031250 1.481200
v -0.062500 -0.000000 1.481200
v -0.054126 0.031250 1.481200
v -0.031250 0.054127 1.481200
v -0.031250 -0.054127 1.556678
v -0.054126 -0.031250 1.556678
v -0.062500 -0.000000 1.556678
v -0.054126 0.031250 1.556678
v -0.031250 0.054127 1.556678
v -0.033870 -0.058666 1.548625
v -0.033870 -0.058666 1.489253
v -0.058665 -0.033871 1.548625
v -0.058665 -0.033871 1.489253
v -0.067741 -0.000000 1.548625
v -0.067741 -0.000000 1.489253
v -0.058665 0.033871 1.548625
v -0.058665 0.033871 1.489253
v -0.033870 0.058666 1.548625
v -0.033870 0.058666 1.489253
vt 0.429516 0.293475
vt 0.429516 0.483608
vt 0.397147 0.483608
vt 0.397147 0.293475
vt 0.461886 0.293475
vt 0.461886 0.483608
vt 0.494255 0.293475
vt 0.494255 0.483608
vt 0.526625 0.293475
vt 0.526625 0.483608
vt 0.558994 0.293475
vt 0.558994 0.483608
vt 0.591364 0.293475
vt 0.591363 0.483608
vt 0.180689 0.590478
vt 0.744230 0.590478
vt 0.744230 0.602610
vt 0.180689 0.602611
vt 0.180689 0.578347
vt 0.744230 0.578347
vt 0.180689 0.566215
vt 0.744230 0.566215
vt 0.180689 0.554083
vt 0.744230 0.554083
vt 0.180689 0.541951
vt 0.744230 0.541951
vt 0.180689 0.529819
vt 0.744230 0.529819
vt 0.409955 0.965938
vt 0.454088 0.965938
vt 0.454088 0.970938
vt 0.409955 0.970938
vt 0.409955 0.998262
vt 0.365822 0.998262
vt 0.365822 0.995137
vt 0.409955 0.995137
vt 0.498221 0.965938
vt 0.498221 0.970938
vt 0.454088 0.998262
vt 0.454088 0.995137
vt 0.542353 0.965938
vt 0.542353 0.970938
vt 0.498221 0.998262
vt 0.498221 0.995137
vt 0.586486 0.965938
vt 0.586486 0.970938
vt 0.542353 0.998262
vt 0.542353 0.995137
vt 0.586486 0.995137
vt 0.630619 0.970938
vt 0.630619 0.995137
vt 0.365822 0.970938
vt 0.365822 0.965938
vt 0.630619 0.998262
vt 0.586486 0.998262
vt 0.630619 0.965938
vt 0.429516 0.293475
vt 0.429516 0.483608
vt 0.461886 0.293475
vt 0.461886 0.483608
vt 0.494255 0.293475
vt 0.494255 0.483608
vt 0.526625 0.293475
vt 0.526625 0.483608
vt 0.558994 0.293475
vt 0.558994 0.483608
vt 0.180689 0.590478
vt 0.744230 0.590478
vt 0.180689 0.578347
vt 0.744230 0.578347
vt 0.180689 0.566215
vt 0.744230 0.566215
vt 0.180689 0.554083
vt 0.744230 0.554083
vt 0.180689 0.541951
vt 0.744230 0.541951
vt 0.409955 0.965938
vt 0.409955 0.970938
vt 0.454088 0.970938
vt 0.454088 0.965938
vt 0.409955 0.998262
vt 0.409955 0.995137
vt 0.498221 0.970938
vt 0.498221 0.965938
vt 0.454088 0.998262
vt 0.454088 0.995137
vt 0.542353 0.970938
vt 0.542353 0.965938
vt 0.498221 0.998262
vt 0.498221 0.995137
vt 0.586486 0.970938
vt 0.586486 0.965938
vt 0.542353 0.998262
vt 0.542353 0.995137
vt 0.586486 0.995137
vt 0.586486 0.998262
vt 0.429516 0.293475
vt 0.397147 0.293475
vt 0.397147 0.483608
vt 0.429516 0.483608
vt 0.461886 0.293475
vt 0.461886 0.483608
vt 0.494255 0.293475
vt 0.494255 0.483608
vt 0.526625 0.293475
vt 0.526625 0.483608
vt 0.558994 0.293475
vt 0.558994 0.483608
vt 0.591364 0.293475
vt 0.591363 0.483608
vt 0.744230 0.602610
vt 0.744230 0.590478
vt 0.744230 0.578347
vt 0.744230 0.566215
vt 0.744230 0.554083
vt 0.744230 0.541951
vt 0.744230 0.529819
vt 0.409955 0.965938
vt 0.409955 0.970938
vt 0.454088 0.970938
vt 0.454088 0.965938
vt 0.409955 0.998262
vt 0.409955 0.995137
vt 0.365822 0.995137
vt 0.365822 0.998262
vt 0.498221 0.970938
vt 0.498221 0.965938
vt 0.454088 0.998262
vt 0.454088 0.995137
vt 0.542353 0.970938
vt 0.542353 0.965938
vt 0.498221 0.998262
vt 0.498221 0.995137
vt 0.586486 0.970938
vt 0.586486 0.965938
vt 0.542353 0.998262
vt 0.542353 0.995137
vt 0.586486 0.995137
vt 0.630619 0.995137
vt 0.630619 0.970938
vt 0.365822 0.970938
vt 0.365822 0.965938
vt 0.630619 0.998262
vt 0.586486 0.998262
vt 0.630619 0.965938
vt 0.429516 0.293475
vt 0.429516 0.483608
vt 0.461886 0.293475
vt 0.461886 0.483608
vt 0.494255 0.293475
vt 0.494255 0.483608
vt 0.526625 0.293475
vt 0.526625 0.483608
vt 0.558994 0.293475
vt 0.558994 0.483608
vt 0.744230 0.590478
vt 0.744230 0.578347
vt 0.744230 0.566215
vt 0.744230 0.554083
vt 0.744230 0.541951
vt 0.409955 0.965938
vt 0.454088 0.965938
vt 0.454088 0.970938
vt 0.409955 0.970938
vt 0.409955 0.998262
vt 0.409955 0.995137
vt 0.498221 0.965938
vt 0.498221 0.970938
vt 0.454088 0.998262
vt 0.454088 0.995137
vt 0.542353 0.965938
vt 0.542353 0.970938
vt 0.498221 0.998262
vt 0.498221 0.995137
vt 0.586486 0.965938
vt 0.586486 0.970938
vt 0.542353 0.998262
vt 0.542353 0.995137
vt 0.586486 0.995137
vt 0.586486 0.998262
vt 0.455026 0.569623
vt 0.518179 0.569623
vt 0.518179 0.579777
vt 0.455026 0.579777
vt 0.518179 0.589931
vt 0.455026 0.589931
vt 0.518179 0.600085
vt 0.455026 0.600085
vt 0.518179 0.610239
vt 0.455026 0.610239
vt 0.518179 0.620393
vt 0.455026 0.620393
vt 0.518179 0.630547
vt 0.455026 0.630547
vt 0.500917 0.365751
vt 0.500917 0.371133
vt 0.460363 0.371133
vt 0.460363 0.365751
vt 0.419809 0.371133
vt 0.419809 0.365751
vt 0.379255 0.371133
vt 0.379255 0.365751
vt 0.338701 0.371133
vt 0.338701 0.365752
vt 0.298147 0.371133
vt 0.298147 0.365751
vt 0.257593 0.371133
vt 0.257593 0.365751
vt 0.455026 0.579777
vt 0.518179 0.579777
vt 0.455026 0.589931
vt 0.518179 0.589931
vt 0.455026 0.600085
vt 0.518179 0.600085
vt 0.455026 0.610239
vt 0.518179 0.610239
vt 0.455026 0.620393
vt 0.518179 0.620393
vt 0.460363 0.365751
vt 0.460363 0.371133
vt 0.419809 0.365751
vt 0.419809 0.371133
vt 0.379255 0.365751
vt 0.379255 0.371133
vt 0.338701 0.365752
vt 0.338701 0.371133
vt 0.298147 0.365751
vt 0.298147 0.371133
vt 0.455026 0.569623
vt 0.455026 0.579777
vt 0.518179 0.579777
vt 0.518179 0.569623
vt 0.455026 0.589931
vt 0.518179 0.589931
vt 0.455026 0.600085
vt 0.518179 0.600085
vt 0.455026 0.610239
vt 0.518179 0.610239
vt 0.455026 0.620393
vt 0.518179 0.620393
vt 0.455026 0.630547
vt 0.518179 0.630547
vt 0.500917 0.365751
vt 0.460363 0.365751
vt 0.460363 0.371133
vt 0.500917 0.371133
vt 0.419809 0.365751
vt 0.419809 0.371133
vt 0.379255 0.365751
vt 0.379255 0.371133
vt 0.338701 0.365752
vt 0.338701 0.371133
vt 0.298147 0.365751
vt 0.298147 0.371133
vt 0.257593 0.365751
vt 0.257593 0.371133
vt 0.518179 0.579777
vt 0.455026 0.579777
vt 0.518179 0.589931
vt 0.455026 0.589931
vt 0.518179 0.600085
vt 0.455026 0.600085
vt 0.518179 0.610239
vt 0.455026 0.610239
vt 0.518179 0.620393
vt 0.455026 0.620393
vt 0.460363 0.371133
vt 0.460363 0.365751
vt 0.419809 0.371133
vt 0.419809 0.365751
vt 0.379255 0.371133
vt 0.379255 0.365751
vt 0.338701 0.371133
vt 0.338701 0.365752
vt 0.298147 0.371133
vt 0.298147 0.365751
vn 0.5000 0.8660 -0.0000
vn -0.0000 1.0000 -0.0000
vn 0.8660 0.5000 -0.0000
vn 1.0000 0.0000 -0.0000
vn 0.8660 -0.5000 -0.0000
vn 0.5000 -0.8660 -0.0000
vn 0.0000 -1.0000 -0.0000
vn 0.4191 -0.7258 -0.5455
vn 0.7258 -0.4191 -0.5455
vn 0.4191 -0.7258 0.5455
vn 0.0000 -0.8381 0.5455
vn 0.8381 -0.0000 -0.5455
vn 0.7259 -0.4191 0.5455
vn 0.7258 0.4191 -0.5455
vn 0.8381 0.0000 0.5455
vn 0.4191 0.7258 -0.5455
vn 0.7259 0.4191 0.5455
vn 0.0000 -0.8381 -0.5455
vn -0.0000 0.8381 0.5455
vn 0.4191 0.7258 0.5455
vn 0.0000 0.8381 -0.5455
vn -0.5000 0.8660 0.0000
vn -0.8660 0.5000 0.0000
vn -1.0000 -0.0000 0.0000
vn -0.8660 -0.5000 0.0000
vn -0.5000 -0.8660 0.0000
vn -0.4191 -0.7258 -0.5455
vn -0.7258 -0.4191 -0.5455
vn -0.4191 -0.7258 0.5455
vn -0.8381 -0.0000 -0.5455
vn -0.7258 -0.4191 0.5455
vn -0.7258 0.4191 -0.5455
vn -0.8381 0.0000 0.5455
vn -0.4191 0.7258 -0.5455
vn -0.7258 0.4191 0.5455
vn -0.4191 0.7258 0.5455
vn 0.7258 -0.4191 0.5455
vn 0.7259 -0.4191 -0.5455
vn 0.7258 0.4191 0.5455
vn -0.7259 0.4191 -0.5455
vn -0.0000 -0.8335 0.5525
vn 0.4168 -0.7218 0.5525
vn 0.7218 -0.4168 0.5525
vn 0.8335 0.0000 0.5525
vn 0.7218 0.4168 0.5525
vn 0.4168 0.7218 0.5525
vn 0.0000 0.8335 0.5525
vn -0.4168 -0.7218 0.5525
vn -0.7218 -0.4168 0.5525
vn -0.8335 -0.0000 0.5525
vn -0.7218 0.4168 0.5525
vn -0.4168 0.7218 0.5525
vn -0.0000 -0.8335 -0.5525
vn 0.4168 -0.7218 -0.5525
vn 0.7218 -0.4168 -0.5525
vn 0.8335 0.0000 -0.5525
vn 0.7218 0.4168 -0.5525
vn 0.4168 0.7218 -0.5525
vn 0.0000 0.8335 -0.5525
vn -0.4168 -0.7218 -0.5525
vn -0.7218 -0.4168 -0.5525
vn -0.8335 -0.0000 -0.5525
vn -0.7218 0.4168 -0.5525
vn -0.4168 0.7218 -0.5525
usemtl MI_Trim_01
s 1
f 27/1/1 13/2/1 14/3/2 28/4/2
f 26/5/3 12/6/3 13/2/1 27/1/1
f 25/7/4 11/8/4 12/6/3 26/5/3
f 24/9/5 10/10/5 11/8/4 25/7/4
f 23/11/6 9/12/6 10/10/5 24/9/5
f 22/13/7 8/14/7 9/12/6 23/11/6
f 6/15/1 34/16/1 35/17/2 7/18/2
f 5/19/3 33/20/3 34/16/1 6/15/1
f 4/21/4 32/22/4 33/20/3 5/19/3
f 3/23/5 31/24/5 32/22/4 4/21/4
f 2/25/6 30/26/6 31/24/5 3/23/5
f 1/27/7 29/28/7 30/26/6 2/25/6
f 37/29/8 38/30/9 47/31/9 45/32/8
f 30/33/10 29/34/11 44/35/11 46/36/10
f 38/30/9 39/37/12 49/38/12 47/31/9
f 31/39/13 30/33/10 46/36/10 48/40/13
f 39/37/12 40/41/14 51/42/14 49/38/12
f 32/43/15 31/39/13 48/40/13 50/44/15
f 40/41/14 41/45/16 53/46/16 51/42/14
f 33/47/17 32/43/15 50/44/15 52/48/17
f 54/49/1 53/46/1 55/50/2 56/51/2
f 52/48/3 51/42/3 53/46/1 54/49/1
f 50/44/4 49/38/4 51/42/3 52/48/3
f 48/40/5 47/31/5 49/38/4 50/44/4
f 46/36/6 45/32/6 47/31/5 48/40/5
f 44/35/7 43/52/7 45/32/6 46/36/6
f 36/53/18 37/29/8 45/32/8 43/52/18
f 35/54/19 34/55/20 54/49/20 56/51/19
f 34/55/20 33/47/17 52/48/17 54/49/20
f 41/45/16 42/56/21 55/50/21 53/46/16
f 76/57/22 28/4/2 14/3/2 66/58/22
f 75/59/23 76/57/22 66/58/22 65/60/23
f 74/61/24 75/59/23 65/60/23 64/62/24
f 73/63/25 74/61/24 64/62/24 63/64/25
f 72/65/26 73/63/25 63/64/25 62/66/26
f 22/13/7 72/65/26 62/66/26 8/14/7
f 61/67/22 7/18/2 35/17/2 81/68/22
f 60/69/23 61/67/22 81/68/22 80/70/23
f 59/71/24 60/69/23 80/70/23 79/72/24
f 58/73/25 59/71/24 79/72/24 78/74/25
f 57/75/26 58/73/25 78/74/25 77/76/26
f 1/27/7 57/75/26 77/76/26 29/28/7
f 82/77/27 87/78/27 89/79/28 83/80/28
f 77/81/29 88/82/29 44/35/11 29/34/11
f 83/80/28 89/79/28 91/83/30 84/84/30
f 78/85/31 90/86/31 88/82/29 77/81/29
f 84/84/30 91/83/30 93/87/32 85/88/32
f 79/89/33 92/90/33 90/86/31 78/85/31
f 85/88/32 93/87/32 95/91/34 86/92/34
f 80/93/35 94/94/35 92/90/33 79/89/33
f 96/95/22 56/51/2 55/50/2 95/91/22
f 94/94/23 96/95/22 95/91/22 93/87/23
f 92/90/24 94/94/23 93/87/23 91/83/24
f 90/86/25 92/90/24 91/83/24 89/79/25
f 88/82/26 90/86/25 89/79/25 87/78/26
f 44/35/7 88/82/26 87/78/26 43/52/7
f 36/53/18 43/52/18 87/78/27 82/77/27
f 35/54/19 56/51/19 96/95/36 81/96/36
f 81/96/36 96/95/36 94/94/35 80/93/35
f 86/92/34 95/91/34 55/50/21 42/56/21
f 116/97/1 117/98/2 103/99/2 102/100/1
f 115/101/3 116/97/1 102/100/1 101/102/3
f 114/103/4 115/101/3 101/102/3 100/104/4
f 113/105/5 114/103/4 100/104/4 99/106/5
f 112/107/6 113/105/5 99/106/5 98/108/6
f 111/109/7 112/107/6 98/108/6 97/110/7
f 6/15/1 7/18/2 124/111/2 123/112/1
f 5/19/3 6/15/1 123/112/1 122/113/3
f 4/21/4 5/19/3 122/113/3 121/114/4
f 3/23/5 4/21/4 121/114/4 120/115/5
f 2/25/6 3/23/5 120/115/5 119/116/6
f 1/27/7 2/25/6 119/116/6 118/117/7
f 126/118/10 134/119/10 136/120/37 127/121/37
f 119/122/8 135/123/8 133/124/18 118/125/18
f 127/121/37 136/120/37 138/126/15 128/127/15
f 120/128/38 137/129/38 135/123/8 119/122/8
f 128/127/15 138/126/15 140/130/39 129/131/39
f 121/132/12 139/133/12 137/129/38 120/128/38
f 129/131/39 140/130/39 142/134/20 130/135/20
f 122/136/14 141/137/14 139/133/12 121/132/12
f 143/138/1 145/139/2 144/140/2 142/134/1
f 141/137/3 143/138/1 142/134/1 140/130/3
f 139/133/4 141/137/3 140/130/3 138/126/4
f 137/129/5 139/133/4 138/126/4 136/120/5
f 135/123/6 137/129/5 136/120/5 134/119/6
f 133/124/7 135/123/6 134/119/6 132/141/7
f 125/142/11 132/141/11 134/119/10 126/118/10
f 124/143/21 145/139/21 143/138/16 123/144/16
f 123/144/16 143/138/16 141/137/14 122/136/14
f 130/135/20 142/134/20 144/140/19 131/145/19
f 160/146/22 150/147/22 103/99/2 117/98/2
f 159/148/23 149/149/23 150/147/22 160/146/22
f 158/150/24 148/151/24 149/149/23 159/148/23
f 157/152/25 147/153/25 148/151/24 158/150/24
f 156/154/26 146/155/26 147/153/25 157/152/25
f 111/109/7 97/110/7 146/155/26 156/154/26
f 61/67/22 165/156/22 124/111/2 7/18/2
f 60/69/23 164/157/23 165/156/22 61/67/22
f 59/71/24 163/158/24 164/157/23 60/69/23
f 58/73/25 162/159/25 163/158/24 59/71/24
f 57/75/26 161/160/26 162/159/25 58/73/25
f 1/27/7 118/117/7 161/160/26 57/75/26
f 166/161/29 167/162/31 173/163/31 171/164/29
f 161/165/27 118/125/18 133/124/18 172/166/27
f 167/162/31 168/167/33 175/168/33 173/163/31
f 162/169/28 161/165/27 172/166/27 174/170/28
f 168/167/33 169/171/35 177/172/35 175/168/33
f 163/173/30 162/169/28 174/170/28 176/174/30
f 169/171/35 170/175/36 179/176/36 177/172/35
f 164/177/40 163/173/30 176/174/30 178/178/40
f 180/179/22 179/176/22 144/140/2 145/139/2
f 178/178/23 177/172/23 179/176/22 180/179/22
f 176/174/24 175/168/24 177/172/23 178/178/23
f 174/170/25 173/163/25 175/168/24 176/174/24
f 172/166/26 171/164/26 173/163/25 174/170/25
f 133/124/7 132/141/7 171/164/26 172/166/26
f 125/142/11 166/161/29 171/164/29 132/141/11
f 124/143/21 165/180/34 180/179/34 145/139/21
f 165/180/34 164/177/40 178/178/40 180/179/34
f 170/175/36 131/145/19 144/140/19 179/176/36
usemtl MI_Trim_02
f 36/181/7 15/182/7 16/183/6 37/184/6
f 37/184/6 16/183/6 17/185/5 38/186/5
f 38/186/5 17/185/5 18/187/4 39/188/4
f 39/188/4 18/187/4 19/189/3 40/190/3
f 40/190/3 19/189/3 20/191/1 41/192/1
f 41/192/1 20/191/1 21/193/2 42/194/2
f 15/195/41 22/196/41 23/197/42 16/198/42
f 16/198/42 23/197/42 24/199/43 17/200/43
f 17/200/43 24/199/43 25/201/44 18/202/44
f 18/202/44 25/201/44 26/203/45 19/204/45
f 19/204/45 26/203/45 27/205/46 20/206/46
f 20/206/46 27/205/46 28/207/47 21/208/47
f 36/181/7 82/209/26 67/210/26 15/182/7
f 82/209/26 83/211/25 68/212/25 67/210/26
f 83/211/25 84/213/24 69/214/24 68/212/25
f 84/213/24 85/215/23 70/216/23 69/214/24
f 85/215/23 86/217/22 71/218/22 70/216/23
f 86/217/22 42/194/2 21/193/2 71/218/22
f 15/195/41 67/219/48 72/220/48 22/196/41
f 67/219/48 68/221/49 73/222/49 72/220/48
f 68/221/49 69/223/50 74/224/50 73/222/49
f 69/223/50 70/225/51 75/226/51 74/224/50
f 70/225/51 71/227/52 76/228/52 75/226/51
f 71/227/52 21/208/47 28/207/47 76/228/52
f 125/229/7 126/230/6 105/231/6 104/232/7
f 126/230/6 127/233/5 106/234/5 105/231/6
f 127/233/5 128/235/4 107/236/4 106/234/5
f 128/235/4 129/237/3 108/238/3 107/236/4
f 129/237/3 130/239/1 109/240/1 108/238/3
f 130/239/1 131/241/2 110/242/2 109/240/1
f 104/243/53 105/244/54 112/245/54 111/246/53
f 105/244/54 106/247/55 113/248/55 112/245/54
f 106/247/55 107/249/56 114/250/56 113/248/55
f 107/249/56 108/251/57 115/252/57 114/250/56
f 108/251/57 109/253/58 116/254/58 115/252/57
f 109/253/58 110/255/59 117/256/59 116/254/58
f 125/229/7 104/232/7 151/257/26 166/258/26
f 166/258/26 151/257/26 152/259/25 167/260/25
f 167/260/25 152/259/25 153/261/24 168/262/24
f 168/262/24 153/261/24 154/263/23 169/264/23
f 169/264/23 154/263/23 155/265/22 170/266/22
f 170/266/22 155/265/22 110/242/2 131/241/2
f 104/243/53 111/246/53 156/267/60 151/268/60
f 151/268/60 156/267/60 157/269/61 152/270/61
f 152/270/61 157/269/61 158/271/62 153/272/62
f 153/272/62 158/271/62 159/273/63 154/274/63
f 154/274/63 159/273/63 160/275/64 155/276/64
f 155/276/64 160/275/64 117/256/59 110/255/59
