# Blender v3.6.0 OBJ File: 'AllModules_Unreal.blend'
# www.blender.org
mtllib Prop_Pipe_Thick_Straight.mtl
o Prop_Pipe_Thick_Straight_Cylinder.002
v -0.000000 0.238835 -0.000000
v -0.000000 0.267484 -2.000000
v -0.133742 0.231648 -2.000000
v -0.231648 0.133742 -2.000000
v -0.267484 -0.000000 -2.000000
v -0.000000 0.243610 -1.727935
v -0.121805 0.210973 -1.727935
v -0.210973 0.121805 -1.727935
v -0.243610 -0.000000 -1.727935
v -0.000000 0.262710 -1.766195
v -0.131355 0.227513 -1.766195
v -0.227513 0.131355 -1.766195
v -0.262710 -0.000000 -1.766195
v -0.000000 0.238835 -1.519207
v -0.119418 0.206838 -1.519207
v -0.206838 0.119418 -1.519207
v -0.238835 -0.000000 -1.519207
v -0.000000 0.238835 -1.582713
v -0.119418 0.206838 -1.582713
v -0.206838 0.119418 -1.582713
v -0.238835 -0.000000 -1.582713
v -0.061802 0.230649 -0.000000
v -0.258316 0.069216 -2.000000
v -0.189101 0.189100 -2.000000
v -0.069216 0.258316 -2.000000
v -0.000000 0.253160 -1.764376
v -0.126580 0.219243 -1.764376
v -0.219243 0.126580 -1.764376
v -0.253160 -0.000000 -1.764376
v -0.063038 0.235260 -1.727935
v -0.172222 0.172222 -1.727935
v -0.235260 0.063038 -1.727935
v -0.067980 0.253705 -1.766195
v -0.185725 0.185725 -1.766195
v -0.253705 0.067980 -1.766195
v -0.230649 0.061802 -1.519207
v -0.168847 0.168847 -1.519207
v -0.061802 0.230649 -1.519207
v -0.000000 0.239432 -1.660604
v -0.119716 0.207354 -1.660604
v -0.207354 0.119716 -1.660604
v -0.239432 -0.000000 -1.660604
v -0.230649 0.061802 -1.582713
v -0.168847 0.168847 -1.582713
v -0.061802 0.230649 -1.582713
v -0.061957 0.231225 -1.660604
v -0.169269 0.169269 -1.660604
v -0.231225 0.061957 -1.660604
v -0.065509 0.244483 -1.764376
v -0.178974 0.178974 -1.764376
v -0.244483 0.065509 -1.764376
v -0.053677 0.199141 -0.000000
v -0.103475 0.178560 -0.000000
v -0.103475 0.178560 -1.416140
v -0.146197 0.145724 -0.000000
v -0.179033 0.103002 -0.000000
v -0.179033 0.103002 -1.416140
v -0.199614 0.053204 -0.000000
v -0.206690 -0.000000 0.000000
v -0.206690 -0.000000 -1.416140
v -0.199614 0.053204 -1.416140
v -0.146197 0.145724 -1.416140
v -0.053677 0.199141 -1.416140
v 0.133742 0.231648 -2.000000
v 0.231648 0.133742 -2.000000
v 0.267484 -0.000000 -2.000000
v 0.121805 0.210973 -1.727935
v 0.210973 0.121805 -1.727935
v 0.243610 -0.000000 -1.727935
v 0.131355 0.227513 -1.766195
v 0.227513 0.131355 -1.766195
v 0.262710 -0.000000 -1.766195
v 0.119418 0.206838 -1.519207
v 0.206838 0.119418 -1.519207
v 0.238835 -0.000000 -1.519207
v 0.119418 0.206838 -1.582713
v 0.206838 0.119418 -1.582713
v 0.238835 -0.000000 -1.582713
v 0.061802 0.230649 -0.000000
v 0.258316 0.069216 -2.000000
v 0.189101 0.189100 -2.000000
v 0.069216 0.258316 -2.000000
v 0.126580 0.219243 -1.764376
v 0.219243 0.126580 -1.764376
v 0.253160 -0.000000 -1.764376
v 0.063038 0.235260 -1.727935
v 0.172222 0.172222 -1.727935
v 0.235260 0.063038 -1.727935
v 0.067980 0.253705 -1.766195
v 0.185725 0.185725 -1.766195
v 0.253705 0.067980 -1.766195
v 0.230649 0.061802 -1.519207
v 0.168847 0.168847 -1.519207
v 0.061802 0.230649 -1.519207
v 0.119716 0.207354 -1.660604
v 0.207354 0.119716 -1.660604
v 0.239432 -0.000000 -1.660604
v 0.230649 0.061802 -1.582713
v 0.168847 0.168847 -1.582713
v 0.061802 0.230649 -1.582713
v 0.061957 0.231225 -1.660604
v 0.169269 0.169269 -1.660604
v 0.231225 0.061957 -1.660604
v 0.065509 0.244483 -1.764376
v 0.178974 0.178974 -1.764376
v 0.244483 0.065509 -1.764376
v 0.053677 0.199141 -0.000000
v 0.103475 0.178560 -0.000000
v 0.103475 0.178560 -1.416140
v 0.146197 0.145724 -0.000000
v 0.179033 0.103002 -0.000000
v 0.179033 0.103002 -1.416140
v 0.199614 0.053204 -0.000000
v 0.206690 0.000000 -0.000000
v 0.206690 -0.000000 -1.416140
v 0.199614 0.053204 -1.416140
v 0.146197 0.145724 -1.416140
v 0.053677 0.199141 -1.416140
v 0.000000 -0.238835 0.000000
v -0.000000 -0.267485 -2.000000
v -0.133742 -0.231649 -2.000000
v -0.231648 -0.133742 -2.000000
v -0.000000 -0.243610 -1.727935
v -0.121805 -0.210973 -1.727935
v -0.210973 -0.121805 -1.727935
v -0.000000 -0.262710 -1.766195
v -0.131355 -0.227513 -1.766195
v -0.227513 -0.131355 -1.766195
v -0.000000 -0.238836 -1.519207
v -0.119418 -0.206838 -1.519207
v -0.206838 -0.119418 -1.519207
v -0.000000 -0.238836 -1.582713
v -0.119418 -0.206838 -1.582713
v -0.206838 -0.119418 -1.582713
v -0.061802 -0.230649 0.000000
v -0.258316 -0.069216 -2.000000
v -0.189101 -0.189101 -2.000000
v -0.069216 -0.258316 -2.000000
v -0.000000 -0.253160 -1.764376
v -0.126580 -0.219243 -1.764376
v -0.219243 -0.126580 -1.764376
v -0.063038 -0.235260 -1.727935
v -0.172222 -0.172223 -1.727935
v -0.235260 -0.063038 -1.727935
v -0.067980 -0.253705 -1.766195
v -0.185725 -0.185725 -1.766195
v -0.253705 -0.067980 -1.766195
v -0.230649 -0.061802 -1.519207
v -0.168847 -0.168847 -1.519207
v -0.061802 -0.230649 -1.519207
v -0.000000 -0.239432 -1.660604
v -0.119716 -0.207355 -1.660604
v -0.207354 -0.119716 -1.660604
v -0.230649 -0.061802 -1.582713
v -0.168847 -0.168847 -1.582713
v -0.061802 -0.230649 -1.582713
v -0.061957 -0.231226 -1.660604
v -0.169269 -0.169269 -1.660604
v -0.231225 -0.061957 -1.660604
v -0.065509 -0.244483 -1.764376
v -0.178974 -0.178974 -1.764376
v -0.244483 -0.065509 -1.764376
v -0.053677 -0.199141 0.000000
v -0.103475 -0.178560 0.000000
v -0.103475 -0.178560 -1.416140
v -0.146197 -0.145724 0.000000
v -0.179033 -0.103002 0.000000
v -0.179033 -0.103002 -1.416140
v -0.199614 -0.053204 0.000000
v -0.199614 -0.053204 -1.416140
v -0.146197 -0.145724 -1.416140
v -0.053677 -0.199141 -1.416140
v 0.133742 -0.231649 -2.000000
v 0.231648 -0.133742 -2.000000
v 0.121805 -0.210973 -1.727935
v 0.210973 -0.121805 -1.727935
v 0.131355 -0.227513 -1.766195
v 0.227513 -0.131355 -1.766195
v 0.119418 -0.206838 -1.519207
v 0.206838 -0.119418 -1.519207
v 0.119418 -0.206838 -1.582713
v 0.206838 -0.119418 -1.582713
v 0.061802 -0.230649 0.000000
v 0.258316 -0.069216 -2.000000
v 0.189101 -0.189101 -2.000000
v 0.069216 -0.258316 -2.000000
v 0.126580 -0.219243 -1.764376
v 0.219243 -0.126580 -1.764376
v 0.063038 -0.235260 -1.727935
v 0.172222 -0.172223 -1.727935
v 0.235260 -0.063038 -1.727935
v 0.067980 -0.253705 -1.766195
v 0.185725 -0.185725 -1.766195
v 0.253705 -0.067980 -1.766195
v 0.230649 -0.061802 -1.519207
v 0.168847 -0.168847 -1.519207
v 0.061802 -0.230649 -1.519207
v 0.119716 -0.207355 -1.660604
v 0.207354 -0.119716 -1.660604
v 0.230649 -0.061802 -1.582713
v 0.168847 -0.168847 -1.582713
v 0.061802 -0.230649 -1.582713
v 0.061957 -0.231226 -1.660604
v 0.169269 -0.169269 -1.660604
v 0.231225 -0.061957 -1.660604
v 0.065509 -0.244483 -1.764376
v 0.178974 -0.178974 -1.764376
v 0.244483 -0.065509 -1.764376
v 0.053677 -0.199141 0.000000
v 0.103475 -0.178560 0.000000
v 0.103475 -0.178560 -1.416140
v 0.146197 -0.145724 0.000000
v 0.179033 -0.103002 0.000000
v 0.179033 -0.103002 -1.416140
v 0.199614 -0.053204 0.000000
v 0.199614 -0.053204 -1.416140
v 0.146197 -0.145724 -1.416140
v 0.053677 -0.199141 -1.416140
v 0.000000 0.267485 2.000000
v -0.133742 0.231649 2.000000
v -0.231648 0.133742 2.000000
v -0.267484 0.000000 2.000000
v 0.000000 0.243610 1.727935
v -0.121805 0.210973 1.727935
v -0.210973 0.121805 1.727935
v -0.243610 0.000000 1.727935
v 0.000000 0.262710 1.766195
v -0.131355 0.227513 1.766195
v -0.227513 0.131355 1.766195
v -0.262710 0.000000 1.766195
v 0.000000 0.238836 1.519207
v -0.119418 0.206838 1.519207
v -0.206838 0.119418 1.519207
v -0.238835 0.000000 1.519207
v 0.000000 0.238836 1.582713
v -0.119418 0.206838 1.582713
v -0.206838 0.119418 1.582713
v -0.238835 0.000000 1.582713
v -0.258316 0.069216 2.000000
v -0.189101 0.189101 2.000000
v -0.069216 0.258316 2.000000
v 0.000000 0.253160 1.764376
v -0.126580 0.219243 1.764376
v -0.219243 0.126580 1.764376
v -0.253160 0.000000 1.764376
v -0.063038 0.235260 1.727935
v -0.172222 0.172223 1.727935
v -0.235260 0.063038 1.727935
v -0.067980 0.253705 1.766195
v -0.185725 0.185725 1.766195
v -0.253705 0.067980 1.766195
v -0.230649 0.061802 1.519207
v -0.168847 0.168847 1.519207
v -0.061802 0.230649 1.519207
v 0.000000 0.239432 1.660604
v -0.119716 0.207355 1.660604
v -0.207354 0.119716 1.660604
v -0.239432 0.000000 1.660604
v -0.230649 0.061802 1.582713
v -0.168847 0.168847 1.582713
v -0.061802 0.230649 1.582713
v -0.061957 0.231226 1.660604
v -0.169269 0.169269 1.660604
v -0.231225 0.061957 1.660604
v -0.065509 0.244483 1.764376
v -0.178974 0.178974 1.764376
v -0.244483 0.065509 1.764376
v -0.103475 0.178560 1.416140
v -0.179033 0.103002 1.416140
v -0.206690 0.000000 1.416140
v -0.199614 0.053204 1.416140
v -0.146197 0.145724 1.416140
v -0.053677 0.199141 1.416140
v 0.133742 0.231649 2.000000
v 0.231648 0.133742 2.000000
v 0.267484 0.000000 2.000000
v 0.121805 0.210973 1.727935
v 0.210973 0.121805 1.727935
v 0.243610 0.000000 1.727935
v 0.131355 0.227513 1.766195
v 0.227513 0.131355 1.766195
v 0.262710 0.000000 1.766195
v 0.119418 0.206838 1.519207
v 0.206838 0.119418 1.519207
v 0.238835 0.000000 1.519207
v 0.119418 0.206838 1.582713
v 0.206838 0.119418 1.582713
v 0.238835 0.000000 1.582713
v 0.258316 0.069216 2.000000
v 0.189101 0.189101 2.000000
v 0.069216 0.258316 2.000000
v 0.126580 0.219243 1.764376
v 0.219243 0.126580 1.764376
v 0.253160 0.000000 1.764376
v 0.063038 0.235260 1.727935
v 0.172222 0.172223 1.727935
v 0.235260 0.063038 1.727935
v 0.067980 0.253705 1.766195
v 0.185725 0.185725 1.766195
v 0.253705 0.067980 1.766195
v 0.230649 0.061802 1.519207
v 0.168847 0.168847 1.519207
v 0.061802 0.230649 1.519207
v 0.119716 0.207355 1.660604
v 0.207354 0.119716 1.660604
v 0.239432 0.000000 1.660604
v 0.230649 0.061802 1.582713
v 0.168847 0.168847 1.582713
v 0.061802 0.230649 1.582713
v 0.061957 0.231226 1.660604
v 0.169269 0.169269 1.660604
v 0.231225 0.061957 1.660604
v 0.065509 0.244483 1.764376
v 0.178974 0.178974 1.764376
v 0.244483 0.065509 1.764376
v 0.103475 0.178560 1.416140
v 0.179033 0.103002 1.416140
v 0.206690 0.000000 1.416140
v 0.199614 0.053204 1.416140
v 0.146197 0.145724 1.416140
v 0.053677 0.199141 1.416140
v 0.000000 -0.267484 2.000000
v -0.133742 -0.231648 2.000000
v -0.231648 -0.133742 2.000000
v 0.000000 -0.243610 1.727935
v -0.121805 -0.210973 1.727935
v -0.210973 -0.121805 1.727935
v 0.000000 -0.262710 1.766195
v -0.131355 -0.227513 1.766195
v -0.227513 -0.131355 1.766195
v 0.000000 -0.238835 1.519207
v -0.119418 -0.206838 1.519207
v -0.206838 -0.119418 1.519207
v 0.000000 -0.238835 1.582713
v -0.119418 -0.206838 1.582713
v -0.206838 -0.119418 1.582713
v -0.258316 -0.069216 2.000000
v -0.189101 -0.189100 2.000000
v -0.069216 -0.258316 2.000000
v 0.000000 -0.253160 1.764376
v -0.126580 -0.219243 1.764376
v -0.219243 -0.126580 1.764376
v -0.063038 -0.235260 1.727935
v -0.172222 -0.172222 1.727935
v -0.235260 -0.063038 1.727935
v -0.067980 -0.253705 1.766195
v -0.185725 -0.185725 1.766195
v -0.253705 -0.067980 1.766195
v -0.230649 -0.061802 1.519207
v -0.168847 -0.168847 1.519207
v -0.061802 -0.230649 1.519207
v 0.000000 -0.239432 1.660604
v -0.119716 -0.207354 1.660604
v -0.207354 -0.119716 1.660604
v -0.230649 -0.061802 1.582713
v -0.168847 -0.168847 1.582713
v -0.061802 -0.230649 1.582713
v -0.061957 -0.231225 1.660604
v -0.169269 -0.169269 1.660604
v -0.231225 -0.061957 1.660604
v -0.065509 -0.244483 1.764376
v -0.178974 -0.178974 1.764376
v -0.244483 -0.065509 1.764376
v -0.103475 -0.178560 1.416140
v -0.179033 -0.103002 1.416140
v -0.199614 -0.053204 1.416140
v -0.146197 -0.145724 1.416140
v -0.053677 -0.199141 1.416140
v 0.133742 -0.231648 2.000000
v 0.231648 -0.133742 2.000000
v 0.121805 -0.210973 1.727935
v 0.210973 -0.121805 1.727935
v 0.131355 -0.227513 1.766195
v 0.227513 -0.131355 1.766195
v 0.119418 -0.206838 1.519207
v 0.206838 -0.119418 1.519207
v 0.119418 -0.206838 1.582713
v 0.206838 -0.119418 1.582713
v 0.258316 -0.069216 2.000000
v 0.189101 -0.189100 2.000000
v 0.069216 -0.258316 2.000000
v 0.126580 -0.219243 1.764376
v 0.219243 -0.126580 1.764376
v 0.063038 -0.235260 1.727935
v 0.172222 -0.172222 1.727935
v 0.235260 -0.063038 1.727935
v 0.067980 -0.253705 1.766195
v 0.185725 -0.185725 1.766195
v 0.253705 -0.067980 1.766195
v 0.230649 -0.061802 1.519207
v 0.168847 -0.168847 1.519207
v 0.061802 -0.230649 1.519207
v 0.119716 -0.207354 1.660604
v 0.207354 -0.119716 1.660604
v 0.230649 -0.061802 1.582713
v 0.168847 -0.168847 1.582713
v 0.061802 -0.230649 1.582713
v 0.061957 -0.231225 1.660604
v 0.169269 -0.169269 1.660604
v 0.231225 -0.061957 1.660604
v 0.065509 -0.244483 1.764376
v 0.178974 -0.178974 1.764376
v 0.244483 -0.065509 1.764376
v 0.103475 -0.178560 1.416140
v 0.179033 -0.103002 1.416140
v 0.199614 -0.053204 1.416140
v 0.146197 -0.145724 1.416140
v 0.053677 -0.199141 1.416140
vt 0.182753 0.059544
vt 0.161904 0.059544
vt 0.161904 0.000655
vt 0.182754 0.000655
vt 0.141054 0.059544
vt 0.141054 0.000655
vt 0.224454 0.059544
vt 0.203604 0.059544
vt 0.203604 0.000655
vt 0.224454 0.000655
vt 0.266153 0.059544
vt 0.245303 0.059544
vt 0.245303 0.000655
vt 0.266154 0.000655
vt 0.466327 0.837836
vt 0.507676 0.837836
vt 0.507676 0.813940
vt 0.466327 0.813940
vt 0.424978 0.837835
vt 0.424978 0.813939
vt 0.383630 0.837835
vt 0.383630 0.837835
vt 0.705850 0.798739
vt 0.705851 0.862952
vt 0.332329 0.862952
vt 0.332329 0.798737
vt 0.549025 0.837836
vt 0.590374 0.837835
vt 0.590374 0.813939
vt 0.549025 0.813940
vt 0.565685 0.001650
vt 0.587751 0.001650
vt 0.587751 0.025850
vt 0.565685 0.025850
vt 0.609818 0.001650
vt 0.609817 0.025850
vt 0.653950 0.025850
vt 0.653950 0.001650
vt 0.676017 0.001650
vt 0.676017 0.025850
vt 0.698083 0.001650
vt 0.698083 0.025850
vt 0.631884 0.001650
vt 0.631884 0.025850
vt 0.907790 0.637812
vt 0.907790 0.648370
vt 0.493764 0.648370
vt 0.493764 0.637812
vt 0.907790 0.658927
vt 0.493764 0.658927
vt 0.907790 0.616698
vt 0.907790 0.627255
vt 0.493764 0.627255
vt 0.493764 0.616698
vt 0.493764 0.602912
vt 0.907790 0.602912
vt 0.907790 0.614545
vt 0.493764 0.614545
vt 0.332329 0.842952
vt 0.705851 0.842952
vt 0.677271 0.862952
vt 0.360908 0.862952
vt 0.182753 0.059544
vt 0.182754 0.000655
vt 0.161904 0.000655
vt 0.161904 0.059544
vt 0.141054 0.000655
vt 0.141054 0.059544
vt 0.224454 0.059544
vt 0.224454 0.000655
vt 0.203604 0.000655
vt 0.203604 0.059544
vt 0.245303 0.000655
vt 0.245303 0.059544
vt 0.466327 0.837836
vt 0.466327 0.813940
vt 0.507676 0.813940
vt 0.507676 0.837836
vt 0.424978 0.837835
vt 0.424978 0.813939
vt 0.383630 0.837835
vt 0.383630 0.837835
vt 0.332329 0.862952
vt 0.705851 0.862952
vt 0.549025 0.837836
vt 0.549025 0.813940
vt 0.590374 0.813939
vt 0.590374 0.837835
vt 0.587751 0.025850
vt 0.587751 0.001650
vt 0.609817 0.025850
vt 0.609818 0.001650
vt 0.653950 0.025850
vt 0.676017 0.025850
vt 0.676017 0.001650
vt 0.653950 0.001650
vt 0.698083 0.025850
vt 0.698083 0.001650
vt 0.631884 0.025850
vt 0.631884 0.001650
vt 0.907790 0.637812
vt 0.493764 0.637812
vt 0.493764 0.648370
vt 0.907790 0.648370
vt 0.493764 0.658927
vt 0.907790 0.658927
vt 0.907790 0.616698
vt 0.493764 0.616698
vt 0.493764 0.627255
vt 0.907790 0.627255
vt 0.493764 0.602912
vt 0.493764 0.614545
vt 0.907790 0.614545
vt 0.907790 0.602912
vt 0.332329 0.842952
vt 0.360908 0.862952
vt 0.677271 0.862952
vt 0.705851 0.842952
vt 0.182753 0.059544
vt 0.182754 0.000655
vt 0.161904 0.000655
vt 0.161904 0.059544
vt 0.224454 0.059544
vt 0.224454 0.000655
vt 0.203604 0.000655
vt 0.203604 0.059544
vt 0.266153 0.059544
vt 0.266154 0.000655
vt 0.245303 0.000655
vt 0.245303 0.059544
vt 0.466327 0.837836
vt 0.466327 0.813940
vt 0.507676 0.813940
vt 0.507676 0.837836
vt 0.424978 0.837835
vt 0.424978 0.813939
vt 0.383630 0.837835
vt 0.383630 0.837835
vt 0.705850 0.798739
vt 0.332329 0.798737
vt 0.332329 0.862952
vt 0.705851 0.862952
vt 0.549025 0.837836
vt 0.549025 0.813940
vt 0.565685 0.001650
vt 0.565685 0.025850
vt 0.587751 0.025850
vt 0.587751 0.001650
vt 0.609817 0.025850
vt 0.609818 0.001650
vt 0.653950 0.025850
vt 0.676017 0.025850
vt 0.676017 0.001650
vt 0.653950 0.001650
vt 0.631884 0.025850
vt 0.631884 0.001650
vt 0.907790 0.637812
vt 0.493764 0.637812
vt 0.493764 0.648370
vt 0.907790 0.648370
vt 0.907790 0.616698
vt 0.493764 0.616698
vt 0.493764 0.627255
vt 0.907790 0.627255
vt 0.493764 0.602912
vt 0.493764 0.614545
vt 0.907790 0.614545
vt 0.907790 0.602912
vt 0.332329 0.842952
vt 0.360908 0.862952
vt 0.677271 0.862952
vt 0.705851 0.842952
vt 0.182753 0.059544
vt 0.161904 0.059544
vt 0.161904 0.000655
vt 0.182754 0.000655
vt 0.224454 0.059544
vt 0.203604 0.059544
vt 0.203604 0.000655
vt 0.224454 0.000655
vt 0.245303 0.059544
vt 0.245303 0.000655
vt 0.466327 0.837836
vt 0.507676 0.837836
vt 0.507676 0.813940
vt 0.466327 0.813940
vt 0.424978 0.837835
vt 0.424978 0.813939
vt 0.383630 0.837835
vt 0.383630 0.837835
vt 0.705851 0.862952
vt 0.332329 0.862952
vt 0.549025 0.837836
vt 0.549025 0.813940
vt 0.587751 0.001650
vt 0.587751 0.025850
vt 0.609818 0.001650
vt 0.609817 0.025850
vt 0.653950 0.025850
vt 0.653950 0.001650
vt 0.676017 0.001650
vt 0.676017 0.025850
vt 0.631884 0.001650
vt 0.631884 0.025850
vt 0.907790 0.637812
vt 0.907790 0.648370
vt 0.493764 0.648370
vt 0.493764 0.637812
vt 0.907790 0.616698
vt 0.907790 0.627255
vt 0.493764 0.627255
vt 0.493764 0.616698
vt 0.493764 0.602912
vt 0.907790 0.602912
vt 0.907790 0.614545
vt 0.493764 0.614545
vt 0.332329 0.842952
vt 0.705851 0.842952
vt 0.677271 0.862952
vt 0.360908 0.862952
vt 0.182753 0.059544
vt 0.182754 0.000655
vt 0.161904 0.000655
vt 0.161904 0.059544
vt 0.141054 0.000655
vt 0.141054 0.059544
vt 0.224454 0.059544
vt 0.224454 0.000655
vt 0.203604 0.000655
vt 0.203604 0.059544
vt 0.266153 0.059544
vt 0.266154 0.000655
vt 0.245303 0.000655
vt 0.245303 0.059544
vt 0.466327 0.837836
vt 0.466327 0.813940
vt 0.507676 0.813940
vt 0.507676 0.837836
vt 0.424978 0.837835
vt 0.424978 0.813939
vt 0.383630 0.837835
vt 0.383630 0.837835
vt 0.705850 0.798739
vt 0.705851 0.862952
vt 0.549025 0.837836
vt 0.549025 0.813940
vt 0.590374 0.813939
vt 0.590374 0.837835
vt 0.565685 0.001650
vt 0.565685 0.025850
vt 0.587751 0.025850
vt 0.587751 0.001650
vt 0.609817 0.025850
vt 0.609818 0.001650
vt 0.653950 0.025850
vt 0.676017 0.025850
vt 0.676017 0.001650
vt 0.653950 0.001650
vt 0.698083 0.025850
vt 0.698083 0.001650
vt 0.631884 0.025850
vt 0.631884 0.001650
vt 0.907790 0.637812
vt 0.907790 0.648370
vt 0.907790 0.658927
vt 0.907790 0.616698
vt 0.907790 0.627255
vt 0.907790 0.614545
vt 0.907790 0.602912
vt 0.677271 0.862952
vt 0.705851 0.842952
vt 0.182753 0.059544
vt 0.161904 0.059544
vt 0.161904 0.000655
vt 0.182754 0.000655
vt 0.141054 0.059544
vt 0.141054 0.000655
vt 0.224454 0.059544
vt 0.203604 0.059544
vt 0.203604 0.000655
vt 0.224454 0.000655
vt 0.245303 0.059544
vt 0.245303 0.000655
vt 0.466327 0.837836
vt 0.507676 0.837836
vt 0.507676 0.813940
vt 0.466327 0.813940
vt 0.424978 0.837835
vt 0.424978 0.813939
vt 0.383630 0.837835
vt 0.383630 0.837835
vt 0.705851 0.862952
vt 0.549025 0.837836
vt 0.590374 0.837835
vt 0.590374 0.813939
vt 0.549025 0.813940
vt 0.587751 0.001650
vt 0.587751 0.025850
vt 0.609818 0.001650
vt 0.609817 0.025850
vt 0.653950 0.025850
vt 0.653950 0.001650
vt 0.676017 0.001650
vt 0.676017 0.025850
vt 0.698083 0.001650
vt 0.698083 0.025850
vt 0.631884 0.001650
vt 0.631884 0.025850
vt 0.907790 0.637812
vt 0.907790 0.648370
vt 0.907790 0.658927
vt 0.907790 0.616698
vt 0.907790 0.627255
vt 0.907790 0.602912
vt 0.907790 0.614545
vt 0.705851 0.842952
vt 0.677271 0.862952
vt 0.182753 0.059544
vt 0.161904 0.059544
vt 0.161904 0.000655
vt 0.182754 0.000655
vt 0.224454 0.059544
vt 0.203604 0.059544
vt 0.203604 0.000655
vt 0.224454 0.000655
vt 0.266153 0.059544
vt 0.245303 0.059544
vt 0.245303 0.000655
vt 0.266154 0.000655
vt 0.466327 0.837836
vt 0.507676 0.837836
vt 0.507676 0.813940
vt 0.466327 0.813940
vt 0.424978 0.837835
vt 0.424978 0.813939
vt 0.383630 0.837835
vt 0.383630 0.837835
vt 0.705850 0.798739
vt 0.705851 0.862952
vt 0.549025 0.837836
vt 0.549025 0.813940
vt 0.565685 0.001650
vt 0.587751 0.001650
vt 0.587751 0.025850
vt 0.565685 0.025850
vt 0.609818 0.001650
vt 0.609817 0.025850
vt 0.653950 0.025850
vt 0.653950 0.001650
vt 0.676017 0.001650
vt 0.676017 0.025850
vt 0.631884 0.001650
vt 0.631884 0.025850
vt 0.907790 0.637812
vt 0.907790 0.648370
vt 0.907790 0.616698
vt 0.907790 0.627255
vt 0.907790 0.602912
vt 0.907790 0.614545
vt 0.705851 0.842952
vt 0.677271 0.862952
vt 0.182753 0.059544
vt 0.182754 0.000655
vt 0.161904 0.000655
vt 0.161904 0.059544
vt 0.224454 0.059544
vt 0.224454 0.000655
vt 0.203604 0.000655
vt 0.203604 0.059544
vt 0.245303 0.000655
vt 0.245303 0.059544
vt 0.466327 0.837836
vt 0.466327 0.813940
vt 0.507676 0.813940
vt 0.507676 0.837836
vt 0.424978 0.837835
vt 0.424978 0.813939
vt 0.383630 0.837835
vt 0.383630 0.837835
vt 0.705851 0.862952
vt 0.549025 0.837836
vt 0.549025 0.813940
vt 0.587751 0.025850
vt 0.587751 0.001650
vt 0.609817 0.025850
vt 0.609818 0.001650
vt 0.653950 0.025850
vt 0.676017 0.025850
vt 0.676017 0.001650
vt 0.653950 0.001650
vt 0.631884 0.025850
vt 0.631884 0.001650
vt 0.907790 0.637812
vt 0.907790 0.648370
vt 0.907790 0.616698
vt 0.907790 0.627255
vt 0.907790 0.614545
vt 0.907790 0.602912
vt 0.677271 0.862952
vt 0.705851 0.842952
vt 0.455026 0.600085
vt 0.486602 0.600085
vt 0.486603 0.605162
vt 0.455026 0.605162
vt 0.518179 0.600085
vt 0.518179 0.605162
vt 0.518179 0.610239
vt 0.486603 0.610239
vt 0.455026 0.610239
vt 0.486602 0.615316
vt 0.455026 0.615316
vt 0.518179 0.615316
vt 0.518179 0.620393
vt 0.486602 0.620393
vt 0.455026 0.620393
vt 0.486602 0.625470
vt 0.455026 0.625470
vt 0.518179 0.625470
vt 0.518179 0.630547
vt 0.486602 0.630547
vt 0.455026 0.630547
vt 0.379255 0.365751
vt 0.379255 0.370618
vt 0.358978 0.370618
vt 0.358978 0.365752
vt 0.379255 0.388539
vt 0.358978 0.388539
vt 0.338701 0.388539
vt 0.338701 0.370618
vt 0.338701 0.365752
vt 0.318424 0.370618
vt 0.318424 0.365752
vt 0.318424 0.388539
vt 0.298147 0.388539
vt 0.298147 0.370618
vt 0.298147 0.365751
vt 0.277870 0.370618
vt 0.277870 0.365751
vt 0.277870 0.388539
vt 0.257593 0.388539
vt 0.257593 0.370618
vt 0.257593 0.365751
vt 0.455026 0.605162
vt 0.486603 0.605162
vt 0.518179 0.605162
vt 0.486603 0.610239
vt 0.518179 0.610239
vt 0.455026 0.610239
vt 0.455026 0.615316
vt 0.486602 0.615316
vt 0.518179 0.615316
vt 0.486602 0.620393
vt 0.518179 0.620393
vt 0.455026 0.620393
vt 0.455026 0.625470
vt 0.486602 0.625470
vt 0.518179 0.625470
vt 0.486602 0.630547
vt 0.518179 0.630547
vt 0.455026 0.630547
vt 0.358978 0.365752
vt 0.358978 0.370618
vt 0.358978 0.388539
vt 0.338701 0.370618
vt 0.338701 0.388539
vt 0.338701 0.365752
vt 0.318424 0.365752
vt 0.318424 0.370618
vt 0.318424 0.388539
vt 0.298147 0.370618
vt 0.298147 0.388539
vt 0.298147 0.365751
vt 0.277870 0.365751
vt 0.277870 0.370618
vt 0.277870 0.388539
vt 0.257593 0.370618
vt 0.257593 0.388539
vt 0.257593 0.365751
vt 0.455026 0.600085
vt 0.455026 0.605162
vt 0.486603 0.605162
vt 0.486602 0.600085
vt 0.518179 0.605162
vt 0.518179 0.600085
vt 0.486603 0.610239
vt 0.518179 0.610239
vt 0.455026 0.610239
vt 0.455026 0.615316
vt 0.486602 0.615316
vt 0.518179 0.615316
vt 0.486602 0.620393
vt 0.518179 0.620393
vt 0.455026 0.620393
vt 0.455026 0.625470
vt 0.486602 0.625470
vt 0.518179 0.625470
vt 0.379255 0.365751
vt 0.358978 0.365752
vt 0.358978 0.370618
vt 0.379255 0.370618
vt 0.358978 0.388539
vt 0.379255 0.388539
vt 0.338701 0.370618
vt 0.338701 0.388539
vt 0.338701 0.365752
vt 0.318424 0.365752
vt 0.318424 0.370618
vt 0.318424 0.388539
vt 0.298147 0.370618
vt 0.298147 0.388539
vt 0.298147 0.365751
vt 0.277870 0.365751
vt 0.277870 0.370618
vt 0.277870 0.388539
vt 0.486603 0.605162
vt 0.455026 0.605162
vt 0.518179 0.605162
vt 0.518179 0.610239
vt 0.486603 0.610239
vt 0.455026 0.610239
vt 0.486602 0.615316
vt 0.455026 0.615316
vt 0.518179 0.615316
vt 0.518179 0.620393
vt 0.486602 0.620393
vt 0.455026 0.620393
vt 0.486602 0.625470
vt 0.455026 0.625470
vt 0.518179 0.625470
vt 0.358978 0.370618
vt 0.358978 0.365752
vt 0.358978 0.388539
vt 0.338701 0.388539
vt 0.338701 0.370618
vt 0.338701 0.365752
vt 0.318424 0.370618
vt 0.318424 0.365752
vt 0.318424 0.388539
vt 0.298147 0.388539
vt 0.298147 0.370618
vt 0.298147 0.365751
vt 0.277870 0.370618
vt 0.277870 0.365751
vt 0.277870 0.388539
vt 0.455026 0.600085
vt 0.455026 0.605162
vt 0.486603 0.605162
vt 0.486602 0.600085
vt 0.518179 0.605162
vt 0.518179 0.600085
vt 0.486603 0.610239
vt 0.518179 0.610239
vt 0.455026 0.610239
vt 0.455026 0.615316
vt 0.486602 0.615316
vt 0.518179 0.615316
vt 0.486602 0.620393
vt 0.518179 0.620393
vt 0.455026 0.620393
vt 0.455026 0.625470
vt 0.486602 0.625470
vt 0.518179 0.625470
vt 0.486602 0.630547
vt 0.518179 0.630547
vt 0.455026 0.630547
vt 0.379255 0.365751
vt 0.358978 0.365752
vt 0.358978 0.370618
vt 0.379255 0.370618
vt 0.358978 0.388539
vt 0.379255 0.388539
vt 0.338701 0.370618
vt 0.338701 0.388539
vt 0.338701 0.365752
vt 0.318424 0.365752
vt 0.318424 0.370618
vt 0.318424 0.388539
vt 0.298147 0.370618
vt 0.298147 0.388539
vt 0.298147 0.365751
vt 0.277870 0.365751
vt 0.277870 0.370618
vt 0.277870 0.388539
vt 0.257593 0.370618
vt 0.257593 0.388539
vt 0.257593 0.365751
vt 0.486603 0.605162
vt 0.455026 0.605162
vt 0.518179 0.605162
vt 0.518179 0.610239
vt 0.486603 0.610239
vt 0.455026 0.610239
vt 0.486602 0.615316
vt 0.455026 0.615316
vt 0.518179 0.615316
vt 0.518179 0.620393
vt 0.486602 0.620393
vt 0.455026 0.620393
vt 0.486602 0.625470
vt 0.455026 0.625470
vt 0.518179 0.625470
vt 0.518179 0.630547
vt 0.486602 0.630547
vt 0.455026 0.630547
vt 0.358978 0.370618
vt 0.358978 0.365752
vt 0.358978 0.388539
vt 0.338701 0.388539
vt 0.338701 0.370618
vt 0.338701 0.365752
vt 0.318424 0.370618
vt 0.318424 0.365752
vt 0.318424 0.388539
vt 0.298147 0.388539
vt 0.298147 0.370618
vt 0.298147 0.365751
vt 0.277870 0.370618
vt 0.277870 0.365751
vt 0.277870 0.388539
vt 0.257593 0.388539
vt 0.257593 0.370618
vt 0.257593 0.365751
vt 0.455026 0.600085
vt 0.486602 0.600085
vt 0.486603 0.605162
vt 0.455026 0.605162
vt 0.518179 0.600085
vt 0.518179 0.605162
vt 0.518179 0.610239
vt 0.486603 0.610239
vt 0.455026 0.610239
vt 0.486602 0.615316
vt 0.455026 0.615316
vt 0.518179 0.615316
vt 0.518179 0.620393
vt 0.486602 0.620393
vt 0.455026 0.620393
vt 0.486602 0.625470
vt 0.455026 0.625470
vt 0.518179 0.625470
vt 0.379255 0.365751
vt 0.379255 0.370618
vt 0.358978 0.370618
vt 0.358978 0.365752
vt 0.379255 0.388539
vt 0.358978 0.388539
vt 0.338701 0.388539
vt 0.338701 0.370618
vt 0.338701 0.365752
vt 0.318424 0.370618
vt 0.318424 0.365752
vt 0.318424 0.388539
vt 0.298147 0.388539
vt 0.298147 0.370618
vt 0.298147 0.365751
vt 0.277870 0.370618
vt 0.277870 0.365751
vt 0.277870 0.388539
vt 0.455026 0.605162
vt 0.486603 0.605162
vt 0.518179 0.605162
vt 0.486603 0.610239
vt 0.518179 0.610239
vt 0.455026 0.610239
vt 0.455026 0.615316
vt 0.486602 0.615316
vt 0.518179 0.615316
vt 0.486602 0.620393
vt 0.518179 0.620393
vt 0.455026 0.620393
vt 0.455026 0.625470
vt 0.486602 0.625470
vt 0.518179 0.625470
vt 0.358978 0.365752
vt 0.358978 0.370618
vt 0.358978 0.388539
vt 0.338701 0.370618
vt 0.338701 0.388539
vt 0.338701 0.365752
vt 0.318424 0.365752
vt 0.318424 0.370618
vt 0.318424 0.388539
vt 0.298147 0.370618
vt 0.298147 0.388539
vt 0.298147 0.365751
vt 0.277870 0.365751
vt 0.277870 0.370618
vt 0.277870 0.388539
vn -0.8658 0.4999 0.0204
vn -0.9657 0.2588 0.0204
vn -0.9998 -0.0000 0.0204
vn -0.4999 0.8658 0.0204
vn -0.7070 0.7070 0.0204
vn 0.0000 0.9998 0.0204
vn -0.2588 0.9657 0.0204
vn -0.6991 0.6992 0.1497
vn -0.8563 0.4945 0.1494
vn -0.8559 0.4940 0.1531
vn -0.6988 0.6986 0.1535
vn -0.4942 0.8563 0.1501
vn -0.4942 0.8556 0.1539
vn -0.2558 0.9639 0.0743
vn -0.3775 0.9133 0.1529
vn 0.0000 1.0000 -0.0000
vn -0.1313 0.9913 -0.0000
vn -0.9551 0.2561 0.1490
vn -0.9889 0.0000 0.1488
vn -0.9883 0.0000 0.1526
vn -0.9546 0.2559 0.1527
vn 0.0000 1.0000 0.0038
vn -0.2588 0.9659 0.0038
vn -0.5000 0.8660 0.0038
vn -0.8660 0.5000 0.0038
vn -0.9659 0.2588 0.0038
vn -1.0000 0.0000 0.0038
vn -0.7071 0.7071 0.0038
vn -0.9659 0.2591 -0.0000
vn -0.8660 0.5000 -0.0000
vn -1.0000 0.0000 0.0000
vn -0.7071 0.7071 -0.0000
vn -0.5000 0.8660 -0.0000
vn -0.3819 0.9242 -0.0000
vn -0.9683 -0.2497 0.0000
vn 0.8658 0.4999 0.0204
vn 0.9657 0.2588 0.0204
vn 0.9998 -0.0000 0.0204
vn 0.4999 0.8658 0.0204
vn 0.7070 0.7070 0.0204
vn 0.2588 0.9657 0.0204
vn 0.6991 0.6992 0.1497
vn 0.6988 0.6986 0.1535
vn 0.8559 0.4940 0.1531
vn 0.8563 0.4945 0.1494
vn 0.4942 0.8563 0.1501
vn 0.4942 0.8556 0.1539
vn 0.2558 0.9639 0.0743
vn 0.3775 0.9133 0.1529
vn 0.1313 0.9913 -0.0000
vn 0.9551 0.2561 0.1490
vn 0.9546 0.2559 0.1527
vn 0.9883 -0.0000 0.1526
vn 0.9889 0.0000 0.1488
vn 0.2588 0.9659 0.0038
vn 0.5000 0.8660 0.0038
vn 0.9659 0.2588 0.0038
vn 0.8660 0.5000 0.0038
vn 1.0000 0.0000 0.0038
vn 0.7071 0.7071 0.0038
vn 0.8660 0.5000 -0.0000
vn 0.9659 0.2591 -0.0000
vn 1.0000 0.0000 0.0000
vn 0.5000 0.8660 -0.0000
vn 0.7071 0.7071 -0.0000
vn 0.3819 0.9242 -0.0000
vn 0.9683 -0.2497 0.0000
vn -0.8658 -0.4999 0.0204
vn -0.9657 -0.2588 0.0204
vn -0.4999 -0.8658 0.0204
vn -0.7070 -0.7070 0.0204
vn 0.0000 -0.9998 0.0204
vn -0.2588 -0.9657 0.0204
vn -0.6991 -0.6992 0.1497
vn -0.6988 -0.6986 0.1535
vn -0.8559 -0.4940 0.1531
vn -0.8563 -0.4945 0.1494
vn -0.4942 -0.8563 0.1501
vn -0.4942 -0.8556 0.1539
vn -0.2558 -0.9639 0.0743
vn -0.3775 -0.9133 0.1529
vn 0.0000 -1.0000 0.0000
vn -0.1313 -0.9913 0.0000
vn -0.9551 -0.2561 0.1490
vn -0.9546 -0.2559 0.1527
vn 0.0000 -1.0000 0.0038
vn -0.2588 -0.9659 0.0038
vn -0.5000 -0.8660 0.0038
vn -0.9659 -0.2588 0.0038
vn -0.8660 -0.5000 0.0038
vn -0.7071 -0.7071 0.0038
vn -0.8660 -0.5000 0.0000
vn -0.9659 -0.2591 0.0000
vn -0.5000 -0.8660 0.0000
vn -0.7071 -0.7071 0.0000
vn -0.3819 -0.9242 0.0000
vn -0.9683 0.2497 -0.0000
vn 0.8658 -0.4999 0.0204
vn 0.9657 -0.2588 0.0204
vn 0.4999 -0.8658 0.0204
vn 0.7070 -0.7070 0.0204
vn 0.2588 -0.9657 0.0204
vn 0.6991 -0.6992 0.1497
vn 0.8563 -0.4945 0.1494
vn 0.8559 -0.4940 0.1531
vn 0.6988 -0.6986 0.1535
vn 0.4942 -0.8563 0.1501
vn 0.4942 -0.8556 0.1539
vn 0.2558 -0.9639 0.0743
vn 0.3775 -0.9133 0.1529
vn 0.1313 -0.9913 0.0000
vn 0.9551 -0.2561 0.1490
vn 0.9546 -0.2559 0.1527
vn 0.2588 -0.9659 0.0038
vn 0.5000 -0.8660 0.0038
vn 0.8660 -0.5000 0.0038
vn 0.9659 -0.2588 0.0038
vn 0.7071 -0.7071 0.0038
vn 0.9659 -0.2591 0.0000
vn 0.8660 -0.5000 0.0000
vn 0.7071 -0.7071 0.0000
vn 0.5000 -0.8660 0.0000
vn 0.3819 -0.9242 0.0000
vn 0.9683 0.2497 -0.0000
vn -0.8658 0.4999 -0.0204
vn -0.9657 0.2588 -0.0204
vn -0.9998 0.0000 -0.0204
vn -0.4999 0.8658 -0.0204
vn -0.7070 0.7070 -0.0204
vn 0.0000 0.9998 -0.0204
vn -0.2588 0.9657 -0.0204
vn -0.6991 0.6992 -0.1497
vn -0.6988 0.6986 -0.1535
vn -0.8559 0.4940 -0.1531
vn -0.8563 0.4945 -0.1494
vn -0.4942 0.8563 -0.1501
vn -0.4942 0.8556 -0.1539
vn -0.2558 0.9639 -0.0743
vn -0.3775 0.9133 -0.1529
vn -0.9551 0.2561 -0.1490
vn -0.9546 0.2559 -0.1527
vn -0.9883 -0.0000 -0.1526
vn -0.9889 -0.0000 -0.1488
vn 0.0000 1.0000 -0.0038
vn -0.2588 0.9659 -0.0038
vn -0.5000 0.8660 -0.0038
vn -0.9659 0.2588 -0.0038
vn -0.8660 0.5000 -0.0038
vn -1.0000 -0.0000 -0.0038
vn -0.7071 0.7071 -0.0038
vn 0.8658 0.4999 -0.0204
vn 0.9657 0.2588 -0.0204
vn 0.9998 0.0000 -0.0204
vn 0.4999 0.8658 -0.0204
vn 0.7070 0.7070 -0.0204
vn 0.2588 0.9657 -0.0204
vn 0.6991 0.6992 -0.1497
vn 0.8563 0.4945 -0.1494
vn 0.8559 0.4940 -0.1531
vn 0.6988 0.6986 -0.1535
vn 0.4942 0.8563 -0.1501
vn 0.4942 0.8556 -0.1539
vn 0.2558 0.9639 -0.0743
vn 0.3775 0.9133 -0.1529
vn 0.9551 0.2561 -0.1490
vn 0.9889 -0.0000 -0.1488
vn 0.9883 0.0000 -0.1526
vn 0.9546 0.2559 -0.1527
vn 0.2588 0.9659 -0.0038
vn 0.5000 0.8660 -0.0038
vn 0.8660 0.5000 -0.0038
vn 0.9659 0.2588 -0.0038
vn 1.0000 -0.0000 -0.0038
vn 0.7071 0.7071 -0.0038
vn -0.8658 -0.4999 -0.0204
vn -0.9657 -0.2588 -0.0204
vn -0.4999 -0.8658 -0.0204
vn -0.7070 -0.7070 -0.0204
vn 0.0000 -0.9998 -0.0204
vn -0.2588 -0.9657 -0.0204
vn -0.6991 -0.6992 -0.1497
vn -0.8563 -0.4945 -0.1494
vn -0.8559 -0.4940 -0.1531
vn -0.6988 -0.6986 -0.1535
vn -0.4942 -0.8563 -0.1501
vn -0.4942 -0.8556 -0.1539
vn -0.2558 -0.9639 -0.0743
vn -0.3775 -0.9133 -0.1529
vn -0.9551 -0.2561 -0.1490
vn -0.9546 -0.2559 -0.1527
vn 0.0000 -1.0000 -0.0038
vn -0.2588 -0.9659 -0.0038
vn -0.5000 -0.8660 -0.0038
vn -0.8660 -0.5000 -0.0038
vn -0.9659 -0.2588 -0.0038
vn -0.7071 -0.7071 -0.0038
vn 0.8658 -0.4999 -0.0204
vn 0.9657 -0.2588 -0.0204
vn 0.4999 -0.8658 -0.0204
vn 0.7070 -0.7070 -0.0204
vn 0.2588 -0.9657 -0.0204
vn 0.6991 -0.6992 -0.1497
vn 0.6988 -0.6986 -0.1535
vn 0.8559 -0.4940 -0.1531
vn 0.8563 -0.4945 -0.1494
vn 0.4942 -0.8563 -0.1501
vn 0.4942 -0.8556 -0.1539
vn 0.2558 -0.9639 -0.0743
vn 0.3775 -0.9133 -0.1529
vn 0.9551 -0.2561 -0.1490
vn 0.9546 -0.2559 -0.1527
vn 0.2588 -0.9659 -0.0038
vn 0.5000 -0.8660 -0.0038
vn 0.9659 -0.2588 -0.0038
vn 0.8660 -0.5000 -0.0038
vn 0.7071 -0.7071 -0.0038
vn -0.0000 0.9994 0.0349
vn -0.2587 0.9653 0.0349
vn 0.0000 0.9981 0.0619
vn -0.2583 0.9641 0.0619
vn -0.4990 0.8644 0.0619
vn -0.4997 0.8655 0.0349
vn -0.7067 0.7067 0.0349
vn -0.7057 0.7058 0.0619
vn -0.8644 0.4990 0.0619
vn -0.8655 0.4997 0.0349
vn -0.9653 0.2587 0.0349
vn -0.9641 0.2583 0.0619
vn -0.9981 -0.0000 0.0619
vn -0.9994 0.0000 0.0349
vn 0.0000 0.9673 0.2535
vn -0.2504 0.9344 0.2535
vn 0.0000 0.1872 0.9823
vn -0.0484 0.1808 0.9823
vn -0.0936 0.1621 0.9823
vn -0.4837 0.8377 0.2535
vn -0.6840 0.6840 0.2535
vn -0.1324 0.1324 0.9823
vn -0.1621 0.0936 0.9823
vn -0.8377 0.4837 0.2535
vn -0.9344 0.2504 0.2535
vn -0.1808 0.0484 0.9823
vn -0.1872 -0.0000 0.9823
vn -0.9673 0.0000 0.2535
vn 0.2587 0.9653 0.0349
vn 0.2583 0.9641 0.0619
vn 0.4997 0.8655 0.0349
vn 0.4990 0.8644 0.0619
vn 0.7067 0.7067 0.0349
vn 0.7057 0.7058 0.0619
vn 0.8655 0.4997 0.0349
vn 0.8644 0.4990 0.0619
vn 0.9653 0.2587 0.0349
vn 0.9641 0.2583 0.0619
vn 0.9994 0.0000 0.0349
vn 0.9981 -0.0000 0.0619
vn 0.2504 0.9344 0.2535
vn 0.0485 0.1808 0.9823
vn 0.0936 0.1621 0.9823
vn 0.4837 0.8377 0.2535
vn 0.6840 0.6840 0.2535
vn 0.1324 0.1324 0.9823
vn 0.1621 0.0936 0.9823
vn 0.8377 0.4837 0.2535
vn 0.9344 0.2504 0.2535
vn 0.1808 0.0484 0.9823
vn 0.1872 0.0000 0.9823
vn 0.9673 0.0000 0.2535
vn -0.2587 -0.9653 0.0349
vn 0.0000 -0.9994 0.0349
vn -0.2583 -0.9641 0.0619
vn 0.0000 -0.9981 0.0619
vn -0.4997 -0.8655 0.0349
vn -0.4990 -0.8644 0.0619
vn -0.7067 -0.7067 0.0349
vn -0.7057 -0.7058 0.0619
vn -0.8655 -0.4997 0.0349
vn -0.8644 -0.4990 0.0619
vn -0.9653 -0.2587 0.0349
vn -0.9641 -0.2583 0.0619
vn -0.0000 -0.9673 0.2535
vn -0.2504 -0.9344 0.2535
vn -0.0000 -0.1872 0.9823
vn -0.0485 -0.1808 0.9823
vn -0.0936 -0.1621 0.9823
vn -0.4837 -0.8377 0.2535
vn -0.6840 -0.6840 0.2535
vn -0.1324 -0.1324 0.9823
vn -0.1621 -0.0936 0.9823
vn -0.8377 -0.4837 0.2535
vn -0.9344 -0.2504 0.2535
vn -0.1808 -0.0484 0.9823
vn 0.2587 -0.9653 0.0349
vn 0.2583 -0.9641 0.0619
vn 0.4990 -0.8644 0.0619
vn 0.4997 -0.8655 0.0349
vn 0.7067 -0.7067 0.0349
vn 0.7057 -0.7058 0.0619
vn 0.8644 -0.4990 0.0619
vn 0.8655 -0.4997 0.0349
vn 0.9653 -0.2587 0.0349
vn 0.9641 -0.2583 0.0619
vn 0.2504 -0.9344 0.2535
vn 0.0484 -0.1808 0.9823
vn 0.0936 -0.1621 0.9823
vn 0.4837 -0.8377 0.2535
vn 0.6840 -0.6840 0.2535
vn 0.1324 -0.1324 0.9823
vn 0.1621 -0.0936 0.9823
vn 0.8377 -0.4837 0.2535
vn 0.9344 -0.2504 0.2535
vn 0.1808 -0.0484 0.9823
vn -0.2587 0.9653 -0.0349
vn 0.0000 0.9994 -0.0349
vn -0.2583 0.9641 -0.0619
vn 0.0000 0.9981 -0.0619
vn -0.4997 0.8655 -0.0349
vn -0.4990 0.8644 -0.0619
vn -0.7067 0.7067 -0.0349
vn -0.7057 0.7058 -0.0619
vn -0.8655 0.4997 -0.0349
vn -0.8644 0.4990 -0.0619
vn -0.9653 0.2587 -0.0349
vn -0.9641 0.2583 -0.0619
vn -0.9994 -0.0000 -0.0349
vn -0.9981 0.0000 -0.0619
vn -0.0000 0.9673 -0.2535
vn -0.2504 0.9344 -0.2535
vn -0.0000 0.1872 -0.9823
vn -0.0485 0.1808 -0.9823
vn -0.0936 0.1621 -0.9823
vn -0.4837 0.8377 -0.2535
vn -0.6840 0.6840 -0.2535
vn -0.1324 0.1324 -0.9823
vn -0.1621 0.0936 -0.9823
vn -0.8377 0.4837 -0.2535
vn -0.9344 0.2504 -0.2535
vn -0.1808 0.0484 -0.9823
vn -0.1872 0.0000 -0.9823
vn -0.9673 -0.0000 -0.2535
vn 0.2587 0.9653 -0.0349
vn 0.2583 0.9641 -0.0619
vn 0.4990 0.8644 -0.0619
vn 0.4997 0.8655 -0.0349
vn 0.7067 0.7067 -0.0349
vn 0.7057 0.7058 -0.0619
vn 0.8644 0.4990 -0.0619
vn 0.8655 0.4997 -0.0349
vn 0.9653 0.2587 -0.0349
vn 0.9641 0.2583 -0.0619
vn 0.9981 0.0000 -0.0619
vn 0.9994 -0.0000 -0.0349
vn 0.2504 0.9344 -0.2535
vn 0.0484 0.1808 -0.9823
vn 0.0936 0.1621 -0.9823
vn 0.4837 0.8377 -0.2535
vn 0.6840 0.6840 -0.2535
vn 0.1324 0.1324 -0.9823
vn 0.1621 0.0936 -0.9823
vn 0.8377 0.4837 -0.2535
vn 0.9344 0.2504 -0.2535
vn 0.1808 0.0484 -0.9823
vn 0.1872 -0.0000 -0.9823
vn 0.9673 -0.0000 -0.2535
vn -0.0000 -0.9994 -0.0349
vn -0.2587 -0.9653 -0.0349
vn 0.0000 -0.9981 -0.0619
vn -0.2583 -0.9641 -0.0619
vn -0.4990 -0.8644 -0.0619
vn -0.4997 -0.8655 -0.0349
vn -0.7067 -0.7067 -0.0349
vn -0.7057 -0.7058 -0.0619
vn -0.8644 -0.4990 -0.0619
vn -0.8655 -0.4997 -0.0349
vn -0.9653 -0.2587 -0.0349
vn -0.9641 -0.2583 -0.0619
vn 0.0000 -0.9673 -0.2535
vn -0.2504 -0.9344 -0.2535
vn 0.0000 -0.1872 -0.9823
vn -0.0484 -0.1808 -0.9823
vn -0.0936 -0.1621 -0.9823
vn -0.4837 -0.8377 -0.2535
vn -0.6840 -0.6840 -0.2535
vn -0.1324 -0.1324 -0.9823
vn -0.1621 -0.0936 -0.9823
vn -0.8377 -0.4837 -0.2535
vn -0.9344 -0.2504 -0.2535
vn -0.1808 -0.0484 -0.9823
vn 0.2587 -0.9653 -0.0349
vn 0.2583 -0.9641 -0.0619
vn 0.4997 -0.8655 -0.0349
vn 0.4990 -0.8644 -0.0619
vn 0.7067 -0.7067 -0.0349
vn 0.7057 -0.7058 -0.0619
vn 0.8655 -0.4997 -0.0349
vn 0.8644 -0.4990 -0.0619
vn 0.9653 -0.2587 -0.0349
vn 0.9641 -0.2583 -0.0619
vn 0.2504 -0.9344 -0.2535
vn 0.0485 -0.1808 -0.9823
vn 0.0936 -0.1621 -0.9823
vn 0.4837 -0.8377 -0.2535
vn 0.6840 -0.6840 -0.2535
vn 0.1324 -0.1324 -0.9823
vn 0.1621 -0.0936 -0.9823
vn 0.8377 -0.4837 -0.2535
vn 0.9344 -0.2504 -0.2535
vn 0.1808 -0.0484 -0.9823
usemtl MI_Trim_01
s 1
f 4/1/1 23/2/2 35/3/2 12/4/1
f 35/3/2 23/2/2 5/5/3 13/6/3
f 3/7/4 24/8/5 34/9/5 11/10/4
f 34/9/5 24/8/5 4/1/1 12/4/1
f 2/11/6 25/12/7 33/13/7 10/14/6
f 33/13/7 25/12/7 3/7/4 11/10/4
f 37/15/8 16/16/9 57/17/10 62/18/11
f 15/19/12 37/15/8 62/18/11 54/20/13
f 38/21/14 15/19/12 54/20/13 63/22/15
f 14/23/16 38/24/14 22/25/17 1/26/16
f 36/27/18 17/28/19 60/29/20 61/30/21
f 18/31/22 45/32/23 38/33/14 14/34/16
f 38/33/14 45/32/23 19/35/24 15/36/12
f 16/37/9 20/38/25 43/39/26 36/40/18
f 36/40/18 43/39/26 21/41/27 17/42/19
f 19/35/24 44/43/28 37/44/8 15/36/12
f 37/44/8 44/43/28 20/38/25 16/37/9
f 57/45/10 61/46/21 58/47/29 56/48/30
f 58/47/29 61/46/21 60/49/20 59/50/31
f 54/51/13 62/52/11 55/53/32 53/54/33
f 55/53/32 62/52/11 57/45/10 56/48/30
f 52/55/34 63/56/15 54/57/13 53/58/33
f 16/16/9 36/27/18 61/30/21 57/17/10
f 22/59/35 38/60/35 63/61/35 52/62/35
f 65/63/36 71/64/36 91/65/37 80/66/37
f 91/65/37 72/67/38 66/68/38 80/66/37
f 64/69/39 70/70/39 90/71/40 81/72/40
f 90/71/40 71/64/36 65/63/36 81/72/40
f 2/11/6 10/14/6 89/73/41 82/74/41
f 89/73/41 70/70/39 64/69/39 82/74/41
f 93/75/42 117/76/43 112/77/44 74/78/45
f 73/79/46 109/80/47 117/76/43 93/75/42
f 94/81/48 118/82/49 109/80/47 73/79/46
f 14/23/16 1/26/16 79/83/50 94/84/48
f 92/85/51 116/86/52 115/87/53 75/88/54
f 18/31/22 14/34/16 94/89/48 100/90/55
f 94/89/48 73/91/46 76/92/56 100/90/55
f 74/93/45 92/94/51 98/95/57 77/96/58
f 92/94/51 75/97/54 78/98/59 98/95/57
f 76/92/56 73/91/46 93/99/42 99/100/60
f 93/99/42 74/93/45 77/96/58 99/100/60
f 112/101/44 111/102/61 113/103/62 116/104/52
f 113/103/62 114/105/63 115/106/53 116/104/52
f 109/107/47 108/108/64 110/109/65 117/110/43
f 110/109/65 111/102/61 112/101/44 117/110/43
f 107/111/66 108/112/64 109/113/47 118/114/49
f 74/78/45 112/77/44 116/86/52 92/85/51
f 79/115/67 107/116/67 118/117/67 94/118/67
f 122/119/68 128/120/68 147/121/69 136/122/69
f 147/121/69 13/6/3 5/5/3 136/122/69
f 121/123/70 127/124/70 146/125/71 137/126/71
f 146/125/71 128/120/68 122/119/68 137/126/71
f 120/127/72 126/128/72 145/129/73 138/130/73
f 145/129/73 127/124/70 121/123/70 138/130/73
f 149/131/74 171/132/75 168/133/76 131/134/77
f 130/135/78 165/136/79 171/132/75 149/131/74
f 150/137/80 172/138/81 165/136/79 130/135/78
f 129/139/82 119/140/82 135/141/83 150/142/80
f 148/143/84 170/144/85 60/29/20 17/28/19
f 132/145/86 129/146/82 150/147/80 156/148/87
f 150/147/80 130/149/78 133/150/88 156/148/87
f 131/151/77 148/152/84 154/153/89 134/154/90
f 148/152/84 17/42/19 21/41/27 154/153/89
f 133/150/88 130/149/78 149/155/74 155/156/91
f 149/155/74 131/151/77 134/154/90 155/156/91
f 168/157/76 167/158/92 169/159/93 170/160/85
f 169/159/93 59/50/31 60/49/20 170/160/85
f 165/161/79 164/162/94 166/163/95 171/164/75
f 166/163/95 167/158/92 168/157/76 171/164/75
f 163/165/96 164/166/94 165/167/79 172/168/81
f 131/134/77 168/133/76 170/144/85 148/143/84
f 135/169/97 163/170/97 172/171/97 150/172/97
f 174/173/98 184/174/99 194/175/99 178/176/98
f 194/175/99 184/174/99 66/68/38 72/67/38
f 173/177/100 185/178/101 193/179/101 177/180/100
f 193/179/101 185/178/101 174/173/98 178/176/98
f 120/127/72 186/181/102 192/182/102 126/128/72
f 192/182/102 186/181/102 173/177/100 177/180/100
f 196/183/103 180/184/104 214/185/105 217/186/106
f 179/187/107 196/183/103 217/186/106 211/188/108
f 197/189/109 179/187/107 211/188/108 218/190/110
f 129/139/82 197/191/109 183/192/111 119/140/82
f 195/193/112 75/88/54 115/87/53 216/194/113
f 132/145/86 202/195/114 197/196/109 129/146/82
f 197/196/109 202/195/114 181/197/115 179/198/107
f 180/199/104 182/200/116 200/201/117 195/202/112
f 195/202/112 200/201/117 78/98/59 75/97/54
f 181/197/115 201/203/118 196/204/103 179/198/107
f 196/204/103 201/203/118 182/200/116 180/199/104
f 214/205/105 216/206/113 215/207/119 213/208/120
f 215/207/119 216/206/113 115/106/53 114/105/63
f 211/209/108 217/210/106 212/211/121 210/212/122
f 212/211/121 217/210/106 214/205/105 213/208/120
f 209/213/123 218/214/110 211/215/108 210/216/122
f 180/184/104 195/193/112 216/194/113 214/185/105
f 183/217/124 197/218/124 218/219/124 209/220/124
f 221/221/125 229/222/125 251/223/126 239/224/126
f 251/223/126 230/225/127 222/226/127 239/224/126
f 220/227/128 228/228/128 250/229/129 240/230/129
f 250/229/129 229/222/125 221/221/125 240/230/129
f 219/231/130 227/232/130 249/233/131 241/234/131
f 249/233/131 228/228/128 220/227/128 241/234/131
f 253/235/132 272/236/133 269/237/134 233/238/135
f 232/239/136 268/240/137 272/236/133 253/235/132
f 254/241/138 273/242/139 268/240/137 232/239/136
f 231/243/16 1/26/16 22/25/17 254/244/138
f 252/245/140 271/246/141 270/247/142 234/248/143
f 235/249/144 231/250/16 254/251/138 261/252/145
f 254/251/138 232/253/136 236/254/146 261/252/145
f 233/255/135 252/256/140 259/257/147 237/258/148
f 252/256/140 234/259/143 238/260/149 259/257/147
f 236/254/146 232/253/136 253/261/132 260/262/150
f 253/261/132 233/255/135 237/258/148 260/262/150
f 269/263/134 56/48/30 58/47/29 271/264/141
f 58/47/29 59/50/31 270/265/142 271/264/141
f 268/266/137 53/54/33 55/53/32 272/267/133
f 55/53/32 56/48/30 269/263/134 272/267/133
f 52/55/34 53/58/33 268/268/137 273/269/139
f 233/238/135 269/237/134 271/246/141 252/245/140
f 22/59/35 52/62/35 273/270/35 254/271/35
f 275/272/151 289/273/152 300/274/152 281/275/151
f 300/274/152 289/273/152 276/276/153 282/277/153
f 274/278/154 290/279/155 299/280/155 280/281/154
f 299/280/155 290/279/155 275/272/151 281/275/151
f 219/231/130 291/282/156 298/283/156 227/232/130
f 298/283/156 291/282/156 274/278/154 280/281/154
f 302/284/157 284/285/158 317/286/159 320/287/160
f 283/288/161 302/284/157 320/287/160 316/289/162
f 303/290/163 283/288/161 316/289/162 321/291/164
f 231/243/16 303/292/163 79/83/50 1/26/16
f 301/293/165 285/294/166 318/295/167 319/296/168
f 235/249/144 309/297/169 303/298/163 231/250/16
f 303/298/163 309/297/169 286/299/170 283/300/161
f 284/301/158 287/302/171 307/303/172 301/304/165
f 301/304/165 307/303/172 288/305/173 285/306/166
f 286/299/170 308/307/174 302/308/157 283/300/161
f 302/308/157 308/307/174 287/302/171 284/301/158
f 317/309/159 319/310/168 113/103/62 111/102/61
f 113/103/62 319/310/168 318/311/167 114/105/63
f 316/312/162 320/313/160 110/109/65 108/108/64
f 110/109/65 320/313/160 317/309/159 111/102/61
f 107/111/66 321/314/164 316/315/162 108/112/64
f 284/285/158 301/293/165 319/296/168 317/286/159
f 79/115/67 303/316/67 321/317/67 107/116/67
f 324/318/175 337/319/176 348/320/176 330/321/175
f 348/320/176 337/319/176 222/226/127 230/225/127
f 323/322/177 338/323/178 347/324/178 329/325/177
f 347/324/178 338/323/178 324/318/175 330/321/175
f 322/326/179 339/327/180 346/328/180 328/329/179
f 346/328/180 339/327/180 323/322/177 329/325/177
f 350/330/181 333/331/182 365/332/183 367/333/184
f 332/334/185 350/330/181 367/333/184 364/335/186
f 351/336/187 332/334/185 364/335/186 368/337/188
f 331/338/82 351/339/187 135/141/83 119/140/82
f 349/340/189 234/248/143 270/247/142 366/341/190
f 334/342/191 357/343/192 351/344/187 331/345/82
f 351/344/187 357/343/192 335/346/193 332/347/185
f 333/348/182 336/349/194 355/350/195 349/351/189
f 349/351/189 355/350/195 238/260/149 234/259/143
f 335/346/193 356/352/196 350/353/181 332/347/185
f 350/353/181 356/352/196 336/349/194 333/348/182
f 365/354/183 366/355/190 169/159/93 167/158/92
f 169/159/93 366/355/190 270/265/142 59/50/31
f 364/356/186 367/357/184 166/163/95 164/162/94
f 166/163/95 367/357/184 365/354/183 167/158/92
f 163/165/96 368/358/188 364/359/186 164/166/94
f 333/331/182 349/340/189 366/341/190 365/332/183
f 135/169/97 351/360/97 368/361/97 163/170/97
f 370/362/197 374/363/197 389/364/198 379/365/198
f 389/364/198 282/277/153 276/276/153 379/365/198
f 369/366/199 373/367/199 388/368/200 380/369/200
f 388/368/200 374/363/197 370/362/197 380/369/200
f 322/326/179 328/329/179 387/370/201 381/371/201
f 387/370/201 373/367/199 369/366/199 381/371/201
f 391/372/202 407/373/203 405/374/204 376/375/205
f 375/376/206 404/377/207 407/373/203 391/372/202
f 392/378/208 408/379/209 404/377/207 375/376/206
f 331/338/82 119/140/82 183/192/111 392/380/208
f 390/381/210 406/382/211 318/295/167 285/294/166
f 334/342/191 331/345/82 392/383/208 397/384/212
f 392/383/208 375/385/206 377/386/213 397/384/212
f 376/387/205 390/388/210 395/389/214 378/390/215
f 390/388/210 285/306/166 288/305/173 395/389/214
f 377/386/213 375/385/206 391/391/202 396/392/216
f 391/391/202 376/387/205 378/390/215 396/392/216
f 405/393/204 213/208/120 215/207/119 406/394/211
f 215/207/119 114/105/63 318/311/167 406/394/211
f 404/395/207 210/212/122 212/211/121 407/396/203
f 212/211/121 213/208/120 405/393/204 407/396/203
f 209/213/123 210/216/122 404/397/207 408/398/209
f 376/375/205 405/374/204 406/382/211 390/381/210
f 183/217/124 209/220/124 408/399/124 392/400/124
usemtl MI_Trim_02
f 18/401/22 39/402/217 46/403/218 45/404/23
f 39/402/217 6/405/219 30/406/220 46/403/218
f 46/403/218 30/406/220 7/407/221 40/408/222
f 45/404/23 46/403/218 40/408/222 19/409/24
f 19/409/24 40/408/222 47/410/223 44/411/28
f 40/408/222 7/407/221 31/412/224 47/410/223
f 47/410/223 31/412/224 8/413/225 41/414/226
f 44/411/28 47/410/223 41/414/226 20/415/25
f 20/415/25 41/414/226 48/416/227 43/417/26
f 41/414/226 8/413/225 32/418/228 48/416/227
f 48/416/227 32/418/228 9/419/229 42/420/230
f 43/417/26 48/416/227 42/420/230 21/421/27
f 6/422/231 26/423/231 49/424/232 30/425/232
f 26/423/233 10/426/233 33/427/234 49/424/234
f 49/424/234 33/427/234 11/428/235 27/429/235
f 30/425/232 49/424/232 27/429/236 7/430/236
f 7/430/236 27/429/236 50/431/237 31/432/237
f 27/429/235 11/428/235 34/433/238 50/431/238
f 50/431/238 34/433/238 12/434/239 28/435/239
f 31/432/237 50/431/237 28/435/240 8/436/240
f 8/436/240 28/435/240 51/437/241 32/438/241
f 28/435/239 12/434/239 35/439/242 51/437/242
f 51/437/242 35/439/242 13/440/243 29/441/243
f 32/438/241 51/437/241 29/441/244 9/442/244
f 18/401/22 100/443/55 101/444/245 39/402/217
f 39/402/217 101/444/245 86/445/246 6/405/219
f 101/444/245 95/446/247 67/447/248 86/445/246
f 100/443/55 76/448/56 95/446/247 101/444/245
f 76/448/56 99/449/60 102/450/249 95/446/247
f 95/446/247 102/450/249 87/451/250 67/447/248
f 102/450/249 96/452/251 68/453/252 87/451/250
f 99/449/60 77/454/58 96/452/251 102/450/249
f 77/454/58 98/455/57 103/456/253 96/452/251
f 96/452/251 103/456/253 88/457/254 68/453/252
f 103/456/253 97/458/255 69/459/256 88/457/254
f 98/455/57 78/460/59 97/458/255 103/456/253
f 6/422/231 86/461/257 104/462/257 26/423/231
f 26/423/233 104/462/258 89/463/258 10/426/233
f 104/462/258 83/464/259 70/465/259 89/463/258
f 86/461/257 67/466/260 83/464/260 104/462/257
f 67/466/260 87/467/261 105/468/261 83/464/260
f 83/464/259 105/468/262 90/469/262 70/465/259
f 105/468/262 84/470/263 71/471/263 90/469/262
f 87/467/261 68/472/264 84/470/264 105/468/261
f 68/472/264 88/473/265 106/474/265 84/470/264
f 84/470/263 106/474/266 91/475/266 71/471/263
f 106/474/266 85/476/267 72/477/267 91/475/266
f 88/473/265 69/478/268 85/476/268 106/474/265
f 132/479/86 156/480/87 157/481/269 151/482/270
f 151/482/270 157/481/269 142/483/271 123/484/272
f 157/481/269 152/485/273 124/486/274 142/483/271
f 156/480/87 133/487/88 152/485/273 157/481/269
f 133/487/88 155/488/91 158/489/275 152/485/273
f 152/485/273 158/489/275 143/490/276 124/486/274
f 158/489/275 153/491/277 125/492/278 143/490/276
f 155/488/91 134/493/90 153/491/277 158/489/275
f 134/493/90 154/494/89 159/495/279 153/491/277
f 153/491/277 159/495/279 144/496/280 125/492/278
f 159/495/279 42/420/230 9/419/229 144/496/280
f 154/494/89 21/421/27 42/420/230 159/495/279
f 123/497/281 142/498/282 160/499/282 139/500/281
f 139/500/283 160/499/284 145/501/284 126/502/283
f 160/499/284 140/503/285 127/504/285 145/501/284
f 142/498/282 124/505/286 140/503/286 160/499/282
f 124/505/286 143/506/287 161/507/287 140/503/286
f 140/503/285 161/507/288 146/508/288 127/504/285
f 161/507/288 141/509/289 128/510/289 146/508/288
f 143/506/287 125/511/290 141/509/290 161/507/287
f 125/511/290 144/512/291 162/513/291 141/509/290
f 141/509/289 162/513/292 147/514/292 128/510/289
f 162/513/292 29/441/243 13/440/243 147/514/292
f 144/512/291 9/442/244 29/441/244 162/513/291
f 132/479/86 151/482/270 203/515/293 202/516/114
f 151/482/270 123/484/272 189/517/294 203/515/293
f 203/515/293 189/517/294 175/518/295 198/519/296
f 202/516/114 203/515/293 198/519/296 181/520/115
f 181/520/115 198/519/296 204/521/297 201/522/118
f 198/519/296 175/518/295 190/523/298 204/521/297
f 204/521/297 190/523/298 176/524/299 199/525/300
f 201/522/118 204/521/297 199/525/300 182/526/116
f 182/526/116 199/525/300 205/527/301 200/528/117
f 199/525/300 176/524/299 191/529/302 205/527/301
f 205/527/301 191/529/302 69/459/256 97/458/255
f 200/528/117 205/527/301 97/458/255 78/460/59
f 123/497/281 139/500/281 206/530/303 189/531/303
f 139/500/283 126/502/283 192/532/304 206/530/304
f 206/530/304 192/532/304 177/533/305 187/534/305
f 189/531/303 206/530/303 187/534/306 175/535/306
f 175/535/306 187/534/306 207/536/307 190/537/307
f 187/534/305 177/533/305 193/538/308 207/536/308
f 207/536/308 193/538/308 178/539/309 188/540/309
f 190/537/307 207/536/307 188/540/310 176/541/310
f 176/541/310 188/540/310 208/542/311 191/543/311
f 188/540/309 178/539/309 194/544/312 208/542/312
f 208/542/312 194/544/312 72/477/267 85/476/267
f 191/543/311 208/542/311 85/476/268 69/478/268
f 235/545/144 261/546/145 262/547/313 255/548/314
f 255/548/314 262/547/313 246/549/315 223/550/316
f 262/547/313 256/551/317 224/552/318 246/549/315
f 261/546/145 236/553/146 256/551/317 262/547/313
f 236/553/146 260/554/150 263/555/319 256/551/317
f 256/551/317 263/555/319 247/556/320 224/552/318
f 263/555/319 257/557/321 225/558/322 247/556/320
f 260/554/150 237/559/148 257/557/321 263/555/319
f 237/559/148 259/560/147 264/561/323 257/557/321
f 257/557/321 264/561/323 248/562/324 225/558/322
f 264/561/323 258/563/325 226/564/326 248/562/324
f 259/560/147 238/565/149 258/563/325 264/561/323
f 223/566/327 246/567/328 265/568/328 242/569/327
f 242/569/329 265/568/330 249/570/330 227/571/329
f 265/568/330 243/572/331 228/573/331 249/570/330
f 246/567/328 224/574/332 243/572/332 265/568/328
f 224/574/332 247/575/333 266/576/333 243/572/332
f 243/572/331 266/576/334 250/577/334 228/573/331
f 266/576/334 244/578/335 229/579/335 250/577/334
f 247/575/333 225/580/336 244/578/336 266/576/333
f 225/580/336 248/581/337 267/582/337 244/578/336
f 244/578/335 267/582/338 251/583/338 229/579/335
f 267/582/338 245/584/339 230/585/339 251/583/338
f 248/581/337 226/586/340 245/584/340 267/582/337
f 235/545/144 255/548/314 310/587/341 309/588/169
f 255/548/314 223/550/316 295/589/342 310/587/341
f 310/587/341 295/589/342 277/590/343 304/591/344
f 309/588/169 310/587/341 304/591/344 286/592/170
f 286/592/170 304/591/344 311/593/345 308/594/174
f 304/591/344 277/590/343 296/595/346 311/593/345
f 311/593/345 296/595/346 278/596/347 305/597/348
f 308/594/174 311/593/345 305/597/348 287/598/171
f 287/598/171 305/597/348 312/599/349 307/600/172
f 305/597/348 278/596/347 297/601/350 312/599/349
f 312/599/349 297/601/350 279/602/351 306/603/352
f 307/600/172 312/599/349 306/603/352 288/604/173
f 223/566/327 242/569/327 313/605/353 295/606/353
f 242/569/329 227/571/329 298/607/354 313/605/354
f 313/605/354 298/607/354 280/608/355 292/609/355
f 295/606/353 313/605/353 292/609/356 277/610/356
f 277/610/356 292/609/356 314/611/357 296/612/357
f 292/609/355 280/608/355 299/613/358 314/611/358
f 314/611/358 299/613/358 281/614/359 293/615/359
f 296/612/357 314/611/357 293/615/360 278/616/360
f 278/616/360 293/615/360 315/617/361 297/618/361
f 293/615/359 281/614/359 300/619/362 315/617/362
f 315/617/362 300/619/362 282/620/363 294/621/363
f 297/618/361 315/617/361 294/621/364 279/622/364
f 334/623/191 352/624/365 358/625/366 357/626/192
f 352/624/365 325/627/367 343/628/368 358/625/366
f 358/625/366 343/628/368 326/629/369 353/630/370
f 357/626/192 358/625/366 353/630/370 335/631/193
f 335/631/193 353/630/370 359/632/371 356/633/196
f 353/630/370 326/629/369 344/634/372 359/632/371
f 359/632/371 344/634/372 327/635/373 354/636/374
f 356/633/196 359/632/371 354/636/374 336/637/194
f 336/637/194 354/636/374 360/638/375 355/639/195
f 354/636/374 327/635/373 345/640/376 360/638/375
f 360/638/375 345/640/376 226/564/326 258/563/325
f 355/639/195 360/638/375 258/563/325 238/565/149
f 325/641/377 340/642/377 361/643/378 343/644/378
f 340/642/379 328/645/379 346/646/380 361/643/380
f 361/643/380 346/646/380 329/647/381 341/648/381
f 343/644/378 361/643/378 341/648/382 326/649/382
f 326/649/382 341/648/382 362/650/383 344/651/383
f 341/648/381 329/647/381 347/652/384 362/650/384
f 362/650/384 347/652/384 330/653/385 342/654/385
f 344/651/383 362/650/383 342/654/386 327/655/386
f 327/655/386 342/654/386 363/656/387 345/657/387
f 342/654/385 330/653/385 348/658/388 363/656/388
f 363/656/388 348/658/388 230/585/339 245/584/339
f 345/657/387 363/656/387 245/584/340 226/586/340
f 334/623/191 397/659/212 398/660/389 352/624/365
f 352/624/365 398/660/389 384/661/390 325/627/367
f 398/660/389 393/662/391 371/663/392 384/661/390
f 397/659/212 377/664/213 393/662/391 398/660/389
f 377/664/213 396/665/216 399/666/393 393/662/391
f 393/662/391 399/666/393 385/667/394 371/663/392
f 399/666/393 394/668/395 372/669/396 385/667/394
f 396/665/216 378/670/215 394/668/395 399/666/393
f 378/670/215 395/671/214 400/672/397 394/668/395
f 394/668/395 400/672/397 386/673/398 372/669/396
f 400/672/397 306/603/352 279/602/351 386/673/398
f 395/671/214 288/604/173 306/603/352 400/672/397
f 325/641/377 384/674/399 401/675/399 340/642/377
f 340/642/379 401/675/400 387/676/400 328/645/379
f 401/675/400 382/677/401 373/678/401 387/676/400
f 384/674/399 371/679/402 382/677/402 401/675/399
f 371/679/402 385/680/403 402/681/403 382/677/402
f 382/677/401 402/681/404 388/682/404 373/678/401
f 402/681/404 383/683/405 374/684/405 388/682/404
f 385/680/403 372/685/406 383/683/406 402/681/403
f 372/685/406 386/686/407 403/687/407 383/683/406
f 383/683/405 403/687/408 389/688/408 374/684/405
f 403/687/408 294/621/363 282/620/363 389/688/408
f 386/686/407 279/622/364 294/621/364 403/687/407
