# Blender v3.6.0 OBJ File: 'AllModules_Unreal.blend'
# www.blender.org
mtllib Prop_AccessPoint_Short.mtl
o Prop_AccessPoint_Short_Plane.267
v 0.220585 1.258943 0.425012
v -0.220584 1.258943 0.425012
v 0.220585 1.484807 0.031122
v -0.220584 1.484807 0.031122
v 0.141240 1.111772 0.425012
v -0.141240 1.111772 0.425012
v -0.141240 1.258943 0.425012
v 0.141240 1.258943 0.425012
v -0.211121 1.167617 0.425012
v -0.180912 1.258943 0.425012
v 0.211121 1.167617 0.425012
v 0.180912 1.258943 0.425012
v 0.220585 1.223462 0.260587
v -0.141240 1.111772 0.260587
v -0.220584 1.223462 0.260587
v 0.141240 1.111772 0.260587
v 0.220585 1.423368 0.260587
v 0.141240 1.423368 0.260587
v 0.180912 1.423368 0.260587
v -0.211121 1.167617 0.260587
v 0.211121 1.167617 0.260587
v -0.220584 1.423368 0.260587
v 0.141240 1.111772 0.374717
v 0.220585 1.223462 0.374717
v -0.141240 1.111772 0.374717
v -0.220584 1.223462 0.374717
v -0.211121 1.167617 0.374717
v 0.211121 1.167617 0.374717
v 0.220585 1.484807 0.117304
v -0.220584 1.339336 0.260587
v 0.220585 1.339336 0.260587
v 0.181074 1.484807 0.117304
v 0.141489 1.484807 0.117304
v -0.141240 1.423368 0.260587
v -0.180912 1.423368 0.260587
v -0.220584 1.484807 0.117304
v -0.181074 1.484807 0.117304
v -0.141489 1.484807 0.117304
v -0.187386 1.137111 0.374717
v -0.187386 1.137111 0.260587
v -0.187386 1.137111 0.425012
v 0.187386 1.137111 0.374717
v 0.187386 1.137111 0.425012
v -0.153031 1.137111 0.425012
v 0.187386 1.137111 0.260587
v 0.153032 1.137111 0.425012
v 0.220585 1.484807 0.151375
v 0.220585 1.451027 0.232928
v 0.220585 1.480282 0.179787
v 0.220585 1.467917 0.209637
v 0.141385 1.484807 0.151375
v 0.141240 1.451027 0.232928
v 0.141312 1.480282 0.179787
v 0.141259 1.467917 0.209637
v 0.181007 1.484807 0.151375
v 0.180912 1.451027 0.232928
v 0.180960 1.480282 0.179787
v 0.180925 1.467917 0.209637
v -0.141240 1.451027 0.232928
v -0.141385 1.484807 0.151375
v -0.141259 1.467917 0.209637
v -0.141312 1.480282 0.179787
v -0.220584 1.451027 0.232928
v -0.220584 1.484807 0.151375
v -0.220584 1.467917 0.209637
v -0.220584 1.480282 0.179787
v -0.181007 1.484807 0.151375
v -0.180912 1.451027 0.232928
v -0.180959 1.480282 0.179787
v -0.180925 1.467917 0.209637
v -0.166672 1.422852 0.252846
v -0.152780 1.446823 0.228875
v -0.164811 1.431243 0.244455
v -0.159726 1.440016 0.235682
v -0.118063 1.471372 0.204326
v -0.082486 1.481009 0.194689
v -0.108308 1.476191 0.199507
v -0.095286 1.479718 0.195980
v -0.082485 1.136657 0.539041
v -0.118063 1.146294 0.529404
v -0.095286 1.137948 0.537750
v -0.108308 1.141476 0.534222
v -0.152780 1.170843 0.504855
v -0.166672 1.194814 0.480884
v -0.159726 1.177650 0.498048
v -0.164810 1.186424 0.489274
v -0.127861 1.226180 0.497919
v -0.118036 1.209171 0.514929
v -0.126519 1.220127 0.503972
v -0.122977 1.214014 0.510086
v -0.088835 1.188522 0.535577
v -0.063035 1.181697 0.542403
v -0.082062 1.185181 0.538918
v -0.072792 1.182677 0.541422
v -0.063035 1.484371 0.239729
v -0.088835 1.477545 0.246554
v -0.072792 1.483390 0.240709
v -0.082062 1.480886 0.243213
v -0.118036 1.456897 0.267202
v -0.127861 1.439888 0.284212
v -0.122977 1.452054 0.272046
v -0.126519 1.445940 0.278159
v -0.139719 1.459501 0.250552
v -0.153615 1.435519 0.274533
v -0.146667 1.452692 0.257361
v -0.151753 1.443913 0.266139
v -0.107193 1.482501 0.227552
v -0.071572 1.492138 0.217915
v -0.097432 1.487319 0.222733
v -0.084394 1.490847 0.219206
v -0.139719 1.192520 0.517533
v -0.153615 1.216502 0.493551
v -0.146667 1.199329 0.510723
v -0.151753 1.208107 0.501945
v -0.107193 1.169520 0.540532
v -0.071571 1.159883 0.550169
v -0.097432 1.164702 0.545351
v -0.084393 1.161174 0.548878
v 0.000000 1.481009 0.194689
v -0.000000 1.492138 0.217914
v 0.000000 1.136657 0.539041
v 0.000000 1.159883 0.550169
v -0.000000 1.489788 0.234312
v -0.000000 1.176280 0.547819
v 0.166672 1.422852 0.252846
v 0.152780 1.446823 0.228875
v 0.164811 1.431243 0.244455
v 0.159726 1.440016 0.235681
v 0.118063 1.471372 0.204326
v 0.082486 1.481009 0.194689
v 0.108308 1.476191 0.199507
v 0.095286 1.479718 0.195980
v 0.082485 1.136657 0.539041
v 0.118063 1.146294 0.529404
v 0.095286 1.137948 0.537750
v 0.108308 1.141476 0.534222
v 0.152780 1.170843 0.504855
v 0.166671 1.194814 0.480884
v 0.159726 1.177650 0.498048
v 0.164810 1.186424 0.489274
v 0.127861 1.226180 0.497919
v 0.118036 1.209171 0.514929
v 0.126519 1.220127 0.503972
v 0.122977 1.214014 0.510086
v 0.088835 1.188522 0.535577
v 0.063035 1.181697 0.542403
v 0.082062 1.185181 0.538918
v 0.072792 1.182677 0.541422
v 0.063035 1.484371 0.239729
v 0.088835 1.477545 0.246554
v 0.072792 1.483390 0.240709
v 0.082062 1.480886 0.243213
v 0.118036 1.456897 0.267202
v 0.127861 1.439888 0.284212
v 0.122977 1.452054 0.272046
v 0.126519 1.445940 0.278159
v 0.139719 1.459501 0.250552
v 0.153615 1.435519 0.274533
v 0.146667 1.452692 0.257361
v 0.151753 1.443913 0.266139
v 0.107193 1.482501 0.227552
v 0.071572 1.492138 0.217915
v 0.097432 1.487319 0.222733
v 0.084394 1.490847 0.219206
v 0.139719 1.192520 0.517533
v 0.153615 1.216502 0.493551
v 0.146667 1.199329 0.510723
v 0.151753 1.208107 0.501945
v 0.107193 1.169520 0.540532
v 0.071571 1.159883 0.550169
v 0.097432 1.164702 0.545351
v 0.084393 1.161174 0.548878
v -0.143704 1.439116 0.284983
v -0.141841 1.447515 0.276584
v -0.136754 1.456298 0.267802
v -0.129804 1.463110 0.260990
v -0.063266 1.171498 0.552602
v -0.076115 1.172789 0.551311
v -0.089173 1.176316 0.547783
v -0.098942 1.181135 0.542964
v -0.076115 1.493279 0.230821
v -0.063266 1.494570 0.229529
v -0.089173 1.489751 0.234348
v -0.098942 1.484932 0.239167
v -0.141841 1.218552 0.505547
v -0.143704 1.226951 0.497148
v -0.136754 1.209770 0.514330
v -0.129804 1.202958 0.521142
v -0.000000 1.494570 0.229529
v -0.000000 1.171498 0.552602
v 0.143704 1.439116 0.284983
v 0.141841 1.447515 0.276584
v 0.136754 1.456298 0.267802
v 0.129804 1.463110 0.260990
v 0.063266 1.171498 0.552602
v 0.076115 1.172789 0.551311
v 0.089173 1.176316 0.547783
v 0.098942 1.181135 0.542964
v 0.076115 1.493279 0.230821
v 0.063266 1.494570 0.229529
v 0.089173 1.489751 0.234348
v 0.098942 1.484932 0.239167
v 0.141841 1.218552 0.505547
v 0.143704 1.226951 0.497148
v 0.136754 1.209770 0.514330
v 0.129804 1.202958 0.521142
v -0.135521 1.440310 0.283790
v -0.133948 1.447406 0.276693
v -0.129721 1.454702 0.269398
v -0.123888 1.460419 0.263680
v -0.063576 1.176280 0.547820
v -0.074722 1.177400 0.546700
v -0.085674 1.180358 0.543741
v -0.093773 1.184354 0.539746
v -0.074722 1.488668 0.235432
v -0.063576 1.489788 0.234312
v -0.085674 1.485709 0.238390
v -0.093773 1.481714 0.242385
v -0.133948 1.218662 0.505438
v -0.135521 1.225758 0.498342
v -0.129721 1.211366 0.512734
v -0.123888 1.205648 0.518451
v -0.000000 1.484371 0.239728
v -0.000000 1.181697 0.542403
v 0.135521 1.440310 0.283790
v 0.133948 1.447406 0.276693
v 0.129721 1.454702 0.269398
v 0.123888 1.460419 0.263680
v 0.063576 1.176280 0.547820
v 0.074722 1.177400 0.546700
v 0.085674 1.180358 0.543741
v 0.093773 1.184353 0.539746
v 0.074722 1.488668 0.235432
v 0.063576 1.489788 0.234312
v 0.085674 1.485709 0.238390
v 0.093773 1.481714 0.242385
v 0.133948 1.218661 0.505438
v 0.135521 1.225758 0.498341
v 0.129721 1.211366 0.512734
v 0.123888 1.205648 0.518451
v -0.080140 1.467874 0.259978
v -0.080140 1.397939 0.329912
v 0.078279 1.467874 0.259978
v 0.078279 1.397940 0.329912
v 0.072898 1.225662 0.502189
v 0.039897 1.225662 0.502189
v 0.072898 1.264324 0.463527
v 0.039897 1.264324 0.463527
v -0.072958 1.341823 0.386028
v -0.048207 1.341823 0.386028
v -0.072958 1.380486 0.347366
v -0.048207 1.380486 0.347366
v -0.077891 1.283385 0.444467
v -0.042907 1.283385 0.444467
v -0.077891 1.322047 0.405805
v -0.042907 1.322047 0.405805
v 0.015878 1.341823 0.386028
v -0.018659 1.341823 0.386028
v 0.015878 1.380485 0.347366
v -0.018659 1.380485 0.347366
v 0.072625 1.282083 0.445768
v 0.072625 1.320745 0.407106
v 0.039049 1.282083 0.445768
v 0.039049 1.320745 0.407106
v 0.072462 1.341823 0.386028
v 0.039042 1.341823 0.386028
v 0.072462 1.380485 0.347366
v 0.039042 1.380485 0.347366
v -0.017394 1.283385 0.444467
v 0.015615 1.283385 0.444467
v -0.017394 1.322047 0.405805
v 0.015615 1.322047 0.405805
v -0.041818 1.225147 0.502704
v -0.041818 1.263809 0.464042
v -0.075724 1.225147 0.502704
v -0.075724 1.263809 0.464042
v -0.018456 1.224451 0.503400
v -0.018457 1.263113 0.464738
v 0.017370 1.224451 0.503400
v 0.017370 1.263113 0.464738
v -0.071174 1.336149 0.391702
v -0.080120 1.341715 0.386137
v -0.037259 1.341715 0.386137
v -0.046205 1.336149 0.391702
v -0.080120 1.380594 0.347257
v -0.071174 1.386160 0.341692
v -0.046205 1.386160 0.341692
v -0.037259 1.380594 0.347257
v -0.047260 1.338295 0.389557
v -0.040425 1.343074 0.384778
v -0.076953 1.343074 0.384778
v -0.070118 1.338295 0.389557
v -0.070118 1.384014 0.343837
v -0.076953 1.379235 0.348616
v -0.040425 1.379235 0.348616
v -0.047260 1.384014 0.343837
v -0.013818 1.336149 0.391702
v -0.022765 1.341715 0.386137
v 0.020096 1.341715 0.386137
v 0.011150 1.336149 0.391702
v -0.022765 1.380594 0.347257
v -0.013818 1.386160 0.341692
v 0.011150 1.386160 0.341692
v 0.020096 1.380594 0.347257
v 0.010095 1.338295 0.389557
v 0.016930 1.343074 0.384778
v -0.019598 1.343074 0.384778
v -0.012763 1.338295 0.389557
v -0.012763 1.384014 0.343837
v -0.019598 1.379235 0.348616
v 0.016930 1.379235 0.348616
v 0.010095 1.384014 0.343837
v 0.043537 1.336149 0.391702
v 0.034590 1.341715 0.386137
v 0.077452 1.341715 0.386137
v 0.068505 1.336149 0.391702
v 0.034590 1.380594 0.347257
v 0.043537 1.386160 0.341692
v 0.068505 1.386160 0.341692
v 0.077452 1.380594 0.347257
v 0.067450 1.338295 0.389557
v 0.074285 1.343074 0.384778
v 0.037757 1.343074 0.384778
v 0.044592 1.338295 0.389557
v 0.044592 1.384014 0.343837
v 0.037757 1.379235 0.348616
v 0.074285 1.379235 0.348616
v 0.067450 1.384014 0.343837
v -0.071174 1.277258 0.450593
v -0.080120 1.282823 0.445028
v -0.037259 1.282823 0.445028
v -0.046205 1.277258 0.450593
v -0.080120 1.321703 0.406148
v -0.071174 1.327268 0.400583
v -0.046205 1.327268 0.400583
v -0.037259 1.321703 0.406148
v -0.047260 1.279404 0.448448
v -0.040425 1.284183 0.443669
v -0.076953 1.284183 0.443669
v -0.070118 1.279404 0.448448
v -0.070118 1.325123 0.402729
v -0.076953 1.320344 0.407507
v -0.040425 1.320344 0.407507
v -0.047260 1.325123 0.402729
v -0.013818 1.277258 0.450593
v -0.022765 1.282823 0.445028
v 0.020096 1.282823 0.445028
v 0.011150 1.277258 0.450593
v -0.022765 1.321703 0.406148
v -0.013818 1.327268 0.400583
v 0.011150 1.327268 0.400583
v 0.020096 1.321703 0.406148
v 0.010095 1.279404 0.448448
v 0.016930 1.284183 0.443669
v -0.019598 1.284183 0.443669
v -0.012763 1.279404 0.448448
v -0.012763 1.325123 0.402729
v -0.019598 1.320344 0.407507
v 0.016930 1.320344 0.407507
v 0.010095 1.325123 0.402729
v 0.043537 1.277258 0.450593
v 0.034590 1.282823 0.445028
v 0.077452 1.282823 0.445028
v 0.068505 1.277258 0.450593
v 0.034590 1.321703 0.406148
v 0.043537 1.327268 0.400583
v 0.068505 1.327268 0.400583
v 0.077452 1.321703 0.406148
v 0.067450 1.279404 0.448448
v 0.074285 1.284183 0.443669
v 0.037757 1.284183 0.443669
v 0.044592 1.279404 0.448448
v 0.044592 1.325123 0.402729
v 0.037757 1.320344 0.407507
v 0.074285 1.320344 0.407507
v 0.067450 1.325123 0.402729
v -0.071174 1.218367 0.509484
v -0.080120 1.223932 0.503919
v -0.037259 1.223932 0.503919
v -0.046205 1.218367 0.509484
v -0.080120 1.262812 0.465039
v -0.071174 1.268377 0.459474
v -0.046205 1.268377 0.459474
v -0.037259 1.262812 0.465039
v -0.047260 1.220513 0.507339
v -0.040425 1.225291 0.502560
v -0.076953 1.225291 0.502560
v -0.070118 1.220513 0.507339
v -0.070118 1.266232 0.461620
v -0.076953 1.261453 0.466399
v -0.040425 1.261453 0.466399
v -0.047260 1.266232 0.461620
v -0.013818 1.218367 0.509484
v -0.022765 1.223932 0.503919
v 0.020096 1.223932 0.503919
v 0.011150 1.218367 0.509484
v -0.022765 1.262812 0.465039
v -0.013818 1.268377 0.459474
v 0.011150 1.268377 0.459474
v 0.020096 1.262812 0.465039
v 0.010095 1.220513 0.507339
v 0.016930 1.225291 0.502560
v -0.019598 1.225291 0.502560
v -0.012763 1.220513 0.507339
v -0.012763 1.266232 0.461620
v -0.019598 1.261453 0.466399
v 0.016930 1.261453 0.466399
v 0.010095 1.266232 0.461620
v 0.043537 1.218367 0.509484
v 0.034590 1.223932 0.503919
v 0.077452 1.223932 0.503919
v 0.068505 1.218367 0.509484
v 0.034590 1.262812 0.465039
v 0.043537 1.268377 0.459474
v 0.068505 1.268377 0.459474
v 0.077452 1.262812 0.465039
v 0.067450 1.220513 0.507339
v 0.074285 1.225291 0.502560
v 0.037757 1.225291 0.502560
v 0.044592 1.220513 0.507339
v 0.044592 1.266232 0.461620
v 0.037757 1.261453 0.466399
v 0.074285 1.261453 0.466399
v 0.067450 1.266232 0.461620
v -0.009847 1.189365 0.538486
v 0.012391 1.210589 0.517262
v 0.012391 1.189366 0.538486
v -0.009847 1.210589 0.517262
v -0.193679 1.484807 -0.018886
v -0.141240 1.111772 -0.018886
v 0.141903 1.484807 -0.018886
v 0.220585 1.484807 -0.018885
v 0.220585 1.223462 -0.018886
v 0.211121 1.167617 -0.018885
v -0.220584 1.223462 -0.018885
v -0.181344 1.484807 -0.018885
v -0.187386 1.137111 -0.018885
v 0.187386 1.137111 -0.018886
v -0.211121 1.167617 -0.018886
v -0.220584 1.484807 -0.018886
v 0.193680 1.484807 -0.018885
v 0.181344 1.484807 -0.018885
v 0.141240 1.111772 -0.018885
v -0.141903 1.484807 -0.018886
v -0.127861 1.226180 0.497919
v -0.118036 1.209171 0.514928
v -0.126519 1.220127 0.503972
v -0.122977 1.214014 0.510085
v -0.088835 1.188522 0.535577
v -0.063035 1.181697 0.542402
v -0.082062 1.185181 0.538918
v -0.072792 1.182677 0.541422
v -0.063035 1.484371 0.239728
v -0.088835 1.477545 0.246554
v -0.072792 1.483390 0.240709
v -0.082062 1.480887 0.243213
v -0.118036 1.456897 0.267202
v -0.127861 1.439888 0.284211
v -0.122977 1.452054 0.272045
v -0.126519 1.445940 0.278159
v 0.127861 1.226180 0.497919
v 0.118036 1.209171 0.514928
v 0.126519 1.220127 0.503972
v 0.122977 1.214014 0.510085
v 0.088835 1.188522 0.535577
v 0.063035 1.181697 0.542402
v 0.082062 1.185181 0.538918
v 0.072792 1.182677 0.541422
v 0.062540 1.484371 0.239904
v 0.088835 1.477545 0.246554
v 0.072792 1.483390 0.240709
v 0.082062 1.480886 0.243213
v 0.118036 1.456897 0.267202
v 0.127861 1.439888 0.284211
v 0.122977 1.452054 0.272045
v 0.126519 1.445940 0.278159
v -0.000494 1.484371 0.239904
v -0.000000 1.181697 0.542402
v -0.174505 1.251940 0.582502
v -0.161096 1.230349 0.604093
v -0.172674 1.244257 0.590185
v -0.167840 1.236497 0.597945
v -0.121242 1.204140 0.630302
v -0.086031 1.195476 0.638966
v -0.111999 1.199899 0.634543
v -0.099347 1.196721 0.637721
v -0.086031 1.579666 0.254776
v -0.121243 1.571002 0.263440
v -0.099347 1.578421 0.256020
v -0.111999 1.575243 0.259199
v -0.161097 1.544793 0.289649
v -0.174505 1.523202 0.311239
v -0.167840 1.538646 0.295797
v -0.172674 1.530886 0.303556
v 0.174505 1.251940 0.582502
v 0.161096 1.230349 0.604093
v 0.172674 1.244257 0.590185
v 0.167840 1.236497 0.597945
v 0.121242 1.204140 0.630302
v 0.086031 1.195476 0.638966
v 0.111999 1.199899 0.634543
v 0.099348 1.196721 0.637721
v 0.085536 1.579666 0.254952
v 0.121243 1.571002 0.263440
v 0.099347 1.578421 0.256021
v 0.111999 1.575243 0.259199
v 0.161097 1.544793 0.289649
v 0.174505 1.523202 0.311239
v 0.167840 1.538646 0.295797
v 0.172674 1.530886 0.303556
v -0.000494 1.579666 0.254952
v 0.000000 1.195476 0.638966
vt 0.799616 0.579130
vt 0.799616 0.490855
vt 0.941012 0.490855
vt 0.941012 0.579130
vt 0.925280 0.899985
vt 0.974949 0.899985
vt 0.974949 0.982277
vt 0.925280 0.982277
vt 0.527924 0.899985
vt 0.565176 0.899985
vt 0.565176 0.982277
vt 0.527924 0.982277
vt 0.667456 0.899985
vt 0.720110 0.899985
vt 0.720110 0.982277
vt 0.667456 0.982277
vt 0.565176 0.899985
vt 0.617156 0.899985
vt 0.617156 0.982277
vt 0.565176 0.982277
vt 0.820326 0.899985
vt 0.820326 0.982277
vt 0.769791 0.982277
vt 0.769791 0.899985
vt 0.617156 0.899985
vt 0.667456 0.899985
vt 0.667456 0.982277
vt 0.617156 0.982277
vt 0.720110 0.899985
vt 0.769791 0.899985
vt 0.769791 0.982277
vt 0.720110 0.982277
vt 0.871358 0.982277
vt 0.820326 0.982277
vt 0.820326 0.899985
vt 0.871358 0.899985
vt 0.925280 0.982277
vt 0.871358 0.982277
vt 0.871358 0.899985
vt 0.925280 0.899985
vt 0.318801 0.846282
vt 0.318801 0.861365
vt 0.317046 0.863580
vt 0.317046 0.844068
vt 0.326652 0.861365
vt 0.326652 0.846282
vt 0.328407 0.844068
vt 0.328407 0.863580
vt 0.321058 0.864023
vt 0.324395 0.864023
vt 0.326036 0.866373
vt 0.319417 0.866373
vt 0.324395 0.843624
vt 0.326036 0.841275
vt 0.319417 0.841275
vt 0.321058 0.843624
vt 0.318801 0.846282
vt 0.318801 0.861365
vt 0.317046 0.863580
vt 0.317046 0.844068
vt 0.326652 0.861365
vt 0.326652 0.846282
vt 0.328407 0.844068
vt 0.328407 0.863580
vt 0.321058 0.864023
vt 0.324395 0.864023
vt 0.326036 0.866373
vt 0.319417 0.866373
vt 0.324395 0.843624
vt 0.326036 0.841275
vt 0.319417 0.841275
vt 0.321058 0.843624
vt 0.318801 0.846282
vt 0.318801 0.861365
vt 0.317046 0.863580
vt 0.317046 0.844068
vt 0.326652 0.861365
vt 0.326652 0.846282
vt 0.328407 0.844068
vt 0.328407 0.863580
vt 0.321058 0.864023
vt 0.324395 0.864023
vt 0.326036 0.866373
vt 0.319417 0.866373
vt 0.324395 0.843624
vt 0.326036 0.841275
vt 0.319417 0.841275
vt 0.321058 0.843624
vt 0.318801 0.846282
vt 0.318801 0.861365
vt 0.317046 0.863580
vt 0.317046 0.844068
vt 0.326652 0.861365
vt 0.326652 0.846282
vt 0.328407 0.844068
vt 0.328407 0.863580
vt 0.321058 0.864023
vt 0.324395 0.864023
vt 0.326036 0.866373
vt 0.319417 0.866373
vt 0.324395 0.843624
vt 0.326036 0.841275
vt 0.319417 0.841275
vt 0.321058 0.843624
vt 0.318801 0.846282
vt 0.318801 0.861365
vt 0.317046 0.863580
vt 0.317046 0.844068
vt 0.326652 0.861365
vt 0.326652 0.846282
vt 0.328407 0.844068
vt 0.328407 0.863580
vt 0.321058 0.864023
vt 0.324395 0.864023
vt 0.326036 0.866373
vt 0.319417 0.866373
vt 0.324395 0.843624
vt 0.326036 0.841275
vt 0.319417 0.841275
vt 0.321058 0.843624
vt 0.318801 0.846282
vt 0.318801 0.861365
vt 0.317046 0.863580
vt 0.317046 0.844068
vt 0.326652 0.861365
vt 0.326652 0.846282
vt 0.328407 0.844068
vt 0.328407 0.863580
vt 0.321058 0.864023
vt 0.324395 0.864023
vt 0.326036 0.866373
vt 0.319417 0.866373
vt 0.324395 0.843624
vt 0.326036 0.841275
vt 0.319417 0.841275
vt 0.321058 0.843624
vt 0.318801 0.846282
vt 0.318801 0.861365
vt 0.317046 0.863580
vt 0.317046 0.844068
vt 0.326652 0.861365
vt 0.326652 0.846282
vt 0.328407 0.844068
vt 0.328407 0.863580
vt 0.321058 0.864023
vt 0.324395 0.864023
vt 0.326036 0.866373
vt 0.319417 0.866373
vt 0.324395 0.843624
vt 0.326036 0.841275
vt 0.319417 0.841275
vt 0.321058 0.843624
vt 0.318801 0.846282
vt 0.318801 0.861365
vt 0.317046 0.863580
vt 0.317046 0.844068
vt 0.326652 0.861365
vt 0.326652 0.846282
vt 0.328407 0.844068
vt 0.328407 0.863580
vt 0.321058 0.864023
vt 0.324395 0.864023
vt 0.326036 0.866373
vt 0.319417 0.866373
vt 0.324395 0.843624
vt 0.326036 0.841275
vt 0.319417 0.841275
vt 0.321058 0.843624
vt 0.318801 0.846282
vt 0.318801 0.861365
vt 0.317046 0.863580
vt 0.317046 0.844068
vt 0.326652 0.861365
vt 0.326652 0.846282
vt 0.328407 0.844068
vt 0.328407 0.863580
vt 0.321058 0.864023
vt 0.324395 0.864023
vt 0.326036 0.866373
vt 0.319417 0.866373
vt 0.324395 0.843624
vt 0.326036 0.841275
vt 0.319417 0.841275
vt 0.321058 0.843624
vt 0.885360 0.490855
vt 0.885360 0.526165
vt 0.859199 0.526165
vt 0.859199 0.490855
vt 0.309847 0.860558
vt 0.309847 0.860558
vt 0.309847 0.860558
vt 0.309847 0.860558
vt 0.309847 0.860558
vt 0.309847 0.860558
vt 0.309847 0.860558
vt 0.309847 0.860558
vt 0.309847 0.860558
vt 0.309847 0.860558
vt 0.309847 0.860558
vt 0.309847 0.860558
vt 0.309847 0.860558
vt 0.309847 0.860558
vt 0.309847 0.860558
vt 0.309847 0.860558
vt 0.309847 0.860558
vt 0.309847 0.860558
vt 0.309847 0.860558
vt 0.309847 0.860558
vt 0.309847 0.860558
vt 0.309847 0.860558
vt 0.309847 0.860558
vt 0.309847 0.860558
vt 0.309847 0.860558
vt 0.309847 0.860558
vt 0.309847 0.860558
vt 0.309847 0.860558
vt 0.309847 0.860558
vt 0.309847 0.860558
vt 0.309847 0.860558
vt 0.309847 0.860558
vt 0.309847 0.860558
vt 0.309847 0.860558
vt 0.309847 0.860558
vt 0.309847 0.860558
vt 0.309847 0.860558
vt 0.309847 0.860558
vt 0.309847 0.860558
vt 0.309847 0.860558
vt 0.309847 0.860558
vt 0.309847 0.860558
vt 0.309847 0.860558
vt 0.309847 0.860558
vt 0.309847 0.860558
vt 0.309847 0.860558
vt 0.309847 0.860558
vt 0.309847 0.860558
vt 0.309847 0.860558
vt 0.309847 0.860558
vt 0.309847 0.860558
vt 0.309847 0.860558
vt 0.309847 0.860558
vt 0.309847 0.860558
vt 0.309847 0.860558
vt 0.309847 0.860558
vt 0.309847 0.860558
vt 0.309847 0.860558
vt 0.309847 0.860558
vt 0.309847 0.860558
vt 0.309847 0.860558
vt 0.309847 0.860558
vt 0.309847 0.860558
vt 0.309847 0.860558
vt 0.309847 0.860558
vt 0.309847 0.860558
vt 0.309847 0.860558
vt 0.309847 0.860558
vt 0.395887 0.904381
vt 0.391159 0.858761
vt 0.410977 0.858761
vt 0.606809 0.904381
vt 0.594953 0.919620
vt 0.577792 0.919620
vt 0.571901 0.858761
vt 0.591719 0.858761
vt 0.625000 0.977519
vt 0.625000 1.000000
vt 0.586984 1.000000
vt 0.586984 0.977519
vt 0.719514 0.862501
vt 0.678560 0.862501
vt 0.678560 0.800982
vt 0.719514 0.800982
vt 0.430794 0.932278
vt 0.424904 0.919620
vt 0.571901 0.932278
vt 0.611536 0.858761
vt 0.407743 0.919620
vt 0.581975 0.977920
vt 0.569250 0.977920
vt 0.569250 0.956342
vt 0.581975 0.956342
vt 0.485124 0.977920
vt 0.474555 0.977920
vt 0.474555 0.956342
vt 0.485124 0.956341
vt 0.559579 0.977519
vt 0.562644 0.955037
vt 0.566863 0.955037
vt 0.565074 0.977519
vt 0.461830 0.977921
vt 0.447081 0.977920
vt 0.447081 0.956341
vt 0.461830 0.956342
vt 0.596724 0.977920
vt 0.596724 0.956341
vt 0.703951 0.800982
vt 0.703951 0.862501
vt 0.565490 0.862501
vt 0.565490 0.800982
vt 0.496354 0.956388
vt 0.608833 0.956388
vt 0.603766 0.977998
vt 0.525096 0.977559
vt 0.553856 1.000000
vt 0.561733 1.000000
vt 0.678560 0.894319
vt 0.678560 0.881983
vt 0.719514 0.881983
vt 0.719514 0.894319
vt 0.678560 0.769165
vt 0.678560 0.743930
vt 0.719514 0.769165
vt 0.678560 0.781500
vt 0.719514 0.781500
vt 0.678560 0.792143
vt 0.719514 0.792143
vt 0.678560 0.871341
vt 0.719514 0.871341
vt 0.558681 0.956341
vt 0.558681 0.977920
vt 0.496354 0.956512
vt 0.525096 0.977683
vt 0.603766 0.978122
vt 0.608832 0.956512
vt 0.183762 0.856761
vt 0.094333 0.856761
vt 0.094366 0.845993
vt 0.183729 0.845993
vt 0.625000 0.955037
vt 0.586984 0.955037
vt 0.580589 1.000000
vt 0.580589 0.977519
vt 0.183683 0.815798
vt 0.094412 0.815798
vt 0.094412 0.803437
vt 0.183683 0.803437
vt 0.678560 0.919554
vt 0.426331 0.977132
vt 0.477433 0.956512
vt 0.463690 0.958124
vt 0.449251 0.962530
vt 0.437985 0.968548
vt 0.625000 0.955037
vt 0.586984 0.955037
vt 0.586984 0.977519
vt 0.625000 0.977519
vt 0.580589 0.977519
vt 0.580589 1.000000
vt 0.586984 1.000000
vt 0.553856 1.000000
vt 0.561733 1.000000
vt 0.565074 0.977519
vt 0.559579 0.977519
vt 0.566863 0.955037
vt 0.562644 0.955037
vt 0.625000 1.000000
vt 0.580589 0.955037
vt 0.580589 0.955037
vt 0.094412 0.729950
vt 0.183683 0.729950
vt 0.430794 0.858761
vt 0.575944 1.000000
vt 0.575944 0.977526
vt 0.568302 1.000000
vt 0.569656 0.977524
vt 0.575944 0.955048
vt 0.570381 0.955045
vt 0.569656 0.977524
vt 0.570381 0.955045
vt 0.575944 0.977526
vt 0.575944 0.955048
vt 0.568302 1.000000
vt 0.575944 1.000000
vt 0.094389 0.837014
vt 0.183706 0.837014
vt 0.094406 0.824777
vt 0.183689 0.824777
vt 0.426331 0.977008
vt 0.437985 0.968424
vt 0.449250 0.962406
vt 0.463689 0.958000
vt 0.477433 0.956388
vt 1.080240 0.573200
vt 1.079808 0.561914
vt 1.115013 0.561914
vt 1.114593 0.573201
vt 0.782031 0.561914
vt 0.781598 0.573201
vt 0.747245 0.573201
vt 0.746825 0.561914
vt 0.650217 0.166778
vt 0.656234 0.167637
vt 0.662356 0.169982
vt 0.666942 0.173185
vt 0.683264 0.189507
vt 0.686529 0.194032
vt 0.688919 0.199866
vt 0.689794 0.205444
vt 0.689794 0.357056
vt 0.688920 0.362634
vt 0.686529 0.368467
vt 0.683264 0.372993
vt 0.666942 0.389314
vt 0.662356 0.392518
vt 0.656234 0.394863
vt 0.650217 0.395722
vt 0.540223 0.395722
vt 0.540223 0.166778
vt 0.745224 0.543394
vt 0.552718 0.543394
vt 0.554031 0.532107
vt 0.744636 0.532107
vt 0.812392 0.561914
vt 1.049446 0.561914
vt 1.049001 0.573200
vt 0.812837 0.573201
vt 0.745927 0.570996
vt 0.551095 0.570996
vt 0.811846 0.534312
vt 1.049992 0.534312
vt 1.079275 0.534312
vt 1.115531 0.534312
vt 0.782563 0.534312
vt 0.746307 0.534312
vt 0.803166 0.574259
vt 0.803073 0.562884
vt 0.791066 0.574278
vt 0.791176 0.562914
vt 0.715243 0.561914
vt 0.715866 0.534312
vt 0.725500 0.534962
vt 0.725406 0.562715
vt 0.737715 0.535325
vt 0.737949 0.563013
vt 1.058894 0.535194
vt 1.058765 0.562884
vt 1.070516 0.535235
vt 1.070662 0.562914
vt 0.764204 0.532107
vt 0.764204 0.538665
vt 1.129764 0.566643
vt 1.129764 0.573201
vt 1.123693 0.574386
vt 1.123858 0.563097
vt 0.802945 0.535194
vt 0.791322 0.535235
vt 0.714721 0.573201
vt 0.725345 0.574151
vt 0.738145 0.574386
vt 1.058672 0.574259
vt 1.070772 0.574277
vt 0.764204 0.543394
vt 0.764204 0.566932
vt 1.129764 0.538377
vt 1.129764 0.561914
vt 1.123921 0.562929
vt 1.124123 0.535324
vt 0.544530 0.561914
vt 0.543091 0.534312
vt 0.545694 0.573201
vt 1.080240 0.573200
vt 1.114593 0.573201
vt 1.115013 0.561914
vt 1.079808 0.561914
vt 0.782031 0.561914
vt 0.746825 0.561914
vt 0.747245 0.573201
vt 0.781598 0.573201
vt 0.650217 0.166778
vt 0.650217 0.395722
vt 0.656234 0.394863
vt 0.662356 0.392518
vt 0.666942 0.389314
vt 0.683264 0.372993
vt 0.686529 0.368467
vt 0.688920 0.362634
vt 0.689794 0.357056
vt 0.689794 0.205444
vt 0.688919 0.199866
vt 0.686529 0.194032
vt 0.683264 0.189507
vt 0.666942 0.173185
vt 0.662356 0.169982
vt 0.656234 0.167637
vt 0.745224 0.543394
vt 0.744636 0.532107
vt 0.812392 0.561914
vt 0.812837 0.573201
vt 1.049001 0.573200
vt 1.049446 0.561914
vt 0.745927 0.570996
vt 0.811846 0.534312
vt 1.049992 0.534312
vt 1.115531 0.534312
vt 1.079275 0.534312
vt 0.782563 0.534312
vt 0.746307 0.534312
vt 0.803073 0.562884
vt 0.803166 0.574259
vt 0.791176 0.562914
vt 0.791066 0.574278
vt 0.715243 0.561914
vt 0.725406 0.562715
vt 0.725500 0.534962
vt 0.715866 0.534312
vt 0.737949 0.563013
vt 0.737715 0.535325
vt 1.058765 0.562884
vt 1.058894 0.535194
vt 1.070662 0.562914
vt 1.070516 0.535235
vt 0.764204 0.538665
vt 0.764204 0.532107
vt 1.129764 0.566643
vt 1.123858 0.563097
vt 1.123693 0.574386
vt 1.129764 0.573201
vt 0.802945 0.535194
vt 0.791322 0.535235
vt 0.714721 0.573201
vt 0.725345 0.574151
vt 0.738145 0.574386
vt 1.058672 0.574259
vt 1.070772 0.574277
vt 0.764204 0.566932
vt 0.764204 0.543394
vt 1.129764 0.538377
vt 1.124123 0.535324
vt 1.123921 0.562929
vt 1.129764 0.561914
vt 0.565490 0.781500
vt 0.565490 0.769165
vt 0.703951 0.769165
vt 0.703951 0.781500
vt 0.565490 0.792143
vt 0.703951 0.792143
vt 0.565490 0.712248
vt 0.590266 0.712248
vt 0.632963 0.712248
vt 0.703951 0.743930
vt 0.565490 0.894319
vt 0.565490 0.881983
vt 0.703951 0.881983
vt 0.703951 0.894319
vt 0.530625 1.000000
vt 0.533930 0.984568
vt 0.533930 1.000000
vt 0.183893 0.899800
vt 0.094202 0.899800
vt 0.537614 0.977519
vt 0.545780 0.955037
vt 0.565490 0.871341
vt 0.703951 0.871341
vt 0.565490 0.951235
vt 0.703951 0.919554
vt 0.632963 0.951235
vt 0.590266 0.951235
vt 0.545780 0.955037
vt 0.537614 0.977519
vt 0.533930 0.984568
vt 0.530625 1.000000
vt 0.533930 1.000000
vt 0.636238 0.568285
vt 0.636557 0.564228
vt 0.637829 0.560130
vt 0.639792 0.556884
vt 0.651220 0.543043
vt 0.653999 0.540804
vt 0.658659 0.539125
vt 0.665488 0.538468
vt 0.730814 0.538468
vt 0.730815 0.741350
vt 0.665488 0.741350
vt 0.658659 0.740693
vt 0.653999 0.739014
vt 0.651220 0.736775
vt 0.639792 0.722934
vt 0.637829 0.719688
vt 0.636557 0.715590
vt 0.636238 0.711533
vt 0.636238 0.568285
vt 0.636238 0.711533
vt 0.636557 0.715590
vt 0.637829 0.719688
vt 0.639792 0.722934
vt 0.651220 0.736775
vt 0.653999 0.739014
vt 0.658659 0.740693
vt 0.665488 0.741350
vt 0.665488 0.538468
vt 0.658659 0.539125
vt 0.653999 0.540804
vt 0.651220 0.543043
vt 0.639792 0.556884
vt 0.637829 0.560130
vt 0.636557 0.564228
vt 0.631487 0.711816
vt 0.631902 0.716573
vt 0.625668 0.717931
vt 0.625000 0.712207
vt 0.633402 0.721463
vt 0.627491 0.723916
vt 0.635626 0.725295
vt 0.629983 0.728559
vt 0.661436 0.534837
vt 0.654632 0.535588
vt 0.649228 0.530698
vt 0.653834 0.529818
vt 0.649913 0.537571
vt 0.644547 0.533102
vt 0.646869 0.540249
vt 0.641046 0.536386
vt 0.654632 0.744230
vt 0.661436 0.744981
vt 0.653834 0.750000
vt 0.649228 0.749120
vt 0.649912 0.742247
vt 0.644547 0.746716
vt 0.646870 0.739569
vt 0.641046 0.743432
vt 0.631901 0.563245
vt 0.631487 0.568002
vt 0.625000 0.567611
vt 0.625668 0.561887
vt 0.633402 0.558355
vt 0.627491 0.555902
vt 0.635626 0.554523
vt 0.629983 0.551259
vt 0.730815 0.744981
vt 0.730815 0.750000
vt 0.730814 0.534837
vt 0.730814 0.529818
vt 0.631902 0.716573
vt 0.631487 0.711816
vt 0.625000 0.712207
vt 0.625668 0.717931
vt 0.633402 0.721463
vt 0.627491 0.723916
vt 0.635626 0.725295
vt 0.629983 0.728559
vt 0.654632 0.535588
vt 0.661436 0.534837
vt 0.653834 0.529818
vt 0.649228 0.530698
vt 0.649913 0.537571
vt 0.644547 0.533102
vt 0.646869 0.540249
vt 0.641046 0.536386
vt 0.661436 0.744981
vt 0.654632 0.744230
vt 0.649228 0.749120
vt 0.653834 0.750000
vt 0.649912 0.742247
vt 0.644547 0.746716
vt 0.646870 0.739569
vt 0.641046 0.743432
vt 0.631487 0.568002
vt 0.631902 0.563245
vt 0.625668 0.561887
vt 0.625000 0.567611
vt 0.633401 0.558355
vt 0.627491 0.555902
vt 0.635626 0.554523
vt 0.629983 0.551259
vt 0.874496 0.000003
vt 0.977449 0.999995
vt 0.988487 0.999995
vt 0.883192 0.000000
vt 0.175948 0.000000
vt 0.090771 0.999995
vt 0.022551 0.999992
vt 0.122203 0.000000
vt 0.188554 0.000003
vt 0.106772 0.999998
vt 0.104437 0.000000
vt 0.000000 0.999992
vt 0.003240 0.999995
vt 0.106989 0.000000
vt 0.892262 0.000000
vt 1.000000 0.999998
vt 1.000000 0.999998
vt 0.892262 0.000000
vt 0.889710 0.000000
vt 0.996761 0.999995
vt 0.011513 0.999998
vt 0.113507 0.000003
vt 0.883192 0.000000
vt 0.988487 0.999995
vt 0.022551 0.999992
vt 0.122203 0.000000
vt 0.874496 0.000000
vt 0.977449 0.999995
vt 0.776477 0.000006
vt 0.853032 0.999998
vt 0.873030 1.000000
vt 0.792232 0.000006
vt 0.104437 0.000000
vt 0.106989 0.000000
vt 0.003240 0.999995
vt 0.000000 0.999992
vt 0.893228 0.999995
vt 0.808144 0.000000
vt 0.113507 0.000003
vt 0.011513 0.999995
vt 0.909230 0.999998
vt 0.820750 0.000003
vt 0.220222 0.000000
vt 0.146968 0.999992
vt 0.776477 0.000003
vt 0.792232 0.000003
vt 0.873030 0.999995
vt 0.853032 0.999998
vt 0.204467 0.000000
vt 0.126970 0.999995
vt 0.808145 0.000000
vt 0.893228 0.999998
vt 0.104437 0.000000
vt 0.000000 0.999992
vt 0.188554 0.000003
vt 0.106772 0.999998
vt 0.820750 0.000003
vt 0.909230 0.999998
vt 0.175948 0.000000
vt 0.090771 0.999995
vt 0.146968 0.999992
vt 0.220221 0.000000
vt 0.892261 0.000003
vt 1.000000 0.999998
vt 0.889710 0.000000
vt 0.996761 0.999995
vt 0.204467 0.000000
vt 0.126970 0.999995
vn -0.0000 0.7071 0.7071
vn 0.0000 -0.0000 1.0000
vn -0.2484 -0.9686 -0.0000
vn 0.2484 -0.9686 -0.0000
vn -0.9192 -0.3937 0.0116
vn -0.6487 -0.7610 -0.0000
vn -0.7893 -0.6141 0.0000
vn 0.6487 -0.7610 -0.0000
vn -0.0000 1.0000 -0.0000
vn 0.0000 0.9969 0.0789
vn 0.9192 -0.3937 0.0116
vn 0.9961 -0.0863 0.0156
vn 0.9985 -0.0520 0.0183
vn 0.9908 -0.1274 0.0449
vn -0.9961 -0.0863 0.0156
vn -0.9908 -0.1274 0.0449
vn -0.9985 -0.0520 0.0183
vn 1.0000 0.0000 -0.0000
vn -0.9965 -0.0838 0.0000
vn -0.9153 -0.4028 0.0000
vn 0.9965 -0.0838 -0.0000
vn 0.9153 -0.4028 -0.0000
vn -1.0000 -0.0000 0.0000
vn 0.0000 0.7607 0.6491
vn 0.7893 -0.6141 -0.0000
vn 0.0000 0.8727 0.4882
vn 0.0000 0.9623 0.2719
vn -0.5148 0.2009 0.8334
vn -0.5974 0.0788 0.7981
vn -0.5110 -0.0030 0.8596
vn -0.4420 0.1281 0.8878
vn -0.5974 0.7981 0.0788
vn -0.5148 0.8334 0.2009
vn -0.4420 0.8878 0.1281
vn -0.5110 0.8596 -0.0030
vn -0.0000 -0.7071 -0.7071
vn -0.0638 -0.2873 0.9557
vn -0.0000 -0.3209 0.9471
vn -0.0000 -0.2050 0.9788
vn -0.0362 -0.1800 0.9830
vn -0.7933 0.4720 0.3845
vn -0.7933 0.3845 0.4720
vn -0.6964 0.4753 0.5377
vn -0.6963 0.5378 0.4753
vn -0.0813 -0.3994 0.9132
vn -0.0000 -0.4321 0.9018
vn -0.8699 0.3982 0.2911
vn -0.8699 0.2911 0.3982
vn -0.6622 -0.0387 0.7483
vn -0.5646 -0.1266 0.8156
vn -0.6622 0.7483 -0.0387
vn -0.5645 0.8156 -0.1266
vn -0.6531 0.6445 0.3975
vn -0.7528 0.5896 0.2929
vn -0.5845 0.7563 0.2938
vn -0.6794 0.7118 0.1781
vn -0.0638 0.9557 -0.2873
vn -0.0813 0.9132 -0.3994
vn -0.2461 0.9140 -0.3225
vn -0.2129 0.9554 -0.2047
vn -0.4265 0.8772 -0.2205
vn -0.3813 0.9191 -0.0990
vn -0.8284 0.1912 0.5265
vn -0.7528 0.2929 0.5896
vn -0.7514 0.0689 0.6563
vn -0.6794 0.1781 0.7118
vn -0.1677 -0.0861 0.9821
vn -0.2129 -0.2047 0.9554
vn -0.3223 0.0311 0.9461
vn -0.3813 -0.0990 0.9191
vn -0.8284 0.5265 0.1912
vn -0.7514 0.6563 0.0689
vn -0.0362 0.9830 -0.1800
vn -0.1677 0.9821 -0.0861
vn -0.3223 0.9461 0.0311
vn -0.6531 0.3975 0.6445
vn -0.5845 0.2938 0.7563
vn -0.2461 -0.3225 0.9140
vn -0.4265 -0.2205 0.8772
vn -0.0000 0.9471 -0.3209
vn -0.0000 0.9018 -0.4321
vn -0.0000 0.9788 -0.2050
vn 0.5149 0.2009 0.8334
vn 0.4420 0.1281 0.8878
vn 0.5110 -0.0030 0.8596
vn 0.5974 0.0788 0.7981
vn 0.5974 0.7981 0.0788
vn 0.5110 0.8596 -0.0030
vn 0.4420 0.8878 0.1281
vn 0.5148 0.8334 0.2009
vn 0.0638 -0.2873 0.9557
vn 0.0362 -0.1800 0.9830
vn 0.7933 0.4720 0.3845
vn 0.6963 0.5378 0.4753
vn 0.6963 0.4753 0.5377
vn 0.7933 0.3845 0.4720
vn 0.0813 -0.3994 0.9132
vn 0.8699 0.3982 0.2911
vn 0.8699 0.2911 0.3982
vn 0.5645 -0.1266 0.8156
vn 0.6622 -0.0387 0.7483
vn 0.6622 0.7483 -0.0387
vn 0.5645 0.8156 -0.1266
vn 0.7528 0.5896 0.2929
vn 0.6531 0.6445 0.3975
vn 0.6794 0.7118 0.1781
vn 0.5845 0.7563 0.2938
vn 0.0638 0.9557 -0.2873
vn 0.2129 0.9554 -0.2047
vn 0.2461 0.9140 -0.3225
vn 0.0813 0.9132 -0.3994
vn 0.3813 0.9191 -0.0990
vn 0.4265 0.8772 -0.2205
vn 0.7528 0.2929 0.5896
vn 0.8284 0.1912 0.5265
vn 0.6794 0.1781 0.7118
vn 0.7514 0.0689 0.6563
vn 0.2129 -0.2047 0.9554
vn 0.1677 -0.0861 0.9821
vn 0.3813 -0.0990 0.9191
vn 0.3223 0.0311 0.9461
vn 0.8284 0.5265 0.1912
vn 0.7514 0.6563 0.0689
vn 0.0362 0.9830 -0.1800
vn 0.1677 0.9821 -0.0861
vn 0.3223 0.9461 0.0311
vn 0.6531 0.3975 0.6445
vn 0.5845 0.2938 0.7563
vn 0.2461 -0.3225 0.9140
vn 0.4265 -0.2205 0.8772
vn 0.4876 0.8727 0.0260
vn 0.4808 0.8765 0.0226
vn 0.3500 0.9361 -0.0344
vn 0.3494 0.9363 -0.0346
vn -0.5856 0.0780 0.8068
vn -0.5823 0.0754 0.8094
vn -0.4854 0.0131 0.8742
vn -0.4914 0.0162 0.8708
vn -0.6881 0.1626 0.7071
vn -0.6768 0.1529 0.7201
vn 0.0461 -0.1446 0.9884
vn 0.0597 -0.1413 0.9882
vn 0.1958 -0.1020 0.9753
vn 0.1833 -0.1060 0.9773
vn 0.0000 0.9900 -0.1413
vn -0.0599 0.9901 -0.1268
vn -0.0470 0.9904 -0.1299
vn -0.1816 0.9790 -0.0924
vn -0.1934 0.9771 -0.0888
vn 0.3540 -0.0458 0.9341
vn 0.3524 -0.0464 0.9347
vn -0.3494 0.9363 -0.0346
vn -0.3500 0.9361 -0.0344
vn 0.4854 0.0131 0.8742
vn 0.4914 0.0162 0.8708
vn -0.4876 0.8727 0.0260
vn -0.4808 0.8765 0.0226
vn 0.8451 0.4123 0.3403
vn 0.8351 0.4437 0.3251
vn 0.7700 0.5882 0.2471
vn 0.7864 0.5582 0.2646
vn -0.0393 -0.1465 0.9884
vn -0.1736 -0.1088 0.9788
vn -0.1876 -0.1044 0.9767
vn -0.0504 -0.1438 0.9883
vn 0.6725 0.7230 0.1581
vn 0.6849 0.7089 0.1684
vn -0.3524 -0.0464 0.9347
vn -0.3540 -0.0458 0.9341
vn 0.5777 0.8120 0.0829
vn 0.5816 0.8089 0.0860
vn 0.8454 0.3393 0.4124
vn 0.8362 0.3244 0.4421
vn -0.8451 0.4123 0.3403
vn -0.7864 0.5582 0.2646
vn -0.7700 0.5882 0.2471
vn -0.8351 0.4437 0.3251
vn 0.7882 0.2614 0.5572
vn 0.7729 0.2444 0.5855
vn -0.6849 0.7089 0.1684
vn -0.6725 0.7230 0.1581
vn -0.0012 -0.1561 0.9877
vn 0.6881 0.1626 0.7071
vn 0.6768 0.1529 0.7201
vn -0.5816 0.8089 0.0860
vn -0.5777 0.8120 0.0829
vn 0.5856 0.0780 0.8068
vn 0.5823 0.0754 0.8094
vn -0.8362 0.3244 0.4422
vn -0.8454 0.3393 0.4124
vn 0.0470 0.9904 -0.1299
vn 0.0599 0.9901 -0.1268
vn 0.1816 0.9790 -0.0924
vn 0.1934 0.9771 -0.0888
vn -0.7881 0.2614 0.5572
vn -0.7729 0.2444 0.5855
usemtl M_Decal_Screen
s off
f 241/1/1 242/2/1 244/3/1 243/4/1
f 246/5/1 245/6/1 247/7/1 248/8/1
f 249/9/1 250/10/1 252/11/1 251/12/1
f 253/13/1 254/14/1 256/15/1 255/16/1
f 258/17/1 257/18/1 259/19/1 260/20/1
f 261/21/1 262/22/1 264/23/1 263/24/1
f 266/25/1 265/26/1 267/27/1 268/28/1
f 269/29/1 270/30/1 272/31/1 271/32/1
f 274/33/1 276/34/1 275/35/1 273/36/1
f 280/37/1 278/38/1 277/39/1 279/40/1
f 291/41/1 294/42/1 285/43/1 282/44/1
f 295/45/1 290/46/1 283/47/1 288/48/1
f 293/49/1 296/50/1 287/51/1 286/52/1
f 283/47/1 290/46/1 289/53/1 284/54/1
f 291/41/1 282/44/1 281/55/1 292/56/1
f 293/49/1 286/52/1 285/43/1 294/42/1
f 295/45/1 288/48/1 287/51/1 296/50/1
f 289/53/1 292/56/1 281/55/1 284/54/1
f 307/57/1 310/58/1 301/59/1 298/60/1
f 311/61/1 306/62/1 299/63/1 304/64/1
f 309/65/1 312/66/1 303/67/1 302/68/1
f 299/63/1 306/62/1 305/69/1 300/70/1
f 307/57/1 298/60/1 297/71/1 308/72/1
f 309/65/1 302/68/1 301/59/1 310/58/1
f 311/61/1 304/64/1 303/67/1 312/66/1
f 305/69/1 308/72/1 297/71/1 300/70/1
f 323/73/1 326/74/1 317/75/1 314/76/1
f 327/77/1 322/78/1 315/79/1 320/80/1
f 325/81/1 328/82/1 319/83/1 318/84/1
f 315/79/1 322/78/1 321/85/1 316/86/1
f 323/73/1 314/76/1 313/87/1 324/88/1
f 325/81/1 318/84/1 317/75/1 326/74/1
f 327/77/1 320/80/1 319/83/1 328/82/1
f 321/85/1 324/88/1 313/87/1 316/86/1
f 339/89/1 342/90/1 333/91/1 330/92/1
f 343/93/1 338/94/1 331/95/1 336/96/1
f 341/97/1 344/98/1 335/99/1 334/100/1
f 331/95/1 338/94/1 337/101/1 332/102/1
f 339/89/1 330/92/1 329/103/1 340/104/1
f 341/97/1 334/100/1 333/91/1 342/90/1
f 343/93/1 336/96/1 335/99/1 344/98/1
f 337/101/1 340/104/1 329/103/1 332/102/1
f 355/105/1 358/106/1 349/107/1 346/108/1
f 359/109/1 354/110/1 347/111/1 352/112/1
f 357/113/1 360/114/1 351/115/1 350/116/1
f 347/111/1 354/110/1 353/117/1 348/118/1
f 355/105/1 346/108/1 345/119/1 356/120/1
f 357/113/1 350/116/1 349/107/1 358/106/1
f 359/109/1 352/112/1 351/115/1 360/114/1
f 353/117/1 356/120/1 345/119/1 348/118/1
f 371/121/1 374/122/1 365/123/1 362/124/1
f 375/125/1 370/126/1 363/127/1 368/128/1
f 373/129/1 376/130/1 367/131/1 366/132/1
f 363/127/1 370/126/1 369/133/1 364/134/1
f 371/121/1 362/124/1 361/135/1 372/136/1
f 373/129/1 366/132/1 365/123/1 374/122/1
f 375/125/1 368/128/1 367/131/1 376/130/1
f 369/133/1 372/136/1 361/135/1 364/134/1
f 387/137/1 390/138/1 381/139/1 378/140/1
f 391/141/1 386/142/1 379/143/1 384/144/1
f 389/145/1 392/146/1 383/147/1 382/148/1
f 379/143/1 386/142/1 385/149/1 380/150/1
f 387/137/1 378/140/1 377/151/1 388/152/1
f 389/145/1 382/148/1 381/139/1 390/138/1
f 391/141/1 384/144/1 383/147/1 392/146/1
f 385/149/1 388/152/1 377/151/1 380/150/1
f 403/153/1 406/154/1 397/155/1 394/156/1
f 407/157/1 402/158/1 395/159/1 400/160/1
f 405/161/1 408/162/1 399/163/1 398/164/1
f 395/159/1 402/158/1 401/165/1 396/166/1
f 403/153/1 394/156/1 393/167/1 404/168/1
f 405/161/1 398/164/1 397/155/1 406/154/1
f 407/157/1 400/160/1 399/163/1 408/162/1
f 401/165/1 404/168/1 393/167/1 396/166/1
f 419/169/1 422/170/1 413/171/1 410/172/1
f 423/173/1 418/174/1 411/175/1 416/176/1
f 421/177/1 424/178/1 415/179/1 414/180/1
f 411/175/1 418/174/1 417/181/1 412/182/1
f 419/169/1 410/172/1 409/183/1 420/184/1
f 421/177/1 414/180/1 413/171/1 422/170/1
f 423/173/1 416/176/1 415/179/1 424/178/1
f 417/181/1 420/184/1 409/183/1 412/182/1
f 427/185/1 426/186/1 428/187/1 425/188/1
s 1
f 100/189/1 102/190/1 208/191/1 207/192/1
f 102/190/1 101/193/1 209/194/1 208/191/1
f 101/193/1 99/195/1 210/196/1 209/194/1
f 92/197/1 94/198/1 212/199/1 211/200/1
f 94/198/1 93/201/1 213/202/1 212/199/1
f 93/201/1 91/203/1 214/204/1 213/202/1
f 97/205/1 95/206/1 216/207/1 215/208/1
f 98/209/1 97/205/1 215/208/1 217/210/1
f 96/211/1 98/209/1 217/210/1 218/212/1
f 89/213/1 87/214/1 220/215/1 219/216/1
f 90/217/1 89/213/1 219/216/1 221/218/1
f 88/219/1 90/217/1 221/218/1 222/220/1
f 87/214/1 100/189/1 207/192/1 220/215/1
f 91/203/1 88/219/1 222/220/1 214/204/1
f 95/206/1 223/221/1 123/222/1 216/207/1
f 99/195/1 96/211/1 218/212/1 210/196/1
f 224/223/1 92/197/1 211/200/1 124/224/1
f 156/225/1 154/226/1 225/227/1 226/228/1
f 155/229/1 156/225/1 226/228/1 227/230/1
f 153/231/1 155/229/1 227/230/1 228/232/1
f 148/233/1 146/234/1 229/235/1 230/236/1
f 147/237/1 148/233/1 230/236/1 231/238/1
f 145/239/1 147/237/1 231/238/1 232/240/1
f 149/241/1 151/242/1 233/243/1 234/244/1
f 151/242/1 152/245/1 235/246/1 233/243/1
f 152/245/1 150/247/1 236/248/1 235/246/1
f 141/249/1 143/250/1 237/251/1 238/252/1
f 143/250/1 144/253/1 239/254/1 237/251/1
f 144/253/1 142/255/1 240/256/1 239/254/1
f 154/226/1 141/249/1 238/252/1 225/227/1
f 142/255/1 145/239/1 232/240/1 240/256/1
f 223/221/1 149/241/1 234/244/1 123/222/1
f 150/247/1 153/231/1 228/232/1 236/248/1
f 146/234/1 224/223/1 124/224/1 229/235/1
usemtl MI_Trim_01
f 11/257/2 1/258/2 12/259/2
f 9/260/2 41/261/2 44/262/2 7/263/2 10/264/2
f 12/265/1 1/266/1 17/267/1 19/268/1
f 25/269/3 14/270/3 16/271/4 23/272/4
f 5/273/2 46/274/2 44/262/2 6/275/2
f 2/276/2 9/260/2 10/264/2
f 5/273/2 43/277/2 46/274/2
f 27/278/5 39/279/6 41/280/6 9/281/7
f 23/282/4 42/283/8 43/284/8 5/285/4
f 32/286/9 33/287/9 51/288/10 55/289/10
f 28/290/11 24/291/12 1/292/13 11/293/14
f 26/294/15 27/278/5 9/281/16 2/295/17
f 16/296/4 14/297/3 430/298/3 443/299/4
f 17/300/18 1/301/13 24/302/12 31/303/18
f 29/304/9 32/286/9 55/289/10 47/305/10
f 15/306/19 20/307/20 27/308/5 26/309/15
f 13/310/21 31/311/18 24/312/12
f 21/313/22 13/310/21 24/312/12 28/314/11
f 16/271/4 45/315/8 42/316/8 23/272/4
f 20/307/20 40/317/6 39/318/6 27/308/5
f 6/319/3 25/320/3 23/282/4 5/285/4
f 22/321/23 30/322/23 26/323/15 2/324/17
f 33/325/9 38/326/9 60/327/10 51/328/10
f 8/329/1 12/265/1 19/268/1 18/330/1
f 19/268/1 17/267/1 48/331/24 56/332/24
f 52/333/24 59/334/24 34/335/1 18/336/1
f 26/309/15 30/337/23 15/306/19
f 36/338/23 30/322/23 22/321/23 63/339/23 65/340/23 66/341/23 64/342/23
f 7/343/1 34/344/1 35/345/1 10/346/1
f 35/345/1 68/347/24 63/348/24 22/349/1
f 36/350/9 64/351/10 67/352/10 37/353/9
f 37/353/9 67/352/10 60/354/10 38/355/9
f 10/346/1 35/345/1 22/349/1 2/356/1
f 34/344/1 59/357/24 68/347/24 35/345/1
f 18/330/1 19/268/1 56/332/24 52/358/24
f 7/359/1 8/360/1 18/336/1 34/335/1
f 41/280/6 39/279/6 25/320/3 6/319/3
f 42/316/8 45/315/8 21/313/22 28/314/11
f 46/274/2 43/277/2 11/257/2 12/259/2 8/361/2
f 43/284/8 42/283/8 28/290/11 11/293/25
f 44/262/2 46/274/2 8/361/2 7/263/2
f 44/262/2 41/261/2 6/275/2
f 39/318/6 40/317/6 14/270/3 25/269/3
f 56/332/24 48/331/24 50/362/26 58/363/26
f 58/363/26 50/362/26 49/364/27 57/365/27
f 57/365/27 49/364/27 47/305/10 55/289/10
f 52/358/24 56/332/24 58/363/26 54/366/26
f 54/366/26 58/363/26 57/365/27 53/367/27
f 53/367/27 57/365/27 55/289/10 51/288/10
f 60/354/10 67/352/10 69/368/27 62/369/27
f 62/369/27 69/368/27 70/370/26 61/371/26
f 61/371/26 70/370/26 68/347/24 59/357/24
f 67/352/10 64/351/10 66/372/27 69/368/27
f 69/368/27 66/372/27 65/373/26 70/370/26
f 70/370/26 65/373/26 63/348/24 68/347/24
f 51/328/10 60/327/10 62/374/27 53/375/27
f 53/375/27 62/374/27 61/376/26 54/377/26
f 54/377/26 61/376/26 59/334/24 52/333/24
f 31/303/18 29/378/18 47/379/18 49/380/18 50/381/18 48/382/18 17/300/18
f 188/383/28 111/384/29 115/385/30 180/386/31
f 103/387/32 176/388/33 184/389/34 107/390/35
f 79/391/36 81/392/36 82/393/36 80/394/36 83/395/36 85/396/36 86/397/36 84/398/36 71/399/36 73/400/36 74/401/36 72/402/36 75/403/36 77/404/36 78/405/36 76/406/36 119/407/36 121/408/36
f 116/409/37 122/410/38 190/411/39 177/412/40
f 104/413/41 112/414/42 186/415/43 173/416/44
f 79/417/45 121/418/46 122/410/38 116/409/37
f 71/419/47 84/420/48 112/414/42 104/413/41
f 111/384/29 83/421/49 80/422/50 115/385/30
f 72/423/51 103/387/32 107/390/35 75/424/52
f 104/413/41 173/416/44 174/425/53 106/426/54
f 106/426/54 174/425/53 175/427/55 105/428/56
f 105/428/56 175/427/55 176/388/33 103/387/32
f 108/429/57 76/430/58 78/431/59 110/432/60
f 110/432/60 78/431/59 77/433/61 109/434/62
f 109/434/62 77/433/61 75/424/52 107/390/35
f 112/414/42 84/420/48 86/435/63 114/436/64
f 114/436/64 86/435/63 85/437/65 113/438/66
f 113/438/66 85/437/65 83/421/49 111/384/29
f 116/409/37 177/412/40 178/439/67 118/440/68
f 118/441/68 178/442/67 179/443/69 117/444/70
f 117/444/70 179/443/69 180/386/31 115/385/30
f 71/419/47 104/413/41 106/426/54 73/445/71
f 73/445/71 106/426/54 105/428/56 74/446/72
f 74/446/72 105/428/56 103/387/32 72/423/51
f 182/447/73 108/429/57 110/432/60 181/448/74
f 181/448/74 110/432/60 109/434/62 183/449/75
f 183/449/75 109/434/62 107/390/35 184/389/34
f 186/415/43 112/414/42 114/436/64 185/450/76
f 185/450/76 114/436/64 113/438/66 187/451/77
f 187/451/77 113/438/66 111/384/29 188/383/28
f 79/417/45 116/409/37 118/452/68 81/453/78
f 81/454/78 118/455/68 117/456/70 82/457/79
f 82/457/79 117/456/70 115/385/30 80/422/50
f 120/458/80 119/459/81 76/430/58 108/429/57
f 189/460/82 120/458/80 108/429/57 182/447/73
f 206/461/83 198/462/84 169/463/85 165/464/86
f 157/465/87 161/466/88 202/467/89 194/468/90
f 133/469/36 121/408/36 119/407/36 130/470/36 132/471/36 131/472/36 129/473/36 126/474/36 128/475/36 127/476/36 125/477/36 138/478/36 140/479/36 139/480/36 137/481/36 134/482/36 136/483/36 135/484/36
f 170/485/91 195/486/92 190/411/39 122/410/38
f 158/487/93 191/488/94 204/489/95 166/490/96
f 133/491/97 170/485/91 122/410/38 121/418/46
f 125/492/98 158/487/93 166/490/96 138/493/99
f 165/464/86 169/463/85 134/494/100 137/495/101
f 126/496/102 129/497/103 161/466/88 157/465/87
f 158/487/93 160/498/104 192/499/105 191/488/94
f 160/498/104 159/500/106 193/501/107 192/499/105
f 159/500/106 157/465/87 194/468/90 193/501/107
f 162/502/108 164/503/109 132/504/110 130/505/111
f 164/503/109 163/506/112 131/507/113 132/504/110
f 163/506/112 161/466/88 129/497/103 131/507/113
f 166/490/96 168/508/114 140/509/115 138/493/99
f 168/508/114 167/510/116 139/511/117 140/509/115
f 167/510/116 165/464/86 137/495/101 139/511/117
f 170/485/91 172/512/118 196/513/119 195/486/92
f 172/514/118 171/515/120 197/516/121 196/517/119
f 171/515/120 169/463/85 198/462/84 197/516/121
f 125/492/98 127/518/122 160/498/104 158/487/93
f 127/518/122 128/519/123 159/500/106 160/498/104
f 128/519/123 126/496/102 157/465/87 159/500/106
f 200/520/124 199/521/125 164/503/109 162/502/108
f 199/521/125 201/522/126 163/506/112 164/503/109
f 201/522/126 202/467/89 161/466/88 163/506/112
f 204/489/95 203/523/127 168/508/114 166/490/96
f 203/523/127 205/524/128 167/510/116 168/508/114
f 205/524/128 206/461/83 165/464/86 167/510/116
f 133/491/97 135/525/129 172/526/118 170/485/91
f 135/527/129 136/528/130 171/529/120 172/530/118
f 136/528/130 134/494/100 169/463/85 171/529/120
f 120/458/80 162/502/108 130/505/111 119/459/81
f 189/460/82 200/520/124 162/502/108 120/458/80
f 434/531/22 433/532/21 13/533/21 21/534/22
f 438/535/8 434/531/22 21/534/22 45/536/8
f 433/532/21 432/537/18 3/538/18 29/539/18 31/540/18 13/533/21
f 435/541/19 439/542/20 20/543/20 15/544/19
f 432/545/9 441/546/9 3/547/9
f 431/548/9 444/549/9 38/326/9 33/325/9
f 442/550/9 431/551/9 33/287/9 32/286/9
f 443/299/4 438/535/8 45/536/8 16/296/4
f 439/542/20 437/552/6 40/553/6 20/543/20
f 440/554/23 435/541/19 15/544/19 30/555/23 36/556/23 4/557/23
f 441/546/9 442/550/9 32/286/9 29/304/9 3/547/9
f 444/558/9 436/559/9 37/353/9 38/355/9
f 429/560/9 440/561/9 4/562/9
f 436/559/9 429/560/9 4/562/9 36/350/9 37/353/9
f 437/552/6 430/298/3 14/297/3 40/553/6
usemtl M_Black
f 87/563/1 89/564/1 90/565/1 88/566/1 91/567/1 93/568/1 94/569/1 92/570/1 224/571/1 223/572/1 95/573/1 97/574/1 98/575/1 96/576/1 99/577/1 101/578/1 102/579/1 100/580/1
f 141/581/1 154/582/1 156/583/1 155/584/1 153/585/1 150/586/1 152/587/1 151/588/1 149/589/1 223/572/1 224/571/1 146/590/1 148/591/1 147/592/1 145/593/1 142/594/1 144/595/1 143/596/1
f 207/597/1 208/598/1 174/599/1 173/600/1
f 208/598/1 209/601/1 175/602/1 174/599/1
f 209/601/1 210/603/1 176/604/1 175/602/1
f 211/605/1 212/606/1 178/607/1 177/608/1
f 212/606/1 213/609/1 179/610/1 178/607/1
f 213/609/1 214/611/1 180/612/1 179/610/1
f 215/613/1 216/614/1 182/615/1 181/616/1
f 217/617/1 215/613/1 181/616/1 183/618/1
f 218/619/1 217/617/1 183/618/1 184/620/1
f 219/621/1 220/622/1 186/623/1 185/624/1
f 221/625/1 219/621/1 185/624/1 187/626/1
f 222/627/1 221/625/1 187/626/1 188/628/1
f 220/622/1 207/597/1 173/600/1 186/623/1
f 214/611/1 222/627/1 188/628/1 180/612/1
f 216/614/1 123/629/1 189/630/1 182/615/1
f 210/603/1 218/619/1 184/620/1 176/604/1
f 124/631/1 211/605/1 177/608/1 190/632/1
f 226/633/1 225/634/1 191/635/1 192/636/1
f 227/637/1 226/633/1 192/636/1 193/638/1
f 228/639/1 227/637/1 193/638/1 194/640/1
f 230/641/1 229/642/1 195/643/1 196/644/1
f 231/645/1 230/641/1 196/644/1 197/646/1
f 232/647/1 231/645/1 197/646/1 198/648/1
f 234/649/1 233/650/1 199/651/1 200/652/1
f 233/650/1 235/653/1 201/654/1 199/651/1
f 235/653/1 236/655/1 202/656/1 201/654/1
f 238/657/1 237/658/1 203/659/1 204/660/1
f 237/658/1 239/661/1 205/662/1 203/659/1
f 239/661/1 240/663/1 206/664/1 205/662/1
f 225/634/1 238/657/1 204/660/1 191/635/1
f 240/663/1 232/647/1 198/648/1 206/664/1
f 123/629/1 234/649/1 200/652/1 189/630/1
f 236/655/1 228/639/1 194/640/1 202/656/1
f 229/642/1 124/631/1 190/632/1 195/643/1
usemtl M_LightFade_Red
f 449/665/131 483/666/132 485/667/133 451/668/134
f 473/669/135 507/670/136 504/671/137 470/672/138
f 473/669/135 475/673/139 509/674/140 507/670/136
f 453/675/141 487/676/142 489/677/143 455/678/144
f 478/679/145 512/680/145 500/681/146 466/682/147
f 468/683/148 466/682/147 500/681/146 502/684/149
f 455/678/144 489/677/143 490/685/150 456/686/151
f 467/687/152 468/683/148 502/684/149 501/688/153
f 456/686/151 490/685/150 488/689/154 454/690/155
f 465/691/156 467/687/152 501/688/153 499/692/157
f 445/693/158 479/694/159 481/695/160 447/696/161
f 469/697/162 471/698/163 505/699/164 503/700/165
f 447/696/161 481/695/160 482/701/166 448/702/167
f 471/698/163 472/703/168 506/704/169 505/699/164
f 448/702/167 482/701/166 480/705/170 446/706/171
f 472/703/168 470/672/138 504/671/137 506/704/169
f 445/693/158 458/707/172 492/708/173 479/694/159
f 461/709/174 463/710/175 497/711/176 495/712/177
f 449/665/131 446/706/171 480/705/170 483/666/132
f 460/713/178 494/714/179 492/708/173 458/707/172
f 463/710/175 464/715/180 498/716/181 497/711/176
f 453/675/141 477/717/182 511/718/182 487/676/142
f 459/719/183 493/720/184 494/714/179 460/713/178
f 464/715/180 462/721/185 496/722/186 498/716/181
f 457/723/187 454/690/155 488/689/154 491/724/188
f 457/723/187 491/724/188 493/720/184 459/719/183
f 461/709/174 495/712/177 508/725/189 474/726/190
f 478/679/145 450/727/191 484/728/192 512/680/145
f 452/729/193 486/730/194 484/728/192 450/727/191
f 465/691/156 499/692/157 496/722/186 462/721/185
f 476/731/195 474/726/190 508/725/189 510/732/196
f 451/668/134 485/667/133 486/730/194 452/729/193
f 469/697/162 503/700/165 511/718/182 477/717/182
f 475/673/139 476/731/195 510/732/196 509/674/140
