# Blender v3.6.0 OBJ File: 'AllModules_Unreal.blend'
# www.blender.org
mtllib Prop_Crate1.mtl
o Prop_Crate1_Cube.006
v -0.491340 -0.499995 0.491340
v -0.491340 -0.491340 0.499995
v -0.499995 -0.491340 0.491340
v -0.491340 -0.497460 0.497460
v -0.496337 -0.496337 0.496337
v -0.497460 -0.491340 0.497460
v -0.497460 -0.497460 0.491340
v -0.491340 0.491340 0.499995
v -0.491340 0.499995 0.491340
v -0.499995 0.491340 0.491340
v -0.491340 0.497460 0.497460
v -0.496337 0.496337 0.496337
v -0.497460 0.497460 0.491340
v -0.497460 0.491340 0.497460
v -0.491340 -0.499995 -0.491340
v -0.499995 -0.491340 -0.491340
v -0.491340 -0.491340 -0.499995
v -0.497460 -0.497460 -0.491340
v -0.496337 -0.496337 -0.496337
v -0.497460 -0.491340 -0.497460
v -0.491340 -0.497460 -0.497460
v -0.491340 0.499995 -0.491340
v -0.491340 0.491340 -0.499995
v -0.499995 0.491340 -0.491340
v -0.491340 0.497460 -0.497460
v -0.496337 0.496337 -0.496337
v -0.497460 0.491340 -0.497460
v -0.497460 0.497460 -0.491340
v 0.491340 -0.499995 0.491340
v 0.499995 -0.491340 0.491340
v 0.491340 -0.491340 0.499995
v 0.497460 -0.497460 0.491340
v 0.496337 -0.496337 0.496337
v 0.497460 -0.491340 0.497460
v 0.491340 -0.497460 0.497460
v 0.491340 0.499995 0.491340
v 0.491340 0.491340 0.499995
v 0.499995 0.491340 0.491340
v 0.491340 0.497460 0.497460
v 0.496337 0.496337 0.496337
v 0.497460 0.491340 0.497460
v 0.497460 0.497460 0.491340
v 0.491340 -0.499995 -0.491340
v 0.491340 -0.491340 -0.499995
v 0.499995 -0.491340 -0.491340
v 0.491340 -0.497460 -0.497460
v 0.496337 -0.496337 -0.496337
v 0.497460 -0.491340 -0.497460
v 0.497460 -0.497460 -0.491340
v 0.491340 0.499995 -0.491340
v 0.499995 0.491340 -0.491340
v 0.491340 0.491340 -0.499995
v 0.497460 0.497460 -0.491340
v 0.496337 0.496337 -0.496337
v 0.497460 0.491340 -0.497460
v 0.491340 0.497460 -0.497460
vt 0.233965 0.726417
vt 0.233965 0.935973
vt 0.045110 0.935973
vt 0.045110 0.726417
vt 0.233965 0.726417
vt 0.233965 0.935973
vt 0.045110 0.935973
vt 0.045110 0.726417
vt 0.233965 0.935973
vt 0.045110 0.935973
vt 0.045111 0.726417
vt 0.233965 0.726417
vt 0.045110 0.726417
vt 0.045110 0.935973
vt 0.233965 0.935973
vt 0.233965 0.726417
vt 0.045110 0.726417
vt 0.045110 0.935973
vt 0.233965 0.935973
vt 0.233965 0.726417
vt 0.045110 0.726417
vt 0.045111 0.724572
vt 0.043916 0.724832
vt 0.043447 0.726417
vt 0.043447 0.726417
vt 0.045111 0.724572
vt 0.045111 0.937819
vt 0.044150 0.937819
vt 0.043447 0.935973
vt 0.043447 0.726417
vt 0.043447 0.725352
vt 0.045111 0.724572
vt 0.043447 0.937039
vt 0.045111 0.937819
vt 0.045110 0.935973
vt 0.043447 0.935973
vt 0.043447 0.937039
vt 0.045111 0.937819
vt 0.235629 0.726417
vt 0.235629 0.725352
vt 0.233965 0.724572
vt 0.045111 0.724572
vt 0.044150 0.724572
vt 0.043447 0.726417
vt 0.045111 0.937819
vt 0.044150 0.937819
vt 0.043447 0.935973
vt 0.043447 0.935973
vt 0.043447 0.937039
vt 0.233965 0.937819
vt 0.234926 0.937819
vt 0.235629 0.935973
vt 0.233965 0.726417
vt 0.235629 0.726417
vt 0.235629 0.725352
vt 0.233965 0.724572
vt 0.043447 0.726417
vt 0.043447 0.725352
vt 0.045111 0.724572
vt 0.234926 0.724572
vt 0.235629 0.726417
vt 0.233965 0.724572
vt 0.234926 0.724572
vt 0.235629 0.726417
vt 0.235629 0.935973
vt 0.235629 0.937039
vt 0.233965 0.937819
vt 0.045111 0.937819
vt 0.044150 0.937819
vt 0.043447 0.935973
vt 0.233965 0.935973
vt 0.233965 0.937819
vt 0.234926 0.937819
vt 0.235629 0.935973
vt 0.235629 0.726417
vt 0.235629 0.725352
vt 0.233965 0.724572
vt 0.233965 0.724572
vt 0.234926 0.724572
vt 0.235629 0.935973
vt 0.235394 0.937299
vt 0.233965 0.937819
vt 0.235629 0.935973
vt 0.233965 0.937819
vn 0.1794 -0.1794 0.9673
vn 0.1794 0.1794 0.9673
vn -0.1794 0.1794 0.9673
vn -0.1794 -0.1794 0.9673
vn 0.9673 -0.1794 -0.1794
vn 0.9673 0.1794 -0.1794
vn 0.9673 0.1794 0.1794
vn 0.9673 -0.1794 0.1794
vn 0.1794 0.9673 -0.1794
vn -0.1794 0.9673 -0.1794
vn -0.1794 0.9673 0.1794
vn 0.1794 0.9673 0.1794
vn -0.9673 -0.1794 0.1794
vn -0.9673 0.1794 0.1794
vn -0.9673 0.1794 -0.1794
vn -0.9673 -0.1794 -0.1794
vn -0.1794 -0.1794 -0.9673
vn -0.1794 0.1794 -0.9673
vn 0.1794 0.1794 -0.9673
vn 0.1794 -0.1794 -0.9673
vn -0.1794 -0.9673 0.1794
vn -0.1726 -0.6965 0.6965
vn -0.5774 -0.5774 0.5774
vn -0.6965 -0.6965 0.1726
vn -0.6965 -0.1726 0.6965
vn -0.1726 0.6965 0.6965
vn -0.5774 0.5774 0.5774
vn -0.6965 0.1726 0.6965
vn -0.6965 0.6965 0.1726
vn -0.1794 -0.9673 -0.1794
vn -0.6965 -0.6965 -0.1726
vn -0.5774 -0.5774 -0.5774
vn -0.1726 -0.6965 -0.6965
vn -0.6965 -0.1726 -0.6965
vn -0.1726 0.6965 -0.6965
vn -0.5774 0.5774 -0.5774
vn -0.6965 0.6965 -0.1726
vn -0.6965 0.1726 -0.6965
vn 0.1794 -0.9673 0.1794
vn 0.6965 -0.6965 0.1726
vn 0.5774 -0.5774 0.5774
vn 0.1726 -0.6965 0.6965
vn 0.6965 -0.1726 0.6965
vn 0.1726 0.6965 0.6965
vn 0.5774 0.5774 0.5774
vn 0.6965 0.6965 0.1726
vn 0.6965 0.1726 0.6965
vn 0.1794 -0.9673 -0.1794
vn 0.1726 -0.6965 -0.6965
vn 0.5774 -0.5774 -0.5774
vn 0.6965 -0.6965 -0.1726
vn 0.6965 -0.1726 -0.6965
vn 0.6965 0.6965 -0.1726
vn 0.5774 0.5774 -0.5774
vn 0.1726 0.6965 -0.6965
vn 0.6965 0.1726 -0.6965
usemtl MI_Trim_01
s 1
f 31/1/1 37/2/2 8/3/3 2/4/4
f 45/5/5 51/6/6 38/7/7 30/8/8
f 50/9/9 22/10/10 9/11/11 36/12/12
f 3/13/13 10/14/14 24/15/15 16/16/16
f 17/17/17 23/18/18 52/19/19 44/20/20
f 1/21/21 4/22/22 5/23/23 7/24/24
f 2/4/4 6/25/25 5/23/23 4/22/22
f 3/13/13 7/26/24 5/23/23 6/25/25
f 8/3/3 11/27/26 12/28/27 14/29/28
f 9/11/11 13/30/29 12/31/27 11/32/26
f 10/14/14 14/29/28 12/33/27 13/34/29
f 15/35/30 18/36/31 19/37/32 21/38/33
f 16/16/16 20/39/34 19/40/32 18/41/31
f 17/17/17 21/42/33 19/43/32 20/44/34
f 22/10/10 25/45/35 26/46/36 28/47/37
f 23/18/18 27/48/38 26/49/36 25/45/35
f 24/15/15 28/50/37 26/51/36 27/52/38
f 29/53/39 32/54/40 33/55/41 35/56/42
f 30/8/8 34/57/43 33/58/41 32/59/40
f 31/1/1 35/56/42 33/60/41 34/61/43
f 36/12/12 39/62/44 40/63/45 42/64/46
f 37/2/2 41/65/47 40/66/45 39/67/44
f 38/7/7 42/68/46 40/69/45 41/70/47
f 43/71/48 46/72/49 47/73/50 49/74/51
f 44/20/20 48/75/52 47/76/50 46/77/49
f 45/5/5 49/78/51 47/79/50 48/75/52
f 50/9/9 53/80/53 54/81/54 56/82/55
f 51/6/6 55/83/56 54/81/54 53/84/53
f 52/19/19 56/82/55 54/81/54 55/83/56
f 15/35/30 1/21/21 7/24/24 18/36/31
f 18/41/31 7/26/24 3/13/13 16/16/16
f 2/4/4 8/3/3 14/29/28 6/25/25
f 6/25/25 14/29/28 10/14/14 3/13/13
f 9/11/11 22/10/10 28/47/37 13/30/29
f 13/34/29 28/50/37 24/15/15 10/14/14
f 23/18/18 17/17/17 20/44/34 27/48/38
f 27/52/38 20/39/34 16/16/16 24/15/15
f 43/71/48 15/35/30 21/38/33 46/72/49
f 46/77/49 21/42/33 17/17/17 44/20/20
f 22/10/10 50/9/9 56/82/55 25/45/35
f 25/45/35 56/82/55 52/19/19 23/18/18
f 51/6/6 45/5/5 48/75/52 55/83/56
f 55/83/56 48/75/52 44/20/20 52/19/19
f 29/53/39 43/71/48 49/74/51 32/54/40
f 32/59/40 49/78/51 45/5/5 30/8/8
f 50/9/9 36/12/12 42/64/46 53/80/53
f 53/84/53 42/68/46 38/7/7 51/6/6
f 37/2/2 31/1/1 34/61/43 41/65/47
f 41/70/47 34/57/43 30/8/8 38/7/7
f 1/21/21 29/53/39 35/56/42 4/22/22
f 4/22/22 35/56/42 31/1/1 2/4/4
f 36/12/12 9/11/11 11/32/26 39/62/44
f 39/67/44 11/27/26 8/3/3 37/2/2
f 15/35/30 43/71/48 29/53/39 1/21/21
