# Blender v3.6.0 OBJ File: 'AllModules_Unreal.blend'
# www.blender.org
mtllib Prop_Pipe_Medium_Straight.mtl
o Prop_Pipe_Medium_Straight_Cylinder
v -0.000000 -0.125000 0.000000
v 0.062500 -0.108253 0.000000
v 0.108253 -0.062500 0.000000
v 0.125000 0.000000 -0.000000
v 0.108253 0.062500 -0.000000
v 0.062500 0.108253 -0.000000
v -0.000000 0.125000 -0.000000
v -0.062500 0.108253 -0.000000
v -0.108253 0.062500 -0.000000
v -0.125000 0.000000 -0.000000
v -0.108253 -0.062500 0.000000
v -0.062500 -0.108253 0.000000
v -0.000000 -0.139994 -2.000000
v 0.069997 -0.121238 -2.000000
v 0.121238 -0.069997 -2.000000
v 0.139994 0.000000 -2.000000
v 0.121238 0.069997 -2.000000
v 0.069997 0.121238 -2.000000
v -0.000000 0.139994 -2.000000
v -0.069997 0.121238 -2.000000
v -0.121238 0.069997 -2.000000
v -0.139994 0.000000 -2.000000
v -0.121238 -0.069997 -2.000000
v -0.069997 -0.121238 -2.000000
v 0.062500 -0.108253 -1.757893
v 0.108253 -0.062500 -1.757893
v 0.125000 0.000000 -1.757893
v 0.108253 0.062500 -1.757893
v 0.062500 0.108253 -1.757893
v -0.000000 0.125000 -1.757893
v -0.062500 0.108253 -1.757893
v -0.108253 0.062500 -1.757893
v -0.125000 0.000000 -1.757893
v -0.108253 -0.062500 -1.757893
v -0.062500 -0.108253 -1.757893
v -0.000000 -0.125000 -1.757893
v -0.000000 -0.139994 -1.769203
v 0.069997 -0.121238 -1.769203
v 0.121238 -0.069997 -1.769203
v 0.139994 0.000000 -1.769203
v 0.121238 0.069997 -1.769203
v 0.069997 0.121238 -1.769203
v -0.000000 0.139994 -1.769203
v -0.069997 0.121238 -1.769203
v -0.121238 0.069997 -1.769203
v -0.139994 0.000000 -1.769203
v -0.121238 -0.069997 -1.769203
v -0.069997 -0.121238 -1.769203
v 0.062500 -0.108253 -1.471042
v 0.108253 -0.062500 -1.471042
v 0.125000 0.000000 -1.471042
v 0.108253 0.062500 -1.471042
v 0.062500 0.108253 -1.471042
v -0.000000 0.125000 -1.471042
v -0.062500 0.108253 -1.471042
v -0.108253 0.062500 -1.471042
v -0.125000 0.000000 -1.471042
v -0.108253 -0.062500 -1.471042
v -0.062500 -0.108253 -1.471042
v -0.000000 -0.125000 -1.471042
v -0.000000 -0.125000 -1.566836
v 0.062500 -0.108253 -1.566836
v 0.108253 -0.062500 -1.566836
v 0.125000 0.000000 -1.566836
v 0.108253 0.062500 -1.566836
v 0.062500 0.108253 -1.566836
v -0.000000 0.125000 -1.566836
v -0.062500 0.108253 -1.566836
v -0.108253 0.062500 -1.566836
v -0.125000 0.000000 -1.566836
v -0.108253 -0.062500 -1.566836
v -0.062500 -0.108253 -1.566836
v 0.067741 -0.117331 -1.556615
v 0.067741 -0.117331 -1.481263
v 0.117331 -0.067741 -1.556615
v 0.117331 -0.067741 -1.481263
v 0.135482 0.000000 -1.556615
v 0.135482 0.000000 -1.481263
v 0.117331 0.067741 -1.556615
v 0.117331 0.067741 -1.481263
v 0.067741 0.117331 -1.556615
v 0.067741 0.117331 -1.481263
v -0.000000 0.135482 -1.556615
v -0.000000 0.135482 -1.481263
v -0.067741 0.117331 -1.556615
v -0.067741 0.117331 -1.481263
v -0.117331 0.067741 -1.556615
v -0.117331 0.067741 -1.481263
v -0.135482 0.000000 -1.556615
v -0.135482 0.000000 -1.481263
v -0.117331 -0.067741 -1.556615
v -0.117331 -0.067741 -1.481263
v -0.067741 -0.117331 -1.556615
v -0.067741 -0.117331 -1.481263
v -0.000000 -0.135482 -1.481263
v -0.000000 -0.135482 -1.556615
v -0.000000 -0.139994 2.000000
v 0.069997 -0.121238 2.000000
v 0.121238 -0.069997 2.000000
v 0.139994 0.000000 2.000000
v 0.121238 0.069997 2.000000
v 0.069997 0.121239 2.000000
v -0.000000 0.139994 2.000000
v -0.069997 0.121239 2.000000
v -0.121238 0.069997 2.000000
v -0.139994 0.000000 2.000000
v -0.121238 -0.069997 2.000000
v -0.069997 -0.121238 2.000000
v 0.062500 -0.108253 1.757893
v 0.108253 -0.062500 1.757893
v 0.125000 0.000000 1.757893
v 0.108253 0.062500 1.757893
v 0.062500 0.108253 1.757893
v -0.000000 0.125000 1.757893
v -0.062500 0.108253 1.757893
v -0.108253 0.062500 1.757893
v -0.125000 0.000000 1.757893
v -0.108253 -0.062500 1.757893
v -0.062500 -0.108253 1.757893
v -0.000000 -0.125000 1.757893
v -0.000000 -0.139994 1.769203
v 0.069997 -0.121238 1.769203
v 0.121238 -0.069997 1.769203
v 0.139994 0.000000 1.769203
v 0.121238 0.069997 1.769203
v 0.069997 0.121239 1.769203
v -0.000000 0.139994 1.769203
v -0.069997 0.121239 1.769203
v -0.121238 0.069997 1.769203
v -0.139994 0.000000 1.769203
v -0.121238 -0.069997 1.769203
v -0.069997 -0.121238 1.769203
v 0.062500 -0.108253 1.471042
v 0.108253 -0.062500 1.471042
v 0.125000 0.000000 1.471042
v 0.108253 0.062500 1.471042
v 0.062500 0.108253 1.471042
v -0.000000 0.125000 1.471042
v -0.062500 0.108253 1.471042
v -0.108253 0.062500 1.471042
v -0.125000 0.000000 1.471042
v -0.108253 -0.062500 1.471042
v -0.062500 -0.108253 1.471042
v -0.000000 -0.125000 1.471042
v -0.000000 -0.125000 1.566836
v 0.062500 -0.108253 1.566836
v 0.108253 -0.062500 1.566836
v 0.125000 0.000000 1.566836
v 0.108253 0.062500 1.566836
v 0.062500 0.108253 1.566836
v -0.000000 0.125000 1.566836
v -0.062500 0.108253 1.566836
v -0.108253 0.062500 1.566836
v -0.125000 0.000000 1.566836
v -0.108253 -0.062500 1.566836
v -0.062500 -0.108253 1.566836
v 0.067741 -0.117331 1.556615
v 0.067741 -0.117331 1.481263
v 0.117331 -0.067741 1.556615
v 0.117331 -0.067741 1.481263
v 0.135482 0.000000 1.556615
v 0.135482 0.000000 1.481263
v 0.117331 0.067741 1.556615
v 0.117331 0.067741 1.481263
v 0.067741 0.117331 1.556615
v 0.067741 0.117331 1.481263
v -0.000000 0.135482 1.556615
v -0.000000 0.135482 1.481263
v -0.067741 0.117331 1.556615
v -0.067741 0.117331 1.481263
v -0.117331 0.067741 1.556615
v -0.117331 0.067741 1.481263
v -0.135482 0.000000 1.556615
v -0.135482 0.000000 1.481263
v -0.117331 -0.067741 1.556615
v -0.117331 -0.067741 1.481263
v -0.067741 -0.117331 1.556615
v -0.067741 -0.117331 1.481263
v -0.000000 -0.135482 1.481263
v -0.000000 -0.135482 1.556615
vt 0.211241 0.871866
vt 0.688791 0.871866
vt 0.688791 0.882020
vt 0.211241 0.882020
vt 0.688791 0.892174
vt 0.211241 0.892174
vt 0.211241 0.861712
vt 0.688791 0.861712
vt 0.211241 0.851558
vt 0.688791 0.851558
vt 0.211241 0.841404
vt 0.688791 0.841404
vt 0.211241 0.831250
vt 0.688791 0.831250
vt 0.211241 0.821096
vt 0.688791 0.821096
vt 0.211241 0.810942
vt 0.688791 0.810942
vt 0.211241 0.800788
vt 0.688791 0.800788
vt 0.211241 0.790634
vt 0.688791 0.790634
vt 0.211241 0.780480
vt 0.688791 0.780480
vt 0.211241 0.770326
vt 0.688791 0.770326
vt 0.433286 0.025850
vt 0.389154 0.025850
vt 0.389154 0.025850
vt 0.433286 0.025850
vt 0.477419 0.001650
vt 0.521552 0.001650
vt 0.521552 0.001650
vt 0.477419 0.001650
vt 0.830482 0.025850
vt 0.786349 0.025850
vt 0.786349 0.025850
vt 0.830482 0.025850
vt 0.477419 0.025850
vt 0.477419 0.025850
vt 0.565685 0.001650
vt 0.565685 0.001650
vt 0.742216 0.025850
vt 0.742216 0.025850
vt 0.521552 0.025850
vt 0.521552 0.025850
vt 0.609818 0.001650
vt 0.609818 0.001650
vt 0.565685 0.025850
vt 0.565685 0.025850
vt 0.653950 0.001650
vt 0.653950 0.001650
vt 0.300888 0.001650
vt 0.345021 0.001650
vt 0.345021 0.001650
vt 0.300888 0.001650
vt 0.609817 0.025850
vt 0.609817 0.025850
vt 0.742216 0.001650
vt 0.786349 0.001650
vt 0.830482 0.001650
vt 0.698083 0.025850
vt 0.698083 0.001650
vt 0.653950 0.025850
vt 0.433286 0.001651
vt 0.389154 0.001650
vt 0.345021 0.025850
vt 0.300888 0.025850
vt 0.742216 0.001650
vt 0.786349 0.001650
vt 0.698083 0.025850
vt 0.433286 0.001651
vt 0.345021 0.025850
vt 0.830482 0.001650
vt 0.653950 0.025850
vt 0.389154 0.001650
vt 0.300888 0.025850
vt 0.698083 0.001650
vt 0.688791 0.882020
vt 0.688791 0.871866
vt 0.688791 0.892174
vt 0.688791 0.861712
vt 0.688791 0.851558
vt 0.688791 0.841404
vt 0.688791 0.831250
vt 0.688791 0.821096
vt 0.688791 0.810942
vt 0.688791 0.800788
vt 0.688791 0.790634
vt 0.688791 0.780480
vt 0.688791 0.770326
vt 0.433286 0.025850
vt 0.433286 0.025850
vt 0.389154 0.025850
vt 0.389154 0.025850
vt 0.477419 0.001650
vt 0.477419 0.001650
vt 0.521552 0.001650
vt 0.521552 0.001650
vt 0.830482 0.025850
vt 0.830482 0.025850
vt 0.786349 0.025850
vt 0.786349 0.025850
vt 0.477419 0.025850
vt 0.477419 0.025850
vt 0.565685 0.001650
vt 0.565685 0.001650
vt 0.742216 0.025850
vt 0.742216 0.025850
vt 0.521552 0.025850
vt 0.521552 0.025850
vt 0.609818 0.001650
vt 0.609818 0.001650
vt 0.565685 0.025850
vt 0.565685 0.025850
vt 0.653950 0.001650
vt 0.653950 0.001650
vt 0.300888 0.001650
vt 0.300888 0.001650
vt 0.345021 0.001650
vt 0.345021 0.001650
vt 0.609817 0.025850
vt 0.609817 0.025850
vt 0.786349 0.001650
vt 0.742216 0.001650
vt 0.830482 0.001650
vt 0.698083 0.025850
vt 0.698083 0.001650
vt 0.653950 0.025850
vt 0.433286 0.001651
vt 0.389154 0.001650
vt 0.345021 0.025850
vt 0.300888 0.025850
vt 0.742216 0.001650
vt 0.786349 0.001650
vt 0.698083 0.025850
vt 0.433286 0.001651
vt 0.345021 0.025850
vt 0.830482 0.001650
vt 0.653950 0.025850
vt 0.389154 0.001650
vt 0.300888 0.025850
vt 0.698083 0.001650
vt 0.217039 0.371133
vt 0.217039 0.480950
vt 0.176485 0.480950
vt 0.176485 0.371133
vt 0.135931 0.480950
vt 0.135931 0.371133
vt 0.257593 0.371133
vt 0.257593 0.480950
vt 0.298147 0.371133
vt 0.298147 0.480950
vt 0.338701 0.371133
vt 0.338701 0.480950
vt 0.379255 0.371133
vt 0.379255 0.480950
vt 0.419809 0.371133
vt 0.419809 0.480950
vt 0.460363 0.371133
vt 0.460363 0.480950
vt 0.500917 0.371133
vt 0.500917 0.480950
vt 0.541471 0.371133
vt 0.541471 0.480950
vt 0.582026 0.371133
vt 0.582026 0.480950
vt 0.622580 0.371133
vt 0.622579 0.480950
vt 0.455026 0.539161
vt 0.518179 0.539161
vt 0.518179 0.549315
vt 0.455026 0.549315
vt 0.518179 0.559469
vt 0.455026 0.559469
vt 0.518179 0.569623
vt 0.455026 0.569623
vt 0.518179 0.579777
vt 0.455026 0.579777
vt 0.518179 0.589931
vt 0.455026 0.589931
vt 0.518179 0.600085
vt 0.455026 0.600085
vt 0.518179 0.610239
vt 0.455026 0.610239
vt 0.518179 0.620393
vt 0.455026 0.620393
vt 0.518179 0.630547
vt 0.455026 0.630547
vt 0.518179 0.640701
vt 0.455026 0.640701
vt 0.455026 0.650855
vt 0.518179 0.650855
vt 0.518179 0.661009
vt 0.455026 0.661009
vt 0.622580 0.365751
vt 0.582026 0.365751
vt 0.541471 0.365751
vt 0.500917 0.365751
vt 0.460363 0.365751
vt 0.419809 0.365751
vt 0.379255 0.365751
vt 0.338701 0.365752
vt 0.298147 0.365751
vt 0.257593 0.365751
vt 0.217039 0.365752
vt 0.176485 0.365752
vt 0.135931 0.365751
vt 0.217039 0.371133
vt 0.176485 0.371133
vt 0.176485 0.480950
vt 0.217039 0.480950
vt 0.135931 0.371133
vt 0.135931 0.480950
vt 0.257593 0.371133
vt 0.257593 0.480950
vt 0.298147 0.371133
vt 0.298147 0.480950
vt 0.338701 0.371133
vt 0.338701 0.480950
vt 0.379255 0.371133
vt 0.379255 0.480950
vt 0.419809 0.371133
vt 0.419809 0.480950
vt 0.460363 0.371133
vt 0.460363 0.480950
vt 0.500917 0.371133
vt 0.500917 0.480950
vt 0.541471 0.371133
vt 0.541471 0.480950
vt 0.582026 0.371133
vt 0.582026 0.480950
vt 0.622580 0.371133
vt 0.622579 0.480950
vt 0.455026 0.539161
vt 0.455026 0.549315
vt 0.518179 0.549315
vt 0.518179 0.539161
vt 0.455026 0.559469
vt 0.518179 0.559469
vt 0.455026 0.569623
vt 0.518179 0.569623
vt 0.455026 0.579777
vt 0.518179 0.579777
vt 0.455026 0.589931
vt 0.518179 0.589931
vt 0.455026 0.600085
vt 0.518179 0.600085
vt 0.455026 0.610239
vt 0.518179 0.610239
vt 0.455026 0.620393
vt 0.518179 0.620393
vt 0.455026 0.630547
vt 0.518179 0.630547
vt 0.455026 0.640701
vt 0.518179 0.640701
vt 0.455026 0.650855
vt 0.455026 0.661009
vt 0.518179 0.661009
vt 0.518179 0.650855
vt 0.622580 0.365751
vt 0.582026 0.365751
vt 0.541471 0.365751
vt 0.500917 0.365751
vt 0.460363 0.365751
vt 0.419809 0.365751
vt 0.379255 0.365751
vt 0.338701 0.365752
vt 0.298147 0.365751
vt 0.257593 0.365751
vt 0.217039 0.365752
vt 0.176485 0.365752
vt 0.135931 0.365751
vn -0.8660 -0.5000 0.0000
vn -0.5000 -0.8660 0.0000
vn 0.0000 -1.0000 0.0000
vn -1.0000 -0.0000 -0.0000
vn -0.8660 0.5000 -0.0000
vn -0.5000 0.8660 -0.0000
vn 0.0000 1.0000 -0.0000
vn 0.5000 0.8660 -0.0000
vn 0.8660 0.5000 -0.0000
vn 1.0000 -0.0000 -0.0000
vn 0.8660 -0.5000 0.0000
vn 0.5000 -0.8660 0.0000
vn 0.6981 0.0000 0.7160
vn 0.6046 -0.3491 0.7160
vn 0.6046 0.3491 -0.7160
vn 0.3491 0.6046 -0.7160
vn 0.0000 -0.6981 0.7160
vn -0.3491 -0.6046 0.7160
vn 0.6046 0.3491 0.7160
vn -0.0000 0.6981 -0.7160
vn -0.6046 -0.3491 0.7160
vn 0.3491 0.6046 0.7160
vn -0.3491 0.6046 -0.7160
vn 0.0000 0.6981 0.7160
vn -0.6046 0.3491 -0.7160
vn -0.0000 -0.6981 -0.7160
vn 0.3491 -0.6046 -0.7160
vn -0.3491 0.6046 0.7160
vn -0.6046 -0.3491 -0.7160
vn -0.3491 -0.6046 -0.7160
vn -0.6981 0.0000 0.7160
vn 0.6981 -0.0000 -0.7160
vn 0.3491 -0.6046 0.7160
vn -0.6046 0.3491 0.7160
vn 0.6046 -0.3491 -0.7160
vn -0.6981 -0.0000 -0.7160
vn -0.0000 -0.6022 0.7983
vn 0.3011 -0.5215 0.7983
vn 0.5215 -0.3011 0.7983
vn 0.6022 0.0000 0.7983
vn 0.5215 0.3011 0.7983
vn 0.3011 0.5215 0.7983
vn 0.0000 0.6022 0.7983
vn -0.3011 0.5215 0.7983
vn -0.5215 0.3011 0.7983
vn -0.6022 0.0000 0.7983
vn -0.5215 -0.3011 0.7983
vn -0.3011 -0.5215 0.7983
vn 0.0000 -0.6022 -0.7983
vn 0.3011 -0.5215 -0.7983
vn 0.5215 -0.3011 -0.7983
vn 0.6022 0.0000 -0.7983
vn 0.5215 0.3011 -0.7983
vn 0.3011 0.5215 -0.7983
vn 0.0000 0.6022 -0.7983
vn -0.3011 0.5215 -0.7983
vn -0.5215 0.3011 -0.7983
vn -0.6022 0.0000 -0.7983
vn -0.5215 -0.3011 -0.7983
vn -0.3011 -0.5215 -0.7983
usemtl MI_Trim_01
s 1
f 11/1/1 58/2/1 59/3/2 12/4/2
f 12/4/2 59/3/2 60/5/3 1/6/3
f 10/7/4 57/8/4 58/2/1 11/1/1
f 9/9/5 56/10/5 57/8/4 10/7/4
f 8/11/6 55/12/6 56/10/5 9/9/5
f 7/13/7 54/14/7 55/12/6 8/11/6
f 6/15/8 53/16/8 54/14/7 7/13/7
f 5/17/9 52/18/9 53/16/8 6/15/8
f 4/19/10 51/20/10 52/18/9 5/17/9
f 3/21/11 50/22/11 51/20/10 4/19/10
f 2/23/12 49/24/12 50/22/11 3/21/11
f 1/25/3 60/26/3 49/24/12 2/23/12
f 51/27/13 50/28/14 76/29/14 78/30/13
f 65/31/15 66/32/16 81/33/16 79/34/15
f 60/35/17 59/36/18 94/37/18 95/38/17
f 52/39/19 51/27/13 78/30/13 80/40/19
f 66/32/16 67/41/20 83/42/20 81/33/16
f 59/36/18 58/43/21 92/44/21 94/37/18
f 53/45/22 52/39/19 80/40/19 82/46/22
f 67/41/20 68/47/23 85/48/23 83/42/20
f 54/49/24 53/45/22 82/46/22 84/50/24
f 68/47/23 69/51/25 87/52/25 85/48/23
f 61/53/26 62/54/27 73/55/27 96/56/26
f 55/57/28 54/49/24 84/50/24 86/58/28
f 92/44/1 91/59/1 93/60/2 94/37/2
f 94/37/2 93/60/2 96/61/3 95/38/3
f 90/62/4 89/63/4 91/59/1 92/44/1
f 88/64/5 87/52/5 89/63/4 90/62/4
f 86/58/6 85/48/6 87/52/5 88/64/5
f 84/50/7 83/42/7 85/48/6 86/58/6
f 82/46/8 81/33/8 83/42/7 84/50/7
f 80/40/9 79/34/9 81/33/8 82/46/8
f 78/30/10 77/65/10 79/34/9 80/40/9
f 76/29/11 75/66/11 77/65/10 78/30/10
f 74/67/12 73/55/12 75/66/11 76/29/11
f 95/68/3 96/56/3 73/55/12 74/67/12
f 71/69/29 72/70/30 93/60/30 91/59/29
f 58/43/21 57/71/31 90/62/31 92/44/21
f 64/72/32 65/31/15 79/34/15 77/65/32
f 50/28/14 49/73/33 74/67/33 76/29/14
f 72/70/30 61/74/26 96/61/26 93/60/30
f 57/71/31 56/75/34 88/64/34 90/62/31
f 63/76/35 64/72/32 77/65/32 75/66/35
f 49/73/33 60/77/17 95/68/17 74/67/33
f 70/78/36 71/69/29 91/59/29 89/63/36
f 56/75/34 55/57/28 86/58/28 88/64/34
f 62/54/27 63/76/35 75/66/35 73/55/27
f 69/51/25 70/78/36 89/63/36 87/52/25
f 11/1/1 12/4/2 143/79/2 142/80/1
f 12/4/2 1/6/3 144/81/3 143/79/2
f 10/7/4 11/1/1 142/80/1 141/82/4
f 9/9/5 10/7/4 141/82/4 140/83/5
f 8/11/6 9/9/5 140/83/5 139/84/6
f 7/13/7 8/11/6 139/84/6 138/85/7
f 6/15/8 7/13/7 138/85/7 137/86/8
f 5/17/9 6/15/8 137/86/8 136/87/9
f 4/19/10 5/17/9 136/87/9 135/88/10
f 3/21/11 4/19/10 135/88/10 134/89/11
f 2/23/12 3/21/11 134/89/11 133/90/12
f 1/25/3 2/23/12 133/90/12 144/91/3
f 135/92/32 162/93/32 160/94/35 134/95/35
f 149/96/19 163/97/19 165/98/22 150/99/22
f 144/100/26 179/101/26 178/102/30 143/103/30
f 136/104/15 164/105/15 162/93/32 135/92/32
f 150/99/22 165/98/22 167/106/24 151/107/24
f 143/103/30 178/102/30 176/108/29 142/109/29
f 137/110/16 166/111/16 164/105/15 136/104/15
f 151/107/24 167/106/24 169/112/28 152/113/28
f 138/114/20 168/115/20 166/111/16 137/110/16
f 152/113/28 169/112/28 171/116/34 153/117/34
f 145/118/17 180/119/17 157/120/33 146/121/33
f 139/122/23 170/123/23 168/115/20 138/114/20
f 176/108/1 178/102/2 177/124/2 175/125/1
f 178/102/2 179/101/3 180/126/3 177/124/2
f 174/127/4 176/108/1 175/125/1 173/128/4
f 172/129/5 174/127/4 173/128/4 171/116/5
f 170/123/6 172/129/5 171/116/5 169/112/6
f 168/115/7 170/123/6 169/112/6 167/106/7
f 166/111/8 168/115/7 167/106/7 165/98/8
f 164/105/9 166/111/8 165/98/8 163/97/9
f 162/93/10 164/105/9 163/97/9 161/130/10
f 160/94/11 162/93/10 161/130/10 159/131/11
f 158/132/12 160/94/11 159/131/11 157/120/12
f 179/133/3 158/132/12 157/120/12 180/119/3
f 155/134/21 175/125/21 177/124/18 156/135/18
f 142/109/29 176/108/29 174/127/36 141/136/36
f 148/137/13 161/130/13 163/97/19 149/96/19
f 134/95/35 160/94/35 158/132/27 133/138/27
f 156/135/18 177/124/18 180/126/17 145/139/17
f 141/136/36 174/127/36 172/129/25 140/140/25
f 147/141/14 159/131/14 161/130/13 148/137/13
f 133/138/27 158/132/27 179/133/26 144/142/26
f 154/143/31 173/128/31 175/125/21 155/134/21
f 140/140/25 172/129/25 170/123/23 139/122/23
f 146/121/33 157/120/33 159/131/14 147/141/14
f 153/117/34 171/116/34 173/128/31 154/143/31
usemtl MI_Trim_02
f 47/144/1 23/145/1 24/146/2 48/147/2
f 48/147/2 24/146/2 13/148/3 37/149/3
f 46/150/4 22/151/4 23/145/1 47/144/1
f 45/152/5 21/153/5 22/151/4 46/150/4
f 44/154/6 20/155/6 21/153/5 45/152/5
f 43/156/7 19/157/7 20/155/6 44/154/6
f 42/158/8 18/159/8 19/157/7 43/156/7
f 41/160/9 17/161/9 18/159/8 42/158/8
f 40/162/10 16/163/10 17/161/9 41/160/9
f 39/164/11 15/165/11 16/163/10 40/162/10
f 38/166/12 14/167/12 15/165/11 39/164/11
f 37/168/3 13/169/3 14/167/12 38/166/12
f 61/170/3 36/171/3 25/172/12 62/173/12
f 62/173/12 25/172/12 26/174/11 63/175/11
f 63/175/11 26/174/11 27/176/10 64/177/10
f 64/177/10 27/176/10 28/178/9 65/179/9
f 65/179/9 28/178/9 29/180/8 66/181/8
f 66/181/8 29/180/8 30/182/7 67/183/7
f 67/183/7 30/182/7 31/184/6 68/185/6
f 68/185/6 31/184/6 32/186/5 69/187/5
f 69/187/5 32/186/5 33/188/4 70/189/4
f 70/189/4 33/188/4 34/190/1 71/191/1
f 72/192/2 35/193/2 36/194/3 61/195/3
f 71/191/1 34/190/1 35/193/2 72/192/2
f 36/196/37 37/168/37 38/166/38 25/197/38
f 25/197/38 38/166/38 39/164/39 26/198/39
f 26/198/39 39/164/39 40/162/40 27/199/40
f 27/199/40 40/162/40 41/160/41 28/200/41
f 28/200/41 41/160/41 42/158/42 29/201/42
f 29/201/42 42/158/42 43/156/43 30/202/43
f 30/202/43 43/156/43 44/154/44 31/203/44
f 31/203/44 44/154/44 45/152/45 32/204/45
f 32/204/45 45/152/45 46/150/46 33/205/46
f 33/205/46 46/150/46 47/144/47 34/206/47
f 35/207/48 48/147/48 37/149/37 36/208/37
f 34/206/47 47/144/47 48/147/48 35/207/48
f 131/209/1 132/210/2 108/211/2 107/212/1
f 132/210/2 121/213/3 97/214/3 108/211/2
f 130/215/4 131/209/1 107/212/1 106/216/4
f 129/217/5 130/215/4 106/216/4 105/218/5
f 128/219/6 129/217/5 105/218/5 104/220/6
f 127/221/7 128/219/6 104/220/6 103/222/7
f 126/223/8 127/221/7 103/222/7 102/224/8
f 125/225/9 126/223/8 102/224/8 101/226/9
f 124/227/10 125/225/9 101/226/9 100/228/10
f 123/229/11 124/227/10 100/228/10 99/230/11
f 122/231/12 123/229/11 99/230/11 98/232/12
f 121/233/3 122/231/12 98/232/12 97/234/3
f 145/235/3 146/236/12 109/237/12 120/238/3
f 146/236/12 147/239/11 110/240/11 109/237/12
f 147/239/11 148/241/10 111/242/10 110/240/11
f 148/241/10 149/243/9 112/244/9 111/242/10
f 149/243/9 150/245/8 113/246/8 112/244/9
f 150/245/8 151/247/7 114/248/7 113/246/8
f 151/247/7 152/249/6 115/250/6 114/248/7
f 152/249/6 153/251/5 116/252/5 115/250/6
f 153/251/5 154/253/4 117/254/4 116/252/5
f 154/253/4 155/255/1 118/256/1 117/254/4
f 156/257/2 145/258/3 120/259/3 119/260/2
f 155/255/1 156/257/2 119/260/2 118/256/1
f 120/261/49 109/262/50 122/231/50 121/233/49
f 109/262/50 110/263/51 123/229/51 122/231/50
f 110/263/51 111/264/52 124/227/52 123/229/51
f 111/264/52 112/265/53 125/225/53 124/227/52
f 112/265/53 113/266/54 126/223/54 125/225/53
f 113/266/54 114/267/55 127/221/55 126/223/54
f 114/267/55 115/268/56 128/219/56 127/221/55
f 115/268/56 116/269/57 129/217/57 128/219/56
f 116/269/57 117/270/58 130/215/58 129/217/57
f 117/270/58 118/271/59 131/209/59 130/215/58
f 119/272/60 120/273/49 121/213/49 132/210/60
f 118/271/59 119/272/60 132/210/60 131/209/59
