# Blender v3.6.0 OBJ File: 'AllModules_Unreal.blend'
# www.blender.org
mtllib Prop_Pipe_Capped.mtl
o Prop_Pipe_Capped_Cylinder.011
v -0.122027 -0.000000 0.000000
v -0.105679 -0.061014 0.000000
v -0.061014 -0.105679 0.000000
v 0.000000 -0.122027 -0.000000
v 0.061014 -0.105679 -0.000000
v 0.105679 -0.061014 -0.000000
v 0.122027 0.000000 -0.000000
v 0.105679 0.061014 -0.000000
v 0.061014 0.105679 -0.000000
v -0.000000 0.122027 -0.000000
v -0.061014 0.105679 0.000000
v -0.105679 0.061014 0.000000
v -0.136665 -0.000000 -1.991752
v -0.118356 -0.068333 -1.991752
v -0.068333 -0.118355 -1.991752
v -0.000000 -0.136665 -1.991752
v 0.068332 -0.118355 -1.991752
v 0.118355 -0.068332 -1.991752
v 0.136665 0.000000 -1.991752
v 0.118355 0.068333 -1.991752
v 0.068332 0.118355 -1.991752
v -0.000000 0.136665 -1.991752
v -0.068333 0.118355 -1.991752
v -0.118356 0.068332 -1.991752
v -0.105679 -0.061014 -1.750643
v -0.061014 -0.105679 -1.750643
v -0.000000 -0.122027 -1.750643
v 0.061014 -0.105679 -1.750643
v 0.105679 -0.061014 -1.750643
v 0.122027 0.000000 -1.750643
v 0.105679 0.061014 -1.750643
v 0.061014 0.105679 -1.750643
v -0.000000 0.122027 -1.750643
v -0.061014 0.105679 -1.750643
v -0.105679 0.061014 -1.750643
v -0.122028 -0.000000 -1.750643
v -0.136665 -0.000000 -1.761907
v -0.118356 -0.068333 -1.761907
v -0.068333 -0.118355 -1.761907
v -0.000000 -0.136665 -1.761907
v 0.068332 -0.118355 -1.761907
v 0.118355 -0.068332 -1.761907
v 0.136665 0.000000 -1.761907
v 0.118355 0.068333 -1.761907
v 0.068332 0.118355 -1.761907
v -0.000000 0.136665 -1.761907
v -0.068333 0.118355 -1.761907
v -0.118356 0.068332 -1.761907
v -0.105679 -0.061014 -1.464976
v -0.061014 -0.105679 -1.464976
v -0.000000 -0.122027 -1.464976
v 0.061014 -0.105679 -1.464976
v 0.105679 -0.061014 -1.464976
v 0.122027 0.000000 -1.464976
v 0.105679 0.061014 -1.464976
v 0.061014 0.105679 -1.464976
v -0.000000 0.122027 -1.464976
v -0.061014 0.105679 -1.464976
v -0.105679 0.061014 -1.464976
v -0.122028 -0.000000 -1.464976
v -0.122028 -0.000000 -1.560374
v -0.105679 -0.061014 -1.560374
v -0.061014 -0.105679 -1.560374
v -0.000000 -0.122027 -1.560374
v 0.061014 -0.105679 -1.560374
v 0.105679 -0.061014 -1.560374
v 0.122027 0.000000 -1.560374
v 0.105679 0.061014 -1.560374
v 0.061014 0.105679 -1.560374
v -0.000000 0.122027 -1.560374
v -0.061014 0.105679 -1.560374
v -0.105679 0.061014 -1.560374
v -0.114541 -0.066130 -1.550195
v -0.114541 -0.066130 -1.475155
v -0.066130 -0.114541 -1.550195
v -0.066130 -0.114541 -1.475155
v -0.000000 -0.132261 -1.550195
v -0.000000 -0.132261 -1.475155
v 0.066130 -0.114541 -1.550195
v 0.066130 -0.114541 -1.475155
v 0.114541 -0.066130 -1.550195
v 0.114541 -0.066130 -1.475155
v 0.132260 0.000000 -1.550195
v 0.132260 0.000000 -1.475155
v 0.114541 0.066130 -1.550195
v 0.114541 0.066130 -1.475155
v 0.066130 0.114541 -1.550195
v 0.066130 0.114541 -1.475155
v -0.000000 0.132261 -1.550195
v -0.000000 0.132261 -1.475155
v -0.066130 0.114541 -1.550195
v -0.066130 0.114541 -1.475155
v -0.114541 0.066130 -1.550195
v -0.114541 0.066130 -1.475155
v -0.132261 -0.000000 -1.475155
v -0.132261 -0.000000 -1.550195
v -0.110777 -0.000000 -1.991752
v -0.095936 -0.055388 -1.991665
v -0.055389 -0.095934 -1.991600
v -0.000000 -0.110775 -1.991577
v 0.055388 -0.095934 -1.991600
v 0.095935 -0.055388 -1.991665
v 0.110776 0.000000 -1.991752
v 0.095935 0.055388 -1.991840
v 0.055388 0.095934 -1.991904
v -0.000000 0.110775 -1.991927
v -0.055389 0.095934 -1.991904
v -0.095936 0.055388 -1.991840
v -0.110777 0.002350 -1.699420
v -0.095936 -0.053037 -1.699333
v -0.055389 -0.093584 -1.699268
v -0.000000 -0.108425 -1.699245
v 0.055388 -0.093584 -1.699268
v 0.095935 -0.053037 -1.699333
v 0.110776 0.002350 -1.699420
v 0.095935 0.057738 -1.699508
v 0.055388 0.098284 -1.699572
v -0.000000 0.113125 -1.699596
v -0.055389 0.098284 -1.699572
v -0.095936 0.057738 -1.699508
v -0.000000 0.002350 -1.699420
v -0.136665 -0.000000 1.991752
v -0.118355 -0.068333 1.991752
v -0.068332 -0.118355 1.991752
v 0.000000 -0.136665 1.991752
v 0.068333 -0.118355 1.991752
v 0.118356 -0.068332 1.991752
v 0.136665 0.000000 1.991752
v 0.118356 0.068333 1.991752
v 0.068333 0.118355 1.991752
v 0.000000 0.136665 1.991752
v -0.068332 0.118355 1.991752
v -0.118355 0.068332 1.991752
v -0.105678 -0.061014 1.750643
v -0.061013 -0.105679 1.750643
v 0.000000 -0.122027 1.750643
v 0.061014 -0.105679 1.750643
v 0.105679 -0.061014 1.750643
v 0.122028 0.000000 1.750643
v 0.105679 0.061014 1.750643
v 0.061014 0.105679 1.750643
v 0.000000 0.122027 1.750643
v -0.061013 0.105679 1.750643
v -0.105679 0.061014 1.750643
v -0.122027 -0.000000 1.750643
v -0.136665 -0.000000 1.761907
v -0.118355 -0.068333 1.761907
v -0.068332 -0.118355 1.761907
v 0.000000 -0.136665 1.761907
v 0.068333 -0.118355 1.761907
v 0.118356 -0.068332 1.761907
v 0.136665 0.000000 1.761907
v 0.118356 0.068333 1.761907
v 0.068333 0.118355 1.761907
v 0.000000 0.136665 1.761907
v -0.068332 0.118355 1.761907
v -0.118355 0.068332 1.761907
v -0.105679 -0.061014 1.464976
v -0.061013 -0.105679 1.464976
v 0.000000 -0.122027 1.464976
v 0.061014 -0.105679 1.464976
v 0.105679 -0.061014 1.464976
v 0.122028 0.000000 1.464976
v 0.105679 0.061014 1.464976
v 0.061014 0.105679 1.464976
v 0.000000 0.122027 1.464976
v -0.061013 0.105679 1.464976
v -0.105679 0.061014 1.464976
v -0.122027 -0.000000 1.464976
v -0.122027 -0.000000 1.560374
v -0.105679 -0.061014 1.560374
v -0.061013 -0.105679 1.560374
v 0.000000 -0.122027 1.560374
v 0.061014 -0.105679 1.560374
v 0.105679 -0.061014 1.560374
v 0.122028 0.000000 1.560374
v 0.105679 0.061014 1.560374
v 0.061014 0.105679 1.560374
v 0.000000 0.122027 1.560374
v -0.061013 0.105679 1.560374
v -0.105679 0.061014 1.560374
v -0.114541 -0.066130 1.550195
v -0.114541 -0.066130 1.475155
v -0.066130 -0.114541 1.550195
v -0.066130 -0.114541 1.475155
v 0.000000 -0.132261 1.550195
v 0.000000 -0.132261 1.475155
v 0.066131 -0.114541 1.550195
v 0.066131 -0.114541 1.475155
v 0.114541 -0.066130 1.550195
v 0.114541 -0.066130 1.475155
v 0.132261 0.000000 1.550195
v 0.132261 0.000000 1.475155
v 0.114541 0.066130 1.550195
v 0.114541 0.066130 1.475155
v 0.066131 0.114541 1.550195
v 0.066131 0.114541 1.475155
v 0.000000 0.132261 1.550195
v 0.000000 0.132261 1.475155
v -0.066130 0.114541 1.550195
v -0.066130 0.114541 1.475155
v -0.114541 0.066130 1.550195
v -0.114541 0.066130 1.475155
v -0.132260 -0.000000 1.475155
v -0.132260 -0.000000 1.550195
v -0.110776 -0.000000 1.991752
v -0.095935 -0.055388 1.991665
v -0.055388 -0.095934 1.991600
v 0.000000 -0.110775 1.991577
v 0.055389 -0.095934 1.991600
v 0.095936 -0.055388 1.991665
v 0.110777 0.000000 1.991752
v 0.095936 0.055388 1.991840
v 0.055389 0.095934 1.991904
v 0.000000 0.110775 1.991927
v -0.055388 0.095934 1.991904
v -0.095935 0.055388 1.991840
v -0.110776 0.002350 1.699420
v -0.095935 -0.053037 1.699333
v -0.055388 -0.093584 1.699268
v 0.000000 -0.108425 1.699245
v 0.055389 -0.093584 1.699268
v 0.095936 -0.053037 1.699333
v 0.110777 0.002350 1.699420
v 0.095936 0.057738 1.699508
v 0.055389 0.098284 1.699572
v 0.000000 0.113125 1.699596
v -0.055388 0.098284 1.699572
v -0.095935 0.057738 1.699508
v 0.000000 0.002350 1.699420
vt 0.211241 0.871866
vt 0.688791 0.871866
vt 0.688791 0.882020
vt 0.211241 0.882020
vt 0.688791 0.892174
vt 0.211241 0.892174
vt 0.211241 0.861712
vt 0.688791 0.861712
vt 0.211241 0.851558
vt 0.688791 0.851558
vt 0.211241 0.841404
vt 0.688791 0.841404
vt 0.211241 0.831250
vt 0.688791 0.831250
vt 0.211241 0.821096
vt 0.688791 0.821096
vt 0.211241 0.810942
vt 0.688791 0.810942
vt 0.211241 0.800788
vt 0.688791 0.800788
vt 0.211241 0.790634
vt 0.688791 0.790634
vt 0.211241 0.780480
vt 0.688791 0.780480
vt 0.211241 0.770326
vt 0.688791 0.770326
vt 0.433286 0.025850
vt 0.389154 0.025850
vt 0.389154 0.025850
vt 0.433286 0.025850
vt 0.477419 0.001650
vt 0.521552 0.001650
vt 0.521552 0.001650
vt 0.477419 0.001650
vt 0.830482 0.025850
vt 0.786349 0.025850
vt 0.786349 0.025850
vt 0.830482 0.025850
vt 0.477419 0.025850
vt 0.477419 0.025850
vt 0.565685 0.001650
vt 0.565685 0.001650
vt 0.742216 0.025850
vt 0.742216 0.025850
vt 0.521552 0.025850
vt 0.521552 0.025850
vt 0.609818 0.001650
vt 0.609818 0.001650
vt 0.565685 0.025850
vt 0.565685 0.025850
vt 0.653950 0.001650
vt 0.653950 0.001650
vt 0.300888 0.001650
vt 0.345021 0.001650
vt 0.345021 0.001650
vt 0.300888 0.001650
vt 0.609817 0.025850
vt 0.609817 0.025850
vt 0.742216 0.001650
vt 0.786349 0.001650
vt 0.830482 0.001650
vt 0.698083 0.025850
vt 0.698083 0.001650
vt 0.653950 0.025850
vt 0.433286 0.001651
vt 0.389154 0.001650
vt 0.345021 0.025850
vt 0.300888 0.025850
vt 0.742216 0.001650
vt 0.786349 0.001650
vt 0.698083 0.025850
vt 0.433286 0.001651
vt 0.345021 0.025850
vt 0.830482 0.001650
vt 0.653950 0.025850
vt 0.389154 0.001650
vt 0.300888 0.025850
vt 0.698083 0.001650
vt 0.688791 0.882020
vt 0.688791 0.871866
vt 0.688791 0.892174
vt 0.688791 0.861712
vt 0.688791 0.851558
vt 0.688791 0.841404
vt 0.688791 0.831250
vt 0.688791 0.821096
vt 0.688791 0.810942
vt 0.688791 0.800788
vt 0.688791 0.790634
vt 0.688791 0.780480
vt 0.688791 0.770326
vt 0.433286 0.025850
vt 0.433286 0.025850
vt 0.389154 0.025850
vt 0.389154 0.025850
vt 0.477419 0.001650
vt 0.477419 0.001650
vt 0.521552 0.001650
vt 0.521552 0.001650
vt 0.830482 0.025850
vt 0.830482 0.025850
vt 0.786349 0.025850
vt 0.786349 0.025850
vt 0.477419 0.025850
vt 0.477419 0.025850
vt 0.565685 0.001650
vt 0.565685 0.001650
vt 0.742216 0.025850
vt 0.742216 0.025850
vt 0.521552 0.025850
vt 0.521552 0.025850
vt 0.609818 0.001650
vt 0.609818 0.001650
vt 0.565685 0.025850
vt 0.565685 0.025850
vt 0.653950 0.001650
vt 0.653950 0.001650
vt 0.300888 0.001650
vt 0.300888 0.001650
vt 0.345021 0.001650
vt 0.345021 0.001650
vt 0.609817 0.025850
vt 0.609817 0.025850
vt 0.786349 0.001650
vt 0.742216 0.001650
vt 0.830482 0.001650
vt 0.698083 0.025850
vt 0.698083 0.001650
vt 0.653950 0.025850
vt 0.433286 0.001651
vt 0.389154 0.001650
vt 0.345021 0.025850
vt 0.300888 0.025850
vt 0.742216 0.001650
vt 0.786349 0.001650
vt 0.698083 0.025850
vt 0.433286 0.001651
vt 0.345021 0.025850
vt 0.830482 0.001650
vt 0.653950 0.025850
vt 0.389154 0.001650
vt 0.300888 0.025850
vt 0.698083 0.001650
vt 0.217039 0.371133
vt 0.217039 0.480950
vt 0.176485 0.480950
vt 0.176485 0.371133
vt 0.135931 0.480950
vt 0.135931 0.371133
vt 0.257593 0.371133
vt 0.257593 0.480950
vt 0.298147 0.371133
vt 0.298147 0.480950
vt 0.338701 0.371133
vt 0.338701 0.480950
vt 0.379255 0.371133
vt 0.379255 0.480950
vt 0.419809 0.371133
vt 0.419809 0.480950
vt 0.460363 0.371133
vt 0.460363 0.480950
vt 0.500917 0.371133
vt 0.500917 0.480950
vt 0.541471 0.371133
vt 0.541471 0.480950
vt 0.582026 0.371133
vt 0.582026 0.480950
vt 0.622580 0.371133
vt 0.622579 0.480950
vt 0.455026 0.539161
vt 0.518179 0.539161
vt 0.518179 0.549315
vt 0.455026 0.549315
vt 0.518179 0.559469
vt 0.455026 0.559469
vt 0.518179 0.569623
vt 0.455026 0.569623
vt 0.518179 0.579777
vt 0.455026 0.579777
vt 0.518179 0.589931
vt 0.455026 0.589931
vt 0.518179 0.600085
vt 0.455026 0.600085
vt 0.518179 0.610239
vt 0.455026 0.610239
vt 0.518179 0.620393
vt 0.455026 0.620393
vt 0.518179 0.630547
vt 0.455026 0.630547
vt 0.518179 0.640701
vt 0.455026 0.640701
vt 0.455026 0.650855
vt 0.518179 0.650855
vt 0.518179 0.661009
vt 0.455026 0.661009
vt 0.622580 0.365751
vt 0.582026 0.365751
vt 0.541471 0.365751
vt 0.500917 0.365751
vt 0.460363 0.365751
vt 0.419809 0.365751
vt 0.379255 0.365751
vt 0.338701 0.365752
vt 0.298147 0.365751
vt 0.257593 0.365751
vt 0.217039 0.365752
vt 0.176485 0.365752
vt 0.135931 0.365751
vt 0.445708 0.799852
vt 0.454407 0.784785
vt 0.462701 0.793079
vt 0.457038 0.802888
vt 0.501939 0.832317
vt 0.486872 0.841016
vt 0.483836 0.829686
vt 0.493645 0.824023
vt 0.469474 0.841016
vt 0.454407 0.832317
vt 0.462701 0.824023
vt 0.472510 0.829686
vt 0.501939 0.784785
vt 0.510638 0.799852
vt 0.499308 0.802888
vt 0.493645 0.793079
vt 0.469474 0.776086
vt 0.472510 0.787416
vt 0.445708 0.817250
vt 0.457038 0.814214
vt 0.510638 0.817250
vt 0.499308 0.814214
vt 0.486872 0.776086
vt 0.483836 0.787416
vt 0.476086 0.825468
vt 0.476143 0.816172
vt 0.533991 0.816070
vt 0.533933 0.825366
vt 0.476094 0.871949
vt 0.476024 0.862653
vt 0.533871 0.862551
vt 0.533942 0.871848
vt 0.476148 0.788283
vt 0.476078 0.778987
vt 0.533925 0.778885
vt 0.533995 0.788181
vt 0.476029 0.834764
vt 0.533876 0.834662
vt 0.476181 0.806876
vt 0.534028 0.806774
vt 0.475988 0.853357
vt 0.533835 0.853255
vt 0.475988 0.769691
vt 0.533835 0.769589
vt 0.476184 0.797579
vt 0.534032 0.797477
vt 0.475991 0.844061
vt 0.533839 0.843959
vt 0.476184 0.881245
vt 0.534032 0.881144
vt 0.476302 0.786113
vt 0.485842 0.769590
vt 0.511905 0.795653
vt 0.537969 0.821717
vt 0.521445 0.831257
vt 0.502365 0.831257
vt 0.485842 0.821717
vt 0.537969 0.769590
vt 0.547509 0.786113
vt 0.502366 0.760050
vt 0.476302 0.805193
vt 0.547509 0.805193
vt 0.521445 0.760050
vt 0.217039 0.371133
vt 0.176485 0.371133
vt 0.176485 0.480950
vt 0.217039 0.480950
vt 0.135931 0.371133
vt 0.135931 0.480950
vt 0.257593 0.371133
vt 0.257593 0.480950
vt 0.298147 0.371133
vt 0.298147 0.480950
vt 0.338701 0.371133
vt 0.338701 0.480950
vt 0.379255 0.371133
vt 0.379255 0.480950
vt 0.419809 0.371133
vt 0.419809 0.480950
vt 0.460363 0.371133
vt 0.460363 0.480950
vt 0.500917 0.371133
vt 0.500917 0.480950
vt 0.541471 0.371133
vt 0.541471 0.480950
vt 0.582026 0.371133
vt 0.582026 0.480950
vt 0.622580 0.371133
vt 0.622579 0.480950
vt 0.455026 0.539161
vt 0.455026 0.549315
vt 0.518179 0.549315
vt 0.518179 0.539161
vt 0.455026 0.559469
vt 0.518179 0.559469
vt 0.455026 0.569623
vt 0.518179 0.569623
vt 0.455026 0.579777
vt 0.518179 0.579777
vt 0.455026 0.589931
vt 0.518179 0.589931
vt 0.455026 0.600085
vt 0.518179 0.600085
vt 0.455026 0.610239
vt 0.518179 0.610239
vt 0.455026 0.620393
vt 0.518179 0.620393
vt 0.455026 0.630547
vt 0.518179 0.630547
vt 0.455026 0.640701
vt 0.518179 0.640701
vt 0.455026 0.650855
vt 0.455026 0.661009
vt 0.518179 0.661009
vt 0.518179 0.650855
vt 0.622580 0.365751
vt 0.582026 0.365751
vt 0.541471 0.365751
vt 0.500917 0.365751
vt 0.460363 0.365751
vt 0.419809 0.365751
vt 0.379255 0.365751
vt 0.338701 0.365752
vt 0.298147 0.365751
vt 0.257593 0.365751
vt 0.217039 0.365752
vt 0.176485 0.365752
vt 0.135931 0.365751
vt 0.445708 0.799852
vt 0.457038 0.802888
vt 0.462701 0.793079
vt 0.454407 0.784785
vt 0.501939 0.832317
vt 0.493645 0.824023
vt 0.483836 0.829686
vt 0.486872 0.841016
vt 0.469474 0.841016
vt 0.472510 0.829686
vt 0.462701 0.824023
vt 0.454407 0.832317
vt 0.501939 0.784785
vt 0.493645 0.793079
vt 0.499308 0.802888
vt 0.510638 0.799852
vt 0.472510 0.787416
vt 0.469474 0.776086
vt 0.457038 0.814214
vt 0.445708 0.817250
vt 0.499308 0.814214
vt 0.510638 0.817250
vt 0.483836 0.787416
vt 0.486872 0.776086
vt 0.476086 0.825468
vt 0.533933 0.825366
vt 0.533991 0.816070
vt 0.476143 0.816172
vt 0.476094 0.871949
vt 0.533942 0.871848
vt 0.533871 0.862551
vt 0.476024 0.862653
vt 0.476148 0.788283
vt 0.533995 0.788181
vt 0.533925 0.778885
vt 0.476078 0.778987
vt 0.476029 0.834764
vt 0.533876 0.834662
vt 0.534028 0.806774
vt 0.476181 0.806876
vt 0.533835 0.853255
vt 0.475988 0.853357
vt 0.533835 0.769589
vt 0.475988 0.769691
vt 0.534032 0.797477
vt 0.476184 0.797579
vt 0.533839 0.843959
vt 0.475991 0.844061
vt 0.476184 0.881245
vt 0.534032 0.881144
vt 0.476302 0.786113
vt 0.511905 0.795653
vt 0.485842 0.769590
vt 0.537969 0.821717
vt 0.521445 0.831257
vt 0.502365 0.831257
vt 0.485842 0.821717
vt 0.537969 0.769590
vt 0.547509 0.786113
vt 0.502366 0.760050
vt 0.476302 0.805193
vt 0.547509 0.805193
vt 0.521445 0.760050
vn -0.5000 0.8660 0.0000
vn -0.8660 0.5000 0.0000
vn -1.0000 -0.0000 0.0000
vn -0.0000 1.0000 0.0000
vn 0.5000 0.8660 -0.0000
vn 0.8660 0.5000 -0.0000
vn 1.0000 0.0000 -0.0000
vn 0.8660 -0.5000 -0.0000
vn 0.5000 -0.8660 -0.0000
vn 0.0000 -1.0000 0.0000
vn -0.5000 -0.8660 0.0000
vn -0.8660 -0.5000 0.0000
vn 0.0000 -0.7052 0.7090
vn -0.3526 -0.6107 0.7090
vn 0.3526 -0.6107 -0.7090
vn 0.6107 -0.3526 -0.7090
vn -0.7052 -0.0000 0.7090
vn -0.6107 0.3526 0.7090
vn 0.3526 -0.6107 0.7090
vn 0.7052 -0.0000 -0.7090
vn -0.3526 0.6107 0.7090
vn 0.6107 -0.3526 0.7090
vn 0.6107 0.3526 -0.7090
vn 0.7052 0.0000 0.7090
vn 0.3526 0.6107 -0.7090
vn -0.7052 -0.0000 -0.7090
vn -0.6107 -0.3526 -0.7090
vn 0.6107 0.3526 0.7090
vn -0.3526 0.6107 -0.7090
vn -0.6107 0.3526 -0.7090
vn -0.0000 0.7052 0.7090
vn -0.0000 -0.7052 -0.7090
vn -0.6107 -0.3526 0.7090
vn 0.3526 0.6107 0.7090
vn -0.3526 -0.6107 -0.7090
vn 0.0000 0.7052 -0.7090
vn -0.6098 -0.0000 0.7925
vn -0.5281 -0.3049 0.7925
vn -0.3049 -0.5281 0.7925
vn 0.0000 -0.6099 0.7925
vn 0.3049 -0.5281 0.7925
vn 0.5282 -0.3049 0.7925
vn 0.6099 0.0000 0.7925
vn 0.5281 0.3049 0.7925
vn 0.3049 0.5281 0.7925
vn 0.0000 0.6099 0.7925
vn -0.3049 0.5281 0.7925
vn -0.5281 0.3049 0.7925
vn 0.0000 0.0063 -1.0000
vn 0.0028 0.0047 -1.0000
vn 0.0028 0.0014 -1.0000
vn 0.0000 -0.0002 -1.0000
vn -0.0028 0.0014 -1.0000
vn -0.0028 0.0047 -1.0000
vn 1.0000 0.0011 -0.0000
vn 0.8665 -0.4992 0.0040
vn 0.8656 -0.5008 0.0040
vn 1.0000 -0.0011 0.0000
vn -0.8656 0.5008 -0.0040
vn -0.4995 0.8663 -0.0070
vn -0.5004 0.8657 -0.0070
vn -0.8665 0.4992 -0.0040
vn -0.5004 -0.8657 0.0070
vn -0.8665 -0.4992 0.0040
vn -0.8656 -0.5008 0.0040
vn -0.4995 -0.8663 0.0070
vn 0.8656 0.5008 -0.0040
vn 0.8665 0.4992 -0.0040
vn 0.5004 -0.8657 0.0070
vn 0.4995 -0.8663 0.0070
vn -0.0000 1.0000 -0.0080
vn -1.0000 0.0011 -0.0000
vn -1.0000 -0.0011 0.0000
vn 0.0000 -1.0000 0.0080
vn 0.4995 0.8663 -0.0070
vn 0.5004 0.8657 -0.0070
vn -0.0000 -0.0016 -1.0000
vn -0.6099 -0.0000 -0.7925
vn -0.5281 -0.3049 -0.7925
vn -0.3049 -0.5281 -0.7925
vn -0.0000 -0.6099 -0.7925
vn 0.3049 -0.5281 -0.7925
vn 0.5281 -0.3049 -0.7925
vn 0.6099 0.0000 -0.7925
vn 0.5281 0.3049 -0.7925
vn 0.3049 0.5281 -0.7925
vn -0.0000 0.6099 -0.7925
vn -0.3049 0.5281 -0.7925
vn -0.5281 0.3049 -0.7925
vn 0.0000 0.0063 1.0000
vn 0.0028 0.0047 1.0000
vn 0.0028 0.0014 1.0000
vn 0.0000 -0.0002 1.0000
vn -0.0028 0.0014 1.0000
vn -0.0028 0.0047 1.0000
vn 0.8656 -0.5008 -0.0040
vn 0.8665 -0.4992 -0.0040
vn -0.8656 0.5008 0.0040
vn -0.8665 0.4992 0.0040
vn -0.5004 0.8657 0.0070
vn -0.4995 0.8663 0.0070
vn -0.5004 -0.8657 -0.0070
vn -0.4995 -0.8663 -0.0070
vn -0.8656 -0.5008 -0.0040
vn -0.8665 -0.4992 -0.0040
vn 0.8656 0.5008 0.0040
vn 0.8665 0.4992 0.0040
vn 0.4995 -0.8663 -0.0070
vn 0.5004 -0.8657 -0.0070
vn -0.0000 1.0000 0.0080
vn 0.0000 -1.0000 -0.0080
vn 0.5004 0.8657 0.0070
vn 0.4995 0.8663 0.0070
vn -0.0000 -0.0016 1.0000
usemtl MI_Trim_01
s 1
f 11/1/1 58/2/1 59/3/2 12/4/2
f 12/4/2 59/3/2 60/5/3 1/6/3
f 10/7/4 57/8/4 58/2/1 11/1/1
f 9/9/5 56/10/5 57/8/4 10/7/4
f 8/11/6 55/12/6 56/10/5 9/9/5
f 7/13/7 54/14/7 55/12/6 8/11/6
f 6/15/8 53/16/8 54/14/7 7/13/7
f 5/17/9 52/18/9 53/16/8 6/15/8
f 4/19/10 51/20/10 52/18/9 5/17/9
f 3/21/11 50/22/11 51/20/10 4/19/10
f 2/23/12 49/24/12 50/22/11 3/21/11
f 1/25/3 60/26/3 49/24/12 2/23/12
f 51/27/13 50/28/14 76/29/14 78/30/13
f 65/31/15 66/32/16 81/33/16 79/34/15
f 60/35/17 59/36/18 94/37/18 95/38/17
f 52/39/19 51/27/13 78/30/13 80/40/19
f 66/32/16 67/41/20 83/42/20 81/33/16
f 59/36/18 58/43/21 92/44/21 94/37/18
f 53/45/22 52/39/19 80/40/19 82/46/22
f 67/41/20 68/47/23 85/48/23 83/42/20
f 54/49/24 53/45/22 82/46/22 84/50/24
f 68/47/23 69/51/25 87/52/25 85/48/23
f 61/53/26 62/54/27 73/55/27 96/56/26
f 55/57/28 54/49/24 84/50/24 86/58/28
f 92/44/1 91/59/1 93/60/2 94/37/2
f 94/37/2 93/60/2 96/61/3 95/38/3
f 90/62/4 89/63/4 91/59/1 92/44/1
f 88/64/5 87/52/5 89/63/4 90/62/4
f 86/58/6 85/48/6 87/52/5 88/64/5
f 84/50/7 83/42/7 85/48/6 86/58/6
f 82/46/8 81/33/8 83/42/7 84/50/7
f 80/40/9 79/34/9 81/33/8 82/46/8
f 78/30/10 77/65/10 79/34/9 80/40/9
f 76/29/11 75/66/11 77/65/10 78/30/10
f 74/67/12 73/55/12 75/66/11 76/29/11
f 95/68/3 96/56/3 73/55/12 74/67/12
f 71/69/29 72/70/30 93/60/30 91/59/29
f 58/43/21 57/71/31 90/62/31 92/44/21
f 64/72/32 65/31/15 79/34/15 77/65/32
f 50/28/14 49/73/33 74/67/33 76/29/14
f 72/70/30 61/74/26 96/61/26 93/60/30
f 57/71/31 56/75/34 88/64/34 90/62/31
f 63/76/35 64/72/32 77/65/32 75/66/35
f 49/73/33 60/77/17 95/68/17 74/67/33
f 70/78/36 71/69/29 91/59/29 89/63/36
f 56/75/34 55/57/28 86/58/28 88/64/34
f 62/54/27 63/76/35 75/66/35 73/55/27
f 69/51/25 70/78/36 89/63/36 87/52/25
f 11/1/1 12/4/2 168/79/2 167/80/1
f 12/4/2 1/6/3 169/81/3 168/79/2
f 10/7/4 11/1/1 167/80/1 166/82/4
f 9/9/5 10/7/4 166/82/4 165/83/5
f 8/11/6 9/9/5 165/83/5 164/84/6
f 7/13/7 8/11/6 164/84/6 163/85/7
f 6/15/8 7/13/7 163/85/7 162/86/8
f 5/17/9 6/15/8 162/86/8 161/87/9
f 4/19/10 5/17/9 161/87/9 160/88/10
f 3/21/11 4/19/10 160/88/10 159/89/11
f 2/23/12 3/21/11 159/89/11 158/90/12
f 1/25/3 2/23/12 158/90/12 169/91/3
f 160/92/32 187/93/32 185/94/35 159/95/35
f 174/96/19 188/97/19 190/98/22 175/99/22
f 169/100/26 204/101/26 203/102/30 168/103/30
f 161/104/15 189/105/15 187/93/32 160/92/32
f 175/99/22 190/98/22 192/106/24 176/107/24
f 168/103/30 203/102/30 201/108/29 167/109/29
f 162/110/16 191/111/16 189/105/15 161/104/15
f 176/107/24 192/106/24 194/112/28 177/113/28
f 163/114/20 193/115/20 191/111/16 162/110/16
f 177/113/28 194/112/28 196/116/34 178/117/34
f 170/118/17 205/119/17 182/120/33 171/121/33
f 164/122/23 195/123/23 193/115/20 163/114/20
f 201/108/1 203/102/2 202/124/2 200/125/1
f 203/102/2 204/101/3 205/126/3 202/124/2
f 199/127/4 201/108/1 200/125/1 198/128/4
f 197/129/5 199/127/4 198/128/4 196/116/5
f 195/123/6 197/129/5 196/116/5 194/112/6
f 193/115/7 195/123/6 194/112/6 192/106/7
f 191/111/8 193/115/7 192/106/7 190/98/8
f 189/105/9 191/111/8 190/98/8 188/97/9
f 187/93/10 189/105/9 188/97/9 186/130/10
f 185/94/11 187/93/10 186/130/10 184/131/11
f 183/132/12 185/94/11 184/131/11 182/120/12
f 204/133/3 183/132/12 182/120/12 205/119/3
f 180/134/21 200/125/21 202/124/18 181/135/18
f 167/109/29 201/108/29 199/127/36 166/136/36
f 173/137/13 186/130/13 188/97/19 174/96/19
f 159/95/35 185/94/35 183/132/27 158/138/27
f 181/135/18 202/124/18 205/126/17 170/139/17
f 166/136/36 199/127/36 197/129/25 165/140/25
f 172/141/14 184/131/14 186/130/13 173/137/13
f 158/138/27 183/132/27 204/133/26 169/142/26
f 179/143/31 198/128/31 200/125/21 180/134/21
f 165/140/25 197/129/25 195/123/23 164/122/23
f 171/121/33 182/120/33 184/131/14 172/141/14
f 178/117/34 196/116/34 198/128/31 179/143/31
usemtl MI_Trim_02
f 47/144/1 23/145/1 24/146/2 48/147/2
f 48/147/2 24/146/2 13/148/3 37/149/3
f 46/150/4 22/151/4 23/145/1 47/144/1
f 45/152/5 21/153/5 22/151/4 46/150/4
f 44/154/6 20/155/6 21/153/5 45/152/5
f 43/156/7 19/157/7 20/155/6 44/154/6
f 42/158/8 18/159/8 19/157/7 43/156/7
f 41/160/9 17/161/9 18/159/8 42/158/8
f 40/162/10 16/163/10 17/161/9 41/160/9
f 39/164/11 15/165/11 16/163/10 40/162/10
f 38/166/12 14/167/12 15/165/11 39/164/11
f 37/168/3 13/169/3 14/167/12 38/166/12
f 61/170/3 36/171/3 25/172/12 62/173/12
f 62/173/12 25/172/12 26/174/11 63/175/11
f 63/175/11 26/174/11 27/176/10 64/177/10
f 64/177/10 27/176/10 28/178/9 65/179/9
f 65/179/9 28/178/9 29/180/8 66/181/8
f 66/181/8 29/180/8 30/182/7 67/183/7
f 67/183/7 30/182/7 31/184/6 68/185/6
f 68/185/6 31/184/6 32/186/5 69/187/5
f 69/187/5 32/186/5 33/188/4 70/189/4
f 70/189/4 33/188/4 34/190/1 71/191/1
f 72/192/2 35/193/2 36/194/3 61/195/3
f 71/191/1 34/190/1 35/193/2 72/192/2
f 36/196/37 37/168/37 38/166/38 25/197/38
f 25/197/38 38/166/38 39/164/39 26/198/39
f 26/198/39 39/164/39 40/162/40 27/199/40
f 27/199/40 40/162/40 41/160/41 28/200/41
f 28/200/41 41/160/41 42/158/42 29/201/42
f 29/201/42 42/158/42 43/156/43 30/202/43
f 30/202/43 43/156/43 44/154/44 31/203/44
f 31/203/44 44/154/44 45/152/45 32/204/45
f 32/204/45 45/152/45 46/150/46 33/205/46
f 33/205/46 46/150/46 47/144/47 34/206/47
f 35/207/48 48/147/48 37/149/37 36/208/37
f 34/206/47 47/144/47 48/147/48 35/207/48
f 22/209/49 21/210/50 105/211/50 106/212/49
f 15/213/50 14/214/51 98/215/51 99/216/50
f 13/217/52 24/218/53 108/219/53 97/220/52
f 18/221/53 17/222/54 101/223/54 102/224/53
f 21/210/50 20/225/51 104/226/51 105/211/50
f 14/214/51 13/217/52 97/220/52 98/215/51
f 24/218/53 23/227/54 107/228/54 108/219/53
f 17/222/54 16/229/49 100/230/49 101/223/54
f 20/225/51 19/231/52 103/232/52 104/226/51
f 23/227/54 22/209/49 106/212/49 107/228/54
f 16/229/49 15/213/50 99/216/50 100/230/49
f 19/231/52 18/221/53 102/224/53 103/232/52
f 97/233/55 108/234/56 120/235/57 109/236/58
f 102/237/59 101/238/60 113/239/61 114/240/62
f 105/241/63 104/242/64 116/243/65 117/244/66
f 98/245/67 97/233/55 109/236/58 110/246/68
f 108/234/56 107/247/69 119/248/70 120/235/57
f 101/238/60 100/249/71 112/250/71 113/239/61
f 104/242/64 103/251/72 115/252/73 116/243/65
f 107/247/69 106/253/74 118/254/74 119/248/70
f 100/249/71 99/255/75 111/256/76 112/250/71
f 103/257/72 102/237/59 114/240/62 115/258/73
f 106/253/74 105/241/63 117/244/66 118/254/74
f 99/255/75 98/245/67 110/246/68 111/256/76
f 117/259/77 116/260/77 121/261/77
f 110/262/77 109/263/77 121/261/77
f 120/264/77 119/265/77 121/261/77
f 113/266/77 112/267/77 121/261/77
f 116/260/77 115/268/77 121/261/77
f 119/265/77 118/269/77 121/261/77
f 112/267/77 111/270/77 121/261/77
f 115/268/77 114/271/77 121/261/77
f 118/269/77 117/259/77 121/261/77
f 111/270/77 110/262/77 121/261/77
f 109/263/77 120/264/77 121/261/77
f 114/271/77 113/266/77 121/261/77
f 156/272/1 157/273/2 133/274/2 132/275/1
f 157/273/2 146/276/3 122/277/3 133/274/2
f 155/278/4 156/272/1 132/275/1 131/279/4
f 154/280/5 155/278/4 131/279/4 130/281/5
f 153/282/6 154/280/5 130/281/5 129/283/6
f 152/284/7 153/282/6 129/283/6 128/285/7
f 151/286/8 152/284/7 128/285/7 127/287/8
f 150/288/9 151/286/8 127/287/8 126/289/9
f 149/290/10 150/288/9 126/289/9 125/291/10
f 148/292/11 149/290/10 125/291/10 124/293/11
f 147/294/12 148/292/11 124/293/11 123/295/12
f 146/296/3 147/294/12 123/295/12 122/297/3
f 170/298/3 171/299/12 134/300/12 145/301/3
f 171/299/12 172/302/11 135/303/11 134/300/12
f 172/302/11 173/304/10 136/305/10 135/303/11
f 173/304/10 174/306/9 137/307/9 136/305/10
f 174/306/9 175/308/8 138/309/8 137/307/9
f 175/308/8 176/310/7 139/311/7 138/309/8
f 176/310/7 177/312/6 140/313/6 139/311/7
f 177/312/6 178/314/5 141/315/5 140/313/6
f 178/314/5 179/316/4 142/317/4 141/315/5
f 179/316/4 180/318/1 143/319/1 142/317/4
f 181/320/2 170/321/3 145/322/3 144/323/2
f 180/318/1 181/320/2 144/323/2 143/319/1
f 145/324/78 134/325/79 147/294/79 146/296/78
f 134/325/79 135/326/80 148/292/80 147/294/79
f 135/326/80 136/327/81 149/290/81 148/292/80
f 136/327/81 137/328/82 150/288/82 149/290/81
f 137/328/82 138/329/83 151/286/83 150/288/82
f 138/329/83 139/330/84 152/284/84 151/286/83
f 139/330/84 140/331/85 153/282/85 152/284/84
f 140/331/85 141/332/86 154/280/86 153/282/85
f 141/332/86 142/333/87 155/278/87 154/280/86
f 142/333/87 143/334/88 156/272/88 155/278/87
f 144/335/89 145/336/78 146/276/78 157/273/89
f 143/334/88 144/335/89 157/273/89 156/272/88
f 131/337/90 215/338/90 214/339/91 130/340/91
f 124/341/91 208/342/91 207/343/92 123/344/92
f 122/345/93 206/346/93 217/347/94 133/348/94
f 127/349/94 211/350/94 210/351/95 126/352/95
f 130/340/91 214/339/91 213/353/92 129/354/92
f 123/344/92 207/343/92 206/346/93 122/345/93
f 133/348/94 217/347/94 216/355/95 132/356/95
f 126/352/95 210/351/95 209/357/90 125/358/90
f 129/354/92 213/353/92 212/359/93 128/360/93
f 132/356/95 216/355/95 215/338/90 131/337/90
f 125/358/90 209/357/90 208/342/91 124/341/91
f 128/360/93 212/359/93 211/350/94 127/349/94
f 206/361/55 218/362/58 229/363/96 217/364/97
f 211/365/98 223/366/99 222/367/100 210/368/101
f 214/369/102 226/370/103 225/371/104 213/372/105
f 207/373/106 219/374/107 218/362/58 206/361/55
f 217/364/97 229/363/96 228/375/108 216/376/109
f 210/368/101 222/367/100 221/377/110 209/378/110
f 213/372/105 225/371/104 224/379/73 212/380/72
f 216/376/109 228/375/108 227/381/111 215/382/111
f 209/378/110 221/377/110 220/383/112 208/384/113
f 212/385/72 224/386/73 223/366/99 211/365/98
f 215/382/111 227/381/111 226/370/103 214/369/102
f 208/384/113 220/383/112 219/374/107 207/373/106
f 226/387/114 230/388/114 225/389/114
f 219/390/114 230/388/114 218/391/114
f 229/392/114 230/388/114 228/393/114
f 222/394/114 230/388/114 221/395/114
f 225/389/114 230/388/114 224/396/114
f 228/393/114 230/388/114 227/397/114
f 221/395/114 230/388/114 220/398/114
f 224/396/114 230/388/114 223/399/114
f 227/397/114 230/388/114 226/387/114
f 220/398/114 230/388/114 219/390/114
f 218/391/114 230/388/114 229/392/114
f 223/399/114 230/388/114 222/394/114
