# Blender v3.6.0 OBJ File: 'AllModules_Unreal.blend'
# www.blender.org
mtllib Prop_Pipe_Small_Curve.mtl
o Prop_Pipe_Small_Curve_Cylinder.005
v -1.530554 0.062500 3.694659
v -1.542517 0.054127 3.723529
v -1.551274 0.031250 3.744663
v -1.554479 -0.000000 3.752399
v -1.551274 -0.031250 3.744663
v -1.542517 -0.054127 3.723529
v -1.530554 -0.062500 3.694659
v -2.828366 0.069997 2.827986
v -2.853115 0.060619 2.852731
v -2.871233 0.034999 2.870847
v -2.877864 0.000000 2.877477
v -2.871233 -0.034998 2.870847
v -2.853115 -0.060619 2.852731
v -2.828366 -0.069997 2.827986
v -2.685734 0.062500 2.953581
v -2.706762 0.054127 2.976697
v -2.722157 0.031250 2.993619
v -2.727791 0.000000 2.999813
v -2.722157 -0.031250 2.993619
v -2.706762 -0.054126 2.976697
v -2.685734 -0.062500 2.953581
v -2.692398 0.069997 2.947714
v -2.716007 0.060619 2.973551
v -2.733289 0.034999 2.992465
v -2.739615 0.000000 2.999388
v -2.733289 -0.034998 2.992465
v -2.716007 -0.060619 2.973551
v -2.692398 -0.069997 2.947714
v -2.522699 0.062500 3.097090
v -2.542448 0.054127 3.121309
v -2.556904 0.031250 3.139039
v -2.562196 0.000000 3.145528
v -2.556904 -0.031250 3.139039
v -2.542448 -0.054127 3.121309
v -2.522699 -0.062500 3.097090
v -2.567173 0.062500 3.057942
v -2.587276 0.054127 3.081868
v -2.601993 0.031250 3.099382
v -2.607380 0.000000 3.105793
v -2.601993 -0.031250 3.099382
v -2.587276 -0.054127 3.081868
v -2.567173 -0.062500 3.057942
v -2.562428 0.067741 3.062119
v -2.527445 0.067741 3.092913
v -2.584176 0.058666 3.088085
v -2.548891 0.058666 3.119129
v -2.600097 0.033871 3.107094
v -2.564590 0.033871 3.138321
v -2.605925 0.000000 3.114051
v -2.570336 0.000000 3.145346
v -2.600097 -0.033871 3.107094
v -2.564590 -0.033871 3.138321
v -2.584176 -0.058665 3.088085
v -2.548891 -0.058665 3.119129
v -2.562428 -0.067741 3.062119
v -2.527445 -0.067741 3.092913
v -1.518592 0.054127 3.665790
v -1.509835 0.031250 3.644655
v -1.506630 -0.000000 3.636919
v -1.509835 -0.031250 3.644655
v -1.518592 -0.054127 3.665790
v -2.803616 0.060619 2.803239
v -2.785498 0.034999 2.785124
v -2.778867 0.000000 2.778493
v -2.785498 -0.034998 2.785124
v -2.803616 -0.060619 2.803239
v -2.664705 0.054127 2.930465
v -2.649311 0.031250 2.913542
v -2.643677 0.000000 2.907348
v -2.649311 -0.031250 2.913542
v -2.664705 -0.054126 2.930465
v -2.668790 0.060619 2.921877
v -2.651508 0.034999 2.902963
v -2.645182 0.000000 2.896040
v -2.651508 -0.034998 2.902963
v -2.668790 -0.060619 2.921877
v -2.502951 0.054127 3.072870
v -2.488494 0.031250 3.055141
v -2.483203 0.000000 3.048651
v -2.488494 -0.031250 3.055141
v -2.502951 -0.054126 3.072870
v -2.547069 0.054127 3.034017
v -2.532353 0.031250 3.016503
v -2.526966 0.000000 3.010092
v -2.532353 -0.031250 3.016503
v -2.547069 -0.054126 3.034017
v -2.540679 0.058666 3.036154
v -2.505999 0.058666 3.066696
v -2.524758 0.033871 3.017145
v -2.490300 0.033871 3.047504
v -2.518931 0.000000 3.010188
v -2.484554 0.000000 3.040480
v -2.524758 -0.033870 3.017145
v -2.490300 -0.033870 3.047504
v -2.540679 -0.058665 3.036154
v -2.505999 -0.058665 3.066696
v -0.000000 0.069997 4.000000
v -0.000000 0.060619 4.034999
v -0.000000 0.034998 4.060620
v -0.000000 -0.000000 4.069998
v -0.000000 -0.034999 4.060620
v -0.000000 -0.060620 4.034999
v -0.000000 -0.069997 4.000000
v -0.189620 0.062500 3.987237
v -0.191088 0.054126 4.018452
v -0.192162 0.031250 4.041304
v -0.192555 -0.000000 4.049667
v -0.192162 -0.031250 4.041304
v -0.191088 -0.054127 4.018452
v -0.189620 -0.062500 3.987237
v -0.180762 0.069997 3.987833
v -0.182329 0.060619 4.022796
v -0.183476 0.034998 4.048391
v -0.183895 -0.000000 4.057760
v -0.183476 -0.034999 4.048391
v -0.182329 -0.060619 4.022796
v -0.180762 -0.069997 3.987833
v -0.406328 0.062500 3.972649
v -0.409468 0.054126 4.003741
v -0.411767 0.031250 4.026502
v -0.412609 -0.000000 4.034832
v -0.411767 -0.031250 4.026502
v -0.409468 -0.054127 4.003741
v -0.406328 -0.062500 3.972649
v -0.347213 0.062500 3.976628
v -0.349898 0.054126 4.007763
v -0.351863 0.031250 4.030555
v -0.352582 -0.000000 4.038897
v -0.351863 -0.031250 4.030555
v -0.349898 -0.054127 4.007763
v -0.347213 -0.062500 3.976628
v -0.353521 0.067741 3.976204
v -0.400020 0.067741 3.973073
v -0.356483 0.058665 4.009945
v -0.403371 0.058665 4.006778
v -0.358652 0.033870 4.034645
v -0.405825 0.033870 4.031451
v -0.359446 -0.000000 4.043685
v -0.406722 -0.000000 4.040482
v -0.358652 -0.033871 4.034645
v -0.405825 -0.033871 4.031451
v -0.356483 -0.058666 4.009945
v -0.403371 -0.058666 4.006778
v -0.353521 -0.067741 3.976203
v -0.400020 -0.067741 3.973073
v -0.000000 0.060619 3.965002
v -0.000000 0.034998 3.939381
v -0.000000 -0.000000 3.930004
v -0.000000 -0.034999 3.939381
v -0.000000 -0.060620 3.965002
v -0.188153 0.054126 3.956021
v -0.187079 0.031250 3.933169
v -0.186686 -0.000000 3.924806
v -0.187079 -0.031250 3.933169
v -0.188153 -0.054127 3.956021
v -0.179195 0.060619 3.952869
v -0.178048 0.034998 3.927274
v -0.177629 -0.000000 3.917906
v -0.178048 -0.034999 3.927274
v -0.179195 -0.060619 3.952869
v -0.403188 0.054126 3.941557
v -0.400889 0.031250 3.918796
v -0.400047 -0.000000 3.910465
v -0.400889 -0.031250 3.918796
v -0.403188 -0.054127 3.941557
v -0.344528 0.054126 3.945494
v -0.342563 0.031250 3.922702
v -0.341844 -0.000000 3.914359
v -0.342563 -0.031250 3.922702
v -0.344528 -0.054127 3.945494
v -0.350558 0.058665 3.942463
v -0.396670 0.058665 3.939369
v -0.348389 0.033870 3.917763
v -0.394216 0.033870 3.914696
v -0.347596 -0.000000 3.908722
v -0.393319 -0.000000 3.905665
v -0.348389 -0.033871 3.917763
v -0.394216 -0.033871 3.914696
v -0.350558 -0.058666 3.942463
v -0.396670 -0.058666 3.939369
v -0.636618 0.062500 3.944262
v -0.864449 0.062500 3.897689
v -1.091234 0.062500 3.847310
v -1.310894 0.062500 3.770984
v -0.641552 0.054126 3.975120
v -0.871178 0.054126 3.928205
v -1.099736 0.054126 3.877381
v -1.321144 0.054126 3.800505
v -0.645164 0.031250 3.997710
v -0.876104 0.031250 3.950545
v -1.105960 0.031250 3.899395
v -1.328647 0.031250 3.822116
v -0.646486 -0.000000 4.005978
v -0.877907 -0.000000 3.958723
v -1.108238 -0.000000 3.907452
v -1.331394 -0.000000 3.830027
v -0.645164 -0.031250 3.997710
v -0.876104 -0.031250 3.950545
v -1.105960 -0.031250 3.899395
v -1.328647 -0.031250 3.822116
v -0.641552 -0.054127 3.975120
v -0.871178 -0.054127 3.928205
v -1.099736 -0.054127 3.877381
v -1.321144 -0.054127 3.800505
v -0.636618 -0.062500 3.944262
v -0.864449 -0.062500 3.897689
v -1.091234 -0.062500 3.847310
v -1.310894 -0.062500 3.770984
v -0.631684 0.054126 3.913404
v -0.857720 0.054126 3.867172
v -1.082733 0.054126 3.817238
v -1.300645 0.054126 3.741463
v -0.628072 0.031250 3.890814
v -0.852794 0.031250 3.844832
v -1.076509 0.031250 3.795225
v -1.293141 0.031250 3.719852
v -0.626750 -0.000000 3.882546
v -0.850991 -0.000000 3.836654
v -1.074231 -0.000000 3.787167
v -1.290395 -0.000000 3.711942
v -0.628072 -0.031250 3.890814
v -0.852794 -0.031250 3.844832
v -1.076509 -0.031250 3.795225
v -1.293141 -0.031250 3.719851
v -0.631684 -0.054127 3.913404
v -0.857720 -0.054127 3.867172
v -1.082733 -0.054127 3.817238
v -1.300645 -0.054127 3.741463
v -2.370300 0.062500 3.216150
v -2.209722 0.062500 3.324626
v -2.049143 0.062500 3.433103
v -1.878349 0.062500 3.524133
v -1.705156 0.062500 3.611063
v -2.388855 0.054127 3.241294
v -2.227037 0.054127 3.350640
v -2.065179 0.054127 3.459925
v -1.893063 0.054127 3.551702
v -1.718510 0.054127 3.639316
v -2.402438 0.031250 3.259702
v -2.239714 0.031250 3.369684
v -2.076918 0.031250 3.479560
v -1.903833 0.031250 3.571885
v -1.728286 0.031250 3.659998
v -2.407410 0.000000 3.266440
v -2.244354 0.000000 3.376654
v -2.081215 -0.000000 3.486746
v -1.907776 -0.000000 3.579272
v -1.731864 -0.000000 3.667569
v -2.402438 -0.031250 3.259702
v -2.239714 -0.031250 3.369684
v -2.076918 -0.031250 3.479560
v -1.903833 -0.031250 3.571885
v -1.728286 -0.031250 3.659998
v -2.388855 -0.054127 3.241294
v -2.227037 -0.054127 3.350640
v -2.065179 -0.054127 3.459925
v -1.893063 -0.054127 3.551702
v -1.718510 -0.054127 3.639316
v -2.370300 -0.062500 3.216150
v -2.209721 -0.062500 3.324626
v -2.049143 -0.062500 3.433103
v -1.878349 -0.062500 3.524133
v -1.705156 -0.062500 3.611063
v -2.351745 0.054127 3.191005
v -2.192405 0.054127 3.298612
v -2.033106 0.054127 3.406281
v -1.863636 0.054127 3.496563
v -1.691802 0.054127 3.582809
v -2.338161 0.031250 3.172597
v -2.179729 0.031250 3.279569
v -2.021367 0.031250 3.386647
v -1.852865 0.031250 3.476381
v -1.682026 0.031250 3.562127
v -2.333189 0.000000 3.165859
v -2.175089 0.000000 3.272598
v -2.017070 0.000000 3.379460
v -1.848923 -0.000000 3.468993
v -1.678448 -0.000000 3.554556
v -2.338161 -0.031250 3.172597
v -2.179729 -0.031250 3.279569
v -2.021367 -0.031250 3.386647
v -1.852865 -0.031250 3.476381
v -1.682026 -0.031250 3.562127
v -2.351745 -0.054127 3.191005
v -2.192405 -0.054127 3.298612
v -2.033106 -0.054127 3.406281
v -1.863636 -0.054127 3.496563
v -1.691802 -0.054127 3.582809
v -3.694835 0.062500 1.530046
v -3.723707 0.054127 1.542004
v -3.744842 0.031250 1.550758
v -3.752578 0.000000 1.553962
v -3.744842 -0.031250 1.550758
v -3.723707 -0.054126 1.542004
v -3.694835 -0.062500 1.530046
v -3.999963 0.069998 -0.000538
v -4.034962 0.060620 -0.000542
v -4.060583 0.034999 -0.000546
v -4.069961 0.000001 -0.000547
v -4.060583 -0.034998 -0.000546
v -4.034962 -0.060619 -0.000542
v -3.999963 -0.069996 -0.000538
v -3.987271 0.062501 0.189083
v -4.018487 0.054127 0.190546
v -4.041339 0.031251 0.191617
v -4.049703 0.000001 0.192009
v -4.041339 -0.031249 0.191617
v -4.018487 -0.054126 0.190546
v -3.987271 -0.062499 0.189083
v -3.987868 0.069998 0.180225
v -4.022831 0.060620 0.181787
v -4.048427 0.034999 0.182930
v -4.057796 0.000001 0.183349
v -4.048427 -0.034998 0.182930
v -4.022831 -0.060619 0.181787
v -3.987868 -0.069996 0.180225
v -3.972684 0.062501 0.405791
v -4.003777 0.054127 0.408927
v -4.026537 0.031251 0.411223
v -4.034869 0.000001 0.412064
v -4.026537 -0.031249 0.411223
v -4.003777 -0.054126 0.408927
v -3.972684 -0.062499 0.405791
v -3.976663 0.062501 0.346676
v -4.007798 0.054127 0.349356
v -4.030591 0.031251 0.351318
v -4.038933 0.000001 0.352037
v -4.030591 -0.031249 0.351318
v -4.007798 -0.054126 0.349356
v -3.976663 -0.062499 0.346676
v -3.976238 0.067742 0.352984
v -3.973109 0.067742 0.399484
v -4.009980 0.058666 0.355942
v -4.006814 0.058666 0.402830
v -4.034680 0.033871 0.358107
v -4.031487 0.033871 0.405280
v -4.043721 0.000001 0.358900
v -4.040518 0.000001 0.406177
v -4.034680 -0.033870 0.358107
v -4.031487 -0.033870 0.405280
v -4.009980 -0.058665 0.355942
v -4.006814 -0.058665 0.402830
v -3.976238 -0.067741 0.352984
v -3.973109 -0.067741 0.399484
v -3.665964 0.054127 1.518087
v -3.644829 0.031250 1.509333
v -3.637093 0.000000 1.506129
v -3.644829 -0.031250 1.509333
v -3.665964 -0.054126 1.518087
v -3.964965 0.060620 -0.000533
v -3.939344 0.034999 -0.000530
v -3.929966 0.000001 -0.000528
v -3.939344 -0.034998 -0.000530
v -3.964965 -0.060619 -0.000533
v -3.956056 0.054127 0.187620
v -3.933204 0.031251 0.186548
v -3.924840 0.000001 0.186156
v -3.933204 -0.031249 0.186548
v -3.956056 -0.054126 0.187620
v -3.952904 0.060620 0.178663
v -3.927309 0.034999 0.177519
v -3.917941 0.000001 0.177101
v -3.927309 -0.034998 0.177519
v -3.952904 -0.060619 0.178663
v -3.941592 0.054127 0.402655
v -3.918831 0.031251 0.400359
v -3.910500 0.000001 0.399519
v -3.918831 -0.031249 0.400359
v -3.941592 -0.054126 0.402655
v -3.945528 0.054127 0.343995
v -3.922736 0.031251 0.342033
v -3.914393 0.000001 0.341315
v -3.922736 -0.031249 0.342033
v -3.945528 -0.054126 0.343995
v -3.942497 0.058666 0.350026
v -3.939404 0.058666 0.396137
v -3.917797 0.033871 0.347860
v -3.914730 0.033871 0.393687
v -3.908756 0.000001 0.347068
v -3.905699 0.000001 0.392790
v -3.917797 -0.033870 0.347860
v -3.914730 -0.033870 0.393687
v -3.942497 -0.058665 0.350026
v -3.939404 -0.058665 0.396137
v -2.953937 0.062500 2.685330
v -2.977056 0.054127 2.706356
v -2.993980 0.031250 2.721747
v -3.000175 0.000000 2.727381
v -2.993980 -0.031250 2.721747
v -2.977056 -0.054126 2.706356
v -2.953937 -0.062500 2.685330
v -2.948071 0.069997 2.691994
v -2.973911 0.060619 2.715599
v -2.992827 0.034999 2.732879
v -2.999751 0.000000 2.739204
v -2.992827 -0.034998 2.732879
v -2.973911 -0.060619 2.715599
v -2.948071 -0.069997 2.691994
v -3.097446 0.062500 2.522296
v -3.121668 0.054127 2.542041
v -3.139399 0.031250 2.556495
v -3.145890 0.000000 2.561786
v -3.139399 -0.031250 2.556495
v -3.121668 -0.054126 2.542041
v -3.097446 -0.062500 2.522296
v -3.058298 0.062500 2.566769
v -3.082227 0.054127 2.586869
v -3.099743 0.031250 2.601584
v -3.106154 0.000000 2.606970
v -3.099743 -0.031250 2.601584
v -3.082227 -0.054126 2.586869
v -3.058298 -0.062500 2.566769
v -3.062475 0.067741 2.562024
v -3.093269 0.067741 2.527041
v -3.088444 0.058666 2.583769
v -3.119488 0.058666 2.548483
v -3.107454 0.033871 2.599688
v -3.138682 0.033871 2.564179
v -3.114413 0.000000 2.605514
v -3.145708 0.000000 2.569925
v -3.107454 -0.033870 2.599688
v -3.138682 -0.033870 2.564179
v -3.088444 -0.058665 2.583769
v -3.119488 -0.058665 2.548483
v -3.062475 -0.067741 2.562024
v -3.093269 -0.067741 2.527041
v -2.930818 0.054127 2.664304
v -2.913893 0.031250 2.648913
v -2.907699 0.000000 2.643279
v -2.913893 -0.031250 2.648913
v -2.930818 -0.054126 2.664304
v -2.922230 0.060620 2.668390
v -2.903314 0.034999 2.651110
v -2.896390 0.000000 2.644785
v -2.903314 -0.034998 2.651110
v -2.922230 -0.060619 2.668390
v -3.073224 0.054127 2.502551
v -3.055492 0.031250 2.488096
v -3.049002 0.000000 2.482806
v -3.055492 -0.031250 2.488096
v -3.073224 -0.054126 2.502551
v -3.034370 0.054127 2.546669
v -3.016854 0.031250 2.531955
v -3.010442 0.000000 2.526569
v -3.016854 -0.031250 2.531955
v -3.034370 -0.054126 2.546669
v -3.036506 0.058666 2.540279
v -3.067050 0.058666 2.505599
v -3.017496 0.033871 2.524361
v -3.047856 0.033871 2.489902
v -3.010537 0.000000 2.518534
v -3.040830 0.000000 2.484157
v -3.017496 -0.033870 2.524361
v -3.047856 -0.033870 2.489902
v -3.036506 -0.058665 2.540279
v -3.067050 -0.058665 2.505599
v -3.238146 0.062500 2.337738
v -3.368319 0.062500 2.145044
v -3.489602 0.062500 1.947145
v -3.593918 0.062500 1.739314
v -3.263472 0.054127 2.356045
v -3.394665 0.054127 2.161849
v -3.516882 0.054127 1.962389
v -3.622041 0.054127 1.752938
v -3.282012 0.031250 2.369447
v -3.413953 0.031250 2.174151
v -3.536852 0.031250 1.973548
v -3.642629 0.031250 1.762912
v -3.288799 0.000000 2.374353
v -3.421012 0.000000 2.178654
v -3.544162 0.000000 1.977633
v -3.650165 0.000000 1.766563
v -3.282012 -0.031250 2.369447
v -3.413953 -0.031250 2.174151
v -3.536852 -0.031250 1.973548
v -3.642629 -0.031250 1.762912
v -3.263472 -0.054126 2.356045
v -3.394665 -0.054126 2.161849
v -3.516882 -0.054126 1.962389
v -3.622041 -0.054126 1.752938
v -3.238146 -0.062500 2.337738
v -3.368319 -0.062500 2.145044
v -3.489602 -0.062500 1.947145
v -3.593918 -0.062500 1.739314
v -3.212820 0.054127 2.319431
v -3.341972 0.054127 2.128238
v -3.462322 0.054127 1.931902
v -3.565794 0.054127 1.725689
v -3.194280 0.031250 2.306029
v -3.322685 0.031250 2.115936
v -3.442352 0.031250 1.920743
v -3.545207 0.031250 1.715715
v -3.187494 0.000000 2.301124
v -3.315625 0.000000 2.111433
v -3.435042 0.000000 1.916658
v -3.537671 0.000000 1.712064
v -3.194280 -0.031250 2.306029
v -3.322685 -0.031250 2.115936
v -3.442352 -0.031250 1.920743
v -3.545207 -0.031250 1.715715
v -3.212820 -0.054126 2.319431
v -3.341972 -0.054126 2.128238
v -3.462322 -0.054126 1.931902
v -3.565794 -0.054126 1.725689
v -3.952131 0.062501 0.598119
v -3.913320 0.062501 0.787978
v -3.874508 0.062501 0.977837
v -3.822043 0.062500 1.163946
v -3.758440 0.062500 1.346996
v -3.983037 0.054127 0.602748
v -3.943963 0.054127 0.794107
v -3.904817 0.054127 0.985451
v -3.851944 0.054127 1.173030
v -3.787861 0.054127 1.357530
v -4.005661 0.031251 0.606136
v -3.966395 0.031251 0.798594
v -3.927004 0.031251 0.991026
v -3.873833 0.031250 1.179680
v -3.809398 0.031250 1.365241
v -4.013942 0.000001 0.607376
v -3.974606 0.000001 0.800236
v -3.935125 0.000001 0.993066
v -3.881845 0.000000 1.182114
v -3.817282 0.000000 1.368063
v -4.005661 -0.031249 0.606136
v -3.966395 -0.031249 0.798594
v -3.927004 -0.031249 0.991026
v -3.873833 -0.031250 1.179680
v -3.809398 -0.031250 1.365241
v -3.983037 -0.054126 0.602748
v -3.943963 -0.054126 0.794107
v -3.904817 -0.054126 0.985451
v -3.851944 -0.054126 1.173030
v -3.787861 -0.054126 1.357530
v -3.952131 -0.062499 0.598119
v -3.913320 -0.062499 0.787978
v -3.874508 -0.062499 0.977837
v -3.822043 -0.062500 1.163946
v -3.758440 -0.062500 1.346996
v -3.921226 0.054127 0.593490
v -3.882677 0.054127 0.781849
v -3.844200 0.054127 0.970223
v -3.792143 0.054127 1.154862
v -3.729018 0.054127 1.336462
v -3.898602 0.031251 0.590102
v -3.860244 0.031251 0.777363
v -3.822013 0.031251 0.964649
v -3.770254 0.031251 1.148212
v -3.707481 0.031250 1.328751
v -3.890321 0.000001 0.588861
v -3.852034 0.000001 0.775721
v -3.813892 0.000001 0.962608
v -3.762242 0.000001 1.145778
v -3.699597 0.000000 1.325928
v -3.898602 -0.031249 0.590102
v -3.860244 -0.031249 0.777363
v -3.822013 -0.031249 0.964649
v -3.770254 -0.031250 1.148212
v -3.707480 -0.031250 1.328751
v -3.921226 -0.054126 0.593490
v -3.882677 -0.054126 0.781849
v -3.844200 -0.054126 0.970223
v -3.792143 -0.054126 1.154862
v -3.729018 -0.054126 1.336462
vt 0.429516 0.293475
vt 0.429516 0.483608
vt 0.397147 0.483608
vt 0.397147 0.293475
vt 0.461886 0.293475
vt 0.461886 0.483608
vt 0.494255 0.293475
vt 0.494255 0.483608
vt 0.526625 0.293475
vt 0.526625 0.483608
vt 0.558994 0.293475
vt 0.558994 0.483608
vt 0.591364 0.293475
vt 0.591363 0.483608
vt 0.650307 0.590478
vt 0.744230 0.590478
vt 0.744230 0.602610
vt 0.650307 0.602610
vt 0.650307 0.578347
vt 0.744230 0.578347
vt 0.650307 0.566214
vt 0.744230 0.566215
vt 0.650307 0.554083
vt 0.744230 0.554083
vt 0.650307 0.541951
vt 0.744230 0.541951
vt 0.650307 0.529819
vt 0.744230 0.529819
vt 0.409955 0.965938
vt 0.454088 0.965938
vt 0.454088 0.970938
vt 0.409955 0.970938
vt 0.409955 0.998262
vt 0.365822 0.998262
vt 0.365822 0.995137
vt 0.409955 0.995137
vt 0.498221 0.965938
vt 0.498221 0.970938
vt 0.454088 0.998262
vt 0.454088 0.995137
vt 0.542353 0.965938
vt 0.542353 0.970938
vt 0.498221 0.998262
vt 0.498221 0.995137
vt 0.586486 0.965938
vt 0.586486 0.970938
vt 0.542353 0.998262
vt 0.542353 0.995137
vt 0.586486 0.995137
vt 0.630619 0.970938
vt 0.630619 0.995137
vt 0.365822 0.970938
vt 0.365822 0.965938
vt 0.630619 0.998262
vt 0.586486 0.998262
vt 0.630619 0.965938
vt 0.429516 0.293475
vt 0.429516 0.483608
vt 0.461886 0.293475
vt 0.461886 0.483608
vt 0.494255 0.293475
vt 0.494255 0.483608
vt 0.526625 0.293475
vt 0.526625 0.483608
vt 0.558994 0.293475
vt 0.558994 0.483608
vt 0.650307 0.590478
vt 0.744230 0.590478
vt 0.650307 0.578347
vt 0.744230 0.578347
vt 0.650307 0.566214
vt 0.744230 0.566215
vt 0.650307 0.554083
vt 0.744230 0.554083
vt 0.650307 0.541951
vt 0.744230 0.541951
vt 0.409955 0.965938
vt 0.409955 0.970938
vt 0.454088 0.970938
vt 0.454088 0.965938
vt 0.409955 0.998262
vt 0.409955 0.995137
vt 0.498221 0.970938
vt 0.498221 0.965938
vt 0.454088 0.998262
vt 0.454088 0.995137
vt 0.542353 0.970938
vt 0.542353 0.965938
vt 0.498221 0.998262
vt 0.498221 0.995137
vt 0.586486 0.970938
vt 0.586486 0.965938
vt 0.542353 0.998262
vt 0.542353 0.995137
vt 0.586486 0.995137
vt 0.586486 0.998262
vt 0.429516 0.293475
vt 0.397147 0.293475
vt 0.397147 0.483608
vt 0.429516 0.483608
vt 0.461886 0.293475
vt 0.461886 0.483608
vt 0.494255 0.293475
vt 0.494255 0.483608
vt 0.526625 0.293475
vt 0.526625 0.483608
vt 0.558994 0.293475
vt 0.558994 0.483608
vt 0.591364 0.293475
vt 0.591363 0.483608
vt 0.631522 0.590478
vt 0.631522 0.602611
vt 0.744230 0.602610
vt 0.744230 0.590478
vt 0.631522 0.578347
vt 0.744230 0.578347
vt 0.631522 0.566215
vt 0.744230 0.566215
vt 0.631522 0.554083
vt 0.744230 0.554083
vt 0.631522 0.541951
vt 0.744230 0.541951
vt 0.631522 0.529819
vt 0.744230 0.529819
vt 0.409955 0.965938
vt 0.409955 0.970938
vt 0.454088 0.970938
vt 0.454088 0.965938
vt 0.409955 0.998262
vt 0.409955 0.995137
vt 0.365822 0.995137
vt 0.365822 0.998262
vt 0.498221 0.970938
vt 0.498221 0.965938
vt 0.454088 0.998262
vt 0.454088 0.995137
vt 0.542353 0.970938
vt 0.542353 0.965938
vt 0.498221 0.998262
vt 0.498221 0.995137
vt 0.586486 0.970938
vt 0.586486 0.965938
vt 0.542353 0.998262
vt 0.542353 0.995137
vt 0.586486 0.995137
vt 0.630619 0.995137
vt 0.630619 0.970938
vt 0.365822 0.970938
vt 0.365822 0.965938
vt 0.630619 0.998262
vt 0.586486 0.998262
vt 0.630619 0.965938
vt 0.429516 0.293475
vt 0.429516 0.483608
vt 0.461886 0.293475
vt 0.461886 0.483608
vt 0.494255 0.293475
vt 0.494255 0.483608
vt 0.526625 0.293475
vt 0.526625 0.483608
vt 0.558994 0.293475
vt 0.558994 0.483608
vt 0.631522 0.590478
vt 0.744230 0.590478
vt 0.631522 0.578347
vt 0.744230 0.578347
vt 0.631522 0.566215
vt 0.744230 0.566215
vt 0.631522 0.554083
vt 0.744230 0.554083
vt 0.631522 0.541951
vt 0.744230 0.541951
vt 0.409955 0.965938
vt 0.454088 0.965938
vt 0.454088 0.970938
vt 0.409955 0.970938
vt 0.409955 0.998262
vt 0.409955 0.995137
vt 0.498221 0.965938
vt 0.498221 0.970938
vt 0.454088 0.998262
vt 0.454088 0.995137
vt 0.542353 0.965938
vt 0.542353 0.970938
vt 0.498221 0.998262
vt 0.498221 0.995137
vt 0.586486 0.965938
vt 0.586486 0.970938
vt 0.542353 0.998262
vt 0.542353 0.995137
vt 0.586486 0.995137
vt 0.586486 0.998262
vt 0.180689 0.529819
vt 0.293397 0.529819
vt 0.293397 0.541951
vt 0.180689 0.541951
vt 0.406106 0.529819
vt 0.406106 0.541951
vt 0.518814 0.529819
vt 0.518814 0.541951
vt 0.293397 0.554083
vt 0.180689 0.554083
vt 0.406106 0.554083
vt 0.518814 0.554083
vt 0.293397 0.566215
vt 0.180689 0.566215
vt 0.406106 0.566215
vt 0.518814 0.566215
vt 0.293397 0.578347
vt 0.180689 0.578347
vt 0.406106 0.578347
vt 0.518814 0.578347
vt 0.293397 0.590478
vt 0.180689 0.590478
vt 0.406106 0.590478
vt 0.518814 0.590478
vt 0.293397 0.602611
vt 0.180689 0.602611
vt 0.406106 0.602610
vt 0.518814 0.602610
vt 0.180689 0.541951
vt 0.293397 0.541951
vt 0.406106 0.541951
vt 0.518814 0.541951
vt 0.180689 0.554083
vt 0.293397 0.554083
vt 0.406106 0.554083
vt 0.518814 0.554083
vt 0.180689 0.566215
vt 0.293397 0.566215
vt 0.406106 0.566215
vt 0.518814 0.566215
vt 0.180689 0.578347
vt 0.293397 0.578347
vt 0.406106 0.578347
vt 0.518814 0.578347
vt 0.180689 0.590478
vt 0.293397 0.590478
vt 0.406106 0.590478
vt 0.518814 0.590478
vt 0.274613 0.541951
vt 0.274613 0.529819
vt 0.368536 0.541951
vt 0.368536 0.529819
vt 0.462460 0.541951
vt 0.462460 0.529819
vt 0.556383 0.541951
vt 0.556383 0.529819
vt 0.274613 0.554083
vt 0.368536 0.554083
vt 0.462460 0.554083
vt 0.556383 0.554083
vt 0.274613 0.566215
vt 0.368536 0.566215
vt 0.462460 0.566215
vt 0.556383 0.566215
vt 0.274613 0.578347
vt 0.368536 0.578347
vt 0.462460 0.578347
vt 0.556383 0.578347
vt 0.274613 0.590478
vt 0.368536 0.590478
vt 0.462460 0.590478
vt 0.556383 0.590478
vt 0.274613 0.602611
vt 0.368536 0.602611
vt 0.462460 0.602611
vt 0.556383 0.602611
vt 0.274613 0.541951
vt 0.368536 0.541951
vt 0.462460 0.541951
vt 0.556383 0.541951
vt 0.274613 0.554083
vt 0.368536 0.554083
vt 0.462460 0.554083
vt 0.556383 0.554083
vt 0.274613 0.566215
vt 0.368536 0.566215
vt 0.462460 0.566215
vt 0.556383 0.566215
vt 0.274613 0.578347
vt 0.368536 0.578347
vt 0.462460 0.578347
vt 0.556383 0.578347
vt 0.274613 0.590478
vt 0.368536 0.590478
vt 0.462460 0.590478
vt 0.556383 0.590478
vt 0.429516 0.293475
vt 0.429516 0.483608
vt 0.397147 0.483608
vt 0.397147 0.293475
vt 0.461886 0.293475
vt 0.461886 0.483608
vt 0.494255 0.293475
vt 0.494255 0.483608
vt 0.526625 0.293475
vt 0.526625 0.483608
vt 0.558994 0.293475
vt 0.558994 0.483608
vt 0.591364 0.293475
vt 0.591363 0.483608
vt 0.650307 0.590478
vt 0.744230 0.590478
vt 0.744230 0.602610
vt 0.650307 0.602610
vt 0.650307 0.578347
vt 0.744230 0.578347
vt 0.650307 0.566214
vt 0.744230 0.566215
vt 0.650307 0.554083
vt 0.744230 0.554083
vt 0.650307 0.541951
vt 0.744230 0.541951
vt 0.650307 0.529819
vt 0.744230 0.529819
vt 0.409955 0.965938
vt 0.454088 0.965938
vt 0.454088 0.970938
vt 0.409955 0.970938
vt 0.409955 0.998262
vt 0.365822 0.998262
vt 0.365822 0.995137
vt 0.409955 0.995137
vt 0.498221 0.965938
vt 0.498221 0.970938
vt 0.454088 0.998262
vt 0.454088 0.995137
vt 0.542353 0.965938
vt 0.542353 0.970938
vt 0.498221 0.998262
vt 0.498221 0.995137
vt 0.586486 0.965938
vt 0.586486 0.970938
vt 0.542353 0.998262
vt 0.542353 0.995137
vt 0.586486 0.995137
vt 0.630619 0.970938
vt 0.630619 0.995137
vt 0.365822 0.970938
vt 0.365822 0.965938
vt 0.630619 0.998262
vt 0.586486 0.998262
vt 0.630619 0.965938
vt 0.429516 0.293475
vt 0.429516 0.483608
vt 0.461886 0.293475
vt 0.461886 0.483608
vt 0.494255 0.293475
vt 0.494255 0.483608
vt 0.526625 0.293475
vt 0.526625 0.483608
vt 0.558994 0.293475
vt 0.558994 0.483608
vt 0.650307 0.590478
vt 0.744230 0.590478
vt 0.650307 0.578347
vt 0.744230 0.578347
vt 0.650307 0.566214
vt 0.744230 0.566215
vt 0.650307 0.554083
vt 0.744230 0.554083
vt 0.650307 0.541951
vt 0.744230 0.541951
vt 0.409955 0.965938
vt 0.409955 0.970938
vt 0.454088 0.970938
vt 0.454088 0.965938
vt 0.409955 0.998262
vt 0.409955 0.995137
vt 0.498221 0.970938
vt 0.498221 0.965938
vt 0.454088 0.998262
vt 0.454088 0.995137
vt 0.542353 0.970938
vt 0.542353 0.965938
vt 0.498221 0.998262
vt 0.498221 0.995137
vt 0.586486 0.970938
vt 0.586486 0.965938
vt 0.542353 0.998262
vt 0.542353 0.995137
vt 0.586486 0.995137
vt 0.586486 0.998262
vt 0.429516 0.293475
vt 0.397147 0.293475
vt 0.461886 0.293475
vt 0.494255 0.293475
vt 0.526625 0.293475
vt 0.558994 0.293475
vt 0.591364 0.293475
vt 0.631522 0.590478
vt 0.631522 0.602611
vt 0.744230 0.602610
vt 0.744230 0.590478
vt 0.631522 0.578347
vt 0.744230 0.578347
vt 0.631522 0.566215
vt 0.744230 0.566215
vt 0.631522 0.554083
vt 0.744230 0.554083
vt 0.631522 0.541951
vt 0.744230 0.541951
vt 0.631522 0.529819
vt 0.744230 0.529819
vt 0.409955 0.965938
vt 0.409955 0.970938
vt 0.454088 0.970938
vt 0.454088 0.965938
vt 0.409955 0.998262
vt 0.409955 0.995137
vt 0.365822 0.995137
vt 0.365822 0.998262
vt 0.498221 0.970938
vt 0.498221 0.965938
vt 0.454088 0.998262
vt 0.454088 0.995137
vt 0.542353 0.970938
vt 0.542353 0.965938
vt 0.498221 0.998262
vt 0.498221 0.995137
vt 0.586486 0.970938
vt 0.586486 0.965938
vt 0.542353 0.998262
vt 0.542353 0.995137
vt 0.586486 0.995137
vt 0.630619 0.995137
vt 0.630619 0.970938
vt 0.365822 0.970938
vt 0.365822 0.965938
vt 0.630619 0.998262
vt 0.586486 0.998262
vt 0.630619 0.965938
vt 0.429516 0.293475
vt 0.461886 0.293475
vt 0.494255 0.293475
vt 0.526625 0.293475
vt 0.558994 0.293475
vt 0.631522 0.590478
vt 0.744230 0.590478
vt 0.631522 0.578347
vt 0.744230 0.578347
vt 0.631522 0.566215
vt 0.744230 0.566215
vt 0.631522 0.554083
vt 0.744230 0.554083
vt 0.631522 0.541951
vt 0.744230 0.541951
vt 0.409955 0.965938
vt 0.454088 0.965938
vt 0.454088 0.970938
vt 0.409955 0.970938
vt 0.409955 0.998262
vt 0.409955 0.995137
vt 0.498221 0.965938
vt 0.498221 0.970938
vt 0.454088 0.998262
vt 0.454088 0.995137
vt 0.542353 0.965938
vt 0.542353 0.970938
vt 0.498221 0.998262
vt 0.498221 0.995137
vt 0.586486 0.965938
vt 0.586486 0.970938
vt 0.542353 0.998262
vt 0.542353 0.995137
vt 0.586486 0.995137
vt 0.586486 0.998262
vt 0.180689 0.529819
vt 0.293397 0.529819
vt 0.293397 0.541951
vt 0.180689 0.541951
vt 0.406106 0.529819
vt 0.406106 0.541951
vt 0.518814 0.529819
vt 0.518814 0.541951
vt 0.293397 0.554083
vt 0.180689 0.554083
vt 0.406106 0.554083
vt 0.518814 0.554083
vt 0.293397 0.566215
vt 0.180689 0.566215
vt 0.406106 0.566215
vt 0.518814 0.566215
vt 0.293397 0.578347
vt 0.180689 0.578347
vt 0.406106 0.578347
vt 0.518814 0.578347
vt 0.293397 0.590478
vt 0.180689 0.590478
vt 0.406106 0.590478
vt 0.518814 0.590478
vt 0.293397 0.602611
vt 0.180689 0.602611
vt 0.406106 0.602610
vt 0.518814 0.602610
vt 0.180689 0.541951
vt 0.293397 0.541951
vt 0.406106 0.541951
vt 0.518814 0.541951
vt 0.180689 0.554083
vt 0.293397 0.554083
vt 0.406106 0.554083
vt 0.518814 0.554083
vt 0.180689 0.566215
vt 0.293397 0.566215
vt 0.406106 0.566215
vt 0.518814 0.566215
vt 0.180689 0.578347
vt 0.293397 0.578347
vt 0.406106 0.578347
vt 0.518814 0.578347
vt 0.180689 0.590478
vt 0.293397 0.590478
vt 0.406106 0.590478
vt 0.518814 0.590478
vt 0.274613 0.541951
vt 0.274613 0.529819
vt 0.368536 0.541951
vt 0.368536 0.529819
vt 0.462460 0.541951
vt 0.462460 0.529819
vt 0.556383 0.541951
vt 0.556383 0.529819
vt 0.274613 0.554083
vt 0.368536 0.554083
vt 0.462460 0.554083
vt 0.556383 0.554083
vt 0.274613 0.566215
vt 0.368536 0.566215
vt 0.462460 0.566215
vt 0.556383 0.566215
vt 0.274613 0.578347
vt 0.368536 0.578347
vt 0.462460 0.578347
vt 0.556383 0.578347
vt 0.274613 0.590478
vt 0.368536 0.590478
vt 0.462460 0.590478
vt 0.556383 0.590478
vt 0.274613 0.602611
vt 0.368536 0.602611
vt 0.462460 0.602611
vt 0.556383 0.602611
vt 0.274613 0.541951
vt 0.368536 0.541951
vt 0.462460 0.541951
vt 0.556383 0.541951
vt 0.274613 0.554083
vt 0.368536 0.554083
vt 0.462460 0.554083
vt 0.556383 0.554083
vt 0.274613 0.566215
vt 0.368536 0.566215
vt 0.462460 0.566215
vt 0.556383 0.566215
vt 0.274613 0.578347
vt 0.368536 0.578347
vt 0.462460 0.578347
vt 0.556383 0.578347
vt 0.274613 0.590478
vt 0.368536 0.590478
vt 0.462460 0.590478
vt 0.556383 0.590478
vt 0.455026 0.569623
vt 0.518179 0.569623
vt 0.518179 0.579777
vt 0.455026 0.579777
vt 0.518179 0.589931
vt 0.455026 0.589931
vt 0.518179 0.600085
vt 0.455026 0.600085
vt 0.518179 0.610239
vt 0.455026 0.610239
vt 0.518179 0.620393
vt 0.455026 0.620393
vt 0.518179 0.630547
vt 0.455026 0.630547
vt 0.500917 0.365751
vt 0.500917 0.371133
vt 0.460363 0.371133
vt 0.460363 0.365751
vt 0.419809 0.371133
vt 0.419809 0.365751
vt 0.379255 0.371133
vt 0.379255 0.365751
vt 0.338701 0.371133
vt 0.338701 0.365752
vt 0.298147 0.371133
vt 0.298147 0.365751
vt 0.257593 0.371133
vt 0.257593 0.365751
vt 0.455026 0.579777
vt 0.518179 0.579777
vt 0.455026 0.589931
vt 0.518179 0.589931
vt 0.455026 0.600085
vt 0.518179 0.600085
vt 0.455026 0.610239
vt 0.518179 0.610239
vt 0.455026 0.620393
vt 0.518179 0.620393
vt 0.460363 0.365751
vt 0.460363 0.371133
vt 0.419809 0.365751
vt 0.419809 0.371133
vt 0.379255 0.365751
vt 0.379255 0.371133
vt 0.338701 0.365752
vt 0.338701 0.371133
vt 0.298147 0.365751
vt 0.298147 0.371133
vt 0.455026 0.569623
vt 0.455026 0.579777
vt 0.518179 0.579777
vt 0.518179 0.569623
vt 0.455026 0.589931
vt 0.518179 0.589931
vt 0.455026 0.600085
vt 0.518179 0.600085
vt 0.455026 0.610239
vt 0.518179 0.610239
vt 0.455026 0.620393
vt 0.518179 0.620393
vt 0.455026 0.630547
vt 0.518179 0.630547
vt 0.500917 0.365751
vt 0.460363 0.365751
vt 0.460363 0.371133
vt 0.500917 0.371133
vt 0.419809 0.365751
vt 0.419809 0.371133
vt 0.379255 0.365751
vt 0.379255 0.371133
vt 0.338701 0.365752
vt 0.338701 0.371133
vt 0.298147 0.365751
vt 0.298147 0.371133
vt 0.257593 0.365751
vt 0.257593 0.371133
vt 0.518179 0.579777
vt 0.455026 0.579777
vt 0.518179 0.589931
vt 0.455026 0.589931
vt 0.518179 0.600085
vt 0.455026 0.600085
vt 0.518179 0.610239
vt 0.455026 0.610239
vt 0.518179 0.620393
vt 0.455026 0.620393
vt 0.460363 0.371133
vt 0.460363 0.365751
vt 0.419809 0.371133
vt 0.419809 0.365751
vt 0.379255 0.371133
vt 0.379255 0.365751
vt 0.338701 0.371133
vt 0.338701 0.365752
vt 0.298147 0.371133
vt 0.298147 0.365751
vt 0.455026 0.569623
vt 0.518179 0.569623
vt 0.518179 0.579777
vt 0.455026 0.579777
vt 0.518179 0.589931
vt 0.455026 0.589931
vt 0.518179 0.600085
vt 0.455026 0.600085
vt 0.518179 0.610239
vt 0.455026 0.610239
vt 0.518179 0.620393
vt 0.455026 0.620393
vt 0.518179 0.630547
vt 0.455026 0.630547
vt 0.500917 0.365751
vt 0.500917 0.371133
vt 0.460363 0.371133
vt 0.460363 0.365751
vt 0.419809 0.371133
vt 0.419809 0.365751
vt 0.379255 0.371133
vt 0.379255 0.365751
vt 0.338701 0.371133
vt 0.338701 0.365752
vt 0.298147 0.371133
vt 0.298147 0.365751
vt 0.257593 0.371133
vt 0.257593 0.365751
vt 0.455026 0.579777
vt 0.518179 0.579777
vt 0.455026 0.589931
vt 0.518179 0.589931
vt 0.455026 0.600085
vt 0.518179 0.600085
vt 0.455026 0.610239
vt 0.518179 0.610239
vt 0.455026 0.620393
vt 0.518179 0.620393
vt 0.460363 0.365751
vt 0.460363 0.371133
vt 0.419809 0.365751
vt 0.419809 0.371133
vt 0.379255 0.365751
vt 0.379255 0.371133
vt 0.338701 0.365752
vt 0.338701 0.371133
vt 0.298147 0.365751
vt 0.298147 0.371133
vt 0.455026 0.569623
vt 0.455026 0.579777
vt 0.518179 0.579777
vt 0.518179 0.569623
vt 0.455026 0.589931
vt 0.518179 0.589931
vt 0.455026 0.600085
vt 0.518179 0.600085
vt 0.455026 0.610239
vt 0.518179 0.610239
vt 0.455026 0.620393
vt 0.518179 0.620393
vt 0.455026 0.630547
vt 0.518179 0.630547
vt 0.500917 0.365751
vt 0.460363 0.365751
vt 0.460363 0.371133
vt 0.500917 0.371133
vt 0.419809 0.365751
vt 0.419809 0.371133
vt 0.379255 0.365751
vt 0.379255 0.371133
vt 0.338701 0.365752
vt 0.338701 0.371133
vt 0.298147 0.365751
vt 0.298147 0.371133
vt 0.257593 0.365751
vt 0.257593 0.371133
vt 0.518179 0.579777
vt 0.455026 0.579777
vt 0.518179 0.589931
vt 0.455026 0.589931
vt 0.518179 0.600085
vt 0.455026 0.600085
vt 0.518179 0.610239
vt 0.455026 0.610239
vt 0.518179 0.620393
vt 0.455026 0.620393
vt 0.460363 0.371133
vt 0.460363 0.365751
vt 0.419809 0.371133
vt 0.419809 0.365751
vt 0.379255 0.371133
vt 0.379255 0.365751
vt 0.338701 0.371133
vt 0.338701 0.365752
vt 0.298147 0.371133
vt 0.298147 0.365751
vn -0.3293 -0.8671 0.3737
vn -0.3588 -0.8617 0.3588
vn -0.0074 -0.9999 0.0074
vn 0.0020 -1.0000 -0.0023
vn -0.5724 -0.5009 0.6492
vn -0.6141 -0.4959 0.6140
vn -0.6614 0.0000 0.7501
vn -0.7072 0.0000 0.7070
vn -0.5724 0.5009 0.6492
vn -0.6141 0.4959 0.6140
vn -0.3293 0.8671 0.3737
vn -0.3588 0.8617 0.3588
vn 0.0020 1.0000 -0.0023
vn -0.0074 0.9999 0.0074
vn -0.2965 -0.8636 0.4078
vn -0.3095 -0.8645 0.3961
vn -0.0021 -1.0000 0.0027
vn -0.0033 -1.0000 0.0046
vn -0.5102 -0.4976 0.7015
vn -0.5337 -0.4984 0.6832
vn -0.5882 0.0000 0.8087
vn -0.6156 0.0000 0.7881
vn -0.5102 0.4976 0.7015
vn -0.5337 0.4984 0.6832
vn -0.2965 0.8636 0.4078
vn -0.3095 0.8645 0.3961
vn -0.0033 1.0000 0.0046
vn -0.0021 1.0000 0.0027
vn -0.7366 0.6658 -0.1192
vn -0.9184 0.3840 0.0948
vn -0.9192 0.3820 0.0957
vn -0.7388 0.6637 -0.1165
vn 0.2370 0.6726 0.7010
vn 0.4915 0.7697 0.4074
vn 0.4963 0.7696 0.4019
vn 0.2407 0.6757 0.6967
vn -0.9849 -0.0000 0.1730
vn 0.0479 0.3908 0.9192
vn 0.0491 0.3941 0.9178
vn -0.9184 -0.3840 0.0948
vn -0.9192 -0.3820 0.0957
vn -0.0219 -0.0000 0.9998
vn -0.7366 -0.6658 -0.1192
vn -0.7389 -0.6637 -0.1165
vn 0.0479 -0.3908 0.9192
vn 0.0492 -0.3941 0.9178
vn -0.3333 -0.8634 0.3789
vn -0.3284 -0.8677 0.3733
vn 0.0027 -1.0000 -0.0030
vn -0.0039 -1.0000 0.0045
vn -0.5730 -0.4973 0.6515
vn -0.5713 -0.5016 0.6496
vn -0.6604 0.0000 0.7509
vn -0.5730 0.4973 0.6515
vn -0.5713 0.5016 0.6496
vn -0.3333 0.8634 0.3789
vn -0.3284 0.8677 0.3733
vn -0.0039 1.0000 0.0045
vn 0.0027 1.0000 -0.0030
vn -0.4875 0.7698 -0.4120
vn -0.4906 0.7697 -0.4084
vn 0.4915 -0.7697 0.4074
vn 0.2370 -0.6726 0.7010
vn 0.2407 -0.6757 0.6967
vn 0.4963 -0.7696 0.4019
vn -0.4875 -0.7698 -0.4121
vn -0.4906 -0.7697 -0.4084
vn 0.3320 -0.8645 -0.3774
vn 0.3477 -0.8708 -0.3477
vn 0.5726 -0.4983 -0.6510
vn 0.6104 -0.5049 -0.6103
vn 0.6604 0.0000 -0.7509
vn 0.7072 0.0000 -0.7070
vn 0.5726 0.4983 -0.6510
vn 0.6104 0.5049 -0.6103
vn 0.3320 0.8645 -0.3774
vn 0.3477 0.8708 -0.3477
vn 0.2914 -0.8685 -0.4009
vn 0.3063 -0.8675 -0.3921
vn 0.5083 -0.5026 -0.6993
vn 0.5327 -0.5014 -0.6818
vn 0.5879 0.0000 -0.8089
vn 0.6157 0.0000 -0.7880
vn 0.5083 0.5026 -0.6993
vn 0.5327 0.5014 -0.6818
vn 0.2914 0.8685 -0.4009
vn 0.3063 0.8675 -0.3921
vn -0.2379 0.6675 -0.7056
vn -0.2402 0.6695 -0.7029
vn -0.0555 0.3878 -0.9201
vn -0.0547 0.3857 -0.9210
vn 0.7414 0.6605 0.1191
vn 0.7449 0.6572 0.1151
vn 0.0125 -0.0000 -0.9999
vn 0.9213 0.3787 -0.0884
vn 0.9225 0.3755 -0.0897
vn -0.0555 -0.3878 -0.9201
vn -0.0547 -0.3857 -0.9210
vn 0.9865 -0.0000 -0.1636
vn -0.2402 -0.6695 -0.7029
vn -0.2378 -0.6675 -0.7056
vn 0.9213 -0.3787 -0.0884
vn 0.9225 -0.3755 -0.0897
vn 0.3276 -0.8685 -0.3720
vn 0.3326 -0.8642 -0.3776
vn 0.5716 -0.5024 -0.6488
vn 0.5732 -0.4981 -0.6507
vn 0.6611 0.0000 -0.7503
vn 0.5716 0.5024 -0.6488
vn 0.5732 0.4981 -0.6507
vn 0.3276 0.8685 -0.3720
vn 0.3326 0.8642 -0.3776
vn 0.7449 -0.6572 0.1151
vn 0.7414 -0.6604 0.1192
vn -0.0332 -0.8674 0.4966
vn 0.0003 -1.0000 -0.0037
vn -0.0007 -0.9999 0.0111
vn -0.0339 -0.8610 0.5075
vn -0.0576 -0.5012 0.8634
vn -0.0578 -0.4948 0.8671
vn -0.0664 -0.0000 0.9978
vn -0.0576 0.5012 0.8634
vn -0.0578 0.4948 0.8671
vn -0.0332 0.8674 0.4966
vn -0.0339 0.8610 0.5075
vn 0.0003 1.0000 -0.0037
vn -0.0007 0.9999 0.0111
vn -0.0815 -0.8633 0.4981
vn -0.0011 -1.0000 0.0064
vn -0.0005 -1.0000 0.0036
vn -0.0616 -0.8644 0.4991
vn -0.1400 -0.4973 0.8562
vn -0.1061 -0.4983 0.8605
vn -0.1614 -0.0000 0.9869
vn -0.1224 0.0000 0.9925
vn -0.1400 0.4973 0.8562
vn -0.1061 0.4983 0.8605
vn -0.0815 0.8633 0.4981
vn -0.0616 0.8644 0.4991
vn -0.0011 1.0000 0.0064
vn -0.0005 1.0000 0.0036
vn 0.6043 0.6663 0.4369
vn 0.6041 0.6646 0.4398
vn 0.5810 0.3828 0.7182
vn 0.5811 0.3845 0.7173
vn -0.6640 0.6721 0.3277
vn -0.6636 0.6749 0.3227
vn -0.6351 0.7696 -0.0660
vn -0.6356 0.7697 -0.0595
vn 0.5726 0.0000 0.8198
vn -0.6850 0.3903 0.6151
vn -0.6849 0.3932 0.6134
vn 0.5810 -0.3828 0.7182
vn 0.5811 -0.3845 0.7172
vn -0.6928 0.0000 0.7211
vn 0.6041 -0.6646 0.4398
vn 0.6043 -0.6663 0.4369
vn -0.6850 -0.3903 0.6151
vn -0.6849 -0.3932 0.6134
vn -0.0340 -0.8637 0.5029
vn -0.0004 -1.0000 0.0052
vn 0.0002 -1.0000 -0.0034
vn -0.0335 -0.8674 0.4965
vn -0.0586 -0.4976 0.8654
vn -0.0584 -0.5013 0.8633
vn -0.0676 -0.0000 0.9977
vn -0.0586 0.4976 0.8654
vn -0.0584 0.5013 0.8633
vn -0.0340 0.8637 0.5029
vn -0.0335 0.8674 0.4965
vn -0.0004 1.0000 0.0052
vn 0.0002 1.0000 -0.0033
vn 0.6361 0.7698 0.0535
vn 0.6357 0.7698 0.0574
vn -0.6356 -0.7697 -0.0595
vn -0.6351 -0.7696 -0.0660
vn -0.6636 -0.6749 0.3227
vn -0.6640 -0.6721 0.3277
vn 0.6357 -0.7698 0.0574
vn 0.6361 -0.7698 0.0535
vn 0.0340 -0.8641 -0.5021
vn 0.0333 -0.8705 -0.4910
vn 0.0588 -0.4979 -0.8652
vn 0.0586 -0.5044 -0.8615
vn 0.0679 0.0000 -0.9977
vn 0.0588 0.4979 -0.8652
vn 0.0586 0.5044 -0.8615
vn 0.0340 0.8641 -0.5021
vn 0.0333 0.8705 -0.4910
vn 0.0799 -0.8689 -0.4885
vn 0.0608 -0.8675 -0.4937
vn 0.1396 -0.5029 -0.8530
vn 0.1058 -0.5014 -0.8587
vn 0.1615 0.0000 -0.9869
vn 0.1222 0.0000 -0.9925
vn 0.1396 0.5029 -0.8530
vn 0.1058 0.5014 -0.8587
vn 0.0799 0.8689 -0.4885
vn 0.0608 0.8675 -0.4937
vn 0.6678 0.6670 -0.3303
vn 0.6911 0.3852 -0.6115
vn 0.6910 0.3870 -0.6105
vn 0.6676 0.6687 -0.3273
vn -0.6077 0.6610 -0.4402
vn -0.6074 0.6581 -0.4450
vn 0.6996 0.0000 -0.7145
vn -0.5876 0.3792 -0.7148
vn -0.5875 0.3764 -0.7164
vn 0.6911 -0.3852 -0.6115
vn 0.6910 -0.3870 -0.6105
vn -0.5803 0.0000 -0.8144
vn 0.6678 -0.6670 -0.3303
vn 0.6676 -0.6687 -0.3273
vn -0.5876 -0.3792 -0.7148
vn -0.5875 -0.3764 -0.7163
vn 0.0332 -0.8682 -0.4950
vn 0.0336 -0.8645 -0.5015
vn 0.0578 -0.5022 -0.8628
vn 0.0579 -0.4984 -0.8650
vn 0.0667 -0.0000 -0.9978
vn 0.0578 0.5022 -0.8628
vn 0.0579 0.4984 -0.8650
vn 0.0332 0.8682 -0.4950
vn 0.0336 0.8645 -0.5015
vn -0.6077 -0.6610 -0.4402
vn -0.6074 -0.6581 -0.4450
vn -0.0035 1.0000 0.0085
vn 0.0000 1.0000 -0.0000
vn 0.1642 0.8658 -0.4726
vn 0.1876 0.8702 -0.4556
vn -0.0026 1.0000 0.0092
vn 0.1344 0.8703 -0.4738
vn -0.0003 1.0000 0.0014
vn 0.1041 0.8665 -0.4882
vn 0.2843 0.4997 -0.8182
vn 0.3287 0.5043 -0.7985
vn 0.2357 0.5045 -0.8306
vn 0.1805 0.5004 -0.8468
vn 0.3282 0.0000 -0.9446
vn 0.3806 0.0000 -0.9247
vn 0.2730 0.0000 -0.9620
vn 0.2085 0.0000 -0.9780
vn 0.2843 -0.4997 -0.8182
vn 0.3287 -0.5043 -0.7985
vn 0.2357 -0.5045 -0.8306
vn 0.1805 -0.5004 -0.8468
vn 0.1642 -0.8658 -0.4726
vn 0.1876 -0.8702 -0.4556
vn 0.1344 -0.8703 -0.4738
vn 0.1041 -0.8665 -0.4882
vn 0.0000 -1.0000 -0.0000
vn -0.0035 -1.0000 0.0085
vn -0.0026 -1.0000 0.0092
vn -0.0003 -1.0000 0.0014
vn -0.1928 0.8622 0.4685
vn -0.1642 0.8658 0.4726
vn -0.1384 0.8621 0.4875
vn -0.1046 0.8653 0.4902
vn -0.3304 0.4963 0.8028
vn -0.2843 0.4997 0.8182
vn -0.2370 0.4962 0.8352
vn -0.1808 0.4992 0.8474
vn -0.3806 -0.0000 0.9247
vn -0.3282 -0.0000 0.9446
vn -0.2730 -0.0000 0.9620
vn -0.2087 -0.0000 0.9780
vn -0.3304 -0.4963 0.8028
vn -0.2843 -0.4997 0.8182
vn -0.2370 -0.4962 0.8352
vn -0.1808 -0.4992 0.8474
vn -0.1928 -0.8622 0.4685
vn -0.1642 -0.8658 0.4726
vn -0.1384 -0.8621 0.4875
vn -0.1046 -0.8653 0.4902
vn 0.2197 0.8666 -0.4480
vn -0.0007 1.0000 0.0014
vn 0.2291 0.8668 -0.4429
vn -0.0009 1.0000 0.0018
vn 0.2544 0.8699 -0.4226
vn -0.0045 1.0000 0.0074
vn 0.2800 0.8659 -0.4145
vn 0.3813 0.5005 -0.7773
vn 0.3976 0.5007 -0.7689
vn 0.4455 0.5040 -0.7399
vn 0.4849 0.4998 -0.7177
vn 0.4404 0.0000 -0.8978
vn 0.4593 0.0000 -0.8883
vn 0.5158 0.0000 -0.8567
vn 0.5599 0.0000 -0.8286
vn 0.3813 -0.5005 -0.7773
vn 0.3976 -0.5007 -0.7689
vn 0.4455 -0.5040 -0.7399
vn 0.4849 -0.4998 -0.7177
vn 0.2197 -0.8666 -0.4480
vn 0.2291 -0.8668 -0.4429
vn 0.2544 -0.8699 -0.4226
vn 0.2800 -0.8659 -0.4145
vn -0.0007 -1.0000 0.0014
vn -0.0009 -1.0000 0.0018
vn -0.0045 -1.0000 0.0074
vn -0.2206 0.8653 0.4501
vn -0.2305 0.8651 0.4455
vn -0.2611 0.8624 0.4336
vn -0.2800 0.8659 0.4145
vn -0.3813 0.4992 0.7781
vn -0.3983 0.4990 0.7696
vn -0.4476 0.4966 0.7437
vn -0.4848 0.4998 0.7178
vn -0.4400 -0.0000 0.8980
vn -0.4597 0.0000 0.8881
vn -0.5157 -0.0000 0.8568
vn -0.5597 -0.0000 0.8287
vn -0.3813 -0.4992 0.7781
vn -0.3983 -0.4990 0.7696
vn -0.4476 -0.4966 0.7437
vn -0.4848 -0.4998 0.7178
vn -0.2206 -0.8653 0.4501
vn -0.2305 -0.8651 0.4455
vn -0.2611 -0.8624 0.4336
vn -0.2800 -0.8659 0.4145
vn -0.4966 -0.8673 0.0330
vn -0.5075 -0.8610 0.0337
vn -0.0110 -0.9999 0.0007
vn 0.0036 -1.0000 -0.0003
vn -0.8635 -0.5011 0.0572
vn -0.8671 -0.4948 0.0575
vn -0.9978 -0.0000 0.0661
vn -0.8635 0.5011 0.0572
vn -0.8671 0.4948 0.0575
vn -0.4966 0.8673 0.0330
vn -0.5075 0.8610 0.0337
vn 0.0036 1.0000 -0.0003
vn -0.0110 0.9999 0.0007
vn -0.4996 -0.8627 0.0776
vn -0.4981 -0.8655 0.0533
vn -0.0010 -1.0000 0.0001
vn -0.0077 -1.0000 0.0012
vn -0.8576 -0.4968 0.1331
vn -0.8614 -0.4994 0.0923
vn -0.9882 0.0000 0.1533
vn -0.9943 0.0000 0.1065
vn -0.8576 0.4968 0.1331
vn -0.8614 0.4994 0.0923
vn -0.4996 0.8627 0.0776
vn -0.4981 0.8655 0.0533
vn -0.0077 1.0000 0.0012
vn -0.0010 1.0000 0.0001
vn -0.4368 0.6663 -0.6043
vn -0.7173 0.3845 -0.5811
vn -0.7182 0.3829 -0.5810
vn -0.4397 0.6646 -0.6041
vn -0.3278 0.6721 0.6639
vn 0.0594 0.7697 0.6356
vn 0.0659 0.7696 0.6351
vn -0.3228 0.6749 0.6636
vn -0.8198 0.0000 -0.5726
vn -0.6152 0.3903 0.6850
vn -0.6135 0.3932 0.6849
vn -0.7173 -0.3845 -0.5811
vn -0.7182 -0.3829 -0.5810
vn -0.7212 -0.0000 0.6928
vn -0.4368 -0.6663 -0.6043
vn -0.4397 -0.6646 -0.6041
vn -0.6152 -0.3903 0.6850
vn -0.6135 -0.3932 0.6849
vn -0.5029 -0.8637 0.0340
vn -0.4965 -0.8674 0.0335
vn 0.0033 -1.0000 -0.0002
vn -0.0052 -1.0000 0.0004
vn -0.8654 -0.4976 0.0586
vn -0.8633 -0.5013 0.0584
vn -0.9977 -0.0000 0.0676
vn -0.8654 0.4976 0.0586
vn -0.8633 0.5013 0.0584
vn -0.5029 0.8637 0.0340
vn -0.4965 0.8674 0.0335
vn -0.0052 1.0000 0.0004
vn 0.0033 1.0000 -0.0002
vn -0.0534 0.7698 -0.6360
vn -0.0573 0.7698 -0.6357
vn 0.0594 -0.7697 0.6356
vn -0.3278 -0.6721 0.6639
vn -0.3228 -0.6749 0.6636
vn 0.0659 -0.7696 0.6351
vn -0.0534 -0.7698 -0.6360
vn -0.0573 -0.7698 -0.6357
vn 0.5021 -0.8642 -0.0338
vn 0.4910 -0.8705 -0.0331
vn 0.8652 -0.4979 -0.0585
vn 0.8615 -0.5043 -0.0582
vn 0.9977 -0.0000 -0.0675
vn 0.8652 0.4979 -0.0585
vn 0.8615 0.5043 -0.0582
vn 0.5021 0.8642 -0.0338
vn 0.4910 0.8705 -0.0331
vn 0.4880 -0.8695 -0.0758
vn 0.4966 -0.8664 -0.0530
vn 0.8537 -0.5036 -0.1326
vn 0.8610 -0.5003 -0.0918
vn 0.9881 0.0000 -0.1536
vn 0.9944 0.0000 -0.1060
vn 0.8537 0.5036 -0.1326
vn 0.8610 0.5003 -0.0918
vn 0.4880 0.8695 -0.0758
vn 0.4966 0.8664 -0.0530
vn 0.3304 0.6670 -0.6678
vn 0.3274 0.6687 -0.6675
vn 0.6106 0.3870 -0.6909
vn 0.6116 0.3853 -0.6910
vn 0.4402 0.6610 0.6077
vn 0.4449 0.6581 0.6074
vn 0.7146 0.0000 -0.6995
vn 0.7147 0.3792 0.5877
vn 0.7163 0.3764 0.5876
vn 0.6106 -0.3870 -0.6909
vn 0.6116 -0.3852 -0.6910
vn 0.8143 -0.0000 0.5804
vn 0.3274 -0.6687 -0.6675
vn 0.3304 -0.6670 -0.6678
vn 0.7147 -0.3792 0.5877
vn 0.7163 -0.3764 0.5876
vn 0.4951 -0.8682 -0.0332
vn 0.5015 -0.8645 -0.0336
vn 0.8628 -0.5022 -0.0578
vn 0.8650 -0.4984 -0.0579
vn 0.9978 0.0000 -0.0667
vn 0.8628 0.5022 -0.0578
vn 0.8650 0.4984 -0.0579
vn 0.4951 0.8682 -0.0332
vn 0.5015 0.8645 -0.0336
vn 0.4449 -0.6581 0.6074
vn 0.4402 -0.6610 0.6077
vn -0.3738 -0.8671 0.3293
vn 0.0023 -1.0000 -0.0020
vn -0.6493 -0.5009 0.5722
vn -0.7502 0.0000 0.6612
vn -0.6493 0.5009 0.5722
vn -0.3738 0.8671 0.3293
vn 0.0023 1.0000 -0.0020
vn -0.4090 -0.8640 0.2937
vn -0.0038 -1.0000 0.0027
vn -0.0043 -1.0000 0.0033
vn -0.4009 -0.8636 0.3057
vn -0.7044 -0.4980 0.5058
vn -0.6898 -0.4975 0.5259
vn -0.8122 -0.0000 0.5833
vn -0.7952 -0.0000 0.6063
vn -0.7044 0.4980 0.5058
vn -0.6898 0.4975 0.5259
vn -0.4090 0.8640 0.2937
vn -0.4009 0.8636 0.3057
vn -0.0038 1.0000 0.0027
vn -0.0043 1.0000 0.0033
vn 0.1191 0.6658 0.7366
vn 0.1164 0.6637 0.7389
vn -0.0957 0.3820 0.9192
vn -0.0948 0.3840 0.9184
vn -0.7010 0.6726 -0.2371
vn -0.6967 0.6757 -0.2408
vn -0.4018 0.7695 -0.4964
vn -0.4074 0.7697 -0.4915
vn -0.1730 -0.0000 0.9849
vn -0.9192 0.3908 -0.0480
vn -0.9178 0.3941 -0.0492
vn -0.0957 -0.3820 0.9192
vn -0.0948 -0.3840 0.9184
vn -0.9998 -0.0000 0.0218
vn 0.1164 -0.6637 0.7389
vn 0.1191 -0.6658 0.7366
vn -0.9192 -0.3908 -0.0480
vn -0.9178 -0.3941 -0.0492
vn -0.3789 -0.8633 0.3333
vn -0.0045 -1.0000 0.0039
vn 0.0030 -1.0000 -0.0027
vn -0.3733 -0.8677 0.3284
vn -0.6515 -0.4973 0.5730
vn -0.6496 -0.5016 0.5713
vn -0.7509 0.0000 0.6604
vn -0.6515 0.4973 0.5730
vn -0.6496 0.5016 0.5713
vn -0.3789 0.8633 0.3333
vn -0.3733 0.8677 0.3284
vn -0.0045 1.0000 0.0039
vn 0.0030 1.0000 -0.0027
vn 0.4120 0.7697 0.4876
vn 0.4084 0.7697 0.4907
vn -0.4074 -0.7697 -0.4915
vn -0.4018 -0.7695 -0.4964
vn -0.6967 -0.6757 -0.2408
vn -0.7010 -0.6726 -0.2371
vn 0.4084 -0.7697 0.4907
vn 0.4120 -0.7697 0.4876
vn 0.3775 -0.8645 -0.3320
vn 0.6511 -0.4983 -0.5725
vn 0.7511 -0.0000 -0.6602
vn 0.6511 0.4983 -0.5725
vn 0.3775 0.8645 -0.3320
vn 0.4033 -0.8681 -0.2896
vn 0.3945 -0.8683 -0.3008
vn 0.7025 -0.5020 -0.5044
vn 0.6877 -0.5022 -0.5243
vn 0.8123 0.0000 -0.5832
vn 0.7953 0.0000 -0.6062
vn 0.7025 0.5020 -0.5044
vn 0.6877 0.5022 -0.5243
vn 0.4033 0.8681 -0.2896
vn 0.3945 0.8683 -0.3008
vn 0.7056 0.6675 0.2380
vn 0.9210 0.3857 0.0548
vn 0.9201 0.3878 0.0556
vn 0.7028 0.6695 0.2403
vn -0.1191 0.6604 -0.7414
vn -0.1150 0.6571 -0.7449
vn 0.9999 0.0000 -0.0124
vn 0.0884 0.3786 -0.9213
vn 0.0898 0.3755 -0.9225
vn 0.9210 -0.3857 0.0548
vn 0.9200 -0.3878 0.0556
vn 0.1637 0.0000 -0.9865
vn 0.7056 -0.6675 0.2380
vn 0.7028 -0.6695 0.2403
vn 0.0884 -0.3786 -0.9213
vn 0.0898 -0.3755 -0.9225
vn 0.3720 -0.8685 -0.3276
vn 0.3777 -0.8641 -0.3326
vn 0.6488 -0.5024 -0.5716
vn 0.6507 -0.4980 -0.5732
vn 0.7503 0.0000 -0.6611
vn 0.6487 0.5024 -0.5716
vn 0.6507 0.4980 -0.5732
vn 0.3719 0.8685 -0.3276
vn 0.3776 0.8641 -0.3326
vn -0.1191 -0.6604 -0.7414
vn -0.1150 -0.6571 -0.7449
vn -0.0087 1.0000 0.0036
vn -0.0012 1.0000 0.0006
vn 0.4479 0.8665 -0.2204
vn 0.4552 0.8703 -0.1881
vn -0.0061 1.0000 0.0034
vn 0.4323 0.8691 -0.2404
vn -0.0031 1.0000 0.0020
vn 0.4182 0.8676 -0.2692
vn 0.7768 0.5003 -0.3823
vn 0.7980 0.5044 -0.3297
vn 0.7553 0.5032 -0.4200
vn 0.7274 0.5015 -0.4683
vn 0.8972 -0.0000 -0.4416
vn 0.9242 0.0000 -0.3819
vn 0.8740 0.0000 -0.4860
vn 0.8408 0.0000 -0.5414
vn 0.7768 -0.5003 -0.3823
vn 0.7980 -0.5044 -0.3297
vn 0.7553 -0.5032 -0.4200
vn 0.7274 -0.5015 -0.4683
vn 0.4479 -0.8665 -0.2204
vn 0.4552 -0.8703 -0.1881
vn 0.4323 -0.8691 -0.2404
vn 0.4182 -0.8676 -0.2692
vn -0.0012 -1.0000 0.0006
vn -0.0087 -1.0000 0.0036
vn -0.0061 -1.0000 0.0034
vn -0.0031 -1.0000 0.0020
vn -0.4683 0.8621 0.1935
vn -0.4497 0.8653 0.2213
vn -0.4414 0.8631 0.2455
vn -0.4228 0.8644 0.2722
vn -0.8024 0.4962 0.3316
vn -0.7775 0.4992 0.3825
vn -0.7583 0.4971 0.4217
vn -0.7290 0.4984 0.4692
vn -0.9242 -0.0000 0.3820
vn -0.8973 -0.0000 0.4414
vn -0.8739 -0.0000 0.4860
vn -0.8409 0.0000 0.5412
vn -0.8024 -0.4962 0.3316
vn -0.7775 -0.4992 0.3825
vn -0.7583 -0.4971 0.4217
vn -0.7290 -0.4984 0.4692
vn -0.4683 -0.8621 0.1935
vn -0.4497 -0.8653 0.2213
vn -0.4414 -0.8631 0.2455
vn -0.4228 -0.8644 0.2722
vn 0.4725 0.8659 -0.1641
vn 0.4734 0.8682 -0.1489
vn -0.0047 1.0000 0.0015
vn 0.4814 0.8687 -0.1169
vn -0.0059 1.0000 0.0014
vn 0.4901 0.8659 -0.1002
vn 0.8182 0.4998 -0.2842
vn 0.8249 0.5022 -0.2595
vn 0.8401 0.5027 -0.2039
vn 0.8486 0.4998 -0.1735
vn 0.9446 -0.0000 -0.3281
vn 0.9539 -0.0000 -0.3001
vn 0.9718 -0.0000 -0.2358
vn 0.9797 -0.0000 -0.2003
vn 0.8182 -0.4998 -0.2842
vn 0.8249 -0.5022 -0.2595
vn 0.8401 -0.5027 -0.2039
vn 0.8486 -0.4998 -0.1735
vn 0.4725 -0.8659 -0.1641
vn 0.4734 -0.8682 -0.1489
vn 0.4814 -0.8687 -0.1169
vn 0.4901 -0.8659 -0.1002
vn -0.0047 -1.0000 0.0015
vn -0.0059 -1.0000 0.0014
vn -0.4725 0.8659 0.1642
vn -0.4805 0.8639 0.1510
vn -0.4901 0.8635 0.1190
vn -0.4901 0.8659 0.1002
vn -0.8181 0.4998 0.2844
vn -0.8273 0.4979 0.2600
vn -0.8429 0.4975 0.2048
vn -0.8486 0.4998 0.1734
vn -0.9446 -0.0000 0.3283
vn -0.9540 -0.0000 0.2997
vn -0.9717 -0.0000 0.2361
vn -0.9798 -0.0000 0.2002
vn -0.8181 -0.4998 0.2844
vn -0.8273 -0.4979 0.2600
vn -0.8429 -0.4975 0.2048
vn -0.8486 -0.4998 0.1734
vn -0.4725 -0.8659 0.1642
vn -0.4805 -0.8639 0.1510
vn -0.4901 -0.8635 0.1190
vn -0.4901 -0.8659 0.1002
vn -0.0025 1.0000 0.0028
vn -0.0018 1.0000 0.0020
vn -0.3317 0.8648 0.3769
vn -0.3323 0.8643 0.3775
vn -0.5727 0.4988 0.6506
vn -0.5728 0.4983 0.6508
vn -0.6607 0.0000 0.7507
vn -0.5726 -0.4988 0.6506
vn -0.5728 -0.4983 0.6508
vn -0.3317 -0.8648 0.3769
vn -0.3323 -0.8643 0.3775
vn -0.0018 -1.0000 0.0020
vn -0.0025 -1.0000 0.0028
vn 0.4778 0.7640 0.4336
vn 0.4755 0.7640 0.4361
vn 0.2195 0.6601 0.7184
vn 0.2212 0.6616 0.7165
vn 0.0328 0.3805 0.9242
vn 0.0333 0.3819 0.9236
vn -0.0354 -0.0000 0.9994
vn 0.0328 -0.3805 0.9242
vn 0.0334 -0.3819 0.9236
vn 0.2195 -0.6601 0.7184
vn 0.2212 -0.6616 0.7165
vn 0.4755 -0.7640 0.4361
vn 0.4778 -0.7640 0.4336
vn 0.3285 0.8676 -0.3732
vn 0.3291 0.8672 -0.3738
vn 0.5716 0.5016 -0.6494
vn 0.5718 0.5011 -0.6496
vn 0.6608 0.0000 -0.7506
vn 0.5716 -0.5016 -0.6494
vn 0.5718 -0.5011 -0.6496
vn 0.3285 -0.8676 -0.3732
vn 0.3291 -0.8672 -0.3738
vn 0.7345 0.6617 0.1506
vn 0.7327 0.6632 0.1525
vn 0.9224 0.3821 -0.0567
vn 0.9218 0.3836 -0.0560
vn 0.9912 -0.0000 -0.1325
vn 0.9224 -0.3821 -0.0567
vn 0.9218 -0.3836 -0.0560
vn 0.7345 -0.6617 0.1506
vn 0.7327 -0.6632 0.1525
vn -0.0002 1.0000 0.0031
vn -0.0337 0.8646 0.5013
vn -0.0338 0.8645 0.5014
vn -0.0002 1.0000 0.0033
vn -0.0582 0.4986 0.8649
vn -0.0582 0.4985 0.8649
vn -0.0672 0.0000 0.9977
vn -0.0582 -0.4986 0.8649
vn -0.0582 -0.4985 0.8649
vn -0.0337 -0.8646 0.5013
vn -0.0338 -0.8645 0.5014
vn -0.0002 -1.0000 0.0031
vn -0.0002 -1.0000 0.0033
vn -0.6445 0.7640 -0.0315
vn -0.6638 0.6611 0.3497
vn -0.6640 0.6593 0.3528
vn -0.6447 0.7640 -0.0273
vn -0.6780 0.3815 0.6284
vn -0.6780 0.3797 0.6294
vn -0.6832 0.0000 0.7303
vn -0.6780 -0.3815 0.6283
vn -0.6781 -0.3797 0.6294
vn -0.6638 -0.6611 0.3497
vn -0.6640 -0.6593 0.3528
vn -0.6445 -0.7640 -0.0316
vn -0.6447 -0.7640 -0.0273
vn 0.0334 0.8674 -0.4964
vn 0.0334 0.8673 -0.4966
vn 0.0581 0.5014 -0.8633
vn 0.0581 0.5013 -0.8633
vn 0.0672 0.0000 -0.9977
vn 0.0581 -0.5014 -0.8633
vn 0.0581 -0.5013 -0.8633
vn 0.0334 -0.8674 -0.4964
vn 0.0334 -0.8673 -0.4966
vn -0.6252 0.6640 -0.4102
vn -0.6250 0.6622 -0.4134
vn -0.6108 0.3844 -0.6922
vn -0.6108 0.3825 -0.6933
vn -0.6055 0.0000 -0.7958
vn -0.6108 -0.3844 -0.6922
vn -0.6108 -0.3825 -0.6933
vn -0.6252 -0.6640 -0.4102
vn -0.6250 -0.6622 -0.4134
vn -0.0031 1.0000 0.0002
vn -0.0034 1.0000 0.0002
vn -0.5014 0.8645 0.0337
vn -0.5012 0.8647 0.0337
vn -0.8649 0.4985 0.0582
vn -0.8649 0.4986 0.0582
vn -0.9977 0.0000 0.0672
vn -0.8649 -0.4985 0.0582
vn -0.8649 -0.4986 0.0582
vn -0.5014 -0.8645 0.0337
vn -0.5012 -0.8647 0.0337
vn -0.0034 -1.0000 0.0002
vn -0.0031 -1.0000 0.0002
vn 0.0315 0.7640 0.6445
vn 0.0272 0.7640 0.6447
vn -0.3529 0.6592 0.6640
vn -0.3497 0.6611 0.6638
vn -0.6294 0.3796 0.6780
vn -0.6284 0.3814 0.6780
vn -0.7303 -0.0000 0.6831
vn -0.6294 -0.3796 0.6780
vn -0.6284 -0.3814 0.6780
vn -0.3529 -0.6592 0.6640
vn -0.3497 -0.6611 0.6638
vn 0.0272 -0.7640 0.6447
vn 0.0315 -0.7640 0.6445
vn 0.4966 0.8673 -0.0334
vn 0.4964 0.8674 -0.0334
vn 0.8633 0.5013 -0.0581
vn 0.8633 0.5014 -0.0581
vn 0.9977 0.0000 -0.0672
vn 0.8633 -0.5013 -0.0581
vn 0.8633 -0.5014 -0.0581
vn 0.4966 -0.8673 -0.0334
vn 0.4964 -0.8674 -0.0334
vn 0.4133 0.6622 0.6251
vn 0.4101 0.6640 0.6252
vn 0.6932 0.3825 0.6108
vn 0.6921 0.3844 0.6109
vn 0.7958 0.0000 0.6056
vn 0.6932 -0.3825 0.6108
vn 0.6921 -0.3844 0.6109
vn 0.4133 -0.6622 0.6251
vn 0.4101 -0.6640 0.6252
vn -0.0029 1.0000 0.0025
vn -0.3775 0.8643 0.3323
vn -0.3769 0.8648 0.3317
vn -0.0020 1.0000 0.0018
vn -0.6508 0.4983 0.5728
vn -0.6506 0.4988 0.5726
vn -0.7507 -0.0000 0.6607
vn -0.6508 -0.4983 0.5728
vn -0.6506 -0.4988 0.5726
vn -0.3775 -0.8643 0.3323
vn -0.3769 -0.8648 0.3317
vn -0.0029 -1.0000 0.0025
vn -0.0020 -1.0000 0.0018
vn -0.4335 0.7640 -0.4779
vn -0.7165 0.6616 -0.2213
vn -0.7184 0.6601 -0.2195
vn -0.4361 0.7640 -0.4756
vn -0.9236 0.3819 -0.0334
vn -0.9242 0.3805 -0.0329
vn -0.9994 -0.0000 0.0353
vn -0.9236 -0.3819 -0.0334
vn -0.9242 -0.3805 -0.0329
vn -0.7165 -0.6616 -0.2213
vn -0.7184 -0.6601 -0.2195
vn -0.4335 -0.7640 -0.4779
vn -0.4361 -0.7640 -0.4756
vn 0.3738 0.8671 -0.3291
vn 0.3732 0.8676 -0.3285
vn 0.6496 0.5011 -0.5718
vn 0.6494 0.5016 -0.5716
vn 0.7506 -0.0000 -0.6608
vn 0.6496 -0.5011 -0.5718
vn 0.6494 -0.5016 -0.5716
vn 0.3738 -0.8671 -0.3291
vn 0.3732 -0.8676 -0.3285
vn -0.1524 0.6632 -0.7328
vn -0.1505 0.6617 -0.7345
vn 0.0561 0.3836 -0.9218
vn 0.0567 0.3821 -0.9224
vn 0.1326 0.0000 -0.9912
vn 0.0560 -0.3836 -0.9218
vn 0.0567 -0.3820 -0.9224
vn -0.1525 -0.6632 -0.7328
vn -0.1505 -0.6617 -0.7345
usemtl MI_Trim_01
s 1
f 27/1/1 13/2/2 14/3/3 28/4/4
f 26/5/5 12/6/6 13/2/2 27/1/1
f 25/7/7 11/8/8 12/6/6 26/5/5
f 24/9/9 10/10/10 11/8/8 25/7/7
f 23/11/11 9/12/12 10/10/10 24/9/9
f 22/13/13 8/14/14 9/12/12 23/11/11
f 254/15/15 34/16/16 35/17/17 259/18/18
f 249/19/19 33/20/20 34/16/16 254/15/15
f 244/21/21 32/22/22 33/20/20 249/19/19
f 239/23/23 31/24/24 32/22/22 244/21/21
f 234/25/25 30/26/26 31/24/24 239/23/23
f 229/27/27 29/28/28 30/26/26 234/25/25
f 37/29/29 38/30/30 47/31/31 45/32/32
f 30/33/33 29/34/34 44/35/35 46/36/36
f 38/30/30 39/37/37 49/38/37 47/31/31
f 31/39/38 30/33/33 46/36/36 48/40/39
f 39/37/37 40/41/40 51/42/41 49/38/37
f 32/43/42 31/39/38 48/40/39 50/44/42
f 40/41/40 41/45/43 53/46/44 51/42/41
f 33/47/45 32/43/42 50/44/42 52/48/46
f 54/49/47 53/46/48 55/50/49 56/51/50
f 52/48/51 51/42/52 53/46/48 54/49/47
f 50/44/53 49/38/53 51/42/52 52/48/51
f 48/40/54 47/31/55 49/38/53 50/44/53
f 46/36/56 45/32/57 47/31/55 48/40/54
f 44/35/58 43/52/59 45/32/57 46/36/56
f 36/53/60 37/29/29 45/32/32 43/52/61
f 35/54/62 34/55/63 54/49/64 56/51/65
f 34/55/63 33/47/45 52/48/46 54/49/64
f 41/45/43 42/56/66 55/50/67 53/46/44
f 76/57/68 28/4/4 14/3/3 66/58/69
f 75/59/70 76/57/68 66/58/69 65/60/71
f 74/61/72 75/59/70 65/60/71 64/62/73
f 73/63/74 74/61/72 64/62/73 63/64/75
f 72/65/76 73/63/74 63/64/75 62/66/77
f 22/13/13 72/65/76 62/66/77 8/14/14
f 284/67/78 259/18/18 35/17/17 81/68/79
f 279/69/80 284/67/78 81/68/79 80/70/81
f 274/71/82 279/69/80 80/70/81 79/72/83
f 269/73/84 274/71/82 79/72/83 78/74/85
f 264/75/86 269/73/84 78/74/85 77/76/87
f 229/27/27 264/75/86 77/76/87 29/28/28
f 82/77/88 87/78/89 89/79/90 83/80/91
f 77/81/92 88/82/93 44/35/35 29/34/34
f 83/80/91 89/79/90 91/83/94 84/84/94
f 78/85/95 90/86/96 88/82/93 77/81/92
f 84/84/94 91/83/94 93/87/97 85/88/98
f 79/89/99 92/90/99 90/86/96 78/85/95
f 85/88/98 93/87/97 95/91/100 86/92/101
f 80/93/102 94/94/103 92/90/99 79/89/99
f 96/95/104 56/51/50 55/50/49 95/91/105
f 94/94/106 96/95/104 95/91/105 93/87/107
f 92/90/108 94/94/106 93/87/107 91/83/108
f 90/86/109 92/90/108 91/83/108 89/79/110
f 88/82/111 90/86/109 89/79/110 87/78/112
f 44/35/58 88/82/111 87/78/112 43/52/59
f 36/53/60 43/52/61 87/78/89 82/77/88
f 35/54/62 56/51/65 96/95/113 81/96/114
f 81/96/114 96/95/113 94/94/103 80/93/102
f 86/92/101 95/91/100 55/50/67 42/56/66
f 116/97/115 117/98/116 103/99/117 102/100/118
f 115/101/119 116/97/115 102/100/118 101/102/120
f 114/103/121 115/101/119 101/102/120 100/104/121
f 113/105/122 114/103/121 100/104/121 99/106/123
f 112/107/124 113/105/122 99/106/123 98/108/125
f 111/109/126 112/107/124 98/108/125 97/110/127
f 201/111/128 205/112/129 124/113/130 123/114/131
f 197/115/132 201/111/128 123/114/131 122/116/133
f 193/117/134 197/115/132 122/116/133 121/118/135
f 189/119/136 193/117/134 121/118/135 120/120/137
f 185/121/138 189/119/136 120/120/137 119/122/139
f 181/123/140 185/121/138 119/122/139 118/124/141
f 126/125/142 134/126/143 136/127/144 127/128/145
f 119/129/146 135/130/147 133/131/148 118/132/149
f 127/128/145 136/127/144 138/133/150 128/134/150
f 120/135/151 137/136/152 135/130/147 119/129/146
f 128/134/150 138/133/150 140/137/153 129/138/154
f 121/139/155 139/140/155 137/136/152 120/135/151
f 129/138/154 140/137/153 142/141/156 130/142/157
f 122/143/158 141/144/159 139/140/155 121/139/155
f 143/145/160 145/146/161 144/147/162 142/141/163
f 141/144/164 143/145/160 142/141/163 140/137/165
f 139/140/166 141/144/164 140/137/165 138/133/166
f 137/136/167 139/140/166 138/133/166 136/127/168
f 135/130/169 137/136/167 136/127/168 134/126/170
f 133/131/171 135/130/169 134/126/170 132/148/172
f 125/149/173 132/148/174 134/126/143 126/125/142
f 124/150/175 145/146/176 143/145/177 123/151/178
f 123/151/178 143/145/177 141/144/159 122/143/158
f 130/142/157 142/141/156 144/147/179 131/152/180
f 160/153/181 150/154/182 103/99/117 117/98/116
f 159/155/183 149/156/184 150/154/182 160/153/181
f 158/157/185 148/158/185 149/156/184 159/155/183
f 157/159/186 147/160/187 148/158/185 158/157/185
f 156/161/188 146/162/189 147/160/187 157/159/186
f 111/109/126 97/110/127 146/162/189 156/161/188
f 225/163/190 165/164/191 124/113/130 205/112/129
f 221/165/192 164/166/193 165/164/191 225/163/190
f 217/167/194 163/168/195 164/166/193 221/165/192
f 213/169/196 162/170/197 163/168/195 217/167/194
f 209/171/198 161/172/199 162/170/197 213/169/196
f 181/123/140 118/124/141 161/172/199 209/171/198
f 166/173/200 167/174/201 173/175/202 171/176/203
f 161/177/204 118/132/149 133/131/148 172/178/205
f 167/174/201 168/179/206 175/180/206 173/175/202
f 162/181/207 161/177/204 172/178/205 174/182/208
f 168/179/206 169/183/209 177/184/210 175/180/206
f 163/185/211 162/181/207 174/182/208 176/186/211
f 169/183/209 170/187/212 179/188/213 177/184/210
f 164/189/214 163/185/211 176/186/211 178/190/215
f 180/191/216 179/188/217 144/147/162 145/146/161
f 178/190/218 177/184/219 179/188/217 180/191/216
f 176/186/220 175/180/220 177/184/219 178/190/218
f 174/182/221 173/175/222 175/180/220 176/186/220
f 172/178/223 171/176/224 173/175/222 174/182/221
f 133/131/171 132/148/172 171/176/224 172/178/223
f 125/149/173 166/173/200 171/176/203 132/148/174
f 124/150/175 165/192/225 180/191/226 145/146/176
f 165/192/225 164/189/214 178/190/215 180/191/226
f 170/187/212 131/152/180 144/147/179 179/188/213
f 1/193/227 184/194/228 212/195/229 57/196/230
f 184/194/228 183/197/231 211/198/232 212/195/229
f 183/197/231 182/199/233 210/200/234 211/198/232
f 182/199/233 181/123/140 209/171/198 210/200/234
f 57/196/230 212/195/229 216/201/235 58/202/236
f 212/195/229 211/198/232 215/203/237 216/201/235
f 211/198/232 210/200/234 214/204/238 215/203/237
f 210/200/234 209/171/198 213/169/196 214/204/238
f 58/202/236 216/201/235 220/205/239 59/206/240
f 216/201/235 215/203/237 219/207/241 220/205/239
f 215/203/237 214/204/238 218/208/242 219/207/241
f 214/204/238 213/169/196 217/167/194 218/208/242
f 59/206/240 220/205/239 224/209/243 60/210/244
f 220/205/239 219/207/241 223/211/245 224/209/243
f 219/207/241 218/208/242 222/212/246 223/211/245
f 218/208/242 217/167/194 221/165/192 222/212/246
f 60/210/244 224/209/243 228/213/247 61/214/248
f 224/209/243 223/211/245 227/215/249 228/213/247
f 223/211/245 222/212/246 226/216/250 227/215/249
f 222/212/246 221/165/192 225/163/190 226/216/250
f 61/214/248 228/213/247 208/217/251 7/218/252
f 228/213/247 227/215/249 207/219/253 208/217/251
f 227/215/249 226/216/250 206/220/254 207/219/253
f 226/216/250 225/163/190 205/112/129 206/220/254
f 1/193/227 2/221/255 188/222/256 184/194/228
f 184/194/228 188/222/256 187/223/257 183/197/231
f 183/197/231 187/223/257 186/224/258 182/199/233
f 182/199/233 186/224/258 185/121/138 181/123/140
f 2/221/255 3/225/259 192/226/260 188/222/256
f 188/222/256 192/226/260 191/227/261 187/223/257
f 187/223/257 191/227/261 190/228/262 186/224/258
f 186/224/258 190/228/262 189/119/136 185/121/138
f 3/225/259 4/229/263 196/230/264 192/226/260
f 192/226/260 196/230/264 195/231/265 191/227/261
f 191/227/261 195/231/265 194/232/266 190/228/262
f 190/228/262 194/232/266 193/117/134 189/119/136
f 4/229/263 5/233/267 200/234/268 196/230/264
f 196/230/264 200/234/268 199/235/269 195/231/265
f 195/231/265 199/235/269 198/236/270 194/232/266
f 194/232/266 198/236/270 197/115/132 193/117/134
f 5/233/267 6/237/271 204/238/272 200/234/268
f 200/234/268 204/238/272 203/239/273 199/235/269
f 199/235/269 203/239/273 202/240/274 198/236/270
f 198/236/270 202/240/274 201/111/128 197/115/132
f 6/237/271 7/218/252 208/217/251 204/238/272
f 204/238/272 208/217/251 207/219/253 203/239/273
f 203/239/273 207/219/253 206/220/254 202/240/274
f 202/240/274 206/220/254 205/112/129 201/111/128
f 1/193/227 57/196/230 268/241/275 233/242/276
f 233/242/276 268/241/275 267/243/277 232/244/278
f 232/244/278 267/243/277 266/245/279 231/246/280
f 231/246/280 266/245/279 265/247/281 230/248/228
f 230/248/228 265/247/281 264/75/86 229/27/27
f 57/196/230 58/202/236 273/249/282 268/241/275
f 268/241/275 273/249/282 272/250/283 267/243/277
f 267/243/277 272/250/283 271/251/284 266/245/279
f 266/245/279 271/251/284 270/252/285 265/247/281
f 265/247/281 270/252/285 269/73/84 264/75/86
f 58/202/236 59/206/240 278/253/286 273/249/282
f 273/249/282 278/253/286 277/254/287 272/250/283
f 272/250/283 277/254/287 276/255/288 271/251/284
f 271/251/284 276/255/288 275/256/289 270/252/285
f 270/252/285 275/256/289 274/71/82 269/73/84
f 59/206/240 60/210/244 283/257/290 278/253/286
f 278/253/286 283/257/290 282/258/291 277/254/287
f 277/254/287 282/258/291 281/259/292 276/255/288
f 276/255/288 281/259/292 280/260/293 275/256/289
f 275/256/289 280/260/293 279/69/80 274/71/82
f 60/210/244 61/214/248 288/261/294 283/257/290
f 283/257/290 288/261/294 287/262/295 282/258/291
f 282/258/291 287/262/295 286/263/296 281/259/292
f 281/259/292 286/263/296 285/264/297 280/260/293
f 280/260/293 285/264/297 284/67/78 279/69/80
f 61/214/248 7/218/252 263/265/298 288/261/294
f 288/261/294 263/265/298 262/266/299 287/262/295
f 287/262/295 262/266/299 261/267/300 286/263/296
f 286/263/296 261/267/300 260/268/251 285/264/297
f 285/264/297 260/268/251 259/18/18 284/67/78
f 1/193/227 233/242/276 238/269/301 2/221/255
f 233/242/276 232/244/278 237/270/302 238/269/301
f 232/244/278 231/246/280 236/271/303 237/270/302
f 231/246/280 230/248/228 235/272/304 236/271/303
f 230/248/228 229/27/27 234/25/25 235/272/304
f 2/221/255 238/269/301 243/273/305 3/225/259
f 238/269/301 237/270/302 242/274/306 243/273/305
f 237/270/302 236/271/303 241/275/307 242/274/306
f 236/271/303 235/272/304 240/276/308 241/275/307
f 235/272/304 234/25/25 239/23/23 240/276/308
f 3/225/259 243/273/305 248/277/309 4/229/263
f 243/273/305 242/274/306 247/278/310 248/277/309
f 242/274/306 241/275/307 246/279/311 247/278/310
f 241/275/307 240/276/308 245/280/312 246/279/311
f 240/276/308 239/23/23 244/21/21 245/280/312
f 4/229/263 248/277/309 253/281/313 5/233/267
f 248/277/309 247/278/310 252/282/314 253/281/313
f 247/278/310 246/279/311 251/283/315 252/282/314
f 246/279/311 245/280/312 250/284/316 251/283/315
f 245/280/312 244/21/21 249/19/19 250/284/316
f 5/233/267 253/281/313 258/285/317 6/237/271
f 253/281/313 252/282/314 257/286/318 258/285/317
f 252/282/314 251/283/315 256/287/319 257/286/318
f 251/283/315 250/284/316 255/288/320 256/287/319
f 250/284/316 249/19/19 254/15/15 255/288/320
f 6/237/271 258/285/317 263/265/298 7/218/252
f 258/285/317 257/286/318 262/266/299 263/265/298
f 257/286/318 256/287/319 261/267/300 262/266/299
f 256/287/319 255/288/320 260/268/251 261/267/300
f 255/288/320 254/15/15 259/18/18 260/268/251
f 315/289/321 301/290/322 302/291/323 316/292/324
f 314/293/325 300/294/326 301/290/322 315/289/321
f 313/295/327 299/296/327 300/294/326 314/293/325
f 312/297/328 298/298/329 299/296/327 313/295/327
f 311/299/330 297/300/331 298/298/329 312/297/328
f 310/301/332 296/302/333 297/300/331 311/299/330
f 530/303/334 322/304/335 323/305/336 535/306/337
f 525/307/338 321/308/339 322/304/335 530/303/334
f 520/309/340 320/310/341 321/308/339 525/307/338
f 515/311/342 319/312/343 320/310/341 520/309/340
f 510/313/344 318/314/345 319/312/343 515/311/342
f 505/315/346 317/316/347 318/314/345 510/313/344
f 325/317/348 326/318/349 335/319/350 333/320/351
f 318/321/352 317/322/353 332/323/354 334/324/355
f 326/318/349 327/325/356 337/326/356 335/319/350
f 319/327/357 318/321/352 334/324/355 336/328/358
f 327/325/356 328/329/359 339/330/360 337/326/356
f 320/331/361 319/327/357 336/328/358 338/332/361
f 328/329/359 329/333/362 341/334/363 339/330/360
f 321/335/364 320/331/361 338/332/361 340/336/365
f 342/337/366 341/334/367 343/338/368 344/339/369
f 340/336/370 339/330/371 341/334/367 342/337/366
f 338/332/372 337/326/372 339/330/371 340/336/370
f 336/328/373 335/319/374 337/326/372 338/332/372
f 334/324/375 333/320/376 335/319/374 336/328/373
f 332/323/377 331/340/378 333/320/376 334/324/375
f 324/341/379 325/317/348 333/320/351 331/340/380
f 323/342/381 322/343/382 342/337/383 344/339/384
f 322/343/382 321/335/364 340/336/365 342/337/383
f 329/333/362 330/344/385 343/338/386 341/334/363
f 364/345/387 316/292/324 302/291/323 354/346/388
f 363/347/389 364/345/387 354/346/388 353/348/390
f 362/349/391 363/347/389 353/348/390 352/350/391
f 361/351/392 362/349/391 352/350/391 351/352/393
f 360/353/394 361/351/392 351/352/393 350/354/395
f 310/301/332 360/353/394 350/354/395 296/302/333
f 560/355/396 535/306/337 323/305/336 369/356/397
f 555/357/398 560/355/396 369/356/397 368/358/399
f 550/359/400 555/357/398 368/358/399 367/360/401
f 545/361/402 550/359/400 367/360/401 366/362/403
f 540/363/404 545/361/402 366/362/403 365/364/405
f 505/315/346 540/363/404 365/364/405 317/316/347
f 370/365/406 375/366/407 377/367/408 371/368/409
f 365/369/410 376/370/411 332/323/354 317/322/353
f 371/368/409 377/367/408 379/371/412 372/372/412
f 366/373/413 378/374/414 376/370/411 365/369/410
f 372/372/412 379/371/412 381/375/415 373/376/416
f 367/377/417 380/378/417 378/374/414 366/373/413
f 373/376/416 381/375/415 383/379/418 374/380/419
f 368/381/420 382/382/421 380/378/417 367/377/417
f 384/383/422 344/339/369 343/338/368 383/379/423
f 382/382/424 384/383/422 383/379/423 381/375/425
f 380/378/426 382/382/424 381/375/425 379/371/426
f 378/374/427 380/378/426 379/371/426 377/367/428
f 376/370/429 378/374/427 377/367/428 375/366/430
f 332/323/377 376/370/429 375/366/430 331/340/378
f 324/341/379 331/340/380 375/366/407 370/365/406
f 323/342/381 344/339/384 384/383/431 369/384/432
f 369/384/432 384/383/431 382/382/421 368/381/420
f 374/380/419 383/379/418 343/338/386 330/344/385
f 397/385/433 398/386/434 14/3/3 13/2/2
f 396/387/435 397/385/433 13/2/2 12/6/6
f 395/388/436 396/387/435 12/6/6 11/8/8
f 394/389/437 395/388/436 11/8/8 10/10/10
f 393/390/438 394/389/437 10/10/10 9/12/12
f 392/391/439 393/390/438 9/12/12 8/14/14
f 477/392/440 481/393/441 405/394/442 404/395/443
f 473/396/444 477/392/440 404/395/443 403/397/445
f 469/398/446 473/396/444 403/397/445 402/399/447
f 465/400/448 469/398/446 402/399/447 401/401/449
f 461/402/450 465/400/448 401/401/449 400/403/451
f 457/404/452 461/402/450 400/403/451 399/405/453
f 407/406/454 415/407/455 417/408/456 408/409/457
f 400/410/458 416/411/459 414/412/460 399/413/461
f 408/409/457 417/408/456 419/414/462 409/415/462
f 401/416/463 418/417/464 416/411/459 400/410/458
f 409/415/462 419/414/462 421/418/465 410/419/466
f 402/420/467 420/421/467 418/417/464 401/416/463
f 410/419/466 421/418/465 423/422/468 411/423/469
f 403/424/470 422/425/471 420/421/467 402/420/467
f 424/426/472 426/427/473 425/428/474 423/422/475
f 422/425/476 424/426/472 423/422/475 421/418/477
f 420/421/478 422/425/476 421/418/477 419/414/478
f 418/417/479 420/421/478 419/414/478 417/408/480
f 416/411/481 418/417/479 417/408/480 415/407/482
f 414/412/483 416/411/481 415/407/482 413/429/484
f 406/430/485 413/429/486 415/407/455 407/406/454
f 405/431/487 426/427/488 424/426/489 404/432/490
f 404/432/490 424/426/489 422/425/471 403/424/470
f 411/423/469 423/422/468 425/428/491 412/433/492
f 436/434/493 66/58/69 14/3/3 398/386/434
f 435/435/494 65/60/71 66/58/69 436/434/493
f 434/436/495 64/62/73 65/60/71 435/435/494
f 433/437/496 63/64/75 64/62/73 434/436/495
f 432/438/497 62/66/77 63/64/75 433/437/496
f 392/391/439 8/14/14 62/66/77 432/438/497
f 501/439/498 441/440/499 405/394/442 481/393/441
f 497/441/500 440/442/501 441/440/499 501/439/498
f 493/443/502 439/444/503 440/442/501 497/441/500
f 489/445/504 438/446/505 439/444/503 493/443/502
f 485/447/506 437/448/507 438/446/505 489/445/504
f 457/404/452 399/405/453 437/448/507 485/447/506
f 442/449/508 443/450/509 449/451/510 447/452/511
f 437/453/512 399/413/461 414/412/460 448/454/513
f 443/450/509 444/455/514 451/456/514 449/451/510
f 438/457/515 437/453/512 448/454/513 450/458/516
f 444/455/514 445/459/517 453/460/518 451/456/514
f 439/461/519 438/457/515 450/458/516 452/462/519
f 445/459/517 446/463/520 455/464/521 453/460/518
f 440/465/522 439/461/519 452/462/519 454/466/523
f 456/467/524 455/464/525 425/428/474 426/427/473
f 454/466/526 453/460/527 455/464/525 456/467/524
f 452/462/528 451/456/528 453/460/527 454/466/526
f 450/458/529 449/451/530 451/456/528 452/462/528
f 448/454/531 447/452/532 449/451/530 450/458/529
f 414/412/483 413/429/484 447/452/532 448/454/531
f 406/430/485 442/449/508 447/452/511 413/429/486
f 405/431/487 441/468/533 456/467/534 426/427/488
f 441/468/533 440/465/522 454/466/523 456/467/534
f 446/463/520 412/433/492 425/428/491 455/464/521
f 289/469/535 460/470/536 488/471/537 345/472/538
f 460/470/536 459/473/539 487/474/540 488/471/537
f 459/473/539 458/475/541 486/476/542 487/474/540
f 458/475/541 457/404/452 485/447/506 486/476/542
f 345/472/538 488/471/537 492/477/543 346/478/544
f 488/471/537 487/474/540 491/479/545 492/477/543
f 487/474/540 486/476/542 490/480/546 491/479/545
f 486/476/542 485/447/506 489/445/504 490/480/546
f 346/478/544 492/477/543 496/481/547 347/482/548
f 492/477/543 491/479/545 495/483/549 496/481/547
f 491/479/545 490/480/546 494/484/550 495/483/549
f 490/480/546 489/445/504 493/443/502 494/484/550
f 347/482/548 496/481/547 500/485/551 348/486/552
f 496/481/547 495/483/549 499/487/553 500/485/551
f 495/483/549 494/484/550 498/488/554 499/487/553
f 494/484/550 493/443/502 497/441/500 498/488/554
f 348/486/552 500/485/551 504/489/555 349/490/556
f 500/485/551 499/487/553 503/491/557 504/489/555
f 499/487/553 498/488/554 502/492/558 503/491/557
f 498/488/554 497/441/500 501/439/498 502/492/558
f 349/490/556 504/489/555 484/493/559 295/494/560
f 504/489/555 503/491/557 483/495/561 484/493/559
f 503/491/557 502/492/558 482/496/562 483/495/561
f 502/492/558 501/439/498 481/393/441 482/496/562
f 289/469/535 290/497/563 464/498/564 460/470/536
f 460/470/536 464/498/564 463/499/565 459/473/539
f 459/473/539 463/499/565 462/500/566 458/475/541
f 458/475/541 462/500/566 461/402/450 457/404/452
f 290/497/563 291/501/567 468/502/568 464/498/564
f 464/498/564 468/502/568 467/503/569 463/499/565
f 463/499/565 467/503/569 466/504/570 462/500/566
f 462/500/566 466/504/570 465/400/448 461/402/450
f 291/501/567 292/505/571 472/506/572 468/502/568
f 468/502/568 472/506/572 471/507/573 467/503/569
f 467/503/569 471/507/573 470/508/574 466/504/570
f 466/504/570 470/508/574 469/398/446 465/400/448
f 292/505/571 293/509/575 476/510/576 472/506/572
f 472/506/572 476/510/576 475/511/577 471/507/573
f 471/507/573 475/511/577 474/512/578 470/508/574
f 470/508/574 474/512/578 473/396/444 469/398/446
f 293/509/575 294/513/579 480/514/580 476/510/576
f 476/510/576 480/514/580 479/515/581 475/511/577
f 475/511/577 479/515/581 478/516/582 474/512/578
f 474/512/578 478/516/582 477/392/440 473/396/444
f 294/513/579 295/494/560 484/493/559 480/514/580
f 480/514/580 484/493/559 483/495/561 479/515/581
f 479/515/581 483/495/561 482/496/562 478/516/582
f 478/516/582 482/496/562 481/393/441 477/392/440
f 289/469/535 345/472/538 544/517/583 509/518/228
f 509/518/228 544/517/583 543/519/584 508/520/585
f 508/520/585 543/519/584 542/521/586 507/522/587
f 507/522/587 542/521/586 541/523/588 506/524/228
f 506/524/228 541/523/588 540/363/404 505/315/346
f 345/472/538 346/478/544 549/525/589 544/517/583
f 544/517/583 549/525/589 548/526/590 543/519/584
f 543/519/584 548/526/590 547/527/591 542/521/586
f 542/521/586 547/527/591 546/528/592 541/523/588
f 541/523/588 546/528/592 545/361/402 540/363/404
f 346/478/544 347/482/548 554/529/593 549/525/589
f 549/525/589 554/529/593 553/530/594 548/526/590
f 548/526/590 553/530/594 552/531/595 547/527/591
f 547/527/591 552/531/595 551/532/596 546/528/592
f 546/528/592 551/532/596 550/359/400 545/361/402
f 347/482/548 348/486/552 559/533/597 554/529/593
f 554/529/593 559/533/597 558/534/598 553/530/594
f 553/530/594 558/534/598 557/535/599 552/531/595
f 552/531/595 557/535/599 556/536/600 551/532/596
f 551/532/596 556/536/600 555/357/398 550/359/400
f 348/486/552 349/490/556 564/537/601 559/533/597
f 559/533/597 564/537/601 563/538/602 558/534/598
f 558/534/598 563/538/602 562/539/603 557/535/599
f 557/535/599 562/539/603 561/540/604 556/536/600
f 556/536/600 561/540/604 560/355/396 555/357/398
f 349/490/556 295/494/560 539/541/251 564/537/601
f 564/537/601 539/541/251 538/542/605 563/538/602
f 563/538/602 538/542/605 537/543/606 562/539/603
f 562/539/603 537/543/606 536/544/251 561/540/604
f 561/540/604 536/544/251 535/306/337 560/355/396
f 289/469/535 509/518/228 514/545/607 290/497/563
f 509/518/228 508/520/585 513/546/608 514/545/607
f 508/520/585 507/522/587 512/547/609 513/546/608
f 507/522/587 506/524/228 511/548/610 512/547/609
f 506/524/228 505/315/346 510/313/344 511/548/610
f 290/497/563 514/545/607 519/549/611 291/501/567
f 514/545/607 513/546/608 518/550/612 519/549/611
f 513/546/608 512/547/609 517/551/613 518/550/612
f 512/547/609 511/548/610 516/552/614 517/551/613
f 511/548/610 510/313/344 515/311/342 516/552/614
f 291/501/567 519/549/611 524/553/615 292/505/571
f 519/549/611 518/550/612 523/554/616 524/553/615
f 518/550/612 517/551/613 522/555/617 523/554/616
f 517/551/613 516/552/614 521/556/618 522/555/617
f 516/552/614 515/311/342 520/309/340 521/556/618
f 292/505/571 524/553/615 529/557/619 293/509/575
f 524/553/615 523/554/616 528/558/620 529/557/619
f 523/554/616 522/555/617 527/559/621 528/558/620
f 522/555/617 521/556/618 526/560/622 527/559/621
f 521/556/618 520/309/340 525/307/338 526/560/622
f 293/509/575 529/557/619 534/561/623 294/513/579
f 529/557/619 528/558/620 533/562/624 534/561/623
f 528/558/620 527/559/621 532/563/625 533/562/624
f 527/559/621 526/560/622 531/564/626 532/563/625
f 526/560/622 525/307/338 530/303/334 531/564/626
f 294/513/579 534/561/623 539/541/251 295/494/560
f 534/561/623 533/562/624 538/542/605 539/541/251
f 533/562/624 532/563/625 537/543/606 538/542/605
f 532/563/625 531/564/626 536/544/251 537/543/606
f 531/564/626 530/303/334 535/306/337 536/544/251
usemtl MI_Trim_02
f 36/565/627 15/566/628 16/567/629 37/568/630
f 37/568/630 16/567/629 17/569/631 38/570/632
f 38/570/632 17/569/631 18/571/633 39/572/633
f 39/572/633 18/571/633 19/573/634 40/574/635
f 40/574/635 19/573/634 20/575/636 41/576/637
f 41/576/637 20/575/636 21/577/638 42/578/639
f 15/579/640 22/580/641 23/581/642 16/582/643
f 16/582/643 23/581/642 24/583/644 17/584/645
f 17/584/645 24/583/644 25/585/646 18/586/646
f 18/586/646 25/585/646 26/587/647 19/588/648
f 19/588/648 26/587/647 27/589/649 20/590/650
f 20/590/650 27/589/649 28/591/651 21/592/652
f 36/565/627 82/593/653 67/594/654 15/566/628
f 82/593/653 83/595/655 68/596/656 67/594/654
f 83/595/655 84/597/657 69/598/657 68/596/656
f 84/597/657 85/599/658 70/600/659 69/598/657
f 85/599/658 86/601/660 71/602/661 70/600/659
f 86/601/660 42/578/639 21/577/638 71/602/661
f 15/579/640 67/603/662 72/604/663 22/580/641
f 67/603/662 68/605/664 73/606/665 72/604/663
f 68/605/664 69/607/666 74/608/666 73/606/665
f 69/607/666 70/609/667 75/610/668 74/608/666
f 70/609/667 71/611/669 76/612/670 75/610/668
f 71/611/669 21/592/652 28/591/651 76/612/670
f 125/613/671 126/614/672 105/615/673 104/616/674
f 126/614/672 127/617/675 106/618/676 105/615/673
f 127/617/675 128/619/677 107/620/677 106/618/676
f 128/619/677 129/621/678 108/622/679 107/620/677
f 129/621/678 130/623/680 109/624/681 108/622/679
f 130/623/680 131/625/682 110/626/683 109/624/681
f 104/627/684 105/628/685 112/629/686 111/630/687
f 105/628/685 106/631/688 113/632/689 112/629/686
f 106/631/688 107/633/690 114/634/690 113/632/689
f 107/633/690 108/635/691 115/636/692 114/634/690
f 108/635/691 109/637/693 116/638/694 115/636/692
f 109/637/693 110/639/695 117/640/696 116/638/694
f 125/613/671 104/616/674 151/641/697 166/642/698
f 166/642/698 151/641/697 152/643/699 167/644/700
f 167/644/700 152/643/699 153/645/701 168/646/701
f 168/646/701 153/645/701 154/647/702 169/648/703
f 169/648/703 154/647/702 155/649/704 170/650/705
f 170/650/705 155/649/704 110/626/683 131/625/682
f 104/627/684 111/630/687 156/651/706 151/652/707
f 151/652/707 156/651/706 157/653/708 152/654/709
f 152/654/709 157/653/708 158/655/710 153/656/710
f 153/656/710 158/655/710 159/657/711 154/658/712
f 154/658/712 159/657/711 160/659/713 155/660/714
f 155/660/714 160/659/713 117/640/696 110/639/695
f 324/661/715 303/662/716 304/663/717 325/664/718
f 325/664/718 304/663/717 305/665/719 326/666/720
f 326/666/720 305/665/719 306/667/721 327/668/721
f 327/668/721 306/667/721 307/669/722 328/670/723
f 328/670/723 307/669/722 308/671/724 329/672/725
f 329/672/725 308/671/724 309/673/726 330/674/727
f 303/675/728 310/676/729 311/677/730 304/678/731
f 304/678/731 311/677/730 312/679/732 305/680/733
f 305/680/733 312/679/732 313/681/734 306/682/734
f 306/682/734 313/681/734 314/683/735 307/684/736
f 307/684/736 314/683/735 315/685/737 308/686/738
f 308/686/738 315/685/737 316/687/739 309/688/740
f 324/661/715 370/689/741 355/690/742 303/662/716
f 370/689/741 371/691/743 356/692/744 355/690/742
f 371/691/743 372/693/745 357/694/745 356/692/744
f 372/693/745 373/695/746 358/696/747 357/694/745
f 373/695/746 374/697/748 359/698/749 358/696/747
f 374/697/748 330/674/727 309/673/726 359/698/749
f 303/675/728 355/699/750 360/700/751 310/676/729
f 355/699/750 356/701/752 361/702/753 360/700/751
f 356/701/752 357/703/754 362/704/754 361/702/753
f 357/703/754 358/705/755 363/706/756 362/704/754
f 358/705/755 359/707/757 364/708/758 363/706/756
f 359/707/757 309/688/740 316/687/739 364/708/758
f 406/709/759 407/710/760 386/711/761 385/712/762
f 407/710/760 408/713/763 387/714/764 386/711/761
f 408/713/763 409/715/765 388/716/765 387/714/764
f 409/715/765 410/717/766 389/718/767 388/716/765
f 410/717/766 411/719/768 390/720/769 389/718/767
f 411/719/768 412/721/770 391/722/771 390/720/769
f 385/723/772 386/724/773 393/725/774 392/726/775
f 386/724/773 387/727/776 394/728/777 393/725/774
f 387/727/776 388/729/778 395/730/778 394/728/777
f 388/729/778 389/731/779 396/732/780 395/730/778
f 389/731/779 390/733/781 397/734/782 396/732/780
f 390/733/781 391/735/783 398/736/784 397/734/782
f 406/709/759 385/712/762 427/737/785 442/738/786
f 442/738/786 427/737/785 428/739/787 443/740/788
f 443/740/788 428/739/787 429/741/789 444/742/789
f 444/742/789 429/741/789 430/743/790 445/744/791
f 445/744/791 430/743/790 431/745/792 446/746/793
f 446/746/793 431/745/792 391/722/771 412/721/770
f 385/723/772 392/726/775 432/747/794 427/748/795
f 427/748/795 432/747/794 433/749/796 428/750/797
f 428/750/797 433/749/796 434/751/798 429/752/798
f 429/752/798 434/751/798 435/753/799 430/754/800
f 430/754/800 435/753/799 436/755/801 431/756/802
f 431/756/802 436/755/801 398/736/784 391/735/783
