# Blender v3.6.0 OBJ File: 'AllModules_Unreal.blend'
# www.blender.org
mtllib Prop_Pipe_Medium_Curve.mtl
o Prop_Pipe_Medium_Curve_Cylinder.001
v -1.578414 0.000000 3.810134
v -1.572003 -0.062500 3.794663
v -1.554489 -0.108253 3.752395
v -1.530565 -0.125000 3.694655
v -1.506640 -0.108253 3.636916
v -1.489126 -0.062500 3.594648
v -1.482715 0.000000 3.579176
v -1.489126 0.062500 3.594648
v -1.506640 0.108253 3.636916
v -1.530565 0.125000 3.694655
v -1.554489 0.108253 3.752395
v -1.572003 0.062500 3.794663
v -2.927378 -0.000000 2.926953
v -2.914114 -0.069997 2.913692
v -2.877879 -0.121238 2.877461
v -2.828380 -0.139994 2.827969
v -2.778881 -0.121238 2.778478
v -2.742645 -0.069997 2.742247
v -2.729382 -0.000000 2.728986
v -2.742645 0.069997 2.742247
v -2.778881 0.121238 2.778478
v -2.828380 0.139994 2.827969
v -2.877879 0.121238 2.877461
v -2.914114 0.069997 2.913692
v -2.758595 -0.062500 3.033643
v -2.727807 -0.108253 2.999799
v -2.685749 -0.125000 2.953567
v -2.643692 -0.108253 2.907335
v -2.612904 -0.062500 2.873490
v -2.601635 0.000000 2.861102
v -2.612904 0.062500 2.873490
v -2.643692 0.108253 2.907335
v -2.685749 0.125000 2.953567
v -2.727807 0.108253 2.999799
v -2.758595 0.062500 3.033643
v -2.769864 -0.000000 3.046031
v -2.786847 0.000000 3.051048
v -2.774195 -0.069997 3.037202
v -2.739630 -0.121238 2.999375
v -2.692414 -0.139994 2.947701
v -2.645197 -0.121238 2.896027
v -2.610632 -0.069997 2.858199
v -2.597980 -0.000000 2.844353
v -2.610632 0.069997 2.858199
v -2.645197 0.121238 2.896027
v -2.692414 0.139994 2.947701
v -2.739630 0.121238 2.999375
v -2.774195 0.069997 3.037202
v -2.584972 -0.062500 3.186378
v -2.556129 -0.108253 3.150862
v -2.516729 -0.125000 3.102345
v -2.477328 -0.108253 3.053829
v -2.448485 -0.062500 3.018312
v -2.437928 0.000000 3.005312
v -2.448485 0.062500 3.018312
v -2.477328 0.108253 3.053829
v -2.516729 0.125000 3.102345
v -2.556129 0.108253 3.150862
v -2.584972 0.062500 3.186378
v -2.595530 -0.000000 3.199378
v -2.653777 -0.000000 3.148201
v -2.642978 -0.062500 3.135401
v -2.613475 -0.108253 3.100431
v -2.573173 -0.125000 3.052661
v -2.532871 -0.108253 3.004891
v -2.503368 -0.062500 2.969920
v -2.492569 -0.000000 2.957120
v -2.503368 0.062500 2.969920
v -2.532871 0.108253 3.004890
v -2.573173 0.125000 3.052661
v -2.613475 0.108253 3.100431
v -2.642978 0.062500 3.135401
v -2.642630 -0.067741 3.147792
v -2.596899 -0.067741 3.187976
v -2.610729 -0.117331 3.109826
v -2.565561 -0.117331 3.149544
v -2.567150 -0.135482 3.057962
v -2.522751 -0.135482 3.097044
v -2.523572 -0.117331 3.006099
v -2.479942 -0.117331 3.044544
v -2.491671 -0.067741 2.968132
v -2.448603 -0.067741 3.006112
v -2.479994 -0.000000 2.954235
v -2.437132 -0.000000 2.992045
v -2.491671 0.067741 2.968132
v -2.448603 0.067741 3.006112
v -2.523572 0.117331 3.006099
v -2.479942 0.117331 3.044544
v -2.567150 0.135482 3.057962
v -2.522751 0.135482 3.097044
v -2.610729 0.117331 3.109826
v -2.565561 0.117331 3.149544
v -2.642630 0.067741 3.147792
v -2.596899 0.067741 3.187976
v -2.608370 0.000000 3.202043
v -2.654306 -0.000000 3.161689
v -0.000000 0.000000 4.139994
v -0.000000 -0.069997 4.121238
v -0.000000 -0.121238 4.069996
v -0.000000 -0.139994 4.000000
v -0.000000 -0.121238 3.930002
v -0.000000 -0.069997 3.878761
v -0.000000 -0.000000 3.860005
v -0.000000 0.069997 3.878761
v -0.000000 0.121238 3.930002
v -0.000000 0.139994 4.000000
v -0.000000 0.121238 4.069996
v -0.000000 0.069997 4.121238
v -0.194705 -0.062500 4.095369
v -0.192557 -0.108253 4.049667
v -0.189622 -0.125000 3.987236
v -0.186687 -0.108253 3.924804
v -0.184538 -0.062500 3.879102
v -0.183752 0.000000 3.862374
v -0.184538 0.062500 3.879102
v -0.186687 0.108253 3.924804
v -0.189622 0.125000 3.987236
v -0.192557 0.108253 4.049667
v -0.194705 0.062500 4.095369
v -0.195491 -0.000000 4.112097
v -0.187030 0.000000 4.127686
v -0.186190 -0.069997 4.108948
v -0.183897 -0.121238 4.057758
v -0.180763 -0.139994 3.987832
v -0.177630 -0.121238 3.917905
v -0.175336 -0.069997 3.866715
v -0.174496 0.000000 3.847978
v -0.175336 0.069997 3.866715
v -0.177630 0.121238 3.917905
v -0.180763 0.139994 3.987832
v -0.183897 0.121238 4.057758
v -0.186190 0.069997 4.108948
v -0.425377 -0.062500 4.079796
v -0.420690 -0.108253 4.034284
v -0.414286 -0.125000 3.972112
v -0.407883 -0.108253 3.909941
v -0.403196 -0.062500 3.864429
v -0.401480 0.000000 3.847770
v -0.403196 0.062500 3.864429
v -0.407883 0.108253 3.909941
v -0.414286 0.125000 3.972112
v -0.420690 0.108253 4.034284
v -0.425377 0.062500 4.079796
v -0.427093 0.000000 4.096454
v -0.349753 -0.000000 4.101722
v -0.348347 -0.062500 4.085034
v -0.344506 -0.108253 4.039443
v -0.339260 -0.125000 3.977163
v -0.334013 -0.108253 3.914884
v -0.330172 -0.062500 3.869292
v -0.328767 -0.000000 3.852604
v -0.330172 0.062500 3.869292
v -0.334013 0.108253 3.914884
v -0.339260 0.125000 3.977163
v -0.344506 0.108253 4.039443
v -0.348347 0.062500 4.085034
v -0.357346 -0.067741 4.093521
v -0.418070 -0.067741 4.089389
v -0.353085 -0.117331 4.044115
v -0.413088 -0.117331 4.040050
v -0.347265 -0.135482 3.976624
v -0.406281 -0.135482 3.972651
v -0.341445 -0.117331 3.909133
v -0.399475 -0.117331 3.905253
v -0.337184 -0.067741 3.859727
v -0.394492 -0.067741 3.855914
v -0.335624 -0.000000 3.841643
v -0.392668 0.000000 3.837855
v -0.337184 0.067741 3.859727
v -0.394492 0.067741 3.855914
v -0.341445 0.117331 3.909133
v -0.399475 0.117331 3.905253
v -0.347265 0.135482 3.976624
v -0.406281 0.135482 3.972651
v -0.353085 0.117331 4.044115
v -0.413088 0.117331 4.040050
v -0.357346 0.067741 4.093521
v -0.418070 0.067741 4.089389
v -0.419894 -0.000000 4.107448
v -0.358906 0.000000 4.111606
v -0.660136 -0.062500 4.049851
v -0.892580 -0.062500 4.002414
v -1.123790 -0.062500 3.950405
v -1.347957 -0.062500 3.872708
v -0.652839 -0.108253 4.004683
v -0.882674 -0.108253 3.957746
v -1.111307 -0.108253 3.906388
v -1.332933 -0.108253 3.829492
v -0.642872 -0.125000 3.942983
v -0.869142 -0.125000 3.896729
v -1.094254 -0.125000 3.846260
v -1.312410 -0.125000 3.770457
v -0.632905 -0.108253 3.881283
v -0.855610 -0.108253 3.835711
v -1.077202 -0.108253 3.786130
v -1.291886 -0.108253 3.711423
v -0.625609 -0.062500 3.836115
v -0.845704 -0.062500 3.791043
v -1.064719 -0.062500 3.742113
v -1.276862 -0.062500 3.668207
v -0.622938 0.000000 3.819583
v -0.842079 0.000000 3.774693
v -1.060150 0.000000 3.726002
v -1.271363 0.000000 3.652389
v -0.625609 0.062500 3.836115
v -0.845704 0.062500 3.791043
v -1.064719 0.062500 3.742113
v -1.276862 0.062500 3.668207
v -0.632905 0.108253 3.881283
v -0.855610 0.108253 3.835711
v -1.077202 0.108253 3.786130
v -1.291886 0.108253 3.711423
v -0.642872 0.125000 3.942983
v -0.869142 0.125000 3.896729
v -1.094254 0.125000 3.846260
v -1.312410 0.125000 3.770457
v -0.652839 0.108253 4.004683
v -0.882674 0.108253 3.957746
v -1.111307 0.108253 3.906388
v -1.332933 0.108253 3.829492
v -0.660136 0.062500 4.049851
v -0.892580 0.062500 4.002414
v -1.123790 0.062500 3.950405
v -1.347957 0.062500 3.872708
v -1.353456 0.000000 3.888526
v -1.128359 -0.000000 3.966517
v -0.896206 0.000000 4.018763
v -0.662806 0.000000 4.066383
v -2.396203 -0.062500 3.329230
v -2.199657 -0.062500 3.462015
v -1.997532 -0.062500 3.585320
v -1.785552 -0.062500 3.691821
v -2.369453 -0.108253 3.292111
v -2.175093 -0.108253 3.423415
v -1.975240 -0.108253 3.545365
v -1.765615 -0.108253 3.650640
v -2.332912 -0.125000 3.241406
v -2.141538 -0.125000 3.370686
v -1.944789 -0.125000 3.490785
v -1.738380 -0.125000 3.594386
v -2.296372 -0.108253 3.190700
v -2.107984 -0.108253 3.317957
v -1.914337 -0.108253 3.436205
v -1.711146 -0.108253 3.538132
v -2.269622 -0.062500 3.153581
v -2.083420 -0.062500 3.279357
v -1.892045 -0.062500 3.396250
v -1.691209 -0.062500 3.496951
v -2.259831 0.000000 3.139995
v -2.074429 0.000000 3.265229
v -1.883886 -0.000000 3.381625
v -1.683911 0.000000 3.481878
v -2.269622 0.062500 3.153581
v -2.083420 0.062500 3.279357
v -1.892045 0.062500 3.396250
v -1.691209 0.062500 3.496951
v -2.296372 0.108253 3.190700
v -2.107984 0.108253 3.317957
v -1.914337 0.108253 3.436205
v -1.711146 0.108253 3.538132
v -2.332912 0.125000 3.241406
v -2.141538 0.125000 3.370686
v -1.944789 0.125000 3.490785
v -1.738380 0.125000 3.594386
v -2.369453 0.108253 3.292111
v -2.175093 0.108253 3.423415
v -1.975240 0.108253 3.545365
v -1.765615 0.108253 3.650640
v -2.396203 0.062500 3.329230
v -2.199657 0.062500 3.462015
v -1.997532 0.062500 3.585320
v -1.785552 0.062500 3.691821
v -1.792850 0.000000 3.706895
v -2.005691 -0.000000 3.599945
v -2.208648 0.000000 3.476144
v -2.405994 0.000000 3.342816
v -3.810332 -0.000000 1.577848
v -3.794860 -0.062500 1.571439
v -3.752589 -0.108253 1.553931
v -3.694846 -0.125000 1.530015
v -3.637103 -0.108253 1.506099
v -3.594832 -0.062500 1.488591
v -3.579360 -0.000000 1.482183
v -3.594832 0.062500 1.488591
v -3.637103 0.108253 1.506099
v -3.694846 0.125000 1.530015
v -3.752589 0.108253 1.553931
v -3.794860 0.062500 1.571439
v -4.139955 0.000000 -0.000600
v -4.121199 -0.069997 -0.000597
v -4.069958 -0.121238 -0.000590
v -3.999961 -0.139994 -0.000580
v -3.929964 -0.121238 -0.000570
v -3.878722 -0.069997 -0.000563
v -3.859967 -0.000000 -0.000560
v -3.878722 0.069997 -0.000563
v -3.929964 0.121238 -0.000570
v -3.999961 0.139994 -0.000580
v -4.069958 0.121238 -0.000590
v -4.121199 0.069997 -0.000597
v -4.095409 -0.062500 0.194109
v -4.049706 -0.108253 0.191967
v -3.987274 -0.125000 0.189041
v -3.924843 -0.108253 0.186116
v -3.879140 -0.062500 0.183974
v -3.862411 -0.000000 0.183190
v -3.879140 0.062500 0.183974
v -3.924843 0.108253 0.186116
v -3.987274 0.125000 0.189041
v -4.049706 0.108253 0.191967
v -4.095409 0.062500 0.194109
v -4.112137 0.000000 0.194893
v -4.127726 -0.000000 0.186430
v -4.108988 -0.069997 0.185593
v -4.057798 -0.121238 0.183306
v -3.987871 -0.139994 0.180183
v -3.917944 -0.121238 0.177059
v -3.866753 -0.069997 0.174773
v -3.848016 0.000000 0.173936
v -3.866753 0.069997 0.174773
v -3.917944 0.121238 0.177059
v -3.987871 0.139994 0.180183
v -4.057798 0.121238 0.183306
v -4.108988 0.069997 0.185593
v -4.079836 -0.062500 0.424781
v -4.034323 -0.108253 0.420100
v -3.972151 -0.125000 0.413706
v -3.909979 -0.108253 0.407312
v -3.864466 -0.062500 0.402631
v -3.847807 0.000000 0.400917
v -3.864466 0.062500 0.402631
v -3.909979 0.108253 0.407312
v -3.972151 0.125000 0.413706
v -4.034323 0.108253 0.420100
v -4.079836 0.062500 0.424781
v -4.096495 0.000000 0.426494
v -4.101762 0.000000 0.349155
v -4.085073 -0.062500 0.347752
v -4.039482 -0.108253 0.343918
v -3.977201 -0.125000 0.338680
v -3.914921 -0.108253 0.333442
v -3.869329 -0.062500 0.329608
v -3.852641 -0.000000 0.328205
v -3.869329 0.062500 0.329608
v -3.914921 0.108253 0.333442
v -3.977201 0.125000 0.338680
v -4.039482 0.108253 0.343918
v -4.085073 0.062500 0.347752
v -4.093561 -0.067741 0.356749
v -4.089429 -0.067741 0.417474
v -4.044154 -0.117331 0.352495
v -4.040090 -0.117331 0.412498
v -3.976663 -0.135482 0.346685
v -3.972690 -0.135482 0.405701
v -3.909171 -0.117331 0.340874
v -3.905291 -0.117331 0.398904
v -3.859764 -0.067741 0.336620
v -3.855951 -0.067741 0.393929
v -3.841680 0.000000 0.335063
v -3.837892 -0.000000 0.392108
v -3.859764 0.067741 0.336620
v -3.855951 0.067741 0.393929
v -3.909171 0.117331 0.340874
v -3.905291 0.117331 0.398904
v -3.976663 0.135482 0.346685
v -3.972690 0.135482 0.405701
v -4.044154 0.117331 0.352495
v -4.040090 0.117331 0.412498
v -4.093561 0.067741 0.356749
v -4.089429 0.067741 0.417474
v -4.107489 0.000000 0.419295
v -4.111645 -0.000000 0.358306
v -3.034038 -0.062500 2.758146
v -3.000190 -0.108253 2.727363
v -2.953951 -0.125000 2.685313
v -2.907713 -0.108253 2.643262
v -2.873864 -0.062500 2.612478
v -2.861474 0.000000 2.601211
v -2.873864 0.062500 2.612478
v -2.907713 0.108253 2.643262
v -2.953951 0.125000 2.685313
v -3.000190 0.108253 2.727363
v -3.034038 0.062500 2.758146
v -3.046428 -0.000000 2.769414
v -3.051446 -0.000000 2.786396
v -3.037598 -0.069997 2.773746
v -2.999766 -0.121238 2.739187
v -2.948085 -0.139994 2.691977
v -2.896405 -0.121238 2.644768
v -2.858572 -0.069997 2.610209
v -2.844724 -0.000000 2.597559
v -2.858572 0.069997 2.610209
v -2.896405 0.121238 2.644768
v -2.948085 0.139994 2.691977
v -2.999766 0.121238 2.739187
v -3.037598 0.069997 2.773746
v -3.186773 -0.062500 2.584523
v -3.151252 -0.108253 2.555686
v -3.102730 -0.125000 2.516292
v -3.054208 -0.108253 2.476899
v -3.018687 -0.062500 2.448061
v -3.005685 0.000000 2.437505
v -3.018687 0.062500 2.448061
v -3.054208 0.108253 2.476899
v -3.102730 0.125000 2.516292
v -3.151252 0.108253 2.555686
v -3.186773 0.062500 2.584523
v -3.199774 -0.000000 2.595079
v -3.148597 -0.000000 2.653326
v -3.135796 -0.062500 2.642529
v -3.100821 -0.108253 2.613031
v -3.053045 -0.125000 2.572736
v -3.005269 -0.108253 2.532441
v -2.970294 -0.062500 2.502943
v -2.957493 -0.000000 2.492146
v -2.970294 0.062500 2.502943
v -3.005269 0.108253 2.532441
v -3.053045 0.125000 2.572736
v -3.100821 0.108253 2.613031
v -3.135796 0.062500 2.642529
v -3.148187 -0.067741 2.642180
v -3.188371 -0.067741 2.596450
v -3.110216 -0.117331 2.610284
v -3.149934 -0.117331 2.565116
v -3.058346 -0.135482 2.566714
v -3.097428 -0.135482 2.522315
v -3.006476 -0.117331 2.523143
v -3.044922 -0.117331 2.479513
v -2.968505 -0.067741 2.491247
v -3.006485 -0.067741 2.448179
v -2.954607 0.000000 2.479573
v -2.992417 -0.000000 2.436711
v -2.968505 0.067741 2.491247
v -3.006485 0.067741 2.448179
v -3.006476 0.117331 2.523143
v -3.044922 0.117331 2.479513
v -3.058346 0.135482 2.566714
v -3.097428 0.135482 2.522315
v -3.110216 0.117331 2.610284
v -3.149934 0.117331 2.565116
v -3.148187 0.067741 2.642180
v -3.188371 0.067741 2.596450
v -3.202440 0.000000 2.607918
v -3.162086 -0.000000 2.653855
v -3.329565 -0.062500 2.395708
v -3.462349 -0.062500 2.199162
v -3.585588 -0.062500 1.996998
v -3.692089 -0.062500 1.785018
v -3.292442 -0.108253 2.368963
v -3.423745 -0.108253 2.174603
v -3.545630 -0.108253 1.974712
v -3.650905 -0.108253 1.765087
v -3.241731 -0.125000 2.332430
v -3.371012 -0.125000 2.141056
v -3.491045 -0.125000 1.944269
v -3.594647 -0.125000 1.737861
v -3.191020 -0.108253 2.295897
v -3.318278 -0.108253 2.107509
v -3.436461 -0.108253 1.913826
v -3.538389 -0.108253 1.710634
v -3.153898 -0.062500 2.269153
v -3.279674 -0.062500 2.082951
v -3.396502 -0.062500 1.891540
v -3.497205 -0.062500 1.690703
v -3.140310 0.000000 2.259364
v -3.265544 -0.000000 2.073962
v -3.381876 0.000000 1.883382
v -3.482131 0.000000 1.683408
v -3.153898 0.062500 2.269153
v -3.279674 0.062500 2.082951
v -3.396502 0.062500 1.891540
v -3.497205 0.062500 1.690703
v -3.191020 0.108253 2.295897
v -3.318278 0.108253 2.107509
v -3.436461 0.108253 1.913826
v -3.538389 0.108253 1.710634
v -3.241731 0.125000 2.332430
v -3.371012 0.125000 2.141056
v -3.491045 0.125000 1.944269
v -3.594647 0.125000 1.737861
v -3.292442 0.108253 2.368963
v -3.423745 0.108253 2.174603
v -3.545630 0.108253 1.974712
v -3.650905 0.108253 1.765087
v -3.329565 0.062500 2.395708
v -3.462349 0.062500 2.199162
v -3.585588 0.062500 1.996998
v -3.692089 0.062500 1.785018
v -3.707163 -0.000000 1.792313
v -3.600214 -0.000000 2.005156
v -3.476479 0.000000 2.208151
v -3.343153 -0.000000 2.405497
v -4.049969 -0.062500 0.659550
v -4.002533 -0.062500 0.891994
v -3.950600 -0.062500 1.123225
v -3.872903 -0.062500 1.347393
v -4.004800 -0.108253 0.652261
v -3.957864 -0.108253 0.882095
v -3.906581 -0.108253 1.110748
v -3.829685 -0.108253 1.332375
v -3.943099 -0.125000 0.642303
v -3.896845 -0.125000 0.868572
v -3.846450 -0.125000 1.093705
v -3.770648 -0.125000 1.311860
v -3.881397 -0.108253 0.632345
v -3.835825 -0.108253 0.855049
v -3.786319 -0.108253 1.076662
v -3.711611 -0.108253 1.291346
v -3.836229 -0.062500 0.625055
v -3.791156 -0.062500 0.845150
v -3.742299 -0.062500 1.064185
v -3.668392 -0.062500 1.276328
v -3.819696 -0.000000 0.622387
v -3.774806 -0.000000 0.841527
v -3.726187 -0.000000 1.059618
v -3.652573 -0.000000 1.270831
v -3.836229 0.062500 0.625055
v -3.791156 0.062500 0.845150
v -3.742299 0.062500 1.064185
v -3.668392 0.062500 1.276328
v -3.881397 0.108253 0.632345
v -3.835825 0.108253 0.855049
v -3.786319 0.108253 1.076662
v -3.711611 0.108253 1.291346
v -3.943099 0.125000 0.642303
v -3.896845 0.125000 0.868572
v -3.846450 0.125000 1.093705
v -3.770648 0.125000 1.311860
v -4.004800 0.108253 0.652261
v -3.957864 0.108253 0.882095
v -3.906581 0.108253 1.110748
v -3.829685 0.108253 1.332375
v -4.049969 0.062500 0.659550
v -4.002533 0.062500 0.891994
v -3.950600 0.062500 1.123225
v -3.872903 0.062500 1.347393
v -3.888722 0.000000 1.352889
v -3.966712 -0.000000 1.127792
v -4.018884 0.000000 0.895618
v -4.066502 0.000000 0.662219
vt 0.593281 0.871866
vt 0.688791 0.871866
vt 0.688791 0.882020
vt 0.593281 0.882020
vt 0.688791 0.892174
vt 0.593281 0.892174
vt 0.593281 0.861712
vt 0.688791 0.861712
vt 0.593281 0.851558
vt 0.688791 0.851558
vt 0.593281 0.841404
vt 0.688791 0.841404
vt 0.593281 0.831250
vt 0.688791 0.831250
vt 0.593281 0.821096
vt 0.688791 0.821096
vt 0.593281 0.810942
vt 0.688791 0.810942
vt 0.593281 0.800788
vt 0.688791 0.800788
vt 0.593281 0.790634
vt 0.688791 0.790634
vt 0.593281 0.780480
vt 0.688791 0.780480
vt 0.593281 0.770326
vt 0.688791 0.770326
vt 0.433286 0.025850
vt 0.389154 0.025850
vt 0.389154 0.025850
vt 0.433286 0.025850
vt 0.477419 0.001650
vt 0.521552 0.001650
vt 0.521552 0.001650
vt 0.477419 0.001650
vt 0.830482 0.025850
vt 0.786349 0.025850
vt 0.786349 0.025850
vt 0.830482 0.025850
vt 0.477419 0.025850
vt 0.477419 0.025850
vt 0.565685 0.001650
vt 0.565685 0.001650
vt 0.742216 0.025850
vt 0.742216 0.025850
vt 0.521552 0.025850
vt 0.521552 0.025850
vt 0.609818 0.001650
vt 0.609818 0.001650
vt 0.565685 0.025850
vt 0.565685 0.025850
vt 0.653950 0.001650
vt 0.653950 0.001650
vt 0.300888 0.001650
vt 0.345021 0.001650
vt 0.345021 0.001650
vt 0.300888 0.001650
vt 0.609817 0.025850
vt 0.609817 0.025850
vt 0.742216 0.001650
vt 0.786349 0.001650
vt 0.830482 0.001650
vt 0.698083 0.025850
vt 0.698083 0.001650
vt 0.653950 0.025850
vt 0.433286 0.001651
vt 0.389154 0.001650
vt 0.345021 0.025850
vt 0.300888 0.025850
vt 0.742216 0.001650
vt 0.786349 0.001650
vt 0.698083 0.025850
vt 0.433286 0.001651
vt 0.345021 0.025850
vt 0.830482 0.001650
vt 0.653950 0.025850
vt 0.389154 0.001650
vt 0.300888 0.025850
vt 0.698083 0.001650
vt 0.593281 0.871866
vt 0.593281 0.882020
vt 0.688791 0.882020
vt 0.688791 0.871866
vt 0.593281 0.892174
vt 0.688791 0.892174
vt 0.593281 0.861712
vt 0.688791 0.861712
vt 0.593281 0.851558
vt 0.688791 0.851558
vt 0.593281 0.841404
vt 0.688791 0.841404
vt 0.593281 0.831250
vt 0.688791 0.831250
vt 0.593281 0.821096
vt 0.688791 0.821096
vt 0.593281 0.810942
vt 0.688791 0.810942
vt 0.593281 0.800788
vt 0.688791 0.800788
vt 0.593281 0.790634
vt 0.688791 0.790634
vt 0.593281 0.780480
vt 0.688791 0.780480
vt 0.593281 0.770326
vt 0.688791 0.770326
vt 0.433286 0.025850
vt 0.433286 0.025850
vt 0.389154 0.025850
vt 0.389154 0.025850
vt 0.477419 0.001650
vt 0.477419 0.001650
vt 0.521552 0.001650
vt 0.521552 0.001650
vt 0.830482 0.025850
vt 0.830482 0.025850
vt 0.786349 0.025850
vt 0.786349 0.025850
vt 0.477419 0.025850
vt 0.477419 0.025850
vt 0.565685 0.001650
vt 0.565685 0.001650
vt 0.742216 0.025850
vt 0.742216 0.025850
vt 0.521552 0.025850
vt 0.521552 0.025850
vt 0.609818 0.001650
vt 0.609818 0.001650
vt 0.565685 0.025850
vt 0.565685 0.025850
vt 0.653950 0.001650
vt 0.653950 0.001650
vt 0.300888 0.001650
vt 0.300888 0.001650
vt 0.345021 0.001650
vt 0.345021 0.001650
vt 0.609817 0.025850
vt 0.609817 0.025850
vt 0.786349 0.001650
vt 0.742216 0.001650
vt 0.830482 0.001650
vt 0.698083 0.025850
vt 0.698083 0.001650
vt 0.653950 0.025850
vt 0.433286 0.001651
vt 0.389154 0.001650
vt 0.345021 0.025850
vt 0.300888 0.025850
vt 0.742216 0.001650
vt 0.786349 0.001650
vt 0.698083 0.025850
vt 0.433286 0.001651
vt 0.345021 0.025850
vt 0.830482 0.001650
vt 0.653950 0.025850
vt 0.389154 0.001650
vt 0.300888 0.025850
vt 0.698083 0.001650
vt 0.211241 0.770326
vt 0.211241 0.780480
vt 0.306751 0.780480
vt 0.306751 0.770326
vt 0.402261 0.780480
vt 0.402261 0.770326
vt 0.497771 0.780480
vt 0.497771 0.770326
vt 0.211241 0.790634
vt 0.306751 0.790634
vt 0.402261 0.790634
vt 0.497771 0.790634
vt 0.211241 0.800788
vt 0.306751 0.800788
vt 0.402261 0.800788
vt 0.497771 0.800788
vt 0.211241 0.810942
vt 0.306751 0.810942
vt 0.402261 0.810942
vt 0.497771 0.810942
vt 0.211241 0.821096
vt 0.306751 0.821096
vt 0.402261 0.821096
vt 0.497771 0.821096
vt 0.211241 0.831250
vt 0.306751 0.831250
vt 0.402261 0.831250
vt 0.497771 0.831250
vt 0.211241 0.841404
vt 0.306751 0.841404
vt 0.402261 0.841404
vt 0.497771 0.841404
vt 0.211241 0.851558
vt 0.306751 0.851558
vt 0.402261 0.851558
vt 0.497771 0.851558
vt 0.211241 0.861712
vt 0.306751 0.861712
vt 0.402261 0.861712
vt 0.497771 0.861712
vt 0.211241 0.871866
vt 0.306751 0.871866
vt 0.402261 0.871866
vt 0.497771 0.871866
vt 0.211241 0.882020
vt 0.211241 0.892174
vt 0.306751 0.892174
vt 0.306751 0.882020
vt 0.402261 0.892174
vt 0.402261 0.882020
vt 0.497771 0.892174
vt 0.497771 0.882020
vt 0.306751 0.770326
vt 0.306751 0.780480
vt 0.402261 0.770326
vt 0.402261 0.780480
vt 0.497771 0.770326
vt 0.497771 0.780480
vt 0.306751 0.790634
vt 0.402261 0.790634
vt 0.497771 0.790634
vt 0.306751 0.800788
vt 0.402261 0.800788
vt 0.497771 0.800788
vt 0.306751 0.810942
vt 0.402261 0.810942
vt 0.497771 0.810942
vt 0.306751 0.821096
vt 0.402261 0.821096
vt 0.497771 0.821096
vt 0.306751 0.831250
vt 0.402261 0.831250
vt 0.497771 0.831250
vt 0.306751 0.841404
vt 0.402261 0.841404
vt 0.497771 0.841404
vt 0.306751 0.851558
vt 0.402261 0.851558
vt 0.497771 0.851558
vt 0.306751 0.861712
vt 0.402261 0.861712
vt 0.497771 0.861712
vt 0.306751 0.871866
vt 0.402261 0.871866
vt 0.497771 0.871866
vt 0.306751 0.882020
vt 0.306751 0.892174
vt 0.402261 0.882020
vt 0.402261 0.892174
vt 0.497771 0.882020
vt 0.497771 0.892174
vt 0.593281 0.871866
vt 0.688791 0.871866
vt 0.688791 0.882020
vt 0.593281 0.882020
vt 0.688791 0.892174
vt 0.593281 0.892174
vt 0.593281 0.861712
vt 0.688791 0.861712
vt 0.593281 0.851558
vt 0.688791 0.851558
vt 0.593281 0.841404
vt 0.688791 0.841404
vt 0.593281 0.831250
vt 0.688791 0.831250
vt 0.593281 0.821096
vt 0.688791 0.821096
vt 0.593281 0.810942
vt 0.688791 0.810942
vt 0.593281 0.800788
vt 0.688791 0.800788
vt 0.593281 0.790634
vt 0.688791 0.790634
vt 0.593281 0.780480
vt 0.688791 0.780480
vt 0.593281 0.770326
vt 0.688791 0.770326
vt 0.433286 0.025850
vt 0.389154 0.025850
vt 0.389154 0.025850
vt 0.433286 0.025850
vt 0.477419 0.001650
vt 0.521552 0.001650
vt 0.521552 0.001650
vt 0.477419 0.001650
vt 0.830482 0.025850
vt 0.786349 0.025850
vt 0.786349 0.025850
vt 0.830482 0.025850
vt 0.477419 0.025850
vt 0.477419 0.025850
vt 0.565685 0.001650
vt 0.565685 0.001650
vt 0.742216 0.025850
vt 0.742216 0.025850
vt 0.521552 0.025850
vt 0.521552 0.025850
vt 0.609818 0.001650
vt 0.609818 0.001650
vt 0.565685 0.025850
vt 0.565685 0.025850
vt 0.653950 0.001650
vt 0.653950 0.001650
vt 0.300888 0.001650
vt 0.345021 0.001650
vt 0.345021 0.001650
vt 0.300888 0.001650
vt 0.609817 0.025850
vt 0.609817 0.025850
vt 0.742216 0.001650
vt 0.786349 0.001650
vt 0.830482 0.001650
vt 0.698083 0.025850
vt 0.698083 0.001650
vt 0.653950 0.025850
vt 0.433286 0.001651
vt 0.389154 0.001650
vt 0.345021 0.025850
vt 0.300888 0.025850
vt 0.742216 0.001650
vt 0.786349 0.001650
vt 0.698083 0.025850
vt 0.433286 0.001651
vt 0.345021 0.025850
vt 0.830482 0.001650
vt 0.653950 0.025850
vt 0.389154 0.001650
vt 0.300888 0.025850
vt 0.698083 0.001650
vt 0.593281 0.871866
vt 0.593281 0.882020
vt 0.688791 0.882020
vt 0.688791 0.871866
vt 0.593281 0.892174
vt 0.688791 0.892174
vt 0.593281 0.861712
vt 0.688791 0.861712
vt 0.593281 0.851558
vt 0.688791 0.851558
vt 0.593281 0.841404
vt 0.688791 0.841404
vt 0.593281 0.831250
vt 0.688791 0.831250
vt 0.593281 0.821096
vt 0.688791 0.821096
vt 0.593281 0.810942
vt 0.688791 0.810942
vt 0.593281 0.800788
vt 0.688791 0.800788
vt 0.593281 0.790634
vt 0.688791 0.790634
vt 0.593281 0.780480
vt 0.688791 0.780480
vt 0.593281 0.770326
vt 0.688791 0.770326
vt 0.433286 0.025850
vt 0.433286 0.025850
vt 0.389154 0.025850
vt 0.389154 0.025850
vt 0.477419 0.001650
vt 0.477419 0.001650
vt 0.521552 0.001650
vt 0.521552 0.001650
vt 0.830482 0.025850
vt 0.830482 0.025850
vt 0.786349 0.025850
vt 0.786349 0.025850
vt 0.477419 0.025850
vt 0.477419 0.025850
vt 0.565685 0.001650
vt 0.565685 0.001650
vt 0.742216 0.025850
vt 0.742216 0.025850
vt 0.521552 0.025850
vt 0.521552 0.025850
vt 0.609818 0.001650
vt 0.609818 0.001650
vt 0.565685 0.025850
vt 0.565685 0.025850
vt 0.653950 0.001650
vt 0.653950 0.001650
vt 0.300888 0.001650
vt 0.300888 0.001650
vt 0.345021 0.001650
vt 0.345021 0.001650
vt 0.609817 0.025850
vt 0.609817 0.025850
vt 0.786349 0.001650
vt 0.742216 0.001650
vt 0.830482 0.001650
vt 0.698083 0.025850
vt 0.698083 0.001650
vt 0.653950 0.025850
vt 0.433286 0.001651
vt 0.389154 0.001650
vt 0.345021 0.025850
vt 0.300888 0.025850
vt 0.742216 0.001650
vt 0.786349 0.001650
vt 0.698083 0.025850
vt 0.433286 0.001651
vt 0.345021 0.025850
vt 0.830482 0.001650
vt 0.653950 0.025850
vt 0.389154 0.001650
vt 0.300888 0.025850
vt 0.698083 0.001650
vt 0.211241 0.770326
vt 0.211241 0.780480
vt 0.306751 0.780480
vt 0.306751 0.770326
vt 0.402261 0.780480
vt 0.402261 0.770326
vt 0.497771 0.780480
vt 0.497771 0.770326
vt 0.211241 0.790634
vt 0.306751 0.790634
vt 0.402261 0.790634
vt 0.497771 0.790634
vt 0.211241 0.800788
vt 0.306751 0.800788
vt 0.402261 0.800788
vt 0.497771 0.800788
vt 0.211241 0.810942
vt 0.306751 0.810942
vt 0.402261 0.810942
vt 0.497771 0.810942
vt 0.211241 0.821096
vt 0.306751 0.821096
vt 0.402261 0.821096
vt 0.497771 0.821096
vt 0.211241 0.831250
vt 0.306751 0.831250
vt 0.402261 0.831250
vt 0.497771 0.831250
vt 0.211241 0.841404
vt 0.306751 0.841404
vt 0.402261 0.841404
vt 0.497771 0.841404
vt 0.211241 0.851558
vt 0.306751 0.851558
vt 0.402261 0.851558
vt 0.497771 0.851558
vt 0.211241 0.861712
vt 0.306751 0.861712
vt 0.402261 0.861712
vt 0.497771 0.861712
vt 0.211241 0.871866
vt 0.306751 0.871866
vt 0.402261 0.871866
vt 0.497771 0.871866
vt 0.211241 0.882020
vt 0.211241 0.892174
vt 0.306751 0.892174
vt 0.306751 0.882020
vt 0.402261 0.892174
vt 0.402261 0.882020
vt 0.497771 0.892174
vt 0.497771 0.882020
vt 0.306751 0.770326
vt 0.306751 0.780480
vt 0.402261 0.770326
vt 0.402261 0.780480
vt 0.497771 0.770326
vt 0.497771 0.780480
vt 0.306751 0.790634
vt 0.402261 0.790634
vt 0.497771 0.790634
vt 0.306751 0.800788
vt 0.402261 0.800788
vt 0.497771 0.800788
vt 0.306751 0.810942
vt 0.402261 0.810942
vt 0.497771 0.810942
vt 0.306751 0.821096
vt 0.402261 0.821096
vt 0.497771 0.821096
vt 0.306751 0.831250
vt 0.402261 0.831250
vt 0.497771 0.831250
vt 0.306751 0.841404
vt 0.402261 0.841404
vt 0.497771 0.841404
vt 0.306751 0.851558
vt 0.402261 0.851558
vt 0.497771 0.851558
vt 0.306751 0.861712
vt 0.402261 0.861712
vt 0.497771 0.861712
vt 0.306751 0.871866
vt 0.402261 0.871866
vt 0.497771 0.871866
vt 0.306751 0.882020
vt 0.306751 0.892174
vt 0.402261 0.882020
vt 0.402261 0.892174
vt 0.497771 0.882020
vt 0.497771 0.892174
vt 0.217039 0.371133
vt 0.217039 0.480950
vt 0.176485 0.480950
vt 0.176485 0.371133
vt 0.135931 0.480950
vt 0.135931 0.371133
vt 0.257593 0.371133
vt 0.257593 0.480950
vt 0.298147 0.371133
vt 0.298147 0.480950
vt 0.338701 0.371133
vt 0.338701 0.480950
vt 0.379255 0.371133
vt 0.379255 0.480950
vt 0.419809 0.371133
vt 0.419809 0.480950
vt 0.460363 0.371133
vt 0.460363 0.480950
vt 0.500917 0.371133
vt 0.500917 0.480950
vt 0.541471 0.371133
vt 0.541471 0.480950
vt 0.582026 0.371133
vt 0.582026 0.480950
vt 0.622580 0.371133
vt 0.622579 0.480950
vt 0.455026 0.539161
vt 0.518179 0.539161
vt 0.518179 0.549315
vt 0.455026 0.549315
vt 0.518179 0.559469
vt 0.455026 0.559469
vt 0.518179 0.569623
vt 0.455026 0.569623
vt 0.518179 0.579777
vt 0.455026 0.579777
vt 0.518179 0.589931
vt 0.455026 0.589931
vt 0.518179 0.600085
vt 0.455026 0.600085
vt 0.518179 0.610239
vt 0.455026 0.610239
vt 0.518179 0.620393
vt 0.455026 0.620393
vt 0.518179 0.630547
vt 0.455026 0.630547
vt 0.518179 0.640701
vt 0.455026 0.640701
vt 0.455026 0.650855
vt 0.518179 0.650855
vt 0.518179 0.661009
vt 0.455026 0.661009
vt 0.622580 0.365751
vt 0.582026 0.365751
vt 0.541471 0.365751
vt 0.500917 0.365751
vt 0.460363 0.365751
vt 0.419809 0.365751
vt 0.379255 0.365751
vt 0.338701 0.365752
vt 0.298147 0.365751
vt 0.257593 0.365751
vt 0.217039 0.365752
vt 0.176485 0.365752
vt 0.135931 0.365751
vt 0.217039 0.371133
vt 0.176485 0.371133
vt 0.176485 0.480950
vt 0.217039 0.480950
vt 0.135931 0.371133
vt 0.135931 0.480950
vt 0.257593 0.371133
vt 0.257593 0.480950
vt 0.298147 0.371133
vt 0.298147 0.480950
vt 0.338701 0.371133
vt 0.338701 0.480950
vt 0.379255 0.371133
vt 0.379255 0.480950
vt 0.419809 0.371133
vt 0.419809 0.480950
vt 0.460363 0.371133
vt 0.460363 0.480950
vt 0.500917 0.371133
vt 0.500917 0.480950
vt 0.541471 0.371133
vt 0.541471 0.480950
vt 0.582026 0.371133
vt 0.582026 0.480950
vt 0.622580 0.371133
vt 0.622579 0.480950
vt 0.455026 0.539161
vt 0.455026 0.549315
vt 0.518179 0.549315
vt 0.518179 0.539161
vt 0.455026 0.559469
vt 0.518179 0.559469
vt 0.455026 0.569623
vt 0.518179 0.569623
vt 0.455026 0.579777
vt 0.518179 0.579777
vt 0.455026 0.589931
vt 0.518179 0.589931
vt 0.455026 0.600085
vt 0.518179 0.600085
vt 0.455026 0.610239
vt 0.518179 0.610239
vt 0.455026 0.620393
vt 0.518179 0.620393
vt 0.455026 0.630547
vt 0.518179 0.630547
vt 0.455026 0.640701
vt 0.518179 0.640701
vt 0.455026 0.650855
vt 0.455026 0.661009
vt 0.518179 0.661009
vt 0.518179 0.650855
vt 0.622580 0.365751
vt 0.582026 0.365751
vt 0.541471 0.365751
vt 0.500917 0.365751
vt 0.460363 0.365751
vt 0.419809 0.365751
vt 0.379255 0.365751
vt 0.338701 0.365752
vt 0.298147 0.365751
vt 0.257593 0.365751
vt 0.217039 0.365752
vt 0.176485 0.365752
vt 0.135931 0.365751
vt 0.217039 0.371133
vt 0.217039 0.480950
vt 0.176485 0.480950
vt 0.176485 0.371133
vt 0.135931 0.480950
vt 0.135931 0.371133
vt 0.257593 0.371133
vt 0.257593 0.480950
vt 0.298147 0.371133
vt 0.298147 0.480950
vt 0.338701 0.371133
vt 0.338701 0.480950
vt 0.379255 0.371133
vt 0.379255 0.480950
vt 0.419809 0.371133
vt 0.419809 0.480950
vt 0.460363 0.371133
vt 0.460363 0.480950
vt 0.500917 0.371133
vt 0.500917 0.480950
vt 0.541471 0.371133
vt 0.541471 0.480950
vt 0.582026 0.371133
vt 0.582026 0.480950
vt 0.622580 0.371133
vt 0.622579 0.480950
vt 0.455026 0.539161
vt 0.518179 0.539161
vt 0.518179 0.549315
vt 0.455026 0.549315
vt 0.518179 0.559469
vt 0.455026 0.559469
vt 0.518179 0.569623
vt 0.455026 0.569623
vt 0.518179 0.579777
vt 0.455026 0.579777
vt 0.518179 0.589931
vt 0.455026 0.589931
vt 0.518179 0.600085
vt 0.455026 0.600085
vt 0.518179 0.610239
vt 0.455026 0.610239
vt 0.518179 0.620393
vt 0.455026 0.620393
vt 0.518179 0.630547
vt 0.455026 0.630547
vt 0.518179 0.640701
vt 0.455026 0.640701
vt 0.455026 0.650855
vt 0.518179 0.650855
vt 0.518179 0.661009
vt 0.455026 0.661009
vt 0.622580 0.365751
vt 0.582026 0.365751
vt 0.541471 0.365751
vt 0.500917 0.365751
vt 0.460363 0.365751
vt 0.419809 0.365751
vt 0.379255 0.365751
vt 0.338701 0.365752
vt 0.298147 0.365751
vt 0.257593 0.365751
vt 0.217039 0.365752
vt 0.176485 0.365752
vt 0.135931 0.365751
vt 0.217039 0.371133
vt 0.176485 0.371133
vt 0.135931 0.371133
vt 0.257593 0.371133
vt 0.298147 0.371133
vt 0.338701 0.371133
vt 0.379255 0.371133
vt 0.419809 0.371133
vt 0.460363 0.371133
vt 0.500917 0.371133
vt 0.541471 0.371133
vt 0.582026 0.371133
vt 0.622580 0.371133
vt 0.455026 0.539161
vt 0.455026 0.549315
vt 0.518179 0.549315
vt 0.518179 0.539161
vt 0.455026 0.559469
vt 0.518179 0.559469
vt 0.455026 0.569623
vt 0.518179 0.569623
vt 0.455026 0.579777
vt 0.518179 0.579777
vt 0.455026 0.589931
vt 0.518179 0.589931
vt 0.455026 0.600085
vt 0.518179 0.600085
vt 0.455026 0.610239
vt 0.518179 0.610239
vt 0.455026 0.620393
vt 0.518179 0.620393
vt 0.455026 0.630547
vt 0.518179 0.630547
vt 0.455026 0.640701
vt 0.518179 0.640701
vt 0.455026 0.650855
vt 0.455026 0.661009
vt 0.518179 0.661009
vt 0.518179 0.650855
vt 0.622580 0.365751
vt 0.582026 0.365751
vt 0.541471 0.365751
vt 0.500917 0.365751
vt 0.460363 0.365751
vt 0.419809 0.365751
vt 0.379255 0.365751
vt 0.338701 0.365752
vt 0.298147 0.365751
vt 0.257593 0.365751
vt 0.217039 0.365752
vt 0.176485 0.365752
vt 0.135931 0.365751
vn -0.2928 0.8641 0.4094
vn -0.3043 0.8635 0.4022
vn -0.5235 0.4974 0.6918
vn -0.5045 0.4981 0.7052
vn -0.6034 -0.0000 0.7974
vn -0.5819 -0.0000 0.8133
vn -0.0026 1.0000 0.0036
vn -0.0034 1.0000 0.0045
vn 0.2889 0.8679 -0.4040
vn 0.2991 0.8684 -0.3955
vn 0.5031 0.5019 -0.7036
vn 0.5216 0.5023 -0.6897
vn 0.5817 0.0000 -0.8134
vn 0.6032 -0.0000 -0.7976
vn 0.5031 -0.5019 -0.7036
vn 0.5216 -0.5023 -0.6897
vn 0.2889 -0.8679 -0.4040
vn 0.2991 -0.8684 -0.3955
vn -0.0026 -1.0000 0.0036
vn -0.0034 -1.0000 0.0045
vn -0.2928 -0.8641 0.4094
vn -0.3043 -0.8635 0.4022
vn -0.5045 -0.4981 0.7052
vn -0.5235 -0.4974 0.6918
vn 0.6136 -0.6076 0.5043
vn 0.4120 -0.5344 0.7380
vn 0.4144 -0.5365 0.7351
vn 0.6168 -0.6074 0.5006
vn -0.4138 -0.5237 -0.7447
vn -0.2736 -0.3012 -0.9135
vn -0.2740 -0.3025 -0.9129
vn -0.4151 -0.5249 -0.7430
vn 0.2042 -0.0000 0.9789
vn 0.2605 0.3120 0.9137
vn 0.2613 0.3142 0.9127
vn 0.8091 -0.5179 0.2778
vn 0.8114 -0.5157 0.2751
vn -0.2226 0.0000 -0.9749
vn 0.4120 0.5344 0.7380
vn 0.4144 0.5365 0.7351
vn 0.9482 -0.2954 0.1167
vn 0.9490 -0.2934 0.1159
vn -0.2736 0.3012 -0.9134
vn -0.2741 0.3025 -0.9129
vn 0.9983 0.0000 0.0588
vn -0.4138 0.5237 -0.7447
vn -0.4152 0.5249 -0.7430
vn -0.9992 -0.0000 -0.0403
vn -0.9462 -0.3064 -0.1040
vn -0.9467 -0.3052 -0.1034
vn 0.9482 0.2954 0.1167
vn 0.9490 0.2934 0.1159
vn -0.3333 0.8633 0.3791
vn -0.3284 0.8675 0.3735
vn -0.5711 0.5014 0.6499
vn -0.5727 0.4972 0.6517
vn -0.6600 -0.0000 0.7512
vn -0.0041 1.0000 0.0047
vn 0.0026 1.0000 -0.0028
vn 0.3276 0.8686 -0.3717
vn 0.3326 0.8642 -0.3774
vn 0.5718 0.5026 -0.6484
vn 0.5735 0.4981 -0.6504
vn 0.6615 0.0000 -0.7500
vn 0.5718 -0.5026 -0.6484
vn 0.5735 -0.4981 -0.6504
vn 0.3276 -0.8686 -0.3717
vn 0.3326 -0.8642 -0.3774
vn -0.0041 -1.0000 0.0047
vn 0.0026 -1.0000 -0.0028
vn -0.3333 -0.8633 0.3791
vn -0.3284 -0.8675 0.3735
vn -0.5727 -0.4972 0.6517
vn -0.5711 -0.5014 0.6499
vn -0.8022 0.5288 -0.2773
vn -0.9462 0.3064 -0.1040
vn -0.9467 0.3052 -0.1034
vn -0.8035 0.5276 -0.2757
vn 0.6136 0.6076 0.5043
vn 0.6168 0.6074 0.5006
vn -0.6070 -0.6077 -0.5121
vn -0.6088 -0.6077 -0.5099
vn 0.2605 -0.3120 0.9137
vn 0.2613 -0.3142 0.9127
vn 0.8091 0.5179 0.2778
vn 0.8114 0.5157 0.2751
vn -0.8022 -0.5288 -0.2773
vn -0.8035 -0.5276 -0.2757
vn -0.6070 0.6077 -0.5121
vn -0.6088 0.6077 -0.5099
vn -0.0824 0.8634 0.4977
vn -0.1417 0.4974 0.8558
vn -0.1097 0.4981 0.8601
vn -0.0636 0.8642 0.4991
vn -0.1633 -0.0000 0.9866
vn -0.1265 0.0000 0.9920
vn -0.0010 1.0000 0.0061
vn -0.0005 1.0000 0.0039
vn 0.0810 0.8688 -0.4886
vn 0.0628 0.8677 -0.4932
vn 0.1414 0.5028 -0.8528
vn 0.1093 0.5016 -0.8582
vn 0.1636 0.0000 -0.9865
vn 0.1263 0.0000 -0.9920
vn 0.1414 -0.5028 -0.8528
vn 0.1093 -0.5016 -0.8582
vn 0.0810 -0.8688 -0.4886
vn 0.0628 -0.8677 -0.4932
vn -0.0010 -1.0000 0.0061
vn -0.0005 -1.0000 0.0039
vn -0.0824 -0.8634 0.4977
vn -0.0636 -0.8642 0.4991
vn -0.1417 -0.4974 0.8558
vn -0.1097 -0.4981 0.8601
vn -0.7905 -0.6076 -0.0771
vn -0.7901 -0.6075 -0.0814
vn -0.8132 -0.5358 0.2271
vn -0.8134 -0.5340 0.2305
vn 0.8194 -0.5234 -0.2339
vn 0.8192 -0.5244 -0.2322
vn 0.8397 -0.3019 -0.4514
vn 0.8398 -0.3009 -0.4519
vn -0.8372 0.0000 0.5470
vn -0.8306 0.3135 0.4602
vn -0.8307 0.3116 0.4613
vn -0.7682 -0.5183 -0.3757
vn -0.7680 -0.5164 -0.3788
vn 0.8472 -0.0000 -0.5313
vn -0.8132 0.5358 0.2271
vn -0.8134 0.5340 0.2305
vn -0.7524 -0.2959 -0.5885
vn -0.7524 -0.2941 -0.5895
vn 0.8397 0.3019 -0.4514
vn 0.8398 0.3009 -0.4519
vn -0.7468 -0.0000 -0.6651
vn 0.8192 0.5244 -0.2322
vn 0.8194 0.5234 -0.2339
vn 0.7344 -0.0000 0.6787
vn 0.7420 -0.3058 0.5966
vn 0.7421 -0.3067 0.5960
vn -0.7524 0.2959 -0.5885
vn -0.7524 0.2941 -0.5895
vn -0.0341 0.8636 0.5030
vn -0.0589 0.4975 0.8654
vn -0.0587 0.5012 0.8634
vn -0.0337 0.8673 0.4967
vn -0.0679 -0.0000 0.9977
vn -0.0004 1.0000 0.0055
vn 0.0001 1.0000 -0.0031
vn 0.0331 0.8684 -0.4948
vn 0.0335 0.8646 -0.5014
vn 0.0574 0.5023 -0.8628
vn 0.0576 0.4985 -0.8650
vn 0.0663 0.0000 -0.9978
vn 0.0574 -0.5023 -0.8628
vn 0.0576 -0.4985 -0.8650
vn 0.0331 -0.8684 -0.4948
vn 0.0335 -0.8646 -0.5014
vn -0.0004 -1.0000 0.0055
vn 0.0001 -1.0000 -0.0031
vn -0.0341 -0.8636 0.5030
vn -0.0337 -0.8673 0.4967
vn -0.0589 -0.4975 0.8654
vn -0.0587 -0.5012 0.8634
vn 0.7630 0.5292 0.3712
vn 0.7628 0.5282 0.3729
vn 0.7420 0.3058 0.5966
vn 0.7421 0.3067 0.5960
vn -0.7901 0.6075 -0.0814
vn -0.7905 0.6076 -0.0771
vn 0.7913 -0.6077 0.0670
vn 0.7911 -0.6077 0.0693
vn -0.8306 -0.3135 0.4602
vn -0.8307 -0.3116 0.4613
vn -0.7680 0.5164 -0.3788
vn -0.7682 0.5183 -0.3757
vn 0.7630 -0.5292 0.3712
vn 0.7628 -0.5282 0.3729
vn 0.7913 0.6077 0.0670
vn 0.7911 0.6077 0.0693
vn -0.3820 -0.0000 0.9241
vn -0.3317 -0.4963 0.8023
vn -0.2843 -0.4997 0.8182
vn -0.3282 -0.0000 0.9446
vn -0.2378 -0.4963 0.8350
vn -0.2739 0.0000 0.9618
vn -0.1817 -0.4991 0.8473
vn -0.2097 -0.0000 0.9778
vn -0.1936 -0.8621 0.4683
vn -0.1642 -0.8658 0.4726
vn -0.1388 -0.8621 0.4873
vn -0.1051 -0.8652 0.4903
vn -0.0036 -1.0000 0.0088
vn 0.0000 -1.0000 -0.0000
vn -0.0026 -1.0000 0.0090
vn -0.0003 -1.0000 0.0015
vn 0.1881 -0.8703 -0.4551
vn 0.1642 -0.8658 -0.4726
vn 0.1349 -0.8703 -0.4737
vn 0.1045 -0.8666 -0.4880
vn 0.3298 -0.5045 -0.7979
vn 0.2843 -0.4997 -0.8182
vn 0.2366 -0.5044 -0.8304
vn 0.1812 -0.5004 -0.8466
vn 0.3820 -0.0000 -0.9242
vn 0.3282 -0.0000 -0.9446
vn 0.2740 -0.0000 -0.9617
vn 0.2093 0.0000 -0.9778
vn 0.3298 0.5045 -0.7979
vn 0.2843 0.4997 -0.8182
vn 0.2366 0.5044 -0.8304
vn 0.1812 0.5004 -0.8466
vn 0.1881 0.8703 -0.4551
vn 0.1642 0.8658 -0.4726
vn 0.1349 0.8703 -0.4737
vn 0.1045 0.8666 -0.4880
vn -0.0036 1.0000 0.0088
vn 0.0000 1.0000 -0.0000
vn -0.0026 1.0000 0.0090
vn -0.0003 1.0000 0.0015
vn -0.1936 0.8621 0.4683
vn -0.1642 0.8658 0.4726
vn -0.1388 0.8621 0.4873
vn -0.1051 0.8652 0.4903
vn -0.3317 0.4963 0.8023
vn -0.2843 0.4997 0.8182
vn -0.2378 0.4963 0.8350
vn -0.1817 0.4991 0.8473
vn -0.4414 -0.0000 0.8973
vn -0.3825 -0.4992 0.7775
vn -0.4853 -0.0000 0.8744
vn -0.4210 -0.4972 0.7586
vn -0.5404 0.0000 0.8414
vn -0.4686 -0.4983 0.7295
vn -0.2213 -0.8653 0.4497
vn -0.2450 -0.8632 0.4415
vn -0.2718 -0.8643 0.4231
vn -0.0006 -1.0000 0.0012
vn -0.0033 -1.0000 0.0060
vn -0.0021 -1.0000 0.0032
vn 0.2205 -0.8664 -0.4479
vn 0.2400 -0.8691 -0.4326
vn 0.2688 -0.8676 -0.4183
vn 0.3825 -0.5003 -0.7768
vn 0.4193 -0.5031 -0.7557
vn 0.4677 -0.5016 -0.7278
vn 0.4418 -0.0000 -0.8971
vn 0.4851 0.0000 -0.8744
vn 0.5407 0.0000 -0.8412
vn 0.3825 0.5003 -0.7768
vn 0.4193 0.5031 -0.7557
vn 0.4677 0.5016 -0.7278
vn 0.2205 0.8664 -0.4479
vn 0.2400 0.8691 -0.4326
vn 0.2688 0.8676 -0.4183
vn -0.0006 1.0000 0.0012
vn -0.0033 1.0000 0.0060
vn -0.0021 1.0000 0.0032
vn -0.2213 0.8653 0.4497
vn -0.2450 0.8632 0.4415
vn -0.2718 0.8643 0.4231
vn -0.3825 0.4992 0.7775
vn -0.4210 0.4972 0.7586
vn -0.4686 0.4983 0.7295
vn -0.4978 0.8634 0.0824
vn -0.4991 0.8642 0.0635
vn -0.8602 0.4981 0.1094
vn -0.8559 0.4974 0.1416
vn -0.9920 0.0000 0.1262
vn -0.9866 0.0000 0.1632
vn -0.0061 1.0000 0.0010
vn -0.0039 1.0000 0.0005
vn 0.4886 0.8688 -0.0809
vn 0.4932 0.8676 -0.0626
vn 0.8528 0.5028 -0.1413
vn 0.8582 0.5016 -0.1090
vn 0.9866 0.0000 -0.1634
vn 0.9920 0.0000 -0.1259
vn 0.8528 -0.5028 -0.1413
vn 0.8582 -0.5016 -0.1090
vn 0.4886 -0.8688 -0.0809
vn 0.4932 -0.8676 -0.0626
vn -0.0061 -1.0000 0.0010
vn -0.0039 -1.0000 0.0005
vn -0.4978 -0.8634 0.0824
vn -0.4991 -0.8642 0.0635
vn -0.8559 -0.4974 0.1416
vn -0.8602 -0.4981 0.1094
vn 0.0770 -0.6076 0.7905
vn -0.2306 -0.5340 0.8134
vn -0.2272 -0.5358 0.8132
vn 0.0813 -0.6075 0.7902
vn 0.2339 -0.5233 -0.8194
vn 0.4520 -0.3009 -0.8398
vn 0.4514 -0.3019 -0.8397
vn 0.2323 -0.5243 -0.8192
vn -0.5470 -0.0000 0.8371
vn -0.4614 0.3116 0.8307
vn -0.4602 0.3135 0.8306
vn 0.3756 -0.5183 0.7683
vn 0.3787 -0.5164 0.7681
vn 0.5313 -0.0000 -0.8472
vn -0.2306 0.5340 0.8134
vn -0.2272 0.5358 0.8132
vn 0.5884 -0.2959 0.7525
vn 0.5894 -0.2941 0.7524
vn 0.4520 0.3009 -0.8398
vn 0.4514 0.3019 -0.8397
vn 0.6650 0.0000 0.7469
vn 0.2339 0.5233 -0.8194
vn 0.2323 0.5243 -0.8192
vn -0.6786 0.0000 -0.7345
vn -0.5959 -0.3067 -0.7422
vn -0.5965 -0.3058 -0.7421
vn 0.5884 0.2959 0.7525
vn 0.5894 0.2941 0.7524
vn -0.5030 0.8636 0.0341
vn -0.4967 0.8673 0.0337
vn -0.8634 0.5012 0.0587
vn -0.8654 0.4975 0.0589
vn -0.9977 0.0000 0.0679
vn -0.0055 1.0000 0.0004
vn 0.0031 1.0000 -0.0001
vn 0.4949 0.8683 -0.0331
vn 0.5014 0.8646 -0.0335
vn 0.8628 0.5023 -0.0574
vn 0.8650 0.4985 -0.0576
vn 0.9978 -0.0000 -0.0663
vn 0.8628 -0.5023 -0.0574
vn 0.8650 -0.4985 -0.0576
vn 0.4949 -0.8683 -0.0331
vn 0.5014 -0.8646 -0.0335
vn -0.0055 -1.0000 0.0004
vn 0.0031 -1.0000 -0.0001
vn -0.5030 -0.8636 0.0341
vn -0.4967 -0.8673 0.0337
vn -0.8654 -0.4975 0.0589
vn -0.8634 -0.5012 0.0587
vn -0.3711 0.5292 -0.7630
vn -0.5959 0.3067 -0.7422
vn -0.5965 0.3058 -0.7421
vn -0.3728 0.5282 -0.7629
vn 0.0770 0.6076 0.7905
vn 0.0813 0.6075 0.7902
vn -0.0669 -0.6077 -0.7913
vn -0.0691 -0.6077 -0.7911
vn -0.4614 -0.3116 0.8307
vn -0.4602 -0.3135 0.8306
vn 0.3756 0.5183 0.7683
vn 0.3787 0.5164 0.7681
vn -0.3711 -0.5292 -0.7630
vn -0.3728 -0.5282 -0.7629
vn -0.0669 0.6077 -0.7913
vn -0.0691 0.6077 -0.7911
vn -0.4094 0.8641 0.2928
vn -0.7053 0.4981 0.5044
vn -0.6919 0.4974 0.5233
vn -0.4023 0.8635 0.3042
vn -0.8134 0.0000 0.5817
vn -0.7976 0.0000 0.6032
vn -0.0036 1.0000 0.0025
vn -0.0045 1.0000 0.0034
vn 0.4041 0.8679 -0.2889
vn 0.3956 0.8684 -0.2990
vn 0.7036 0.5019 -0.5030
vn 0.6898 0.5023 -0.5214
vn 0.8135 0.0000 -0.5815
vn 0.7978 0.0000 -0.6029
vn 0.7036 -0.5019 -0.5030
vn 0.6898 -0.5023 -0.5214
vn 0.4041 -0.8679 -0.2889
vn 0.3956 -0.8684 -0.2990
vn -0.0036 -1.0000 0.0025
vn -0.0045 -1.0000 0.0034
vn -0.4094 -0.8641 0.2928
vn -0.4023 -0.8635 0.3042
vn -0.7053 -0.4981 0.5044
vn -0.6919 -0.4974 0.5233
vn -0.5042 -0.6076 -0.6137
vn -0.5005 -0.6074 -0.6169
vn -0.7351 -0.5365 -0.4145
vn -0.7380 -0.5344 -0.4120
vn 0.7446 -0.5237 0.4139
vn 0.7430 -0.5249 0.4152
vn 0.9129 -0.3025 0.2742
vn 0.9134 -0.3013 0.2737
vn -0.9789 -0.0000 -0.2043
vn -0.9127 0.3142 -0.2614
vn -0.9137 0.3120 -0.2605
vn -0.2777 -0.5178 -0.8091
vn -0.2750 -0.5156 -0.8115
vn 0.9749 0.0000 0.2227
vn -0.7351 0.5365 -0.4145
vn -0.7380 0.5344 -0.4120
vn -0.1166 -0.2954 -0.9482
vn -0.1158 -0.2933 -0.9490
vn 0.9129 0.3025 0.2742
vn 0.9134 0.3013 0.2737
vn -0.0587 -0.0000 -0.9983
vn 0.7430 0.5249 0.4152
vn 0.7446 0.5237 0.4139
vn 0.0402 -0.0000 0.9992
vn 0.1034 -0.3052 0.9467
vn 0.1039 -0.3064 0.9462
vn -0.1166 0.2954 -0.9482
vn -0.1158 0.2933 -0.9490
vn -0.3791 0.8633 0.3333
vn -0.6517 0.4972 0.5727
vn -0.6499 0.5014 0.5711
vn -0.3735 0.8675 0.3284
vn -0.7512 0.0000 0.6600
vn -0.0047 1.0000 0.0041
vn 0.0028 1.0000 -0.0026
vn 0.3717 0.8686 -0.3276
vn 0.3774 0.8642 -0.3326
vn 0.6484 0.5026 -0.5718
vn 0.6504 0.4981 -0.5735
vn 0.7500 0.0000 -0.6615
vn 0.6484 -0.5026 -0.5718
vn 0.6504 -0.4981 -0.5735
vn 0.3717 -0.8686 -0.3276
vn 0.3774 -0.8642 -0.3326
vn -0.0047 -1.0000 0.0041
vn 0.0028 -1.0000 -0.0026
vn -0.3791 -0.8633 0.3333
vn -0.3735 -0.8675 0.3284
vn -0.6517 -0.4972 0.5727
vn -0.6499 -0.5014 0.5711
vn 0.2772 0.5288 0.8022
vn 0.2756 0.5276 0.8036
vn 0.1034 0.3052 0.9467
vn 0.1039 0.3064 0.9462
vn -0.5005 0.6074 -0.6169
vn -0.5042 0.6076 -0.6137
vn 0.5120 -0.6077 0.6071
vn 0.5098 -0.6077 0.6089
vn -0.9127 -0.3142 -0.2614
vn -0.9137 -0.3120 -0.2605
vn -0.2750 0.5157 -0.8115
vn -0.2777 0.5178 -0.8091
vn 0.2772 -0.5288 0.8022
vn 0.2756 -0.5276 0.8036
vn 0.5120 0.6077 0.6071
vn 0.5098 0.6077 0.6089
vn -0.9242 -0.0000 0.3819
vn -0.8024 -0.4963 0.3315
vn -0.7776 -0.4992 0.3824
vn -0.8974 -0.0000 0.4413
vn -0.7587 -0.4972 0.4209
vn -0.8744 -0.0000 0.4851
vn -0.7296 -0.4983 0.4684
vn -0.8415 -0.0000 0.5403
vn -0.4683 -0.8621 0.1935
vn -0.4498 -0.8653 0.2212
vn -0.4415 -0.8632 0.2449
vn -0.4232 -0.8643 0.2718
vn -0.0087 -1.0000 0.0036
vn -0.0012 -1.0000 0.0006
vn -0.0059 -1.0000 0.0033
vn -0.0032 -1.0000 0.0021
vn 0.4552 -0.8703 -0.1881
vn 0.4480 -0.8665 -0.2204
vn 0.4326 -0.8690 -0.2400
vn 0.4183 -0.8676 -0.2687
vn 0.7980 -0.5045 -0.3297
vn 0.7768 -0.5003 -0.3824
vn 0.7558 -0.5031 -0.4192
vn 0.7278 -0.5016 -0.4676
vn 0.9242 0.0000 -0.3818
vn 0.8972 0.0000 -0.4416
vn 0.8745 0.0000 -0.4850
vn 0.8413 0.0000 -0.5405
vn 0.7980 0.5045 -0.3297
vn 0.7768 0.5003 -0.3824
vn 0.7558 0.5031 -0.4192
vn 0.7278 0.5016 -0.4676
vn 0.4552 0.8703 -0.1881
vn 0.4480 0.8665 -0.2204
vn 0.4326 0.8690 -0.2400
vn 0.4183 0.8676 -0.2687
vn -0.0087 1.0000 0.0036
vn -0.0012 1.0000 0.0006
vn -0.0059 1.0000 0.0033
vn -0.0032 1.0000 0.0021
vn -0.4683 0.8621 0.1935
vn -0.4498 0.8653 0.2212
vn -0.4415 0.8632 0.2449
vn -0.4232 0.8643 0.2718
vn -0.8024 0.4963 0.3315
vn -0.7776 0.4992 0.3824
vn -0.7587 0.4972 0.4209
vn -0.7296 0.4983 0.4684
vn -0.9446 -0.0000 0.3282
vn -0.8182 -0.4997 0.2843
vn -0.9618 -0.0000 0.2737
vn -0.8350 -0.4963 0.2377
vn -0.9778 0.0000 0.2096
vn -0.8473 -0.4991 0.1816
vn -0.4726 -0.8658 0.1642
vn -0.4873 -0.8621 0.1387
vn -0.4903 -0.8652 0.1050
vn -0.0090 -1.0000 0.0026
vn -0.0015 -1.0000 0.0003
vn 0.4726 -0.8658 -0.1642
vn 0.4737 -0.8703 -0.1349
vn 0.4880 -0.8666 -0.1044
vn 0.8182 -0.4997 -0.2843
vn 0.8304 -0.5044 -0.2364
vn 0.8466 -0.5004 -0.1811
vn 0.9446 0.0000 -0.3282
vn 0.9618 -0.0000 -0.2738
vn 0.9779 0.0000 -0.2091
vn 0.8182 0.4997 -0.2843
vn 0.8304 0.5044 -0.2364
vn 0.8466 0.5004 -0.1811
vn 0.4726 0.8658 -0.1642
vn 0.4737 0.8703 -0.1349
vn 0.4880 0.8666 -0.1044
vn -0.0090 1.0000 0.0026
vn -0.0015 1.0000 0.0003
vn -0.4726 0.8658 0.1642
vn -0.4873 0.8621 0.1387
vn -0.4903 0.8652 0.1050
vn -0.8182 0.4997 0.2843
vn -0.8350 0.4963 0.2377
vn -0.8473 0.4991 0.1816
vn -0.3295 0.8671 0.3736
vn -0.3588 0.8617 0.3587
vn -0.6141 0.4959 0.6140
vn -0.5727 0.5009 0.6489
vn -0.7072 -0.0000 0.7070
vn -0.6618 -0.0000 0.7496
vn 0.0019 1.0000 -0.0023
vn -0.0074 0.9999 0.0074
vn 0.3319 0.8644 -0.3776
vn 0.3477 0.8708 -0.3476
vn 0.5722 0.4982 -0.6514
vn 0.6104 0.5050 -0.6103
vn 0.6598 0.0000 -0.7514
vn 0.7072 0.0000 -0.7070
vn 0.5722 -0.4982 -0.6514
vn 0.6104 -0.5050 -0.6103
vn 0.3319 -0.8644 -0.3776
vn 0.3477 -0.8708 -0.3476
vn 0.0019 -1.0000 -0.0023
vn -0.0074 -0.9999 0.0074
vn -0.3295 -0.8671 0.3736
vn -0.3588 -0.8617 0.3587
vn -0.5727 -0.5009 0.6489
vn -0.6141 -0.4959 0.6140
vn -0.6607 0.0000 0.7507
vn -0.5726 -0.4988 0.6506
vn -0.5728 -0.4984 0.6508
vn -0.3317 -0.8648 0.3769
vn -0.3321 -0.8645 0.3773
vn -0.0018 -1.0000 0.0020
vn -0.0023 -1.0000 0.0026
vn 0.3291 -0.8672 -0.3738
vn 0.3287 -0.8675 -0.3734
vn 0.5718 -0.5011 -0.6495
vn 0.5717 -0.5014 -0.6494
vn 0.6608 0.0000 -0.7506
vn 0.5718 0.5011 -0.6495
vn 0.5717 0.5014 -0.6494
vn 0.3291 0.8672 -0.3738
vn 0.3287 0.8675 -0.3734
vn -0.0018 1.0000 0.0020
vn -0.0023 1.0000 0.0026
vn -0.3317 0.8648 0.3769
vn -0.3321 0.8645 0.3773
vn -0.5728 0.4984 0.6508
vn -0.5726 0.4988 0.6506
vn 0.2842 0.0000 0.9588
vn 0.3316 -0.2573 0.9076
vn 0.3319 -0.2580 0.9073
vn 0.4605 -0.4438 0.7687
vn 0.4613 -0.4445 0.7678
vn 0.6348 -0.5094 0.5809
vn 0.6359 -0.5094 0.5797
vn 0.8071 -0.4385 0.3954
vn 0.8079 -0.4378 0.3945
vn 0.9319 -0.2520 0.2610
vn 0.9321 -0.2513 0.2607
vn 0.9772 -0.0000 0.2122
vn 0.9319 0.2520 0.2610
vn 0.9321 0.2513 0.2607
vn 0.8071 0.4385 0.3954
vn 0.8079 0.4378 0.3945
vn 0.6348 0.5094 0.5809
vn 0.6359 0.5094 0.5797
vn 0.4605 0.4438 0.7687
vn 0.4613 0.4445 0.7678
vn 0.3319 0.2580 0.9073
vn 0.3317 0.2573 0.9076
vn -0.0330 0.8673 0.4966
vn -0.0570 0.5011 0.8635
vn -0.0573 0.4949 0.8671
vn -0.0337 0.8610 0.5075
vn -0.0658 0.0000 0.9978
vn 0.0004 1.0000 -0.0037
vn -0.0006 0.9999 0.0111
vn 0.0343 0.8641 -0.5021
vn 0.0335 0.8706 -0.4909
vn 0.0594 0.4979 -0.8652
vn 0.0591 0.5044 -0.8614
vn 0.0687 0.0000 -0.9976
vn 0.0594 -0.4979 -0.8652
vn 0.0591 -0.5044 -0.8614
vn 0.0343 -0.8641 -0.5021
vn 0.0335 -0.8706 -0.4909
vn 0.0004 -1.0000 -0.0037
vn -0.0006 -0.9999 0.0111
vn -0.0330 -0.8673 0.4966
vn -0.0337 -0.8610 0.5075
vn -0.0570 -0.5011 0.8635
vn -0.0573 -0.4949 0.8671
vn -0.0671 -0.0000 0.9977
vn -0.0582 -0.4987 0.8648
vn -0.0582 -0.4985 0.8649
vn -0.0337 -0.8648 0.5010
vn -0.0337 -0.8645 0.5014
vn -0.0002 -1.0000 0.0028
vn -0.0002 -1.0000 0.0033
vn 0.0335 -0.8672 -0.4969
vn 0.0334 -0.8674 -0.4964
vn 0.0582 -0.5011 -0.8634
vn 0.0581 -0.5014 -0.8633
vn 0.0672 0.0000 -0.9977
vn 0.0582 0.5011 -0.8634
vn 0.0581 0.5014 -0.8633
vn 0.0335 0.8672 -0.4969
vn 0.0334 0.8674 -0.4964
vn -0.0002 1.0000 0.0028
vn -0.0002 1.0000 0.0033
vn -0.0337 0.8648 0.5010
vn -0.0337 0.8645 0.5014
vn -0.0582 0.4987 0.8648
vn -0.0582 0.4985 0.8649
vn -0.8793 0.0000 0.4762
vn -0.8766 -0.2577 0.4063
vn -0.8767 -0.2569 0.4068
vn -0.8694 -0.4442 0.2166
vn -0.8694 -0.4434 0.2180
vn -0.8596 -0.5094 -0.0397
vn -0.8597 -0.5094 -0.0378
vn -0.8500 -0.4381 -0.2925
vn -0.8501 -0.4390 -0.2910
vn -0.8431 -0.2516 -0.4752
vn -0.8431 -0.2525 -0.4748
vn -0.8406 0.0000 -0.5417
vn -0.8431 0.2516 -0.4752
vn -0.8431 0.2525 -0.4748
vn -0.8500 0.4381 -0.2925
vn -0.8501 0.4390 -0.2910
vn -0.8596 0.5094 -0.0397
vn -0.8597 0.5094 -0.0378
vn -0.8694 0.4442 0.2166
vn -0.8694 0.4434 0.2180
vn -0.8766 0.2577 0.4063
vn -0.8767 0.2569 0.4068
vn -0.4967 0.8673 0.0328
vn -0.5075 0.8610 0.0335
vn -0.8671 0.4949 0.0569
vn -0.8635 0.5011 0.0567
vn -0.9979 0.0000 0.0653
vn 0.0036 1.0000 -0.0003
vn -0.0110 0.9999 0.0006
vn 0.5021 0.8641 -0.0340
vn 0.4909 0.8706 -0.0333
vn 0.8652 0.4979 -0.0590
vn 0.8615 0.5044 -0.0587
vn 0.9977 0.0000 -0.0682
vn 0.8652 -0.4979 -0.0590
vn 0.8615 -0.5044 -0.0587
vn 0.5021 -0.8641 -0.0340
vn 0.4909 -0.8706 -0.0333
vn 0.0036 -1.0000 -0.0003
vn -0.0110 -0.9999 0.0006
vn -0.4967 -0.8673 0.0328
vn -0.5075 -0.8610 0.0335
vn -0.8635 -0.5011 0.0567
vn -0.8671 -0.4949 0.0569
vn -0.9977 0.0000 0.0671
vn -0.8649 -0.4985 0.0582
vn -0.8648 -0.4987 0.0582
vn -0.5014 -0.8645 0.0337
vn -0.5010 -0.8648 0.0337
vn -0.0034 -1.0000 0.0002
vn -0.0027 -1.0000 0.0002
vn 0.4964 -0.8674 -0.0334
vn 0.4969 -0.8672 -0.0335
vn 0.8633 -0.5014 -0.0582
vn 0.8634 -0.5011 -0.0582
vn 0.9977 0.0000 -0.0672
vn 0.8633 0.5014 -0.0582
vn 0.8634 0.5011 -0.0582
vn 0.4964 0.8674 -0.0334
vn 0.4969 0.8672 -0.0335
vn -0.0034 1.0000 0.0002
vn -0.0027 1.0000 0.0002
vn -0.5014 0.8645 0.0337
vn -0.5010 0.8648 0.0337
vn -0.8648 0.4987 0.0582
vn -0.8649 0.4985 0.0582
vn -0.4763 -0.0000 0.8793
vn -0.4069 -0.2569 0.8766
vn -0.4064 -0.2577 0.8766
vn -0.2181 -0.4434 0.8694
vn -0.2167 -0.4442 0.8694
vn 0.0377 -0.5094 0.8597
vn 0.0396 -0.5094 0.8596
vn 0.2909 -0.4390 0.8501
vn 0.2924 -0.4381 0.8500
vn 0.4747 -0.2525 0.8432
vn 0.4751 -0.2516 0.8432
vn 0.5416 0.0000 0.8407
vn 0.4747 0.2525 0.8432
vn 0.4751 0.2516 0.8432
vn 0.2909 0.4390 0.8501
vn 0.2924 0.4381 0.8500
vn 0.0377 0.5094 0.8597
vn 0.0396 0.5094 0.8596
vn -0.2181 0.4433 0.8694
vn -0.2167 0.4442 0.8694
vn -0.4064 0.2577 0.8766
vn -0.4069 0.2569 0.8766
vn -0.3737 0.8671 0.3294
vn -0.6490 0.5009 0.5726
vn -0.7498 0.0000 0.6617
vn 0.0023 1.0000 -0.0019
vn 0.3776 0.8644 -0.3319
vn 0.6515 0.4982 -0.5721
vn 0.7515 -0.0000 -0.6597
vn 0.6515 -0.4982 -0.5721
vn 0.3776 -0.8644 -0.3319
vn 0.0023 -1.0000 -0.0019
vn -0.3737 -0.8671 0.3294
vn -0.6490 -0.5009 0.5726
vn -0.7507 0.0000 0.6607
vn -0.6508 -0.4984 0.5728
vn -0.6506 -0.4988 0.5726
vn -0.3773 -0.8645 0.3321
vn -0.3769 -0.8648 0.3317
vn -0.0026 -1.0000 0.0023
vn -0.0020 -1.0000 0.0018
vn 0.3734 -0.8675 -0.3287
vn 0.3738 -0.8671 -0.3291
vn 0.6494 -0.5014 -0.5717
vn 0.6496 -0.5011 -0.5718
vn 0.7506 -0.0000 -0.6608
vn 0.6494 0.5014 -0.5717
vn 0.6496 0.5011 -0.5718
vn 0.3734 0.8675 -0.3287
vn 0.3738 0.8671 -0.3291
vn -0.0026 1.0000 0.0023
vn -0.0020 1.0000 0.0018
vn -0.3773 0.8645 0.3321
vn -0.3769 0.8648 0.3317
vn -0.6508 0.4984 0.5728
vn -0.6506 0.4988 0.5726
vn -0.9587 0.0000 -0.2843
vn -0.9073 -0.2581 -0.3320
vn -0.9076 -0.2574 -0.3317
vn -0.7678 -0.4445 -0.4614
vn -0.7686 -0.4439 -0.4606
vn -0.5796 -0.5094 -0.6360
vn -0.5808 -0.5095 -0.6349
vn -0.3944 -0.4378 -0.8080
vn -0.3952 -0.4385 -0.8072
vn -0.2606 -0.2513 -0.9322
vn -0.2609 -0.2520 -0.9319
vn -0.2121 0.0000 -0.9773
vn -0.2606 0.2513 -0.9322
vn -0.2609 0.2520 -0.9319
vn -0.3944 0.4378 -0.8080
vn -0.3952 0.4385 -0.8072
vn -0.5796 0.5094 -0.6360
vn -0.5808 0.5095 -0.6349
vn -0.7678 0.4445 -0.4614
vn -0.7686 0.4439 -0.4606
vn -0.9073 0.2580 -0.3320
vn -0.9076 0.2574 -0.3317
usemtl MI_Trim_01
s 1
f 265/1/1 58/2/2 59/3/3 269/4/4
f 269/4/4 59/3/3 60/5/5 276/6/6
f 261/7/7 57/8/8 58/2/2 265/1/1
f 257/9/9 56/10/10 57/8/8 261/7/7
f 253/11/11 55/12/12 56/10/10 257/9/9
f 249/13/13 54/14/14 55/12/12 253/11/11
f 245/15/15 53/16/16 54/14/14 249/13/13
f 241/17/17 52/18/18 53/16/16 245/15/15
f 237/19/19 51/20/20 52/18/18 241/17/17
f 233/21/21 50/22/22 51/20/20 237/19/19
f 229/23/23 49/24/24 50/22/22 233/21/21
f 276/25/6 60/26/5 49/24/24 229/23/23
f 51/27/25 50/28/26 76/29/27 78/30/28
f 65/31/29 66/32/30 81/33/31 79/34/32
f 60/35/33 59/36/34 94/37/35 95/38/33
f 52/39/36 51/27/25 78/30/28 80/40/37
f 66/32/30 67/41/38 83/42/38 81/33/31
f 59/36/34 58/43/39 92/44/40 94/37/35
f 53/45/41 52/39/36 80/40/37 82/46/42
f 67/41/38 68/47/43 85/48/44 83/42/38
f 54/49/45 53/45/41 82/46/42 84/50/45
f 68/47/43 69/51/46 87/52/47 85/48/44
f 61/53/48 62/54/49 73/55/50 96/56/48
f 55/57/51 54/49/45 84/50/45 86/58/52
f 92/44/53 91/59/54 93/60/55 94/37/56
f 94/37/56 93/60/55 96/61/57 95/38/57
f 90/62/58 89/63/59 91/59/54 92/44/53
f 88/64/60 87/52/61 89/63/59 90/62/58
f 86/58/62 85/48/63 87/52/61 88/64/60
f 84/50/64 83/42/64 85/48/63 86/58/62
f 82/46/65 81/33/66 83/42/64 84/50/64
f 80/40/67 79/34/68 81/33/66 82/46/65
f 78/30/69 77/65/70 79/34/68 80/40/67
f 76/29/71 75/66/72 77/65/70 78/30/69
f 74/67/73 73/55/74 75/66/72 76/29/71
f 95/68/57 96/56/57 73/55/74 74/67/73
f 71/69/75 72/70/76 93/60/77 91/59/78
f 58/43/39 57/71/79 90/62/80 92/44/40
f 64/72/81 65/31/29 79/34/32 77/65/82
f 50/28/26 49/73/83 74/67/84 76/29/27
f 72/70/76 61/74/48 96/61/48 93/60/77
f 57/71/79 56/75/85 88/64/86 90/62/80
f 63/76/87 64/72/81 77/65/82 75/66/88
f 49/73/83 60/77/33 95/68/33 74/67/84
f 70/78/89 71/69/75 91/59/78 89/63/90
f 56/75/85 55/57/51 86/58/52 88/64/86
f 62/54/49 63/76/87 75/66/88 73/55/50
f 69/51/46 70/78/89 89/63/90 87/52/47
f 217/79/91 221/80/92 143/81/93 142/82/94
f 221/80/92 228/83/95 144/84/96 143/81/93
f 213/85/97 217/79/91 142/82/94 141/86/98
f 209/87/99 213/85/97 141/86/98 140/88/100
f 205/89/101 209/87/99 140/88/100 139/90/102
f 201/91/103 205/89/101 139/90/102 138/92/104
f 197/93/105 201/91/103 138/92/104 137/94/106
f 193/95/107 197/93/105 137/94/106 136/96/108
f 189/97/109 193/95/107 136/96/108 135/98/110
f 185/99/111 189/97/109 135/98/110 134/100/112
f 181/101/113 185/99/111 134/100/112 133/102/114
f 228/103/95 181/101/113 133/102/114 144/104/96
f 135/105/115 162/106/116 160/107/117 134/108/118
f 149/109/119 163/110/120 165/111/121 150/112/122
f 144/113/123 179/114/123 178/115/124 143/116/125
f 136/117/126 164/118/127 162/106/116 135/105/115
f 150/112/122 165/111/121 167/119/128 151/120/128
f 143/116/125 178/115/124 176/121/129 142/122/130
f 137/123/131 166/124/132 164/118/127 136/117/126
f 151/120/128 167/119/128 169/125/133 152/126/134
f 138/127/135 168/128/135 166/124/132 137/123/131
f 152/126/134 169/125/133 171/129/136 153/130/137
f 145/131/138 180/132/138 157/133/139 146/134/140
f 139/135/141 170/136/142 168/128/135 138/127/135
f 176/121/143 178/115/144 177/137/145 175/138/146
f 178/115/144 179/114/147 180/139/147 177/137/145
f 174/140/148 176/121/143 175/138/146 173/141/149
f 172/142/150 174/140/148 173/141/149 171/129/151
f 170/136/152 172/142/150 171/129/151 169/125/153
f 168/128/154 170/136/152 169/125/153 167/119/154
f 166/124/155 168/128/154 167/119/154 165/111/156
f 164/118/157 166/124/155 165/111/156 163/110/158
f 162/106/159 164/118/157 163/110/158 161/143/160
f 160/107/161 162/106/159 161/143/160 159/144/162
f 158/145/163 160/107/161 159/144/162 157/133/164
f 179/146/147 158/145/163 157/133/164 180/132/147
f 155/147/165 175/138/166 177/137/167 156/148/168
f 142/122/130 176/121/129 174/140/169 141/149/170
f 148/150/171 161/143/172 163/110/120 149/109/119
f 134/108/118 160/107/117 158/145/173 133/151/174
f 156/148/168 177/137/167 180/139/138 145/152/138
f 141/149/170 174/140/169 172/142/175 140/153/176
f 147/154/177 159/144/178 161/143/172 148/150/171
f 133/151/174 158/145/173 179/146/123 144/155/123
f 154/156/179 173/141/180 175/138/166 155/147/165
f 140/153/176 172/142/175 170/136/142 139/135/141
f 146/134/140 157/133/139 159/144/178 147/154/177
f 153/130/137 171/129/136 173/141/180 154/156/179
f 1/157/181 2/158/182 184/159/183 225/160/184
f 225/160/184 184/159/183 183/161/185 226/162/186
f 226/162/186 183/161/185 182/163/187 227/164/188
f 227/164/188 182/163/187 181/101/113 228/103/95
f 2/158/182 3/165/189 188/166/190 184/159/183
f 184/159/183 188/166/190 187/167/191 183/161/185
f 183/161/185 187/167/191 186/168/192 182/163/187
f 182/163/187 186/168/192 185/99/111 181/101/113
f 3/165/189 4/169/193 192/170/194 188/166/190
f 188/166/190 192/170/194 191/171/195 187/167/191
f 187/167/191 191/171/195 190/172/196 186/168/192
f 186/168/192 190/172/196 189/97/109 185/99/111
f 4/169/193 5/173/197 196/174/198 192/170/194
f 192/170/194 196/174/198 195/175/199 191/171/195
f 191/171/195 195/175/199 194/176/200 190/172/196
f 190/172/196 194/176/200 193/95/107 189/97/109
f 5/173/197 6/177/201 200/178/202 196/174/198
f 196/174/198 200/178/202 199/179/203 195/175/199
f 195/175/199 199/179/203 198/180/204 194/176/200
f 194/176/200 198/180/204 197/93/105 193/95/107
f 6/177/201 7/181/205 204/182/206 200/178/202
f 200/178/202 204/182/206 203/183/207 199/179/203
f 199/179/203 203/183/207 202/184/208 198/180/204
f 198/180/204 202/184/208 201/91/103 197/93/105
f 7/181/205 8/185/209 208/186/210 204/182/206
f 204/182/206 208/186/210 207/187/211 203/183/207
f 203/183/207 207/187/211 206/188/212 202/184/208
f 202/184/208 206/188/212 205/89/101 201/91/103
f 8/185/209 9/189/213 212/190/214 208/186/210
f 208/186/210 212/190/214 211/191/215 207/187/211
f 207/187/211 211/191/215 210/192/216 206/188/212
f 206/188/212 210/192/216 209/87/99 205/89/101
f 9/189/213 10/193/217 216/194/218 212/190/214
f 212/190/214 216/194/218 215/195/219 211/191/215
f 211/191/215 215/195/219 214/196/220 210/192/216
f 210/192/216 214/196/220 213/85/97 209/87/99
f 10/193/217 11/197/221 220/198/222 216/194/218
f 216/194/218 220/198/222 219/199/223 215/195/219
f 215/195/219 219/199/223 218/200/224 214/196/220
f 214/196/220 218/200/224 217/79/91 213/85/97
f 12/201/225 1/202/181 225/203/184 224/204/226
f 224/204/226 225/203/184 226/205/186 223/206/227
f 223/206/227 226/205/186 227/207/188 222/208/228
f 222/208/228 227/207/188 228/83/95 221/80/92
f 11/197/221 12/201/225 224/204/226 220/198/222
f 220/198/222 224/204/226 223/206/227 219/199/223
f 219/199/223 223/206/227 222/208/228 218/200/224
f 218/200/224 222/208/228 221/80/92 217/79/91
f 1/157/181 273/209/229 232/210/230 2/158/182
f 273/209/229 274/211/231 231/212/232 232/210/230
f 274/211/231 275/213/233 230/214/234 231/212/232
f 275/213/233 276/25/6 229/23/23 230/214/234
f 2/158/182 232/210/230 236/215/235 3/165/189
f 232/210/230 231/212/232 235/216/236 236/215/235
f 231/212/232 230/214/234 234/217/237 235/216/236
f 230/214/234 229/23/23 233/21/21 234/217/237
f 3/165/189 236/215/235 240/218/238 4/169/193
f 236/215/235 235/216/236 239/219/239 240/218/238
f 235/216/236 234/217/237 238/220/240 239/219/239
f 234/217/237 233/21/21 237/19/19 238/220/240
f 4/169/193 240/218/238 244/221/241 5/173/197
f 240/218/238 239/219/239 243/222/242 244/221/241
f 239/219/239 238/220/240 242/223/243 243/222/242
f 238/220/240 237/19/19 241/17/17 242/223/243
f 5/173/197 244/221/241 248/224/244 6/177/201
f 244/221/241 243/222/242 247/225/245 248/224/244
f 243/222/242 242/223/243 246/226/246 247/225/245
f 242/223/243 241/17/17 245/15/15 246/226/246
f 6/177/201 248/224/244 252/227/247 7/181/205
f 248/224/244 247/225/245 251/228/248 252/227/247
f 247/225/245 246/226/246 250/229/249 251/228/248
f 246/226/246 245/15/15 249/13/13 250/229/249
f 7/181/205 252/227/247 256/230/250 8/185/209
f 252/227/247 251/228/248 255/231/251 256/230/250
f 251/228/248 250/229/249 254/232/252 255/231/251
f 250/229/249 249/13/13 253/11/11 254/232/252
f 8/185/209 256/230/250 260/233/253 9/189/213
f 256/230/250 255/231/251 259/234/254 260/233/253
f 255/231/251 254/232/252 258/235/255 259/234/254
f 254/232/252 253/11/11 257/9/9 258/235/255
f 9/189/213 260/233/253 264/236/256 10/193/217
f 260/233/253 259/234/254 263/237/257 264/236/256
f 259/234/254 258/235/255 262/238/258 263/237/257
f 258/235/255 257/9/9 261/7/7 262/238/258
f 10/193/217 264/236/256 268/239/259 11/197/221
f 264/236/256 263/237/257 267/240/260 268/239/259
f 263/237/257 262/238/258 266/241/261 267/240/260
f 262/238/258 261/7/7 265/1/1 266/241/261
f 12/201/225 272/242/262 273/243/229 1/202/181
f 272/242/262 271/244/263 274/245/231 273/243/229
f 271/244/263 270/246/264 275/247/233 274/245/231
f 270/246/264 269/4/4 276/6/6 275/247/233
f 11/197/221 268/239/259 272/242/262 12/201/225
f 268/239/259 267/240/260 271/244/263 272/242/262
f 267/240/260 266/241/261 270/246/264 271/244/263
f 266/241/261 265/1/1 269/4/4 270/246/264
f 529/248/265 334/249/266 335/250/267 533/251/268
f 533/251/268 335/250/267 336/252/269 540/253/270
f 525/254/271 333/255/272 334/249/266 529/248/265
f 521/256/273 332/257/274 333/255/272 525/254/271
f 517/258/275 331/259/276 332/257/274 521/256/273
f 513/260/277 330/261/278 331/259/276 517/258/275
f 509/262/279 329/263/280 330/261/278 513/260/277
f 505/264/281 328/265/282 329/263/280 509/262/279
f 501/266/283 327/267/284 328/265/282 505/264/281
f 497/268/285 326/269/286 327/267/284 501/266/283
f 493/270/287 325/271/288 326/269/286 497/268/285
f 540/272/270 336/273/269 325/271/288 493/270/287
f 327/274/289 326/275/290 352/276/291 354/277/292
f 341/278/293 342/279/294 357/280/295 355/281/296
f 336/282/297 335/283/298 370/284/299 371/285/297
f 328/286/300 327/274/289 354/277/292 356/287/301
f 342/279/294 343/288/302 359/289/302 357/280/295
f 335/283/298 334/290/303 368/291/304 370/284/299
f 329/292/305 328/286/300 356/287/301 358/293/306
f 343/288/302 344/294/307 361/295/308 359/289/302
f 330/296/309 329/292/305 358/293/306 360/297/309
f 344/294/307 345/298/310 363/299/311 361/295/308
f 337/300/312 338/301/313 349/302/314 372/303/312
f 331/304/315 330/296/309 360/297/309 362/305/316
f 368/291/317 367/306/318 369/307/319 370/284/320
f 370/284/320 369/307/319 372/308/321 371/285/321
f 366/309/322 365/310/323 367/306/318 368/291/317
f 364/311/324 363/299/325 365/310/323 366/309/322
f 362/305/326 361/295/327 363/299/325 364/311/324
f 360/297/328 359/289/328 361/295/327 362/305/326
f 358/293/329 357/280/330 359/289/328 360/297/328
f 356/287/331 355/281/332 357/280/330 358/293/329
f 354/277/333 353/312/334 355/281/332 356/287/331
f 352/276/335 351/313/336 353/312/334 354/277/333
f 350/314/337 349/302/338 351/313/336 352/276/335
f 371/315/321 372/303/321 349/302/338 350/314/337
f 347/316/339 348/317/340 369/307/341 367/306/342
f 334/290/303 333/318/343 366/309/344 368/291/304
f 340/319/345 341/278/293 355/281/296 353/312/346
f 326/275/290 325/320/347 350/314/348 352/276/291
f 348/317/340 337/321/312 372/308/312 369/307/341
f 333/318/343 332/322/349 364/311/350 366/309/344
f 339/323/351 340/319/345 353/312/346 351/313/352
f 325/320/347 336/324/297 371/315/297 350/314/348
f 346/325/353 347/316/339 367/306/342 365/310/354
f 332/322/349 331/304/315 362/305/316 364/311/350
f 338/301/313 339/323/351 351/313/352 349/302/314
f 345/298/310 346/325/353 365/310/354 363/299/311
f 481/326/355 485/327/356 407/328/357 406/329/358
f 485/327/356 492/330/359 408/331/360 407/328/357
f 477/332/361 481/326/355 406/329/358 405/333/362
f 473/334/363 477/332/361 405/333/362 404/335/364
f 469/336/365 473/334/363 404/335/364 403/337/366
f 465/338/367 469/336/365 403/337/366 402/339/368
f 461/340/369 465/338/367 402/339/368 401/341/370
f 457/342/371 461/340/369 401/341/370 400/343/372
f 453/344/373 457/342/371 400/343/372 399/345/374
f 449/346/375 453/344/373 399/345/374 398/347/376
f 445/348/377 449/346/375 398/347/376 397/349/378
f 492/350/359 445/348/377 397/349/378 408/351/360
f 399/352/379 426/353/380 424/354/381 398/355/382
f 413/356/383 427/357/384 429/358/385 414/359/386
f 408/360/387 443/361/387 442/362/388 407/363/389
f 400/364/390 428/365/391 426/353/380 399/352/379
f 414/359/386 429/358/385 431/366/392 415/367/392
f 407/363/389 442/362/388 440/368/393 406/369/394
f 401/370/395 430/371/396 428/365/391 400/364/390
f 415/367/392 431/366/392 433/372/397 416/373/398
f 402/374/399 432/375/399 430/371/396 401/370/395
f 416/373/398 433/372/397 435/376/400 417/377/401
f 409/378/402 444/379/402 421/380/403 410/381/404
f 403/382/405 434/383/406 432/375/399 402/374/399
f 440/368/407 442/362/408 441/384/409 439/385/410
f 442/362/408 443/361/411 444/386/411 441/384/409
f 438/387/412 440/368/407 439/385/410 437/388/413
f 436/389/414 438/387/412 437/388/413 435/376/415
f 434/383/416 436/389/414 435/376/415 433/372/417
f 432/375/418 434/383/416 433/372/417 431/366/418
f 430/371/419 432/375/418 431/366/418 429/358/420
f 428/365/421 430/371/419 429/358/420 427/357/422
f 426/353/423 428/365/421 427/357/422 425/390/424
f 424/354/425 426/353/423 425/390/424 423/391/426
f 422/392/427 424/354/425 423/391/426 421/380/428
f 443/393/411 422/392/427 421/380/428 444/379/411
f 419/394/429 439/385/430 441/384/431 420/395/432
f 406/369/394 440/368/393 438/387/433 405/396/434
f 412/397/435 425/390/436 427/357/384 413/356/383
f 398/355/382 424/354/381 422/392/437 397/398/438
f 420/395/432 441/384/431 444/386/402 409/399/402
f 405/396/434 438/387/433 436/389/439 404/400/440
f 411/401/441 423/391/442 425/390/436 412/397/435
f 397/398/438 422/392/437 443/393/387 408/402/387
f 418/403/443 437/388/444 439/385/430 419/394/429
f 404/400/440 436/389/439 434/383/406 403/382/405
f 410/381/404 421/380/403 423/391/442 411/401/441
f 417/377/401 435/376/400 437/388/444 418/403/443
f 277/404/445 278/405/446 448/406/447 489/407/448
f 489/407/448 448/406/447 447/408/449 490/409/450
f 490/409/450 447/408/449 446/410/451 491/411/452
f 491/411/452 446/410/451 445/348/377 492/350/359
f 278/405/446 279/412/453 452/413/454 448/406/447
f 448/406/447 452/413/454 451/414/455 447/408/449
f 447/408/449 451/414/455 450/415/456 446/410/451
f 446/410/451 450/415/456 449/346/375 445/348/377
f 279/412/453 280/416/457 456/417/458 452/413/454
f 452/413/454 456/417/458 455/418/459 451/414/455
f 451/414/455 455/418/459 454/419/460 450/415/456
f 450/415/456 454/419/460 453/344/373 449/346/375
f 280/416/457 281/420/461 460/421/462 456/417/458
f 456/417/458 460/421/462 459/422/463 455/418/459
f 455/418/459 459/422/463 458/423/464 454/419/460
f 454/419/460 458/423/464 457/342/371 453/344/373
f 281/420/461 282/424/465 464/425/466 460/421/462
f 460/421/462 464/425/466 463/426/467 459/422/463
f 459/422/463 463/426/467 462/427/468 458/423/464
f 458/423/464 462/427/468 461/340/369 457/342/371
f 282/424/465 283/428/469 468/429/470 464/425/466
f 464/425/466 468/429/470 467/430/471 463/426/467
f 463/426/467 467/430/471 466/431/472 462/427/468
f 462/427/468 466/431/472 465/338/367 461/340/369
f 283/428/469 284/432/473 472/433/474 468/429/470
f 468/429/470 472/433/474 471/434/475 467/430/471
f 467/430/471 471/434/475 470/435/476 466/431/472
f 466/431/472 470/435/476 469/336/365 465/338/367
f 284/432/473 285/436/477 476/437/478 472/433/474
f 472/433/474 476/437/478 475/438/479 471/434/475
f 471/434/475 475/438/479 474/439/480 470/435/476
f 470/435/476 474/439/480 473/334/363 469/336/365
f 285/436/477 286/440/481 480/441/482 476/437/478
f 476/437/478 480/441/482 479/442/483 475/438/479
f 475/438/479 479/442/483 478/443/484 474/439/480
f 474/439/480 478/443/484 477/332/361 473/334/363
f 286/440/481 287/444/485 484/445/486 480/441/482
f 480/441/482 484/445/486 483/446/487 479/442/483
f 479/442/483 483/446/487 482/447/488 478/443/484
f 478/443/484 482/447/488 481/326/355 477/332/361
f 288/448/489 277/449/445 489/450/448 488/451/490
f 488/451/490 489/450/448 490/452/450 487/453/491
f 487/453/491 490/452/450 491/454/452 486/455/492
f 486/455/492 491/454/452 492/330/359 485/327/356
f 287/444/485 288/448/489 488/451/490 484/445/486
f 484/445/486 488/451/490 487/453/491 483/446/487
f 483/446/487 487/453/491 486/455/492 482/447/488
f 482/447/488 486/455/492 485/327/356 481/326/355
f 277/404/445 537/456/493 496/457/494 278/405/446
f 537/456/493 538/458/495 495/459/496 496/457/494
f 538/458/495 539/460/497 494/461/498 495/459/496
f 539/460/497 540/272/270 493/270/287 494/461/498
f 278/405/446 496/457/494 500/462/499 279/412/453
f 496/457/494 495/459/496 499/463/500 500/462/499
f 495/459/496 494/461/498 498/464/501 499/463/500
f 494/461/498 493/270/287 497/268/285 498/464/501
f 279/412/453 500/462/499 504/465/194 280/416/457
f 500/462/499 499/463/500 503/466/502 504/465/194
f 499/463/500 498/464/501 502/467/503 503/466/502
f 498/464/501 497/268/285 501/266/283 502/467/503
f 280/416/457 504/465/194 508/468/504 281/420/461
f 504/465/194 503/466/502 507/469/505 508/468/504
f 503/466/502 502/467/503 506/470/506 507/469/505
f 502/467/503 501/266/283 505/264/281 506/470/506
f 281/420/461 508/468/504 512/471/507 282/424/465
f 508/468/504 507/469/505 511/472/508 512/471/507
f 507/469/505 506/470/506 510/473/509 511/472/508
f 506/470/506 505/264/281 509/262/279 510/473/509
f 282/424/465 512/471/507 516/474/510 283/428/469
f 512/471/507 511/472/508 515/475/511 516/474/510
f 511/472/508 510/473/509 514/476/512 515/475/511
f 510/473/509 509/262/279 513/260/277 514/476/512
f 283/428/469 516/474/510 520/477/513 284/432/473
f 516/474/510 515/475/511 519/478/514 520/477/513
f 515/475/511 514/476/512 518/479/515 519/478/514
f 514/476/512 513/260/277 517/258/275 518/479/515
f 284/432/473 520/477/513 524/480/516 285/436/477
f 520/477/513 519/478/514 523/481/517 524/480/516
f 519/478/514 518/479/515 522/482/518 523/481/517
f 518/479/515 517/258/275 521/256/273 522/482/518
f 285/436/477 524/480/516 528/483/218 286/440/481
f 524/480/516 523/481/517 527/484/519 528/483/218
f 523/481/517 522/482/518 526/485/520 527/484/519
f 522/482/518 521/256/273 525/254/271 526/485/520
f 286/440/481 528/483/218 532/486/521 287/444/485
f 528/483/218 527/484/519 531/487/522 532/486/521
f 527/484/519 526/485/520 530/488/523 531/487/522
f 526/485/520 525/254/271 529/248/265 530/488/523
f 288/448/489 536/489/524 537/490/493 277/449/445
f 536/489/524 535/491/525 538/492/495 537/490/493
f 535/491/525 534/493/526 539/494/497 538/492/495
f 534/493/526 533/251/268 540/253/270 539/494/497
f 287/444/485 532/486/521 536/489/524 288/448/489
f 532/486/521 531/487/522 535/491/525 536/489/524
f 531/487/522 530/488/523 534/493/526 535/491/525
f 530/488/523 529/248/265 533/251/268 534/493/526
usemtl MI_Trim_02
f 47/495/527 23/496/528 24/497/529 48/498/530
f 48/498/530 24/497/529 13/499/531 37/500/532
f 46/501/533 22/502/534 23/496/528 47/495/527
f 45/503/535 21/504/536 22/502/534 46/501/533
f 44/505/537 20/506/538 21/504/536 45/503/535
f 43/507/539 19/508/540 20/506/538 44/505/537
f 42/509/541 18/510/542 19/508/540 43/507/539
f 41/511/543 17/512/544 18/510/542 42/509/541
f 40/513/545 16/514/546 17/512/544 41/511/543
f 39/515/547 15/516/548 16/514/546 40/513/545
f 38/517/549 14/518/550 15/516/548 39/515/547
f 37/519/532 13/520/531 14/518/550 38/517/549
f 61/521/551 36/522/551 25/523/552 62/524/553
f 62/524/553 25/523/552 26/525/554 63/526/555
f 63/526/555 26/525/554 27/527/556 64/528/557
f 64/528/557 27/527/556 28/529/558 65/530/559
f 65/530/559 28/529/558 29/531/560 66/532/561
f 66/532/561 29/531/560 30/533/562 67/534/562
f 67/534/562 30/533/562 31/535/563 68/536/564
f 68/536/564 31/535/563 32/537/565 69/538/566
f 69/538/566 32/537/565 33/539/567 70/540/568
f 70/540/568 33/539/567 34/541/569 71/542/570
f 72/543/571 35/544/572 36/545/551 61/546/551
f 71/542/570 34/541/569 35/544/572 72/543/571
f 36/547/573 37/519/573 38/517/574 25/548/575
f 25/548/575 38/517/574 39/515/576 26/549/577
f 26/549/577 39/515/576 40/513/578 27/550/579
f 27/550/579 40/513/578 41/511/580 28/551/581
f 28/551/581 41/511/580 42/509/582 29/552/583
f 29/552/583 42/509/582 43/507/584 30/553/584
f 30/553/584 43/507/584 44/505/585 31/554/586
f 31/554/586 44/505/585 45/503/587 32/555/588
f 32/555/588 45/503/587 46/501/589 33/556/590
f 33/556/590 46/501/589 47/495/591 34/557/592
f 35/558/593 48/498/594 37/500/573 36/559/573
f 34/557/592 47/495/591 48/498/594 35/558/593
f 131/560/595 132/561/596 108/562/597 107/563/598
f 132/561/596 121/564/599 97/565/599 108/562/597
f 130/566/600 131/560/595 107/563/598 106/567/601
f 129/568/602 130/566/600 106/567/601 105/569/603
f 128/570/604 129/568/602 105/569/603 104/571/605
f 127/572/606 128/570/604 104/571/605 103/573/606
f 126/574/607 127/572/606 103/573/606 102/575/608
f 125/576/609 126/574/607 102/575/608 101/577/610
f 124/578/611 125/576/609 101/577/610 100/579/612
f 123/580/613 124/578/611 100/579/612 99/581/614
f 122/582/615 123/580/613 99/581/614 98/583/616
f 121/584/599 122/582/615 98/583/616 97/585/599
f 145/586/617 146/587/618 109/588/619 120/589/617
f 146/587/618 147/590/620 110/591/621 109/588/619
f 147/590/620 148/592/622 111/593/623 110/591/621
f 148/592/622 149/594/624 112/595/625 111/593/623
f 149/594/624 150/596/626 113/597/627 112/595/625
f 150/596/626 151/598/628 114/599/628 113/597/627
f 151/598/628 152/600/629 115/601/630 114/599/628
f 152/600/629 153/602/631 116/603/632 115/601/630
f 153/602/631 154/604/633 117/605/634 116/603/632
f 154/604/633 155/606/635 118/607/636 117/605/634
f 156/608/637 145/609/617 120/610/617 119/611/638
f 155/606/635 156/608/637 119/611/638 118/607/636
f 120/612/639 109/613/640 122/582/641 121/584/639
f 109/613/640 110/614/642 123/580/643 122/582/641
f 110/614/642 111/615/644 124/578/645 123/580/643
f 111/615/644 112/616/646 125/576/647 124/578/645
f 112/616/646 113/617/648 126/574/649 125/576/647
f 113/617/648 114/618/650 127/572/650 126/574/649
f 114/618/650 115/619/651 128/570/652 127/572/650
f 115/619/651 116/620/653 129/568/654 128/570/652
f 116/620/653 117/621/655 130/566/656 129/568/654
f 117/621/655 118/622/657 131/560/658 130/566/656
f 119/623/659 120/624/639 121/564/639 132/561/660
f 118/622/657 119/623/659 132/561/660 131/560/658
f 323/625/661 299/626/662 300/627/663 324/628/664
f 324/628/664 300/627/663 289/629/665 313/630/665
f 322/631/666 298/632/667 299/626/662 323/625/661
f 321/633/668 297/634/669 298/632/667 322/631/666
f 320/635/670 296/636/671 297/634/669 321/633/668
f 319/637/672 295/638/672 296/636/671 320/635/670
f 318/639/673 294/640/674 295/638/672 319/637/672
f 317/641/675 293/642/676 294/640/674 318/639/673
f 316/643/677 292/644/678 293/642/676 317/641/675
f 315/645/679 291/646/680 292/644/678 316/643/677
f 314/647/681 290/648/682 291/646/680 315/645/679
f 313/649/665 289/650/665 290/648/682 314/647/681
f 337/651/683 312/652/683 301/653/684 338/654/685
f 338/654/685 301/653/684 302/655/686 339/656/687
f 339/656/687 302/655/686 303/657/688 340/658/689
f 340/658/689 303/657/688 304/659/690 341/660/691
f 341/660/691 304/659/690 305/661/692 342/662/693
f 342/662/693 305/661/692 306/663/694 343/664/694
f 343/664/694 306/663/694 307/665/695 344/666/696
f 344/666/696 307/665/695 308/667/697 345/668/698
f 345/668/698 308/667/697 309/669/699 346/670/700
f 346/670/700 309/669/699 310/671/701 347/672/702
f 348/673/703 311/674/704 312/675/683 337/676/683
f 347/672/702 310/671/701 311/674/704 348/673/703
f 312/677/705 313/649/705 314/647/706 301/678/707
f 301/678/707 314/647/706 315/645/708 302/679/709
f 302/679/709 315/645/708 316/643/710 303/680/711
f 303/680/711 316/643/710 317/641/712 304/681/713
f 304/681/713 317/641/712 318/639/714 305/682/715
f 305/682/715 318/639/714 319/637/716 306/683/716
f 306/683/716 319/637/716 320/635/717 307/684/718
f 307/684/718 320/635/717 321/633/719 308/685/720
f 308/685/720 321/633/719 322/631/721 309/686/722
f 309/686/722 322/631/721 323/625/723 310/687/724
f 311/688/725 324/628/726 313/630/705 312/689/705
f 310/687/724 323/625/723 324/628/726 311/688/725
f 395/690/727 396/691/728 24/497/529 23/496/528
f 396/691/728 385/692/729 13/499/531 24/497/529
f 394/693/730 395/690/727 23/496/528 22/502/534
f 393/694/731 394/693/730 22/502/534 21/504/536
f 392/695/732 393/694/731 21/504/536 20/506/538
f 391/696/733 392/695/732 20/506/538 19/508/540
f 390/697/734 391/696/733 19/508/540 18/510/542
f 389/698/735 390/697/734 18/510/542 17/512/544
f 388/699/736 389/698/735 17/512/544 16/514/546
f 387/700/737 388/699/736 16/514/546 15/516/548
f 386/701/738 387/700/737 15/516/548 14/518/550
f 385/702/729 386/701/738 14/518/550 13/520/531
f 409/703/739 410/704/740 373/705/741 384/706/739
f 410/704/740 411/707/742 374/708/743 373/705/741
f 411/707/742 412/709/744 375/710/745 374/708/743
f 412/709/744 413/711/746 376/712/747 375/710/745
f 413/711/746 414/713/748 377/714/749 376/712/747
f 414/713/748 415/715/750 378/716/750 377/714/749
f 415/715/750 416/717/751 379/718/752 378/716/750
f 416/717/751 417/719/753 380/720/754 379/718/752
f 417/719/753 418/721/755 381/722/756 380/720/754
f 418/721/755 419/723/757 382/724/758 381/722/756
f 420/725/759 409/726/739 384/727/739 383/728/760
f 419/723/757 420/725/759 383/728/760 382/724/758
f 384/729/761 373/730/762 386/701/763 385/702/761
f 373/730/762 374/731/764 387/700/765 386/701/763
f 374/731/764 375/732/766 388/699/767 387/700/765
f 375/732/766 376/733/768 389/698/769 388/699/767
f 376/733/768 377/734/770 390/697/771 389/698/769
f 377/734/770 378/735/772 391/696/772 390/697/771
f 378/735/772 379/736/773 392/695/774 391/696/772
f 379/736/773 380/737/775 393/694/776 392/695/774
f 380/737/775 381/738/777 394/693/778 393/694/776
f 381/738/777 382/739/779 395/690/780 394/693/778
f 383/740/781 384/741/761 385/692/761 396/691/782
f 382/739/779 383/740/781 396/691/782 395/690/780
