# Blender v3.6.0 OBJ File: 'AllModules_Unreal.blend'
# www.blender.org
mtllib Prop_Crate2.mtl
o Prop_Crate2_Cube.021
v -0.491340 -0.499995 0.491340
v -0.491340 -0.491340 0.499995
v -0.499995 -0.491340 0.491340
v -0.491340 -0.497460 0.497460
v -0.496337 -0.496337 0.496337
v -0.497460 -0.491340 0.497460
v -0.497460 -0.497460 0.491340
v -0.491340 0.491340 0.499995
v -0.491340 0.499995 0.491340
v -0.499995 0.491340 0.491340
v -0.491340 0.497460 0.497460
v -0.496337 0.496337 0.496337
v -0.497460 0.497460 0.491340
v -0.497460 0.491340 0.497460
v -0.491340 -0.499995 -0.491340
v -0.499995 -0.491340 -0.491340
v -0.491340 -0.491340 -0.499995
v -0.497460 -0.497460 -0.491340
v -0.496337 -0.496337 -0.496337
v -0.497460 -0.491340 -0.497460
v -0.491340 -0.497460 -0.497460
v -0.491340 0.499995 -0.491340
v -0.491340 0.491340 -0.499995
v -0.499995 0.491340 -0.491340
v -0.491340 0.497460 -0.497460
v -0.496337 0.496337 -0.496337
v -0.497460 0.491340 -0.497460
v -0.497460 0.497460 -0.491340
v 0.491340 -0.499995 0.491340
v 0.499995 -0.491340 0.491340
v 0.491340 -0.491340 0.499995
v 0.497460 -0.497460 0.491340
v 0.496337 -0.496337 0.496337
v 0.497460 -0.491340 0.497460
v 0.491340 -0.497460 0.497460
v 0.491340 0.499995 0.491340
v 0.491340 0.491340 0.499995
v 0.499995 0.491340 0.491340
v 0.491340 0.497460 0.497460
v 0.496337 0.496337 0.496337
v 0.497460 0.491340 0.497460
v 0.497460 0.497460 0.491340
v 0.491340 -0.499995 -0.491340
v 0.491340 -0.491340 -0.499995
v 0.499995 -0.491340 -0.491340
v 0.491340 -0.497460 -0.497460
v 0.496337 -0.496337 -0.496337
v 0.497460 -0.491340 -0.497460
v 0.497460 -0.497460 -0.491340
v 0.491340 0.499995 -0.491340
v 0.499995 0.491340 -0.491340
v 0.491340 0.491340 -0.499995
v 0.497460 0.497460 -0.491340
v 0.496337 0.496337 -0.496337
v 0.497460 0.491340 -0.497460
v 0.491340 0.497460 -0.497460
v 0.000000 -0.499995 -0.491340
v 0.000000 -0.497460 -0.497460
v 0.000000 -0.491340 -0.499995
v 0.000000 0.499995 -0.491340
v 0.000000 0.497460 -0.497460
v 0.000000 0.491340 -0.499995
v 0.000000 -0.499995 0.491340
v 0.000000 -0.497460 0.497460
v 0.000000 -0.491340 0.499995
v 0.000000 0.499995 0.491340
v 0.000000 0.497460 0.497460
v 0.000000 0.491340 0.499995
v -0.491340 -0.499995 0.000000
v -0.497460 -0.497460 0.000000
v -0.499995 -0.491340 0.000000
v -0.491340 0.499995 0.000000
v -0.497460 0.497460 0.000000
v -0.499995 0.491340 0.000000
v 0.491340 -0.499995 0.000000
v 0.497460 -0.497460 0.000000
v 0.499995 -0.491340 0.000000
v 0.491340 0.499995 0.000000
v 0.497460 0.497460 0.000000
v 0.499995 0.491340 0.000000
v 0.000000 -0.499995 0.000000
v 0.000000 0.499995 0.000000
vt 0.248894 0.408731
vt 0.248894 0.748474
vt 0.095803 0.748474
vt 0.095803 0.408731
vt 0.248894 0.408731
vt 0.248894 0.748474
vt 0.095803 0.748474
vt 0.095803 0.408731
vt 0.749071 0.609853
vt 0.649927 0.609853
vt 0.649927 0.499841
vt 0.749071 0.499841
vt 0.248894 0.408731
vt 0.248894 0.748474
vt 0.401984 0.748474
vt 0.401984 0.408731
vt 0.248894 0.408731
vt 0.248894 0.748474
vt 0.401984 0.748474
vt 0.401984 0.408731
vt 0.336215 0.408731
vt 0.336215 0.408731
vt 0.336215 0.408731
vt 0.336215 0.408731
vt 0.336215 0.408731
vt 0.336215 0.408731
vt 0.336215 0.408731
vt 0.336215 0.748474
vt 0.336215 0.748474
vt 0.336215 0.748474
vt 0.336215 0.748474
vt 0.336215 0.408731
vt 0.336215 0.408731
vt 0.336215 0.408731
vt 0.336215 0.408731
vt 0.336215 0.748474
vt 0.336215 0.748474
vt 0.336215 0.748474
vt 0.336215 0.748474
vt 0.336215 0.748474
vt 0.336215 0.748474
vt 0.642396 0.408731
vt 0.642396 0.408731
vt 0.642396 0.408731
vt 0.642396 0.408731
vt 0.336215 0.408731
vt 0.336215 0.408731
vt 0.336215 0.408731
vt 0.336215 0.408731
vt 0.336215 0.748474
vt 0.336215 0.748474
vt 0.336215 0.748474
vt 0.336215 0.748474
vt 0.336215 0.748474
vt 0.336215 0.748474
vt 0.642396 0.748474
vt 0.642396 0.748474
vt 0.642396 0.748474
vt 0.642396 0.748474
vt 0.642396 0.408731
vt 0.642396 0.408731
vt 0.642396 0.408731
vt 0.642396 0.408731
vt 0.336215 0.408731
vt 0.336215 0.408731
vt 0.336215 0.408731
vt 0.336215 0.408731
vt 0.642396 0.408731
vt 0.642396 0.408731
vt 0.642396 0.408731
vt 0.642396 0.408731
vt 0.642396 0.408731
vt 0.642396 0.408731
vt 0.642396 0.748474
vt 0.642396 0.748474
vt 0.642396 0.748474
vt 0.642396 0.748474
vt 0.336215 0.748474
vt 0.336215 0.748474
vt 0.336215 0.748474
vt 0.336215 0.748474
vt 0.642396 0.748474
vt 0.642396 0.748474
vt 0.642396 0.748474
vt 0.642396 0.748474
vt 0.642396 0.408731
vt 0.642396 0.408731
vt 0.642396 0.408731
vt 0.642396 0.408731
vt 0.642396 0.408731
vt 0.642396 0.408731
vt 0.642396 0.748474
vt 0.642396 0.748474
vt 0.642396 0.748474
vt 0.642396 0.748474
vt 0.642396 0.748474
vt 0.642396 0.748474
vt 0.642396 0.748474
vt 0.336215 0.578603
vt 0.336215 0.578603
vt 0.489305 0.408731
vt 0.489305 0.408731
vt 0.095803 0.748474
vt 0.095803 0.408731
vt 0.095803 0.748474
vt 0.095803 0.408731
vt 0.336215 0.578603
vt 0.336215 0.578603
vt 0.489305 0.748474
vt 0.489305 0.748474
vt 0.095803 0.748474
vt 0.095803 0.408731
vt 0.095803 0.408731
vt 0.095803 0.748474
vt 0.401984 0.748474
vt 0.401984 0.408731
vt 0.489305 0.748474
vt 0.489305 0.748474
vt 0.489305 0.408731
vt 0.489305 0.408731
vt 0.489305 0.748474
vt 0.489305 0.748474
vt 0.489305 0.748474
vt 0.401984 0.748474
vt 0.401984 0.408731
vt 0.401984 0.408731
vt 0.401984 0.748474
vt 0.642396 0.578603
vt 0.642396 0.578603
vt 0.489305 0.408731
vt 0.489305 0.408731
vt 0.642396 0.578603
vt 0.642396 0.578603
vt 0.489305 0.748474
vt 0.489305 0.748474
vt 0.401984 0.748474
vt 0.401984 0.408731
vt 0.401984 0.408731
vt 0.401984 0.748474
vt 0.095803 0.748474
vt 0.095803 0.408731
vt 0.489305 0.408731
vt 0.489305 0.408731
vt 0.489305 0.408731
vt 0.489305 0.408731
vt 0.489305 0.408731
vt 0.489305 0.748474
vt 0.489305 0.748474
vt 0.745165 0.613759
vt 0.850188 0.613759
vt 0.850188 0.497223
vt 0.745165 0.497223
vt 0.640141 0.613759
vt 0.640141 0.497223
vt 0.848215 0.609853
vt 0.848215 0.499841
vt 0.848215 0.719864
vt 0.749071 0.719864
vt 0.640141 0.730295
vt 0.745165 0.730295
vt 0.850188 0.730295
vt 0.649927 0.719864
vn 0.0000 -0.1951 0.9808
vn 0.0000 0.1951 0.9808
vn -0.1794 0.1794 0.9673
vn -0.1794 -0.1794 0.9673
vn 0.9808 -0.1951 0.0000
vn 0.9808 0.1951 0.0000
vn 0.9673 0.1794 0.1794
vn 0.9673 -0.1794 0.1794
vn 0.0000 1.0000 0.0000
vn -0.1951 0.9808 0.0000
vn -0.1794 0.9673 0.1794
vn 0.0000 0.9808 0.1951
vn -0.9808 -0.1951 0.0000
vn -0.9808 0.1951 0.0000
vn -0.9673 0.1794 -0.1794
vn -0.9673 -0.1794 -0.1794
vn 0.0000 -0.1951 -0.9808
vn 0.0000 0.1951 -0.9808
vn 0.1794 0.1794 -0.9673
vn 0.1794 -0.1794 -0.9673
vn -0.1794 -0.9673 0.1794
vn -0.1726 -0.6965 0.6965
vn -0.5774 -0.5774 0.5774
vn -0.6965 -0.6965 0.1726
vn -0.6965 -0.1726 0.6965
vn -0.9673 -0.1794 0.1794
vn -0.1726 0.6965 0.6965
vn -0.5774 0.5774 0.5774
vn -0.6965 0.1726 0.6965
vn -0.6965 0.6965 0.1726
vn -0.9673 0.1794 0.1794
vn -0.1794 -0.9673 -0.1794
vn -0.6965 -0.6965 -0.1726
vn -0.5774 -0.5774 -0.5774
vn -0.1726 -0.6965 -0.6965
vn -0.6965 -0.1726 -0.6965
vn -0.1794 -0.1794 -0.9673
vn -0.1794 0.9673 -0.1794
vn -0.1726 0.6965 -0.6965
vn -0.5774 0.5774 -0.5774
vn -0.6965 0.6965 -0.1726
vn -0.1794 0.1794 -0.9673
vn -0.6965 0.1726 -0.6965
vn 0.1794 -0.9673 0.1794
vn 0.6965 -0.6965 0.1726
vn 0.5774 -0.5774 0.5774
vn 0.1726 -0.6965 0.6965
vn 0.6965 -0.1726 0.6965
vn 0.1794 -0.1794 0.9673
vn 0.1794 0.9673 0.1794
vn 0.1726 0.6965 0.6965
vn 0.5774 0.5774 0.5774
vn 0.6965 0.6965 0.1726
vn 0.1794 0.1794 0.9673
vn 0.6965 0.1726 0.6965
vn 0.1794 -0.9673 -0.1794
vn 0.1726 -0.6965 -0.6965
vn 0.5774 -0.5774 -0.5774
vn 0.6965 -0.6965 -0.1726
vn 0.6965 -0.1726 -0.6965
vn 0.9673 -0.1794 -0.1794
vn 0.1794 0.9673 -0.1794
vn 0.6965 0.6965 -0.1726
vn 0.5774 0.5774 -0.5774
vn 0.1726 0.6965 -0.6965
vn 0.9673 0.1794 -0.1794
vn 0.6965 0.1726 -0.6965
vn -0.1951 -0.9808 0.0000
vn -0.7071 -0.7071 0.0000
vn -0.7071 0.7071 0.0000
vn 0.0000 -0.9808 -0.1951
vn 0.0000 -0.7071 -0.7071
vn 0.0000 0.9808 -0.1951
vn 0.0000 0.7071 -0.7071
vn 0.1951 -0.9808 0.0000
vn 0.7071 -0.7071 0.0000
vn 0.1951 0.9808 0.0000
vn 0.7071 0.7071 0.0000
vn 0.0000 -0.9808 0.1951
vn 0.0000 -0.7071 0.7071
vn 0.0000 0.7071 0.7071
vn 0.0000 -1.0000 0.0000
usemtl MI_Trim_02
s 1
f 65/1/1 68/2/2 8/3/3 2/4/4
f 77/5/5 80/6/6 38/7/7 30/8/8
f 82/9/9 72/10/10 9/11/11 66/12/12
f 71/13/13 74/14/14 24/15/15 16/16/16
f 59/17/17 62/18/18 52/19/19 44/20/20
f 1/21/21 4/22/22 5/23/23 7/24/24
f 2/25/4 6/26/25 5/23/23 4/22/22
f 3/27/26 7/24/24 5/23/23 6/26/25
f 8/28/3 11/29/27 12/30/28 14/31/29
f 9/32/11 13/33/30 12/34/28 11/35/27
f 10/36/31 14/31/29 12/30/28 13/37/30
f 15/38/32 18/39/33 19/40/34 21/41/35
f 16/42/16 20/43/36 19/44/34 18/45/33
f 17/46/37 21/47/35 19/48/34 20/49/36
f 22/50/38 25/51/39 26/52/40 28/53/41
f 23/54/42 27/55/43 26/52/40 25/51/39
f 24/56/15 28/57/41 26/58/40 27/59/43
f 29/60/44 32/61/45 33/62/46 35/63/47
f 30/64/8 34/65/48 33/66/46 32/67/45
f 31/68/49 35/63/47 33/62/46 34/69/48
f 36/70/50 39/71/51 40/72/52 42/73/53
f 37/74/54 41/75/55 40/76/52 39/77/51
f 38/78/7 42/79/53 40/80/52 41/81/55
f 43/82/56 46/83/57 47/84/58 49/85/59
f 44/86/20 48/87/60 47/88/58 46/89/57
f 45/90/61 49/91/59 47/88/58 48/87/60
f 50/92/62 53/93/63 54/94/64 56/95/65
f 51/96/66 55/97/67 54/94/64 53/93/63
f 52/98/19 56/95/65 54/94/64 55/97/67
f 69/99/68 1/21/21 7/24/24 70/100/69
f 70/101/69 7/24/24 3/27/26 71/102/13
f 2/4/4 8/3/3 14/103/29 6/104/25
f 6/104/25 14/103/29 10/105/31 3/106/26
f 72/107/10 22/50/38 28/53/41 73/108/70
f 73/109/70 28/57/41 24/56/15 74/110/14
f 23/111/42 17/112/37 20/113/36 27/114/43
f 27/115/43 20/116/36 16/16/16 24/15/15
f 57/117/71 15/38/32 21/41/35 58/118/72
f 58/119/72 21/47/35 17/46/37 59/120/17
f 60/121/73 50/92/62 56/95/65 61/122/74
f 61/122/74 56/95/65 52/98/19 62/123/18
f 51/124/66 45/125/61 48/126/60 55/127/67
f 55/127/67 48/126/60 44/20/20 52/19/19
f 75/128/75 43/82/56 49/85/59 76/129/76
f 76/130/76 49/91/59 45/90/61 77/131/5
f 78/132/77 36/70/50 42/73/53 79/133/78
f 79/134/78 42/79/53 38/78/7 80/135/6
f 37/136/54 31/137/49 34/138/48 41/139/55
f 41/140/55 34/141/48 30/8/8 38/7/7
f 63/142/79 29/60/44 35/63/47 64/143/80
f 64/143/80 35/63/47 31/68/49 65/144/1
f 66/145/12 9/32/11 11/35/27 67/146/81
f 67/147/81 11/29/27 8/28/3 68/148/2
f 81/149/82 75/150/75 29/151/44 63/152/79
f 69/153/68 81/149/82 63/152/79 1/154/21
f 39/77/51 67/147/81 68/148/2 37/74/54
f 36/70/50 66/145/12 67/146/81 39/71/51
f 4/22/22 64/143/80 65/144/1 2/25/4
f 1/21/21 63/142/79 64/143/80 4/22/22
f 25/51/39 61/122/74 62/123/18 23/54/42
f 22/50/38 60/121/73 61/122/74 25/51/39
f 46/89/57 58/119/72 59/120/17 44/86/20
f 43/82/56 57/117/71 58/118/72 46/83/57
f 17/112/37 23/111/42 62/18/18 59/17/17
f 78/155/77 82/9/9 66/12/12 36/156/50
f 31/137/49 37/136/54 68/2/2 65/1/1
f 50/157/62 60/158/73 82/9/9 78/155/77
f 15/159/32 57/160/71 81/149/82 69/153/68
f 57/160/71 43/161/56 75/150/75 81/149/82
f 53/93/63 79/134/78 80/135/6 51/96/66
f 50/92/62 78/132/77 79/133/78 53/93/63
f 32/67/45 76/130/76 77/131/5 30/64/8
f 29/60/44 75/128/75 76/129/76 32/61/45
f 13/37/30 73/109/70 74/110/14 10/36/31
f 9/32/11 72/107/10 73/108/70 13/33/30
f 18/45/33 70/101/69 71/102/13 16/42/16
f 15/38/32 69/99/68 70/100/69 18/39/33
f 3/106/26 10/105/31 74/14/14 71/13/13
f 60/158/73 22/162/38 72/10/10 82/9/9
f 45/125/61 51/124/66 80/6/6 77/5/5
