# Blender v3.6.0 OBJ File: 'AllModules_Unreal.blend'
# www.blender.org
mtllib Prop_WallBand_BrokenPlate.mtl
o Prop_WallBand_BrokenPlate_Plane.099
v 1.018162 0.030943 2.123129
v 0.880994 0.233408 -1.845744
v -0.981507 -0.005462 2.122881
v -0.981506 0.021695 -1.877027
v -0.826585 0.005269 2.062846
v -0.583641 0.009692 2.062876
v -0.826584 0.007911 1.673653
v -0.583642 0.012334 1.673683
v 1.018232 -0.030497 2.122711
v 0.919697 0.189332 -1.864030
v -0.981436 -0.066901 2.122464
v -0.981435 -0.039744 -1.877444
v -0.980340 0.002951 0.886986
v -0.980268 -0.058489 0.886620
v 1.016994 0.039968 0.790619
v 1.017066 -0.021472 0.790254
v 1.018162 0.035303 1.480989
v -0.981506 0.000615 1.227875
v -0.981436 -0.060824 1.227323
v 1.018232 -0.026136 1.480437
v 1.017232 0.062715 0.943371
v 1.017601 0.067780 1.165121
v -0.981792 0.016491 1.162362
v -0.981008 0.016790 0.944935
v 1.017672 0.006337 1.164705
v 1.017303 0.001272 0.942953
v -0.980937 -0.044658 0.944518
v -0.981721 -0.044968 1.161943
v 1.030217 0.054563 -1.305281
v 0.748159 0.034575 -1.867321
v 0.992014 0.098028 -1.284464
v 0.708665 0.077938 -1.849050
v 1.021974 0.011855 -1.071309
v 1.017777 -0.010436 -0.833343
v 0.591584 -0.011107 -1.877249
v 0.697945 0.013152 -1.872072
v 1.017705 0.050986 -0.830274
v 1.008660 0.068140 -1.068592
v 0.590449 0.050313 -1.876832
v 0.692165 0.071318 -1.855940
v -0.137013 0.015305 2.123022
v -0.136149 -0.046121 2.122605
v -0.194586 0.022906 0.849107
v -0.179684 -0.018995 1.163088
v -0.190172 0.040358 0.944352
v -0.180548 0.042438 1.163505
v -0.316884 0.039187 -1.876908
v -0.189308 -0.021069 0.943935
v -0.170213 -0.041360 1.330056
v -0.316019 -0.022238 -1.877325
v -0.171077 0.020065 1.330507
v -0.193721 -0.038520 0.848703
v -0.049518 0.013370 1.163465
v 0.240519 -0.004859 1.163690
v 0.094994 -0.005183 1.163512
v 0.220806 -0.027709 0.828721
v -0.068441 -0.006585 0.842833
v 0.075673 -0.026657 0.835746
v -0.231046 0.015167 -1.877071
v 0.057225 -0.008556 -1.877232
v -0.087651 -0.008281 -1.877230
v 0.298691 -0.034201 2.122686
v 0.008096 -0.016131 2.122809
v 0.153055 -0.034389 2.122685
v -0.061382 -0.050171 0.943617
v 0.228511 -0.069684 0.943213
v 0.083014 -0.069419 0.943352
v -0.037148 -0.071576 1.346602
v 0.255288 -0.091855 1.383386
v 0.108635 -0.091170 1.364853
v 0.058361 -0.069977 -1.877649
v -0.229911 -0.046304 -1.877488
v -0.086516 -0.069716 -1.877647
v 0.299826 -0.095609 2.122269
v 0.009232 -0.077583 2.122391
v 0.154191 -0.095814 2.122268
v 0.241653 -0.066270 1.163275
v -0.048383 -0.048089 1.163048
v 0.096128 -0.066613 1.163097
v 0.254153 -0.030446 1.383803
v -0.038283 -0.010121 1.347019
v 0.107499 -0.029743 1.365270
v -0.062517 0.011286 0.944036
v 0.227376 -0.008275 0.943631
v 0.081879 -0.007991 0.943770
v -0.067303 -0.068042 0.842416
v 0.221941 -0.089119 0.828304
v 0.076809 -0.088085 0.835329
vt 1.159675 0.448546
vt 1.061002 0.408906
vt 1.159675 0.408906
vt 1.798631 0.945566
vt 1.800664 0.991636
vt 2.247486 0.991636
vt 2.247486 0.945566
vt 1.159675 0.454644
vt 1.024298 0.408906
vt -0.577793 0.945569
vt -0.577806 0.991633
vt -0.526122 0.991633
vt -0.551016 0.945569
vt 1.284546 0.945566
vt 1.284546 0.991636
vt 1.340470 0.991636
vt 1.340502 0.945566
vt 0.694735 0.543896
vt 0.712010 0.545041
vt 0.712010 0.408906
vt 0.691480 0.408906
vt 0.696453 0.615128
vt 0.695928 0.593363
vt 0.658490 0.591101
vt 0.658516 0.613428
vt -0.751843 0.945566
vt -0.751843 0.991636
vt -0.270234 0.991636
vt -0.270335 0.945566
vt 0.606198 0.408906
vt 0.622122 0.539384
vt 0.658433 0.541636
vt 0.658278 0.408906
vt 0.114413 0.991633
vt 0.114603 0.945569
vt 0.006047 0.945569
vt 0.006060 0.991633
vt -0.751843 0.945566
vt -0.751843 0.991636
vt 0.658490 0.591282
vt 0.695927 0.593545
vt 0.696451 0.615263
vt 0.658516 0.613563
vt 1.159675 0.573009
vt 1.159675 0.481779
vt 0.984490 0.408906
vt 0.117690 0.945566
vt 0.117704 0.991636
vt 0.211096 0.991636
vt 0.211096 0.945566
vt -0.033328 0.991636
vt -0.033328 0.945566
vt 1.527162 0.945566
vt 1.527161 0.991636
vt 1.576265 0.991636
vt 1.576366 0.945566
vt 2.247486 0.991636
vt 2.247486 0.945566
vt 0.500325 0.531775
vt 0.500325 0.408906
vt 0.630964 0.612013
vt 0.628208 0.589434
vt -0.431076 0.945569
vt -0.431089 0.991633
vt -0.030513 0.991633
vt -0.030500 0.945569
vt -0.751843 0.945569
vt -0.751058 0.991633
vt 1.061449 0.408906
vt 1.159675 0.448364
vt 1.159675 0.408906
vt 1.450585 0.991636
vt 1.448545 0.945566
vt 0.185289 0.945569
vt 0.185277 0.991633
vt 0.249499 0.991633
vt 0.249309 0.945569
vt 0.712010 0.594601
vt 0.712010 0.616071
vt 1.023676 0.408906
vt 1.159675 0.460135
vt 1.159675 0.481960
vt 0.984042 0.408906
vt 1.628838 0.991636
vt 1.631667 0.945566
vt 0.712010 0.615935
vt 0.712011 0.594418
vt 1.159675 0.622337
vt 1.159675 0.636917
vt 0.748607 0.991633
vt 0.747821 0.945569
vt 0.628208 0.589253
vt 0.630969 0.611878
vt 0.647881 0.750453
vt 0.658676 0.750453
vt 0.699710 0.750453
vt 0.658676 0.750453
vt 0.712010 0.545223
vt 0.694735 0.544078
vt 0.691477 0.408906
vt 0.712010 0.408906
vt 1.159675 0.636782
vt 1.159675 0.622155
vt 0.500325 0.606195
vt 0.500325 0.581518
vt -0.211550 0.991633
vt -0.211563 0.945569
vt -0.751058 0.945569
vt -0.751843 0.991633
vt 0.658433 0.541818
vt 0.658278 0.408906
vt 1.159675 0.573191
vt 0.500325 0.606059
vt 0.500325 0.581336
vt 0.622122 0.539566
vt 0.500325 0.531957
vt 0.500325 0.408906
vt 0.606176 0.408906
vt 0.712010 0.750453
vt 1.159675 0.750453
vt 0.712010 0.750453
vt 1.159675 0.750453
vt 0.699717 0.750453
vt 0.647859 0.750453
vt 0.500325 0.750453
vt 0.500325 0.750453
vt 0.747821 0.991633
vt 0.748607 0.945569
vt 0.658462 0.566649
vt 0.695313 0.568928
vt 0.695312 0.569110
vt 0.711830 0.570183
vt 0.079114 0.979374
vt 0.079123 0.945569
vt 0.711830 0.570001
vt 0.500325 0.556765
vt 0.625295 0.564576
vt 0.658462 0.566831
vt 1.159662 0.598157
vt 1.159662 0.597975
vt -0.101835 0.955337
vt -0.101825 0.991633
vt 0.500325 0.556947
vt 0.625295 0.564758
vt 0.799616 0.579130
vt 0.799616 0.490855
vt 0.941012 0.490855
vt 0.941012 0.579130
vn -0.4776 0.8535 0.2084
vn -0.4185 0.8908 0.1771
vn -0.6427 0.7060 0.2974
vn 0.8347 0.5497 0.0345
vn 0.8232 0.5670 0.0307
vn 0.7534 0.6575 0.0096
vn -0.2567 0.9607 0.1060
vn -0.2238 0.9703 0.0923
vn -0.0758 0.2856 -0.9554
vn -0.0935 0.2772 -0.9562
vn 0.0645 0.2231 -0.9726
vn 0.0543 0.2520 -0.9662
vn -1.0000 -0.0011 -0.0058
vn -1.0000 -0.0011 -0.0049
vn -1.0000 -0.0011 -0.0077
vn -1.0000 -0.0011 -0.0071
vn 0.0455 -0.9951 0.0883
vn 0.0419 -0.9963 0.0752
vn 0.0862 -0.9940 0.0673
vn 0.0908 -0.9923 0.0844
vn -0.0936 -0.9904 0.1020
vn -0.1745 -0.9795 0.1009
vn -0.1712 -0.9841 -0.0479
vn -0.0901 -0.9939 -0.0644
vn 1.0000 0.0011 0.0000
vn 1.0000 0.0012 -0.0008
vn 0.0921 -0.9942 -0.0554
vn 0.0474 -0.9971 -0.0603
vn 0.0487 -0.9976 -0.0497
vn 0.0938 -0.9945 -0.0468
vn 0.0000 -0.0068 1.0000
vn -1.0000 -0.0012 0.0004
vn 0.1715 0.9840 0.0479
vn 0.1747 0.9794 -0.1009
vn 0.0937 0.9904 -0.1021
vn 0.0902 0.9938 0.0644
vn 0.0371 -0.9993 -0.0104
vn 0.1334 -0.9902 -0.0423
vn 0.1003 -0.9947 -0.0243
vn 1.0000 0.0012 -0.0017
vn 1.0000 0.0012 -0.0006
vn 1.0000 0.0012 -0.0007
vn -1.0000 -0.0012 -0.0001
vn -1.0000 -0.0012 0.0005
vn -1.0000 -0.0012 0.0019
vn -1.0000 -0.0012 0.0022
vn -1.0000 -0.0011 -0.0000
vn 0.0454 -0.9989 -0.0072
vn 0.0885 -0.9960 -0.0087
vn 0.0932 0.9932 0.0699
vn 0.1699 0.9838 0.0562
vn 0.0504 0.0803 -0.9955
vn 0.0419 0.0679 -0.9968
vn 0.0000 0.0068 -1.0000
vn -0.1892 0.2300 -0.9546
vn 0.4179 -0.8912 -0.1763
vn 0.4840 -0.8492 -0.2114
vn 0.6427 -0.7060 -0.2974
vn 0.9984 0.0572 -0.0002
vn 0.9984 0.0568 -0.0001
vn 0.1853 0.9783 -0.0925
vn 0.1028 0.9899 -0.0975
vn 0.2436 -0.9648 -0.0996
vn 0.2798 -0.9532 -0.1148
vn -0.1235 0.9916 0.0380
vn -0.0962 0.9951 0.0224
vn 0.9608 0.2760 0.0264
vn 0.9559 0.2921 0.0291
vn -0.1027 -0.9899 0.0975
vn -0.1851 -0.9784 0.0925
vn 0.1991 0.9800 -0.0039
vn 0.1067 0.9943 0.0007
vn -0.1697 -0.9839 -0.0562
vn -0.0931 -0.9932 -0.0700
vn 0.0321 -0.9953 -0.0918
vn 0.0348 -0.9961 -0.0806
vn -0.0316 0.9943 -0.1016
vn -0.0348 0.9961 0.0806
vn -0.0418 0.9963 -0.0752
vn -0.0454 0.9951 -0.0883
vn -0.0907 0.9923 -0.0844
vn -0.0861 0.9940 -0.0673
vn -0.1066 -0.9943 -0.0007
vn -0.1989 -0.9800 0.0039
vn 0.1000 0.9950 0.0011
vn 0.1715 0.9852 -0.0026
vn -0.0486 0.9976 0.0497
vn -0.0937 0.9945 0.0468
vn -0.0370 0.9993 0.0104
vn -0.0999 -0.9950 -0.0011
vn -0.1713 -0.9852 0.0026
vn -0.0473 0.9971 0.0603
vn -0.0453 0.9989 0.0072
vn -0.0885 0.9960 0.0087
vn -0.0920 0.9942 0.0554
vn 0.0290 -0.9946 0.1000
vn 0.0256 -0.9996 -0.0070
vn -0.0290 0.9946 -0.1000
vn -0.0256 0.9996 0.0070
vn 0.0316 -0.9943 0.1016
vn -0.0322 0.9953 0.0918
vn -0.0247 0.9997 0.0069
vn 0.0247 -0.9997 -0.0069
vn -0.0617 -0.9968 -0.0506
vn -0.0651 -0.9933 0.0956
vn 0.0653 0.9933 -0.0956
vn 0.0709 0.9938 -0.0855
vn -0.0708 -0.9938 0.0855
vn -0.0629 -0.9980 -0.0025
vn -0.0616 -0.9963 -0.0597
vn 0.0619 0.9968 0.0506
vn 0.0801 0.9968 0.0023
vn -0.0800 -0.9968 -0.0023
vn 0.0630 0.9980 0.0025
vn 0.0617 0.9963 0.0597
vn -0.0182 0.9998 0.0068
usemtl MI_Trim_02
s 1
f 32/1/1 31/2/2 2/3/3
f 31/4/4 29/5/5 10/6/6 2/7/6
f 40/8/7 38/9/8 31/2/2 32/1/1
f 32/10/9 30/11/10 36/12/11 40/13/12
f 13/14/13 14/15/14 27/16/15 24/17/16
f 66/18/17 87/19/18 16/20/19 26/21/20
f 48/22/21 65/23/22 78/24/23 44/25/24
f 1/26/25 9/27/25 20/28/26 17/29/26
f 20/30/27 69/31/28 77/32/29 25/33/30
f 41/34/31 42/35/31 75/36/31 63/37/31
f 4/38/32 12/39/32 14/15/14 13/14/13
f 53/40/33 83/41/34 45/42/35 46/43/36
f 87/19/18 71/44/37 35/45/38 34/46/39 16/20/19
f 21/47/40 26/48/40 16/49/41 15/50/42
f 17/29/26 20/28/26 25/51/40 22/52/40
f 23/53/43 28/54/44 19/55/45 18/56/46
f 18/56/46 19/55/45 11/57/47 3/58/47
f 28/54/44 23/53/43 24/17/16 27/16/15
f 26/48/40 21/47/40 22/52/40 25/51/40
f 74/59/48 69/31/28 20/30/27 9/60/49
f 51/61/50 81/62/51 53/40/33 46/43/36
f 39/63/52 35/64/53 71/65/54 60/66/54
f 2/67/55 10/68/55 30/11/10 32/10/9
f 29/69/56 30/70/57 10/71/58
f 15/50/42 16/49/41 34/72/59 37/73/60
f 59/74/54 72/75/54 50/76/54 47/77/54
f 45/42/35 83/41/34 57/78/61 43/79/62
f 30/70/57 29/69/56 33/80/63 36/81/64
f 34/46/39 35/45/38 36/81/64 33/80/63
f 35/64/53 39/63/52 40/13/12 36/12/11
f 39/82/65 37/83/66 38/9/8 40/8/7
f 37/73/60 34/72/59 33/84/67 38/85/68
f 29/5/5 31/4/4 38/85/68 33/84/67
f 48/22/21 52/86/69 86/87/70 65/23/22
f 43/79/62 57/78/61 59/88/71 47/89/72
f 47/77/54 50/76/54 12/90/54 4/91/54
f 77/32/29 66/18/17 26/21/20 25/33/30
f 78/24/23 68/92/73 49/93/74 44/25/24
f 44/25/24 49/93/74 19/94/75 28/95/76
f 46/43/36 45/42/35 24/96/77 23/97/78
f 56/98/79 84/99/80 21/100/81 15/101/82
f 52/86/69 50/102/83 72/103/84 86/87/70
f 41/104/85 63/105/86 81/62/51 51/61/50
f 62/106/31 74/107/31 9/108/31 1/109/31
f 21/100/81 84/99/80 54/110/87 22/111/88
f 60/112/89 56/98/79 15/101/82 37/83/66 39/82/65
f 42/113/90 49/93/74 68/92/73 75/114/91
f 80/115/92 62/116/93 1/117/94 17/118/95
f 14/119/96 12/120/97 50/102/83 52/86/69
f 13/121/98 43/79/62 47/89/72 4/122/99
f 24/96/77 45/42/35 43/79/62 13/121/98
f 27/123/100 48/22/21 44/25/24 28/95/76
f 18/124/101 51/61/50 46/43/36 23/97/78
f 3/125/102 41/104/85 51/61/50 18/124/101
f 11/126/103 19/94/75 49/93/74 42/113/90
f 27/123/100 14/119/96 52/86/69 48/22/21
f 3/127/31 11/128/31 42/35/31 41/34/31
f 66/18/17 77/32/29 79/129/104 67/130/105
f 67/130/105 79/129/104 78/24/23 65/23/22
f 57/78/61 83/41/34 85/131/106 58/132/107
f 58/132/107 85/131/106 84/99/80 56/98/79
f 60/66/54 71/65/54 73/133/54 61/134/54
f 61/134/54 73/133/54 72/75/54 59/74/54
f 87/19/18 66/18/17 67/130/105 88/135/108
f 88/135/108 67/130/105 65/23/22 86/87/70
f 69/31/28 74/59/48 76/136/109 70/137/110
f 70/137/110 76/136/109 75/114/91 68/92/73
f 77/32/29 69/31/28 70/137/110 79/129/104
f 79/129/104 70/137/110 68/92/73 78/24/23
f 83/41/34 53/40/33 55/138/111 85/131/106
f 85/131/106 55/138/111 54/110/87 84/99/80
f 59/88/71 57/78/61 58/132/107 61/139/112
f 61/139/112 58/132/107 56/98/79 60/112/89
f 71/44/37 87/19/18 88/135/108 73/140/113
f 73/140/113 88/135/108 86/87/70 72/103/84
f 63/37/31 75/36/31 76/141/31 64/142/31
f 64/142/31 76/141/31 74/107/31 62/106/31
f 81/62/51 63/105/86 64/143/114 82/144/115
f 82/144/115 64/143/114 62/116/93 80/115/92
f 53/40/33 81/62/51 82/144/115 55/138/111
f 55/138/111 82/144/115 80/115/92 54/110/87
f 54/110/87 80/115/92 17/118/95 22/111/88
usemtl M_Decal_White
f 5/145/116 6/146/116 8/147/116 7/148/116
