# Blender v3.6.0 OBJ File: 'AllModules_Unreal.blend'
# www.blender.org
mtllib BottomAccent_Corner_Square_Outer_1.mtl
o BottomAccent_Corner_Square_Outer_1_Plane.193
v -4.599999 0.000000 -4.000001
v -4.199999 0.020000 -4.000001
v -4.599999 0.020000 -4.000001
v -4.594866 0.000000 -4.078317
v -4.198288 0.020000 -4.026106
v -4.594866 0.020000 -4.078317
v -4.579555 0.000000 -4.155292
v -4.193184 0.020000 -4.051765
v -4.579555 0.020000 -4.155292
v -4.554327 0.000000 -4.229610
v -4.184775 0.020000 -4.076538
v -4.554327 0.020000 -4.229610
v -4.519615 0.000000 -4.300000
v -4.173204 0.020000 -4.100001
v -4.519615 0.020000 -4.300000
v -4.476012 0.000000 -4.365257
v -4.158670 0.020000 -4.121753
v -4.476012 0.020000 -4.365257
v -4.000000 0.020000 -4.000001
v -4.424263 0.000000 -4.424264
v -4.141421 0.020000 -4.141422
v -4.424263 0.020000 -4.424264
v -4.365257 0.000000 -4.476012
v -4.121752 0.020000 -4.158671
v -4.365257 0.020000 -4.476012
v -4.300000 0.000000 -4.519616
v -4.100000 0.020000 -4.173206
v -4.300000 0.020000 -4.519616
v -4.229610 0.000000 -4.554328
v -4.076537 0.020000 -4.184777
v -4.229610 0.020000 -4.554328
v -4.155292 0.000000 -4.579556
v -4.000000 0.000000 -4.000001
v -4.051764 0.020000 -4.193186
v -4.155292 0.020000 -4.579556
v -4.078316 0.000000 -4.594867
v -4.026105 0.020000 -4.198289
v -4.078316 0.020000 -4.594867
v -4.000000 0.000000 -4.600000
v -4.000000 0.020000 -4.200000
v -4.000000 0.020000 -4.600000
vt 0.277116 0.529397
vt 0.277116 0.601316
vt 0.247334 0.601316
vt 0.247334 0.529397
vt 0.217551 0.601316
vt 0.217551 0.529397
vt 0.187769 0.601316
vt 0.187769 0.529397
vt -0.023569 0.529397
vt -0.023569 0.601316
vt 0.006215 0.601316
vt 0.006215 0.529397
vt 0.035998 0.601316
vt 0.035998 0.529397
vt 0.065780 0.601316
vt 0.065780 0.529397
vt 0.095563 0.601316
vt 0.095563 0.529397
vt 0.125346 0.601316
vt 0.125346 0.529397
vt 0.155128 0.601316
vt 0.155128 0.529397
vt 0.184912 0.601316
vt 0.184911 0.529397
vt 0.214694 0.601316
vt 0.214694 0.529397
vt 0.244478 0.601316
vt 0.244476 0.529397
vt 0.246998 0.938138
vt 0.246998 0.938138
vt 0.246998 0.938138
vt 0.246998 0.938138
vt 0.246998 0.938138
vt 0.246998 0.938138
vt 0.246998 0.938138
vt 0.246998 0.938138
vt 0.246998 0.938138
vt 0.246998 0.938138
vt 0.246998 0.938138
vt 0.246998 0.938138
vt 0.246998 0.938138
vt 0.246998 0.938138
vt 0.246998 0.938138
vt 0.246998 0.938138
vt 0.246998 0.938138
vt 0.246998 0.938138
vt 0.246998 0.938138
vt 0.246998 0.938138
vt 0.246998 0.938138
vt 0.246998 0.938138
vt 0.246998 0.938138
vt 0.246998 0.938138
vt 0.246998 0.938138
vt 0.246998 0.938138
vt 0.484942 0.366714
vt 0.481854 0.407993
vt 0.481854 0.366714
vt 0.488030 0.366714
vt 0.484942 0.407993
vt 0.491117 0.366714
vt 0.488030 0.407993
vt 0.494206 0.366714
vt 0.491117 0.407993
vt 0.497294 0.366714
vt 0.494206 0.407993
vt 0.500381 0.366714
vt 0.497294 0.407993
vt 0.503469 0.366714
vt 0.500381 0.407993
vt 0.506556 0.366714
vt 0.503469 0.407993
vt 0.509644 0.366714
vt 0.506556 0.407993
vt 0.512732 0.366714
vt 0.509644 0.407993
vt 0.515819 0.366714
vt 0.512732 0.407993
vt 0.518907 0.366714
vt 0.515819 0.407993
vn 0.0000 1.0000 0.0000
vn -0.9979 0.0000 -0.0654
vn -0.9914 0.0000 -0.1305
vn -0.9659 0.0000 -0.2588
vn -0.9239 0.0000 -0.3827
vn -0.8660 0.0000 -0.5000
vn -0.7934 0.0000 -0.6088
vn -0.7071 0.0000 -0.7071
vn -0.6088 0.0000 -0.7934
vn -0.5000 0.0000 -0.8660
vn -0.3827 0.0000 -0.9239
vn -0.2588 0.0000 -0.9659
vn -0.1305 0.0000 -0.9914
vn -0.0654 0.0000 -0.9979
usemtl MI_Trim_01
s 1
f 3/1/1 2/2/1 5/3/1 6/4/1
f 6/4/1 5/3/1 8/5/1 9/6/1
f 9/6/1 8/5/1 11/7/1 12/8/1
f 12/9/1 11/10/1 14/11/1 15/12/1
f 15/12/1 14/11/1 17/13/1 18/14/1
f 18/14/1 17/13/1 21/15/1 22/16/1
f 22/16/1 21/15/1 24/17/1 25/18/1
f 25/18/1 24/17/1 27/19/1 28/20/1
f 28/20/1 27/19/1 30/21/1 31/22/1
f 31/22/1 30/21/1 34/23/1 35/24/1
f 35/24/1 34/23/1 37/25/1 38/26/1
f 38/26/1 37/25/1 40/27/1 41/28/1
usemtl MI_Trim_02
f 1/29/2 3/30/2 6/31/3 4/32/3
f 4/32/3 6/31/3 9/33/4 7/34/4
f 7/34/4 9/33/4 12/35/5 10/36/5
f 10/36/5 12/35/5 15/37/6 13/38/6
f 13/38/6 15/37/6 18/39/7 16/40/7
f 16/40/7 18/39/7 22/41/8 20/42/8
f 20/42/8 22/41/8 25/43/9 23/44/9
f 23/44/9 25/43/9 28/45/10 26/46/10
f 26/46/10 28/45/10 31/47/11 29/48/11
f 29/48/11 31/47/11 35/49/12 32/50/12
f 32/50/12 35/49/12 38/51/13 36/52/13
f 36/52/13 38/51/13 41/53/14 39/54/14
f 37/55/1 19/56/1 40/57/1
f 34/58/1 19/59/1 37/55/1
f 30/60/1 19/61/1 34/58/1
f 27/62/1 19/63/1 30/60/1
f 24/64/1 19/65/1 27/62/1
f 21/66/1 19/67/1 24/64/1
f 17/68/1 19/69/1 21/66/1
f 14/70/1 19/71/1 17/68/1
f 11/72/1 19/73/1 14/70/1
f 8/74/1 19/75/1 11/72/1
f 5/76/1 19/77/1 8/74/1
f 2/78/1 19/79/1 5/76/1
l 19 33
