# Blender v3.6.0 OBJ File: 'AllModules_Unreal.blend'
# www.blender.org
mtllib BottomAccent_Corner_Square_Outer_2.mtl
o BottomAccent_Corner_Square_Outer_2_Plane.195
v -4.599999 0.000000 -4.599999
v -4.599999 0.020000 -4.599999
v -4.000000 0.020000 -4.000000
v -4.200000 0.020000 -4.199999
v -4.599999 0.000000 -4.000000
v -4.599999 0.020000 -4.000000
v -4.199999 0.020000 -4.000000
v -4.000000 0.020000 -4.199999
v -4.000000 0.000000 -4.599999
v -4.000000 0.020000 -4.599999
vt 0.792259 0.601949
vt 0.820900 0.530165
vt 0.766260 0.530165
vt 0.766260 0.601949
vt 0.798760 0.601949
vt 0.748034 0.601949
vt 0.748034 0.530165
vt 0.770119 0.530165
vt 0.246998 0.938138
vt 0.305383 0.938138
vt 0.305383 0.938138
vt 0.246998 0.938138
vt 0.385840 0.367197
vt 0.371433 0.407992
vt 0.371433 0.367197
vt 0.305383 0.938138
vt 0.305383 0.938138
vt 0.385840 0.367197
vn 0.0000 1.0000 0.0000
vn -0.7071 0.0000 -0.7071
vn -1.0000 0.0000 0.0000
vn 0.0000 0.0000 -1.0000
usemtl MI_Trim_01
s 1
f 4/1/1 2/2/1 6/3/1 7/4/1
f 4/5/1 8/6/1 10/7/1 2/8/1
usemtl MI_Trim_02
f 1/9/2 5/10/3 6/11/3 2/12/2
f 7/13/1 3/14/1 4/15/1
f 1/9/2 2/12/2 10/16/4 9/17/4
f 8/18/1 4/15/1 3/14/1
