# Blender v3.6.0 OBJ File: 'AllModules_Unreal.blend'
# www.blender.org
mtllib BottomAccent_Corner_Square_Inner.mtl
o BottomAccent_Corner_Square_Inner_Plane.086
v -4.000000 0.000000 -2.000000
v -4.000000 0.000000 0.000000
v -3.800000 0.020000 -2.000000
v -4.000000 0.020000 -2.000000
v -4.000000 0.020000 0.000000
v -4.000000 0.020000 -4.000000
v -4.000000 0.000000 -4.000000
v -2.000000 0.000000 -4.000000
v -0.000000 -0.000000 -4.000000
v -2.000000 0.020000 -4.000000
v -0.000000 0.020000 -4.000000
v -3.824894 0.020000 -4.000000
v -4.000000 0.020000 -3.848004
v -3.400000 -0.000000 -3.400000
v -3.400000 0.000000 -2.000000
v -3.400000 0.000000 0.000000
v -3.800000 0.020000 -3.800000
v -3.400000 0.020000 0.000000
v -3.400000 0.020000 -2.000000
v -3.800000 0.020000 0.000000
v -0.000000 -0.000000 -3.400000
v -2.000000 0.000000 -3.400000
v -3.400001 0.020000 -3.400000
v -2.000000 0.020000 -3.400000
v -0.000000 0.020000 -3.400000
v -2.000000 0.020000 -3.800000
v -0.000000 0.020000 -3.800000
vt 0.741550 0.026098
vt 0.534509 0.026098
vt 0.534509 0.026098
vt 0.725816 0.026098
vt 0.741550 0.026098
vt 0.327468 0.026098
vt 0.327468 0.026098
vt 0.741550 0.026098
vt 0.534509 0.026098
vt 0.534509 0.026098
vt 0.741550 0.026098
vt 0.327468 0.026098
vt 0.327468 0.026098
vt 0.345595 0.026098
vt 0.500000 0.601208
vt 0.500000 0.529394
vt 0.753002 0.529394
vt 0.804067 0.601208
vt 0.246998 0.601208
vt 0.246998 0.529394
vt 0.500000 0.601208
vt 0.500000 0.529394
vt 0.753002 0.529394
vt 0.753002 0.601208
vt 0.195932 0.601208
vt 0.246998 0.529394
vt -0.085133 0.408267
vt -0.085133 0.366901
vt 0.250211 0.366901
vt 0.250211 0.408267
vt 0.585555 0.366901
vt 0.594905 0.408267
vt -0.114169 0.408267
vt -0.101939 0.366901
vt -0.100814 0.408267
vt 0.250211 0.408267
vt 0.250211 0.366901
vt 0.585555 0.366901
vt 0.585555 0.408267
vt -0.090172 0.408267
vt -0.085133 0.366901
vt 0.581703 0.408267
vt 0.582068 0.366901
vt 0.596850 0.408267
vt 0.245567 0.381853
vt 0.500000 0.381853
vt 0.500000 0.374905
vt 0.245567 0.374905
vt 0.754433 0.381853
vt 0.754433 0.374905
vt 0.500000 0.374905
vt 0.754433 0.374905
vt 0.754433 0.374905
vt 0.500000 0.374905
vt 0.245567 0.374905
vt 0.245567 0.374905
vn -0.4787 -0.7065 -0.5213
vn -1.0000 0.0000 0.0000
vn -0.6201 -0.6864 -0.3799
vn 0.0000 0.0000 -1.0000
vn -0.0000 1.0000 -0.0000
vn 1.0000 0.0000 0.0000
vn 0.6994 -0.6484 0.3006
vn 0.2938 -0.6442 0.7062
vn -0.0000 0.0000 1.0000
usemtl MI_Trim_01
s 1
f 7/1/1 1/2/2 4/3/2 13/4/2 6/5/3
f 1/2/2 2/6/2 5/7/2 4/3/2
f 9/8/4 8/9/4 10/10/4 11/11/4
f 8/9/4 7/12/1 6/13/3 12/14/4 10/10/4
f 3/15/5 19/16/5 23/17/5 17/18/5
f 20/19/5 18/20/5 19/16/5 3/15/5
f 26/21/5 24/22/5 25/23/5 27/24/5
f 17/25/5 23/26/5 24/22/5 26/21/5
usemtl MI_Trim_02
f 5/27/5 20/28/5 3/29/5 4/30/5
f 4/30/5 3/29/5 17/31/5 13/32/5
f 6/33/5 17/34/5 12/35/5
f 10/36/5 26/37/5 27/38/5 11/39/5
f 12/40/5 17/41/5 26/37/5 10/36/5
f 13/42/5 17/43/5 6/44/5
f 16/45/6 15/46/6 19/47/6 18/48/6
f 15/46/6 14/49/7 23/50/8 19/47/6
f 22/51/9 21/52/9 25/53/9 24/54/9
f 14/55/7 22/51/9 24/54/9 23/56/8
