# Blender v3.6.0 OBJ File: 'AllModules_Unreal.blend'
# www.blender.org
mtllib BottomAccent_Corner_Round_Inner.mtl
o BottomAccent_Corner_Round_Inner_Plane.034
v -1.300764 0.000000 -3.140396
v -2.403916 -0.000000 -2.403928
v 0.000001 -0.000000 -3.400000
v -1.453868 0.020000 -3.509935
v 0.000001 0.020000 -3.800000
v -2.403916 0.020000 -2.403928
v -1.300764 0.020000 -3.140396
v 0.000001 0.020000 -3.400000
v -0.985946 0.000000 -3.249227
v -0.662509 0.000000 -3.326573
v -0.333456 0.000000 -3.376462
v -0.372198 0.020000 -3.774582
v -0.985946 0.020000 -3.249227
v -0.662509 0.020000 -3.326573
v -0.333456 0.020000 -3.376462
v -1.884031 -0.000000 -2.820572
v -1.599462 -0.000000 -2.993006
v -2.152748 0.000000 -2.623865
v -2.406643 0.020000 -2.932956
v -2.106476 0.020000 -3.153015
v -2.152748 0.020000 -2.623865
v -1.884031 0.020000 -2.820572
v -1.599462 0.020000 -2.993006
v -1.530420 0.000000 -3.694705
v -2.828179 -0.000000 -2.828193
v 0.000001 0.000000 -4.000000
v -1.530420 0.020000 -3.694705
v -2.828179 0.020000 -2.828193
v -2.686758 0.020000 -2.686772
v 0.000001 0.020000 -4.000000
v -2.217698 0.000000 -3.319237
v -1.882586 -0.000000 -3.522005
v -2.533591 0.000000 -3.087501
v -2.533591 0.020000 -3.087501
v -2.217698 0.020000 -3.319237
v -1.882586 0.020000 -3.522005
v -1.788211 0.020000 -3.345672
v -1.159708 -0.000000 -3.823516
v -0.778796 0.000000 -3.915197
v -0.391568 0.000000 -3.973642
v -1.101787 0.020000 -3.632086
v -0.740034 0.020000 -3.718989
v -1.159708 0.020000 -3.823516
v -0.778796 0.020000 -3.915197
v -0.391568 0.020000 -3.973642
v -3.140390 -0.000000 -1.300782
v -3.399997 -0.000000 -0.000019
v -3.799997 0.020000 -0.000021
v -3.509928 0.020000 -1.453889
v -3.399997 0.020000 -0.000019
v -3.140390 0.020000 -1.300782
v -2.992997 -0.000000 -1.599479
v -2.623854 0.000000 -2.152761
v -2.820563 -0.000000 -1.884046
v -3.345662 0.020000 -1.788231
v -3.153005 0.020000 -2.106492
v -2.932944 0.020000 -2.406659
v -2.992997 0.020000 -1.599479
v -2.820563 0.020000 -1.884046
v -2.623854 0.020000 -2.152761
v -3.376461 -0.000000 -0.333476
v -3.326570 -0.000000 -0.662527
v -3.249222 -0.000000 -0.985963
v -3.718984 0.020000 -0.740054
v -3.632080 0.020000 -1.101806
v -3.376461 0.020000 -0.333476
v -3.326569 0.020000 -0.662527
v -3.249222 0.020000 -0.985962
v -3.694698 -0.000000 -1.530442
v -3.999997 -0.000000 -0.000022
v -3.694698 0.020000 -1.530442
v -3.999997 0.020000 -0.000022
v -3.973639 0.000000 -0.391590
v -3.915192 0.000000 -0.778817
v -3.823509 -0.000000 -1.159728
v -3.973639 0.020000 -0.391590
v -3.915192 0.020000 -0.778817
v -3.823509 0.020000 -1.159728
v -3.774580 0.020000 -0.372218
v -3.521995 -0.000000 -1.882607
v -3.087488 -0.000000 -2.533608
v -3.319226 0.000000 -2.217716
v -3.521995 0.020000 -1.882607
v -3.319226 0.020000 -2.217716
v -3.087488 0.020000 -2.533608
vt 0.439121 0.381938
vt 0.500000 0.381938
vt 0.500000 0.375467
vt 0.439121 0.375467
vt 0.682636 0.381938
vt 0.743514 0.381938
vt 0.743514 0.375467
vt 0.682636 0.375467
vt 0.560879 0.381938
vt 0.560879 0.375467
vt 0.621757 0.381938
vt 0.621757 0.375467
vt 0.256486 0.381938
vt 0.317364 0.381938
vt 0.317364 0.375467
vt 0.256486 0.375467
vt 0.378243 0.381938
vt 0.378243 0.375467
vt 0.198949 0.408211
vt 0.198949 0.366801
vt 0.259771 0.366801
vt 0.259771 0.408211
vt 0.442238 0.408211
vt 0.442238 0.366801
vt 0.503060 0.366801
vt 0.503060 0.408211
vt 0.016483 0.408211
vt 0.016483 0.366801
vt 0.077305 0.366801
vt 0.077305 0.408211
vt 0.138127 0.366801
vt 0.138127 0.408211
vt 0.320593 0.366801
vt 0.320594 0.408211
vt 0.381416 0.366801
vt 0.381416 0.408211
vt 0.439121 0.381938
vt 0.500000 0.381938
vt 0.500000 0.375467
vt 0.439121 0.375467
vt 0.682636 0.381938
vt 0.743514 0.381938
vt 0.743514 0.375467
vt 0.682636 0.375467
vt 0.560879 0.381938
vt 0.560879 0.375467
vt 0.621757 0.381938
vt 0.621757 0.375467
vt 0.256486 0.381938
vt 0.317364 0.381938
vt 0.317364 0.375467
vt 0.256486 0.375467
vt 0.378243 0.381938
vt 0.378243 0.375467
vt 0.198949 0.408211
vt 0.198949 0.366801
vt 0.259771 0.366801
vt 0.259771 0.408211
vt 0.442238 0.408211
vt 0.442238 0.366801
vt 0.503060 0.366801
vt 0.503060 0.408211
vt 0.016483 0.408211
vt 0.016483 0.366801
vt 0.077305 0.366801
vt 0.077305 0.408211
vt 0.138127 0.366801
vt 0.138127 0.408211
vt 0.320593 0.366801
vt 0.320594 0.408211
vt 0.381416 0.366801
vt 0.381416 0.408211
vt 0.694101 0.601306
vt 0.694101 0.529404
vt 0.758801 0.529404
vt 0.758801 0.601306
vt 0.435300 0.601306
vt 0.435300 0.529404
vt 0.500000 0.529404
vt 0.500000 0.601306
vt 0.564700 0.529404
vt 0.564700 0.601306
vt 0.629401 0.529404
vt 0.629400 0.601306
vt 0.241199 0.601306
vt 0.241199 0.529404
vt 0.305899 0.529404
vt 0.305899 0.601306
vt 0.370599 0.529404
vt 0.370599 0.601306
vt 0.586269 0.026098
vt 0.534509 0.026098
vt 0.534509 0.026098
vt 0.586269 0.026098
vt 0.379228 0.026098
vt 0.327468 0.026098
vt 0.327468 0.026098
vt 0.379228 0.026098
vt 0.482749 0.026098
vt 0.482749 0.026098
vt 0.430988 0.026098
vt 0.430988 0.026098
vt 0.741550 0.026098
vt 0.689790 0.026098
vt 0.689790 0.026098
vt 0.741550 0.026098
vt 0.638030 0.026098
vt 0.638030 0.026098
vt 0.694101 0.601306
vt 0.694101 0.529404
vt 0.758801 0.529404
vt 0.758801 0.601306
vt 0.435300 0.601306
vt 0.435300 0.529404
vt 0.500000 0.529404
vt 0.500000 0.601306
vt 0.564700 0.529404
vt 0.564700 0.601306
vt 0.629401 0.529404
vt 0.629400 0.601306
vt 0.241199 0.601306
vt 0.241199 0.529404
vt 0.305899 0.529404
vt 0.305899 0.601306
vt 0.370599 0.529404
vt 0.370599 0.601306
vt 0.586269 0.026098
vt 0.534509 0.026098
vt 0.534509 0.026098
vt 0.586269 0.026098
vt 0.379228 0.026098
vt 0.327468 0.026098
vt 0.327468 0.026098
vt 0.379228 0.026098
vt 0.482749 0.026098
vt 0.482749 0.026098
vt 0.430988 0.026098
vt 0.430988 0.026098
vt 0.741550 0.026098
vt 0.689790 0.026098
vt 0.689790 0.026098
vt 0.741550 0.026098
vt 0.638030 0.026098
vt 0.638030 0.026098
vn 0.4808 -0.0000 0.8768
vn 0.3854 -0.0000 0.9228
vn 0.1102 -0.0000 0.9939
vn 0.0704 -0.0000 0.9975
vn 0.2800 -0.0000 0.9600
vn 0.1914 -0.0000 0.9815
vn 0.7071 0.0000 0.7071
vn 0.6253 0.0000 0.7804
vn 0.5550 0.0000 0.8319
vn 0.0000 1.0000 0.0000
vn 0.9600 0.0000 0.2800
vn 0.9228 0.0000 0.3854
vn 0.7804 0.0000 0.6253
vn 0.8768 0.0000 0.4808
vn 0.8319 0.0000 0.5550
vn 0.9975 0.0000 0.0704
vn 0.9939 0.0000 0.1102
vn 0.9815 0.0000 0.1914
vn -0.2815 0.0000 -0.9596
vn -0.3850 0.0000 -0.9229
vn -0.6267 0.0000 -0.7792
vn -0.7071 0.0000 -0.7071
vn -0.4795 0.0000 -0.8776
vn -0.5551 0.0000 -0.8318
vn -0.0672 0.0000 -0.9977
vn -0.1083 0.0000 -0.9941
vn -0.1918 0.0000 -0.9814
vn -0.8776 0.0000 -0.4795
vn -0.9229 0.0000 -0.3850
vn -0.9941 0.0000 -0.1083
vn -0.9977 0.0000 -0.0672
vn -0.9596 0.0000 -0.2815
vn -0.9814 0.0000 -0.1918
vn -0.7792 0.0000 -0.6267
vn -0.8318 0.0000 -0.5551
usemtl MI_Trim_02
s 1
f 17/1/1 1/2/2 7/3/2 23/4/1
f 11/5/3 3/6/4 8/7/4 15/8/3
f 1/2/2 9/9/5 13/10/5 7/3/2
f 9/9/5 10/11/6 14/12/6 13/10/5
f 10/11/6 11/5/3 15/8/3 14/12/6
f 2/13/7 18/14/8 21/15/8 6/16/7
f 18/14/8 16/17/9 22/18/9 21/15/8
f 16/17/9 17/1/1 23/4/1 22/18/9
f 36/19/10 37/20/10 4/21/10 27/22/10
f 45/23/10 12/24/10 5/25/10 30/26/10
f 28/27/10 29/28/10 19/29/10 34/30/10
f 34/30/10 19/29/10 20/31/10 35/32/10
f 35/32/10 20/31/10 37/20/10 36/19/10
f 27/22/10 4/21/10 41/33/10 43/34/10
f 43/34/10 41/33/10 42/35/10 44/36/10
f 44/36/10 42/35/10 12/24/10 45/23/10
f 63/37/11 46/38/12 51/39/12 68/40/11
f 53/41/13 2/42/7 6/43/7 60/44/13
f 46/38/12 52/45/14 58/46/14 51/39/12
f 52/45/14 54/47/15 59/48/15 58/46/14
f 54/47/15 53/41/13 60/44/13 59/48/15
f 47/49/16 61/50/17 66/51/17 50/52/16
f 61/50/17 62/53/18 67/54/18 66/51/17
f 62/53/18 63/37/11 68/40/11 67/54/18
f 78/55/10 65/56/10 49/57/10 71/58/10
f 85/59/10 57/60/10 29/61/10 28/62/10
f 72/63/10 48/64/10 79/65/10 76/66/10
f 76/66/10 79/65/10 64/67/10 77/68/10
f 77/68/10 64/67/10 65/56/10 78/55/10
f 71/58/10 49/57/10 55/69/10 83/70/10
f 83/70/10 55/69/10 56/71/10 84/72/10
f 84/72/10 56/71/10 57/60/10 85/59/10
usemtl MI_Trim_01
f 12/73/10 15/74/10 8/75/10 5/76/10
f 37/77/10 23/78/10 7/79/10 4/80/10
f 4/80/10 7/79/10 13/81/10 41/82/10
f 41/82/10 13/81/10 14/83/10 42/84/10
f 42/84/10 14/83/10 15/74/10 12/73/10
f 29/85/10 6/86/10 21/87/10 19/88/10
f 19/88/10 21/87/10 22/89/10 20/90/10
f 20/90/10 22/89/10 23/78/10 37/77/10
f 38/91/19 24/92/20 27/93/20 43/94/19
f 33/95/21 25/96/22 28/97/22 34/98/21
f 24/92/20 32/99/23 36/100/23 27/93/20
f 32/99/23 31/101/24 35/102/24 36/100/23
f 31/101/24 33/95/21 34/98/21 35/102/24
f 26/103/25 40/104/26 45/105/26 30/106/25
f 40/104/26 39/107/27 44/108/27 45/105/26
f 39/107/27 38/91/19 43/94/19 44/108/27
f 57/109/10 60/110/10 6/111/10 29/112/10
f 65/113/10 68/114/10 51/115/10 49/116/10
f 49/116/10 51/115/10 58/117/10 55/118/10
f 55/118/10 58/117/10 59/119/10 56/120/10
f 56/120/10 59/119/10 60/110/10 57/109/10
f 48/121/10 50/122/10 66/123/10 79/124/10
f 79/124/10 66/123/10 67/125/10 64/126/10
f 64/126/10 67/125/10 68/114/10 65/113/10
f 80/127/28 69/128/29 71/129/29 83/130/28
f 73/131/30 70/132/31 72/133/31 76/134/30
f 69/128/29 75/135/32 78/136/32 71/129/29
f 75/135/32 74/137/33 77/138/33 78/136/32
f 74/137/33 73/131/30 76/134/30 77/138/33
f 25/139/22 81/140/34 85/141/34 28/142/22
f 81/140/34 82/143/35 84/144/35 85/141/34
f 82/143/35 80/127/28 83/130/28 84/144/35
