# Blender v3.6.0 OBJ File: 'AllModules_Unreal.blend'
# www.blender.org
mtllib BottomAccent_Straight.mtl
o BottomAccent_Straight_Plane.004
v -1.400000 0.000000 2.000000
v -2.000000 0.000000 2.000000
v -1.400000 0.000000 0.000000
v -1.400000 -0.000000 -2.000000
v -2.000000 0.000000 0.000000
v -2.000000 -0.000000 -2.000000
v -1.800000 0.020000 2.000000
v -1.800000 0.020000 0.000000
v -1.800000 0.020000 -2.000000
v -1.400000 0.020000 2.000000
v -1.400000 0.020000 0.000000
v -1.400000 0.020000 -2.000000
v -2.000000 0.020000 0.000000
v -2.000000 0.020000 2.000000
v -2.000000 0.020000 -2.000000
vt 0.500000 0.601342
vt 0.500000 0.529259
vt 0.754521 0.529259
vt 0.754521 0.601342
vt 0.245479 0.601342
vt 0.245479 0.529259
vt 0.741550 0.026098
vt 0.534509 0.026098
vt 0.534509 0.026098
vt 0.741550 0.026098
vt 0.327468 0.026098
vt 0.327468 0.026098
vt 0.259241 0.384668
vt 0.500000 0.384668
vt 0.500000 0.378097
vt 0.259241 0.378097
vt -0.037634 0.408098
vt -0.037634 0.366675
vt 0.248542 0.366675
vt 0.248542 0.408098
vt 0.534717 0.366675
vt 0.534717 0.408098
vt 0.740759 0.384668
vt 0.740759 0.378097
vn 0.0000 1.0000 -0.0000
vn -1.0000 0.0000 -0.0000
vn 1.0000 0.0000 0.0000
usemtl MI_Trim_01
s 1
f 8/1/1 11/2/1 12/3/1 9/4/1
f 7/5/1 10/6/1 11/2/1 8/1/1
f 6/7/2 5/8/2 13/9/2 15/10/2
f 5/8/2 2/11/2 14/12/2 13/9/2
usemtl MI_Trim_02
f 1/13/3 3/14/3 11/15/3 10/16/3
f 14/17/1 7/18/1 8/19/1 13/20/1
f 13/20/1 8/19/1 9/21/1 15/22/1
f 3/14/3 4/23/3 12/24/3 11/15/3
