# Blender v3.6.0 OBJ File: 'AllModules_Unreal.blend'
# www.blender.org
mtllib BottomAccent_Corner_Round_Outer.mtl
o BottomAccent_Corner_Round_Outer_Plane.064
v 0.000000 0.000000 -4.600000
v -1.761316 -0.000000 -4.250387
v -3.252921 -0.000001 -3.252944
v -1.608212 0.020000 -3.880847
v -3.252921 0.020000 -3.252944
v -1.761315 0.020000 -4.250387
v 0.000000 0.020000 -4.600000
v -1.330880 -0.000000 -4.407948
v -0.887976 -0.000000 -4.521740
v -0.441349 0.000000 -4.585929
v -0.402609 0.020000 -4.187810
v -1.330880 0.020000 -4.407949
v -0.887976 0.020000 -4.521740
v -0.441349 0.020000 -4.585929
v -2.925168 0.000000 -3.557947
v -2.564865 -0.000000 -3.828288
v -2.175538 0.000000 -4.060318
v -1.986788 0.020000 -3.707653
v -2.925168 0.020000 -3.557947
v -2.564865 0.020000 -3.828289
v -2.175538 0.020000 -4.060318
v -1.531660 0.020000 -3.696078
v -0.000000 0.020000 -4.200000
v -0.000001 0.020000 -4.000000
v -2.544324 0.020000 -3.094310
v -2.231197 0.020000 -3.329623
v -1.892413 0.020000 -3.531320
v -2.671272 0.020000 -3.248856
v -2.342419 0.020000 -3.495844
v -1.215038 0.020000 -4.025090
v -0.810451 0.020000 -4.129324
v -1.157118 0.020000 -3.833660
v -0.771689 0.020000 -3.933115
v -0.383239 0.020000 -3.988750
v -1.512251 -0.000000 -3.649231
v -0.000001 0.000000 -3.949293
v -0.000001 0.020000 -3.949292
v -1.868486 0.000000 -3.486613
v -0.378328 -0.000000 -3.938281
v -2.792803 -0.000001 -2.792824
v -1.868486 0.020000 -3.486613
v -1.512251 0.020000 -3.649231
v -0.378328 0.020000 -3.938281
v -2.792803 0.020000 -2.792824
v -2.512138 -0.000000 -3.055127
v -2.202998 -0.000000 -3.287480
v -2.512138 0.020000 -3.055127
v -2.202998 0.020000 -3.287480
v -0.761862 -0.000000 -3.883370
v -1.142433 0.000000 -3.785125
v -1.142433 0.020000 -3.785125
v -0.761862 0.019999 -3.883370
v -4.600002 -0.000000 -0.000022
v -4.250373 -0.000000 -1.761346
v -3.880835 0.020000 -1.608240
v -4.600003 0.019999 -0.000022
v -4.250373 0.020000 -1.761346
v -3.828269 -0.000000 -2.564892
v -4.060304 0.000000 -2.175565
v -3.557926 -0.000000 -2.925193
v -3.707639 0.020000 -1.986813
v -4.060304 0.020000 -2.175565
v -3.828269 0.020000 -2.564892
v -3.557925 0.020000 -2.925193
v -4.585928 -0.000001 -0.441374
v -4.521733 -0.000000 -0.888006
v -4.407939 -0.000001 -1.330910
v -4.187808 0.019999 -0.402631
v -4.129317 0.019999 -0.810479
v -4.585927 0.019999 -0.441374
v -4.521732 0.019999 -0.888006
v -4.407938 0.020000 -1.330910
v -3.696065 0.020000 -1.531687
v -4.000003 0.019999 -0.000019
v -4.200004 0.019999 -0.000020
v -2.970078 0.020000 -2.970100
v -2.828657 0.020000 -2.828678
v -3.988747 0.019999 -0.383260
v -3.933110 0.019999 -0.771716
v -3.833652 0.020000 -1.157145
v -4.025081 0.019999 -1.215067
v -3.495828 0.019999 -2.342444
v -3.248837 0.020000 -2.671295
v -3.531306 0.020000 -1.892437
v -3.329607 0.019999 -2.231220
v -3.094292 0.020000 -2.544346
v -3.785118 -0.000000 -1.142459
v -3.649220 -0.000000 -1.512278
v -3.055110 0.000000 -2.512160
v -3.949296 -0.000001 -0.000019
v -3.785118 0.019999 -1.142460
v -3.649220 0.020000 -1.512277
v -3.055110 0.020000 -2.512159
v -3.949296 0.019999 -0.000019
v -3.938278 -0.000001 -0.378348
v -3.883364 -0.000001 -0.761888
v -3.938278 0.019999 -0.378348
v -3.883364 0.019999 -0.761888
v -3.486599 -0.000000 -1.868509
v -3.287464 -0.000001 -2.203020
v -3.486599 0.020000 -1.868509
v -3.287464 0.019999 -2.203020
vt 0.436749 0.938138
vt 0.436749 0.938138
vt 0.500000 0.938138
vt 0.500000 0.938138
vt 0.689752 0.938138
vt 0.689752 0.938138
vt 0.753002 0.938138
vt 0.753002 0.938138
vt 0.563251 0.938138
vt 0.563251 0.938138
vt 0.626501 0.938138
vt 0.626501 0.938138
vt 0.246998 0.938138
vt 0.246998 0.938138
vt 0.310248 0.938138
vt 0.310248 0.938138
vt 0.373499 0.938138
vt 0.373499 0.938138
vt 0.362096 0.407939
vt 0.445246 0.407939
vt 0.445246 0.366912
vt 0.362096 0.366912
vt 0.694698 0.407939
vt 0.777848 0.407939
vt 0.777848 0.366912
vt 0.694697 0.366912
vt 0.112645 0.407939
vt 0.195795 0.407939
vt 0.195795 0.366912
vt 0.112645 0.366912
vt 0.278946 0.407939
vt 0.278945 0.366912
vt 0.528397 0.407939
vt 0.528397 0.366912
vt 0.611547 0.407939
vt 0.611547 0.366912
vt 0.581841 0.372748
vt 0.581841 0.382856
vt 0.514498 0.382856
vt 0.514498 0.372748
vt 0.312469 0.372748
vt 0.312469 0.382856
vt 0.245125 0.382856
vt 0.245125 0.372748
vt 0.447155 0.382856
vt 0.447155 0.372748
vt 0.379812 0.382856
vt 0.379812 0.372748
vt 0.783870 0.372748
vt 0.783870 0.382856
vt 0.716527 0.382856
vt 0.716527 0.372748
vt 0.649184 0.382856
vt 0.649184 0.372748
vt 0.438786 0.937256
vt 0.438786 0.944315
vt 0.500000 0.944315
vt 0.500000 0.937256
vt 0.683643 0.937256
vt 0.683643 0.944315
vt 0.744857 0.944315
vt 0.744857 0.937256
vt 0.561214 0.944315
vt 0.561214 0.937256
vt 0.622429 0.944315
vt 0.622429 0.937256
vt 0.255143 0.937256
vt 0.255143 0.944315
vt 0.316357 0.944315
vt 0.316357 0.937256
vt 0.377571 0.944315
vt 0.377571 0.937256
vt 0.362096 0.407939
vt 0.445246 0.407939
vt 0.445246 0.366912
vt 0.362096 0.366912
vt 0.694698 0.407939
vt 0.777848 0.407939
vt 0.777848 0.366912
vt 0.694697 0.366912
vt 0.112645 0.407939
vt 0.195795 0.407939
vt 0.195795 0.366912
vt 0.112645 0.366912
vt 0.278946 0.407939
vt 0.278945 0.366912
vt 0.528397 0.407939
vt 0.528397 0.366912
vt 0.611547 0.407939
vt 0.611547 0.366912
vt 0.581841 0.372748
vt 0.581841 0.382856
vt 0.514498 0.382856
vt 0.514498 0.372748
vt 0.312469 0.372748
vt 0.312469 0.382856
vt 0.245125 0.382856
vt 0.245125 0.372748
vt 0.447155 0.382856
vt 0.447155 0.372748
vt 0.379812 0.382856
vt 0.379812 0.372748
vt 0.783870 0.372748
vt 0.783870 0.382856
vt 0.716527 0.382856
vt 0.716527 0.372748
vt 0.649184 0.382856
vt 0.649184 0.372748
vt 0.706029 0.601128
vt 0.751505 0.601128
vt 0.751506 0.529136
vt 0.706029 0.529136
vt 0.524123 0.601128
vt 0.569599 0.601128
vt 0.569599 0.529136
vt 0.524123 0.529136
vt 0.615076 0.601128
vt 0.615076 0.529136
vt 0.660552 0.601128
vt 0.660553 0.529136
vt 0.387693 0.601128
vt 0.433170 0.601128
vt 0.433170 0.529136
vt 0.387693 0.529136
vt 0.478646 0.601128
vt 0.478646 0.529136
vt 0.467189 0.071839
vt 0.467189 0.062759
vt 0.423927 0.062759
vt 0.423927 0.071839
vt 0.596974 0.071839
vt 0.596974 0.062759
vt 0.553713 0.062759
vt 0.553713 0.071839
vt 0.510451 0.071839
vt 0.510451 0.062759
vt 0.640236 0.071839
vt 0.640236 0.062759
vt 0.683498 0.071839
vt 0.683498 0.062759
vt 0.380665 0.062759
vt 0.380665 0.071839
vt 0.337404 0.062759
vt 0.337404 0.071839
vt 0.467189 0.071839
vt 0.467189 0.062759
vt 0.423927 0.062759
vt 0.423927 0.071839
vt 0.596974 0.071839
vt 0.596974 0.062759
vt 0.553713 0.062759
vt 0.553713 0.071839
vt 0.510451 0.071839
vt 0.510451 0.062759
vt 0.640236 0.071839
vt 0.640236 0.062759
vt 0.683498 0.071839
vt 0.683498 0.062759
vt 0.380665 0.062759
vt 0.380665 0.071839
vt 0.337404 0.062759
vt 0.337404 0.071839
vt 0.660552 0.601128
vt 0.615076 0.601128
vt 0.615076 0.529136
vt 0.660552 0.529136
vt 0.706029 0.601128
vt 0.706029 0.529136
vt 0.751505 0.601128
vt 0.751505 0.529136
vt 0.478646 0.601128
vt 0.433169 0.601128
vt 0.433169 0.529136
vt 0.478646 0.529136
vt 0.524123 0.601128
vt 0.524123 0.529136
vt 0.569599 0.601128
vt 0.569599 0.529136
vn -0.4652 0.0000 -0.8852
vn -0.3807 -0.0000 -0.9247
vn -0.0872 0.0000 -0.9962
vn -0.0319 0.0000 -0.9995
vn -0.2967 -0.0000 -0.9550
vn -0.1958 -0.0000 -0.9806
vn -0.7071 0.0000 -0.7071
vn -0.6416 -0.0000 -0.7670
vn -0.5568 -0.0000 -0.8306
vn -0.0000 1.0000 -0.0000
vn 0.2978 0.0000 0.9546
vn 0.3804 0.0000 0.9248
vn 0.6427 0.0000 0.7661
vn 0.7071 0.0000 0.7071
vn 0.4641 0.0000 0.8858
vn 0.5570 0.0000 0.8305
vn 0.0291 -0.0000 0.9996
vn 0.0855 -0.0000 0.9963
vn 0.1961 0.0000 0.9806
vn -0.9550 0.0000 -0.2967
vn -0.9247 0.0000 -0.3807
vn -0.7670 0.0000 -0.6416
vn -0.8852 0.0000 -0.4652
vn -0.8306 0.0000 -0.5568
vn -0.8306 0.0000 -0.5569
vn -0.9995 0.0000 -0.0319
vn -0.9962 0.0000 -0.0872
vn -0.9806 0.0001 -0.1958
vn 0.8858 0.0000 0.4641
vn 0.9248 -0.0000 0.3804
vn 0.9963 0.0000 0.0856
vn 0.9996 0.0000 0.0291
vn 0.9546 -0.0000 0.2978
vn 0.9806 0.0000 0.1961
vn 0.7661 0.0000 0.6427
vn 0.8305 0.0000 0.5570
usemtl MI_Trim_02
s 1
f 17/1/1 21/2/1 6/3/2 2/4/2
f 10/5/3 14/6/3 7/7/4 1/8/4
f 2/4/2 6/3/2 12/9/5 8/10/5
f 8/10/5 12/9/5 13/11/6 9/12/6
f 9/12/6 13/11/6 14/6/3 10/5/3
f 3/13/7 5/14/7 19/15/8 15/16/8
f 15/16/8 19/15/8 20/17/9 16/18/9
f 16/18/9 20/17/9 21/2/1 17/1/1
f 27/19/10 22/20/10 4/21/10 18/22/10
f 34/23/10 24/24/10 23/25/10 11/26/10
f 77/27/10 25/28/10 28/29/10 76/30/10
f 25/28/10 26/31/10 29/32/10 28/29/10
f 26/31/10 27/19/10 18/22/10 29/32/10
f 22/20/10 32/33/10 30/34/10 4/21/10
f 32/33/10 33/35/10 31/36/10 30/34/10
f 33/35/10 34/23/10 11/26/10 31/36/10
f 50/37/11 51/38/11 42/39/12 35/40/12
f 45/41/13 47/42/13 44/43/14 40/44/14
f 35/40/12 42/39/12 41/45/15 38/46/15
f 38/46/15 41/45/15 48/47/16 46/48/16
f 46/48/16 48/47/16 47/42/13 45/41/13
f 36/49/17 37/50/17 43/51/18 39/52/18
f 39/52/18 43/51/18 52/53/19 49/54/19
f 49/54/19 52/53/19 51/38/11 50/37/11
f 67/55/20 72/56/20 57/57/21 54/58/21
f 60/59/22 64/60/22 5/61/7 3/62/7
f 54/58/21 57/57/21 62/63/23 59/64/23
f 59/64/23 62/63/23 63/65/24 58/66/25
f 58/66/25 63/65/24 64/60/22 60/59/22
f 53/67/26 56/68/26 70/69/27 65/70/27
f 65/70/27 70/69/27 71/71/28 66/72/28
f 66/72/28 71/71/28 72/56/20 67/55/20
f 80/73/10 73/74/10 55/75/10 81/76/10
f 86/77/10 77/78/10 76/79/10 83/80/10
f 74/81/10 78/82/10 68/83/10 75/84/10
f 78/82/10 79/85/10 69/86/10 68/83/10
f 79/85/10 80/73/10 81/76/10 69/86/10
f 73/74/10 84/87/10 61/88/10 55/75/10
f 84/87/10 85/89/10 82/90/10 61/88/10
f 85/89/10 86/77/10 83/80/10 82/90/10
f 99/91/29 101/92/29 92/93/30 88/94/30
f 95/95/31 97/96/31 94/97/32 90/98/32
f 88/94/30 92/93/30 91/99/33 87/100/33
f 87/100/33 91/99/33 98/101/34 96/102/34
f 96/102/34 98/101/34 97/96/31 95/95/31
f 40/103/14 44/104/14 93/105/35 89/106/35
f 89/106/35 93/105/35 102/107/36 100/108/36
f 100/108/36 102/107/36 101/92/29 99/91/29
usemtl MI_Trim_01
f 11/109/10 23/110/10 7/111/10 14/112/10
f 18/113/10 4/114/10 6/115/10 21/116/10
f 4/114/10 30/117/10 12/118/10 6/115/10
f 30/117/10 31/119/10 13/120/10 12/118/10
f 31/119/10 11/109/10 14/112/10 13/120/10
f 76/121/10 28/122/10 19/123/10 5/124/10
f 28/122/10 29/125/10 20/126/10 19/123/10
f 29/125/10 18/113/10 21/116/10 20/126/10
f 32/127/10 51/128/10 52/129/10 33/130/10
f 26/131/10 48/132/10 41/133/10 27/134/10
f 22/135/10 42/136/10 51/128/10 32/127/10
f 25/137/10 47/138/10 48/132/10 26/131/10
f 27/134/10 41/133/10 42/136/10 22/135/10
f 77/139/10 44/140/10 47/138/10 25/137/10
f 33/130/10 52/129/10 43/141/10 34/142/10
f 34/142/10 43/141/10 37/143/10 24/144/10
f 84/145/10 101/146/10 102/147/10 85/148/10
f 79/149/10 98/150/10 91/151/10 80/152/10
f 73/153/10 92/154/10 101/146/10 84/145/10
f 78/155/10 97/156/10 98/150/10 79/149/10
f 80/152/10 91/151/10 92/154/10 73/153/10
f 74/157/10 94/158/10 97/156/10 78/155/10
f 85/148/10 102/147/10 93/159/10 86/160/10
f 86/160/10 93/159/10 44/161/10 77/162/10
f 69/163/10 81/164/10 72/165/10 71/166/10
f 68/167/10 69/163/10 71/166/10 70/168/10
f 75/169/10 68/167/10 70/168/10 56/170/10
f 82/171/10 83/172/10 64/173/10 63/174/10
f 61/175/10 82/171/10 63/174/10 62/176/10
f 55/177/10 61/175/10 62/176/10 57/178/10
f 81/164/10 55/177/10 57/178/10 72/165/10
f 83/172/10 76/121/10 5/124/10 64/173/10
