# Blender v3.6.0 OBJ File: 'AllModules_Unreal.blend'
# www.blender.org
mtllib TopPlates_Corner_Round_Outer.mtl
o TopPlates_Corner_Round_Outer_Plane.250
v -2.828180 3.000000 -2.828195
v 0.000002 3.000000 -3.999999
v -2.828180 4.999999 -2.828195
v 0.000002 5.000000 -3.999999
v -2.757925 3.119245 -2.890037
v -0.093385 3.119246 -3.993713
v -2.757925 4.880755 -2.890037
v -0.093384 4.880756 -3.993713
v -1.571228 4.589916 -3.793201
v -2.677638 4.784582 -2.929650
v -2.628911 4.870195 -2.972535
v -2.675343 4.787656 -3.104756
v -2.723422 4.708451 -3.062440
v -2.397810 4.870195 -3.169467
v -2.367035 4.870195 -3.190244
v -2.397810 4.809547 -3.169467
v -2.367035 4.809548 -3.190244
v -2.419254 4.734531 -3.311652
v -2.463585 4.734531 -3.281631
v -2.419254 4.787656 -3.311652
v -2.463584 4.787656 -3.281631
v -2.419254 3.956149 -3.311652
v -1.804919 4.787657 -3.680274
v -1.737560 4.870196 -3.568709
v -1.804919 4.589915 -3.680274
v -1.571228 4.589916 -3.793201
v -1.521496 4.870196 -3.673162
v -1.571228 4.787657 -3.793201
v -2.650396 4.650853 -2.955041
v -2.650396 3.956148 -2.955041
v -2.674901 4.595353 -3.057603
v -2.674901 3.956148 -3.057603
v -2.619575 4.573247 -3.106284
v -2.619573 3.956148 -3.106285
v -1.554934 3.956149 -3.753872
v -1.554934 4.535365 -3.753872
v -2.381833 3.956148 -3.285603
v -1.845036 4.535365 -3.612510
v -1.849413 3.956148 -3.610312
v -2.419254 4.410115 -3.311652
v -2.352785 4.508746 -3.356623
v -2.419254 4.573504 -3.311652
v -2.467899 4.516000 -3.278708
v -2.415999 4.437937 -3.313855
v -2.406560 4.464036 -3.320244
v -2.391857 4.485855 -3.330193
v -2.373327 4.501261 -3.342729
v -2.314878 4.464758 -3.330870
v -2.381835 4.364385 -3.285602
v -2.335570 4.457141 -3.316884
v -2.354234 4.441463 -3.304266
v -2.369048 4.419258 -3.294249
v -2.378558 4.392699 -3.287818
v -2.670823 4.668124 -2.936001
v -2.677639 4.683568 -2.929650
v -2.675642 4.675035 -2.931510
v -2.711427 4.610645 -3.061284
v -2.723422 4.624607 -3.062440
v -2.719904 4.616804 -3.062105
v -2.621548 4.584262 -3.152061
v -2.624911 4.576271 -3.136120
v -2.624744 4.579082 -3.145449
v -2.621548 3.956148 -3.152061
v -2.624899 3.956149 -3.136051
v -2.624742 3.956148 -3.145428
v -0.178154 4.784582 -3.964643
v -0.242919 4.870197 -3.960277
v -0.303501 4.787656 -4.086423
v -0.239611 4.708452 -4.090721
v -0.546032 4.870196 -3.939029
v -0.582408 4.870197 -3.931580
v -0.546032 4.809548 -3.939029
v -0.582408 4.809548 -3.931579
v -0.631155 4.734533 -4.054068
v -0.578676 4.734532 -4.064717
v -0.631155 4.787657 -4.054068
v -0.578676 4.787657 -4.064717
v -0.631155 3.956149 -4.054068
v -1.325899 4.787657 -3.878635
v -1.294593 4.870196 -3.751962
v -1.325899 4.589916 -3.878635
v -0.215364 4.650855 -3.963200
v -0.215362 3.956149 -3.963200
v -0.270502 4.595354 -4.052875
v -0.270502 3.956149 -4.052875
v -0.344018 4.573248 -4.047916
v -0.344018 3.956149 -4.047916
v -0.639204 3.956149 -4.009035
v -1.249910 4.535364 -3.859957
v -1.245282 3.956149 -3.861564
v -0.631155 4.410116 -4.054068
v -0.709808 4.508747 -4.038073
v -0.631155 4.573505 -4.054068
v -0.573568 4.516000 -4.065752
v -0.635004 4.437938 -4.053287
v -0.646177 4.464036 -4.051016
v -0.663579 4.485856 -4.047480
v -0.685505 4.501262 -4.043019
v -0.718405 4.464759 -3.992891
v -0.639204 4.364386 -4.009035
v -0.693931 4.457143 -3.997882
v -0.671854 4.441464 -4.002383
v -0.654331 4.419259 -4.005953
v -0.643082 4.392700 -4.008245
v -0.187460 4.668124 -3.964281
v -0.178154 4.683569 -3.964643
v -0.180878 4.675035 -3.964537
v -0.247275 4.610646 -4.081393
v -0.239611 4.624606 -4.090721
v -0.241859 4.616807 -4.087989
v -0.374958 4.584263 -4.081585
v -0.361320 4.576272 -4.072736
v -0.368028 4.579083 -4.079194
v -0.374958 3.956150 -4.081585
v -0.361280 3.956149 -4.072679
v -0.368016 3.956149 -4.079176
v -1.571228 3.322382 -3.793201
v -2.677638 3.127715 -2.929649
v -2.628911 3.042100 -2.972535
v -2.675342 3.124640 -3.104757
v -2.723422 3.203845 -3.062440
v -2.397810 3.042100 -3.169467
v -2.367035 3.042101 -3.190244
v -2.397810 3.102748 -3.169467
v -2.367035 3.102749 -3.190244
v -2.419254 3.177765 -3.311652
v -2.463583 3.177765 -3.281632
v -2.419254 3.124641 -3.311652
v -2.463583 3.124640 -3.281632
v -1.804917 3.124641 -3.680275
v -1.737560 3.042101 -3.568709
v -1.804917 3.322382 -3.680275
v -1.571228 3.322382 -3.793201
v -1.521495 3.042101 -3.673163
v -1.571228 3.124641 -3.793201
v -2.650396 3.261442 -2.955041
v -2.674901 3.316943 -3.057603
v -2.619573 3.339049 -3.106285
v -1.554934 3.376932 -3.753872
v -1.845036 3.376932 -3.612510
v -2.419254 3.502182 -3.311652
v -2.352785 3.403550 -3.356623
v -2.419254 3.338793 -3.311652
v -2.467899 3.396298 -3.278708
v -2.416000 3.474360 -3.313855
v -2.406560 3.448262 -3.320244
v -2.391856 3.426441 -3.330195
v -2.373327 3.411035 -3.342729
v -2.314878 3.447538 -3.330870
v -2.381833 3.547910 -3.285603
v -2.335570 3.455154 -3.316884
v -2.354234 3.470833 -3.304266
v -2.369047 3.493039 -3.294250
v -2.378558 3.519598 -3.287818
v -2.670823 3.244172 -2.936001
v -2.677638 3.228728 -2.929649
v -2.675642 3.237262 -2.931510
v -2.711427 3.301651 -3.061284
v -2.723422 3.287690 -3.062440
v -2.719904 3.295490 -3.062105
v -2.621548 3.328034 -3.152061
v -2.624911 3.336025 -3.136120
v -2.624744 3.333214 -3.145449
v -0.178154 3.127716 -3.964643
v -0.242919 3.042101 -3.960277
v -0.303501 3.124641 -4.086423
v -0.239611 3.203846 -4.090721
v -0.546032 3.042101 -3.939029
v -0.582408 3.042101 -3.931580
v -0.546032 3.102749 -3.939029
v -0.582406 3.102749 -3.931580
v -0.631155 3.177766 -4.054068
v -0.578676 3.177766 -4.064717
v -0.631155 3.124642 -4.054068
v -0.578676 3.124642 -4.064717
v -1.325899 3.124641 -3.878635
v -1.294593 3.042101 -3.751962
v -1.325899 3.322382 -3.878635
v -0.215362 3.261444 -3.963200
v -0.270502 3.316944 -4.052875
v -0.344018 3.339050 -4.047916
v -1.249909 3.376932 -3.859958
v -0.631155 3.502183 -4.054068
v -0.709808 3.403552 -4.038072
v -0.631155 3.338794 -4.054068
v -0.573569 3.396299 -4.065752
v -0.635003 3.474361 -4.053286
v -0.646177 3.448262 -4.051016
v -0.663578 3.426442 -4.047479
v -0.685505 3.411036 -4.043019
v -0.718405 3.447539 -3.992890
v -0.639204 3.547911 -4.009035
v -0.693931 3.455155 -3.997882
v -0.671854 3.470834 -4.002383
v -0.654331 3.493039 -4.005953
v -0.643081 3.519598 -4.008245
v -0.187461 3.244173 -3.964281
v -0.178154 3.228729 -3.964643
v -0.180878 3.237263 -3.964536
v -0.247275 3.301652 -4.081393
v -0.239611 3.287691 -4.090721
v -0.241857 3.295492 -4.087989
v -0.374959 3.328036 -4.081586
v -0.361320 3.336026 -4.072736
v -0.368026 3.333215 -4.079194
v -2.276987 4.787656 -3.407847
v -2.253313 4.474316 -3.372466
v -2.217697 3.000000 -3.319239
v -2.276986 3.124641 -3.407847
v -2.276988 3.391904 -3.407846
v -2.217697 5.000000 -3.319239
v -2.204729 3.042101 -3.299859
v -2.253313 3.437981 -3.372466
v -2.276986 4.747241 -3.407847
v -2.217697 3.119245 -3.319239
v -2.276987 3.165056 -3.407847
v -2.217697 4.880755 -3.319239
v -2.253313 3.956148 -3.372466
v -2.276987 4.520392 -3.407847
v -2.204729 4.870196 -3.299859
v -2.601265 3.956148 -3.169887
v -2.601265 4.787655 -3.169887
v -2.518792 4.870195 -3.069484
v -2.533592 3.000000 -3.087502
v -2.601265 3.124640 -3.169887
v -2.533592 3.119245 -3.087502
v -2.518792 3.042100 -3.069484
v -2.533592 4.880755 -3.087502
v -2.533593 5.000000 -3.087502
v -2.601265 3.308204 -3.169887
v -2.601265 4.604092 -3.169887
v -2.601265 4.575017 -3.169887
v -2.601265 3.337278 -3.169887
v -0.799459 3.165057 -4.019790
v -0.791209 3.956149 -3.978027
v -0.799459 4.520393 -4.019790
v -0.799459 3.124642 -4.019790
v -0.791209 3.437981 -3.978027
v -0.778796 3.000000 -3.915197
v -0.791208 4.474317 -3.978027
v -0.799459 4.747241 -4.019790
v -0.778796 5.000001 -3.915197
v -0.799459 4.787657 -4.019790
v -0.778796 3.119245 -3.915197
v -0.774277 3.042101 -3.892321
v -0.778796 4.880755 -3.915197
v -0.799459 3.391905 -4.019790
v -0.774277 4.870197 -3.892321
v -0.401892 4.787657 -4.079755
v -0.401892 4.604092 -4.079755
v -0.389308 4.870196 -3.950433
v -0.401892 4.575020 -4.079754
v -0.391566 3.000000 -3.973642
v -0.401892 3.956149 -4.079754
v -0.391566 5.000000 -3.973641
v -0.391566 3.119245 -3.973642
v -0.401892 3.308206 -4.079754
v -0.391566 4.880754 -3.973641
v -0.401892 3.124641 -4.079755
v -0.401892 3.337278 -4.079754
v -0.389308 3.042101 -3.950433
v -1.530420 3.000000 -3.694706
v -1.530420 5.000000 -3.694705
v -1.530420 3.119246 -3.694706
v -1.530420 4.880755 -3.694705
v -1.882587 3.000000 -3.522006
v -1.882587 5.000001 -3.522006
v -1.882587 3.119245 -3.522006
v -1.882587 4.880755 -3.522006
v -1.159708 3.000000 -3.823516
v -1.159708 5.000001 -3.823516
v -1.159708 3.119246 -3.823516
v -1.159708 4.880755 -3.823516
v -4.000000 3.000000 -0.000022
v -4.000000 4.999999 -0.000022
v -3.993714 3.119245 -0.093406
v -2.890024 3.119245 -2.757939
v -3.993714 4.880755 -0.093406
v -2.890023 4.880754 -2.757939
v -3.793195 4.589915 -1.571249
v -3.964643 4.784581 -0.178176
v -3.960277 4.870195 -0.242941
v -4.086425 4.787656 -0.303524
v -4.090722 4.708450 -0.239631
v -3.939028 4.870196 -0.546054
v -3.931578 4.870195 -0.582430
v -3.939028 4.809548 -0.546054
v -3.931578 4.809546 -0.582428
v -4.054067 4.734531 -0.631177
v -4.064716 4.734531 -0.578698
v -4.054067 4.787655 -0.631177
v -4.064716 4.787655 -0.578698
v -4.054067 3.956148 -0.631177
v -3.878630 4.787656 -1.325920
v -3.751956 4.870196 -1.294614
v -3.878630 4.589915 -1.325920
v -3.793195 4.589915 -1.571249
v -3.673157 4.870195 -1.521515
v -3.793195 4.787655 -1.571249
v -3.963201 4.650853 -0.215385
v -3.963201 3.956148 -0.215385
v -4.052876 4.595353 -0.270524
v -4.052876 3.956148 -0.270524
v -4.047917 4.573247 -0.344040
v -4.047918 3.956148 -0.344040
v -3.753866 3.956148 -1.554955
v -3.753866 4.535365 -1.554955
v -4.009033 3.956149 -0.639226
v -3.859951 4.535365 -1.249932
v -3.861558 3.956148 -1.245303
v -4.054067 4.410114 -0.631177
v -4.038071 4.508746 -0.709831
v -4.054067 4.573503 -0.631177
v -4.065751 4.515998 -0.573591
v -4.053285 4.437937 -0.635025
v -4.051015 4.464035 -0.646199
v -4.047478 4.485856 -0.663599
v -4.043018 4.501262 -0.685527
v -3.992888 4.464759 -0.718427
v -4.009033 4.364387 -0.639226
v -3.997880 4.457141 -0.693953
v -4.002380 4.441463 -0.671876
v -4.005952 4.419257 -0.654353
v -4.008244 4.392699 -0.643103
v -3.964282 4.668124 -0.187482
v -3.964643 4.683568 -0.178176
v -3.964538 4.675035 -0.180900
v -4.081395 4.610645 -0.247295
v -4.090723 4.624606 -0.239631
v -4.087990 4.616806 -0.241879
v -4.081588 4.584262 -0.374981
v -4.072737 4.576271 -0.361343
v -4.079195 4.579082 -0.368050
v -4.081587 3.956148 -0.374981
v -4.072680 3.956148 -0.361304
v -4.079178 3.956148 -0.368037
v -2.929635 4.784583 -2.677653
v -2.972521 4.870197 -2.628926
v -3.104741 4.787657 -2.675359
v -3.062426 4.708452 -2.723438
v -3.169455 4.870197 -2.397827
v -3.190232 4.870197 -2.367052
v -3.169455 4.809548 -2.397827
v -3.190231 4.809549 -2.367052
v -3.311641 4.734532 -2.419270
v -3.281619 4.734532 -2.463602
v -3.311641 4.787656 -2.419270
v -3.281619 4.787656 -2.463602
v -3.311641 3.956149 -2.419270
v -3.680266 4.787656 -1.804937
v -3.568701 4.870196 -1.737579
v -3.680266 4.589915 -1.804937
v -2.955028 4.650854 -2.650412
v -2.955027 3.956149 -2.650412
v -3.057589 4.595354 -2.674916
v -3.057589 3.956149 -2.674916
v -3.106270 4.573248 -2.619589
v -3.106270 3.956149 -2.619589
v -3.285590 3.956149 -2.381852
v -3.612501 4.535365 -1.845054
v -3.610302 3.956149 -1.849434
v -3.311641 4.410116 -2.419270
v -3.356611 4.508746 -2.352803
v -3.311641 4.573504 -2.419270
v -3.278697 4.515999 -2.467916
v -3.313842 4.437937 -2.416019
v -3.320232 4.464036 -2.406578
v -3.330181 4.485856 -2.391876
v -3.342718 4.501262 -2.373346
v -3.330858 4.464759 -2.314896
v -3.285591 4.364386 -2.381850
v -3.316873 4.457143 -2.335588
v -3.304254 4.441464 -2.354252
v -3.294238 4.419259 -2.369065
v -3.287807 4.392699 -2.378574
v -2.935987 4.668125 -2.670839
v -2.929635 4.683570 -2.677653
v -2.931495 4.675035 -2.675657
v -3.061269 4.610646 -2.711443
v -3.062426 4.624607 -2.723438
v -3.062091 4.616807 -2.719920
v -3.152047 4.584262 -2.621564
v -3.136106 4.576272 -2.624927
v -3.145434 4.579083 -2.624760
v -3.152047 3.956149 -2.621564
v -3.136036 3.956149 -2.624915
v -3.145413 3.956149 -2.624758
v -3.793194 3.322382 -1.571251
v -3.964643 3.127715 -0.178176
v -3.960278 3.042100 -0.242941
v -4.086424 3.124640 -0.303524
v -4.090723 3.203845 -0.239631
v -3.939027 3.042101 -0.546055
v -3.931578 3.042100 -0.582430
v -3.939027 3.102749 -0.546055
v -3.931578 3.102748 -0.582430
v -4.054067 3.177765 -0.631177
v -4.064715 3.177766 -0.578700
v -4.054067 3.124640 -0.631177
v -4.064715 3.124641 -0.578700
v -3.878628 3.124641 -1.325922
v -3.751956 3.042101 -1.294614
v -3.878629 3.322382 -1.325920
v -3.793194 3.322382 -1.571251
v -3.673156 3.042101 -1.521517
v -3.793194 3.124641 -1.571251
v -3.963201 3.261443 -0.215385
v -4.052876 3.316943 -0.270524
v -4.047917 3.339049 -0.344040
v -3.753866 3.376932 -1.554956
v -3.859952 3.376932 -1.249932
v -4.054067 3.502181 -0.631177
v -4.038071 3.403551 -0.709831
v -4.054067 3.338792 -0.631177
v -4.065751 3.396297 -0.573591
v -4.053284 3.474360 -0.635026
v -4.051015 3.448261 -0.646199
v -4.047478 3.426442 -0.663601
v -4.043018 3.411035 -0.685527
v -3.992888 3.447538 -0.718427
v -4.009033 3.547911 -0.639226
v -3.997880 3.455154 -0.693953
v -4.002380 3.470833 -0.671876
v -4.005952 3.493038 -0.654353
v -4.008244 3.519598 -0.643103
v -3.964283 3.244172 -0.187482
v -3.964643 3.228728 -0.178176
v -3.964538 3.237262 -0.180900
v -4.081394 3.301651 -0.247295
v -4.090723 3.287690 -0.239631
v -4.087990 3.295491 -0.241881
v -4.081588 3.328035 -0.374981
v -4.072737 3.336025 -0.361343
v -4.079195 3.333214 -0.368050
v -2.929635 3.127715 -2.677653
v -2.972521 3.042101 -2.628926
v -3.104741 3.124641 -2.675359
v -3.062426 3.203846 -2.723437
v -3.169455 3.042101 -2.397827
v -3.190232 3.042102 -2.367052
v -3.169455 3.102750 -2.397827
v -3.190232 3.102750 -2.367052
v -3.311641 3.177766 -2.419270
v -3.281619 3.177766 -2.463602
v -3.311641 3.124641 -2.419270
v -3.281619 3.124642 -2.463602
v -3.680266 3.124641 -1.804939
v -3.568699 3.042101 -1.737581
v -3.680266 3.322382 -1.804939
v -2.955027 3.261444 -2.650412
v -3.057589 3.316944 -2.674916
v -3.106269 3.339050 -2.619591
v -3.612501 3.376932 -1.845056
v -3.311641 3.502182 -2.419270
v -3.356610 3.403551 -2.352805
v -3.311641 3.338793 -2.419270
v -3.278696 3.396298 -2.467916
v -3.313841 3.474360 -2.416019
v -3.320232 3.448262 -2.406578
v -3.330181 3.426442 -2.391876
v -3.342718 3.411036 -2.373346
v -3.330858 3.447539 -2.314896
v -3.285591 3.547911 -2.381852
v -3.316872 3.455155 -2.335588
v -3.304254 3.470834 -2.354253
v -3.294237 3.493039 -2.369066
v -3.287807 3.519598 -2.378574
v -2.935986 3.244174 -2.670840
v -2.929635 3.228729 -2.677653
v -2.931496 3.237263 -2.675657
v -3.061269 3.301652 -2.711443
v -3.062426 3.287691 -2.723438
v -3.062091 3.295492 -2.719920
v -3.152047 3.328035 -2.621564
v -3.136106 3.336026 -2.624927
v -3.145434 3.333215 -2.624760
v -4.019786 4.787655 -0.799483
v -3.978024 4.474316 -0.791232
v -3.915194 3.000000 -0.778818
v -4.019787 3.124640 -0.799481
v -4.019787 3.391904 -0.799481
v -3.915193 5.000000 -0.778819
v -3.892319 3.042100 -0.774298
v -3.978024 3.437980 -0.791230
v -4.019786 4.747241 -0.799483
v -3.915194 3.119245 -0.778819
v -4.019787 3.165056 -0.799483
v -3.915193 4.880755 -0.778819
v -3.978024 3.956149 -0.791232
v -4.019786 4.520392 -0.799483
v -3.892318 4.870196 -0.774300
v -4.079755 3.956148 -0.401918
v -4.079756 4.787655 -0.401918
v -3.950434 4.870196 -0.389333
v -3.973642 3.000000 -0.391592
v -4.079756 3.124640 -0.401918
v -3.973642 3.119245 -0.391592
v -3.950434 3.042100 -0.389333
v -3.973642 4.880755 -0.391592
v -3.973642 5.000000 -0.391592
v -4.079756 3.308204 -0.401918
v -4.079756 4.604092 -0.401918
v -4.079756 4.575018 -0.401918
v -4.079755 3.337278 -0.401918
v -3.407833 3.165056 -2.277008
v -3.372452 3.956149 -2.253334
v -3.407832 4.520393 -2.277008
v -3.407833 3.124641 -2.277008
v -3.372452 3.437981 -2.253334
v -3.319225 3.000000 -2.217718
v -3.372452 4.474317 -2.253334
v -3.407833 4.747241 -2.277008
v -3.319226 5.000000 -2.217716
v -3.407833 4.787657 -2.277008
v -3.319225 3.119245 -2.217718
v -3.299845 3.042101 -2.204750
v -3.319225 4.880755 -2.217718
v -3.407833 3.391905 -2.277008
v -3.299845 4.870197 -2.204750
v -3.169872 4.787657 -2.601281
v -3.169871 4.604091 -2.601282
v -3.069470 4.870197 -2.518807
v -3.169871 4.575019 -2.601282
v -3.087488 3.000000 -2.533609
v -3.169870 3.956149 -2.601282
v -3.087489 5.000000 -2.533608
v -3.087487 3.119245 -2.533609
v -3.169872 3.308206 -2.601281
v -3.087489 4.880755 -2.533608
v -3.169871 3.124641 -2.601282
v -3.169871 3.337278 -2.601282
v -3.069469 3.042101 -2.518808
v -3.694699 3.000000 -1.530442
v -3.694699 5.000000 -1.530443
v -3.694699 3.119245 -1.530442
v -3.694699 4.880755 -1.530443
v -3.823511 3.000000 -1.159728
v -3.823510 5.000000 -1.159728
v -3.823510 3.119245 -1.159728
v -3.823510 4.880754 -1.159728
v -3.521996 3.000000 -1.882608
v -3.521996 5.000000 -1.882608
v -3.521996 3.119245 -1.882608
v -3.521996 4.880755 -1.882608
vt 0.197094 0.110393
vt 0.259167 0.110393
vt 0.259167 0.086871
vt 0.177654 0.086871
vt 0.810314 0.457870
vt 0.748241 0.457870
vt 0.748241 0.481392
vt 0.829754 0.481392
vt 0.197094 0.457870
vt 0.259167 0.457870
vt 0.177654 0.481392
vt 0.810314 0.110393
vt 0.829754 0.086871
vt 0.279242 0.915501
vt 0.259033 0.920383
vt 0.263459 0.918212
vt 0.276562 0.915072
vt 0.556888 0.837051
vt 0.566405 0.853538
vt 0.512215 0.853782
vt 0.501350 0.834961
vt 0.442485 0.908068
vt 0.360775 0.899686
vt 0.360776 0.825627
vt 0.441642 0.825627
vt 0.541085 0.889065
vt 0.523641 0.882410
vt 0.523159 0.853097
vt 0.537638 0.858621
vt 0.451798 0.912647
vt 0.358746 0.903101
vt 0.281501 0.916636
vt 0.286261 0.919453
vt 0.286261 0.945523
vt 0.268875 0.945523
vt 0.257585 0.934274
vt 0.257585 0.922366
vt 0.612060 0.823311
vt 0.624145 0.849306
vt 0.592564 0.869021
vt 0.577498 0.844886
vt 0.558304 0.856868
vt 0.563086 0.887422
vt 0.567449 0.890057
vt 0.443587 0.885394
vt 0.444624 0.857849
vt 0.565895 0.862414
vt 0.317569 0.937978
vt 0.286261 0.915323
vt 0.316650 0.906941
vt 0.327005 0.915109
vt 0.327005 0.937978
vt 0.279236 0.827430
vt 0.276562 0.827430
vt 0.329484 0.887959
vt 0.329484 0.825627
vt 0.334067 0.825627
vt 0.334067 0.884592
vt 0.400042 0.849415
vt 0.406487 0.856413
vt 0.398674 0.883704
vt 0.391316 0.875715
vt 0.453521 0.945523
vt 0.357273 0.945523
vt 0.357272 0.939783
vt 0.569504 0.877143
vt 0.514434 0.870687
vt 0.496052 0.912647
vt 0.496052 0.908068
vt 0.453521 0.917439
vt 0.499295 0.917439
vt 0.499295 0.945523
vt 0.623570 0.864585
vt 0.622533 0.892131
vt 0.514423 0.876295
vt 0.392850 0.834987
vt 0.399535 0.815311
vt 0.511396 0.853319
vt 0.519490 0.852704
vt 0.520518 0.880394
vt 0.263459 0.827430
vt 0.496052 0.825627
vt 0.357273 0.907565
vt 0.327005 0.891904
vt 0.327697 0.895855
vt 0.329706 0.899561
vt 0.332835 0.902660
vt 0.336778 0.904848
vt 0.341149 0.905911
vt 0.334748 0.888479
vt 0.330153 0.891779
vt 0.336725 0.892126
vt 0.332095 0.895363
vt 0.339804 0.895175
vt 0.335121 0.898359
vt 0.343683 0.897328
vt 0.338933 0.900474
vt 0.347983 0.898374
vt 0.343158 0.901502
vt 0.281501 0.827430
vt 0.286261 0.827430
vt 0.521585 0.852736
vt 0.522167 0.881554
vt 0.280320 0.827430
vt 0.280321 0.915901
vt 0.258009 0.921258
vt 0.279242 0.915501
vt 0.276562 0.915072
vt 0.263459 0.918212
vt 0.259033 0.920383
vt 0.556888 0.837051
vt 0.501350 0.834961
vt 0.512215 0.853782
vt 0.566405 0.853538
vt 0.442485 0.908068
vt 0.441642 0.825627
vt 0.360775 0.825627
vt 0.360775 0.899686
vt 0.541085 0.889065
vt 0.537638 0.858621
vt 0.523159 0.853097
vt 0.523641 0.882410
vt 0.451798 0.912647
vt 0.358746 0.903101
vt 0.281501 0.916636
vt 0.257585 0.922366
vt 0.257585 0.934274
vt 0.268875 0.945523
vt 0.286261 0.945523
vt 0.286261 0.919452
vt 0.612060 0.823311
vt 0.577497 0.844887
vt 0.592563 0.869021
vt 0.624145 0.849306
vt 0.563086 0.887422
vt 0.558304 0.856868
vt 0.567449 0.890057
vt 0.565895 0.862414
vt 0.444623 0.857849
vt 0.443586 0.885394
vt 0.317569 0.937978
vt 0.327005 0.937978
vt 0.327005 0.915109
vt 0.316650 0.906941
vt 0.286261 0.915324
vt 0.279236 0.827430
vt 0.276562 0.827430
vt 0.329484 0.887959
vt 0.334067 0.884592
vt 0.334067 0.825627
vt 0.329484 0.825627
vt 0.400042 0.849415
vt 0.391316 0.875715
vt 0.398674 0.883704
vt 0.406487 0.856413
vt 0.453521 0.945523
vt 0.357272 0.939783
vt 0.357272 0.945523
vt 0.514434 0.870687
vt 0.569504 0.877143
vt 0.453521 0.917439
vt 0.514423 0.876295
vt 0.511396 0.853319
vt 0.399535 0.815311
vt 0.392850 0.834987
vt 0.519490 0.852704
vt 0.520518 0.880394
vt 0.263459 0.827430
vt 0.357272 0.907565
vt 0.327005 0.891904
vt 0.341149 0.905911
vt 0.336778 0.904848
vt 0.332835 0.902660
vt 0.329706 0.899561
vt 0.327697 0.895855
vt 0.330153 0.891779
vt 0.334748 0.888479
vt 0.332095 0.895363
vt 0.336725 0.892126
vt 0.335121 0.898359
vt 0.339804 0.895175
vt 0.338933 0.900474
vt 0.343683 0.897328
vt 0.343158 0.901502
vt 0.347983 0.898374
vt 0.286261 0.827430
vt 0.281501 0.827430
vt 0.522167 0.881554
vt 0.521585 0.852736
vt 0.280321 0.915901
vt 0.280320 0.827430
vt 0.258009 0.921258
vt 0.279242 0.915501
vt 0.276562 0.915072
vt 0.263459 0.918212
vt 0.259033 0.920383
vt 0.556888 0.837051
vt 0.501350 0.834961
vt 0.512215 0.853782
vt 0.566405 0.853538
vt 0.442485 0.908068
vt 0.360775 0.899686
vt 0.541085 0.889065
vt 0.537638 0.858621
vt 0.523159 0.853097
vt 0.523641 0.882410
vt 0.451798 0.912647
vt 0.358746 0.903101
vt 0.281501 0.916636
vt 0.257585 0.922366
vt 0.257585 0.934274
vt 0.268875 0.945523
vt 0.286261 0.945523
vt 0.286261 0.919453
vt 0.612060 0.823311
vt 0.577498 0.844886
vt 0.592563 0.869021
vt 0.624145 0.849306
vt 0.563086 0.887422
vt 0.558304 0.856868
vt 0.567449 0.890057
vt 0.565895 0.862414
vt 0.444624 0.857849
vt 0.443587 0.885394
vt 0.317569 0.937978
vt 0.327005 0.937978
vt 0.327005 0.915109
vt 0.316650 0.906941
vt 0.286261 0.915324
vt 0.329484 0.887959
vt 0.334067 0.884592
vt 0.400042 0.849415
vt 0.391316 0.875715
vt 0.398674 0.883704
vt 0.406487 0.856413
vt 0.453521 0.945523
vt 0.357272 0.939783
vt 0.357272 0.945523
vt 0.514434 0.870687
vt 0.569504 0.877143
vt 0.496052 0.912647
vt 0.496052 0.908068
vt 0.499295 0.945523
vt 0.499295 0.917439
vt 0.453521 0.917439
vt 0.622533 0.892131
vt 0.623570 0.864585
vt 0.514423 0.876295
vt 0.511396 0.853319
vt 0.519490 0.852704
vt 0.520518 0.880394
vt 0.357272 0.907565
vt 0.327005 0.891904
vt 0.341149 0.905911
vt 0.336778 0.904848
vt 0.332835 0.902660
vt 0.329706 0.899561
vt 0.327697 0.895855
vt 0.330153 0.891779
vt 0.334748 0.888479
vt 0.332095 0.895363
vt 0.336725 0.892126
vt 0.335121 0.898359
vt 0.339804 0.895175
vt 0.338933 0.900474
vt 0.343683 0.897328
vt 0.343158 0.901502
vt 0.347983 0.898374
vt 0.522167 0.881554
vt 0.521585 0.852736
vt 0.280321 0.915901
vt 0.258009 0.921258
vt 0.279242 0.915501
vt 0.259033 0.920383
vt 0.263459 0.918212
vt 0.276562 0.915072
vt 0.556888 0.837051
vt 0.566405 0.853538
vt 0.512215 0.853782
vt 0.501350 0.834961
vt 0.442485 0.908068
vt 0.360775 0.899686
vt 0.541085 0.889065
vt 0.523641 0.882410
vt 0.523159 0.853097
vt 0.537638 0.858621
vt 0.451798 0.912647
vt 0.358746 0.903101
vt 0.281501 0.916636
vt 0.286261 0.919453
vt 0.286261 0.945523
vt 0.268875 0.945523
vt 0.257585 0.934274
vt 0.257585 0.922366
vt 0.612060 0.823311
vt 0.624145 0.849306
vt 0.592563 0.869021
vt 0.577497 0.844887
vt 0.558304 0.856868
vt 0.563086 0.887422
vt 0.567449 0.890057
vt 0.443586 0.885394
vt 0.444623 0.857849
vt 0.565895 0.862414
vt 0.317569 0.937978
vt 0.286261 0.915324
vt 0.316650 0.906941
vt 0.327005 0.915109
vt 0.327005 0.937978
vt 0.329484 0.887959
vt 0.334067 0.884592
vt 0.400042 0.849415
vt 0.406487 0.856413
vt 0.398674 0.883704
vt 0.391316 0.875715
vt 0.453521 0.945523
vt 0.357272 0.945523
vt 0.357272 0.939783
vt 0.569504 0.877143
vt 0.514434 0.870687
vt 0.453521 0.917439
vt 0.514423 0.876295
vt 0.511396 0.853319
vt 0.519490 0.852704
vt 0.520518 0.880394
vt 0.357272 0.907565
vt 0.327005 0.891904
vt 0.327697 0.895855
vt 0.329706 0.899561
vt 0.332835 0.902660
vt 0.336778 0.904848
vt 0.341149 0.905911
vt 0.334748 0.888479
vt 0.330153 0.891779
vt 0.336725 0.892126
vt 0.332095 0.895363
vt 0.339804 0.895175
vt 0.335121 0.898359
vt 0.343683 0.897328
vt 0.338933 0.900474
vt 0.347983 0.898374
vt 0.343158 0.901502
vt 0.521585 0.852736
vt 0.522167 0.881554
vt 0.280321 0.915901
vt 0.258009 0.921258
vt 0.327005 0.945523
vt 0.327005 0.945523
vt 0.422191 0.481392
vt 0.422191 0.457870
vt 0.340679 0.457870
vt 0.340679 0.481392
vt 0.666729 0.086871
vt 0.666729 0.110393
vt 0.748241 0.110393
vt 0.748241 0.086871
vt 0.666728 0.457870
vt 0.327005 0.827430
vt 0.666728 0.481392
vt 0.317569 0.945523
vt 0.317569 0.945523
vt 0.259167 0.481392
vt 0.327005 0.945523
vt 0.327005 0.945523
vt 0.585216 0.086871
vt 0.585216 0.110393
vt 0.585216 0.457870
vt 0.327005 0.827430
vt 0.340679 0.110393
vt 0.340679 0.086871
vt 0.317569 0.945523
vt 0.317569 0.945523
vt 0.422191 0.110393
vt 0.503704 0.457870
vt 0.503704 0.110393
vt 0.422191 0.086871
vt 0.503704 0.086871
vt 0.585216 0.481392
vt 0.503704 0.481392
vt 0.197094 0.110393
vt 0.259167 0.110393
vt 0.259167 0.086871
vt 0.177654 0.086871
vt 0.810314 0.457870
vt 0.748241 0.457870
vt 0.748241 0.481392
vt 0.829754 0.481392
vt 0.197094 0.457870
vt 0.259167 0.457870
vt 0.177654 0.481392
vt 0.810314 0.110393
vt 0.829754 0.086871
vt 0.279242 0.915501
vt 0.259033 0.920383
vt 0.263459 0.918212
vt 0.276562 0.915072
vt 0.556888 0.837051
vt 0.566405 0.853538
vt 0.512215 0.853782
vt 0.501350 0.834961
vt 0.442485 0.908068
vt 0.360775 0.899686
vt 0.360776 0.825627
vt 0.441642 0.825627
vt 0.541085 0.889065
vt 0.523641 0.882410
vt 0.523159 0.853097
vt 0.537638 0.858621
vt 0.451798 0.912647
vt 0.358746 0.903101
vt 0.281501 0.916636
vt 0.286261 0.919453
vt 0.286261 0.945523
vt 0.268875 0.945523
vt 0.257585 0.934274
vt 0.257585 0.922366
vt 0.612060 0.823311
vt 0.624145 0.849306
vt 0.592564 0.869021
vt 0.577498 0.844886
vt 0.558304 0.856868
vt 0.563086 0.887422
vt 0.567449 0.890057
vt 0.443587 0.885394
vt 0.444624 0.857849
vt 0.565895 0.862414
vt 0.317569 0.937978
vt 0.286261 0.915323
vt 0.316650 0.906941
vt 0.327005 0.915109
vt 0.327005 0.937978
vt 0.279236 0.827430
vt 0.276562 0.827430
vt 0.329484 0.887959
vt 0.329484 0.825627
vt 0.334067 0.825627
vt 0.334067 0.884592
vt 0.400042 0.849415
vt 0.406487 0.856413
vt 0.398674 0.883704
vt 0.391316 0.875715
vt 0.453521 0.945523
vt 0.357273 0.945523
vt 0.357272 0.939783
vt 0.569504 0.877143
vt 0.514434 0.870687
vt 0.496052 0.912647
vt 0.496052 0.908068
vt 0.453521 0.917439
vt 0.499295 0.917439
vt 0.499295 0.945523
vt 0.623570 0.864585
vt 0.622533 0.892131
vt 0.514423 0.876295
vt 0.392850 0.834987
vt 0.399535 0.815311
vt 0.511396 0.853319
vt 0.519490 0.852704
vt 0.520518 0.880394
vt 0.263459 0.827430
vt 0.496052 0.825627
vt 0.357273 0.907565
vt 0.327005 0.891904
vt 0.327697 0.895855
vt 0.329706 0.899561
vt 0.332835 0.902660
vt 0.336778 0.904848
vt 0.341149 0.905911
vt 0.334748 0.888479
vt 0.330153 0.891779
vt 0.336725 0.892126
vt 0.332095 0.895363
vt 0.339804 0.895175
vt 0.335121 0.898359
vt 0.343683 0.897328
vt 0.338933 0.900474
vt 0.347983 0.898374
vt 0.343158 0.901502
vt 0.281501 0.827430
vt 0.286261 0.827430
vt 0.521585 0.852736
vt 0.522167 0.881554
vt 0.280320 0.827430
vt 0.280321 0.915901
vt 0.258009 0.921258
vt 0.279242 0.915501
vt 0.276562 0.915072
vt 0.263459 0.918212
vt 0.259033 0.920383
vt 0.556888 0.837051
vt 0.501350 0.834961
vt 0.512215 0.853782
vt 0.566405 0.853538
vt 0.442485 0.908068
vt 0.441642 0.825627
vt 0.360775 0.825627
vt 0.360775 0.899686
vt 0.541085 0.889065
vt 0.537638 0.858621
vt 0.523159 0.853097
vt 0.523641 0.882410
vt 0.451798 0.912647
vt 0.358746 0.903101
vt 0.281501 0.916636
vt 0.257585 0.922366
vt 0.257585 0.934274
vt 0.268875 0.945523
vt 0.286261 0.945523
vt 0.286261 0.919452
vt 0.612060 0.823311
vt 0.577497 0.844887
vt 0.592563 0.869021
vt 0.624145 0.849306
vt 0.563086 0.887422
vt 0.558304 0.856868
vt 0.567449 0.890057
vt 0.565895 0.862414
vt 0.444623 0.857849
vt 0.443586 0.885394
vt 0.317569 0.937978
vt 0.327005 0.937978
vt 0.327005 0.915109
vt 0.316650 0.906941
vt 0.286261 0.915324
vt 0.279236 0.827430
vt 0.276562 0.827430
vt 0.329484 0.887959
vt 0.334067 0.884592
vt 0.334067 0.825627
vt 0.329484 0.825627
vt 0.400042 0.849415
vt 0.391316 0.875715
vt 0.398674 0.883704
vt 0.406487 0.856413
vt 0.453521 0.945523
vt 0.357272 0.939783
vt 0.357272 0.945523
vt 0.514434 0.870687
vt 0.569504 0.877143
vt 0.453521 0.917439
vt 0.514423 0.876295
vt 0.511396 0.853319
vt 0.399535 0.815311
vt 0.392850 0.834987
vt 0.519490 0.852704
vt 0.520518 0.880394
vt 0.263459 0.827430
vt 0.357272 0.907565
vt 0.327005 0.891904
vt 0.341149 0.905911
vt 0.336778 0.904848
vt 0.332835 0.902660
vt 0.329706 0.899561
vt 0.327697 0.895855
vt 0.330153 0.891779
vt 0.334748 0.888479
vt 0.332095 0.895363
vt 0.336725 0.892126
vt 0.335121 0.898359
vt 0.339804 0.895175
vt 0.338933 0.900474
vt 0.343683 0.897328
vt 0.343158 0.901502
vt 0.347983 0.898374
vt 0.286261 0.827430
vt 0.281501 0.827430
vt 0.522167 0.881554
vt 0.521585 0.852736
vt 0.280321 0.915901
vt 0.280320 0.827430
vt 0.258009 0.921258
vt 0.279242 0.915501
vt 0.276562 0.915072
vt 0.263459 0.918212
vt 0.259033 0.920383
vt 0.556888 0.837051
vt 0.501350 0.834961
vt 0.512215 0.853782
vt 0.566405 0.853538
vt 0.442485 0.908068
vt 0.360775 0.899686
vt 0.541085 0.889065
vt 0.537638 0.858621
vt 0.523159 0.853097
vt 0.523641 0.882410
vt 0.451798 0.912647
vt 0.358746 0.903101
vt 0.281501 0.916636
vt 0.257585 0.922366
vt 0.257585 0.934274
vt 0.268875 0.945523
vt 0.286261 0.945523
vt 0.286261 0.919453
vt 0.612060 0.823311
vt 0.577498 0.844886
vt 0.592563 0.869021
vt 0.624145 0.849306
vt 0.563086 0.887422
vt 0.558304 0.856868
vt 0.567449 0.890057
vt 0.565895 0.862414
vt 0.444624 0.857849
vt 0.443587 0.885394
vt 0.317569 0.937978
vt 0.327005 0.937978
vt 0.327005 0.915109
vt 0.316650 0.906941
vt 0.286261 0.915324
vt 0.329484 0.887959
vt 0.334067 0.884592
vt 0.400042 0.849415
vt 0.391316 0.875715
vt 0.398674 0.883704
vt 0.406487 0.856413
vt 0.453521 0.945523
vt 0.357272 0.939783
vt 0.357272 0.945523
vt 0.514434 0.870687
vt 0.569504 0.877143
vt 0.496052 0.912647
vt 0.496052 0.908068
vt 0.499295 0.945523
vt 0.499295 0.917439
vt 0.453521 0.917439
vt 0.622533 0.892131
vt 0.623570 0.864585
vt 0.514423 0.876295
vt 0.511396 0.853319
vt 0.519490 0.852704
vt 0.520518 0.880394
vt 0.357272 0.907565
vt 0.327005 0.891904
vt 0.341149 0.905911
vt 0.336778 0.904848
vt 0.332835 0.902660
vt 0.329706 0.899561
vt 0.327697 0.895855
vt 0.330153 0.891779
vt 0.334748 0.888479
vt 0.332095 0.895363
vt 0.336725 0.892126
vt 0.335121 0.898359
vt 0.339804 0.895175
vt 0.338933 0.900474
vt 0.343683 0.897328
vt 0.343158 0.901502
vt 0.347983 0.898374
vt 0.522167 0.881554
vt 0.521585 0.852736
vt 0.280321 0.915901
vt 0.258009 0.921258
vt 0.279242 0.915501
vt 0.259033 0.920383
vt 0.263459 0.918212
vt 0.276562 0.915072
vt 0.556888 0.837051
vt 0.566405 0.853538
vt 0.512215 0.853782
vt 0.501350 0.834961
vt 0.442485 0.908068
vt 0.360775 0.899686
vt 0.541085 0.889065
vt 0.523641 0.882410
vt 0.523159 0.853097
vt 0.537638 0.858621
vt 0.451798 0.912647
vt 0.358746 0.903101
vt 0.281501 0.916636
vt 0.286261 0.919453
vt 0.286261 0.945523
vt 0.268875 0.945523
vt 0.257585 0.934274
vt 0.257585 0.922366
vt 0.612060 0.823311
vt 0.624145 0.849306
vt 0.592563 0.869021
vt 0.577497 0.844887
vt 0.558304 0.856868
vt 0.563086 0.887422
vt 0.567449 0.890057
vt 0.443586 0.885394
vt 0.444623 0.857849
vt 0.565895 0.862414
vt 0.317569 0.937978
vt 0.286261 0.915324
vt 0.316650 0.906941
vt 0.327005 0.915109
vt 0.327005 0.937978
vt 0.329484 0.887959
vt 0.334067 0.884592
vt 0.400042 0.849415
vt 0.406487 0.856413
vt 0.398674 0.883704
vt 0.391316 0.875715
vt 0.453521 0.945523
vt 0.357272 0.945523
vt 0.357272 0.939783
vt 0.569504 0.877143
vt 0.514434 0.870687
vt 0.453521 0.917439
vt 0.514423 0.876295
vt 0.511396 0.853319
vt 0.519490 0.852704
vt 0.520518 0.880394
vt 0.357272 0.907565
vt 0.327005 0.891904
vt 0.327697 0.895855
vt 0.329706 0.899561
vt 0.332835 0.902660
vt 0.336778 0.904848
vt 0.341149 0.905911
vt 0.334748 0.888479
vt 0.330153 0.891779
vt 0.336725 0.892126
vt 0.332095 0.895363
vt 0.339804 0.895175
vt 0.335121 0.898359
vt 0.343683 0.897328
vt 0.338933 0.900474
vt 0.347983 0.898374
vt 0.343158 0.901502
vt 0.521585 0.852736
vt 0.522167 0.881554
vt 0.280321 0.915901
vt 0.258009 0.921258
vt 0.327005 0.945523
vt 0.327005 0.945523
vt 0.422191 0.481392
vt 0.422191 0.457870
vt 0.340679 0.457870
vt 0.340679 0.481392
vt 0.666729 0.086871
vt 0.666729 0.110393
vt 0.748241 0.110393
vt 0.748241 0.086871
vt 0.666728 0.457870
vt 0.327005 0.827430
vt 0.666728 0.481392
vt 0.317569 0.945523
vt 0.317569 0.945523
vt 0.259167 0.481392
vt 0.327005 0.945523
vt 0.327005 0.945523
vt 0.585216 0.086871
vt 0.585216 0.110393
vt 0.585216 0.457870
vt 0.327005 0.827430
vt 0.340679 0.110393
vt 0.340679 0.086871
vt 0.317569 0.945523
vt 0.317569 0.945523
vt 0.422191 0.110393
vt 0.503704 0.457870
vt 0.503704 0.110393
vt 0.422191 0.086871
vt 0.503704 0.086871
vt 0.585216 0.481392
vt 0.503704 0.481392
vn 0.0672 -0.0000 0.9977
vn 0.1083 -0.0000 0.9941
vn 0.6607 0.0000 0.7506
vn 0.6267 0.0000 0.7792
vn 0.7071 -0.0000 0.7071
vn 0.4954 0.8495 0.1813
vn 0.5108 0.8466 -0.1495
vn 0.3751 0.9057 -0.1976
vn 0.3861 0.9222 0.0217
vn -0.8626 0.0000 0.5059
vn 0.4713 -0.0001 0.8820
vn 0.5317 -0.0002 0.8470
vn 0.5338 0.0000 0.8456
vn 0.4732 0.0000 0.8810
vn 0.9360 -0.3279 -0.1282
vn 0.9223 0.1157 -0.3686
vn 0.8968 0.1980 -0.3958
vn 0.9555 -0.2147 -0.2021
vn 0.3344 0.6276 0.7031
vn 0.3204 0.6663 0.6733
vn 0.3220 0.6672 0.6717
vn 0.3138 0.6479 0.6941
vn 0.7145 0.0555 0.6974
vn 0.6380 -0.0004 0.7700
vn 0.6454 0.0000 0.7638
vn 0.6604 0.0000 0.7509
vn 0.6827 0.1267 0.7196
vn 0.3410 -0.8427 0.4166
vn 0.3477 -0.8434 0.4096
vn 0.3476 -0.8434 0.4097
vn 0.8628 -0.5055 0.0024
vn 0.2502 -0.8441 0.4743
vn 0.2838 -0.8442 0.4547
vn 0.2843 -0.8442 0.4544
vn 0.2512 -0.8441 0.4737
vn 0.6188 -0.0007 0.7855
vn 0.6363 0.0003 0.7715
vn 0.5978 0.0009 0.8016
vn 0.5786 -0.0005 0.8156
vn 0.5765 -0.0004 0.8171
vn 0.9844 0.0000 -0.1761
vn -0.4911 0.0919 0.8662
vn -0.5713 -0.0000 0.8207
vn -0.5441 0.0324 0.8384
vn 0.9186 -0.0000 -0.3951
vn 0.4678 0.0000 0.8838
vn 0.5303 0.0000 0.8478
vn 0.2804 -0.8658 0.4145
vn 0.3014 0.6176 0.7264
vn 0.3015 0.6176 0.7264
vn 0.4690 0.0000 0.8832
vn 0.3826 0.0000 0.9239
vn 0.2050 -0.8442 0.4953
vn 0.9726 0.0000 -0.2324
vn 0.4753 0.7284 -0.4934
vn 0.3277 0.8058 -0.4932
vn 0.6606 0.0000 0.7508
vn 0.3840 0.0000 0.9233
vn 0.5327 -0.0000 0.8463
vn 0.6056 0.0028 0.7957
vn 0.5606 -0.0000 0.8281
vn 0.5603 -0.0000 0.8283
vn -0.4032 0.1825 0.8968
vn -0.3172 0.2626 0.9113
vn -0.1934 0.3662 0.9102
vn -0.1375 0.4089 0.9021
vn -0.0069 0.4998 0.8661
vn 0.0234 0.5191 0.8544
vn 0.1700 0.6022 0.7801
vn 0.1766 0.6055 0.7760
vn 0.2996 0.6611 0.6879
vn 0.2934 0.6586 0.6930
vn 0.6601 0.0000 0.7512
vn 0.6385 -0.0000 0.7696
vn 0.7040 0.5278 -0.4752
vn 0.7625 0.4529 -0.4620
vn 0.9998 0.0000 0.0173
vn 0.9729 -0.0000 0.2313
vn 0.8677 0.2572 0.4254
vn 0.9007 -0.0000 0.4345
vn 0.6760 0.4922 0.5484
vn -0.2207 0.8500 0.4783
vn -0.2569 0.9225 0.2882
vn -0.4046 0.9058 0.1254
vn -0.4663 0.8469 0.2556
vn 0.9679 0.0000 -0.2514
vn 0.2908 -0.0002 0.9568
vn 0.2887 -0.0000 0.9574
vn 0.2244 -0.0000 0.9745
vn 0.2264 -0.0002 0.9740
vn -0.7518 -0.3286 0.5717
vn -0.8183 -0.2148 0.5331
vn -0.9139 0.1980 0.3543
vn -0.9128 0.1158 0.3916
vn 0.2622 0.6236 0.7364
vn 0.2693 0.6436 0.7164
vn 0.2509 0.6647 0.7037
vn 0.2528 0.6637 0.7040
vn -0.0087 0.0556 0.9984
vn 0.0296 0.1267 0.9915
vn 0.0675 0.0000 0.9977
vn 0.0761 0.0000 0.9971
vn 0.0889 -0.0006 0.9960
vn 0.0426 -0.8421 0.5376
vn 0.0394 -0.8431 0.5363
vn 0.0393 -0.8431 0.5363
vn -0.6073 -0.5062 0.6123
vn 0.1583 -0.8442 0.5121
vn 0.1572 -0.8443 0.5124
vn 0.1229 -0.8442 0.5217
vn 0.1236 -0.8442 0.5215
vn 0.1040 -0.0009 0.9946
vn 0.1735 -0.0006 0.9848
vn 0.1702 -0.0006 0.9854
vn 0.1391 0.0012 0.9903
vn 0.0919 0.0004 0.9958
vn -0.8203 -0.0000 0.5719
vn 0.9602 0.0914 0.2641
vn 0.9777 0.0324 0.2075
vn 0.9844 -0.0000 0.1759
vn -0.9291 0.0000 0.3698
vn 0.2941 -0.0000 0.9558
vn 0.2294 -0.0000 0.9733
vn 0.0999 -0.8657 0.4906
vn 0.2928 -0.0000 0.9562
vn -0.8519 -0.0000 0.5238
vn -0.8518 -0.0000 0.5238
vn -0.5808 0.8055 -0.1172
vn -0.6850 0.7284 -0.0132
vn 0.0673 0.0000 0.9977
vn 0.2270 -0.0000 0.9739
vn 0.1261 0.0037 0.9920
vn 0.1994 -0.0000 0.9799
vn 0.1990 -0.0000 0.9800
vn 0.8703 0.2610 0.4176
vn 0.9199 0.1818 0.3475
vn 0.7387 0.4068 0.5374
vn 0.7828 0.3646 0.5042
vn 0.5929 0.5169 0.6175
vn 0.6217 0.4980 0.6046
vn 0.4305 0.6039 0.6708
vn 0.4373 0.6008 0.6692
vn 0.2898 0.6577 0.6953
vn 0.2813 0.6604 0.6962
vn 0.0880 -0.0000 0.9961
vn 0.0678 -0.0000 0.9977
vn -0.8658 0.4531 0.2122
vn -0.8339 0.5277 0.1617
vn -0.6939 0.0000 0.7201
vn -0.3103 0.2576 0.9151
vn -0.5227 -0.0000 0.8525
vn -0.6939 -0.0000 0.7200
vn -0.3270 -0.0000 0.9450
vn -0.0872 0.4922 0.8661
vn 0.4954 -0.8495 0.1813
vn 0.3861 -0.9222 0.0217
vn 0.3750 -0.9057 -0.1976
vn 0.5108 -0.8466 -0.1495
vn -0.8626 0.0000 0.5058
vn 0.4713 0.0001 0.8820
vn 0.5317 0.0002 0.8470
vn 0.9360 0.3279 -0.1282
vn 0.9555 0.2147 -0.2020
vn 0.8968 -0.1980 -0.3958
vn 0.9223 -0.1157 -0.3686
vn 0.3344 -0.6276 0.7031
vn 0.3138 -0.6479 0.6941
vn 0.3220 -0.6672 0.6717
vn 0.3204 -0.6663 0.6733
vn 0.7145 -0.0555 0.6974
vn 0.6827 -0.1267 0.7196
vn 0.6380 0.0004 0.7700
vn 0.3410 0.8427 0.4166
vn 0.3476 0.8434 0.4097
vn 0.3477 0.8434 0.4096
vn 0.8628 0.5055 0.0024
vn 0.2502 0.8441 0.4743
vn 0.2512 0.8441 0.4737
vn 0.2843 0.8442 0.4544
vn 0.2838 0.8442 0.4547
vn 0.6188 0.0007 0.7855
vn 0.5765 0.0004 0.8171
vn 0.5786 0.0005 0.8156
vn 0.5978 -0.0009 0.8016
vn 0.6363 -0.0003 0.7715
vn -0.4911 -0.0919 0.8662
vn -0.5441 -0.0324 0.8384
vn 0.2803 0.8658 0.4145
vn 0.3014 -0.6176 0.7264
vn 0.2050 0.8442 0.4953
vn 0.3277 -0.8058 -0.4932
vn 0.4753 -0.7284 -0.4934
vn 0.6056 -0.0028 0.7957
vn -0.3172 -0.2626 0.9113
vn -0.4032 -0.1824 0.8968
vn -0.1375 -0.4090 0.9021
vn -0.1934 -0.3662 0.9102
vn 0.0234 -0.5191 0.8544
vn -0.0069 -0.4998 0.8661
vn 0.1766 -0.6055 0.7760
vn 0.1699 -0.6022 0.7801
vn 0.2934 -0.6586 0.6930
vn 0.2996 -0.6611 0.6879
vn 0.7625 -0.4529 -0.4620
vn 0.7040 -0.5278 -0.4752
vn 0.9999 -0.0000 0.0173
vn 0.8677 -0.2573 0.4254
vn 0.6760 -0.4922 0.5484
vn -0.2207 -0.8500 0.4782
vn -0.4663 -0.8469 0.2555
vn -0.4046 -0.9058 0.1253
vn -0.2569 -0.9225 0.2882
vn 0.2908 0.0002 0.9568
vn 0.2264 0.0002 0.9740
vn -0.7518 0.3286 0.5717
vn -0.9128 -0.1157 0.3916
vn -0.9139 -0.1980 0.3543
vn -0.8183 0.2148 0.5331
vn 0.2622 -0.6236 0.7364
vn 0.2528 -0.6637 0.7040
vn 0.2509 -0.6647 0.7037
vn 0.2693 -0.6436 0.7164
vn -0.0087 -0.0556 0.9984
vn 0.0889 0.0006 0.9960
vn 0.0295 -0.1267 0.9915
vn 0.0426 0.8421 0.5376
vn 0.0393 0.8431 0.5363
vn 0.0394 0.8431 0.5363
vn -0.6073 0.5062 0.6123
vn 0.1583 0.8442 0.5121
vn 0.1236 0.8442 0.5215
vn 0.1229 0.8442 0.5217
vn 0.1572 0.8442 0.5124
vn 0.1040 0.0009 0.9946
vn 0.0919 -0.0004 0.9958
vn 0.1391 -0.0012 0.9903
vn 0.1702 0.0006 0.9854
vn 0.1735 0.0006 0.9848
vn 0.9602 -0.0914 0.2641
vn 0.9777 -0.0324 0.2075
vn 0.0999 0.8657 0.4906
vn -0.6850 -0.7284 -0.0132
vn -0.5809 -0.8055 -0.1172
vn 0.1261 -0.0037 0.9920
vn 0.9199 -0.1818 0.3475
vn 0.8703 -0.2610 0.4176
vn 0.7828 -0.3646 0.5042
vn 0.7387 -0.4068 0.5374
vn 0.6217 -0.4980 0.6046
vn 0.5929 -0.5169 0.6175
vn 0.4373 -0.6008 0.6692
vn 0.4305 -0.6039 0.6708
vn 0.2813 -0.6604 0.6962
vn 0.2898 -0.6577 0.6953
vn -0.8339 -0.5277 0.1616
vn -0.8659 -0.4530 0.2122
vn -0.6940 -0.0000 0.7200
vn -0.3103 -0.2577 0.9151
vn -0.0872 -0.4921 0.8661
vn 0.5601 0.0000 0.8284
vn 0.2815 -0.0000 0.9596
vn 0.1918 0.0000 0.9814
vn 0.5600 -0.0000 0.8285
vn 0.3003 0.8440 0.4444
vn 0.3003 -0.8440 0.4444
vn 0.5551 -0.0000 0.8318
vn 0.6164 0.0000 0.7874
vn 0.3543 -0.8440 0.4026
vn 0.3543 0.8440 0.4026
vn 0.6302 0.0000 0.7764
vn 0.1996 0.0000 0.9799
vn 0.1999 0.0000 0.9798
vn 0.4795 -0.0000 0.8776
vn 0.1073 0.8439 0.5256
vn 0.1073 -0.8439 0.5256
vn 0.1081 -0.0000 0.9941
vn 0.0848 0.0000 0.9964
vn 0.0361 -0.8440 0.5351
vn 0.0361 0.8440 0.5351
vn 0.3850 -0.0000 0.9229
vn 0.7506 0.0000 0.6607
vn 0.7792 0.0000 0.6267
vn 0.9977 -0.0000 0.0672
vn 0.9941 0.0000 0.1083
vn 0.4783 0.8500 -0.2207
vn 0.2555 0.8469 -0.4663
vn 0.1253 0.9058 -0.4046
vn 0.2882 0.9225 -0.2569
vn -0.2514 0.0000 0.9679
vn 0.9568 -0.0002 0.2908
vn 0.9740 -0.0002 0.2264
vn 0.9745 -0.0000 0.2244
vn 0.9574 -0.0000 0.2887
vn 0.5717 -0.3286 -0.7518
vn 0.3916 0.1158 -0.9128
vn 0.3543 0.1980 -0.9139
vn 0.5331 -0.2148 -0.8183
vn 0.7364 0.6236 0.2622
vn 0.7040 0.6637 0.2528
vn 0.7037 0.6647 0.2509
vn 0.7164 0.6436 0.2693
vn 0.9984 0.0556 -0.0087
vn 0.9960 -0.0006 0.0889
vn 0.9971 0.0000 0.0761
vn 0.9977 0.0000 0.0675
vn 0.9915 0.1267 0.0295
vn 0.5376 -0.8421 0.0426
vn 0.5363 -0.8431 0.0393
vn 0.5363 -0.8431 0.0394
vn 0.6123 -0.5062 -0.6073
vn 0.5121 -0.8442 0.1583
vn 0.5215 -0.8442 0.1236
vn 0.5217 -0.8442 0.1229
vn 0.5124 -0.8443 0.1572
vn 0.9946 -0.0009 0.1041
vn 0.9958 0.0004 0.0919
vn 0.9903 0.0012 0.1391
vn 0.9854 -0.0006 0.1703
vn 0.9848 -0.0006 0.1735
vn 0.5719 0.0000 -0.8203
vn 0.2641 0.0914 0.9602
vn 0.1759 0.0000 0.9844
vn 0.2075 0.0324 0.9777
vn 0.3698 -0.0000 -0.9291
vn 0.9558 -0.0000 0.2941
vn 0.9733 0.0000 0.2294
vn 0.4906 -0.8657 0.0999
vn 0.7264 0.6176 0.3014
vn 0.7264 0.6176 0.3015
vn 0.9562 -0.0000 0.2928
vn 0.9239 0.0000 0.3826
vn 0.4953 -0.8442 0.2050
vn 0.5238 0.0000 -0.8519
vn -0.0132 0.7284 -0.6850
vn -0.1172 0.8055 -0.5808
vn 0.9977 -0.0000 0.0673
vn 0.9233 0.0000 0.3840
vn 0.9739 -0.0000 0.2270
vn 0.9920 0.0037 0.1261
vn 0.9800 -0.0000 0.1990
vn 0.9799 -0.0000 0.1994
vn 0.3475 0.1818 0.9199
vn 0.4176 0.2610 0.8703
vn 0.5042 0.3646 0.7828
vn 0.5374 0.4068 0.7387
vn 0.6046 0.4980 0.6217
vn 0.6175 0.5169 0.5929
vn 0.6692 0.6008 0.4373
vn 0.6708 0.6039 0.4305
vn 0.6962 0.6604 0.2813
vn 0.6953 0.6577 0.2898
vn 0.9977 0.0000 0.0679
vn 0.9961 0.0000 0.0880
vn 0.1616 0.5277 -0.8339
vn 0.2122 0.4531 -0.8658
vn 0.7199 0.0000 -0.6940
vn 0.8525 -0.0000 -0.5228
vn 0.9150 0.2577 -0.3104
vn 0.9450 -0.0000 -0.3270
vn 0.8661 0.4922 -0.0873
vn 0.1813 0.8495 0.4954
vn 0.0217 0.9222 0.3861
vn -0.1976 0.9057 0.3750
vn -0.1495 0.8466 0.5108
vn 0.5059 0.0000 -0.8626
vn 0.8819 -0.0001 0.4713
vn 0.8810 -0.0000 0.4732
vn 0.8456 -0.0000 0.5338
vn 0.8470 -0.0002 0.5317
vn -0.1282 -0.3279 0.9360
vn -0.2021 -0.2147 0.9555
vn -0.3958 0.1980 0.8968
vn -0.3686 0.1157 0.9223
vn 0.7031 0.6276 0.3344
vn 0.6941 0.6479 0.3138
vn 0.6717 0.6672 0.3220
vn 0.6733 0.6663 0.3204
vn 0.6974 0.0555 0.7145
vn 0.7196 0.1267 0.6827
vn 0.7509 0.0000 0.6604
vn 0.7638 0.0000 0.6454
vn 0.7700 -0.0004 0.6380
vn 0.4166 -0.8427 0.3410
vn 0.4097 -0.8434 0.3476
vn 0.4096 -0.8434 0.3477
vn 0.0024 -0.5055 0.8628
vn 0.4743 -0.8441 0.2502
vn 0.4737 -0.8441 0.2512
vn 0.4544 -0.8442 0.2843
vn 0.4547 -0.8442 0.2838
vn 0.7855 -0.0007 0.6188
vn 0.8171 -0.0004 0.5765
vn 0.8156 -0.0005 0.5786
vn 0.8016 0.0009 0.5978
vn 0.7715 0.0003 0.6363
vn -0.1761 -0.0000 0.9844
vn 0.8662 0.0919 -0.4911
vn 0.8384 0.0324 -0.5441
vn 0.8207 0.0000 -0.5714
vn -0.3951 0.0000 0.9186
vn 0.8838 0.0000 0.4678
vn 0.8478 -0.0000 0.5303
vn 0.4145 -0.8658 0.2803
vn 0.8832 0.0000 0.4690
vn -0.2324 -0.0000 0.9726
vn -0.4932 0.8058 0.3277
vn -0.4934 0.7284 0.4753
vn 0.7508 0.0000 0.6606
vn 0.8463 -0.0000 0.5327
vn 0.7957 0.0028 0.6056
vn 0.8283 -0.0000 0.5603
vn 0.8281 -0.0000 0.5606
vn 0.9113 0.2625 -0.3172
vn 0.8968 0.1824 -0.4032
vn 0.9021 0.4089 -0.1375
vn 0.9102 0.3662 -0.1934
vn 0.8544 0.5191 0.0235
vn 0.8661 0.4998 -0.0069
vn 0.7760 0.6055 0.1766
vn 0.7801 0.6022 0.1700
vn 0.6930 0.6586 0.2934
vn 0.6879 0.6611 0.2996
vn 0.7696 0.0000 0.6385
vn 0.7512 0.0000 0.6601
vn -0.4620 0.4528 0.7626
vn -0.4752 0.5278 0.7040
vn 0.0173 0.0000 0.9998
vn 0.4254 0.2573 0.8677
vn 0.2313 0.0000 0.9729
vn 0.4345 0.0000 0.9007
vn 0.5484 0.4922 0.6760
vn 0.4783 -0.8500 -0.2207
vn 0.2882 -0.9225 -0.2569
vn 0.1253 -0.9058 -0.4046
vn 0.2555 -0.8469 -0.4663
vn 0.9568 0.0002 0.2908
vn 0.9740 0.0002 0.2264
vn 0.5717 0.3286 -0.7518
vn 0.5331 0.2148 -0.8183
vn 0.3542 -0.1981 -0.9139
vn 0.3916 -0.1158 -0.9128
vn 0.7364 -0.6236 0.2622
vn 0.7164 -0.6436 0.2693
vn 0.7037 -0.6647 0.2509
vn 0.7040 -0.6637 0.2528
vn 0.9984 -0.0556 -0.0087
vn 0.9915 -0.1267 0.0295
vn 0.9960 0.0006 0.0889
vn 0.5376 0.8421 0.0426
vn 0.5363 0.8431 0.0394
vn 0.5363 0.8431 0.0393
vn 0.6123 0.5062 -0.6073
vn 0.5121 0.8442 0.1583
vn 0.5124 0.8442 0.1572
vn 0.5217 0.8442 0.1229
vn 0.5215 0.8442 0.1236
vn 0.9946 0.0009 0.1041
vn 0.9848 0.0006 0.1735
vn 0.9854 0.0006 0.1703
vn 0.9903 -0.0012 0.1391
vn 0.9958 -0.0004 0.0919
vn 0.2641 -0.0914 0.9602
vn 0.2075 -0.0324 0.9777
vn 0.4906 0.8657 0.0999
vn 0.7264 -0.6176 0.3014
vn 0.7264 -0.6176 0.3015
vn 0.4953 0.8442 0.2050
vn -0.1172 -0.8055 -0.5808
vn -0.0132 -0.7284 -0.6850
vn 0.9920 -0.0037 0.1261
vn 0.4176 -0.2610 0.8703
vn 0.3475 -0.1818 0.9199
vn 0.5374 -0.4068 0.7387
vn 0.5042 -0.3646 0.7828
vn 0.6175 -0.5169 0.5929
vn 0.6046 -0.4980 0.6217
vn 0.6708 -0.6039 0.4305
vn 0.6692 -0.6008 0.4373
vn 0.6953 -0.6577 0.2898
vn 0.6962 -0.6604 0.2813
vn 0.2122 -0.4531 -0.8658
vn 0.1616 -0.5277 -0.8339
vn 0.9150 -0.2577 -0.3104
vn 0.8661 -0.4922 -0.0873
vn 0.1813 -0.8495 0.4954
vn -0.1495 -0.8466 0.5108
vn -0.1976 -0.9057 0.3751
vn 0.0217 -0.9222 0.3861
vn 0.8819 0.0001 0.4713
vn 0.8470 0.0002 0.5317
vn -0.1282 0.3279 0.9360
vn -0.3686 -0.1157 0.9223
vn -0.3958 -0.1980 0.8968
vn -0.2021 0.2147 0.9555
vn 0.7031 -0.6276 0.3344
vn 0.6733 -0.6663 0.3204
vn 0.6717 -0.6672 0.3220
vn 0.6941 -0.6479 0.3138
vn 0.6974 -0.0555 0.7145
vn 0.7700 0.0004 0.6380
vn 0.7196 -0.1267 0.6827
vn 0.4166 0.8427 0.3410
vn 0.4096 0.8434 0.3477
vn 0.4097 0.8434 0.3476
vn 0.0024 0.5055 0.8628
vn 0.4743 0.8441 0.2502
vn 0.4547 0.8442 0.2838
vn 0.4544 0.8442 0.2843
vn 0.4737 0.8441 0.2512
vn 0.7855 0.0007 0.6188
vn 0.7715 -0.0003 0.6363
vn 0.8016 -0.0009 0.5978
vn 0.8156 0.0005 0.5786
vn 0.8171 0.0004 0.5765
vn 0.8662 -0.0919 -0.4911
vn 0.8384 -0.0324 -0.5442
vn 0.4145 0.8658 0.2803
vn -0.4934 -0.7284 0.4754
vn -0.4932 -0.8058 0.3277
vn 0.7957 -0.0028 0.6056
vn 0.8968 -0.1824 -0.4032
vn 0.9113 -0.2625 -0.3172
vn 0.9102 -0.3662 -0.1934
vn 0.9021 -0.4089 -0.1375
vn 0.8661 -0.4998 -0.0069
vn 0.8544 -0.5191 0.0235
vn 0.7801 -0.6021 0.1699
vn 0.7760 -0.6055 0.1766
vn 0.6879 -0.6611 0.2996
vn 0.6930 -0.6586 0.2933
vn -0.4752 -0.5277 0.7040
vn -0.4620 -0.4528 0.7626
vn 0.4253 -0.2573 0.8677
vn 0.5484 -0.4922 0.6760
vn 0.9799 0.0000 0.1996
vn 0.8776 -0.0000 0.4795
vn 0.8318 0.0000 0.5551
vn 0.9798 -0.0000 0.1999
vn 0.5256 0.8439 0.1073
vn 0.5256 -0.8439 0.1073
vn 0.9814 -0.0000 0.1918
vn 0.9941 0.0000 0.1081
vn 0.5351 -0.8440 0.0361
vn 0.5351 0.8440 0.0361
vn 0.9964 0.0000 0.0848
vn 0.8284 0.0000 0.5601
vn 0.8285 -0.0000 0.5600
vn 0.9596 -0.0000 0.2815
vn 0.4444 0.8440 0.3003
vn 0.4444 -0.8440 0.3003
vn 0.7874 0.0000 0.6164
vn 0.7764 0.0000 0.6302
vn 0.4026 -0.8440 0.3543
vn 0.4026 0.8440 0.3543
vn 0.9229 -0.0000 0.3850
usemtl MI_Trim_01
s 1
f 6/1/1 256/2/2 253/3/2 2/4/1
f 7/5/3 228/6/4 229/7/4 3/8/5
f 6/1/1 8/9/1 258/10/2 256/2/2
f 8/9/1 6/1/1 2/4/1 4/11/1
f 5/12/3 7/5/3 3/8/5 1/13/5
f 61/14/6 57/15/7 31/16/8 33/17/9
f 21/18/10 19/19/10 16/20/10 14/21/10
f 38/22/11 207/23/12 218/24/13 39/25/14
f 10/26/15 55/27/16 58/28/17 13/29/18
f 25/30/19 219/31/20 207/23/21 38/22/22
f 60/32/23 231/33/24 222/34/25 12/35/26 13/36/26 58/37/27
f 21/38/28 14/39/28 223/40/29 222/41/30
f 10/26/15 13/29/18 12/42/31 11/43/31
f 24/44/32 220/45/33 206/46/34 23/47/35
f 19/48/36 231/33/24 232/49/37 43/50/38 42/51/39 18/52/40
f 64/53/41 61/14/41 33/17/41 34/54/41
f 40/55/42 22/56/43 37/57/43 49/58/44
f 18/59/45 20/60/45 15/61/45 17/62/45
f 23/63/46 206/64/47 214/65/47
f 19/19/48 18/66/48 17/67/48 16/20/48
f 9/68/49 25/30/19 38/22/22 36/69/50
f 23/63/46 25/70/51 26/71/52 28/72/52
f 24/44/32 23/47/35 28/73/53 27/74/53
f 29/75/54 30/76/54 32/77/54 31/78/54
f 57/79/7 54/80/55 29/75/56 31/78/8
f 31/16/57 32/81/57 34/54/57 33/17/57
f 36/69/58 38/22/11 39/25/14 35/82/58
f 23/63/46 214/65/47 219/83/59 25/70/51
f 40/84/60 44/85/61 45/86/61 46/87/61 47/88/61 41/89/62 42/51/39 43/50/38
f 40/55/42 49/58/44 53/90/63 44/91/64
f 44/91/64 53/90/63 52/92/65 45/93/66
f 45/93/66 52/92/65 51/94/67 46/95/68
f 46/95/68 51/94/67 50/96/69 47/97/70
f 47/97/70 50/96/69 48/98/71 41/99/72
f 60/32/23 63/100/73 221/101/74 232/49/37
f 54/80/55 57/79/7 59/102/75 56/103/76
f 56/103/76 59/102/75 58/28/17 55/27/16
f 61/14/77 64/53/77 65/104/78 62/105/79
f 62/105/79 65/104/78 63/100/80 60/32/23
f 60/32/23 58/37/27 59/106/81 62/105/79
f 62/105/79 59/106/81 57/15/7 61/14/6
f 112/107/82 86/108/83 84/109/84 108/110/85
f 77/111/86 70/112/86 72/113/86 75/114/86
f 89/115/87 90/116/88 235/117/89 240/118/90
f 66/119/91 69/120/92 109/121/93 106/122/94
f 81/123/95 89/115/96 240/118/97 236/124/98
f 111/125/99 109/126/100 69/127/101 68/128/101 249/129/102 250/130/103
f 77/131/104 249/132/105 251/133/106 70/134/104
f 66/119/91 67/135/107 68/136/107 69/120/92
f 80/137/108 79/138/109 243/139/110 248/140/111
f 75/141/112 74/142/113 93/143/114 94/144/115 252/145/116 250/130/103
f 115/146/117 87/147/117 86/108/117 112/107/117
f 91/148/118 100/149/119 88/150/120 78/151/120
f 74/152/121 73/153/121 71/154/121 76/155/121
f 79/156/122 241/157/123 243/158/123
f 75/114/124 72/113/124 73/159/124 74/160/124
f 9/68/49 36/69/50 89/115/96 81/123/95
f 79/156/122 28/72/52 26/71/52 81/161/125
f 80/137/108 27/74/53 28/73/53 79/138/109
f 82/162/126 84/163/126 85/164/127 83/165/127
f 108/166/85 84/163/84 82/162/128 105/167/129
f 84/109/130 86/108/130 87/147/130 85/168/130
f 36/69/58 35/82/58 90/116/88 89/115/87
f 79/156/122 81/161/125 236/169/131 241/157/123
f 91/170/132 94/144/115 93/143/114 92/171/133 98/172/134 97/173/134 96/174/134 95/175/134
f 91/148/118 95/176/135 104/177/136 100/149/119
f 95/176/135 96/178/137 103/179/138 104/177/136
f 96/178/137 97/180/139 102/181/140 103/179/138
f 97/180/139 98/182/141 101/183/142 102/181/140
f 98/182/141 92/184/143 99/185/144 101/183/142
f 111/125/99 252/145/116 254/186/145 114/187/146
f 105/167/129 107/188/147 110/189/148 108/166/85
f 107/188/147 106/122/94 109/121/93 110/189/148
f 112/107/149 113/190/150 116/191/151 115/146/152
f 113/190/150 111/125/99 114/187/153 116/191/151
f 111/125/99 113/190/150 110/192/154 109/126/100
f 113/190/150 112/107/82 108/110/85 110/192/154
f 162/193/155 138/194/156 137/195/157 158/196/158
f 129/197/159 122/198/159 124/199/159 127/200/159
f 140/201/160 39/25/14 218/24/13 213/202/161
f 118/203/162 121/204/163 159/205/164 156/206/165
f 132/207/166 140/201/167 213/202/168 210/208/169
f 161/209/170 159/210/171 121/211/26 120/212/26 225/213/25 230/214/172
f 129/215/173 225/216/174 227/217/175 122/218/173
f 118/203/162 119/219/176 120/220/176 121/204/163
f 131/221/177 130/222/178 209/223/179 212/224/180
f 127/225/181 126/226/182 143/227/183 144/228/184 233/229/185 230/214/172
f 64/53/41 34/54/41 138/194/41 162/193/41
f 141/230/186 150/231/187 37/57/43 22/56/43
f 126/232/45 125/233/45 123/234/45 128/235/45
f 130/236/46 216/237/47 209/238/47
f 127/200/188 124/199/188 125/239/188 126/240/188
f 117/241/189 139/242/189 140/201/167 132/207/166
f 130/236/46 135/243/52 133/244/52 132/245/51
f 131/221/177 134/246/190 135/247/190 130/222/178
f 136/248/54 137/249/54 32/77/54 30/76/54
f 158/250/158 137/249/157 136/248/191 155/251/192
f 137/195/57 138/194/57 34/54/57 32/81/57
f 139/242/58 35/82/58 39/25/14 140/201/160
f 130/236/46 132/245/51 210/252/59 216/237/47
f 141/253/193 144/228/184 143/227/183 142/254/62 148/255/61 147/256/61 146/257/61 145/258/61
f 141/230/186 145/259/194 154/260/195 150/231/187
f 145/259/194 146/261/196 153/262/197 154/260/195
f 146/261/196 147/263/198 152/264/199 153/262/197
f 147/263/198 148/265/200 151/266/201 152/264/199
f 148/265/200 142/267/202 149/268/203 151/266/201
f 161/209/170 233/229/185 221/101/74 63/100/73
f 155/251/192 157/269/204 160/270/205 158/250/158
f 157/269/204 156/206/165 159/205/164 160/270/205
f 162/193/206 163/271/207 65/104/78 64/53/77
f 163/271/207 161/209/170 63/100/80 65/104/78
f 161/209/170 163/271/207 160/272/208 159/210/171
f 163/271/207 162/193/155 158/196/158 160/272/208
f 204/273/209 200/274/210 180/275/211 181/276/212
f 175/277/86 173/278/86 170/279/86 168/280/86
f 182/281/213 238/282/214 235/117/89 90/116/88
f 164/283/215 198/284/216 201/285/217 167/286/218
f 178/287/219 247/288/220 238/282/221 182/281/222
f 203/289/223 257/290/224 259/291/102 166/292/101 167/293/101 201/294/225
f 175/295/226 168/296/226 261/297/227 259/298/228
f 164/283/215 167/286/218 166/299/229 165/300/229
f 177/301/230 245/302/231 237/303/232 176/304/233
f 173/305/234 257/290/224 260/306/235 186/307/236 185/308/237 172/309/238
f 115/146/117 204/273/117 181/276/117 87/147/117
f 183/310/239 78/151/120 88/150/120 192/311/240
f 172/312/121 174/313/121 169/314/121 171/315/121
f 176/316/122 237/317/123 234/318/123
f 173/278/241 172/319/241 171/320/241 170/279/241
f 117/241/189 178/287/219 182/281/222 139/242/189
f 176/316/122 178/321/125 133/244/52 135/243/52
f 177/301/230 176/304/233 135/247/190 134/246/190
f 179/322/127 83/165/127 85/164/127 180/323/127
f 200/324/210 197/325/242 179/322/243 180/323/211
f 180/275/130 85/168/130 87/147/130 181/276/130
f 139/242/58 182/281/213 90/116/88 35/82/58
f 176/316/122 234/318/123 247/326/131 178/321/125
f 183/327/244 187/328/134 188/329/134 189/330/134 190/331/134 184/332/133 185/308/237 186/307/236
f 183/310/239 192/311/240 196/333/245 187/334/246
f 187/334/246 196/333/245 195/335/247 188/336/248
f 188/336/248 195/335/247 194/337/249 189/338/250
f 189/338/250 194/337/249 193/339/251 190/340/252
f 190/340/252 193/339/251 191/341/253 184/342/254
f 203/289/223 114/187/146 254/186/145 260/306/235
f 197/325/242 200/324/210 202/343/255 199/344/256
f 199/344/256 202/343/255 201/285/217 198/284/216
f 204/273/257 115/146/152 116/191/151 205/345/258
f 205/345/258 116/191/151 114/187/153 203/289/223
f 203/289/223 201/294/225 202/346/259 205/345/258
f 205/345/258 202/346/259 200/274/210 204/273/209
f 209/238/47 216/237/47 126/226/182 128/347/260
f 214/65/47 206/64/47 20/348/260 18/52/40
f 210/208/169 213/202/168 149/268/203 142/267/202
f 271/349/261 273/350/261 246/351/262 242/352/262
f 213/202/161 218/24/13 37/57/263 150/231/263 154/260/263 153/262/263 152/264/263 151/266/263 149/268/263
f 218/24/13 207/23/12 48/98/263 50/96/263 51/94/263 52/92/263 53/90/263 49/58/263 37/57/263
f 207/23/21 219/31/20 41/99/72 48/98/71
f 212/224/180 209/223/179 128/235/264 123/234/264
f 206/46/34 220/45/33 15/61/265 20/60/265
f 216/237/47 210/252/59 142/254/62 143/227/183 126/226/182
f 219/83/59 214/65/47 18/52/40 42/51/39 41/89/62
f 208/353/266 215/354/266 226/355/4 224/356/4
f 215/354/266 217/357/266 228/6/4 226/355/4
f 232/49/37 231/33/24 60/32/23
f 221/101/74 233/229/185 144/228/184 141/253/193 22/358/267
f 222/41/30 223/40/29 11/43/268 12/42/268
f 229/7/4 228/6/4 217/357/266 211/359/266
f 224/356/4 226/355/4 5/12/3 1/13/5
f 227/217/175 225/216/174 120/220/269 119/219/269
f 230/214/172 233/229/185 161/209/170
f 226/355/4 228/6/4 7/5/3 5/12/3
f 230/214/172 225/213/25 129/360/270 127/225/181
f 222/34/25 231/33/24 19/48/36 21/361/270
f 232/49/37 221/101/74 22/358/267 40/84/60 43/50/38
f 247/326/131 234/318/123 172/309/238 185/308/237 184/332/133
f 241/157/123 236/169/131 92/171/133 93/143/114 74/142/113
f 242/352/262 246/351/262 258/10/2 255/362/2
f 234/318/123 237/317/123 174/363/271 172/309/238
f 243/158/123 241/157/123 74/142/113 76/364/271
f 240/118/90 235/117/89 88/150/272 100/149/272 104/177/272 103/179/272 102/181/272 101/183/272 99/185/272
f 266/365/273 268/366/273 215/354/266 208/353/266
f 268/366/273 269/367/273 217/357/266 215/354/266
f 235/117/89 238/282/214 191/341/272 193/339/272 194/337/272 195/335/272 196/333/272 192/311/272 88/150/272
f 238/282/221 247/288/220 184/342/254 191/341/253
f 236/124/98 240/118/97 99/185/144 92/184/143
f 237/303/232 245/302/231 169/314/274 174/313/274
f 248/140/111 243/139/110 76/155/275 71/154/275
f 254/186/145 252/145/116 94/144/115 91/170/132 78/368/276
f 250/130/103 252/145/116 111/125/99
f 253/3/2 256/2/2 244/369/262 239/370/262
f 250/130/103 249/129/102 77/371/277 75/141/112
f 256/2/2 258/10/2 246/351/262 244/369/262
f 259/291/102 257/290/224 173/305/234 175/372/277
f 260/306/235 254/186/145 78/368/276 183/327/244 186/307/236
f 251/133/106 249/132/105 68/136/278 67/135/278
f 260/306/235 257/290/224 203/289/223
f 255/362/2 258/10/2 8/9/1 4/11/1
f 259/298/228 261/297/227 165/300/279 166/299/279
f 272/373/261 273/350/261 265/374/280 264/375/280
f 270/376/261 272/373/261 264/375/280 262/377/280
f 267/378/273 269/367/273 265/374/280 263/379/280
f 211/359/266 217/357/266 269/367/273 267/378/273
f 264/375/280 265/374/280 269/367/273 268/366/273
f 262/377/280 264/375/280 268/366/273 266/365/273
f 239/370/262 244/369/262 272/373/261 270/376/261
f 244/369/262 246/351/262 273/350/261 272/373/261
f 263/379/280 265/374/280 273/350/261 271/349/261
f 277/380/281 527/381/282 524/382/282 1/383/5
f 278/384/283 499/385/284 500/386/284 275/387/283
f 277/380/281 279/388/281 529/389/282 527/381/282
f 279/388/281 277/380/281 1/383/5 3/390/5
f 276/391/283 278/384/283 275/387/283 274/392/283
f 332/393/285 328/394/286 302/395/287 304/396/288
f 292/397/289 290/398/289 287/399/289 285/400/289
f 309/401/290 478/402/291 489/403/292 310/404/293
f 281/405/294 326/406/295 329/407/296 284/408/297
f 296/409/298 490/410/299 478/402/300 309/401/301
f 331/411/302 502/412/303 493/413/304 283/414/305 284/415/305 329/416/306
f 292/417/307 285/418/307 494/419/308 493/420/309
f 281/405/294 284/408/297 283/421/310 282/422/310
f 295/423/311 491/424/312 477/425/313 294/426/314
f 290/427/315 502/412/303 503/428/316 314/429/317 313/430/318 289/431/319
f 335/432/320 332/393/320 304/396/320 305/433/320
f 311/434/321 293/435/322 308/436/322 320/437/323
f 289/438/324 291/439/324 286/440/324 288/441/324
f 294/442/325 477/443/326 485/444/326
f 290/398/327 289/445/327 288/446/327 287/399/327
f 280/447/328 296/409/298 309/401/301 307/448/329
f 294/442/325 296/449/330 297/450/331 299/451/331
f 295/423/311 294/426/314 299/452/332 298/453/332
f 300/454/333 301/455/333 303/456/333 302/457/333
f 328/458/286 325/459/334 300/454/335 302/457/287
f 302/395/336 303/460/336 305/433/336 304/396/336
f 307/448/337 309/401/290 310/404/293 306/461/337
f 294/442/325 485/444/326 490/462/338 296/449/330
f 311/463/339 315/464/340 316/465/340 317/466/340 318/467/340 312/468/341 313/430/318 314/429/317
f 311/434/321 320/437/323 324/469/342 315/470/343
f 315/470/343 324/469/342 323/471/344 316/472/345
f 316/472/345 323/471/344 322/473/346 317/474/347
f 317/474/347 322/473/346 321/475/348 318/476/349
f 318/476/349 321/475/348 319/477/350 312/478/351
f 331/411/302 334/479/352 492/480/353 503/428/316
f 325/459/334 328/458/286 330/481/354 327/482/355
f 327/482/355 330/481/354 329/407/296 326/406/295
f 332/393/356 335/432/356 336/483/357 333/484/358
f 333/484/358 336/483/357 334/479/359 331/411/302
f 331/411/302 329/416/306 330/485/360 333/484/358
f 333/484/358 330/485/360 328/394/286 332/393/285
f 383/486/361 357/487/362 355/488/363 379/489/364
f 348/490/365 341/491/365 343/492/365 346/493/365
f 360/494/366 361/495/367 506/496/368 511/497/369
f 337/498/370 340/499/371 380/500/372 377/501/373
f 352/502/374 360/494/375 511/497/376 507/503/377
f 382/504/378 380/505/379 340/506/380 339/507/380 520/508/381 521/509/382
f 348/510/383 520/511/384 522/512/385 341/513/383
f 337/498/370 338/514/386 339/515/386 340/499/371
f 351/516/387 350/517/388 514/518/389 519/519/390
f 346/520/391 345/521/392 364/522/393 365/523/394 523/524/395 521/509/382
f 386/525/396 358/526/396 357/487/396 383/486/396
f 362/527/397 371/528/398 359/529/399 349/530/399
f 345/531/400 344/532/400 342/533/400 347/534/400
f 350/535/401 512/536/402 514/537/402
f 346/493/403 343/492/403 344/538/403 345/539/403
f 280/447/328 307/448/329 360/494/375 352/502/374
f 350/535/401 299/451/331 297/450/331 352/540/404
f 351/516/387 298/453/332 299/452/332 350/517/388
f 353/541/405 355/542/405 356/543/405 354/544/405
f 379/545/364 355/542/363 353/541/406 376/546/407
f 355/488/408 357/487/408 358/526/408 356/547/408
f 307/448/337 306/461/337 361/495/367 360/494/366
f 350/535/401 352/540/404 507/548/409 512/536/402
f 362/549/410 365/523/394 364/522/393 363/550/411 369/551/412 368/552/412 367/553/412 366/554/412
f 362/527/397 366/555/413 375/556/414 371/528/398
f 366/555/413 367/557/415 374/558/416 375/556/414
f 367/557/415 368/559/417 373/560/418 374/558/416
f 368/559/417 369/561/419 372/562/420 373/560/418
f 369/561/419 363/563/421 370/564/422 372/562/420
f 382/504/378 523/524/395 525/565/423 385/566/424
f 376/546/407 378/567/425 381/568/426 379/545/364
f 378/567/425 377/501/373 380/500/372 381/568/426
f 383/486/427 384/569/428 387/570/429 386/525/427
f 384/569/428 382/504/378 385/566/430 387/570/429
f 382/504/378 384/569/428 381/571/431 380/505/379
f 384/569/428 383/486/361 379/489/364 381/571/431
f 433/572/432 409/573/433 408/574/434 429/575/435
f 400/576/289 393/577/289 395/578/289 398/579/289
f 411/580/436 310/404/293 489/403/292 484/581/437
f 389/582/438 392/583/439 430/584/440 427/585/441
f 403/586/442 411/580/443 484/581/444 481/587/445
f 432/588/446 430/589/447 392/590/305 391/591/305 496/592/304 501/593/448
f 400/594/449 496/595/450 498/596/451 393/597/449
f 389/582/438 390/598/452 391/599/452 392/583/439
f 402/600/453 401/601/454 480/602/455 483/603/456
f 398/604/457 397/605/458 414/606/459 415/607/460 504/608/461 501/593/448
f 335/432/320 305/433/320 409/573/320 433/572/320
f 412/609/462 421/610/463 308/436/322 293/435/322
f 397/611/324 396/612/324 394/613/324 399/614/324
f 401/615/325 487/616/326 480/617/326
f 398/579/464 395/578/464 396/618/464 397/619/464
f 388/620/465 410/621/466 411/580/443 403/586/442
f 401/615/325 406/622/331 404/623/331 403/624/330
f 402/600/453 405/625/467 406/626/467 401/601/454
f 407/627/333 408/628/333 303/456/333 301/455/333
f 429/629/435 408/628/434 407/627/468 426/630/469
f 408/574/336 409/573/336 305/433/336 303/460/336
f 410/621/337 306/461/337 310/404/293 411/580/436
f 401/615/325 403/624/330 481/631/338 487/616/326
f 412/632/470 415/607/460 414/606/459 413/633/341 419/634/340 418/635/340 417/636/340 416/637/340
f 412/609/462 416/638/471 425/639/472 421/610/463
f 416/638/471 417/640/473 424/641/474 425/639/472
f 417/640/473 418/642/475 423/643/476 424/641/474
f 418/642/475 419/644/477 422/645/478 423/643/476
f 419/644/477 413/646/479 420/647/480 422/645/478
f 432/588/446 504/608/461 492/480/353 334/479/352
f 426/630/469 428/648/481 431/649/482 429/629/435
f 428/648/481 427/585/441 430/584/440 431/649/482
f 433/572/356 434/650/483 336/483/357 335/432/356
f 434/650/483 432/588/446 334/479/359 336/483/357
f 432/588/446 434/650/483 431/651/484 430/589/447
f 434/650/483 433/572/432 429/575/435 431/651/484
f 475/652/485 471/653/486 451/654/487 452/655/488
f 446/656/365 444/657/365 441/658/365 439/659/365
f 453/660/489 509/661/490 506/496/368 361/495/367
f 435/662/491 469/663/492 472/664/493 438/665/494
f 449/666/495 518/667/496 509/661/497 453/660/498
f 474/668/499 528/669/500 530/670/381 437/671/380 438/672/380 472/673/501
f 446/674/502 439/675/502 532/676/503 530/677/504
f 435/662/491 438/665/494 437/678/505 436/679/505
f 448/680/506 516/681/507 508/682/508 447/683/509
f 444/684/510 528/669/500 531/685/511 457/686/512 456/687/513 443/688/514
f 386/525/396 475/652/396 452/655/396 358/526/396
f 454/689/515 349/530/399 359/529/399 463/690/516
f 443/691/400 445/692/400 440/693/400 442/694/400
f 447/695/401 508/696/402 505/697/402
f 444/657/517 443/698/517 442/699/517 441/658/517
f 388/620/465 449/666/495 453/660/498 410/621/466
f 447/695/401 449/700/404 404/623/331 406/622/331
f 448/680/506 447/683/509 406/626/467 405/625/467
f 450/701/405 354/544/405 356/543/405 451/702/405
f 471/703/486 468/704/518 450/701/519 451/702/487
f 451/654/408 356/547/408 358/526/408 452/655/408
f 410/621/337 453/660/489 361/495/367 306/461/337
f 447/695/401 505/697/402 518/705/409 449/700/404
f 454/706/520 458/707/412 459/708/412 460/709/412 461/710/412 455/711/411 456/687/513 457/686/512
f 454/689/515 463/690/516 467/712/521 458/713/522
f 458/713/522 467/712/521 466/714/523 459/715/524
f 459/715/524 466/714/523 465/716/525 460/717/526
f 460/717/526 465/716/525 464/718/527 461/719/528
f 461/719/528 464/718/527 462/720/529 455/721/530
f 474/668/499 385/566/424 525/565/423 531/685/511
f 468/704/518 471/703/486 473/722/531 470/723/532
f 470/723/532 473/722/531 472/664/493 469/663/492
f 475/652/427 386/525/427 387/570/429 476/724/533
f 476/724/533 387/570/429 385/566/430 474/668/499
f 474/668/499 472/673/501 473/725/534 476/724/533
f 476/724/533 473/725/534 471/653/486 475/652/485
f 480/617/326 487/616/326 397/605/458 399/726/535
f 485/444/326 477/443/326 291/727/535 289/431/319
f 481/587/445 484/581/444 420/647/480 413/646/479
f 542/728/536 544/729/536 517/730/537 513/731/537
f 484/581/437 489/403/292 308/436/538 421/610/538 425/639/538 424/641/538 423/643/538 422/645/538 420/647/538
f 489/403/292 478/402/291 319/477/538 321/475/538 322/473/538 323/471/538 324/469/538 320/437/538 308/436/538
f 478/402/300 490/410/299 312/478/351 319/477/350
f 483/603/456 480/602/455 399/614/539 394/613/539
f 477/425/313 491/424/312 286/440/540 291/439/540
f 487/616/326 481/631/338 413/633/341 414/606/459 397/605/458
f 490/462/338 485/444/326 289/431/319 313/430/318 312/468/341
f 479/732/541 486/733/541 497/734/284 495/735/284
f 486/733/541 488/736/541 499/385/284 497/734/284
f 503/428/316 502/412/303 331/411/302
f 492/480/353 504/608/461 415/607/460 412/632/470 293/737/542
f 493/420/309 494/419/308 282/422/543 283/421/543
f 500/386/284 499/385/284 488/736/541 482/738/541
f 495/735/284 497/734/284 276/391/283 274/392/283
f 498/596/451 496/595/450 391/599/544 390/598/544
f 501/593/448 504/608/461 432/588/446
f 497/734/284 499/385/284 278/384/283 276/391/283
f 501/593/448 496/592/304 400/739/545 398/604/457
f 493/413/304 502/412/303 290/427/315 292/740/545
f 503/428/316 492/480/353 293/737/542 311/463/339 314/429/317
f 518/705/409 505/697/402 443/688/514 456/687/513 455/711/411
f 512/536/402 507/548/409 363/550/411 364/522/393 345/521/392
f 513/731/537 517/730/537 529/389/282 526/741/282
f 505/697/402 508/696/402 445/742/546 443/688/514
f 514/537/402 512/536/402 345/521/392 347/743/546
f 511/497/369 506/496/368 359/529/547 371/528/547 375/556/547 374/558/547 373/560/547 372/562/547 370/564/547
f 537/744/548 539/745/548 486/733/541 479/732/541
f 539/745/548 540/746/548 488/736/541 486/733/541
f 506/496/368 509/661/490 462/720/547 464/718/547 465/716/547 466/714/547 467/712/547 463/690/547 359/529/547
f 509/661/497 518/667/496 455/721/530 462/720/529
f 507/503/377 511/497/376 370/564/422 363/563/421
f 508/682/508 516/681/507 440/693/549 445/692/549
f 519/519/390 514/518/389 347/534/550 342/533/550
f 525/565/423 523/524/395 365/523/394 362/549/410 349/747/551
f 521/509/382 523/524/395 382/504/378
f 524/382/282 527/381/282 515/748/537 510/749/537
f 521/509/382 520/508/381 348/750/552 346/520/391
f 527/381/282 529/389/282 517/730/537 515/748/537
f 530/670/381 528/669/500 444/684/510 446/751/552
f 531/685/511 525/565/423 349/747/551 454/706/520 457/686/512
f 522/512/385 520/511/384 339/515/553 338/514/553
f 531/685/511 528/669/500 474/668/499
f 526/741/282 529/389/282 279/388/281 3/390/5
f 530/677/504 532/676/503 436/679/554 437/678/554
f 543/752/536 544/729/536 536/753/555 535/754/555
f 541/755/536 543/752/536 535/754/555 533/756/555
f 538/757/548 540/746/548 536/753/555 534/758/555
f 482/738/541 488/736/541 540/746/548 538/757/548
f 535/754/555 536/753/555 540/746/548 539/745/548
f 533/756/555 535/754/555 539/745/548 537/744/548
f 510/749/537 515/748/537 543/752/536 541/755/536
f 515/748/537 517/730/537 544/729/536 543/752/536
f 534/758/555 536/753/555 544/729/536 542/728/536
