# Blender v3.6.0 OBJ File: 'AllModules_Unreal.blend'
# www.blender.org
mtllib TopPadded_Incline_Straight.mtl
o TopPadded_Incline_Straight_Plane.048
v -1.503366 3.997129 1.001711
v -1.503366 3.997129 2.001736
v -1.999036 3.004417 1.001711
v -1.999036 3.004417 2.001736
v -1.007696 4.989841 1.001711
v -1.007696 4.989841 2.001736
v -1.007696 4.989841 0.001711
v -1.943219 3.116206 1.771237
v -1.601363 3.800863 1.091608
v -1.943219 3.116206 1.096680
v -1.898878 3.205012 1.910711
v -1.559883 3.883939 1.898031
v -1.549870 3.903991 1.223476
v -1.123624 4.757663 1.905638
v -1.449746 4.104518 1.915782
v -1.458328 4.087330 1.213331
v -1.402544 4.199051 1.096678
v -1.063549 4.877979 1.101750
v -1.053537 4.898031 1.806737
v -1.409696 4.184729 0.911556
v -1.059258 4.886573 0.903949
v -1.053537 4.898031 0.204033
v -1.452606 4.098788 0.789832
v -1.109320 4.786310 0.102597
v -1.445455 4.113112 0.107669
v -1.604224 3.795133 0.911556
v -1.948941 3.104747 0.198962
v -1.948941 3.104747 0.903949
v -1.551301 3.901126 0.100061
v -1.898878 3.205011 0.087381
v -1.547010 3.909720 0.805047
v -1.767018 3.319186 0.673322
v -1.597956 3.657777 0.304899
v -1.291354 4.271828 0.347137
v -1.124776 4.605446 0.718018
v -1.104115 4.646825 1.345314
v -1.273276 4.308035 1.702459
v -1.594811 3.664075 1.713906
v -1.763973 3.325284 1.329287
v -1.503366 3.997129 -0.998289
v -1.503366 3.997129 0.001736
v -1.999037 3.004417 -0.998289
v -1.999036 3.004417 0.001736
v -1.007696 4.989841 -0.998289
v -1.943219 3.116206 -0.228763
v -1.601364 3.800863 -0.908392
v -1.943219 3.116206 -0.903320
v -1.898878 3.205012 -0.089289
v -1.559883 3.883939 -0.101968
v -1.549870 3.903991 -0.776524
v -1.123624 4.757663 -0.094362
v -1.449746 4.104518 -0.084218
v -1.458328 4.087330 -0.786669
v -1.402544 4.199051 -0.903322
v -1.063549 4.877979 -0.898250
v -1.053537 4.898031 -0.193263
v -1.409696 4.184729 -1.088444
v -1.059258 4.886573 -1.096051
v -1.053537 4.898031 -1.795967
v -1.452607 4.098788 -1.210168
v -1.109321 4.786310 -1.897403
v -1.445455 4.113112 -1.892331
v -1.604224 3.795133 -1.088444
v -1.948941 3.104747 -1.801039
v -1.948941 3.104747 -1.096051
v -1.551301 3.901126 -1.899939
v -1.547010 3.909720 -1.194953
v -1.898878 3.205011 -1.912619
v -1.767018 3.319186 -1.326678
v -1.597956 3.657777 -1.695101
v -1.291355 4.271828 -1.652864
v -1.124776 4.605446 -1.281982
v -1.104115 4.646826 -0.654686
v -1.273276 4.308035 -0.297541
v -1.594812 3.664075 -0.286094
v -1.763973 3.325284 -0.670713
v -1.503366 3.997129 -1.998264
v -1.999037 3.004417 -1.998264
v -1.007696 4.989841 -1.998264
v -1.990115 3.000157 0.000000
v -1.990115 3.000157 -1.998264
v -1.494709 3.992338 0.000000
v -1.990115 3.000157 -1.002358
v -1.990115 3.000157 -0.986968
v -1.494710 3.992338 -1.998264
v -1.494709 3.992338 -0.994662
v -1.965555 3.049345 -0.868258
v -1.930515 3.119521 -0.939151
v -1.964361 3.051736 -0.886606
v -1.960861 3.058746 -0.903705
v -1.955292 3.069898 -0.918387
v -1.948035 3.084433 -0.929654
v -1.939584 3.101357 -0.936736
v -1.596940 3.787594 -0.939151
v -1.586358 3.808786 -0.867931
v -1.586290 3.808924 -0.936725
v -1.578765 3.823995 -0.929610
v -1.574877 3.831781 -0.918292
v -1.574891 3.831752 -0.903542
v -1.578808 3.823909 -0.886364
v -1.930354 3.119843 -0.171935
v -1.965554 3.049345 -0.193344
v -1.939465 3.101597 -0.156658
v -1.947954 3.084594 -0.148735
v -1.955245 3.069993 -0.148705
v -1.960839 3.058789 -0.156571
v -1.964355 3.051747 -0.171796
v -1.965555 3.049345 -1.795982
v -1.930354 3.119844 -1.817390
v -1.964356 3.051747 -1.817530
v -1.960839 3.058790 -1.832755
v -1.955245 3.069993 -1.840621
v -1.947954 3.084594 -1.840591
v -1.939465 3.101597 -1.832668
v -1.586358 3.808787 -1.121395
v -1.596940 3.787594 -1.050174
v -1.578807 3.823909 -1.102961
v -1.574891 3.831752 -1.085784
v -1.574877 3.831781 -1.071034
v -1.578765 3.823995 -1.059715
v -1.586290 3.808924 -1.052600
v -1.930516 3.119520 -1.050174
v -1.965555 3.049345 -1.121068
v -1.939584 3.101358 -1.052589
v -1.948035 3.084432 -1.059672
v -1.955292 3.069898 -1.070938
v -1.960861 3.058746 -1.085621
v -1.964361 3.051736 -1.102719
v -1.892336 3.195984 -0.045204
v -1.902918 3.174792 -0.116424
v -1.902986 3.174654 -0.047630
v -1.910511 3.159584 -0.054745
v -1.914399 3.151797 -0.066063
v -1.914384 3.151827 -0.080814
v -1.910468 3.159670 -0.097991
v -1.558922 3.863735 -0.812420
v -1.523721 3.934234 -0.791010
v -1.549811 3.881981 -0.827697
v -1.541322 3.898984 -0.835620
v -1.534031 3.913585 -0.835649
v -1.528437 3.924789 -0.827784
v -1.524921 3.931832 -0.812558
v -1.523721 3.934234 -0.116097
v -1.558761 3.864058 -0.045203
v -1.524915 3.931843 -0.097748
v -1.528415 3.924832 -0.080650
v -1.533984 3.913680 -0.065967
v -1.541241 3.899146 -0.054701
v -1.549692 3.882221 -0.047619
v -1.523721 3.934234 -1.198315
v -1.558922 3.863735 -1.176905
v -1.524921 3.931832 -1.176767
v -1.528437 3.924789 -1.161541
v -1.534031 3.913586 -1.153675
v -1.541322 3.898984 -1.153705
v -1.549811 3.881981 -1.161628
v -1.902918 3.174793 -1.872902
v -1.892336 3.195984 -1.944123
v -1.910468 3.159670 -1.891335
v -1.914385 3.151827 -1.908512
v -1.914400 3.151798 -1.923263
v -1.910512 3.159584 -1.934581
v -1.902986 3.174655 -1.941696
v -1.558761 3.864059 -1.944122
v -1.523721 3.934234 -1.873228
v -1.549692 3.882222 -1.941707
v -1.541241 3.899147 -1.934624
v -1.533984 3.913681 -1.923358
v -1.528416 3.924833 -1.908675
v -1.524915 3.931843 -1.891577
v -2.029784 3.019574 -1.998264
v -2.029784 3.019574 -1.002358
v -2.029784 3.019574 -0.986969
v -1.534223 4.012067 -1.998264
v -2.029783 3.019573 0.000000
v -2.004967 3.069275 -0.868257
v -1.969944 3.139420 -0.939152
v -2.003774 3.071666 -0.886606
v -2.000275 3.078673 -0.903705
v -1.994709 3.089820 -0.918388
v -1.987456 3.104348 -0.929654
v -1.979008 3.121265 -0.936737
v -1.636518 3.807193 -0.939152
v -1.625942 3.828376 -0.867931
v -1.625873 3.828513 -0.936725
v -1.618351 3.843577 -0.929610
v -1.614465 3.851360 -0.918292
v -1.614480 3.851331 -0.903541
v -1.618394 3.843491 -0.886364
v -1.969782 3.139743 -0.171935
v -2.004967 3.069275 -0.193344
v -1.978889 3.121504 -0.156658
v -1.987375 3.104509 -0.148735
v -1.994661 3.089915 -0.148705
v -2.000253 3.078716 -0.156571
v -2.003768 3.071676 -0.171796
v -2.004967 3.069276 -1.795982
v -1.969782 3.139743 -1.817391
v -2.003768 3.071677 -1.817530
v -2.000253 3.078717 -1.832755
v -1.994662 3.089915 -1.840621
v -1.987375 3.104510 -1.840591
v -1.978889 3.121505 -1.832668
v -1.625941 3.828375 -1.121395
v -1.636518 3.807193 -1.050174
v -1.618394 3.843491 -1.102962
v -1.614480 3.851331 -1.085784
v -1.614465 3.851360 -1.071034
v -1.618352 3.843576 -1.059715
v -1.625873 3.828513 -1.052601
v -1.969944 3.139419 -1.050174
v -2.004967 3.069276 -1.121068
v -1.979008 3.121265 -1.052590
v -1.987456 3.104348 -1.059672
v -1.994709 3.089820 -1.070938
v -2.000275 3.078673 -1.085621
v -2.003773 3.071666 -1.102719
v -1.931782 3.215849 -0.045204
v -1.942358 3.194667 -0.116424
v -1.942427 3.194529 -0.047630
v -1.949949 3.179465 -0.054745
v -1.953835 3.171682 -0.066063
v -1.953820 3.171711 -0.080814
v -1.949906 3.179551 -0.097991
v -1.598517 3.883299 -0.812419
v -1.563332 3.953766 -0.791010
v -1.589411 3.901537 -0.827696
v -1.580925 3.918532 -0.835620
v -1.573638 3.933127 -0.835649
v -1.568046 3.944326 -0.827784
v -1.564531 3.951365 -0.812558
v -1.563332 3.953766 -0.116097
v -1.598356 3.883622 -0.045203
v -1.564526 3.951376 -0.097748
v -1.568025 3.944368 -0.080650
v -1.573590 3.933222 -0.065967
v -1.580844 3.918694 -0.054701
v -1.589291 3.901777 -0.047619
v -1.563333 3.953766 -1.198315
v -1.598518 3.883299 -1.176906
v -1.564531 3.951366 -1.176767
v -1.568047 3.944325 -1.161541
v -1.573638 3.933127 -1.153675
v -1.580925 3.918532 -1.153705
v -1.589411 3.901537 -1.161628
v -1.942358 3.194667 -1.872902
v -1.931782 3.215849 -1.944123
v -1.949906 3.179551 -1.891336
v -1.953820 3.171712 -1.908512
v -1.953835 3.171682 -1.923263
v -1.949949 3.179465 -1.934581
v -1.942427 3.194530 -1.941696
v -1.598356 3.883623 -1.944123
v -1.563333 3.953767 -1.873229
v -1.589291 3.901778 -1.941707
v -1.580845 3.918694 -1.934624
v -1.573591 3.933222 -1.923358
v -1.568025 3.944369 -1.908675
v -1.564526 3.951377 -1.891577
v -1.990114 3.000157 2.001736
v -1.990114 3.000157 1.002358
v -1.990114 3.000157 0.986969
v -1.494709 3.992337 2.001736
v -1.494709 3.992338 0.994663
v -1.965554 3.049345 0.868258
v -1.930515 3.119521 0.939153
v -1.964360 3.051736 0.886607
v -1.960860 3.058747 0.903705
v -1.955292 3.069899 0.918388
v -1.948035 3.084433 0.929655
v -1.939584 3.101357 0.936737
v -1.596939 3.787595 0.939152
v -1.586358 3.808787 0.867931
v -1.586289 3.808924 0.936725
v -1.578764 3.823995 0.929610
v -1.574876 3.831782 0.918292
v -1.574891 3.831752 0.903542
v -1.578807 3.823909 0.886365
v -1.930354 3.119844 0.171935
v -1.965554 3.049345 0.193344
v -1.939465 3.101597 0.156658
v -1.947954 3.084594 0.148735
v -1.955245 3.069993 0.148706
v -1.960839 3.058790 0.156571
v -1.964355 3.051747 0.171797
v -1.965554 3.049345 1.795982
v -1.930353 3.119844 1.817391
v -1.964354 3.051748 1.817530
v -1.960838 3.058790 1.832755
v -1.955244 3.069994 1.840621
v -1.947953 3.084595 1.840592
v -1.939464 3.101598 1.832668
v -1.586358 3.808787 1.121394
v -1.596939 3.787595 1.050174
v -1.578807 3.823909 1.102962
v -1.574891 3.831752 1.085784
v -1.574876 3.831782 1.071034
v -1.578764 3.823995 1.059716
v -1.586289 3.808924 1.052600
v -1.930515 3.119521 1.050174
v -1.965554 3.049345 1.121068
v -1.939584 3.101358 1.052590
v -1.948035 3.084433 1.059672
v -1.955292 3.069899 1.070939
v -1.960860 3.058747 1.085621
v -1.964360 3.051736 1.102720
v -1.892336 3.195984 0.045203
v -1.902917 3.174792 0.116424
v -1.902986 3.174654 0.047630
v -1.910511 3.159584 0.054745
v -1.914399 3.151797 0.066063
v -1.914384 3.151827 0.080814
v -1.910468 3.159670 0.097991
v -1.558922 3.863735 0.812420
v -1.523721 3.934234 0.791010
v -1.549811 3.881981 0.827697
v -1.541321 3.898985 0.835621
v -1.534031 3.913586 0.835650
v -1.528437 3.924789 0.827784
v -1.524920 3.931832 0.812558
v -1.523721 3.934234 0.116098
v -1.558761 3.864058 0.045203
v -1.524915 3.931843 0.097748
v -1.528415 3.924832 0.080650
v -1.533984 3.913680 0.065967
v -1.541241 3.899146 0.054701
v -1.549692 3.882221 0.047619
v -1.523721 3.934234 1.198315
v -1.558921 3.863735 1.176905
v -1.524920 3.931832 1.176767
v -1.528437 3.924789 1.161542
v -1.534031 3.913586 1.153675
v -1.541321 3.898985 1.153705
v -1.549811 3.881982 1.161628
v -1.902917 3.174793 1.872902
v -1.892335 3.195985 1.944123
v -1.910467 3.159671 1.891336
v -1.914384 3.151827 1.908512
v -1.914398 3.151798 1.923263
v -1.910511 3.159584 1.934581
v -1.902985 3.174656 1.941696
v -1.558760 3.864059 1.944123
v -1.523720 3.934235 1.873228
v -1.549691 3.882222 1.941707
v -1.541240 3.899147 1.934624
v -1.533983 3.913681 1.923358
v -1.528415 3.924833 1.908675
v -1.524914 3.931844 1.891577
v -2.029783 3.019573 2.001737
v -2.029783 3.019573 1.002358
v -2.029783 3.019573 0.986969
v -1.534222 4.012067 2.001736
v -2.004967 3.069276 0.868258
v -1.969943 3.139420 0.939152
v -2.003773 3.071666 0.886607
v -2.000274 3.078674 0.903705
v -1.994709 3.089820 0.918388
v -1.987455 3.104348 0.929655
v -1.979008 3.121265 0.936737
v -1.636518 3.807193 0.939152
v -1.625941 3.828376 0.867931
v -1.625873 3.828513 0.936725
v -1.618351 3.843577 0.929610
v -1.614465 3.851360 0.918292
v -1.614479 3.851331 0.903542
v -1.618394 3.843491 0.886365
v -1.969782 3.139743 0.171935
v -2.004967 3.069276 0.193344
v -1.978889 3.121505 0.156658
v -1.987375 3.104509 0.148735
v -1.994661 3.089915 0.148706
v -2.000253 3.078716 0.156571
v -2.003768 3.071676 0.171797
v -2.004966 3.069276 1.795982
v -1.969781 3.139744 1.817391
v -2.003767 3.071678 1.817530
v -2.000252 3.078717 1.832755
v -1.994661 3.089916 1.840621
v -1.987374 3.104511 1.840592
v -1.978888 3.121505 1.832669
v -1.625941 3.828376 1.121394
v -1.636518 3.807193 1.050174
v -1.618393 3.843492 1.102962
v -1.614479 3.851331 1.085784
v -1.614465 3.851360 1.071034
v -1.618351 3.843577 1.059716
v -1.625872 3.828513 1.052601
v -1.969943 3.139420 1.050174
v -2.004967 3.069276 1.121068
v -1.979008 3.121265 1.052590
v -1.987455 3.104348 1.059672
v -1.994709 3.089820 1.070939
v -2.000274 3.078674 1.085622
v -2.003773 3.071666 1.102720
v -1.931782 3.215849 0.045203
v -1.942358 3.194667 0.116424
v -1.942427 3.194529 0.047630
v -1.949948 3.179465 0.054745
v -1.953835 3.171682 0.066063
v -1.953820 3.171711 0.080814
v -1.949906 3.179551 0.097991
v -1.598517 3.883299 0.812420
v -1.563332 3.953766 0.791010
v -1.589411 3.901537 0.827697
v -1.580925 3.918533 0.835621
v -1.573638 3.933127 0.835650
v -1.568046 3.944326 0.827784
v -1.564531 3.951365 0.812558
v -1.563332 3.953766 0.116098
v -1.598356 3.883622 0.045203
v -1.564526 3.951376 0.097748
v -1.568025 3.944369 0.080650
v -1.573590 3.933222 0.065967
v -1.580844 3.918694 0.054701
v -1.589291 3.901777 0.047619
v -1.563332 3.953767 1.198315
v -1.598517 3.883299 1.176905
v -1.564531 3.951366 1.176767
v -1.568046 3.944326 1.161542
v -1.573637 3.933127 1.153675
v -1.580925 3.918533 1.153705
v -1.589411 3.901538 1.161628
v -1.942358 3.194667 1.872902
v -1.931781 3.215850 1.944124
v -1.949904 3.179552 1.891336
v -1.953819 3.171712 1.908513
v -1.953834 3.171683 1.923263
v -1.949948 3.179466 1.934582
v -1.942425 3.194530 1.941696
v -1.598355 3.883623 1.944123
v -1.563331 3.953767 1.873229
v -1.589290 3.901778 1.941707
v -1.580844 3.918695 1.934624
v -1.573589 3.933223 1.923358
v -1.568024 3.944370 1.908676
v -1.564525 3.951377 1.891577
v -0.999304 4.984519 -0.000000
v -0.999304 4.984519 -1.998264
v -0.999304 4.984519 -1.002358
v -0.999304 4.984519 -0.986968
v -1.023864 4.935331 -0.868258
v -1.058903 4.865155 -0.939151
v -1.025058 4.932940 -0.886606
v -1.028558 4.925930 -0.903705
v -1.034127 4.914777 -0.918387
v -1.041384 4.900243 -0.929654
v -1.049834 4.883318 -0.936736
v -1.392479 4.197082 -0.939151
v -1.403060 4.175889 -0.867931
v -1.403129 4.175752 -0.936725
v -1.410654 4.160681 -0.929610
v -1.414542 4.152894 -0.918292
v -1.414527 4.152924 -0.903542
v -1.410611 4.160767 -0.886364
v -1.059065 4.864832 -0.171935
v -1.023864 4.935331 -0.193344
v -1.049954 4.883079 -0.156658
v -1.041464 4.900083 -0.148735
v -1.034174 4.914682 -0.148705
v -1.028579 4.925887 -0.156571
v -1.025063 4.932929 -0.171796
v -1.023864 4.935331 -1.795982
v -1.059065 4.864832 -1.817390
v -1.025064 4.932929 -1.817530
v -1.028580 4.925886 -1.832755
v -1.034174 4.914682 -1.840621
v -1.041465 4.900081 -1.840591
v -1.049954 4.883078 -1.832668
v -1.403060 4.175889 -1.121395
v -1.392479 4.197082 -1.050174
v -1.410611 4.160767 -1.102961
v -1.414527 4.152924 -1.085784
v -1.414542 4.152894 -1.071034
v -1.410654 4.160681 -1.059715
v -1.403129 4.175752 -1.052600
v -1.058903 4.865155 -1.050174
v -1.023864 4.935331 -1.121068
v -1.049834 4.883318 -1.052589
v -1.041384 4.900243 -1.059672
v -1.034127 4.914777 -1.070938
v -1.028558 4.925930 -1.085621
v -1.025058 4.932940 -1.102719
v -1.097082 4.788692 -0.045204
v -1.086501 4.809883 -0.116424
v -1.086432 4.810021 -0.047630
v -1.078907 4.825092 -0.054745
v -1.075019 4.832878 -0.066063
v -1.075034 4.832849 -0.080814
v -1.078950 4.825006 -0.097991
v -1.430497 4.120941 -0.812420
v -1.465697 4.050442 -0.791010
v -1.439607 4.102695 -0.827697
v -1.448097 4.085691 -0.835620
v -1.455387 4.071091 -0.835649
v -1.460982 4.059886 -0.827784
v -1.464498 4.052844 -0.812558
v -1.465697 4.050442 -0.116097
v -1.430658 4.120618 -0.045203
v -1.464504 4.052833 -0.097748
v -1.461003 4.059844 -0.080650
v -1.455435 4.070995 -0.065967
v -1.448178 4.085529 -0.054701
v -1.439727 4.102454 -0.047619
v -1.465698 4.050442 -1.198315
v -1.430497 4.120941 -1.176905
v -1.464498 4.052844 -1.176767
v -1.460982 4.059887 -1.161541
v -1.455388 4.071091 -1.153675
v -1.448097 4.085691 -1.153705
v -1.439607 4.102695 -1.161628
v -1.086501 4.809884 -1.872902
v -1.097083 4.788692 -1.944123
v -1.078950 4.825006 -1.891335
v -1.075035 4.832849 -1.908512
v -1.075020 4.832878 -1.923263
v -1.078907 4.825092 -1.934581
v -1.086433 4.810021 -1.941696
v -1.430659 4.120617 -1.944122
v -1.465698 4.050441 -1.873228
v -1.439728 4.102454 -1.941707
v -1.448178 4.085529 -1.934624
v -1.455435 4.070995 -1.923358
v -1.461004 4.059844 -1.908675
v -1.464504 4.052833 -1.891577
v -1.038661 5.004560 -1.998264
v -1.038661 5.004560 -1.002358
v -1.038661 5.004560 -0.986969
v -1.038661 5.004560 -0.000000
v -1.063478 4.954858 -0.868257
v -1.098502 4.884714 -0.939152
v -1.064671 4.952469 -0.886606
v -1.068170 4.945461 -0.903705
v -1.073736 4.934314 -0.918388
v -1.080990 4.919786 -0.929654
v -1.089437 4.902869 -0.936737
v -1.431927 4.216941 -0.939152
v -1.442504 4.195759 -0.867931
v -1.442572 4.195621 -0.936725
v -1.450094 4.180557 -0.929610
v -1.453980 4.172774 -0.918292
v -1.453965 4.172803 -0.903541
v -1.450051 4.180643 -0.886364
v -1.098662 4.884392 -0.171935
v -1.063478 4.954858 -0.193344
v -1.089556 4.902630 -0.156658
v -1.081070 4.919626 -0.148735
v -1.073783 4.934219 -0.148705
v -1.068192 4.945417 -0.156571
v -1.064676 4.952457 -0.171796
v -1.063478 4.954858 -1.795982
v -1.098663 4.884391 -1.817391
v -1.064677 4.952457 -1.817530
v -1.068192 4.945418 -1.832755
v -1.073783 4.934219 -1.840621
v -1.081071 4.919624 -1.840591
v -1.089556 4.902630 -1.832668
v -1.442503 4.195759 -1.121395
v -1.431927 4.216941 -1.050174
v -1.450051 4.180643 -1.102962
v -1.453965 4.172803 -1.085784
v -1.453980 4.172774 -1.071034
v -1.450094 4.180558 -1.059715
v -1.442572 4.195621 -1.052601
v -1.098501 4.884715 -1.050174
v -1.063478 4.954859 -1.121068
v -1.089437 4.902869 -1.052590
v -1.080990 4.919786 -1.059672
v -1.073735 4.934314 -1.070938
v -1.068170 4.945461 -1.085621
v -1.064671 4.952468 -1.102719
v -1.136663 4.808286 -0.045204
v -1.126086 4.829467 -0.116424
v -1.126018 4.829606 -0.047630
v -1.118496 4.844670 -0.054745
v -1.114610 4.852452 -0.066063
v -1.114625 4.852423 -0.080814
v -1.118539 4.844583 -0.097991
v -1.469927 4.140835 -0.812419
v -1.505112 4.070368 -0.791010
v -1.479033 4.122597 -0.827696
v -1.487520 4.105601 -0.835620
v -1.494807 4.091007 -0.835649
v -1.500398 4.079808 -0.827784
v -1.503913 4.072769 -0.812558
v -1.505112 4.070368 -0.116097
v -1.470088 4.140512 -0.045203
v -1.503919 4.072758 -0.097748
v -1.500420 4.079766 -0.080650
v -1.494854 4.090912 -0.065967
v -1.487600 4.105440 -0.054701
v -1.479153 4.122357 -0.047619
v -1.505112 4.070368 -1.198315
v -1.469928 4.140835 -1.176906
v -1.503914 4.072769 -1.176767
v -1.500399 4.079809 -1.161541
v -1.494807 4.091007 -1.153675
v -1.487520 4.105601 -1.153705
v -1.479034 4.122597 -1.161628
v -1.126087 4.829468 -1.872902
v -1.136664 4.808285 -1.944123
v -1.118540 4.844583 -1.891336
v -1.114625 4.852423 -1.908512
v -1.114611 4.852452 -1.923263
v -1.118496 4.844670 -1.934581
v -1.126019 4.829604 -1.941696
v -1.470089 4.140512 -1.944123
v -1.505113 4.070368 -1.873229
v -1.479154 4.122357 -1.941707
v -1.487601 4.105440 -1.934624
v -1.494854 4.090913 -1.923358
v -1.500420 4.079765 -1.908675
v -1.503919 4.072758 -1.891577
v -0.999304 4.984518 2.001736
v -0.999304 4.984519 1.002358
v -0.999304 4.984519 0.986968
v -1.023864 4.935330 0.868258
v -1.058903 4.865154 0.939153
v -1.025058 4.932940 0.886607
v -1.028558 4.925929 0.903705
v -1.034126 4.914777 0.918388
v -1.041384 4.900243 0.929654
v -1.049834 4.883318 0.936737
v -1.392479 4.197081 0.939152
v -1.403060 4.175889 0.867931
v -1.403129 4.175751 0.936725
v -1.410654 4.160680 0.929610
v -1.414542 4.152894 0.918292
v -1.414527 4.152923 0.903542
v -1.410611 4.160766 0.886365
v -1.059065 4.864832 0.171935
v -1.023864 4.935331 0.193344
v -1.049954 4.883079 0.156658
v -1.041464 4.900082 0.148735
v -1.034174 4.914682 0.148705
v -1.028580 4.925886 0.156571
v -1.025063 4.932929 0.171797
v -1.023864 4.935330 1.795982
v -1.059065 4.864831 1.817391
v -1.025063 4.932928 1.817530
v -1.028580 4.925884 1.832755
v -1.034174 4.914681 1.840621
v -1.041465 4.900080 1.840592
v -1.049954 4.883078 1.832668
v -1.403060 4.175889 1.121394
v -1.392479 4.197081 1.050174
v -1.410611 4.160766 1.102962
v -1.414527 4.152923 1.085784
v -1.414542 4.152894 1.071034
v -1.410654 4.160680 1.059716
v -1.403129 4.175751 1.052600
v -1.058903 4.865155 1.050174
v -1.023864 4.935330 1.121068
v -1.049834 4.883317 1.052590
v -1.041383 4.900243 1.059672
v -1.034127 4.914776 1.070939
v -1.028558 4.925929 1.085621
v -1.025058 4.932939 1.102720
v -1.097082 4.788692 0.045203
v -1.086501 4.809883 0.116424
v -1.086432 4.810021 0.047630
v -1.078907 4.825092 0.054745
v -1.075019 4.832878 0.066063
v -1.075034 4.832849 0.080814
v -1.078950 4.825006 0.097991
v -1.430497 4.120940 0.812420
v -1.465697 4.050441 0.791010
v -1.439607 4.102694 0.827697
v -1.448097 4.085691 0.835621
v -1.455387 4.071090 0.835650
v -1.460981 4.059886 0.827784
v -1.464498 4.052844 0.812558
v -1.465697 4.050442 0.116098
v -1.430658 4.120618 0.045203
v -1.464504 4.052833 0.097748
v -1.461003 4.059844 0.080650
v -1.455435 4.070995 0.065967
v -1.448178 4.085529 0.054701
v -1.439727 4.102455 0.047619
v -1.465697 4.050441 1.198315
v -1.430496 4.120940 1.176905
v -1.464498 4.052843 1.176767
v -1.460981 4.059886 1.161542
v -1.455387 4.071090 1.153675
v -1.448097 4.085690 1.153705
v -1.439607 4.102694 1.161628
v -1.086501 4.809883 1.872902
v -1.097082 4.788691 1.944123
v -1.078950 4.825005 1.891336
v -1.075034 4.832848 1.908512
v -1.075020 4.832877 1.923263
v -1.078907 4.825091 1.934581
v -1.086433 4.810019 1.941696
v -1.430658 4.120616 1.944123
v -1.465698 4.050441 1.873228
v -1.439727 4.102453 1.941707
v -1.448178 4.085528 1.934624
v -1.455435 4.070994 1.923358
v -1.461003 4.059842 1.908675
v -1.464504 4.052832 1.891577
v -1.038661 5.004560 2.001737
v -1.038661 5.004560 1.002358
v -1.038661 5.004560 0.986969
v -1.063478 4.954858 0.868258
v -1.098501 4.884714 0.939152
v -1.064671 4.952468 0.886607
v -1.068170 4.945461 0.903705
v -1.073736 4.934314 0.918388
v -1.080989 4.919786 0.929655
v -1.089436 4.902869 0.936737
v -1.431927 4.216941 0.939152
v -1.442503 4.195758 0.867931
v -1.442572 4.195621 0.936725
v -1.450094 4.180557 0.929610
v -1.453980 4.172774 0.918292
v -1.453965 4.172803 0.903542
v -1.450051 4.180643 0.886365
v -1.098662 4.884392 0.171935
v -1.063478 4.954858 0.193344
v -1.089556 4.902630 0.156658
v -1.081070 4.919625 0.148735
v -1.073783 4.934219 0.148705
v -1.068192 4.945417 0.156571
v -1.064676 4.952457 0.171797
v -1.063478 4.954857 1.795982
v -1.098662 4.884390 1.817391
v -1.064677 4.952456 1.817530
v -1.068192 4.945416 1.832755
v -1.073783 4.934218 1.840621
v -1.081071 4.919623 1.840592
v -1.089556 4.902628 1.832669
v -1.442503 4.195758 1.121394
v -1.431927 4.216941 1.050174
v -1.450051 4.180643 1.102962
v -1.453965 4.172803 1.085784
v -1.453980 4.172774 1.071034
v -1.450093 4.180557 1.059716
v -1.442572 4.195621 1.052601
v -1.098501 4.884714 1.050174
v -1.063478 4.954858 1.121068
v -1.089437 4.902868 1.052590
v -1.080989 4.919786 1.059672
v -1.073736 4.934314 1.070939
v -1.068170 4.945460 1.085622
v -1.064671 4.952468 1.102720
v -1.136663 4.808286 0.045203
v -1.126086 4.829467 0.116424
v -1.126018 4.829605 0.047630
v -1.118496 4.844670 0.054745
v -1.114610 4.852452 0.066063
v -1.114625 4.852423 0.080814
v -1.118539 4.844583 0.097991
v -1.469927 4.140835 0.812420
v -1.505112 4.070368 0.791010
v -1.479034 4.122597 0.827697
v -1.487520 4.105601 0.835621
v -1.494807 4.091007 0.835650
v -1.500398 4.079808 0.827784
v -1.503913 4.072769 0.812558
v -1.505112 4.070368 0.116098
v -1.470088 4.140512 0.045203
v -1.503918 4.072758 0.097748
v -1.500420 4.079765 0.080650
v -1.494854 4.090912 0.065967
v -1.487600 4.105440 0.054701
v -1.479153 4.122357 0.047619
v -1.505112 4.070367 1.198315
v -1.469927 4.140835 1.176905
v -1.503913 4.072768 1.176767
v -1.500398 4.079808 1.161542
v -1.494807 4.091006 1.153675
v -1.487520 4.105601 1.153705
v -1.479034 4.122596 1.161628
v -1.126087 4.829467 1.872902
v -1.136663 4.808284 1.944124
v -1.118539 4.844582 1.891336
v -1.114625 4.852421 1.908513
v -1.114610 4.852450 1.923263
v -1.118496 4.844669 1.934582
v -1.126018 4.829603 1.941696
v -1.470088 4.140511 1.944123
v -1.505112 4.070367 1.873229
v -1.479153 4.122355 1.941707
v -1.487601 4.105439 1.934624
v -1.494854 4.090911 1.923358
v -1.500420 4.079764 1.908676
v -1.503919 4.072757 1.891577
vt 0.097487 0.953758
vt -0.000013 1.000000
vt 0.500000 0.500000
vt 0.452516 0.601702
vt 0.455051 0.401146
vt 0.452515 0.056305
vt 0.500000 -0.000000
vt 1.000000 1.000000
vt 0.605939 0.551203
vt 0.949557 0.897487
vt -0.000013 0.500000
vt -0.000013 -0.000000
vt 0.045500 0.101034
vt 0.051840 0.442989
vt 0.548881 0.050533
vt 0.545077 0.398261
vt 0.500000 1.000000
vt 0.548881 0.947987
vt 0.898839 0.953758
vt 1.000000 -0.000000
vt 1.000000 0.500000
vt 0.950825 0.451646
vt 0.957165 0.101033
vt 0.394190 0.545432
vt 0.048036 0.883059
vt 0.115237 0.056305
vt 0.336212 0.176679
vt 0.389117 0.453089
vt 0.143902 0.347318
vt 0.042964 0.554089
vt 0.449980 0.943658
vt 0.149626 0.671662
vt 0.328198 0.842301
vt 0.545078 0.594488
vt 0.641846 0.821459
vt 0.827287 0.653426
vt 0.947021 0.558417
vt 0.664194 0.173608
vt 0.901375 0.050533
vt 0.598332 0.455975
vt 0.848406 0.344146
vt 0.097487 0.953758
vt -0.000013 1.000000
vt 0.500000 0.500000
vt 0.452516 0.601702
vt 0.455051 0.401146
vt 0.452515 0.056305
vt 0.500000 -0.000000
vt 1.000000 1.000000
vt 0.605939 0.551203
vt 0.949557 0.897487
vt -0.000013 0.500000
vt -0.000013 -0.000000
vt 0.045500 0.101034
vt 0.051840 0.442989
vt 0.548881 0.050533
vt 0.545077 0.398261
vt 0.500000 1.000000
vt 0.548881 0.947987
vt 0.898839 0.953758
vt 1.000000 -0.000000
vt 1.000000 0.500000
vt 0.950825 0.451646
vt 0.957165 0.101033
vt 0.394190 0.545432
vt 0.048036 0.883059
vt 0.115237 0.056305
vt 0.336212 0.176679
vt 0.389117 0.453089
vt 0.143902 0.347318
vt 0.042964 0.554089
vt 0.449980 0.943658
vt 0.149626 0.671662
vt 0.328198 0.842301
vt 0.545078 0.594488
vt 0.641846 0.821459
vt 0.827287 0.653426
vt 0.947021 0.558417
vt 0.664194 0.173608
vt 0.901375 0.050533
vt 0.598332 0.455975
vt 0.848406 0.344146
vt -0.386626 0.402607
vt 1.901396 0.371311
vt 0.496184 0.399526
vt -0.386626 0.371311
vt 0.006225 0.006225
vt 0.092035 0.064509
vt 0.437158 0.409632
vt 0.495654 0.500000
vt 0.437158 0.590368
vt 0.092035 0.935491
vt 0.006225 0.993775
vt 0.495654 0.993775
vt 0.472474 0.935653
vt 0.472474 0.600985
vt 0.102651 0.970807
vt 0.437320 0.970807
vt 0.006225 0.503816
vt 0.029193 0.562680
vt 0.029193 0.897349
vt 0.064509 0.907965
vt 0.409632 0.562842
vt 0.399015 0.527526
vt 0.064347 0.527526
vt 0.409632 0.437158
vt 0.064509 0.092035
vt 0.006225 0.496184
vt 0.064347 0.472474
vt 0.399015 0.472474
vt 0.029193 0.102651
vt 0.029193 0.437320
vt 0.472474 0.399016
vt 0.472474 0.064347
vt 0.495654 0.006225
vt 0.437320 0.029193
vt 0.102651 0.029193
vt 0.030391 0.553582
vt 0.033903 0.545103
vt 0.039489 0.537823
vt 0.046770 0.532236
vt 0.055249 0.528724
vt 0.409700 0.528729
vt 0.417250 0.532258
vt 0.421151 0.537870
vt 0.421136 0.545184
vt 0.417207 0.553702
vt 0.055369 0.915540
vt 0.046851 0.919469
vt 0.039537 0.919484
vt 0.033924 0.915583
vt 0.030396 0.908033
vt 0.030396 0.091967
vt 0.033924 0.084417
vt 0.039537 0.080516
vt 0.046851 0.080531
vt 0.055369 0.084460
vt 0.417207 0.446298
vt 0.421136 0.454816
vt 0.421151 0.462130
vt 0.417250 0.467742
vt 0.409700 0.471271
vt 0.055249 0.471276
vt 0.046770 0.467764
vt 0.039489 0.462178
vt 0.033903 0.454897
vt 0.030391 0.446418
vt 0.091966 0.969604
vt 0.084417 0.966076
vt 0.080516 0.960463
vt 0.080531 0.953149
vt 0.084460 0.944631
vt 0.446298 0.582793
vt 0.454816 0.578864
vt 0.462130 0.578850
vt 0.467742 0.582750
vt 0.471270 0.590300
vt 0.471276 0.944752
vt 0.467764 0.953230
vt 0.462177 0.960511
vt 0.454897 0.966097
vt 0.446418 0.969609
vt 0.471270 0.409700
vt 0.467742 0.417250
vt 0.462130 0.421151
vt 0.454816 0.421136
vt 0.446298 0.417207
vt 0.084460 0.055369
vt 0.080531 0.046851
vt 0.080516 0.039537
vt 0.084417 0.033925
vt 0.091966 0.030396
vt 0.446418 0.030391
vt 0.454897 0.033903
vt 0.462177 0.039490
vt 0.467764 0.046770
vt 0.471276 0.055249
vt 0.006225 0.006225
vt 0.495654 0.500000
vt 0.437158 0.409632
vt 0.092035 0.064509
vt 0.092035 0.935491
vt 0.437158 0.590368
vt 0.472474 0.600985
vt 0.472474 0.935653
vt 0.437320 0.970807
vt 0.102651 0.970807
vt 0.006225 0.503816
vt 0.029193 0.897349
vt 0.029193 0.562680
vt 0.409632 0.562842
vt 0.064509 0.907965
vt 0.064347 0.527526
vt 0.399015 0.527526
vt 0.064509 0.092035
vt 0.409632 0.437158
vt 0.006225 0.496184
vt 0.399015 0.472474
vt 0.064347 0.472474
vt 0.029193 0.437320
vt 0.029193 0.102651
vt 0.495654 0.006225
vt 0.472474 0.064347
vt 0.472474 0.399016
vt 0.102651 0.029193
vt 0.437320 0.029193
vt 0.030391 0.553582
vt 0.033903 0.545103
vt 0.039489 0.537823
vt 0.046770 0.532236
vt 0.055249 0.528724
vt 0.409700 0.528729
vt 0.417250 0.532258
vt 0.421151 0.537870
vt 0.421136 0.545184
vt 0.417207 0.553702
vt 0.055369 0.915540
vt 0.046851 0.919469
vt 0.039537 0.919484
vt 0.033924 0.915583
vt 0.030396 0.908033
vt 0.030396 0.091967
vt 0.033924 0.084417
vt 0.039537 0.080516
vt 0.046851 0.080531
vt 0.055369 0.084460
vt 0.417207 0.446298
vt 0.421136 0.454816
vt 0.421151 0.462130
vt 0.417250 0.467742
vt 0.409700 0.471271
vt 0.055249 0.471276
vt 0.046770 0.467764
vt 0.039489 0.462178
vt 0.033903 0.454897
vt 0.030391 0.446418
vt 0.091966 0.969604
vt 0.084417 0.966076
vt 0.080516 0.960463
vt 0.080531 0.953149
vt 0.084460 0.944631
vt 0.446298 0.582793
vt 0.454816 0.578864
vt 0.462130 0.578850
vt 0.467742 0.582750
vt 0.471270 0.590300
vt 0.471276 0.944752
vt 0.467764 0.953230
vt 0.462177 0.960511
vt 0.454897 0.966097
vt 0.446418 0.969609
vt 0.471270 0.409700
vt 0.467742 0.417250
vt 0.462130 0.421151
vt 0.454816 0.421136
vt 0.446298 0.417207
vt 0.084460 0.055369
vt 0.080531 0.046851
vt 0.080516 0.039537
vt 0.084417 0.033925
vt 0.091966 0.030396
vt 0.446418 0.030391
vt 0.454897 0.033903
vt 0.462177 0.039490
vt 0.467764 0.046770
vt 0.471276 0.055249
vt -0.386626 0.402607
vt -0.386626 0.371311
vt 0.006225 0.006225
vt 0.437158 0.409632
vt 0.092035 0.064509
vt 0.006225 0.993775
vt 0.092035 0.935491
vt 0.437158 0.590368
vt 0.472474 0.600985
vt 0.472474 0.935653
vt 0.437320 0.970807
vt 0.102651 0.970807
vt 0.006225 0.503816
vt 0.029193 0.897349
vt 0.029193 0.562680
vt 0.409632 0.562842
vt 0.064509 0.907965
vt 0.064347 0.527526
vt 0.399015 0.527526
vt 0.064509 0.092035
vt 0.409632 0.437158
vt 0.006225 0.496184
vt 0.399015 0.472474
vt 0.064347 0.472474
vt 0.029193 0.437320
vt 0.029193 0.102651
vt 0.472474 0.064347
vt 0.472474 0.399016
vt 0.102651 0.029193
vt 0.437320 0.029193
vt 0.030391 0.553582
vt 0.033903 0.545103
vt 0.039489 0.537823
vt 0.046770 0.532236
vt 0.055249 0.528724
vt 0.409700 0.528729
vt 0.417250 0.532258
vt 0.421151 0.537870
vt 0.421136 0.545184
vt 0.417207 0.553702
vt 0.055369 0.915540
vt 0.046851 0.919469
vt 0.039537 0.919484
vt 0.033924 0.915583
vt 0.030396 0.908033
vt 0.030396 0.091967
vt 0.033924 0.084417
vt 0.039537 0.080516
vt 0.046851 0.080531
vt 0.055369 0.084460
vt 0.417207 0.446298
vt 0.421136 0.454816
vt 0.421151 0.462130
vt 0.417250 0.467742
vt 0.409700 0.471271
vt 0.055249 0.471276
vt 0.046770 0.467764
vt 0.039489 0.462178
vt 0.033903 0.454897
vt 0.030391 0.446418
vt 0.091966 0.969604
vt 0.084417 0.966076
vt 0.080516 0.960463
vt 0.080531 0.953149
vt 0.084460 0.944631
vt 0.446298 0.582793
vt 0.454816 0.578864
vt 0.462130 0.578850
vt 0.467742 0.582750
vt 0.471270 0.590300
vt 0.471276 0.944752
vt 0.467764 0.953230
vt 0.462177 0.960511
vt 0.454897 0.966097
vt 0.446418 0.969609
vt 0.471270 0.409700
vt 0.467742 0.417250
vt 0.462130 0.421151
vt 0.454816 0.421136
vt 0.446298 0.417207
vt 0.084460 0.055369
vt 0.080531 0.046851
vt 0.080516 0.039537
vt 0.084417 0.033925
vt 0.091966 0.030396
vt 0.446418 0.030391
vt 0.454897 0.033903
vt 0.462177 0.039490
vt 0.467764 0.046770
vt 0.471276 0.055249
vt 0.006225 0.006225
vt 0.092035 0.064509
vt 0.437158 0.409632
vt 0.437158 0.590368
vt 0.092035 0.935491
vt 0.472474 0.935653
vt 0.472474 0.600985
vt 0.102651 0.970807
vt 0.437320 0.970807
vt 0.006225 0.503816
vt 0.029193 0.562680
vt 0.029193 0.897349
vt 0.064509 0.907965
vt 0.409632 0.562842
vt 0.399015 0.527526
vt 0.064347 0.527526
vt 0.409632 0.437158
vt 0.064509 0.092035
vt 0.006225 0.496184
vt 0.064347 0.472474
vt 0.399015 0.472474
vt 0.029193 0.102651
vt 0.029193 0.437320
vt 0.472474 0.399016
vt 0.472474 0.064347
vt 0.437320 0.029193
vt 0.102651 0.029193
vt 0.030391 0.553582
vt 0.033903 0.545103
vt 0.039489 0.537823
vt 0.046770 0.532236
vt 0.055249 0.528724
vt 0.409700 0.528729
vt 0.417250 0.532258
vt 0.421151 0.537870
vt 0.421136 0.545184
vt 0.417207 0.553702
vt 0.055369 0.915540
vt 0.046851 0.919469
vt 0.039537 0.919484
vt 0.033924 0.915583
vt 0.030396 0.908033
vt 0.030396 0.091967
vt 0.033924 0.084417
vt 0.039537 0.080516
vt 0.046851 0.080531
vt 0.055369 0.084460
vt 0.417207 0.446298
vt 0.421136 0.454816
vt 0.421151 0.462130
vt 0.417250 0.467742
vt 0.409700 0.471271
vt 0.055249 0.471276
vt 0.046770 0.467764
vt 0.039489 0.462178
vt 0.033903 0.454897
vt 0.030391 0.446418
vt 0.091966 0.969604
vt 0.084417 0.966076
vt 0.080516 0.960463
vt 0.080531 0.953149
vt 0.084460 0.944631
vt 0.446298 0.582793
vt 0.454816 0.578864
vt 0.462130 0.578850
vt 0.467742 0.582750
vt 0.471270 0.590300
vt 0.471276 0.944752
vt 0.467764 0.953230
vt 0.462177 0.960511
vt 0.454897 0.966097
vt 0.446418 0.969609
vt 0.471270 0.409700
vt 0.467742 0.417250
vt 0.462130 0.421151
vt 0.454816 0.421136
vt 0.446298 0.417207
vt 0.084460 0.055369
vt 0.080531 0.046851
vt 0.080516 0.039537
vt 0.084417 0.033925
vt 0.091966 0.030396
vt 0.446418 0.030391
vt 0.454897 0.033903
vt 0.462177 0.039490
vt 0.467764 0.046770
vt 0.471276 0.055249
vt 0.177509 0.402606
vt 0.177509 0.371312
vt 0.148164 0.371312
vt 0.148164 0.402606
vt 1.090900 0.402606
vt 1.090900 0.371312
vt 1.115947 0.402606
vt 1.115947 0.371312
vt 1.140993 0.402606
vt 1.140993 0.371312
vt 1.166039 0.402606
vt 1.166039 0.371312
vt 1.191086 0.402606
vt 1.191086 0.371312
vt 1.216133 0.402606
vt 1.216133 0.371312
vt 1.241179 0.402606
vt 1.241179 0.371312
vt 2.154570 0.402607
vt 2.154570 0.371313
vt 2.183916 0.402607
vt 2.183916 0.371313
vt 2.206659 0.402607
vt 2.206659 0.371313
vt 2.225313 0.402607
vt 2.225313 0.371313
vt 2.245275 0.402607
vt 2.245276 0.371313
vt 2.270876 0.402607
vt 2.270876 0.371313
vt 2.303277 0.402607
vt 2.303277 0.371313
vt 0.028803 0.402606
vt 0.028803 0.371312
vt -1.303277 0.371311
vt -1.303277 0.402605
vt 0.061204 0.402606
vt 0.061203 0.371312
vt 0.086804 0.402606
vt 0.086803 0.371312
vt 0.106766 0.402606
vt 0.106766 0.371312
vt 0.125419 0.402606
vt 0.125419 0.371312
vt 0.493149 0.402607
vt -0.386626 0.402607
vt -0.386626 0.371311
vt 0.493149 0.371311
vt 0.506851 0.371311
vt 0.506851 0.402607
vt 1.386626 0.371311
vt 1.386626 0.402607
vt 2.273968 0.402607
vt 2.273968 0.371312
vt 2.251223 0.371312
vt 2.251223 0.402607
vt 2.232569 0.371312
vt 2.232569 0.402607
vt 2.212607 0.371312
vt 2.212607 0.402607
vt 2.187006 0.371312
vt 2.187006 0.402607
vt 2.154605 0.371312
vt 2.154605 0.402607
vt 0.822497 0.371311
vt 0.822497 0.402606
vt 0.790096 0.371311
vt 0.790095 0.402606
vt 0.764495 0.371311
vt 0.764495 0.402606
vt 0.744532 0.371311
vt 0.744532 0.402606
vt 0.725879 0.371311
vt 0.725879 0.402606
vt 0.703133 0.371311
vt 0.703133 0.402606
vt 0.673787 0.371311
vt 0.673787 0.402606
vt -0.239623 0.371311
vt -0.239623 0.402606
vt -0.264670 0.371311
vt -0.264670 0.402606
vt -0.289717 0.371311
vt -0.289717 0.402606
vt -0.314764 0.371311
vt -0.314764 0.402606
vt -0.339811 0.371311
vt -0.339810 0.402606
vt -0.364857 0.371311
vt -0.364857 0.402606
vt -0.389905 0.371311
vt -0.389905 0.402606
vt -1.303314 0.371311
vt -1.303314 0.402606
vt 2.303314 0.402607
vt 2.303314 0.371312
vt -0.115983 0.402607
vt -0.115983 0.371311
vt -0.141030 0.371311
vt -0.141030 0.402607
vt -0.166078 0.371311
vt -0.166078 0.402607
vt -0.191127 0.371311
vt -0.191127 0.402607
vt -0.216174 0.371311
vt -0.216174 0.402607
vt -0.241223 0.371311
vt -0.241223 0.402607
vt -1.154665 0.371311
vt -1.154665 0.402607
vt -1.184013 0.371311
vt -1.184013 0.402607
vt -1.206758 0.371311
vt -1.206758 0.402607
vt -1.225413 0.371311
vt -1.225413 0.402607
vt -1.245376 0.371311
vt -1.245376 0.402607
vt -1.270979 0.371311
vt -1.270979 0.402607
vt -1.303381 0.371311
vt -1.303381 0.402607
vt 2.303381 0.402607
vt 2.303381 0.371311
vt 0.971224 0.371311
vt 0.971224 0.402607
vt 0.938822 0.371311
vt 0.938822 0.402607
vt 0.913220 0.371311
vt 0.913219 0.402607
vt 0.893256 0.371311
vt 0.893256 0.402607
vt 0.874602 0.371311
vt 0.874602 0.402607
vt 0.851857 0.371311
vt 0.851857 0.402607
vt 0.822509 0.371311
vt 0.822509 0.402607
vt -0.090934 0.371311
vt -0.090934 0.402607
vt 0.296859 0.402607
vt 0.296859 0.371311
vt 0.274114 0.371311
vt 0.274114 0.402607
vt 0.255460 0.371311
vt 0.255460 0.402607
vt 0.235497 0.371311
vt 0.235497 0.402607
vt 0.209895 0.371311
vt 0.209895 0.402607
vt 0.177492 0.371311
vt 0.177492 0.402607
vt -1.154659 0.371311
vt -1.154659 0.402607
vt -1.187061 0.371311
vt -1.187061 0.402607
vt -1.212663 0.371311
vt -1.212663 0.402607
vt -1.232626 0.371311
vt -1.232626 0.402607
vt -1.251281 0.371311
vt -1.251281 0.402607
vt -1.274027 0.371311
vt -1.274027 0.402607
vt -1.303374 0.371311
vt -1.303374 0.402607
vt 2.303374 0.402607
vt 2.303374 0.371311
vt 1.389935 0.371311
vt 1.389935 0.402607
vt 1.364886 0.371311
vt 1.364886 0.402607
vt 1.339839 0.371311
vt 1.339839 0.402607
vt 1.314790 0.371311
vt 1.314790 0.402607
vt 1.289743 0.371311
vt 1.289743 0.402607
vt 1.264695 0.371311
vt 1.264695 0.402607
vt 1.239647 0.371311
vt 1.239647 0.402607
vt 0.326207 0.371311
vt 0.326207 0.402607
vt 0.177509 0.402606
vt 0.148164 0.402606
vt 0.148164 0.371312
vt 0.177509 0.371312
vt 1.090900 0.402606
vt 1.090900 0.371312
vt 1.115947 0.402606
vt 1.115947 0.371312
vt 1.140993 0.402606
vt 1.140993 0.371312
vt 1.166039 0.402606
vt 1.166039 0.371312
vt 1.191086 0.402606
vt 1.191086 0.371312
vt 1.216133 0.402606
vt 1.216133 0.371312
vt 1.241179 0.402606
vt 1.241179 0.371312
vt 2.154570 0.402607
vt 2.154570 0.371313
vt 2.183916 0.402607
vt 2.183916 0.371313
vt 2.206659 0.402607
vt 2.206659 0.371313
vt 2.225313 0.402607
vt 2.225313 0.371313
vt 2.245275 0.402607
vt 2.245276 0.371313
vt 2.270876 0.402607
vt 2.270876 0.371313
vt 2.303277 0.402607
vt 2.303277 0.371313
vt 0.028803 0.402606
vt -1.303277 0.402605
vt -1.303277 0.371311
vt 0.028803 0.371312
vt 0.061204 0.402606
vt 0.061203 0.371312
vt 0.086804 0.402606
vt 0.086803 0.371312
vt 0.106766 0.402606
vt 0.106766 0.371312
vt 0.125419 0.402606
vt 0.125419 0.371312
vt 0.493149 0.402607
vt 0.493149 0.371311
vt 0.506851 0.371311
vt 0.506851 0.402607
vt 1.386626 0.371311
vt 1.386626 0.402607
vt 0.506851 0.402607
vt 1.386626 0.402607
vt 1.386626 0.371311
vt 0.506851 0.371311
vt 2.273968 0.402607
vt 2.251223 0.402607
vt 2.251223 0.371312
vt 2.273968 0.371312
vt 2.232569 0.402607
vt 2.232569 0.371312
vt 2.212607 0.402607
vt 2.212607 0.371312
vt 2.187006 0.402607
vt 2.187006 0.371312
vt 2.154605 0.402607
vt 2.154605 0.371312
vt 0.822497 0.402606
vt 0.822497 0.371311
vt 0.790095 0.402606
vt 0.790096 0.371311
vt 0.764495 0.402606
vt 0.764495 0.371311
vt 0.744532 0.402606
vt 0.744532 0.371311
vt 0.725879 0.402606
vt 0.725879 0.371311
vt 0.703133 0.402606
vt 0.703133 0.371311
vt 0.673787 0.402606
vt 0.673787 0.371311
vt -0.239623 0.402606
vt -0.239623 0.371311
vt -0.264670 0.402606
vt -0.264670 0.371311
vt -0.289717 0.402606
vt -0.289717 0.371311
vt -0.314764 0.402606
vt -0.314764 0.371311
vt -0.339810 0.402606
vt -0.339811 0.371311
vt -0.364857 0.402606
vt -0.364857 0.371311
vt -0.389905 0.402606
vt -0.389905 0.371311
vt -1.303314 0.402606
vt -1.303314 0.371311
vt 2.303314 0.402607
vt 2.303314 0.371312
vt -0.115983 0.402607
vt -0.141030 0.402607
vt -0.141030 0.371311
vt -0.115983 0.371311
vt -0.166078 0.402607
vt -0.166078 0.371311
vt -0.191127 0.402607
vt -0.191127 0.371311
vt -0.216174 0.402607
vt -0.216174 0.371311
vt -0.241223 0.402607
vt -0.241223 0.371311
vt -1.154665 0.402607
vt -1.154665 0.371311
vt -1.184013 0.402607
vt -1.184013 0.371311
vt -1.206758 0.402607
vt -1.206758 0.371311
vt -1.225413 0.402607
vt -1.225413 0.371311
vt -1.245376 0.402607
vt -1.245376 0.371311
vt -1.270979 0.402607
vt -1.270979 0.371311
vt -1.303381 0.402607
vt -1.303381 0.371311
vt 2.303381 0.402607
vt 0.971224 0.402607
vt 0.971224 0.371311
vt 2.303381 0.371311
vt 0.938822 0.402607
vt 0.938822 0.371311
vt 0.913219 0.402607
vt 0.913220 0.371311
vt 0.893256 0.402607
vt 0.893256 0.371311
vt 0.874602 0.402607
vt 0.874602 0.371311
vt 0.851857 0.402607
vt 0.851857 0.371311
vt 0.822509 0.402607
vt 0.822509 0.371311
vt -0.090934 0.402607
vt -0.090934 0.371311
vt 0.296859 0.402607
vt 0.274114 0.402607
vt 0.274114 0.371311
vt 0.296859 0.371311
vt 0.255460 0.402607
vt 0.255460 0.371311
vt 0.235497 0.402607
vt 0.235497 0.371311
vt 0.209895 0.402607
vt 0.209895 0.371311
vt 0.177492 0.402607
vt 0.177492 0.371311
vt -1.154659 0.402607
vt -1.154659 0.371311
vt -1.187061 0.402607
vt -1.187061 0.371311
vt -1.212663 0.402607
vt -1.212663 0.371311
vt -1.232626 0.402607
vt -1.232626 0.371311
vt -1.251281 0.402607
vt -1.251281 0.371311
vt -1.274027 0.402607
vt -1.274027 0.371311
vt -1.303374 0.402607
vt -1.303374 0.371311
vt 2.303374 0.402607
vt 1.389935 0.402607
vt 1.389935 0.371311
vt 2.303374 0.371311
vt 1.364886 0.402607
vt 1.364886 0.371311
vt 1.339839 0.402607
vt 1.339839 0.371311
vt 1.314790 0.402607
vt 1.314790 0.371311
vt 1.289743 0.402607
vt 1.289743 0.371311
vt 1.264695 0.402607
vt 1.264695 0.371311
vt 1.239647 0.402607
vt 1.239647 0.371311
vt 0.326207 0.402607
vt 0.326207 0.371311
vt 0.177509 0.402606
vt 0.148164 0.402606
vt 0.148164 0.371312
vt 0.177509 0.371312
vt 1.090900 0.402606
vt 1.090900 0.371312
vt 1.115947 0.402606
vt 1.115947 0.371312
vt 1.140993 0.402606
vt 1.140993 0.371312
vt 1.166039 0.402606
vt 1.166039 0.371312
vt 1.191086 0.402606
vt 1.191086 0.371312
vt 1.216133 0.402606
vt 1.216133 0.371312
vt 1.241179 0.402606
vt 1.241179 0.371312
vt 2.154570 0.402607
vt 2.154570 0.371313
vt 2.183916 0.402607
vt 2.183916 0.371313
vt 2.206659 0.402607
vt 2.206659 0.371313
vt 2.225313 0.402607
vt 2.225313 0.371313
vt 2.245275 0.402607
vt 2.245276 0.371313
vt 2.270876 0.402607
vt 2.270876 0.371313
vt 2.303277 0.402607
vt 2.303277 0.371313
vt 0.028803 0.402606
vt -1.303277 0.402605
vt -1.303277 0.371311
vt 0.028803 0.371312
vt 0.061204 0.402606
vt 0.061203 0.371312
vt 0.086804 0.402606
vt 0.086803 0.371312
vt 0.106766 0.402606
vt 0.106766 0.371312
vt 0.125419 0.402606
vt 0.125419 0.371312
vt 0.493149 0.402607
vt 0.493149 0.371311
vt -0.386626 0.371311
vt -0.386626 0.402607
vt 0.506851 0.371311
vt 0.506851 0.402607
vt 1.386626 0.371311
vt 1.386626 0.402607
vt 2.273968 0.402607
vt 2.251223 0.402607
vt 2.251223 0.371312
vt 2.273968 0.371312
vt 2.232569 0.402607
vt 2.232569 0.371312
vt 2.212607 0.402607
vt 2.212607 0.371312
vt 2.187006 0.402607
vt 2.187006 0.371312
vt 2.154605 0.402607
vt 2.154605 0.371312
vt 0.822497 0.402606
vt 0.822497 0.371311
vt 0.790095 0.402606
vt 0.790096 0.371311
vt 0.764495 0.402606
vt 0.764495 0.371311
vt 0.744532 0.402606
vt 0.744532 0.371311
vt 0.725879 0.402606
vt 0.725879 0.371311
vt 0.703133 0.402606
vt 0.703133 0.371311
vt 0.673787 0.402606
vt 0.673787 0.371311
vt -0.239623 0.402606
vt -0.239623 0.371311
vt -0.264670 0.402606
vt -0.264670 0.371311
vt -0.289717 0.402606
vt -0.289717 0.371311
vt -0.314764 0.402606
vt -0.314764 0.371311
vt -0.339810 0.402606
vt -0.339811 0.371311
vt -0.364857 0.402606
vt -0.364857 0.371311
vt -0.389905 0.402606
vt -0.389905 0.371311
vt -1.303314 0.402606
vt -1.303314 0.371311
vt 2.303314 0.402607
vt 2.303314 0.371312
vt -0.115983 0.402607
vt -0.141030 0.402607
vt -0.141030 0.371311
vt -0.115983 0.371311
vt -0.166078 0.402607
vt -0.166078 0.371311
vt -0.191127 0.402607
vt -0.191127 0.371311
vt -0.216174 0.402607
vt -0.216174 0.371311
vt -0.241223 0.402607
vt -0.241223 0.371311
vt -1.154665 0.402607
vt -1.154665 0.371311
vt -1.184013 0.402607
vt -1.184013 0.371311
vt -1.206758 0.402607
vt -1.206758 0.371311
vt -1.225413 0.402607
vt -1.225413 0.371311
vt -1.245376 0.402607
vt -1.245376 0.371311
vt -1.270979 0.402607
vt -1.270979 0.371311
vt -1.303381 0.402607
vt -1.303381 0.371311
vt 2.303381 0.402607
vt 0.971224 0.402607
vt 0.971224 0.371311
vt 2.303381 0.371311
vt 0.938822 0.402607
vt 0.938822 0.371311
vt 0.913219 0.402607
vt 0.913220 0.371311
vt 0.893256 0.402607
vt 0.893256 0.371311
vt 0.874602 0.402607
vt 0.874602 0.371311
vt 0.851857 0.402607
vt 0.851857 0.371311
vt 0.822509 0.402607
vt 0.822509 0.371311
vt -0.090934 0.402607
vt -0.090934 0.371311
vt 0.296859 0.402607
vt 0.274114 0.402607
vt 0.274114 0.371311
vt 0.296859 0.371311
vt 0.255460 0.402607
vt 0.255460 0.371311
vt 0.235497 0.402607
vt 0.235497 0.371311
vt 0.209895 0.402607
vt 0.209895 0.371311
vt 0.177492 0.402607
vt 0.177492 0.371311
vt -1.154659 0.402607
vt -1.154659 0.371311
vt -1.187061 0.402607
vt -1.187061 0.371311
vt -1.212663 0.402607
vt -1.212663 0.371311
vt -1.232626 0.402607
vt -1.232626 0.371311
vt -1.251281 0.402607
vt -1.251281 0.371311
vt -1.274027 0.402607
vt -1.274027 0.371311
vt -1.303374 0.402607
vt -1.303374 0.371311
vt 2.303374 0.402607
vt 1.389935 0.402607
vt 1.389935 0.371311
vt 2.303374 0.371311
vt 1.364886 0.402607
vt 1.364886 0.371311
vt 1.339839 0.402607
vt 1.339839 0.371311
vt 1.314790 0.402607
vt 1.314790 0.371311
vt 1.289743 0.402607
vt 1.289743 0.371311
vt 1.264695 0.402607
vt 1.264695 0.371311
vt 1.239647 0.402607
vt 1.239647 0.371311
vt 0.326207 0.402607
vt 0.326207 0.371311
vt 0.177509 0.402606
vt 0.177509 0.371312
vt 0.148164 0.371312
vt 0.148164 0.402606
vt 1.090900 0.402606
vt 1.090900 0.371312
vt 1.115947 0.402606
vt 1.115947 0.371312
vt 1.140993 0.402606
vt 1.140993 0.371312
vt 1.166039 0.402606
vt 1.166039 0.371312
vt 1.191086 0.402606
vt 1.191086 0.371312
vt 1.216133 0.402606
vt 1.216133 0.371312
vt 1.241179 0.402606
vt 1.241179 0.371312
vt 2.154570 0.402607
vt 2.154570 0.371313
vt 2.183916 0.402607
vt 2.183916 0.371313
vt 2.206659 0.402607
vt 2.206659 0.371313
vt 2.225313 0.402607
vt 2.225313 0.371313
vt 2.245275 0.402607
vt 2.245276 0.371313
vt 2.270876 0.402607
vt 2.270876 0.371313
vt 2.303277 0.402607
vt 2.303277 0.371313
vt 0.028803 0.402606
vt 0.028803 0.371312
vt -1.303277 0.371311
vt -1.303277 0.402605
vt 0.061204 0.402606
vt 0.061203 0.371312
vt 0.086804 0.402606
vt 0.086803 0.371312
vt 0.106766 0.402606
vt 0.106766 0.371312
vt 0.125419 0.402606
vt 0.125419 0.371312
vt 0.493149 0.402607
vt 0.493149 0.371311
vt 0.506851 0.371311
vt 0.506851 0.402607
vt 1.386626 0.371311
vt 1.386626 0.402607
vt 1.386626 0.371311
vt 1.386626 0.402607
vt 2.273968 0.402607
vt 2.273968 0.371312
vt 2.251223 0.371312
vt 2.251223 0.402607
vt 2.232569 0.371312
vt 2.232569 0.402607
vt 2.212607 0.371312
vt 2.212607 0.402607
vt 2.187006 0.371312
vt 2.187006 0.402607
vt 2.154605 0.371312
vt 2.154605 0.402607
vt 0.822497 0.371311
vt 0.822497 0.402606
vt 0.790096 0.371311
vt 0.790095 0.402606
vt 0.764495 0.371311
vt 0.764495 0.402606
vt 0.744532 0.371311
vt 0.744532 0.402606
vt 0.725879 0.371311
vt 0.725879 0.402606
vt 0.703133 0.371311
vt 0.703133 0.402606
vt 0.673787 0.371311
vt 0.673787 0.402606
vt -0.239623 0.371311
vt -0.239623 0.402606
vt -0.264670 0.371311
vt -0.264670 0.402606
vt -0.289717 0.371311
vt -0.289717 0.402606
vt -0.314764 0.371311
vt -0.314764 0.402606
vt -0.339811 0.371311
vt -0.339810 0.402606
vt -0.364857 0.371311
vt -0.364857 0.402606
vt -0.389905 0.371311
vt -0.389905 0.402606
vt -1.303314 0.371311
vt -1.303314 0.402606
vt 2.303314 0.402607
vt 2.303314 0.371312
vt -0.115983 0.402607
vt -0.115983 0.371311
vt -0.141030 0.371311
vt -0.141030 0.402607
vt -0.166078 0.371311
vt -0.166078 0.402607
vt -0.191127 0.371311
vt -0.191127 0.402607
vt -0.216174 0.371311
vt -0.216174 0.402607
vt -0.241223 0.371311
vt -0.241223 0.402607
vt -1.154665 0.371311
vt -1.154665 0.402607
vt -1.184013 0.371311
vt -1.184013 0.402607
vt -1.206758 0.371311
vt -1.206758 0.402607
vt -1.225413 0.371311
vt -1.225413 0.402607
vt -1.245376 0.371311
vt -1.245376 0.402607
vt -1.270979 0.371311
vt -1.270979 0.402607
vt -1.303381 0.371311
vt -1.303381 0.402607
vt 2.303381 0.402607
vt 2.303381 0.371311
vt 0.971224 0.371311
vt 0.971224 0.402607
vt 0.938822 0.371311
vt 0.938822 0.402607
vt 0.913220 0.371311
vt 0.913219 0.402607
vt 0.893256 0.371311
vt 0.893256 0.402607
vt 0.874602 0.371311
vt 0.874602 0.402607
vt 0.851857 0.371311
vt 0.851857 0.402607
vt 0.822509 0.371311
vt 0.822509 0.402607
vt -0.090934 0.371311
vt -0.090934 0.402607
vt 0.296859 0.402607
vt 0.296859 0.371311
vt 0.274114 0.371311
vt 0.274114 0.402607
vt 0.255460 0.371311
vt 0.255460 0.402607
vt 0.235497 0.371311
vt 0.235497 0.402607
vt 0.209895 0.371311
vt 0.209895 0.402607
vt 0.177492 0.371311
vt 0.177492 0.402607
vt -1.154659 0.371311
vt -1.154659 0.402607
vt -1.187061 0.371311
vt -1.187061 0.402607
vt -1.212663 0.371311
vt -1.212663 0.402607
vt -1.232626 0.371311
vt -1.232626 0.402607
vt -1.251281 0.371311
vt -1.251281 0.402607
vt -1.274027 0.371311
vt -1.274027 0.402607
vt -1.303374 0.371311
vt -1.303374 0.402607
vt 2.303374 0.402607
vt 2.303374 0.371311
vt 1.389935 0.371311
vt 1.389935 0.402607
vt 1.364886 0.371311
vt 1.364886 0.402607
vt 1.339839 0.371311
vt 1.339839 0.402607
vt 1.314790 0.371311
vt 1.314790 0.402607
vt 1.289743 0.371311
vt 1.289743 0.402607
vt 1.264695 0.371311
vt 1.264695 0.402607
vt 1.239647 0.371311
vt 1.239647 0.402607
vt 0.326207 0.371311
vt 0.326207 0.402607
vn 0.8977 -0.4403 0.0146
vn 0.8947 -0.4467 0.0000
vn 0.8892 -0.4576 -0.0050
vn 0.9003 -0.4352 -0.0053
vn 0.8785 -0.4766 -0.0325
vn 0.8912 -0.4534 0.0157
vn 0.8999 -0.4360 -0.0049
vn 0.8892 -0.4575 0.0046
vn 0.9124 -0.4071 0.0423
vn 0.8786 -0.4765 0.0322
vn 0.9004 -0.4350 0.0055
vn 0.9103 -0.4126 0.0339
vn 0.8975 -0.4408 -0.0133
vn 0.9107 -0.4115 -0.0371
vn 0.8891 -0.4576 -0.0049
vn 0.8916 -0.4526 -0.0135
vn 0.9011 -0.4336 0.0058
vn 0.8911 -0.4536 0.0156
vn 0.9122 -0.4081 0.0373
vn 0.8976 -0.4406 -0.0144
vn 0.9001 -0.4346 0.0301
vn 0.8777 -0.4780 0.0347
vn 0.9093 -0.4144 -0.0369
vn 0.9098 -0.4150 -0.0072
vn 0.8890 -0.4573 0.0248
vn 0.8887 -0.4584 0.0051
vn 0.8822 -0.4705 0.0206
vn 0.8945 -0.4464 0.0221
vn 0.8771 -0.4787 -0.0382
vn 0.9109 -0.4117 -0.0264
vn 0.8915 -0.4529 -0.0145
vn 0.8975 -0.4408 0.0141
vn 0.8935 -0.4490 -0.0115
vn -0.0000 0.0000 1.0000
vn 0.8947 -0.4467 0.0001
vn 0.4504 0.8907 0.0619
vn 0.4311 0.8525 0.2958
vn 0.4310 0.8524 0.2962
vn 0.4501 0.8901 -0.0723
vn 0.4501 0.8901 -0.0722
vn 0.4328 0.8558 -0.2833
vn 0.4328 0.8559 -0.2831
vn 0.3806 0.7528 -0.5371
vn 0.3807 0.7530 -0.5367
vn 0.3030 0.5995 -0.7408
vn 0.3032 0.5999 -0.7404
vn 0.2091 0.4138 -0.8860
vn 0.2093 0.4143 -0.8857
vn 0.1063 0.2105 -0.9718
vn 0.1066 0.2111 -0.9716
vn 0.0266 0.0527 -0.9983
vn 0.0268 0.0530 -0.9982
vn -0.0224 -0.0454 -0.9987
vn -0.0225 -0.0455 -0.9987
vn -0.1098 -0.2220 -0.9688
vn -0.1101 -0.2225 -0.9687
vn -0.2708 -0.5475 -0.7918
vn -0.2712 -0.5482 -0.7912
vn -0.4199 -0.8489 -0.3211
vn -0.4199 -0.8491 -0.3206
vn -0.4309 -0.8713 0.2349
vn -0.4309 -0.8713 0.2347
vn -0.3642 -0.7362 0.5705
vn -0.3643 -0.7364 0.5702
vn -0.3137 -0.6309 0.7096
vn -0.3137 -0.6310 0.7095
vn -0.2854 -0.5682 0.7718
vn -0.2853 -0.5681 0.7719
vn -0.2237 -0.4430 0.8681
vn -0.2235 -0.4426 0.8684
vn -0.0891 -0.1765 0.9803
vn -0.0886 -0.1755 0.9805
vn 0.1241 0.2456 0.9614
vn 0.1248 0.2470 0.9609
vn 0.3320 0.6566 0.6772
vn 0.3323 0.6573 0.6764
vn -0.4396 -0.8982 -0.0000
vn -0.4225 -0.8566 -0.2962
vn -0.4225 -0.8567 -0.2959
vn -0.3258 -0.6605 -0.6764
vn -0.3255 -0.6599 -0.6772
vn -0.1224 -0.2482 -0.9609
vn -0.1217 -0.2468 -0.9614
vn 0.0870 0.1763 -0.9805
vn 0.0875 0.1773 -0.9803
vn 0.2195 0.4445 -0.8684
vn 0.2198 0.4450 -0.8681
vn 0.2828 0.5694 -0.7719
vn 0.2828 0.5695 -0.7718
vn 0.3160 0.6299 -0.7095
vn 0.3159 0.6298 -0.7096
vn 0.3698 0.7336 -0.5702
vn 0.3697 0.7334 -0.5705
vn 0.4376 0.8680 -0.2347
vn 0.4376 0.8679 -0.2349
vn 0.4265 0.8458 0.3206
vn 0.4264 0.8457 0.3210
vn 0.2753 0.5461 0.7912
vn 0.2750 0.5454 0.7918
vn 0.1117 0.2217 0.9687
vn 0.1114 0.2212 0.9688
vn 0.0229 0.0454 0.9987
vn 0.0228 0.0452 0.9987
vn -0.0263 -0.0532 0.9982
vn -0.0262 -0.0529 0.9983
vn -0.1047 -0.2120 0.9716
vn -0.1044 -0.2115 0.9718
vn -0.2054 -0.4162 0.8857
vn -0.2052 -0.4157 0.8860
vn -0.2974 -0.6027 0.7405
vn -0.2972 -0.6023 0.7409
vn -0.3733 -0.7568 0.5367
vn -0.3732 -0.7565 0.5370
vn -0.4242 -0.8602 0.2831
vn -0.4242 -0.8601 0.2833
vn -0.4411 -0.8945 0.0722
vn -0.4411 -0.8945 0.0723
vn -0.4414 -0.8952 -0.0619
vn 0.4328 0.8558 0.2833
vn 0.4328 0.8559 0.2831
vn 0.3807 0.7530 0.5367
vn 0.3806 0.7528 0.5370
vn 0.3032 0.5998 0.7405
vn 0.3030 0.5994 0.7409
vn 0.2093 0.4143 0.8857
vn 0.2091 0.4138 0.8860
vn 0.1066 0.2111 0.9716
vn 0.1063 0.2105 0.9718
vn 0.0267 0.0530 0.9982
vn 0.0266 0.0527 0.9983
vn -0.0226 -0.0455 0.9987
vn -0.0225 -0.0453 0.9987
vn -0.1101 -0.2225 0.9687
vn -0.1098 -0.2220 0.9688
vn -0.2712 -0.5482 0.7912
vn -0.2708 -0.5475 0.7918
vn -0.4199 -0.8491 0.3206
vn -0.4199 -0.8489 0.3210
vn -0.4309 -0.8713 -0.2347
vn -0.4309 -0.8713 -0.2349
vn -0.3643 -0.7364 -0.5702
vn -0.3642 -0.7362 -0.5705
vn -0.3137 -0.6310 -0.7095
vn -0.3137 -0.6309 -0.7096
vn -0.2853 -0.5681 -0.7719
vn -0.2853 -0.5682 -0.7718
vn -0.2235 -0.4426 -0.8684
vn -0.2237 -0.4430 -0.8681
vn -0.0886 -0.1755 -0.9805
vn -0.0891 -0.1765 -0.9803
vn 0.1248 0.2470 -0.9609
vn 0.1241 0.2455 -0.9614
vn 0.3323 0.6573 -0.6764
vn 0.3320 0.6566 -0.6773
vn 0.4310 0.8525 -0.2958
vn 0.4310 0.8524 -0.2962
vn 0.4504 0.8907 -0.0619
vn 0.4501 0.8901 0.0722
vn 0.4501 0.8901 0.0723
vn 0.1115 0.2212 -0.9688
vn 0.1117 0.2217 -0.9687
vn 0.2753 0.5461 -0.7912
vn 0.2750 0.5454 -0.7918
vn 0.4265 0.8458 -0.3206
vn 0.4264 0.8456 -0.3211
vn 0.4376 0.8680 0.2347
vn 0.4376 0.8679 0.2349
vn 0.3698 0.7336 0.5702
vn 0.3697 0.7334 0.5705
vn 0.3160 0.6299 0.7095
vn 0.3159 0.6298 0.7096
vn 0.2828 0.5694 0.7719
vn 0.2828 0.5695 0.7718
vn 0.2195 0.4445 0.8684
vn 0.2198 0.4450 0.8681
vn 0.0870 0.1763 0.9805
vn 0.0875 0.1773 0.9803
vn -0.1224 -0.2482 0.9610
vn -0.1217 -0.2468 0.9614
vn -0.3258 -0.6605 0.6764
vn -0.3255 -0.6599 0.6772
vn -0.4225 -0.8567 0.2958
vn -0.4225 -0.8566 0.2961
vn -0.4414 -0.8952 0.0619
vn -0.4411 -0.8945 -0.0722
vn -0.4242 -0.8602 -0.2831
vn -0.4242 -0.8601 -0.2833
vn -0.3733 -0.7568 -0.5367
vn -0.3731 -0.7565 -0.5370
vn -0.2974 -0.6027 -0.7405
vn -0.2972 -0.6023 -0.7409
vn -0.2054 -0.4162 -0.8857
vn -0.2052 -0.4157 -0.8860
vn -0.1047 -0.2120 -0.9716
vn -0.1044 -0.2114 -0.9718
vn -0.0263 -0.0532 -0.9982
vn -0.0261 -0.0529 -0.9983
vn 0.0229 0.0454 -0.9987
vn 0.0228 0.0452 -0.9987
vn 0.3030 0.5995 0.7409
vn 0.0268 0.0530 0.9982
vn -0.0224 -0.0454 0.9987
vn -0.0225 -0.0455 0.9987
vn -0.4198 -0.8489 0.3211
vn -0.3643 -0.7363 -0.5702
vn -0.2854 -0.5682 -0.7718
vn 0.1241 0.2456 -0.9614
vn 0.3320 0.6566 -0.6772
vn -0.4224 -0.8566 0.2962
vn -0.4225 -0.8567 0.2959
vn -0.1224 -0.2482 0.9609
vn 0.4377 0.8680 0.2347
vn 0.4264 0.8456 -0.3210
vn 0.1114 0.2212 -0.9689
vn -0.0262 -0.0529 -0.9983
vn -0.1044 -0.2115 -0.9718
vn -0.2055 -0.4162 -0.8857
vn -0.3732 -0.7565 -0.5370
vn -0.3733 -0.7567 -0.5367
vn 0.3030 0.5995 -0.7409
vn 0.3032 0.5999 -0.7405
vn -0.0225 -0.0454 -0.9987
vn -0.4199 -0.8489 -0.3210
vn -0.2853 -0.5682 0.7718
vn -0.2237 -0.4431 0.8681
vn 0.1249 0.2470 0.9609
vn 0.3320 0.6566 0.6773
vn 0.4310 0.8525 0.2958
vn 0.1115 0.2212 0.9688
vn 0.1118 0.2217 0.9687
vn 0.4264 0.8456 0.3211
vn 0.2196 0.4445 -0.8684
vn -0.4224 -0.8566 -0.2962
vn -0.4225 -0.8567 -0.2958
vn -0.1044 -0.2114 0.9718
vn -0.0261 -0.0529 0.9983
vn -0.4413 -0.8952 0.0620
vn -0.4223 -0.8567 0.2962
vn -0.4224 -0.8568 0.2958
vn -0.4413 -0.8952 0.0619
vn -0.4410 -0.8946 -0.0723
vn -0.4410 -0.8946 -0.0722
vn -0.4241 -0.8602 -0.2833
vn -0.4241 -0.8602 -0.2831
vn -0.3731 -0.7566 -0.5370
vn -0.3732 -0.7568 -0.5367
vn -0.2971 -0.6024 -0.7409
vn -0.2973 -0.6028 -0.7405
vn -0.2051 -0.4158 -0.8860
vn -0.2054 -0.4163 -0.8857
vn 0.1114 0.2212 -0.9688
vn 0.1117 0.2218 -0.9687
vn 0.2749 0.5454 -0.7918
vn 0.2752 0.5461 -0.7912
vn 0.4263 0.8457 -0.3211
vn 0.4264 0.8458 -0.3206
vn 0.4375 0.8680 0.2349
vn 0.4375 0.8680 0.2347
vn 0.3696 0.7334 0.5705
vn 0.3697 0.7336 0.5702
vn 0.3158 0.6298 0.7096
vn 0.3159 0.6299 0.7095
vn 0.2827 0.5694 0.7719
vn 0.2197 0.4450 0.8681
vn 0.2195 0.4446 0.8684
vn -0.3254 -0.6599 0.6773
vn -0.3257 -0.6606 0.6764
vn 0.4538 0.8911 0.0000
vn 0.4309 0.8524 -0.2962
vn 0.3319 0.6566 -0.6773
vn 0.3322 0.6573 -0.6764
vn 0.4309 0.8525 -0.2958
vn 0.1248 0.2470 -0.9610
vn -0.2236 -0.4431 -0.8681
vn -0.2234 -0.4426 -0.8684
vn -0.2853 -0.5683 -0.7718
vn -0.2852 -0.5681 -0.7719
vn -0.3136 -0.6310 -0.7096
vn -0.3136 -0.6311 -0.7095
vn -0.3641 -0.7362 -0.5705
vn -0.3642 -0.7364 -0.5702
vn -0.4308 -0.8713 -0.2349
vn -0.4308 -0.8714 -0.2347
vn -0.4198 -0.8490 0.3210
vn -0.4198 -0.8491 0.3205
vn -0.2711 -0.5482 0.7912
vn -0.1098 -0.2220 0.9689
vn -0.1101 -0.2226 0.9687
vn -0.0225 -0.0456 0.9987
vn 0.2090 0.4138 0.8860
vn 0.3029 0.5995 0.7409
vn 0.3031 0.5999 0.7405
vn 0.3805 0.7529 0.5370
vn 0.3806 0.7531 0.5367
vn 0.4327 0.8559 0.2833
vn 0.4327 0.8560 0.2831
vn 0.4500 0.8901 0.0723
vn 0.4500 0.8901 0.0722
vn 0.4503 0.8907 -0.0619
vn -0.4241 -0.8602 0.2833
vn -0.3731 -0.7566 0.5370
vn -0.3732 -0.7568 0.5367
vn -0.4241 -0.8602 0.2830
vn -0.2971 -0.6024 0.7409
vn -0.2973 -0.6028 0.7405
vn -0.2051 -0.4158 0.8860
vn -0.2054 -0.4163 0.8857
vn 0.0228 0.0454 0.9987
vn 0.2749 0.5455 0.7918
vn 0.2752 0.5461 0.7912
vn 0.4263 0.8457 0.3210
vn 0.4264 0.8458 0.3206
vn 0.4375 0.8680 -0.2349
vn 0.4375 0.8680 -0.2347
vn 0.3696 0.7334 -0.5705
vn 0.3697 0.7336 -0.5702
vn 0.3158 0.6298 -0.7096
vn 0.3159 0.6299 -0.7095
vn 0.2827 0.5694 -0.7719
vn 0.2197 0.4450 -0.8681
vn 0.2195 0.4446 -0.8684
vn -0.3254 -0.6599 -0.6773
vn -0.3257 -0.6606 -0.6764
vn -0.4223 -0.8567 -0.2962
vn -0.4224 -0.8568 -0.2958
vn -0.4413 -0.8952 -0.0619
vn -0.4410 -0.8946 0.0723
vn -0.4410 -0.8946 0.0722
vn -0.2711 -0.5482 -0.7912
vn -0.1101 -0.2226 -0.9687
vn -0.4198 -0.8490 -0.3211
vn -0.4198 -0.8491 -0.3206
vn -0.4308 -0.8713 0.2349
vn -0.4308 -0.8714 0.2347
vn -0.3641 -0.7362 0.5705
vn -0.3642 -0.7364 0.5702
vn -0.3136 -0.6310 0.7096
vn -0.3136 -0.6311 0.7095
vn -0.2853 -0.5683 0.7718
vn -0.2852 -0.5681 0.7719
vn -0.2236 -0.4431 0.8681
vn -0.2234 -0.4426 0.8684
vn 0.1248 0.2470 0.9610
vn 0.3319 0.6566 0.6773
vn 0.3322 0.6573 0.6764
vn 0.4309 0.8524 0.2961
vn 0.4503 0.8907 0.0619
vn 0.4500 0.8901 -0.0722
vn 0.4327 0.8559 -0.2833
vn 0.4327 0.8560 -0.2831
vn 0.3805 0.7529 -0.5370
vn 0.3806 0.7531 -0.5367
vn 0.3029 0.5995 -0.7408
vn 0.3031 0.5999 -0.7405
vn 0.2090 0.4138 -0.8860
vn 0.0267 0.0530 -0.9982
vn -0.0224 -0.0453 -0.9987
vn -0.4413 -0.8952 -0.0620
vn -0.4224 -0.8568 -0.2959
vn -0.4241 -0.8602 0.2831
vn -0.3732 -0.7568 0.5366
vn 0.1117 0.2218 0.9687
vn 0.2749 0.5454 0.7918
vn 0.4263 0.8457 0.3211
vn 0.2197 0.4451 -0.8681
vn -0.3254 -0.6599 -0.6772
vn 0.4309 0.8524 0.2962
vn 0.4309 0.8525 0.2959
vn 0.3319 0.6567 0.6772
vn -0.4198 -0.8491 -0.3205
vn -0.4198 -0.8490 -0.3210
vn -0.0226 -0.0456 -0.9987
vn 0.3029 0.5995 -0.7409
vn -0.3731 -0.7566 -0.5371
vn 0.2749 0.5455 -0.7918
vn -0.4198 -0.8491 0.3206
vn -0.4198 -0.8490 0.3211
vn -0.2237 -0.4431 -0.8681
vn 0.3319 0.6567 -0.6772
vn 0.4327 0.8560 0.2830
vn 0.3806 0.7531 0.5366
vn -0.0224 -0.0453 0.9987
usemtl MI_PaddedWall
s 1
f 19/1/1 6/2/2 1/3/2 17/4/3
f 1/3/2 9/5/4 10/6/5 3/7/2
f 7/8/2 1/3/2 23/9/6 24/10/7
f 2/11/2 4/12/2 11/13/8 12/14/9
f 1/3/2 3/7/2 28/15/10 26/16/11
f 5/17/2 21/18/12 22/19/13 7/8/2
f 43/20/2 41/21/2 29/22/14 30/23/15
f 16/24/16 1/3/2 6/2/2 14/25/17
f 4/12/2 8/26/18 9/5/4 1/3/2
f 8/26/18 10/6/5 39/27/19
f 3/7/2 10/6/5 8/26/18 4/12/2
f 1/3/2 13/28/20 11/13/8 4/12/2
f 13/28/20 38/29/21 11/13/8
f 12/14/9 13/28/20 1/3/2 2/11/2
f 14/25/17 6/2/2 2/11/2 15/30/22
f 15/30/22 2/11/2 1/3/2 16/24/16
f 17/4/3 1/3/2 5/17/2 18/31/23
f 16/24/16 14/25/17 37/32/24
f 18/31/23 19/1/1 36/33/25
f 18/31/23 5/17/2 6/2/2 19/1/1
f 7/8/2 22/19/13 20/34/26 1/3/2
f 22/19/13 35/35/27 20/34/26
f 21/18/12 5/17/2 1/3/2 20/34/26
f 24/10/7 34/36/28 25/37/29
f 25/37/29 23/9/6 1/3/2 41/21/2
f 41/21/2 7/8/2 24/10/7 25/37/29
f 26/16/11 28/15/10 32/38/30
f 26/16/11 27/39/31 43/20/2 1/3/2
f 28/15/10 3/7/2 43/20/2 27/39/31
f 30/23/15 31/40/32 1/3/2 43/20/2
f 29/22/14 41/21/2 1/3/2 31/40/32
f 30/23/15 33/41/33 31/40/32
f 32/38/30 28/15/10 27/39/31
f 27/39/31 26/16/11 32/38/30
f 31/40/32 33/41/33 29/22/14
f 33/41/33 30/23/15 29/22/14
f 25/37/29 34/36/28 23/9/6
f 23/9/6 34/36/28 24/10/7
f 20/34/26 35/35/27 21/18/12
f 21/18/12 35/35/27 22/19/13
f 36/33/25 19/1/1 17/4/3
f 17/4/3 18/31/23 36/33/25
f 37/32/24 14/25/17 15/30/22
f 15/30/22 16/24/16 37/32/24
f 11/13/8 38/29/21 12/14/9
f 12/14/9 38/29/21 13/28/20
f 39/27/19 10/6/5 9/5/4
f 9/5/4 8/26/18 39/27/19
f 56/42/1 7/43/2 40/44/2 54/45/3
f 40/44/2 46/46/4 47/47/5 42/48/2
f 79/49/2 40/44/2 60/50/6 61/51/7
f 41/52/2 43/53/2 48/54/8 49/55/9
f 40/44/2 42/48/2 65/56/10 63/57/11
f 44/58/2 58/59/12 59/60/13 79/49/2
f 78/61/2 77/62/2 66/63/14 68/64/15
f 53/65/16 40/44/2 7/43/2 51/66/17
f 43/53/2 45/67/18 46/46/4 40/44/2
f 45/67/18 47/47/5 76/68/19
f 42/48/2 47/47/5 45/67/18 43/53/2
f 40/44/2 50/69/20 48/54/8 43/53/2
f 50/69/20 75/70/21 48/54/8
f 49/55/9 50/69/20 40/44/2 41/52/2
f 51/66/17 7/43/2 41/52/2 52/71/22
f 52/71/22 41/52/2 40/44/2 53/65/16
f 54/45/3 40/44/2 44/58/2 55/72/23
f 53/65/16 51/66/17 74/73/24
f 55/72/23 56/42/1 73/74/25
f 55/72/23 44/58/2 7/43/2 56/42/1
f 79/49/2 59/60/13 57/75/26 40/44/2
f 59/60/13 72/76/27 57/75/26
f 58/59/12 44/58/2 40/44/2 57/75/26
f 61/51/7 71/77/28 62/78/29
f 62/78/29 60/50/6 40/44/2 77/62/2
f 77/62/2 79/49/2 61/51/7 62/78/29
f 63/57/11 65/56/10 69/79/30
f 63/57/11 64/80/31 78/61/2 40/44/2
f 65/56/10 42/48/2 78/61/2 64/80/31
f 68/64/15 67/81/32 40/44/2 78/61/2
f 66/63/14 77/62/2 40/44/2 67/81/32
f 68/64/15 70/82/33 67/81/32
f 69/79/30 65/56/10 64/80/31
f 64/80/31 63/57/11 69/79/30
f 67/81/32 70/82/33 66/63/14
f 70/82/33 68/64/15 66/63/14
f 62/78/29 71/77/28 60/50/6
f 60/50/6 71/77/28 61/51/7
f 57/75/26 72/76/27 58/59/12
f 58/59/12 72/76/27 59/60/13
f 73/74/25 56/42/1 54/45/3
f 54/45/3 55/72/23 73/74/25
f 74/73/24 51/66/17 52/71/22
f 52/71/22 53/65/16 74/73/24
f 48/54/8 75/70/21 49/55/9
f 49/55/9 75/70/21 50/69/20
f 76/68/19 47/47/5 46/46/4
f 46/46/4 45/67/18 76/68/19
f 81/83/34 85/84/34 174/85/34 171/86/34
f 81/87/2 157/88/2 151/89/2 86/90/2
f 86/90/2 136/91/2 130/92/2 80/93/2
f 82/94/2 143/95/2 137/96/2 86/90/2
f 80/93/2 129/97/2 144/98/2 82/94/2
f 84/99/2 87/100/2 102/101/2 80/93/2
f 80/93/2 101/102/2 95/103/2 86/90/2
f 86/90/2 94/104/2 88/105/2 84/99/2
f 86/90/2 115/106/2 109/107/2 81/87/2
f 83/108/2 122/109/2 116/110/2 86/90/2
f 81/87/2 108/111/2 123/112/2 83/108/2
f 86/90/2 150/113/2 165/114/2 85/115/2
f 85/115/2 164/116/2 158/117/2 81/87/2
f 86/90/2 84/99/2 83/108/2
f 87/100/2 84/99/2 89/118/2
f 89/118/2 84/99/2 90/119/2
f 90/119/2 84/99/2 91/120/2
f 91/120/2 84/99/2 92/121/2
f 92/121/2 84/99/2 93/122/2
f 93/122/2 84/99/2 88/105/2
f 94/104/2 86/90/2 96/123/2
f 96/123/2 86/90/2 97/124/2
f 97/124/2 86/90/2 98/125/2
f 98/125/2 86/90/2 99/126/2
f 99/126/2 86/90/2 100/127/2
f 100/127/2 86/90/2 95/103/2
f 101/102/2 80/93/2 103/128/2
f 103/128/2 80/93/2 104/129/2
f 104/129/2 80/93/2 105/130/2
f 105/130/2 80/93/2 106/131/2
f 106/131/2 80/93/2 107/132/2
f 107/132/2 80/93/2 102/101/2
f 108/111/2 81/87/2 110/133/2
f 110/133/2 81/87/2 111/134/2
f 111/134/2 81/87/2 112/135/2
f 112/135/2 81/87/2 113/136/2
f 113/136/2 81/87/2 114/137/2
f 114/137/2 81/87/2 109/107/2
f 115/106/2 86/90/2 117/138/2
f 117/138/2 86/90/2 118/139/2
f 118/139/2 86/90/2 119/140/2
f 119/140/2 86/90/2 120/141/2
f 120/141/2 86/90/2 121/142/2
f 121/142/2 86/90/2 116/110/2
f 122/109/2 83/108/2 124/143/2
f 124/143/2 83/108/2 125/144/2
f 125/144/2 83/108/2 126/145/2
f 126/145/2 83/108/2 127/146/2
f 127/146/2 83/108/2 128/147/2
f 128/147/2 83/108/2 123/112/2
f 129/97/2 80/93/2 131/148/2
f 131/148/2 80/93/2 132/149/2
f 132/149/2 80/93/2 133/150/2
f 133/150/2 80/93/2 134/151/2
f 134/151/2 80/93/2 135/152/2
f 135/152/2 80/93/2 130/92/2
f 136/91/2 86/90/2 138/153/2
f 138/153/2 86/90/2 139/154/2
f 139/154/2 86/90/2 140/155/2
f 140/155/2 86/90/2 141/156/2
f 141/156/2 86/90/2 142/157/2
f 142/157/2 86/90/2 137/96/2
f 143/95/2 82/94/2 145/158/2
f 145/158/2 82/94/2 146/159/2
f 146/159/2 82/94/2 147/160/2
f 147/160/2 82/94/2 148/161/2
f 148/161/2 82/94/2 149/162/2
f 149/162/2 82/94/2 144/98/2
f 150/113/2 86/90/2 152/163/2
f 152/163/2 86/90/2 153/164/2
f 153/164/2 86/90/2 154/165/2
f 154/165/2 86/90/2 155/166/2
f 155/166/2 86/90/2 156/167/2
f 156/167/2 86/90/2 151/89/2
f 157/88/2 81/87/2 159/168/2
f 159/168/2 81/87/2 160/169/2
f 160/169/2 81/87/2 161/170/2
f 161/170/2 81/87/2 162/171/2
f 162/171/2 81/87/2 163/172/2
f 163/172/2 81/87/2 158/117/2
f 164/116/2 85/115/2 166/173/2
f 166/173/2 85/115/2 167/174/2
f 167/174/2 85/115/2 168/175/2
f 168/175/2 85/115/2 169/176/2
f 169/176/2 85/115/2 170/177/2
f 170/177/2 85/115/2 165/114/2
f 260/178/2 264/179/2 329/180/2 335/181/2
f 264/179/2 80/93/2 308/182/2 314/183/2
f 82/94/2 264/179/2 315/184/2 321/185/2
f 80/93/2 82/94/2 322/186/2 307/187/2
f 262/188/2 80/93/2 280/189/2 265/190/2
f 80/93/2 264/179/2 273/191/2 279/192/2
f 264/179/2 262/188/2 266/193/2 272/194/2
f 264/179/2 260/178/2 287/195/2 293/196/2
f 261/197/2 264/179/2 294/198/2 300/199/2
f 260/178/2 261/197/2 301/200/2 286/201/2
f 264/179/2 263/202/2 343/203/2 328/204/2
f 263/202/2 260/178/2 336/205/2 342/206/2
f 264/179/2 261/197/2 262/188/2
f 265/190/2 267/207/2 262/188/2
f 267/207/2 268/208/2 262/188/2
f 268/208/2 269/209/2 262/188/2
f 269/209/2 270/210/2 262/188/2
f 270/210/2 271/211/2 262/188/2
f 271/211/2 266/193/2 262/188/2
f 272/194/2 274/212/2 264/179/2
f 274/212/2 275/213/2 264/179/2
f 275/213/2 276/214/2 264/179/2
f 276/214/2 277/215/2 264/179/2
f 277/215/2 278/216/2 264/179/2
f 278/216/2 273/191/2 264/179/2
f 279/192/2 281/217/2 80/93/2
f 281/217/2 282/218/2 80/93/2
f 282/218/2 283/219/2 80/93/2
f 283/219/2 284/220/2 80/93/2
f 284/220/2 285/221/2 80/93/2
f 285/221/2 280/189/2 80/93/2
f 286/201/2 288/222/2 260/178/2
f 288/222/2 289/223/2 260/178/2
f 289/223/2 290/224/2 260/178/2
f 290/224/2 291/225/2 260/178/2
f 291/225/2 292/226/2 260/178/2
f 292/226/2 287/195/2 260/178/2
f 293/196/2 295/227/2 264/179/2
f 295/227/2 296/228/2 264/179/2
f 296/228/2 297/229/2 264/179/2
f 297/229/2 298/230/2 264/179/2
f 298/230/2 299/231/2 264/179/2
f 299/231/2 294/198/2 264/179/2
f 300/199/2 302/232/2 261/197/2
f 302/232/2 303/233/2 261/197/2
f 303/233/2 304/234/2 261/197/2
f 304/234/2 305/235/2 261/197/2
f 305/235/2 306/236/2 261/197/2
f 306/236/2 301/200/2 261/197/2
f 307/187/2 309/237/2 80/93/2
f 309/237/2 310/238/2 80/93/2
f 310/238/2 311/239/2 80/93/2
f 311/239/2 312/240/2 80/93/2
f 312/240/2 313/241/2 80/93/2
f 313/241/2 308/182/2 80/93/2
f 314/183/2 316/242/2 264/179/2
f 316/242/2 317/243/2 264/179/2
f 317/243/2 318/244/2 264/179/2
f 318/244/2 319/245/2 264/179/2
f 319/245/2 320/246/2 264/179/2
f 320/246/2 315/184/2 264/179/2
f 321/185/2 323/247/2 82/94/2
f 323/247/2 324/248/2 82/94/2
f 324/248/2 325/249/2 82/94/2
f 325/249/2 326/250/2 82/94/2
f 326/250/2 327/251/2 82/94/2
f 327/251/2 322/186/2 82/94/2
f 328/204/2 330/252/2 264/179/2
f 330/252/2 331/253/2 264/179/2
f 331/253/2 332/254/2 264/179/2
f 332/254/2 333/255/2 264/179/2
f 333/255/2 334/256/2 264/179/2
f 334/256/2 329/180/2 264/179/2
f 335/181/2 337/257/2 260/178/2
f 337/257/2 338/258/2 260/178/2
f 338/258/2 339/259/2 260/178/2
f 339/259/2 340/260/2 260/178/2
f 340/260/2 341/261/2 260/178/2
f 341/261/2 336/205/2 260/178/2
f 342/206/2 344/262/2 263/202/2
f 344/262/2 345/263/2 263/202/2
f 345/263/2 346/264/2 263/202/2
f 346/264/2 347/265/2 263/202/2
f 347/265/2 348/266/2 263/202/2
f 348/266/2 343/203/2 263/202/2
f 438/267/34 525/268/34 174/85/34 85/84/34
f 438/269/2 86/90/2 505/270/2 511/271/2
f 86/90/2 437/272/2 484/273/2 490/274/2
f 82/94/2 86/90/2 491/275/2 497/276/2
f 437/272/2 82/94/2 498/277/2 483/278/2
f 440/279/2 437/272/2 456/280/2 441/281/2
f 437/272/2 86/90/2 449/282/2 455/283/2
f 86/90/2 440/279/2 442/284/2 448/285/2
f 86/90/2 438/269/2 463/286/2 469/287/2
f 439/288/2 86/90/2 470/289/2 476/290/2
f 438/269/2 439/288/2 477/291/2 462/292/2
f 86/90/2 85/115/2 519/293/2 504/294/2
f 85/115/2 438/269/2 512/295/2 518/296/2
f 86/90/2 439/288/2 440/279/2
f 441/281/2 443/297/2 440/279/2
f 443/297/2 444/298/2 440/279/2
f 444/298/2 445/299/2 440/279/2
f 445/299/2 446/300/2 440/279/2
f 446/300/2 447/301/2 440/279/2
f 447/301/2 442/284/2 440/279/2
f 448/285/2 450/302/2 86/90/2
f 450/302/2 451/303/2 86/90/2
f 451/303/2 452/304/2 86/90/2
f 452/304/2 453/305/2 86/90/2
f 453/305/2 454/306/2 86/90/2
f 454/306/2 449/282/2 86/90/2
f 455/283/2 457/307/2 437/272/2
f 457/307/2 458/308/2 437/272/2
f 458/308/2 459/309/2 437/272/2
f 459/309/2 460/310/2 437/272/2
f 460/310/2 461/311/2 437/272/2
f 461/311/2 456/280/2 437/272/2
f 462/292/2 464/312/2 438/269/2
f 464/312/2 465/313/2 438/269/2
f 465/313/2 466/314/2 438/269/2
f 466/314/2 467/315/2 438/269/2
f 467/315/2 468/316/2 438/269/2
f 468/316/2 463/286/2 438/269/2
f 469/287/2 471/317/35 86/90/2
f 471/317/35 472/318/2 86/90/2
f 472/318/2 473/319/2 86/90/2
f 473/319/2 474/320/2 86/90/2
f 474/320/2 475/321/2 86/90/2
f 475/321/2 470/289/2 86/90/2
f 476/290/2 478/322/2 439/288/2
f 478/322/2 479/323/2 439/288/2
f 479/323/2 480/324/2 439/288/2
f 480/324/2 481/325/2 439/288/2
f 481/325/2 482/326/2 439/288/2
f 482/326/2 477/291/2 439/288/2
f 483/278/2 485/327/2 437/272/2
f 485/327/2 486/328/2 437/272/2
f 486/328/2 487/329/2 437/272/2
f 487/329/2 488/330/2 437/272/2
f 488/330/2 489/331/2 437/272/2
f 489/331/2 484/273/2 437/272/2
f 490/274/2 492/332/2 86/90/2
f 492/332/2 493/333/2 86/90/2
f 493/333/2 494/334/2 86/90/2
f 494/334/2 495/335/2 86/90/2
f 495/335/2 496/336/2 86/90/2
f 496/336/2 491/275/2 86/90/2
f 497/276/2 499/337/2 82/94/2
f 499/337/2 500/338/2 82/94/2
f 500/338/2 501/339/2 82/94/2
f 501/339/2 502/340/2 82/94/2
f 502/340/2 503/341/2 82/94/2
f 503/341/2 498/277/2 82/94/2
f 504/294/2 506/342/2 86/90/2
f 506/342/2 507/343/2 86/90/2
f 507/343/2 508/344/2 86/90/2
f 508/344/2 509/345/2 86/90/2
f 509/345/2 510/346/2 86/90/2
f 510/346/2 505/270/2 86/90/2
f 511/271/2 513/347/35 438/269/2
f 513/347/35 514/348/2 438/269/2
f 514/348/2 515/349/2 438/269/2
f 515/349/2 516/350/2 438/269/2
f 516/350/2 517/351/2 438/269/2
f 517/351/2 512/295/2 438/269/2
f 518/296/2 520/352/2 85/115/2
f 520/352/2 521/353/2 85/115/2
f 521/353/2 522/354/2 85/115/2
f 522/354/2 523/355/2 85/115/2
f 523/355/2 524/356/2 85/115/2
f 524/356/2 519/293/2 85/115/2
f 613/357/2 686/358/2 680/359/2 264/179/2
f 264/179/2 665/360/2 659/361/2 437/272/2
f 82/94/2 672/362/2 666/363/2 264/179/2
f 437/272/2 658/364/2 673/365/2 82/94/2
f 615/366/2 616/367/2 631/368/2 437/272/2
f 437/272/2 630/369/2 624/370/2 264/179/2
f 264/179/2 623/371/2 617/372/2 615/366/2
f 264/179/2 644/373/2 638/374/2 613/357/2
f 614/375/2 651/376/2 645/377/2 264/179/2
f 613/357/2 637/378/2 652/379/2 614/375/2
f 264/179/2 679/380/2 694/381/2 263/202/2
f 263/202/2 693/382/2 687/383/2 613/357/2
f 264/179/2 615/366/2 614/375/2
f 616/367/2 615/366/2 618/384/2
f 618/384/2 615/366/2 619/385/2
f 619/385/2 615/366/2 620/386/2
f 620/386/2 615/366/2 621/387/2
f 621/387/2 615/366/2 622/388/2
f 622/388/2 615/366/2 617/372/2
f 623/371/2 264/179/2 625/389/2
f 625/389/2 264/179/2 626/390/2
f 626/390/2 264/179/2 627/391/2
f 627/391/2 264/179/2 628/392/2
f 628/392/2 264/179/2 629/393/2
f 629/393/2 264/179/2 624/370/2
f 630/369/2 437/272/2 632/394/2
f 632/394/2 437/272/2 633/395/2
f 633/395/2 437/272/2 634/396/2
f 634/396/2 437/272/2 635/397/2
f 635/397/2 437/272/2 636/398/2
f 636/398/2 437/272/2 631/368/2
f 637/378/2 613/357/2 639/399/2
f 639/399/2 613/357/2 640/400/2
f 640/400/2 613/357/2 641/401/2
f 641/401/2 613/357/2 642/402/2
f 642/402/2 613/357/2 643/403/2
f 643/403/2 613/357/2 638/374/2
f 644/373/2 264/179/2 646/404/2
f 646/404/2 264/179/2 647/405/2
f 647/405/2 264/179/2 648/406/2
f 648/406/2 264/179/2 649/407/2
f 649/407/2 264/179/2 650/408/2
f 650/408/2 264/179/2 645/377/2
f 651/376/2 614/375/2 653/409/2
f 653/409/2 614/375/2 654/410/2
f 654/410/2 614/375/2 655/411/2
f 655/411/2 614/375/2 656/412/2
f 656/412/2 614/375/2 657/413/2
f 657/413/2 614/375/2 652/379/2
f 658/364/2 437/272/2 660/414/2
f 660/414/2 437/272/2 661/415/2
f 661/415/2 437/272/2 662/416/2
f 662/416/2 437/272/2 663/417/2
f 663/417/2 437/272/2 664/418/2
f 664/418/2 437/272/2 659/361/2
f 665/360/2 264/179/2 667/419/2
f 667/419/2 264/179/2 668/420/2
f 668/420/2 264/179/2 669/421/2
f 669/421/2 264/179/2 670/422/2
f 670/422/2 264/179/2 671/423/2
f 671/423/2 264/179/2 666/363/2
f 672/362/2 82/94/2 674/424/2
f 674/424/2 82/94/2 675/425/2
f 675/425/2 82/94/2 676/426/2
f 676/426/2 82/94/2 677/427/2
f 677/427/2 82/94/2 678/428/35
f 678/428/35 82/94/2 673/365/2
f 679/380/2 264/179/2 681/429/2
f 681/429/2 264/179/2 682/430/2
f 682/430/2 264/179/2 683/431/2
f 683/431/2 264/179/2 684/432/2
f 684/432/2 264/179/2 685/433/2
f 685/433/2 264/179/2 680/359/2
f 686/358/2 613/357/2 688/434/2
f 688/434/2 613/357/2 689/435/2
f 689/435/2 613/357/2 690/436/2
f 690/436/2 613/357/2 691/437/2
f 691/437/2 613/357/2 692/438/2
f 692/438/2 613/357/2 687/383/2
f 693/382/2 263/202/2 695/439/2
f 695/439/2 263/202/2 696/440/2
f 696/440/2 263/202/2 697/441/2
f 697/441/2 263/202/2 698/442/2
f 698/442/2 263/202/2 699/443/2
f 699/443/2 263/202/2 694/381/2
usemtl MI_Trim_02
f 197/444/36 108/445/36 110/446/37 199/447/38
f 212/448/39 123/449/40 108/445/36 197/444/36
f 217/450/41 128/451/42 123/449/40 212/448/39
f 216/452/43 127/453/44 128/451/42 217/450/41
f 215/454/45 126/455/46 127/453/44 216/452/43
f 214/456/47 125/457/48 126/455/46 215/454/45
f 213/458/49 124/459/50 125/457/48 214/456/47
f 211/460/51 122/461/52 124/459/50 213/458/49
f 205/462/53 116/463/54 122/461/52 211/460/51
f 210/464/55 121/465/56 116/463/54 205/462/53
f 209/466/57 120/467/58 121/465/56 210/464/55
f 208/468/59 119/469/60 120/467/58 209/466/57
f 207/470/61 118/471/62 119/469/60 208/468/59
f 206/472/63 117/473/64 118/471/62 207/470/61
f 204/474/65 115/475/66 117/473/64 206/472/63
f 198/476/67 109/477/68 115/478/66 204/479/65
f 203/480/69 114/481/70 109/477/68 198/476/67
f 202/482/71 113/483/72 114/481/70 203/480/69
f 201/484/73 112/485/74 113/483/72 202/482/71
f 200/486/75 111/487/76 112/485/74 201/484/73
f 199/447/38 110/446/37 111/487/76 200/486/75
f 84/488/77 80/489/77 175/490/77 173/491/77
f 172/492/77 83/493/77 84/488/77 173/491/77
f 171/494/77 81/495/77 83/493/77 172/492/77
f 241/496/78 152/497/79 153/498/80 242/499/81
f 242/499/81 153/498/80 154/500/82 243/501/83
f 243/501/83 154/500/82 155/502/84 244/503/85
f 244/503/85 155/502/84 156/504/86 245/505/87
f 245/505/87 156/504/86 151/506/88 240/507/89
f 240/507/89 151/506/88 157/508/90 246/509/91
f 246/509/91 157/508/90 159/510/92 248/511/93
f 248/511/93 159/510/92 160/512/94 249/513/95
f 249/513/95 160/512/94 161/514/96 250/515/97
f 250/515/97 161/514/96 162/516/98 251/517/99
f 251/517/99 162/516/98 163/518/100 252/519/101
f 252/519/101 163/518/100 158/520/102 247/521/103
f 247/521/103 158/520/102 164/522/104 253/523/105
f 253/523/105 164/522/104 166/524/106 255/525/107
f 255/525/107 166/524/106 167/526/108 256/527/109
f 256/527/109 167/526/108 168/528/110 257/529/111
f 257/529/111 168/528/110 169/530/112 258/531/113
f 258/531/113 169/530/112 170/532/114 259/533/115
f 259/533/115 170/532/114 165/534/116 254/535/117
f 254/535/117 165/534/116 150/536/118 239/537/118
f 239/538/118 150/539/118 152/497/79 241/496/78
f 178/540/119 89/541/120 90/542/121 179/543/122
f 179/543/122 90/542/121 91/544/123 180/545/124
f 180/545/124 91/544/123 92/546/125 181/547/126
f 181/547/126 92/546/125 93/548/127 182/549/128
f 182/549/128 93/548/127 88/550/129 177/551/130
f 177/551/130 88/550/129 94/552/131 183/553/132
f 183/553/132 94/552/131 96/554/133 185/555/134
f 185/555/134 96/554/133 97/556/135 186/557/136
f 186/557/136 97/556/135 98/558/137 187/559/138
f 187/559/138 98/558/137 99/560/139 188/561/140
f 188/561/140 99/560/139 100/562/141 189/563/142
f 189/563/142 100/562/141 95/564/143 184/565/144
f 184/566/144 95/567/143 101/568/145 190/569/146
f 190/569/146 101/568/145 103/570/147 192/571/148
f 192/571/148 103/570/147 104/572/149 193/573/150
f 193/573/150 104/572/149 105/574/151 194/575/152
f 194/575/152 105/574/151 106/576/153 195/577/154
f 195/577/154 106/576/153 107/578/155 196/579/156
f 196/579/156 107/578/155 102/580/157 191/581/157
f 191/581/157 102/580/157 87/582/158 176/583/159
f 176/583/159 87/582/158 89/541/120 178/540/119
f 220/584/160 131/585/161 132/586/162 221/587/163
f 221/587/163 132/586/162 133/588/164 222/589/165
f 222/589/165 133/588/164 134/590/166 223/591/167
f 223/591/167 134/590/166 135/592/168 224/593/169
f 224/593/169 135/592/168 130/594/170 219/595/171
f 219/595/171 130/594/170 136/596/172 225/597/173
f 225/597/173 136/596/172 138/598/174 227/599/175
f 227/599/175 138/598/174 139/600/176 228/601/177
f 228/601/177 139/600/176 140/602/178 229/603/179
f 229/603/179 140/602/178 141/604/180 230/605/181
f 230/605/181 141/604/180 142/606/182 231/607/183
f 231/607/183 142/606/182 137/608/184 226/609/184
f 226/610/184 137/611/184 143/612/185 232/613/185
f 232/613/185 143/612/185 145/614/186 234/615/187
f 234/615/187 145/614/186 146/616/188 235/617/189
f 235/617/189 146/616/188 147/618/190 236/619/191
f 236/619/191 147/618/190 148/620/192 237/621/193
f 237/621/193 148/620/192 149/622/194 238/623/195
f 238/623/195 149/622/194 144/624/196 233/625/197
f 233/625/197 144/624/196 129/626/198 218/627/199
f 218/627/199 129/626/198 131/585/161 220/584/160
f 374/628/157 376/629/156 288/630/155 286/631/157
f 389/632/159 374/628/157 286/631/157 301/633/158
f 394/634/119 389/632/159 301/633/158 306/635/120
f 393/636/122 394/634/119 306/635/120 305/637/121
f 392/638/200 393/636/122 305/637/121 304/639/123
f 391/640/126 392/638/200 304/639/123 303/641/125
f 390/642/128 391/640/126 303/641/125 302/643/127
f 388/644/130 390/642/128 302/643/127 300/645/201
f 382/646/202 388/644/130 300/645/201 294/647/203
f 387/648/134 382/646/202 294/647/203 299/649/133
f 386/650/136 387/648/134 299/649/133 298/651/135
f 385/652/204 386/650/136 298/651/135 297/653/137
f 384/654/140 385/652/204 297/653/137 296/655/139
f 383/656/142 384/654/140 296/655/139 295/657/205
f 381/658/144 383/656/142 295/657/205 293/659/143
f 375/660/206 381/661/144 293/662/143 287/663/145
f 380/664/148 375/660/206 287/663/145 292/665/147
f 379/666/150 380/664/148 292/665/147 291/667/149
f 378/668/207 379/666/150 291/667/149 290/669/151
f 377/670/208 378/668/207 290/669/151 289/671/153
f 376/629/156 377/670/208 289/671/153 288/630/155
f 262/672/77 351/673/77 175/490/77 80/489/77
f 350/674/77 351/673/77 262/672/77 261/675/77
f 349/676/77 350/674/77 261/675/77 260/677/77
f 352/678/34 349/679/34 260/680/34 263/681/34
f 418/682/209 419/683/181 331/684/180 330/685/210
f 419/683/181 420/686/179 332/687/211 331/684/180
f 420/686/179 421/688/177 333/689/176 332/687/211
f 421/688/177 422/690/175 334/691/174 333/689/176
f 422/690/175 417/692/173 329/693/172 334/691/174
f 417/692/173 423/694/171 335/695/170 329/693/172
f 423/694/171 425/696/169 337/697/168 335/695/170
f 425/696/169 426/698/167 338/699/212 337/697/168
f 426/698/167 427/700/213 339/701/164 338/699/212
f 427/700/213 428/702/163 340/703/162 339/701/164
f 428/702/163 429/704/214 341/705/161 340/703/162
f 429/704/214 424/706/199 336/707/198 341/705/161
f 424/706/199 430/708/215 342/709/196 336/707/198
f 430/708/215 432/710/216 344/711/194 342/709/196
f 432/710/216 433/712/193 345/713/217 344/711/194
f 433/712/193 434/714/191 346/715/190 345/713/217
f 434/714/191 435/716/218 347/717/219 346/715/190
f 435/716/218 436/718/187 348/719/186 347/717/219
f 436/718/187 431/720/185 343/721/185 348/719/186
f 431/720/185 416/722/184 328/723/184 343/721/185
f 416/724/184 418/682/209 330/685/210 328/725/184
f 355/726/41 356/727/43 268/728/44 267/729/42
f 356/727/43 357/730/220 269/731/221 268/728/44
f 357/730/220 358/732/47 270/733/48 269/731/221
f 358/732/47 359/734/49 271/735/50 270/733/48
f 359/734/49 354/736/51 266/737/52 271/735/50
f 354/736/51 360/738/222 272/739/54 266/737/52
f 360/738/222 362/740/55 274/741/56 272/739/54
f 362/740/55 363/742/57 275/743/58 274/741/56
f 363/742/57 364/744/223 276/745/60 275/743/58
f 364/744/223 365/746/61 277/747/62 276/745/60
f 365/746/61 366/748/63 278/749/64 277/747/62
f 366/748/63 361/750/65 273/751/66 278/749/64
f 361/752/65 367/753/224 279/754/68 273/755/66
f 367/753/224 369/756/225 281/757/70 279/754/68
f 369/756/225 370/758/71 282/759/72 281/757/70
f 370/758/71 371/760/73 283/761/226 282/759/72
f 371/760/73 372/762/227 284/763/76 283/761/226
f 372/762/227 373/764/38 285/765/228 284/763/76
f 373/764/38 368/766/36 280/767/36 285/765/228
f 368/766/36 353/768/40 265/769/40 280/767/36
f 353/768/40 355/726/41 267/729/42 265/769/40
f 397/770/229 398/771/99 310/772/98 309/773/230
f 398/771/99 399/774/231 311/775/96 310/772/98
f 399/774/231 400/776/95 312/777/94 311/775/96
f 400/776/95 401/778/93 313/779/92 312/777/94
f 401/778/93 396/780/91 308/781/90 313/779/92
f 396/780/91 402/782/89 314/783/88 308/781/90
f 402/782/89 404/784/87 316/785/232 314/783/88
f 404/784/87 405/786/85 317/787/84 316/785/232
f 405/786/85 406/788/83 318/789/82 317/787/84
f 406/788/83 407/790/81 319/791/80 318/789/82
f 407/790/81 408/792/233 320/793/234 319/791/80
f 408/792/233 403/794/118 315/795/118 320/793/234
f 403/796/118 409/797/117 321/798/116 315/799/118
f 409/797/117 411/800/115 323/801/114 321/798/116
f 411/800/115 412/802/113 324/803/112 323/801/114
f 412/802/113 413/804/111 325/805/110 324/803/112
f 413/804/111 414/806/109 326/807/108 325/805/110
f 414/806/109 415/808/235 327/809/106 326/807/108
f 415/808/235 410/810/236 322/811/104 327/809/106
f 410/810/236 395/812/103 307/813/102 322/811/104
f 395/812/103 397/770/229 309/773/230 307/813/102
f 550/814/237 552/815/238 464/816/239 462/817/240
f 565/818/241 550/814/237 462/817/240 477/819/242
f 570/820/243 565/818/241 477/819/242 482/821/244
f 569/822/245 570/820/243 482/821/244 481/823/246
f 568/824/247 569/822/245 481/823/246 480/825/248
f 567/826/249 568/824/247 480/825/248 479/827/250
f 566/828/216 567/826/249 479/827/250 478/829/194
f 564/830/197 566/828/216 478/829/194 476/831/196
f 558/832/199 564/830/197 476/831/196 470/833/198
f 563/834/251 558/832/199 470/833/198 475/835/252
f 562/836/253 563/834/251 475/835/252 474/837/254
f 561/838/255 562/836/253 474/837/254 473/839/256
f 560/840/257 561/838/255 473/839/256 472/841/258
f 559/842/259 560/840/257 472/841/258 471/843/260
f 557/844/261 559/842/259 471/843/260 469/845/262
f 551/846/173 557/847/261 469/848/262 463/849/263
f 556/850/264 551/846/173 463/849/263 468/851/265
f 555/852/177 556/850/264 468/851/265 467/853/176
f 554/854/179 555/852/177 467/853/176 466/855/211
f 553/856/266 554/854/179 466/855/211 465/857/267
f 552/815/238 553/856/266 465/857/267 464/816/239
f 440/858/268 527/859/268 528/860/268 437/861/268
f 526/862/268 527/859/268 440/858/268 439/863/268
f 525/864/268 526/862/268 439/863/268 438/865/268
f 594/866/269 595/867/270 507/868/271 506/869/272
f 595/867/270 596/870/207 508/871/273 507/868/271
f 596/870/207 597/872/150 509/873/149 508/871/273
f 597/872/150 598/874/274 510/875/275 509/873/149
f 598/874/274 593/876/276 505/877/277 510/875/275
f 593/876/276 599/878/278 511/879/279 505/877/277
f 599/878/278 601/880/280 513/881/281 511/879/279
f 601/880/280 602/882/282 514/883/283 513/881/281
f 602/882/282 603/884/284 515/885/285 514/883/283
f 603/884/284 604/886/136 516/887/286 515/885/285
f 604/886/136 605/888/287 517/889/288 516/887/286
f 605/888/287 600/890/202 512/891/289 517/889/288
f 600/890/202 606/892/130 518/893/129 512/891/289
f 606/892/130 608/894/128 520/895/127 518/893/129
f 608/894/128 609/896/290 521/897/125 520/895/127
f 609/896/290 610/898/291 522/899/292 521/897/125
f 610/898/291 611/900/293 523/901/294 522/899/292
f 611/900/293 612/902/295 524/903/296 523/901/294
f 612/902/295 607/904/297 519/905/298 524/903/296
f 607/904/297 592/906/299 504/907/299 519/905/298
f 592/908/299 594/866/269 506/869/272 504/909/299
f 531/910/300 532/911/301 444/912/302 443/913/303
f 532/911/301 533/914/304 445/915/305 444/912/302
f 533/914/304 534/916/306 446/917/307 445/915/305
f 534/916/306 535/918/235 447/919/106 446/917/307
f 535/918/235 530/920/236 442/921/104 447/919/106
f 530/920/236 536/922/103 448/923/308 442/921/104
f 536/922/103 538/924/101 450/925/100 448/923/308
f 538/924/101 539/926/309 451/927/310 450/925/100
f 539/926/309 540/928/311 452/929/312 451/927/310
f 540/928/311 541/930/313 453/931/314 452/929/312
f 541/930/313 542/932/315 454/933/316 453/931/314
f 542/932/315 537/934/317 449/935/318 454/933/316
f 537/936/317 543/937/89 455/938/319 449/939/318
f 543/937/89 545/940/320 457/941/321 455/938/319
f 545/940/320 546/942/85 458/943/84 457/941/321
f 546/942/85 547/944/83 459/945/82 458/943/84
f 547/944/83 548/946/322 460/947/323 459/945/82
f 548/946/322 549/948/324 461/949/325 460/947/323
f 549/948/324 544/950/326 456/951/326 461/949/325
f 544/950/326 529/952/327 441/953/328 456/951/326
f 529/952/327 531/910/300 443/913/303 441/953/328
f 573/954/55 574/955/57 486/956/329 485/957/330
f 574/955/57 575/958/331 487/959/332 486/956/329
f 575/958/331 576/960/333 488/961/334 487/959/332
f 576/960/333 577/962/335 489/963/336 488/961/334
f 577/962/335 572/964/337 484/965/338 489/963/336
f 572/964/337 578/966/339 490/967/340 484/965/338
f 578/966/339 580/968/341 492/969/342 490/967/340
f 580/968/341 581/970/71 493/971/72 492/969/342
f 581/970/71 582/972/73 494/973/343 493/971/72
f 582/972/73 583/974/344 495/975/345 494/973/343
f 583/974/344 584/976/346 496/977/228 495/975/345
f 584/976/346 579/978/347 491/979/347 496/977/228
f 579/980/347 585/981/348 497/982/348 491/983/347
f 585/981/348 587/984/349 499/985/350 497/982/348
f 587/984/349 588/986/351 500/987/352 499/985/350
f 588/986/351 589/988/353 501/989/354 500/987/352
f 589/988/353 590/990/355 502/991/48 501/989/354
f 590/990/355 591/992/49 503/993/50 502/991/48
f 591/992/49 586/994/51 498/995/356 503/993/50
f 586/994/51 571/996/357 483/997/54 498/995/356
f 571/996/357 573/954/55 485/957/330 483/997/54
f 724/998/358 637/999/326 639/1000/359 726/1001/324
f 739/1002/327 652/1003/328 637/999/326 724/998/358
f 744/1004/300 657/1005/360 652/1003/328 739/1002/327
f 743/1006/301 656/1007/361 657/1005/360 744/1004/300
f 742/1008/304 655/1009/305 656/1007/361 743/1006/301
f 741/1010/306 654/1011/307 655/1009/305 742/1008/304
f 740/1012/235 653/1013/106 654/1011/307 741/1010/306
f 738/1014/236 651/1015/104 653/1013/106 740/1012/235
f 732/1016/103 645/1017/102 651/1015/104 738/1014/236
f 737/1018/101 650/1019/362 645/1017/102 732/1016/103
f 736/1020/363 649/1021/310 650/1019/362 737/1018/101
f 735/1022/364 648/1023/312 649/1021/310 736/1020/363
f 734/1024/313 647/1025/314 648/1023/312 735/1022/364
f 733/1026/315 646/1027/316 647/1025/314 734/1024/313
f 731/1028/317 644/1029/318 646/1027/316 733/1026/315
f 725/1030/89 638/1031/319 644/1032/318 731/1033/317
f 730/1034/365 643/1035/321 638/1031/319 725/1030/89
f 729/1036/85 642/1037/84 643/1035/321 730/1034/365
f 728/1038/83 641/1039/82 642/1037/84 729/1036/85
f 727/1040/366 640/1041/323 641/1039/82 728/1038/83
f 726/1001/324 639/1000/359 640/1041/323 727/1040/366
f 615/1042/268 437/861/268 528/860/268 702/1043/268
f 701/1044/268 614/1045/268 615/1042/268 702/1043/268
f 700/1046/268 613/1047/268 614/1045/268 701/1044/268
f 352/678/34 263/681/34 613/1048/34 700/1049/34
f 768/1050/367 681/1051/368 682/1052/345 769/1053/369
f 769/1053/369 682/1052/345 683/1054/74 770/1055/73
f 770/1055/73 683/1054/74 684/1056/72 771/1057/71
f 771/1057/71 684/1056/72 685/1058/342 772/1059/341
f 772/1059/341 685/1058/342 680/1060/340 767/1061/339
f 767/1061/339 680/1060/340 686/1062/338 773/1063/337
f 773/1063/337 686/1062/338 688/1064/336 775/1065/335
f 775/1065/335 688/1064/336 689/1066/334 776/1067/333
f 776/1067/333 689/1066/334 690/1068/370 777/1069/371
f 777/1069/371 690/1068/370 691/1070/329 778/1071/57
f 778/1071/57 691/1070/329 692/1072/330 779/1073/55
f 779/1073/55 692/1072/330 687/1074/372 774/1075/222
f 774/1075/222 687/1074/372 693/1076/356 780/1077/51
f 780/1077/51 693/1076/356 695/1078/50 782/1079/49
f 782/1079/49 695/1078/50 696/1080/48 783/1081/355
f 783/1081/355 696/1080/48 697/1082/354 784/1083/373
f 784/1083/373 697/1082/354 698/1084/352 785/1085/351
f 785/1085/351 698/1084/352 699/1086/350 786/1087/349
f 786/1087/349 699/1086/350 694/1088/348 781/1089/348
f 781/1089/348 694/1088/348 679/1090/347 766/1091/347
f 766/1092/347 679/1093/347 681/1051/368 768/1050/367
f 705/1094/243 618/1095/244 619/1096/246 706/1097/374
f 706/1097/374 619/1096/246 620/1098/248 707/1099/247
f 707/1099/247 620/1098/248 621/1100/250 708/1101/249
f 708/1101/249 621/1100/250 622/1102/194 709/1103/195
f 709/1103/195 622/1102/194 617/1104/196 704/1105/197
f 704/1105/197 617/1104/196 623/1106/198 710/1107/199
f 710/1107/199 623/1106/198 625/1108/161 712/1109/251
f 712/1109/251 625/1108/161 626/1110/254 713/1111/375
f 713/1111/375 626/1110/254 627/1112/256 714/1113/255
f 714/1113/255 627/1112/256 628/1114/258 715/1115/257
f 715/1115/257 628/1114/258 629/1116/260 716/1117/259
f 716/1117/259 629/1116/260 624/1118/262 711/1119/261
f 711/1120/261 624/1121/262 630/1122/263 717/1123/173
f 717/1123/173 630/1122/263 632/1124/265 719/1125/264
f 719/1125/264 632/1124/265 633/1126/176 720/1127/177
f 720/1127/177 633/1126/176 634/1128/211 721/1129/179
f 721/1129/179 634/1128/211 635/1130/267 722/1131/266
f 722/1131/266 635/1130/267 636/1132/239 723/1133/238
f 723/1133/238 636/1132/239 631/1134/240 718/1135/240
f 718/1135/240 631/1134/240 616/1136/242 703/1137/242
f 703/1137/242 616/1136/242 618/1095/244 705/1094/243
f 747/1138/134 660/1139/288 661/1140/286 748/1141/136
f 748/1141/136 661/1140/286 662/1142/376 749/1143/377
f 749/1143/377 662/1142/376 663/1144/283 750/1145/282
f 750/1145/282 663/1144/283 664/1146/281 751/1147/280
f 751/1147/280 664/1146/281 659/1148/279 746/1149/278
f 746/1149/278 659/1148/279 665/1150/277 752/1151/276
f 752/1151/276 665/1150/277 667/1152/275 754/1153/378
f 754/1153/378 667/1152/275 668/1154/149 755/1155/150
f 755/1155/150 668/1154/149 669/1156/151 756/1157/207
f 756/1157/207 669/1156/151 670/1158/271 757/1159/379
f 757/1159/379 670/1158/271 671/1160/272 758/1161/269
f 758/1161/269 671/1160/272 666/1162/299 753/1163/299
f 753/1164/299 666/1165/299 672/1166/298 759/1167/297
f 759/1167/297 672/1166/298 674/1168/380 761/1169/295
f 761/1169/295 674/1168/380 675/1170/381 762/1171/293
f 762/1171/293 675/1170/381 676/1172/292 763/1173/291
f 763/1173/291 676/1172/292 677/1174/125 764/1175/290
f 764/1175/290 677/1174/125 678/1176/127 765/1177/128
f 765/1177/128 678/1176/127 673/1178/129 760/1179/130
f 760/1179/130 673/1178/129 658/1180/203 745/1181/382
f 745/1181/382 658/1180/203 660/1139/288 747/1138/134
