# Blender v3.6.0 OBJ File: 'AllModules_Unreal.blend'
# www.blender.org
mtllib TopPlates_Straight.mtl
o TopPlates_Straight_Plane.155
v -2.000000 3.000000 2.000000
v -2.000000 3.000000 -2.000000
v -2.000000 5.000000 2.000000
v -2.000000 5.000000 -2.000000
v -2.000000 3.119245 1.880755
v -2.000000 3.119245 -1.880755
v -2.000000 4.880755 1.880755
v -2.000000 4.880754 -1.880755
v -1.893386 4.589915 0.000000
v -2.023318 4.784582 1.771191
v -2.023318 4.870196 1.688010
v -1.893385 4.787656 1.622417
v -1.893385 4.708451 1.701907
v -2.023318 4.870196 1.298568
v -2.023318 4.870196 1.250984
v -2.023318 4.809548 1.298568
v -2.023318 4.809548 1.250984
v -1.893386 4.734531 1.213116
v -1.893386 4.734531 1.279558
v -1.893386 4.787656 1.213116
v -1.893386 4.787656 1.279558
v -1.893386 3.956148 1.213116
v -1.893386 4.787656 0.322305
v -2.023319 4.870196 0.307826
v -1.893386 4.589915 0.322305
v -1.893386 4.589915 0.000000
v -2.023319 4.870196 0.000000
v -1.893386 4.787656 0.000000
v -2.022254 4.650854 1.723476
v -2.022254 3.956148 1.723476
v -1.929076 4.595354 1.660552
v -1.929077 3.956148 1.660552
v -1.929076 4.573248 1.568292
v -1.929077 3.956148 1.568292
v -1.935957 3.956149 0.000000
v -1.935956 4.535365 0.000000
v -1.935956 3.956148 1.194515
v -1.935956 4.535365 0.404906
v -1.935956 3.956148 0.411049
v -1.893386 4.410115 1.213116
v -1.893386 4.508746 1.113526
v -1.893386 4.573503 1.213117
v -1.893386 4.515999 1.286027
v -1.893386 4.437937 1.208242
v -1.893386 4.464035 1.194096
v -1.893386 4.485855 1.172064
v -1.893386 4.501262 1.144302
v -1.935956 4.464758 1.093167
v -1.935956 4.364386 1.194515
v -1.935956 4.457142 1.124485
v -1.935956 4.441463 1.152738
v -1.935956 4.419258 1.175159
v -1.935956 4.392699 1.189555
v -2.023052 4.668124 1.759254
v -2.023318 4.683569 1.771191
v -2.023240 4.675035 1.767695
v -1.902179 4.610646 1.691717
v -1.893385 4.624607 1.701907
v -1.895961 4.616806 1.698922
v -1.893385 4.584262 1.533512
v -1.903141 4.576272 1.549421
v -1.896243 4.579083 1.541821
v -1.893386 3.956148 1.533512
v -1.903200 3.956148 1.549464
v -1.896260 3.956148 1.541834
v -2.023319 4.784582 -1.771191
v -2.023319 4.870196 -1.688009
v -1.893386 4.787656 -1.622417
v -1.893386 4.708452 -1.701906
v -2.023319 4.870197 -1.298567
v -2.023319 4.870197 -1.250983
v -2.023319 4.809548 -1.298567
v -2.023319 4.809548 -1.250983
v -1.893386 4.734532 -1.213116
v -1.893386 4.734532 -1.279558
v -1.893386 4.787657 -1.213116
v -1.893386 4.787657 -1.279558
v -1.893386 3.956149 -1.213116
v -1.893386 4.787656 -0.322305
v -2.023319 4.870196 -0.307825
v -1.893386 4.589915 -0.322305
v -2.022255 4.650854 -1.723475
v -2.022255 3.956149 -1.723475
v -1.929077 4.595354 -1.660551
v -1.929077 3.956149 -1.660551
v -1.929077 4.573248 -1.568291
v -1.929077 3.956149 -1.568291
v -1.935956 3.956149 -1.194515
v -1.935956 4.535365 -0.404906
v -1.935956 3.956149 -0.411048
v -1.893386 4.410116 -1.213116
v -1.893386 4.508747 -1.113526
v -1.893386 4.573504 -1.213116
v -1.893386 4.516000 -1.286027
v -1.893386 4.437937 -1.208242
v -1.893386 4.464036 -1.194096
v -1.893386 4.485856 -1.172064
v -1.893386 4.501262 -1.144301
v -1.935956 4.464759 -1.093166
v -1.935956 4.364387 -1.194515
v -1.935956 4.457143 -1.124485
v -1.935956 4.441464 -1.152737
v -1.935956 4.419259 -1.175159
v -1.935956 4.392700 -1.189554
v -2.023052 4.668124 -1.759253
v -2.023319 4.683569 -1.771191
v -2.023241 4.675035 -1.767694
v -1.902180 4.610646 -1.691717
v -1.893386 4.624607 -1.701906
v -1.895962 4.616806 -1.698922
v -1.893386 4.584262 -1.533511
v -1.903141 4.576272 -1.549420
v -1.896243 4.579083 -1.541820
v -1.893386 3.956149 -1.533511
v -1.903201 3.956149 -1.549464
v -1.896261 3.956149 -1.541833
v -1.893386 3.322382 0.000000
v -2.023318 3.127715 1.771191
v -2.023318 3.042101 1.688009
v -1.893385 3.124641 1.622417
v -1.893385 3.203845 1.701907
v -2.023318 3.042101 1.298567
v -2.023318 3.042101 1.250983
v -2.023318 3.102749 1.298567
v -2.023318 3.102749 1.250984
v -1.893386 3.177765 1.213116
v -1.893386 3.177765 1.279558
v -1.893386 3.124641 1.213116
v -1.893386 3.124641 1.279558
v -1.893386 3.124641 0.322305
v -2.023319 3.042101 0.307825
v -1.893386 3.322382 0.322305
v -1.893386 3.322382 0.000000
v -2.023319 3.042101 -0.000000
v -1.893386 3.124641 -0.000000
v -2.022254 3.261443 1.723476
v -1.929076 3.316943 1.660551
v -1.929077 3.339049 1.568291
v -1.935957 3.376932 0.000000
v -1.935956 3.376932 0.404906
v -1.893386 3.502182 1.213116
v -1.893386 3.403551 1.113526
v -1.893386 3.338793 1.213116
v -1.893386 3.396298 1.286027
v -1.893386 3.474360 1.208242
v -1.893386 3.448262 1.194096
v -1.893386 3.426441 1.172064
v -1.893386 3.411035 1.144301
v -1.935956 3.447538 1.093167
v -1.935956 3.547911 1.194515
v -1.935956 3.455155 1.124485
v -1.935956 3.470833 1.152737
v -1.935956 3.493039 1.175159
v -1.935956 3.519598 1.189555
v -2.023052 3.244173 1.759254
v -2.023318 3.228728 1.771191
v -2.023240 3.237262 1.767695
v -1.902179 3.301651 1.691717
v -1.893385 3.287690 1.701907
v -1.895961 3.295491 1.698922
v -1.893385 3.328035 1.533511
v -1.903141 3.336025 1.549420
v -1.896243 3.333214 1.541821
v -2.023319 3.127715 -1.771191
v -2.023319 3.042101 -1.688009
v -1.893386 3.124641 -1.622417
v -1.893386 3.203846 -1.701907
v -2.023319 3.042101 -1.298567
v -2.023319 3.042101 -1.250983
v -2.023319 3.102749 -1.298567
v -2.023319 3.102749 -1.250984
v -1.893386 3.177766 -1.213116
v -1.893386 3.177766 -1.279558
v -1.893386 3.124641 -1.213116
v -1.893386 3.124641 -1.279558
v -1.893386 3.124641 -0.322305
v -2.023319 3.042101 -0.307825
v -1.893386 3.322382 -0.322305
v -2.022255 3.261444 -1.723476
v -1.929077 3.316944 -1.660552
v -1.929077 3.339050 -1.568292
v -1.935956 3.376932 -0.404906
v -1.893386 3.502182 -1.213116
v -1.893386 3.403551 -1.113526
v -1.893386 3.338794 -1.213116
v -1.893386 3.396298 -1.286027
v -1.893386 3.474360 -1.208242
v -1.893386 3.448262 -1.194096
v -1.893386 3.426442 -1.172064
v -1.893386 3.411036 -1.144301
v -1.935956 3.447539 -1.093167
v -1.935956 3.547911 -1.194515
v -1.935956 3.455155 -1.124485
v -1.935956 3.470834 -1.152737
v -1.935956 3.493039 -1.175159
v -1.935956 3.519598 -1.189555
v -2.023052 3.244173 -1.759254
v -2.023319 3.228729 -1.771191
v -2.023241 3.237263 -1.767695
v -1.902180 3.301652 -1.691717
v -1.893386 3.287691 -1.701907
v -1.895962 3.295492 -1.698922
v -1.893386 3.328035 -1.533512
v -1.903141 3.336026 -1.549421
v -1.896243 3.333215 -1.541821
vt 0.197094 0.110393
vt 0.810314 0.110393
vt 0.829754 0.086871
vt 0.177654 0.086871
vt 0.810314 0.457870
vt 0.197094 0.457870
vt 0.177654 0.481392
vt 0.829754 0.481392
vt 0.279242 0.915501
vt 0.259033 0.920383
vt 0.263459 0.918212
vt 0.276562 0.915072
vt 0.556888 0.837051
vt 0.566405 0.853538
vt 0.512215 0.853782
vt 0.501350 0.834961
vt 0.442485 0.908068
vt 0.347983 0.898374
vt 0.343683 0.897328
vt 0.339804 0.895175
vt 0.336725 0.892126
vt 0.334748 0.888479
vt 0.334067 0.884592
vt 0.334067 0.825627
vt 0.441642 0.825627
vt 0.541085 0.889065
vt 0.523641 0.882410
vt 0.523159 0.853097
vt 0.537638 0.858621
vt 0.451798 0.912647
vt 0.343158 0.901502
vt 0.281501 0.916636
vt 0.317569 0.937978
vt 0.317569 0.945523
vt 0.268875 0.945523
vt 0.257585 0.934274
vt 0.257585 0.922366
vt 0.612060 0.823311
vt 0.624145 0.849306
vt 0.563086 0.887422
vt 0.558304 0.856868
vt 0.567449 0.890057
vt 0.398674 0.883704
vt 0.406487 0.856413
vt 0.565895 0.862414
vt 0.316650 0.906941
vt 0.327005 0.915109
vt 0.327005 0.937978
vt 0.279236 0.827430
vt 0.276562 0.827430
vt 0.329484 0.887959
vt 0.329484 0.825627
vt 0.400042 0.849415
vt 0.391316 0.875715
vt 0.453521 0.945523
vt 0.327005 0.945523
vt 0.569504 0.877143
vt 0.514434 0.870687
vt 0.496052 0.912647
vt 0.496052 0.908068
vt 0.453521 0.917439
vt 0.499295 0.917439
vt 0.499295 0.945523
vt 0.623570 0.864585
vt 0.622533 0.892131
vt 0.514423 0.876295
vt 0.392850 0.834987
vt 0.399535 0.815311
vt 0.511396 0.853319
vt 0.519490 0.852704
vt 0.520518 0.880394
vt 0.263459 0.827430
vt 0.496052 0.825627
vt 0.341149 0.905911
vt 0.327005 0.891904
vt 0.327697 0.895855
vt 0.329706 0.899561
vt 0.332835 0.902660
vt 0.336778 0.904848
vt 0.330153 0.891779
vt 0.332095 0.895363
vt 0.335121 0.898359
vt 0.338933 0.900474
vt 0.281501 0.827430
vt 0.327005 0.827430
vt 0.521585 0.852736
vt 0.522167 0.881554
vt 0.280320 0.827430
vt 0.280321 0.915901
vt 0.258009 0.921258
vt 0.279242 0.915501
vt 0.276562 0.915072
vt 0.263459 0.918212
vt 0.259033 0.920383
vt 0.556888 0.837051
vt 0.501350 0.834961
vt 0.512215 0.853782
vt 0.566405 0.853538
vt 0.442485 0.908068
vt 0.441642 0.825627
vt 0.334067 0.825627
vt 0.334067 0.884592
vt 0.334748 0.888479
vt 0.336725 0.892126
vt 0.339804 0.895175
vt 0.343683 0.897328
vt 0.347983 0.898374
vt 0.541085 0.889065
vt 0.537638 0.858621
vt 0.523159 0.853097
vt 0.523641 0.882410
vt 0.451798 0.912647
vt 0.343158 0.901502
vt 0.281501 0.916636
vt 0.257585 0.922366
vt 0.257585 0.934274
vt 0.268875 0.945523
vt 0.317569 0.945523
vt 0.317569 0.937978
vt 0.612060 0.823311
vt 0.558304 0.856868
vt 0.563086 0.887422
vt 0.624145 0.849306
vt 0.567449 0.890057
vt 0.565895 0.862414
vt 0.406487 0.856413
vt 0.398674 0.883704
vt 0.327005 0.937978
vt 0.327005 0.915109
vt 0.316650 0.906941
vt 0.279236 0.827430
vt 0.276562 0.827430
vt 0.329484 0.887959
vt 0.329484 0.825627
vt 0.400042 0.849415
vt 0.391316 0.875715
vt 0.453521 0.945523
vt 0.327005 0.945523
vt 0.514434 0.870687
vt 0.569504 0.877143
vt 0.453521 0.917439
vt 0.514423 0.876295
vt 0.511396 0.853319
vt 0.399535 0.815311
vt 0.392850 0.834987
vt 0.519490 0.852704
vt 0.520518 0.880394
vt 0.263459 0.827430
vt 0.341149 0.905911
vt 0.327005 0.891904
vt 0.336778 0.904848
vt 0.332835 0.902660
vt 0.329706 0.899561
vt 0.327697 0.895855
vt 0.330153 0.891779
vt 0.332095 0.895363
vt 0.335121 0.898359
vt 0.338933 0.900474
vt 0.327005 0.827430
vt 0.281501 0.827430
vt 0.522167 0.881554
vt 0.521585 0.852736
vt 0.280321 0.915901
vt 0.280320 0.827430
vt 0.258009 0.921258
vt 0.279242 0.915501
vt 0.276562 0.915072
vt 0.263459 0.918212
vt 0.259033 0.920383
vt 0.556888 0.837051
vt 0.501350 0.834961
vt 0.512215 0.853782
vt 0.566405 0.853538
vt 0.442485 0.908068
vt 0.334067 0.884592
vt 0.334748 0.888479
vt 0.336725 0.892126
vt 0.339804 0.895175
vt 0.343683 0.897328
vt 0.347983 0.898374
vt 0.541085 0.889065
vt 0.537638 0.858621
vt 0.523159 0.853097
vt 0.523641 0.882410
vt 0.451798 0.912647
vt 0.343158 0.901502
vt 0.281501 0.916636
vt 0.257585 0.922366
vt 0.257585 0.934274
vt 0.268875 0.945523
vt 0.317569 0.945523
vt 0.317569 0.937978
vt 0.612060 0.823311
vt 0.558304 0.856868
vt 0.563086 0.887422
vt 0.624145 0.849306
vt 0.567449 0.890057
vt 0.565895 0.862414
vt 0.406487 0.856413
vt 0.398674 0.883704
vt 0.327005 0.937978
vt 0.327005 0.915109
vt 0.316650 0.906941
vt 0.329484 0.887959
vt 0.400042 0.849415
vt 0.391316 0.875715
vt 0.453521 0.945523
vt 0.327005 0.945523
vt 0.514434 0.870687
vt 0.569504 0.877143
vt 0.496052 0.912647
vt 0.496052 0.908068
vt 0.499295 0.945523
vt 0.499295 0.917439
vt 0.453521 0.917439
vt 0.622533 0.892131
vt 0.623570 0.864585
vt 0.514423 0.876295
vt 0.511396 0.853319
vt 0.519490 0.852704
vt 0.520518 0.880394
vt 0.341149 0.905911
vt 0.327005 0.891904
vt 0.336778 0.904848
vt 0.332835 0.902660
vt 0.329706 0.899561
vt 0.327697 0.895855
vt 0.330153 0.891779
vt 0.332095 0.895363
vt 0.335121 0.898359
vt 0.338933 0.900474
vt 0.522167 0.881554
vt 0.521585 0.852736
vt 0.280321 0.915901
vt 0.258009 0.921258
vt 0.279242 0.915501
vt 0.259033 0.920383
vt 0.263459 0.918212
vt 0.276562 0.915072
vt 0.556888 0.837051
vt 0.566405 0.853538
vt 0.512215 0.853782
vt 0.501350 0.834961
vt 0.442485 0.908068
vt 0.347983 0.898374
vt 0.343683 0.897328
vt 0.339804 0.895175
vt 0.336725 0.892126
vt 0.334748 0.888479
vt 0.334067 0.884592
vt 0.541085 0.889065
vt 0.523641 0.882410
vt 0.523159 0.853097
vt 0.537638 0.858621
vt 0.451798 0.912647
vt 0.343158 0.901502
vt 0.281501 0.916636
vt 0.317569 0.937978
vt 0.317569 0.945523
vt 0.268875 0.945523
vt 0.257585 0.934274
vt 0.257585 0.922366
vt 0.612060 0.823311
vt 0.624145 0.849306
vt 0.563086 0.887422
vt 0.558304 0.856868
vt 0.567449 0.890057
vt 0.398674 0.883704
vt 0.406487 0.856413
vt 0.565895 0.862414
vt 0.316650 0.906941
vt 0.327005 0.915109
vt 0.327005 0.937978
vt 0.329484 0.887959
vt 0.400042 0.849415
vt 0.391316 0.875715
vt 0.453521 0.945523
vt 0.327005 0.945523
vt 0.569504 0.877143
vt 0.514434 0.870687
vt 0.453521 0.917439
vt 0.514423 0.876295
vt 0.511396 0.853319
vt 0.519490 0.852704
vt 0.520518 0.880394
vt 0.341149 0.905911
vt 0.327005 0.891904
vt 0.327697 0.895855
vt 0.329706 0.899561
vt 0.332835 0.902660
vt 0.336778 0.904848
vt 0.330153 0.891779
vt 0.332095 0.895363
vt 0.335121 0.898359
vt 0.338933 0.900474
vt 0.521585 0.852736
vt 0.522167 0.881554
vt 0.280321 0.915901
vt 0.258009 0.921258
vn 1.0000 0.0000 -0.0000
vn 0.4752 -0.8559 0.2041
vn 0.2237 -0.8857 0.4068
vn 0.1101 -0.9365 0.3330
vn 0.2722 -0.9357 0.2242
vn -0.1448 -0.0000 -0.9895
vn 0.5935 0.3453 0.7270
vn 0.4173 -0.1378 0.8983
vn 0.3702 -0.2414 0.8970
vn 0.5672 0.2494 0.7849
vn 0.7778 -0.6283 -0.0141
vn 0.7405 -0.6614 -0.1194
vn 0.7389 -0.6650 -0.1083
vn 0.7455 -0.6643 -0.0545
vn 0.9967 -0.0472 0.0653
vn 0.9912 -0.1286 0.0306
vn 0.5362 0.8441 0.0000
vn 0.6169 0.7152 0.3286
vn 0.6072 0.7486 0.2662
vn 0.5883 -0.0000 0.8086
vn 0.4943 -0.1093 -0.8624
vn 0.4004 0.0000 -0.9163
vn 0.4359 -0.0400 -0.8991
vn 0.2798 0.0000 0.9601
vn 0.5000 0.8660 0.0000
vn 0.7884 -0.6152 -0.0000
vn 0.5597 -0.0000 0.8287
vn -0.0515 -0.7998 0.5981
vn -0.1610 -0.8614 0.4818
vn 0.5760 -0.2164 -0.7882
vn 0.6300 -0.2963 -0.7179
vn 0.6938 -0.4088 -0.5930
vn 0.7090 -0.4415 -0.5499
vn 0.7406 -0.5307 -0.4122
vn 0.7430 -0.5409 -0.3942
vn 0.7502 -0.6167 -0.2386
vn 0.7503 -0.6150 -0.2425
vn 0.1335 -0.6188 0.7741
vn 0.2063 -0.5221 0.8276
vn 0.7401 -0.0000 0.6725
vn 0.8604 -0.0000 0.5096
vn 0.9152 -0.2511 0.3151
vn 0.9454 -0.0000 0.3258
vn 0.8660 -0.4866 0.1157
vn 0.4752 -0.8559 -0.2041
vn 0.2722 -0.9357 -0.2242
vn 0.1101 -0.9365 -0.3330
vn 0.2237 -0.8857 -0.4068
vn -0.1448 -0.0000 0.9895
vn 0.5935 0.3453 -0.7270
vn 0.5672 0.2494 -0.7849
vn 0.3702 -0.2414 -0.8970
vn 0.4173 -0.1378 -0.8983
vn 0.7778 -0.6283 0.0141
vn 0.7455 -0.6643 0.0545
vn 0.7389 -0.6650 0.1083
vn 0.7405 -0.6614 0.1194
vn 0.9967 -0.0472 -0.0653
vn 0.9912 -0.1286 -0.0306
vn 0.6072 0.7486 -0.2662
vn 0.6169 0.7152 -0.3286
vn 0.5883 0.0000 -0.8086
vn 0.4943 -0.1093 0.8624
vn 0.4359 -0.0400 0.8991
vn 0.4004 -0.0000 0.9163
vn 0.2798 0.0000 -0.9601
vn 0.5597 -0.0000 -0.8287
vn -0.1610 -0.8614 -0.4818
vn -0.0515 -0.7997 -0.5981
vn 0.6300 -0.2963 0.7179
vn 0.5760 -0.2165 0.7882
vn 0.7090 -0.4415 0.5499
vn 0.6938 -0.4088 0.5930
vn 0.7430 -0.5409 0.3942
vn 0.7406 -0.5307 0.4122
vn 0.7503 -0.6150 0.2424
vn 0.7502 -0.6167 0.2386
vn 0.2063 -0.5221 -0.8275
vn 0.1336 -0.6188 -0.7742
vn 0.7401 -0.0000 -0.6725
vn 0.9152 -0.2511 -0.3151
vn 0.8604 0.0000 -0.5096
vn 0.9454 -0.0000 -0.3258
vn 0.8660 -0.4866 -0.1157
vn 0.4752 0.8559 0.2041
vn 0.2722 0.9357 0.2242
vn 0.1101 0.9365 0.3330
vn 0.2237 0.8857 0.4068
vn 0.5935 -0.3453 0.7270
vn 0.5672 -0.2494 0.7849
vn 0.3702 0.2414 0.8970
vn 0.4173 0.1378 0.8983
vn 0.7778 0.6283 -0.0141
vn 0.7455 0.6643 -0.0545
vn 0.7389 0.6650 -0.1083
vn 0.7405 0.6614 -0.1194
vn 0.9967 0.0472 0.0653
vn 0.9912 0.1286 0.0306
vn 0.5362 -0.8441 -0.0000
vn 0.6072 -0.7486 0.2662
vn 0.6169 -0.7152 0.3286
vn 0.4943 0.1093 -0.8624
vn 0.4359 0.0400 -0.8991
vn 0.5000 -0.8660 0.0000
vn 0.7884 0.6152 -0.0000
vn -0.1610 0.8614 0.4818
vn -0.0515 0.7997 0.5981
vn 0.6300 0.2963 -0.7179
vn 0.5760 0.2165 -0.7882
vn 0.7090 0.4415 -0.5499
vn 0.6938 0.4088 -0.5930
vn 0.7430 0.5409 -0.3942
vn 0.7406 0.5307 -0.4122
vn 0.7503 0.6150 -0.2424
vn 0.7502 0.6167 -0.2386
vn 0.2063 0.5221 0.8276
vn 0.1336 0.6187 0.7742
vn 0.9152 0.2511 0.3151
vn 0.8660 0.4866 0.1157
vn 0.4752 0.8559 -0.2041
vn 0.2237 0.8857 -0.4068
vn 0.1101 0.9365 -0.3330
vn 0.2722 0.9357 -0.2242
vn 0.5935 -0.3453 -0.7270
vn 0.4173 0.1378 -0.8983
vn 0.3702 0.2414 -0.8970
vn 0.5672 -0.2494 -0.7849
vn 0.7778 0.6283 0.0141
vn 0.7405 0.6614 0.1194
vn 0.7389 0.6650 0.1083
vn 0.7455 0.6643 0.0545
vn 0.9967 0.0472 -0.0653
vn 0.9912 0.1286 -0.0306
vn 0.6169 -0.7152 -0.3286
vn 0.6072 -0.7486 -0.2662
vn 0.4943 0.1093 0.8624
vn 0.4359 0.0400 0.8991
vn 0.5596 0.0000 -0.8287
vn -0.0515 0.7997 -0.5981
vn -0.1610 0.8614 -0.4818
vn 0.5760 0.2164 0.7882
vn 0.6300 0.2963 0.7179
vn 0.6938 0.4088 0.5930
vn 0.7090 0.4415 0.5499
vn 0.7406 0.5307 0.4122
vn 0.7430 0.5409 0.3942
vn 0.7502 0.6167 0.2386
vn 0.7503 0.6150 0.2425
vn 0.1336 0.6187 -0.7742
vn 0.2063 0.5221 -0.8276
vn 0.9152 0.2512 -0.3151
vn 0.8659 0.4866 -0.1157
usemtl MI_Trim_01
s off
f 6/1/1 5/2/1 1/3/1 2/4/1
f 7/5/1 8/6/1 4/7/1 3/8/1
f 6/1/1 8/6/1 7/5/1 5/2/1
f 8/6/1 6/1/1 2/4/1 4/7/1
f 5/2/1 7/5/1 3/8/1 1/3/1
s 1
f 61/9/2 57/10/3 31/11/4 33/12/5
f 21/13/6 19/14/6 16/15/6 14/16/6
f 38/17/1 48/18/1 50/19/1 51/20/1 52/21/1 53/22/1 49/23/1 37/24/1 39/25/1
f 10/26/7 55/27/8 58/28/9 13/29/10
f 25/30/11 41/31/12 48/18/13 38/17/14
f 60/32/15 19/33/1 21/34/1 12/35/1 13/36/1 58/37/16
f 21/38/17 14/39/17 11/40/18 12/41/19
f 10/26/7 13/29/10 12/41/19 11/40/18
f 24/42/17 15/43/17 20/44/17 23/45/17
f 19/33/1 60/32/15 43/46/1 42/47/1 18/48/1
f 64/49/20 61/9/20 33/12/20 34/50/20
f 40/51/21 22/52/22 37/24/22 49/23/23
f 18/53/24 20/44/24 15/43/24 17/54/24
f 23/55/1 20/56/1 18/48/1
f 19/14/25 18/57/25 17/58/25 16/15/25
f 9/59/26 25/30/11 38/17/14 36/60/26
f 23/55/1 25/61/1 26/62/1 28/63/1
f 24/42/17 23/45/17 28/64/17 27/65/17
f 29/66/27 30/67/27 32/68/27 31/69/27
f 57/70/3 54/71/28 29/66/29 31/69/4
f 31/11/1 32/72/1 34/50/1 33/12/1
f 36/60/1 38/17/1 39/25/1 35/73/1
f 23/55/1 18/48/1 42/47/1 41/74/1 25/61/1
f 40/75/1 44/76/1 45/77/1 46/78/1 47/79/1 41/74/1 42/47/1 43/46/1
f 40/51/21 49/23/23 53/22/30 44/80/31
f 44/80/31 53/22/30 52/21/32 45/81/33
f 45/81/33 52/21/32 51/20/34 46/82/35
f 46/82/35 51/20/34 50/19/36 47/83/37
f 47/83/37 50/19/36 48/18/13 41/31/12
f 60/32/15 63/84/1 22/85/1 40/75/1 43/46/1
f 54/71/28 57/70/3 59/86/38 56/87/39
f 56/87/39 59/86/38 58/28/9 55/27/8
f 61/9/40 64/49/40 65/88/41 62/89/42
f 62/89/42 65/88/41 63/84/43 60/32/15
f 60/32/15 58/37/16 59/90/44 62/89/42
f 62/89/42 59/90/44 57/10/3 61/9/2
f 112/91/45 86/92/46 84/93/47 108/94/48
f 77/95/49 70/96/49 72/97/49 75/98/49
f 89/99/1 90/100/1 88/101/1 100/102/1 104/103/1 103/104/1 102/105/1 101/106/1 99/107/1
f 66/108/50 69/109/51 109/110/52 106/111/53
f 81/112/54 89/99/55 99/107/56 92/113/57
f 111/114/58 109/115/59 69/116/1 68/117/1 77/118/1 75/119/1
f 77/120/17 68/121/60 67/122/61 70/123/17
f 66/108/50 67/122/61 68/121/60 69/109/51
f 80/124/17 79/125/17 76/126/17 71/127/17
f 75/119/1 74/128/1 93/129/1 94/130/1 111/114/58
f 115/131/62 87/132/62 86/92/62 112/91/62
f 91/133/63 100/102/64 88/101/65 78/134/65
f 74/135/66 73/136/66 71/127/66 76/126/66
f 79/137/1 74/128/1 76/138/1
f 75/98/25 72/97/25 73/139/25 74/140/25
f 9/59/26 36/60/26 89/99/55 81/112/54
f 79/137/1 28/63/1 26/62/1 81/141/1
f 80/124/17 27/65/17 28/64/17 79/125/17
f 82/142/67 84/143/67 85/144/67 83/145/67
f 108/146/48 84/143/47 82/142/68 105/147/69
f 84/93/1 86/92/1 87/132/1 85/148/1
f 36/60/1 35/73/1 90/100/1 89/99/1
f 79/137/1 81/141/1 92/149/1 93/129/1 74/128/1
f 91/150/1 94/130/1 93/129/1 92/149/1 98/151/1 97/152/1 96/153/1 95/154/1
f 91/133/63 95/155/70 104/103/71 100/102/64
f 95/155/70 96/156/72 103/104/73 104/103/71
f 96/156/72 97/157/74 102/105/75 103/104/73
f 97/157/74 98/158/76 101/106/77 102/105/75
f 98/158/76 92/113/57 99/107/56 101/106/77
f 111/114/58 94/130/1 91/150/1 78/159/1 114/160/1
f 105/147/69 107/161/78 110/162/79 108/146/48
f 107/161/78 106/111/53 109/110/52 110/162/79
f 112/91/80 113/163/81 116/164/82 115/131/80
f 113/163/81 111/114/58 114/160/83 116/164/82
f 111/114/58 113/163/81 110/165/84 109/115/59
f 113/163/81 112/91/45 108/94/48 110/165/84
f 162/166/85 138/167/86 137/168/87 158/169/88
f 129/170/6 122/171/6 124/172/6 127/173/6
f 140/174/1 39/25/1 37/24/1 150/175/1 154/176/1 153/177/1 152/178/1 151/179/1 149/180/1
f 118/181/89 121/182/90 159/183/91 156/184/92
f 132/185/93 140/174/94 149/180/95 142/186/96
f 161/187/97 159/188/98 121/189/1 120/190/1 129/191/1 127/192/1
f 129/193/99 120/194/100 119/195/101 122/196/99
f 118/181/89 119/195/101 120/194/100 121/182/90
f 131/197/99 130/198/99 128/199/99 123/200/99
f 127/192/1 126/201/1 143/202/1 144/203/1 161/187/97
f 64/49/20 34/50/20 138/167/20 162/166/20
f 141/204/102 150/175/103 37/24/22 22/52/22
f 126/205/24 125/206/24 123/200/24 128/199/24
f 130/207/1 126/201/1 128/208/1
f 127/173/104 124/172/104 125/209/104 126/210/104
f 117/211/105 139/212/105 140/174/94 132/185/93
f 130/207/1 135/213/1 133/214/1 132/215/1
f 131/197/99 134/216/99 135/217/99 130/198/99
f 136/218/27 137/219/27 32/68/27 30/67/27
f 158/220/88 137/219/87 136/218/106 155/221/107
f 137/168/1 138/167/1 34/50/1 32/72/1
f 139/212/1 35/73/1 39/25/1 140/174/1
f 130/207/1 132/215/1 142/222/1 143/202/1 126/201/1
f 141/223/1 144/203/1 143/202/1 142/222/1 148/224/1 147/225/1 146/226/1 145/227/1
f 141/204/102 145/228/108 154/176/109 150/175/103
f 145/228/108 146/229/110 153/177/111 154/176/109
f 146/229/110 147/230/112 152/178/113 153/177/111
f 147/230/112 148/231/114 151/179/115 152/178/113
f 148/231/114 142/186/96 149/180/95 151/179/115
f 161/187/97 144/203/1 141/223/1 22/85/1 63/84/1
f 155/221/107 157/232/116 160/233/117 158/220/88
f 157/232/116 156/184/92 159/183/91 160/233/117
f 162/166/40 163/234/118 65/88/41 64/49/40
f 163/234/118 161/187/97 63/84/43 65/88/41
f 161/187/97 163/234/118 160/235/119 159/188/98
f 163/234/118 162/166/85 158/169/88 160/235/119
f 204/236/120 200/237/121 180/238/122 181/239/123
f 175/240/49 173/241/49 170/242/49 168/243/49
f 182/244/1 191/245/1 193/246/1 194/247/1 195/248/1 196/249/1 192/250/1 88/101/1 90/100/1
f 164/251/124 198/252/125 201/253/126 167/254/127
f 178/255/128 184/256/129 191/245/130 182/244/131
f 203/257/132 173/258/1 175/259/1 166/260/1 167/261/1 201/262/133
f 175/263/99 168/264/99 165/265/134 166/266/135
f 164/251/124 167/254/127 166/266/135 165/265/134
f 177/267/99 169/268/99 174/269/99 176/270/99
f 173/258/1 203/257/132 186/271/1 185/272/1 172/273/1
f 115/131/62 204/236/62 181/239/62 87/132/62
f 183/274/136 78/134/65 88/101/65 192/250/137
f 172/275/66 174/269/66 169/268/66 171/276/66
f 176/277/1 174/278/1 172/273/1
f 173/241/104 172/279/104 171/280/104 170/242/104
f 117/211/105 178/255/128 182/244/131 139/212/105
f 176/277/1 178/281/1 133/214/1 135/213/1
f 177/267/99 176/270/99 135/217/99 134/216/99
f 179/282/138 83/145/67 85/144/67 180/283/138
f 200/284/121 197/285/139 179/282/140 180/283/122
f 180/238/1 85/148/1 87/132/1 181/239/1
f 139/212/1 182/244/1 90/100/1 35/73/1
f 176/277/1 172/273/1 185/272/1 184/286/1 178/281/1
f 183/287/1 187/288/1 188/289/1 189/290/1 190/291/1 184/286/1 185/272/1 186/271/1
f 183/274/136 192/250/137 196/249/141 187/292/142
f 187/292/142 196/249/141 195/248/143 188/293/144
f 188/293/144 195/248/143 194/247/145 189/294/146
f 189/294/146 194/247/145 193/246/147 190/295/148
f 190/295/148 193/246/147 191/245/130 184/256/129
f 203/257/132 114/160/1 78/159/1 183/287/1 186/271/1
f 197/285/139 200/284/121 202/296/149 199/297/150
f 199/297/150 202/296/149 201/253/126 198/252/125
f 204/236/80 115/131/80 116/164/82 205/298/151
f 205/298/151 116/164/82 114/160/83 203/257/132
f 203/257/132 201/262/133 202/299/152 205/298/151
f 205/298/151 202/299/152 200/237/121 204/236/120
