# Blender v3.6.0 OBJ File: 'AllModules_Unreal.blend'
# www.blender.org
mtllib TopPlates_Corner_Round_Inner.mtl
o TopPlates_Corner_Round_Inner_Plane.249
v -2.828180 3.000000 -2.828195
v 0.000001 3.000000 -4.000000
v -2.828180 5.000000 -2.828195
v 0.000002 5.000000 -4.000000
v -2.757925 3.119245 -2.890037
v -0.093385 3.119246 -3.993714
v -2.757925 4.880755 -2.890037
v -0.093384 4.880756 -3.993714
v -1.489613 4.589916 -3.596211
v -2.709108 4.784582 -2.964068
v -2.659817 4.870195 -3.007460
v -2.536095 4.787655 -2.943273
v -2.581682 4.708451 -2.903140
v -2.425970 4.870195 -3.206642
v -2.394846 4.870196 -3.227681
v -2.425969 4.809547 -3.206642
v -2.394846 4.809547 -3.227681
v -2.293372 4.734531 -3.139547
v -2.335470 4.734531 -3.111181
v -2.293372 4.787656 -3.139547
v -2.335470 4.787656 -3.111181
v -2.293372 3.956148 -3.139547
v -1.710950 4.787657 -3.488869
v -1.757993 4.870196 -3.610632
v -1.710950 4.589916 -3.488869
v -1.489613 4.589916 -3.596211
v -1.539347 4.870196 -3.716248
v -1.489613 4.787657 -3.596211
v -2.680123 4.650853 -2.988168
v -2.680123 3.956148 -2.988168
v -2.581470 4.595353 -2.950873
v -2.581470 3.956148 -2.950873
v -2.528084 4.573247 -2.997886
v -2.528082 3.956148 -2.997887
v -1.505907 3.956149 -3.635540
v -1.505907 4.535365 -3.635540
v -2.306592 3.956148 -3.181943
v -1.786723 4.535365 -3.498466
v -1.790962 3.956149 -3.496340
v -2.293372 4.410115 -3.139547
v -2.230289 4.508746 -3.182092
v -2.293372 4.573503 -3.139547
v -2.339569 4.515999 -3.108420
v -2.290283 4.437937 -3.141629
v -2.281322 4.464036 -3.147670
v -2.267366 4.485855 -3.157080
v -2.249781 4.501262 -3.168941
v -2.241713 4.464758 -3.225734
v -2.306594 4.364385 -3.181942
v -2.261761 4.457141 -3.212200
v -2.279846 4.441463 -3.199993
v -2.294202 4.419258 -3.190304
v -2.303418 4.392699 -3.184085
v -2.701854 4.668123 -2.970098
v -2.709107 4.683568 -2.964067
v -2.706983 4.675035 -2.965834
v -2.581669 4.610645 -2.914865
v -2.581681 4.624606 -2.903140
v -2.581680 4.616804 -2.906573
v -2.485126 4.584262 -2.988184
v -2.500510 4.576271 -2.987623
v -2.491720 4.579082 -2.986179
v -2.485126 3.956148 -2.988184
v -2.500573 3.956149 -2.987647
v -2.491740 3.956148 -2.986185
v -0.180224 4.784582 -4.011233
v -0.245740 4.870197 -4.006829
v -0.287895 4.787656 -3.873766
v -0.227286 4.708452 -3.877850
v -0.552360 4.870196 -3.985236
v -0.589170 4.870196 -3.977724
v -0.552360 4.809547 -3.985236
v -0.589170 4.809548 -3.977724
v -0.598663 4.734533 -3.843331
v -0.548951 4.734532 -3.853571
v -0.598663 4.787658 -3.843331
v -0.548951 4.787657 -3.853571
v -0.598663 3.956150 -3.843331
v -1.257009 4.787657 -3.676843
v -1.309787 4.870196 -3.796055
v -1.257009 4.589916 -3.676843
v -0.217750 4.650855 -4.007645
v -0.217748 3.956149 -4.007646
v -0.261167 4.595353 -3.911336
v -0.261167 3.956149 -3.911336
v -0.332152 4.573249 -3.906568
v -0.332152 3.956149 -3.906568
v -0.619221 3.956149 -3.882516
v -1.210515 4.535365 -3.738079
v -1.206035 3.956149 -3.739638
v -0.598663 4.410116 -3.843330
v -0.673180 4.508747 -3.828015
v -0.598663 4.573505 -3.843331
v -0.544112 4.516000 -3.854569
v -0.602308 4.437938 -3.842580
v -0.612894 4.464036 -3.840402
v -0.629380 4.485856 -3.837012
v -0.650153 4.501262 -3.832743
v -0.695895 4.464759 -3.866796
v -0.619221 4.364386 -3.882516
v -0.672201 4.457143 -3.871652
v -0.650828 4.441464 -3.876033
v -0.633865 4.419259 -3.879511
v -0.622975 4.392700 -3.881746
v -0.189613 4.668124 -4.010336
v -0.180224 4.683569 -4.011233
v -0.182972 4.675035 -4.010971
v -0.235581 4.610647 -3.886103
v -0.227286 4.624606 -3.877850
v -0.229712 4.616807 -3.880267
v -0.355687 4.584263 -3.869230
v -0.344408 4.576272 -3.879758
v -0.349606 4.579083 -3.872499
v -0.355687 3.956149 -3.869231
v -0.344380 3.956149 -3.879820
v -0.349598 3.956149 -3.872517
v -1.489613 3.322382 -3.596211
v -2.709107 3.127715 -2.964067
v -2.659817 3.042100 -3.007460
v -2.536093 3.124640 -2.943274
v -2.581681 3.203845 -2.903140
v -2.425970 3.042100 -3.206642
v -2.394846 3.042101 -3.227681
v -2.425970 3.102748 -3.206643
v -2.394846 3.102749 -3.227681
v -2.293372 3.177765 -3.139547
v -2.335469 3.177765 -3.111182
v -2.293372 3.124641 -3.139547
v -2.335469 3.124640 -3.111182
v -1.710949 3.124641 -3.488870
v -1.757993 3.042100 -3.610632
v -1.710949 3.322382 -3.488870
v -1.489613 3.322382 -3.596211
v -1.539346 3.042101 -3.716249
v -1.489613 3.124641 -3.596211
v -2.680122 3.261442 -2.988168
v -2.581470 3.316943 -2.950873
v -2.528082 3.339049 -2.997887
v -1.505907 3.376932 -3.635540
v -1.786723 3.376932 -3.498466
v -2.293372 3.502182 -3.139547
v -2.230289 3.403551 -3.182092
v -2.293372 3.338793 -3.139547
v -2.339569 3.396298 -3.108420
v -2.290282 3.474360 -3.141629
v -2.281322 3.448262 -3.147670
v -2.267364 3.426441 -3.157081
v -2.249781 3.411035 -3.168941
v -2.241713 3.447538 -3.225735
v -2.306592 3.547910 -3.181943
v -2.261761 3.455154 -3.212200
v -2.279846 3.470833 -3.199993
v -2.294200 3.493039 -3.190305
v -2.303418 3.519598 -3.184085
v -2.701854 3.244173 -2.970099
v -2.709107 3.228728 -2.964068
v -2.706983 3.237262 -2.965834
v -2.581670 3.301651 -2.914865
v -2.581682 3.287690 -2.903140
v -2.581679 3.295490 -2.906573
v -2.485126 3.328034 -2.988184
v -2.500510 3.336025 -2.987623
v -2.491720 3.333214 -2.986178
v -0.180224 3.127715 -4.011233
v -0.245740 3.042101 -4.006829
v -0.287895 3.124641 -3.873766
v -0.227286 3.203846 -3.877850
v -0.552361 3.042101 -3.985236
v -0.589170 3.042101 -3.977724
v -0.552361 3.102749 -3.985236
v -0.589168 3.102749 -3.977725
v -0.598663 3.177766 -3.843330
v -0.548951 3.177766 -3.853571
v -0.598663 3.124642 -3.843330
v -0.548951 3.124642 -3.853571
v -1.257009 3.124641 -3.676843
v -1.309788 3.042101 -3.796055
v -1.257009 3.322382 -3.676843
v -0.217748 3.261444 -4.007646
v -0.261167 3.316944 -3.911336
v -0.332152 3.339050 -3.906567
v -1.210514 3.376932 -3.738080
v -0.598663 3.502183 -3.843331
v -0.673180 3.403552 -3.828015
v -0.598663 3.338794 -3.843330
v -0.544113 3.396299 -3.854569
v -0.602309 3.474361 -3.842581
v -0.612894 3.448262 -3.840402
v -0.629380 3.426442 -3.837012
v -0.650153 3.411036 -3.832743
v -0.695895 3.447539 -3.866796
v -0.619221 3.547911 -3.882516
v -0.672201 3.455155 -3.871652
v -0.650828 3.470834 -3.876033
v -0.633865 3.493039 -3.879511
v -0.622975 3.519599 -3.881746
v -0.189613 3.244173 -4.010336
v -0.180224 3.228729 -4.011234
v -0.182972 3.237263 -4.010971
v -0.235581 3.301652 -3.886103
v -0.227286 3.287691 -3.877850
v -0.229710 3.295492 -3.880267
v -0.355687 3.328036 -3.869231
v -0.344408 3.336026 -3.879758
v -0.349606 3.333215 -3.872499
v -2.158408 4.787656 -3.230631
v -2.182082 4.474317 -3.266011
v -2.217697 3.000000 -3.319239
v -2.158408 3.124640 -3.230631
v -2.158410 3.391905 -3.230630
v -2.217697 5.000000 -3.319239
v -2.230665 3.042101 -3.338619
v -2.182082 3.437980 -3.266011
v -2.158408 4.747241 -3.230631
v -2.217697 3.119245 -3.319239
v -2.158408 3.165056 -3.230631
v -2.217697 4.880755 -3.319239
v -2.182082 3.956149 -3.266011
v -2.158408 4.520393 -3.230631
v -2.230665 4.870196 -3.338619
v -2.465920 3.956148 -3.005119
v -2.465920 4.787656 -3.005119
v -2.548393 4.870196 -3.105521
v -2.533593 3.000000 -3.087503
v -2.465920 3.124640 -3.005119
v -2.533593 3.119245 -3.087503
v -2.548393 3.042100 -3.105521
v -2.533593 4.880755 -3.087503
v -2.533592 5.000000 -3.087503
v -2.465920 3.308204 -3.005119
v -2.465920 4.604092 -3.005119
v -2.465920 4.575017 -3.005119
v -2.465920 3.337278 -3.005119
v -0.758133 3.165057 -3.810605
v -0.766384 3.956150 -3.852368
v -0.758133 4.520393 -3.810605
v -0.758133 3.124641 -3.810605
v -0.766384 3.437981 -3.852368
v -0.778796 3.000000 -3.915198
v -0.766384 4.474317 -3.852368
v -0.758133 4.747242 -3.810605
v -0.778796 5.000001 -3.915198
v -0.758133 4.787657 -3.810605
v -0.778796 3.119245 -3.915198
v -0.783316 3.042101 -3.938074
v -0.778797 4.880755 -3.915198
v -0.758133 3.391905 -3.810605
v -0.783316 4.870197 -3.938075
v -0.381241 4.787657 -3.867529
v -0.381241 4.604092 -3.867529
v -0.393825 4.870197 -3.996851
v -0.381241 4.575020 -3.867529
v -0.391566 3.000000 -3.973643
v -0.381240 3.956149 -3.867529
v -0.391566 5.000000 -3.973642
v -0.391566 3.119245 -3.973642
v -0.381241 3.308206 -3.867529
v -0.391566 4.880755 -3.973642
v -0.381241 3.124641 -3.867529
v -0.381241 3.337278 -3.867529
v -0.393825 3.042101 -3.996851
v -1.530420 3.000000 -3.694706
v -1.530420 5.000000 -3.694706
v -1.530420 3.119245 -3.694706
v -1.530420 4.880755 -3.694706
v -1.882587 3.000000 -3.522007
v -1.882587 5.000000 -3.522007
v -1.882587 3.119245 -3.522007
v -1.882587 4.880755 -3.522007
v -1.159708 3.000000 -3.823517
v -1.159708 5.000001 -3.823517
v -1.159708 3.119245 -3.823517
v -1.159708 4.880755 -3.823517
v -4.000001 3.000000 -0.000022
v -4.000001 5.000000 -0.000020
v -3.993714 3.119245 -0.093406
v -2.890024 3.119245 -2.757940
v -3.993714 4.880754 -0.093406
v -2.890024 4.880754 -2.757940
v -3.596206 4.589915 -1.489633
v -4.011233 4.784582 -0.180246
v -4.006828 4.870195 -0.245762
v -3.873767 4.787655 -0.287917
v -3.877850 4.708450 -0.227306
v -3.985233 4.870196 -0.552382
v -3.977722 4.870195 -0.589190
v -3.985233 4.809548 -0.552382
v -3.977722 4.809547 -0.589190
v -3.843328 4.734530 -0.598684
v -3.853569 4.734531 -0.548971
v -3.843328 4.787655 -0.598684
v -3.853569 4.787655 -0.548971
v -3.843328 3.956148 -0.598684
v -3.676837 4.787656 -1.257029
v -3.796049 4.870196 -1.309808
v -3.676837 4.589915 -1.257029
v -3.596206 4.589915 -1.489633
v -3.716244 4.870195 -1.539367
v -3.596206 4.787656 -1.489633
v -4.007646 4.650853 -0.217772
v -4.007645 3.956148 -0.217772
v -3.911337 4.595353 -0.261188
v -3.911337 3.956148 -0.261188
v -3.906568 4.573247 -0.332173
v -3.906568 3.956148 -0.332173
v -3.635533 3.956149 -1.505929
v -3.635534 4.535365 -1.505927
v -3.882513 3.956149 -0.619242
v -3.738073 4.535365 -1.210536
v -3.739632 3.956148 -1.206055
v -3.843328 4.410114 -0.598684
v -3.828012 4.508746 -0.673201
v -3.843328 4.573503 -0.598684
v -3.854566 4.515998 -0.544133
v -3.842577 4.437937 -0.602329
v -3.840400 4.464035 -0.612915
v -3.837010 4.485855 -0.629399
v -3.832741 4.501261 -0.650172
v -3.866794 4.464758 -0.695916
v -3.882513 4.364387 -0.619242
v -3.871649 4.457142 -0.672222
v -3.876029 4.441463 -0.650849
v -3.879509 4.419258 -0.633886
v -3.881743 4.392699 -0.622996
v -4.010336 4.668123 -0.189635
v -4.011233 4.683568 -0.180246
v -4.010971 4.675035 -0.182994
v -3.886103 4.610646 -0.235600
v -3.877850 4.624606 -0.227305
v -3.880267 4.616806 -0.229731
v -3.869231 4.584262 -0.355709
v -3.879758 4.576271 -0.344429
v -3.872500 4.579082 -0.349627
v -3.869231 3.956148 -0.355709
v -3.879820 3.956148 -0.344401
v -3.872518 3.956148 -0.349618
v -2.964054 4.784583 -2.709123
v -3.007447 4.870197 -2.659833
v -2.943260 4.787656 -2.536111
v -2.903128 4.708452 -2.581697
v -3.206631 4.870197 -2.425988
v -3.227669 4.870197 -2.394864
v -3.206631 4.809547 -2.425988
v -3.227669 4.809549 -2.394864
v -3.139536 4.734532 -2.293388
v -3.111171 4.734532 -2.335487
v -3.139536 4.787656 -2.293388
v -3.111171 4.787656 -2.335487
v -3.139537 3.956149 -2.293388
v -3.488861 4.787656 -1.710968
v -3.610624 4.870197 -1.758013
v -3.488861 4.589915 -1.710968
v -2.988154 4.650854 -2.680139
v -2.988154 3.956149 -2.680139
v -2.950861 4.595354 -2.581486
v -2.950860 3.956149 -2.581486
v -2.997874 4.573248 -2.528098
v -2.997874 3.956149 -2.528098
v -3.181932 3.956149 -2.306610
v -3.498458 4.535365 -1.786741
v -3.496330 3.956149 -1.790983
v -3.139537 4.410116 -2.293388
v -3.182081 4.508746 -2.230307
v -3.139536 4.573504 -2.293388
v -3.108410 4.515999 -2.339585
v -3.141617 4.437937 -2.290301
v -3.147659 4.464036 -2.281338
v -3.157069 4.485856 -2.267383
v -3.168930 4.501262 -2.249799
v -3.225724 4.464759 -2.241731
v -3.181932 4.364386 -2.306610
v -3.212189 4.457143 -2.261779
v -3.199981 4.441464 -2.279864
v -3.190294 4.419259 -2.294218
v -3.184075 4.392699 -2.303435
v -2.970086 4.668125 -2.701870
v -2.964054 4.683570 -2.709123
v -2.965821 4.675035 -2.706999
v -2.914853 4.610646 -2.581684
v -2.903127 4.624607 -2.581697
v -2.906560 4.616807 -2.581695
v -2.988171 4.584263 -2.485142
v -2.987610 4.576272 -2.500526
v -2.986166 4.579083 -2.491736
v -2.988171 3.956150 -2.485142
v -2.987635 3.956149 -2.500588
v -2.986172 3.956149 -2.491755
v -3.596205 3.322382 -1.489635
v -4.011233 3.127715 -0.180246
v -4.006828 3.042100 -0.245762
v -3.873767 3.124640 -0.287917
v -3.877850 3.203845 -0.227305
v -3.985232 3.042101 -0.552384
v -3.977722 3.042100 -0.589192
v -3.985232 3.102749 -0.552384
v -3.977722 3.102748 -0.589192
v -3.843328 3.177765 -0.598684
v -3.853568 3.177765 -0.548973
v -3.843328 3.124640 -0.598684
v -3.853568 3.124641 -0.548973
v -3.676836 3.124641 -1.257031
v -3.796049 3.042101 -1.309808
v -3.676836 3.322381 -1.257031
v -3.596205 3.322382 -1.489635
v -3.716243 3.042101 -1.539368
v -3.596205 3.124641 -1.489635
v -4.007646 3.261442 -0.217772
v -3.911336 3.316943 -0.261188
v -3.906568 3.339049 -0.332173
v -3.635533 3.376932 -1.505929
v -3.738073 3.376932 -1.210536
v -3.843328 3.502181 -0.598684
v -3.828012 3.403551 -0.673201
v -3.843328 3.338792 -0.598684
v -3.854566 3.396297 -0.544133
v -3.842577 3.474360 -0.602329
v -3.840400 3.448261 -0.612915
v -3.837010 3.426441 -0.629399
v -3.832740 3.411035 -0.650174
v -3.866794 3.447538 -0.695916
v -3.882513 3.547911 -0.619242
v -3.871649 3.455154 -0.672222
v -3.876029 3.470833 -0.650849
v -3.879509 3.493038 -0.633886
v -3.881743 3.519598 -0.622996
v -4.010336 3.244173 -0.189635
v -4.011233 3.228728 -0.180246
v -4.010971 3.237262 -0.182994
v -3.886103 3.301651 -0.235600
v -3.877850 3.287690 -0.227305
v -3.880268 3.295491 -0.229731
v -3.869231 3.328035 -0.355709
v -3.879758 3.336025 -0.344429
v -3.872499 3.333214 -0.349627
v -2.964054 3.127715 -2.709123
v -3.007447 3.042101 -2.659833
v -2.943260 3.124641 -2.536111
v -2.903127 3.203846 -2.581697
v -3.206631 3.042101 -2.425988
v -3.227669 3.042101 -2.394864
v -3.206631 3.102749 -2.425988
v -3.227669 3.102750 -2.394864
v -3.139537 3.177766 -2.293388
v -3.111171 3.177766 -2.335487
v -3.139537 3.124641 -2.293388
v -3.111171 3.124641 -2.335487
v -3.488861 3.124641 -1.710970
v -3.610623 3.042101 -1.758015
v -3.488861 3.322382 -1.710970
v -2.988154 3.261443 -2.680139
v -2.950860 3.316944 -2.581486
v -2.997873 3.339051 -2.528100
v -3.498458 3.376932 -1.786742
v -3.139537 3.502182 -2.293388
v -3.182080 3.403551 -2.230308
v -3.139537 3.338794 -2.293388
v -3.108410 3.396298 -2.339585
v -3.141617 3.474360 -2.290301
v -3.147659 3.448262 -2.281339
v -3.157069 3.426442 -2.267383
v -3.168930 3.411036 -2.249799
v -3.225724 3.447539 -2.241731
v -3.181931 3.547912 -2.306611
v -3.212189 3.455155 -2.261778
v -3.199981 3.470834 -2.279864
v -3.190294 3.493039 -2.294218
v -3.184075 3.519598 -2.303435
v -2.970084 3.244174 -2.701872
v -2.964054 3.228729 -2.709123
v -2.965821 3.237263 -2.706999
v -2.914852 3.301652 -2.581686
v -2.903128 3.287691 -2.581697
v -2.906560 3.295492 -2.581695
v -2.988171 3.328036 -2.485142
v -2.987611 3.336026 -2.500526
v -2.986166 3.333215 -2.491736
v -3.810601 4.787656 -0.758156
v -3.852365 4.474316 -0.766407
v -3.915195 3.000000 -0.778820
v -3.810601 3.124640 -0.758156
v -3.810602 3.391904 -0.758154
v -3.915194 5.000000 -0.778820
v -3.938071 3.042101 -0.783339
v -3.852365 3.437981 -0.766407
v -3.810602 4.747241 -0.758156
v -3.915195 3.119245 -0.778820
v -3.810601 3.165056 -0.758156
v -3.915194 4.880755 -0.778820
v -3.852365 3.956149 -0.766407
v -3.810601 4.520392 -0.758156
v -3.938071 4.870196 -0.783339
v -3.867529 3.956148 -0.381265
v -3.867529 4.787655 -0.381265
v -3.996851 4.870195 -0.393850
v -3.973642 3.000000 -0.391592
v -3.867529 3.124640 -0.381265
v -3.973642 3.119245 -0.391592
v -3.996851 3.042100 -0.393850
v -3.973642 4.880755 -0.391592
v -3.973642 5.000000 -0.391592
v -3.867529 3.308204 -0.381265
v -3.867529 4.604092 -0.381265
v -3.867529 4.575017 -0.381265
v -3.867529 3.337278 -0.381265
v -3.230619 3.165056 -2.158427
v -3.266000 3.956149 -2.182101
v -3.230619 4.520392 -2.158427
v -3.230619 3.124641 -2.158427
v -3.266000 3.437981 -2.182101
v -3.319227 3.000000 -2.217717
v -3.266000 4.474317 -2.182101
v -3.230619 4.747241 -2.158427
v -3.319227 5.000000 -2.217717
v -3.230619 4.787657 -2.158427
v -3.319226 3.119245 -2.217719
v -3.338608 3.042101 -2.230685
v -3.319227 4.880755 -2.217717
v -3.230620 3.391905 -2.158427
v -3.338608 4.870197 -2.230685
v -3.005106 4.787657 -2.465936
v -3.005106 4.604092 -2.465936
v -3.105508 4.870197 -2.548410
v -3.005106 4.575020 -2.465936
v -3.087490 3.000000 -2.533609
v -3.005106 3.956150 -2.465936
v -3.087490 5.000000 -2.533609
v -3.087489 3.119246 -2.533609
v -3.005106 3.308206 -2.465936
v -3.087490 4.880755 -2.533609
v -3.005106 3.124642 -2.465936
v -3.005106 3.337279 -2.465936
v -3.105508 3.042102 -2.548410
v -3.694700 3.000000 -1.530443
v -3.694700 5.000000 -1.530443
v -3.694700 3.119245 -1.530443
v -3.694700 4.880754 -1.530443
v -3.823511 3.000000 -1.159729
v -3.823511 5.000000 -1.159729
v -3.823511 3.119245 -1.159729
v -3.823511 4.880754 -1.159728
v -3.521996 3.000000 -1.882608
v -3.521996 5.000000 -1.882608
v -3.521997 3.119245 -1.882608
v -3.521996 4.880755 -1.882608
vt 0.197094 0.110393
vt 0.259167 0.110393
vt 0.259167 0.086871
vt 0.177654 0.086871
vt 0.810314 0.457870
vt 0.748241 0.457870
vt 0.748241 0.481392
vt 0.829754 0.481392
vt 0.197094 0.457870
vt 0.259167 0.457870
vt 0.177654 0.481392
vt 0.810314 0.110393
vt 0.829754 0.086871
vt 0.279242 0.915501
vt 0.259033 0.920383
vt 0.263459 0.918212
vt 0.276562 0.915072
vt 0.556888 0.837051
vt 0.566405 0.853538
vt 0.512215 0.853782
vt 0.501350 0.834961
vt 0.442485 0.908068
vt 0.360775 0.899686
vt 0.360776 0.825627
vt 0.441642 0.825627
vt 0.541085 0.889065
vt 0.523641 0.882410
vt 0.523159 0.853097
vt 0.537638 0.858621
vt 0.451798 0.912647
vt 0.358746 0.903101
vt 0.281501 0.916636
vt 0.286261 0.919453
vt 0.286261 0.945523
vt 0.268875 0.945523
vt 0.257585 0.934274
vt 0.257585 0.922366
vt 0.612060 0.823311
vt 0.624145 0.849306
vt 0.592564 0.869021
vt 0.577498 0.844886
vt 0.558304 0.856868
vt 0.563086 0.887422
vt 0.567449 0.890057
vt 0.443587 0.885394
vt 0.444624 0.857849
vt 0.565895 0.862414
vt 0.317569 0.937978
vt 0.286261 0.915323
vt 0.316650 0.906941
vt 0.327005 0.915109
vt 0.327005 0.937978
vt 0.279236 0.827430
vt 0.276562 0.827430
vt 0.329484 0.887959
vt 0.329484 0.825627
vt 0.334067 0.825627
vt 0.334067 0.884592
vt 0.400042 0.849415
vt 0.406487 0.856413
vt 0.398674 0.883704
vt 0.391316 0.875715
vt 0.453521 0.945523
vt 0.357273 0.945523
vt 0.357272 0.939783
vt 0.569504 0.877143
vt 0.514434 0.870687
vt 0.496052 0.912647
vt 0.496052 0.908068
vt 0.453521 0.917439
vt 0.499295 0.917439
vt 0.499295 0.945523
vt 0.623570 0.864585
vt 0.622533 0.892131
vt 0.514423 0.876295
vt 0.392850 0.834987
vt 0.399535 0.815311
vt 0.511396 0.853319
vt 0.519490 0.852704
vt 0.520518 0.880394
vt 0.263459 0.827430
vt 0.496052 0.825627
vt 0.357273 0.907565
vt 0.327005 0.891904
vt 0.327697 0.895855
vt 0.329706 0.899561
vt 0.332835 0.902660
vt 0.336778 0.904848
vt 0.341149 0.905911
vt 0.334748 0.888479
vt 0.330153 0.891779
vt 0.336725 0.892126
vt 0.332095 0.895363
vt 0.339804 0.895175
vt 0.335121 0.898359
vt 0.343683 0.897328
vt 0.338933 0.900474
vt 0.347983 0.898374
vt 0.343158 0.901502
vt 0.281501 0.827430
vt 0.286261 0.827430
vt 0.521585 0.852736
vt 0.522167 0.881554
vt 0.280320 0.827430
vt 0.280321 0.915901
vt 0.258009 0.921258
vt 0.279242 0.915501
vt 0.276562 0.915072
vt 0.263459 0.918212
vt 0.259033 0.920383
vt 0.556888 0.837051
vt 0.501350 0.834961
vt 0.512215 0.853782
vt 0.566405 0.853538
vt 0.442485 0.908068
vt 0.441642 0.825627
vt 0.360775 0.825627
vt 0.360775 0.899686
vt 0.541085 0.889065
vt 0.537638 0.858621
vt 0.523159 0.853097
vt 0.523641 0.882410
vt 0.451798 0.912647
vt 0.358746 0.903101
vt 0.281501 0.916636
vt 0.257585 0.922366
vt 0.257585 0.934274
vt 0.268875 0.945523
vt 0.286261 0.945523
vt 0.286261 0.919452
vt 0.612060 0.823311
vt 0.577497 0.844887
vt 0.592563 0.869021
vt 0.624145 0.849306
vt 0.563086 0.887422
vt 0.558304 0.856868
vt 0.567449 0.890057
vt 0.565895 0.862414
vt 0.444623 0.857849
vt 0.443586 0.885394
vt 0.317569 0.937978
vt 0.327005 0.937978
vt 0.327005 0.915109
vt 0.316650 0.906941
vt 0.286261 0.915324
vt 0.279236 0.827430
vt 0.276562 0.827430
vt 0.329484 0.887959
vt 0.334067 0.884592
vt 0.334067 0.825627
vt 0.329484 0.825627
vt 0.400042 0.849415
vt 0.391316 0.875715
vt 0.398674 0.883704
vt 0.406487 0.856413
vt 0.453521 0.945523
vt 0.357272 0.939783
vt 0.357272 0.945523
vt 0.514434 0.870687
vt 0.569504 0.877143
vt 0.453521 0.917439
vt 0.514423 0.876295
vt 0.511396 0.853319
vt 0.399535 0.815311
vt 0.392850 0.834987
vt 0.519490 0.852704
vt 0.520518 0.880394
vt 0.263459 0.827430
vt 0.357272 0.907565
vt 0.327005 0.891904
vt 0.341149 0.905911
vt 0.336778 0.904848
vt 0.332835 0.902660
vt 0.329706 0.899561
vt 0.327697 0.895855
vt 0.330153 0.891779
vt 0.334748 0.888479
vt 0.332095 0.895363
vt 0.336725 0.892126
vt 0.335121 0.898359
vt 0.339804 0.895175
vt 0.338933 0.900474
vt 0.343683 0.897328
vt 0.343158 0.901502
vt 0.347983 0.898374
vt 0.286261 0.827430
vt 0.281501 0.827430
vt 0.522167 0.881554
vt 0.521585 0.852736
vt 0.280321 0.915901
vt 0.280320 0.827430
vt 0.258009 0.921258
vt 0.279242 0.915501
vt 0.276562 0.915072
vt 0.263459 0.918212
vt 0.259033 0.920383
vt 0.556888 0.837051
vt 0.501350 0.834961
vt 0.512215 0.853782
vt 0.566405 0.853538
vt 0.442485 0.908068
vt 0.360775 0.899686
vt 0.541085 0.889065
vt 0.537638 0.858621
vt 0.523159 0.853097
vt 0.523641 0.882410
vt 0.451798 0.912647
vt 0.358746 0.903101
vt 0.281501 0.916636
vt 0.257585 0.922366
vt 0.257585 0.934274
vt 0.268875 0.945523
vt 0.286261 0.945523
vt 0.286261 0.919453
vt 0.612060 0.823311
vt 0.577498 0.844886
vt 0.592563 0.869021
vt 0.624145 0.849306
vt 0.563086 0.887422
vt 0.558304 0.856868
vt 0.567449 0.890057
vt 0.565895 0.862414
vt 0.444624 0.857849
vt 0.443587 0.885394
vt 0.317569 0.937978
vt 0.327005 0.937978
vt 0.327005 0.915109
vt 0.316650 0.906941
vt 0.286261 0.915324
vt 0.329484 0.887959
vt 0.334067 0.884592
vt 0.400042 0.849415
vt 0.391316 0.875715
vt 0.398674 0.883704
vt 0.406487 0.856413
vt 0.453521 0.945523
vt 0.357272 0.939783
vt 0.357272 0.945523
vt 0.514434 0.870687
vt 0.569504 0.877143
vt 0.496052 0.912647
vt 0.496052 0.908068
vt 0.499295 0.945523
vt 0.499295 0.917439
vt 0.453521 0.917439
vt 0.622533 0.892131
vt 0.623570 0.864585
vt 0.514423 0.876295
vt 0.511396 0.853319
vt 0.519490 0.852704
vt 0.520518 0.880394
vt 0.357272 0.907565
vt 0.327005 0.891904
vt 0.341149 0.905911
vt 0.336778 0.904848
vt 0.332835 0.902660
vt 0.329706 0.899561
vt 0.327697 0.895855
vt 0.330153 0.891779
vt 0.334748 0.888479
vt 0.332095 0.895363
vt 0.336725 0.892126
vt 0.335121 0.898359
vt 0.339804 0.895175
vt 0.338933 0.900474
vt 0.343683 0.897328
vt 0.343158 0.901502
vt 0.347983 0.898374
vt 0.522167 0.881554
vt 0.521585 0.852736
vt 0.280321 0.915901
vt 0.258009 0.921258
vt 0.279242 0.915501
vt 0.259033 0.920383
vt 0.263459 0.918212
vt 0.276562 0.915072
vt 0.556888 0.837051
vt 0.566405 0.853538
vt 0.512215 0.853782
vt 0.501350 0.834961
vt 0.442485 0.908068
vt 0.360775 0.899686
vt 0.541085 0.889065
vt 0.523641 0.882410
vt 0.523159 0.853097
vt 0.537638 0.858621
vt 0.451798 0.912647
vt 0.358746 0.903101
vt 0.281501 0.916636
vt 0.286261 0.919453
vt 0.286261 0.945523
vt 0.268875 0.945523
vt 0.257585 0.934274
vt 0.257585 0.922366
vt 0.612060 0.823311
vt 0.624145 0.849306
vt 0.592563 0.869021
vt 0.577497 0.844887
vt 0.558304 0.856868
vt 0.563086 0.887422
vt 0.567449 0.890057
vt 0.443586 0.885394
vt 0.444623 0.857849
vt 0.565895 0.862414
vt 0.317569 0.937978
vt 0.286261 0.915324
vt 0.316650 0.906941
vt 0.327005 0.915109
vt 0.327005 0.937978
vt 0.329484 0.887959
vt 0.334067 0.884592
vt 0.400042 0.849415
vt 0.406487 0.856413
vt 0.398674 0.883704
vt 0.391316 0.875715
vt 0.453521 0.945523
vt 0.357272 0.945523
vt 0.357272 0.939783
vt 0.569504 0.877143
vt 0.514434 0.870687
vt 0.453521 0.917439
vt 0.514423 0.876295
vt 0.511396 0.853319
vt 0.519490 0.852704
vt 0.520518 0.880394
vt 0.357272 0.907565
vt 0.327005 0.891904
vt 0.327697 0.895855
vt 0.329706 0.899561
vt 0.332835 0.902660
vt 0.336778 0.904848
vt 0.341149 0.905911
vt 0.334748 0.888479
vt 0.330153 0.891779
vt 0.336725 0.892126
vt 0.332095 0.895363
vt 0.339804 0.895175
vt 0.335121 0.898359
vt 0.343683 0.897328
vt 0.338933 0.900474
vt 0.347983 0.898374
vt 0.343158 0.901502
vt 0.521585 0.852736
vt 0.522167 0.881554
vt 0.280321 0.915901
vt 0.258009 0.921258
vt 0.327005 0.945523
vt 0.327005 0.945523
vt 0.422191 0.481392
vt 0.422191 0.457870
vt 0.340679 0.457870
vt 0.340679 0.481392
vt 0.666729 0.086871
vt 0.666729 0.110393
vt 0.748241 0.110393
vt 0.748241 0.086871
vt 0.666728 0.457870
vt 0.327005 0.827430
vt 0.666728 0.481392
vt 0.317569 0.945523
vt 0.317569 0.945523
vt 0.259167 0.481392
vt 0.327005 0.945523
vt 0.327005 0.945523
vt 0.585216 0.086871
vt 0.585216 0.110393
vt 0.585216 0.457870
vt 0.327005 0.827430
vt 0.340679 0.110393
vt 0.340679 0.086871
vt 0.317569 0.945523
vt 0.317569 0.945523
vt 0.422191 0.110393
vt 0.503704 0.457870
vt 0.503704 0.110393
vt 0.422191 0.086871
vt 0.503704 0.086871
vt 0.585216 0.481392
vt 0.503704 0.481392
vt 0.197094 0.110393
vt 0.259167 0.110393
vt 0.259167 0.086871
vt 0.177654 0.086871
vt 0.810314 0.457870
vt 0.748241 0.457870
vt 0.748241 0.481392
vt 0.829754 0.481392
vt 0.197094 0.457870
vt 0.259167 0.457870
vt 0.177654 0.481392
vt 0.810314 0.110393
vt 0.829754 0.086871
vt 0.279242 0.915501
vt 0.259033 0.920383
vt 0.263459 0.918212
vt 0.276562 0.915072
vt 0.556888 0.837051
vt 0.566405 0.853538
vt 0.512215 0.853782
vt 0.501350 0.834961
vt 0.442485 0.908068
vt 0.360775 0.899686
vt 0.360776 0.825627
vt 0.441642 0.825627
vt 0.541085 0.889065
vt 0.523641 0.882410
vt 0.523159 0.853097
vt 0.537638 0.858621
vt 0.451798 0.912647
vt 0.358746 0.903101
vt 0.281501 0.916636
vt 0.286261 0.919453
vt 0.286261 0.945523
vt 0.268875 0.945523
vt 0.257585 0.934274
vt 0.257585 0.922366
vt 0.612060 0.823311
vt 0.624145 0.849306
vt 0.592564 0.869021
vt 0.577498 0.844886
vt 0.558304 0.856868
vt 0.563086 0.887422
vt 0.567449 0.890057
vt 0.443587 0.885394
vt 0.444624 0.857849
vt 0.565895 0.862414
vt 0.317569 0.937978
vt 0.286261 0.915323
vt 0.316650 0.906941
vt 0.327005 0.915109
vt 0.327005 0.937978
vt 0.279236 0.827430
vt 0.276562 0.827430
vt 0.329484 0.887959
vt 0.329484 0.825627
vt 0.334067 0.825627
vt 0.334067 0.884592
vt 0.400042 0.849415
vt 0.406487 0.856413
vt 0.398674 0.883704
vt 0.391316 0.875715
vt 0.453521 0.945523
vt 0.357273 0.945523
vt 0.357272 0.939783
vt 0.569504 0.877143
vt 0.514434 0.870687
vt 0.496052 0.912647
vt 0.496052 0.908068
vt 0.453521 0.917439
vt 0.499295 0.917439
vt 0.499295 0.945523
vt 0.623570 0.864585
vt 0.622533 0.892131
vt 0.514423 0.876295
vt 0.392850 0.834987
vt 0.399535 0.815311
vt 0.511396 0.853319
vt 0.519490 0.852704
vt 0.520518 0.880394
vt 0.263459 0.827430
vt 0.496052 0.825627
vt 0.357273 0.907565
vt 0.327005 0.891904
vt 0.327697 0.895855
vt 0.329706 0.899561
vt 0.332835 0.902660
vt 0.336778 0.904848
vt 0.341149 0.905911
vt 0.334748 0.888479
vt 0.330153 0.891779
vt 0.336725 0.892126
vt 0.332095 0.895363
vt 0.339804 0.895175
vt 0.335121 0.898359
vt 0.343683 0.897328
vt 0.338933 0.900474
vt 0.347983 0.898374
vt 0.343158 0.901502
vt 0.281501 0.827430
vt 0.286261 0.827430
vt 0.521585 0.852736
vt 0.522167 0.881554
vt 0.280320 0.827430
vt 0.280321 0.915901
vt 0.258009 0.921258
vt 0.279242 0.915501
vt 0.276562 0.915072
vt 0.263459 0.918212
vt 0.259033 0.920383
vt 0.556888 0.837051
vt 0.501350 0.834961
vt 0.512215 0.853782
vt 0.566405 0.853538
vt 0.442485 0.908068
vt 0.441642 0.825627
vt 0.360775 0.825627
vt 0.360775 0.899686
vt 0.541085 0.889065
vt 0.537638 0.858621
vt 0.523159 0.853097
vt 0.523641 0.882410
vt 0.451798 0.912647
vt 0.358746 0.903101
vt 0.281501 0.916636
vt 0.257585 0.922366
vt 0.257585 0.934274
vt 0.268875 0.945523
vt 0.286261 0.945523
vt 0.286261 0.919452
vt 0.612060 0.823311
vt 0.577497 0.844887
vt 0.592563 0.869021
vt 0.624145 0.849306
vt 0.563086 0.887422
vt 0.558304 0.856868
vt 0.567449 0.890057
vt 0.565895 0.862414
vt 0.444623 0.857849
vt 0.443586 0.885394
vt 0.317569 0.937978
vt 0.327005 0.937978
vt 0.327005 0.915109
vt 0.316650 0.906941
vt 0.286261 0.915324
vt 0.279236 0.827430
vt 0.276562 0.827430
vt 0.329484 0.887959
vt 0.334067 0.884592
vt 0.334067 0.825627
vt 0.329484 0.825627
vt 0.400042 0.849415
vt 0.391316 0.875715
vt 0.398674 0.883704
vt 0.406487 0.856413
vt 0.453521 0.945523
vt 0.357272 0.939783
vt 0.357272 0.945523
vt 0.514434 0.870687
vt 0.569504 0.877143
vt 0.453521 0.917439
vt 0.514423 0.876295
vt 0.511396 0.853319
vt 0.399535 0.815311
vt 0.392850 0.834987
vt 0.519490 0.852704
vt 0.520518 0.880394
vt 0.263459 0.827430
vt 0.357272 0.907565
vt 0.327005 0.891904
vt 0.341149 0.905911
vt 0.336778 0.904848
vt 0.332835 0.902660
vt 0.329706 0.899561
vt 0.327697 0.895855
vt 0.330153 0.891779
vt 0.334748 0.888479
vt 0.332095 0.895363
vt 0.336725 0.892126
vt 0.335121 0.898359
vt 0.339804 0.895175
vt 0.338933 0.900474
vt 0.343683 0.897328
vt 0.343158 0.901502
vt 0.347983 0.898374
vt 0.286261 0.827430
vt 0.281501 0.827430
vt 0.522167 0.881554
vt 0.521585 0.852736
vt 0.280321 0.915901
vt 0.280320 0.827430
vt 0.258009 0.921258
vt 0.279242 0.915501
vt 0.276562 0.915072
vt 0.263459 0.918212
vt 0.259033 0.920383
vt 0.556888 0.837051
vt 0.501350 0.834961
vt 0.512215 0.853782
vt 0.566405 0.853538
vt 0.442485 0.908068
vt 0.360775 0.899686
vt 0.541085 0.889065
vt 0.537638 0.858621
vt 0.523159 0.853097
vt 0.523641 0.882410
vt 0.451798 0.912647
vt 0.358746 0.903101
vt 0.281501 0.916636
vt 0.257585 0.922366
vt 0.257585 0.934274
vt 0.268875 0.945523
vt 0.286261 0.945523
vt 0.286261 0.919453
vt 0.612060 0.823311
vt 0.577498 0.844886
vt 0.592563 0.869021
vt 0.624145 0.849306
vt 0.563086 0.887422
vt 0.558304 0.856868
vt 0.567449 0.890057
vt 0.565895 0.862414
vt 0.444624 0.857849
vt 0.443587 0.885394
vt 0.317569 0.937978
vt 0.327005 0.937978
vt 0.327005 0.915109
vt 0.316650 0.906941
vt 0.286261 0.915324
vt 0.329484 0.887959
vt 0.334067 0.884592
vt 0.400042 0.849415
vt 0.391316 0.875715
vt 0.398674 0.883704
vt 0.406487 0.856413
vt 0.453521 0.945523
vt 0.357272 0.939783
vt 0.357272 0.945523
vt 0.514434 0.870687
vt 0.569504 0.877143
vt 0.496052 0.912647
vt 0.496052 0.908068
vt 0.499295 0.945523
vt 0.499295 0.917439
vt 0.453521 0.917439
vt 0.622533 0.892131
vt 0.623570 0.864585
vt 0.514423 0.876295
vt 0.511396 0.853319
vt 0.519490 0.852704
vt 0.520518 0.880394
vt 0.357272 0.907565
vt 0.327005 0.891904
vt 0.341149 0.905911
vt 0.336778 0.904848
vt 0.332835 0.902660
vt 0.329706 0.899561
vt 0.327697 0.895855
vt 0.330153 0.891779
vt 0.334748 0.888479
vt 0.332095 0.895363
vt 0.336725 0.892126
vt 0.335121 0.898359
vt 0.339804 0.895175
vt 0.338933 0.900474
vt 0.343683 0.897328
vt 0.343158 0.901502
vt 0.347983 0.898374
vt 0.522167 0.881554
vt 0.521585 0.852736
vt 0.280321 0.915901
vt 0.258009 0.921258
vt 0.279242 0.915501
vt 0.259033 0.920383
vt 0.263459 0.918212
vt 0.276562 0.915072
vt 0.556888 0.837051
vt 0.566405 0.853538
vt 0.512215 0.853782
vt 0.501350 0.834961
vt 0.442485 0.908068
vt 0.360775 0.899686
vt 0.541085 0.889065
vt 0.523641 0.882410
vt 0.523159 0.853097
vt 0.537638 0.858621
vt 0.451798 0.912647
vt 0.358746 0.903101
vt 0.281501 0.916636
vt 0.286261 0.919453
vt 0.286261 0.945523
vt 0.268875 0.945523
vt 0.257585 0.934274
vt 0.257585 0.922366
vt 0.612060 0.823311
vt 0.624145 0.849306
vt 0.592563 0.869021
vt 0.577497 0.844887
vt 0.558304 0.856868
vt 0.563086 0.887422
vt 0.567449 0.890057
vt 0.443586 0.885394
vt 0.444623 0.857849
vt 0.565895 0.862414
vt 0.317569 0.937978
vt 0.286261 0.915324
vt 0.316650 0.906941
vt 0.327005 0.915109
vt 0.327005 0.937978
vt 0.329484 0.887959
vt 0.334067 0.884592
vt 0.400042 0.849415
vt 0.406487 0.856413
vt 0.398674 0.883704
vt 0.391316 0.875715
vt 0.453521 0.945523
vt 0.357272 0.945523
vt 0.357272 0.939783
vt 0.569504 0.877143
vt 0.514434 0.870687
vt 0.453521 0.917439
vt 0.514423 0.876295
vt 0.511396 0.853319
vt 0.519490 0.852704
vt 0.520518 0.880394
vt 0.357272 0.907565
vt 0.327005 0.891904
vt 0.327697 0.895855
vt 0.329706 0.899561
vt 0.332835 0.902660
vt 0.336778 0.904848
vt 0.341149 0.905911
vt 0.334748 0.888479
vt 0.330153 0.891779
vt 0.336725 0.892126
vt 0.332095 0.895363
vt 0.339804 0.895175
vt 0.335121 0.898359
vt 0.343683 0.897328
vt 0.338933 0.900474
vt 0.347983 0.898374
vt 0.343158 0.901502
vt 0.521585 0.852736
vt 0.522167 0.881554
vt 0.280321 0.915901
vt 0.258009 0.921258
vt 0.327005 0.945523
vt 0.327005 0.945523
vt 0.422191 0.481392
vt 0.422191 0.457870
vt 0.340679 0.457870
vt 0.340679 0.481392
vt 0.666729 0.086871
vt 0.666729 0.110393
vt 0.748241 0.110393
vt 0.748241 0.086871
vt 0.666728 0.457870
vt 0.327005 0.827430
vt 0.666728 0.481392
vt 0.317569 0.945523
vt 0.317569 0.945523
vt 0.259167 0.481392
vt 0.327005 0.945523
vt 0.327005 0.945523
vt 0.585216 0.086871
vt 0.585216 0.110393
vt 0.585216 0.457870
vt 0.327005 0.827430
vt 0.340679 0.110393
vt 0.340679 0.086871
vt 0.317569 0.945523
vt 0.317569 0.945523
vt 0.422191 0.110393
vt 0.503704 0.457870
vt 0.503704 0.110393
vt 0.422191 0.086871
vt 0.503704 0.086871
vt 0.585216 0.481392
vt 0.503704 0.481392
vn 0.0672 -0.0000 0.9977
vn 0.1083 -0.0000 0.9941
vn 0.6607 -0.0000 0.7506
vn 0.6267 -0.0000 0.7792
vn 0.7071 -0.0000 0.7071
vn 0.1003 -0.8514 0.5149
vn -0.2182 -0.8422 0.4931
vn -0.2523 -0.9019 0.3506
vn -0.0407 -0.9206 0.3884
vn 0.7257 0.0000 -0.6880
vn 0.4716 -0.0001 0.8818
vn 0.5314 -0.0002 0.8471
vn 0.5336 -0.0000 0.8457
vn 0.4735 0.0000 0.8808
vn -0.2447 0.3224 0.9144
vn -0.4705 -0.1138 0.8750
vn -0.4942 -0.1947 0.8473
vn -0.3159 0.2114 0.9249
vn 0.3709 -0.6333 0.6792
vn 0.4608 -0.6845 0.5649
vn 0.4641 -0.6833 0.5636
vn 0.4176 -0.6730 0.6105
vn 0.5980 -0.0585 0.7993
vn 0.6384 -0.0004 0.7697
vn 0.6461 -0.0000 0.7633
vn 0.6610 -0.0000 0.7503
vn 0.6257 -0.1265 0.7697
vn 0.3387 0.8453 0.4133
vn 0.3465 0.8447 0.4080
vn 0.3466 0.8447 0.4079
vn -0.1121 0.4998 0.8589
vn 0.2501 0.8437 0.4751
vn 0.2847 0.8436 0.4552
vn 0.2842 0.8436 0.4556
vn 0.2523 0.8436 0.4740
vn 0.6192 -0.0006 0.7852
vn 0.6369 0.0003 0.7710
vn 0.5970 0.0009 0.8022
vn 0.5781 -0.0004 0.8160
vn 0.5760 -0.0004 0.8174
vn -0.3489 -0.0000 0.9372
vn -0.3488 -0.0000 0.9372
vn 0.9746 -0.0919 -0.2044
vn 0.9547 0.0000 -0.2977
vn 0.9633 -0.0314 -0.2665
vn -0.6557 0.0000 0.7550
vn 0.4684 -0.0000 0.8835
vn 0.5300 -0.0000 0.8480
vn 0.2799 0.8658 0.4148
vn 0.3027 -0.6139 0.7290
vn 0.4697 -0.0000 0.8828
vn 0.3826 -0.0000 0.9239
vn 0.2049 0.8444 0.4950
vn -0.3536 -0.0000 0.9354
vn -0.5455 -0.7250 0.4204
vn -0.5293 -0.8044 0.2697
vn 0.6609 -0.0000 0.7505
vn 0.3840 0.0000 0.9233
vn 0.5325 0.0000 0.8464
vn 0.6059 0.0027 0.7955
vn 0.5589 0.0000 0.8292
vn 0.5593 0.0000 0.8290
vn 0.9774 -0.1803 -0.1103
vn 0.9639 -0.2658 -0.0144
vn 0.9242 -0.3670 0.1059
vn 0.8946 -0.4149 0.1660
vn 0.8172 -0.5026 0.2819
vn 0.7907 -0.5256 0.3139
vn 0.6696 -0.6048 0.4311
vn 0.6582 -0.6106 0.4403
vn 0.5313 -0.6621 0.5285
vn 0.5362 -0.6605 0.5255
vn 0.6614 -0.0000 0.7501
vn 0.6392 -0.0000 0.7690
vn -0.5518 -0.5225 0.6500
vn -0.5450 -0.4474 0.7091
vn -0.1627 -0.0000 0.9867
vn 0.0654 0.0000 0.9979
vn 0.2869 -0.2626 0.9213
vn 0.2901 0.0000 0.9570
vn 0.4496 -0.4952 0.7434
vn 0.2947 -0.8508 0.4351
vn 0.3043 -0.9203 0.2460
vn 0.4266 -0.9017 0.0695
vn 0.5036 -0.8418 0.1942
vn -0.9997 0.0000 0.0259
vn 0.2906 -0.0002 0.9569
vn 0.2884 -0.0000 0.9575
vn 0.2248 -0.0000 0.9744
vn 0.2268 -0.0002 0.9739
vn 0.8203 0.3216 0.4730
vn 0.8776 0.2113 0.4303
vn 0.9486 -0.1944 0.2498
vn 0.9514 -0.1136 0.2861
vn 0.2173 -0.6372 0.7394
vn 0.1350 -0.6767 0.7237
vn 0.0734 -0.6853 0.7246
vn 0.0760 -0.6867 0.7229
vn 0.1460 -0.0585 0.9876
vn 0.1056 -0.1266 0.9863
vn 0.0669 -0.0000 0.9978
vn 0.0749 -0.0000 0.9972
vn 0.0883 -0.0006 0.9961
vn 0.0417 0.8455 0.5323
vn 0.0388 0.8448 0.5337
vn 0.0389 0.8448 0.5337
vn 0.6876 0.4990 0.5274
vn 0.1591 0.8435 0.5130
vn 0.1568 0.8434 0.5138
vn 0.1240 0.8435 0.5227
vn 0.1234 0.8435 0.5228
vn 0.1028 -0.0009 0.9947
vn 0.1744 -0.0005 0.9847
vn 0.1710 -0.0006 0.9853
vn 0.1400 0.0012 0.9901
vn 0.0910 0.0004 0.9959
vn 0.9095 0.0000 0.4158
vn -0.8332 -0.0924 0.5453
vn -0.8695 -0.0314 0.4929
vn -0.8855 0.0000 0.4646
vn 0.9975 0.0000 0.0705
vn 0.2934 -0.0000 0.9560
vn 0.2301 0.0000 0.9732
vn 0.1006 0.8656 0.4904
vn 0.2920 -0.0000 0.9564
vn 0.9116 0.0000 0.4110
vn 0.5647 -0.8047 -0.1834
vn 0.6830 -0.7251 -0.0881
vn 0.0670 -0.0000 0.9978
vn 0.2276 0.0000 0.9737
vn 0.1251 0.0037 0.9921
vn 0.2012 0.0000 0.9796
vn 0.2016 0.0000 0.9795
vn -0.6895 -0.2673 0.6732
vn -0.7682 -0.1809 0.6142
vn -0.5107 -0.4170 0.7518
vn -0.5755 -0.3684 0.7301
vn -0.3308 -0.5277 0.7824
vn -0.3733 -0.5043 0.7786
vn -0.1464 -0.6122 0.7770
vn -0.1621 -0.6061 0.7787
vn 0.0003 -0.6614 0.7501
vn 0.0054 -0.6628 0.7488
vn 0.0868 -0.0000 0.9962
vn 0.0664 -0.0000 0.9978
vn 0.8870 -0.4469 0.1165
vn 0.8498 -0.5224 0.0697
vn 0.8133 -0.0000 0.5818
vn 0.4511 -0.2622 0.8531
vn 0.4743 -0.0000 0.8804
vn 0.2109 -0.4953 0.8427
vn 0.1003 0.8513 0.5149
vn -0.0406 0.9206 0.3884
vn -0.2523 0.9019 0.3506
vn -0.2182 0.8422 0.4931
vn 0.4716 0.0001 0.8818
vn 0.5314 0.0002 0.8471
vn -0.2447 -0.3224 0.9144
vn -0.3159 -0.2114 0.9249
vn -0.4942 0.1947 0.8473
vn -0.4705 0.1138 0.8751
vn 0.3709 0.6333 0.6792
vn 0.4176 0.6730 0.6105
vn 0.4641 0.6833 0.5636
vn 0.4608 0.6845 0.5649
vn 0.5980 0.0585 0.7993
vn 0.6257 0.1265 0.7698
vn 0.6384 0.0004 0.7697
vn 0.3387 -0.8453 0.4133
vn 0.3466 -0.8447 0.4079
vn 0.3465 -0.8447 0.4080
vn -0.1121 -0.4998 0.8589
vn 0.2501 -0.8437 0.4751
vn 0.2523 -0.8436 0.4740
vn 0.2842 -0.8436 0.4556
vn 0.2847 -0.8436 0.4552
vn 0.6192 0.0006 0.7852
vn 0.5760 0.0004 0.8174
vn 0.5781 0.0004 0.8160
vn 0.5970 -0.0009 0.8022
vn 0.6369 -0.0003 0.7710
vn 0.9746 0.0919 -0.2044
vn 0.9633 0.0314 -0.2664
vn 0.2799 -0.8658 0.4148
vn 0.3027 0.6139 0.7290
vn 0.2049 -0.8444 0.4950
vn -0.5293 0.8044 0.2697
vn -0.5455 0.7250 0.4204
vn 0.6059 -0.0027 0.7955
vn 0.9639 0.2658 -0.0144
vn 0.9774 0.1803 -0.1103
vn 0.8946 0.4149 0.1660
vn 0.9242 0.3670 0.1060
vn 0.7907 0.5256 0.3139
vn 0.8172 0.5026 0.2819
vn 0.6582 0.6106 0.4403
vn 0.6697 0.6048 0.4311
vn 0.5362 0.6605 0.5255
vn 0.5313 0.6621 0.5285
vn -0.5449 0.4474 0.7092
vn -0.5518 0.5225 0.6500
vn 0.2869 0.2626 0.9213
vn 0.4496 0.4952 0.7434
vn 0.2947 0.8508 0.4351
vn 0.5035 0.8419 0.1942
vn 0.4266 0.9017 0.0695
vn 0.3043 0.9203 0.2459
vn 0.2906 0.0002 0.9569
vn 0.2268 0.0002 0.9739
vn 0.8203 -0.3216 0.4730
vn 0.9514 0.1136 0.2861
vn 0.9486 0.1943 0.2498
vn 0.8776 -0.2113 0.4303
vn 0.2173 0.6372 0.7394
vn 0.0760 0.6867 0.7229
vn 0.0734 0.6853 0.7246
vn 0.1350 0.6767 0.7237
vn 0.1460 0.0584 0.9876
vn 0.0883 0.0006 0.9961
vn 0.1056 0.1266 0.9863
vn 0.0417 -0.8455 0.5323
vn 0.0389 -0.8448 0.5337
vn 0.0388 -0.8448 0.5337
vn 0.6876 -0.4990 0.5274
vn 0.1591 -0.8435 0.5130
vn 0.1234 -0.8435 0.5228
vn 0.1240 -0.8434 0.5227
vn 0.1568 -0.8434 0.5138
vn 0.1028 0.0009 0.9947
vn 0.0910 -0.0004 0.9959
vn 0.1400 -0.0012 0.9901
vn 0.1710 0.0006 0.9853
vn 0.1744 0.0005 0.9847
vn -0.8331 0.0924 0.5453
vn -0.8695 0.0314 0.4929
vn 0.1006 -0.8656 0.4904
vn 0.6830 0.7251 -0.0882
vn 0.5647 0.8047 -0.1834
vn 0.1251 -0.0037 0.9921
vn -0.7682 0.1809 0.6142
vn -0.6895 0.2673 0.6732
vn -0.5755 0.3684 0.7301
vn -0.5107 0.4170 0.7518
vn -0.3733 0.5043 0.7786
vn -0.3308 0.5277 0.7824
vn -0.1621 0.6061 0.7787
vn -0.1464 0.6122 0.7770
vn 0.0054 0.6628 0.7488
vn 0.0003 0.6614 0.7501
vn 0.8498 0.5224 0.0696
vn 0.8870 0.4468 0.1165
vn 0.4510 0.2622 0.8531
vn 0.2109 0.4953 0.8428
vn 0.5594 -0.0000 0.8289
vn 0.2815 -0.0000 0.9596
vn 0.1918 -0.0000 0.9814
vn 0.5596 -0.0000 0.8288
vn 0.3002 -0.8440 0.4445
vn 0.3002 0.8440 0.4445
vn 0.5551 0.0000 0.8318
vn 0.6166 -0.0000 0.7873
vn 0.3544 0.8440 0.4025
vn 0.3544 -0.8440 0.4025
vn 0.6308 0.0000 0.7759
vn 0.2010 0.0000 0.9796
vn 0.2007 -0.0000 0.9797
vn 0.4795 -0.0000 0.8776
vn 0.1076 -0.8439 0.5256
vn 0.1076 0.8439 0.5256
vn 0.1072 -0.0000 0.9942
vn 0.0829 0.0000 0.9966
vn 0.0359 0.8440 0.5351
vn 0.0359 -0.8440 0.5351
vn 0.3850 0.0000 0.9229
vn 0.7506 0.0000 0.6607
vn 0.7792 0.0000 0.6267
vn 0.9977 0.0000 0.0672
vn 0.9941 0.0000 0.1083
vn 0.4350 -0.8508 0.2947
vn 0.1942 -0.8419 0.5036
vn 0.0695 -0.9017 0.4266
vn 0.2459 -0.9203 0.3043
vn 0.0259 -0.0000 -0.9997
vn 0.9569 -0.0002 0.2906
vn 0.9739 -0.0002 0.2268
vn 0.9744 -0.0000 0.2248
vn 0.9575 -0.0000 0.2884
vn 0.4730 0.3216 0.8203
vn 0.2860 -0.1136 0.9515
vn 0.2497 -0.1944 0.9486
vn 0.4302 0.2113 0.8776
vn 0.7394 -0.6372 0.2173
vn 0.7229 -0.6867 0.0760
vn 0.7246 -0.6853 0.0735
vn 0.7237 -0.6767 0.1350
vn 0.9876 -0.0584 0.1459
vn 0.9961 -0.0006 0.0883
vn 0.9972 -0.0000 0.0749
vn 0.9978 -0.0000 0.0669
vn 0.9863 -0.1266 0.1055
vn 0.5323 0.8455 0.0417
vn 0.5337 0.8448 0.0389
vn 0.5337 0.8448 0.0388
vn 0.5274 0.4990 0.6876
vn 0.5130 0.8435 0.1591
vn 0.5228 0.8435 0.1234
vn 0.5227 0.8434 0.1240
vn 0.5138 0.8434 0.1568
vn 0.9947 -0.0009 0.1028
vn 0.9959 0.0004 0.0910
vn 0.9901 0.0012 0.1400
vn 0.9853 -0.0006 0.1710
vn 0.9847 -0.0005 0.1744
vn 0.4158 -0.0000 0.9095
vn 0.5453 -0.0924 -0.8331
vn 0.4646 -0.0000 -0.8855
vn 0.4930 -0.0314 -0.8695
vn 0.0705 0.0000 0.9975
vn 0.9560 -0.0000 0.2934
vn 0.9732 -0.0000 0.2301
vn 0.4904 0.8656 0.1006
vn 0.7290 -0.6139 0.3027
vn 0.9564 0.0000 0.2920
vn 0.9239 0.0000 0.3826
vn 0.4950 0.8444 0.2049
vn 0.4110 0.0000 0.9116
vn -0.0881 -0.7251 0.6830
vn -0.1834 -0.8047 0.5647
vn 0.9978 -0.0000 0.0670
vn 0.9233 0.0000 0.3840
vn 0.9737 0.0000 0.2276
vn 0.9921 0.0037 0.1251
vn 0.9795 0.0000 0.2016
vn 0.9796 0.0000 0.2012
vn 0.6142 -0.1809 -0.7682
vn 0.6732 -0.2673 -0.6895
vn 0.7301 -0.3684 -0.5755
vn 0.7519 -0.4170 -0.5107
vn 0.7786 -0.5043 -0.3733
vn 0.7824 -0.5277 -0.3308
vn 0.7787 -0.6060 -0.1621
vn 0.7770 -0.6122 -0.1464
vn 0.7488 -0.6628 0.0054
vn 0.7501 -0.6614 0.0003
vn 0.9978 0.0000 0.0665
vn 0.9962 -0.0000 0.0869
vn 0.0696 -0.5224 0.8498
vn 0.1165 -0.4469 0.8870
vn 0.5818 -0.0000 0.8134
vn 0.7505 -0.0000 0.6608
vn 0.8531 -0.2622 0.4510
vn 0.8805 -0.0000 0.4741
vn 0.8428 -0.4953 0.2109
vn 0.5149 -0.8513 0.1003
vn 0.3884 -0.9206 -0.0406
vn 0.3506 -0.9019 -0.2523
vn 0.4931 -0.8422 -0.2182
vn -0.6880 -0.0000 0.7257
vn 0.8818 -0.0001 0.4716
vn 0.8808 -0.0000 0.4735
vn 0.8457 -0.0000 0.5336
vn 0.8471 -0.0002 0.5314
vn 0.9144 0.3224 -0.2446
vn 0.9249 0.2114 -0.3159
vn 0.8473 -0.1947 -0.4942
vn 0.8751 -0.1138 -0.4704
vn 0.6792 -0.6333 0.3709
vn 0.6105 -0.6730 0.4176
vn 0.5636 -0.6833 0.4641
vn 0.5649 -0.6845 0.4608
vn 0.7993 -0.0585 0.5980
vn 0.7697 -0.1265 0.6257
vn 0.7503 -0.0000 0.6611
vn 0.7633 -0.0000 0.6461
vn 0.7697 -0.0004 0.6384
vn 0.4133 0.8453 0.3387
vn 0.4079 0.8447 0.3466
vn 0.4080 0.8447 0.3465
vn 0.8589 0.4998 -0.1121
vn 0.4751 0.8437 0.2501
vn 0.4740 0.8436 0.2523
vn 0.4556 0.8436 0.2842
vn 0.4552 0.8436 0.2847
vn 0.7852 -0.0006 0.6192
vn 0.8174 -0.0004 0.5760
vn 0.8160 -0.0004 0.5781
vn 0.8022 0.0009 0.5970
vn 0.7710 0.0003 0.6369
vn 0.9372 0.0000 -0.3488
vn -0.2045 -0.0919 0.9745
vn -0.2665 -0.0314 0.9633
vn -0.2977 -0.0000 0.9546
vn 0.7550 0.0000 -0.6557
vn 0.8835 0.0000 0.4684
vn 0.8480 0.0000 0.5300
vn 0.4148 0.8658 0.2799
vn 0.8828 0.0000 0.4697
vn 0.9354 0.0000 -0.3536
vn 0.2697 -0.8044 -0.5293
vn 0.4204 -0.7251 -0.5455
vn 0.7505 0.0000 0.6609
vn 0.8464 0.0000 0.5325
vn 0.7955 0.0027 0.6060
vn 0.8290 0.0000 0.5593
vn 0.8292 0.0000 0.5589
vn -0.0144 -0.2657 0.9639
vn -0.1103 -0.1803 0.9774
vn 0.1660 -0.4149 0.8946
vn 0.1060 -0.3670 0.9242
vn 0.3139 -0.5256 0.7907
vn 0.2819 -0.5026 0.8172
vn 0.4403 -0.6106 0.6582
vn 0.4311 -0.6048 0.6696
vn 0.5255 -0.6606 0.5362
vn 0.5285 -0.6622 0.5313
vn 0.7690 -0.0000 0.6392
vn 0.7501 -0.0000 0.6614
vn 0.7092 -0.4474 -0.5449
vn 0.6500 -0.5225 -0.5518
vn 0.9867 -0.0000 -0.1628
vn 0.9213 -0.2626 0.2869
vn 0.9979 -0.0000 0.0654
vn 0.9570 -0.0000 0.2902
vn 0.7434 -0.4952 0.4496
vn 0.4351 0.8508 0.2947
vn 0.2459 0.9203 0.3043
vn 0.0695 0.9017 0.4266
vn 0.1942 0.8419 0.5036
vn 0.9569 0.0002 0.2906
vn 0.9739 0.0002 0.2268
vn 0.4730 -0.3216 0.8203
vn 0.4302 -0.2113 0.8776
vn 0.2498 0.1944 0.9486
vn 0.2860 0.1136 0.9515
vn 0.7394 0.6372 0.2173
vn 0.7237 0.6767 0.1350
vn 0.7246 0.6853 0.0735
vn 0.7229 0.6867 0.0760
vn 0.9876 0.0584 0.1459
vn 0.9863 0.1266 0.1056
vn 0.9961 0.0006 0.0883
vn 0.5323 -0.8455 0.0417
vn 0.5337 -0.8448 0.0388
vn 0.5337 -0.8448 0.0389
vn 0.5274 -0.4990 0.6876
vn 0.5130 -0.8435 0.1591
vn 0.5138 -0.8434 0.1568
vn 0.5227 -0.8434 0.1240
vn 0.5228 -0.8435 0.1234
vn 0.9947 0.0009 0.1028
vn 0.9847 0.0005 0.1744
vn 0.9853 0.0006 0.1710
vn 0.9901 -0.0012 0.1400
vn 0.9959 -0.0004 0.0910
vn 0.5453 0.0924 -0.8331
vn 0.4930 0.0314 -0.8695
vn 0.4904 -0.8656 0.1006
vn 0.7290 0.6139 0.3027
vn 0.4950 -0.8444 0.2049
vn -0.1834 0.8047 0.5647
vn -0.0881 0.7251 0.6830
vn 0.9921 -0.0037 0.1251
vn 0.6732 0.2673 -0.6895
vn 0.6142 0.1809 -0.7682
vn 0.7519 0.4170 -0.5107
vn 0.7301 0.3684 -0.5755
vn 0.7824 0.5277 -0.3308
vn 0.7786 0.5043 -0.3733
vn 0.7770 0.6122 -0.1464
vn 0.7787 0.6061 -0.1621
vn 0.7501 0.6614 0.0003
vn 0.7488 0.6628 0.0054
vn 0.1165 0.4469 0.8870
vn 0.0696 0.5224 0.8498
vn 0.8532 0.2622 0.4510
vn 0.8428 0.4953 0.2109
vn 0.5149 0.8514 0.1003
vn 0.4931 0.8422 -0.2182
vn 0.3506 0.9019 -0.2523
vn 0.3885 0.9206 -0.0406
vn 0.8818 0.0001 0.4716
vn 0.8471 0.0002 0.5314
vn 0.9144 -0.3224 -0.2446
vn 0.8751 0.1138 -0.4704
vn 0.8473 0.1947 -0.4942
vn 0.9249 -0.2114 -0.3159
vn 0.6792 0.6333 0.3709
vn 0.5649 0.6845 0.4608
vn 0.5636 0.6833 0.4641
vn 0.6105 0.6730 0.4176
vn 0.7993 0.0585 0.5980
vn 0.7697 0.0004 0.6384
vn 0.7697 0.1265 0.6257
vn 0.4133 -0.8453 0.3387
vn 0.4080 -0.8447 0.3465
vn 0.4079 -0.8447 0.3466
vn 0.8589 -0.4998 -0.1121
vn 0.4751 -0.8437 0.2501
vn 0.4552 -0.8436 0.2847
vn 0.4556 -0.8436 0.2842
vn 0.4740 -0.8436 0.2523
vn 0.7852 0.0006 0.6192
vn 0.7710 -0.0003 0.6369
vn 0.8022 -0.0009 0.5970
vn 0.8160 0.0004 0.5781
vn 0.8174 0.0004 0.5760
vn -0.2045 0.0919 0.9745
vn -0.2665 0.0314 0.9633
vn 0.4148 -0.8658 0.2799
vn 0.4204 0.7250 -0.5455
vn 0.2697 0.8044 -0.5293
vn 0.7955 -0.0027 0.6060
vn -0.1103 0.1803 0.9774
vn -0.0144 0.2658 0.9639
vn 0.1060 0.3670 0.9242
vn 0.1660 0.4149 0.8946
vn 0.2819 0.5026 0.8172
vn 0.3139 0.5256 0.7907
vn 0.4311 0.6048 0.6697
vn 0.4403 0.6106 0.6582
vn 0.5285 0.6622 0.5313
vn 0.5255 0.6605 0.5362
vn 0.6500 0.5225 -0.5518
vn 0.7092 0.4473 -0.5449
vn 0.9213 0.2626 0.2869
vn 0.7434 0.4952 0.4496
vn 0.9796 0.0000 0.2010
vn 0.8776 -0.0000 0.4795
vn 0.8318 -0.0000 0.5551
vn 0.9797 -0.0000 0.2007
vn 0.5256 -0.8439 0.1076
vn 0.5256 0.8439 0.1076
vn 0.9814 0.0000 0.1918
vn 0.9942 -0.0000 0.1072
vn 0.5351 0.8440 0.0359
vn 0.5351 -0.8440 0.0359
vn 0.9966 0.0000 0.0830
vn 0.8289 -0.0000 0.5594
vn 0.8288 -0.0000 0.5596
vn 0.9596 -0.0000 0.2815
vn 0.4445 -0.8440 0.3002
vn 0.4445 0.8440 0.3002
vn 0.7873 -0.0000 0.6166
vn 0.7759 0.0000 0.6309
vn 0.4025 0.8440 0.3544
vn 0.4025 -0.8440 0.3544
vn 0.9229 -0.0000 0.3850
usemtl MI_Trim_01
s 1
f 6/1/1 256/2/2 253/3/2 2/4/1
f 7/5/3 228/6/4 229/7/4 3/8/5
f 6/1/1 8/9/1 258/10/2 256/2/2
f 8/9/1 6/1/1 2/4/1 4/11/1
f 5/12/3 7/5/3 3/8/5 1/13/5
f 61/14/6 57/15/7 31/16/8 33/17/9
f 21/18/10 19/19/10 16/20/10 14/21/10
f 38/22/11 207/23/12 218/24/13 39/25/14
f 10/26/15 55/27/16 58/28/17 13/29/18
f 25/30/19 219/31/20 207/23/21 38/22/22
f 60/32/23 231/33/24 222/34/25 12/35/26 13/36/26 58/37/27
f 21/38/28 14/39/28 223/40/29 222/41/30
f 10/26/15 13/29/18 12/42/31 11/43/31
f 24/44/32 220/45/33 206/46/34 23/47/35
f 19/48/36 231/33/24 232/49/37 43/50/38 42/51/39 18/52/40
f 64/53/41 61/14/42 33/17/42 34/54/41
f 40/55/43 22/56/44 37/57/44 49/58/45
f 18/59/46 20/60/46 15/61/46 17/62/46
f 23/63/47 206/64/48 214/65/48
f 19/19/49 18/66/49 17/67/49 16/20/49
f 9/68/50 25/30/19 38/22/22 36/69/50
f 23/63/47 25/70/51 26/71/52 28/72/52
f 24/44/32 23/47/35 28/73/53 27/74/53
f 29/75/54 30/76/54 32/77/54 31/78/54
f 57/79/7 54/80/55 29/75/56 31/78/8
f 31/16/57 32/81/57 34/54/57 33/17/57
f 36/69/58 38/22/11 39/25/14 35/82/58
f 23/63/47 214/65/48 219/83/59 25/70/51
f 40/84/60 44/85/61 45/86/61 46/87/61 47/88/61 41/89/62 42/51/39 43/50/38
f 40/55/43 49/58/45 53/90/63 44/91/64
f 44/91/64 53/90/63 52/92/65 45/93/66
f 45/93/66 52/92/65 51/94/67 46/95/68
f 46/95/68 51/94/67 50/96/69 47/97/70
f 47/97/70 50/96/69 48/98/71 41/99/72
f 60/32/23 63/100/73 221/101/74 232/49/37
f 54/80/55 57/79/7 59/102/75 56/103/76
f 56/103/76 59/102/75 58/28/17 55/27/16
f 61/14/77 64/53/77 65/104/78 62/105/79
f 62/105/79 65/104/78 63/100/80 60/32/23
f 60/32/23 58/37/27 59/106/81 62/105/79
f 62/105/79 59/106/81 57/15/7 61/14/6
f 112/107/82 86/108/83 84/109/84 108/110/85
f 77/111/86 70/112/86 72/113/86 75/114/86
f 89/115/87 90/116/88 235/117/89 240/118/90
f 66/119/91 69/120/92 109/121/93 106/122/94
f 81/123/95 89/115/96 240/118/97 236/124/98
f 111/125/99 109/126/100 69/127/101 68/128/101 249/129/102 250/130/103
f 77/131/104 249/132/105 251/133/106 70/134/104
f 66/119/91 67/135/107 68/136/107 69/120/92
f 80/137/108 79/138/109 243/139/110 248/140/111
f 75/141/112 74/142/113 93/143/114 94/144/115 252/145/116 250/130/103
f 115/146/117 87/147/117 86/108/117 112/107/117
f 91/148/118 100/149/119 88/150/120 78/151/120
f 74/152/121 73/153/121 71/154/121 76/155/121
f 79/156/122 241/157/123 243/158/123
f 75/114/124 72/113/124 73/159/124 74/160/124
f 9/68/50 36/69/50 89/115/96 81/123/95
f 79/156/122 28/72/52 26/71/52 81/161/125
f 80/137/108 27/74/53 28/73/53 79/138/109
f 82/162/126 84/163/126 85/164/126 83/165/126
f 108/166/85 84/163/84 82/162/127 105/167/128
f 84/109/129 86/108/129 87/147/129 85/168/129
f 36/69/58 35/82/58 90/116/88 89/115/87
f 79/156/122 81/161/125 236/169/130 241/157/123
f 91/170/131 94/144/115 93/143/114 92/171/132 98/172/133 97/173/133 96/174/133 95/175/133
f 91/148/118 95/176/134 104/177/135 100/149/119
f 95/176/134 96/178/136 103/179/137 104/177/135
f 96/178/136 97/180/138 102/181/139 103/179/137
f 97/180/138 98/182/140 101/183/141 102/181/139
f 98/182/140 92/184/142 99/185/143 101/183/141
f 111/125/99 252/145/116 254/186/144 114/187/145
f 105/167/128 107/188/146 110/189/147 108/166/85
f 107/188/146 106/122/94 109/121/93 110/189/147
f 112/107/148 113/190/149 116/191/57 115/146/148
f 113/190/149 111/125/99 114/187/150 116/191/57
f 111/125/99 113/190/149 110/192/151 109/126/100
f 113/190/149 112/107/82 108/110/85 110/192/151
f 162/193/152 138/194/153 137/195/154 158/196/155
f 129/197/10 122/198/10 124/199/10 127/200/10
f 140/201/156 39/25/14 218/24/13 213/202/157
f 118/203/158 121/204/159 159/205/160 156/206/161
f 132/207/162 140/201/163 213/202/164 210/208/165
f 161/209/166 159/210/167 121/211/26 120/212/26 225/213/25 230/214/168
f 129/215/169 225/216/170 227/217/171 122/218/169
f 118/203/158 119/219/172 120/220/172 121/204/159
f 131/221/173 130/222/174 209/223/175 212/224/176
f 127/225/177 126/226/178 143/227/179 144/228/180 233/229/181 230/214/168
f 64/53/41 34/54/41 138/194/41 162/193/41
f 141/230/182 150/231/183 37/57/44 22/56/44
f 126/232/46 125/233/46 123/234/46 128/235/46
f 130/236/47 216/237/48 209/238/48
f 127/200/184 124/199/184 125/239/184 126/240/184
f 117/241/185 139/242/185 140/201/163 132/207/162
f 130/236/47 135/243/52 133/244/52 132/245/51
f 131/221/173 134/246/186 135/247/186 130/222/174
f 136/248/54 137/249/54 32/77/54 30/76/54
f 158/250/155 137/249/154 136/248/187 155/251/188
f 137/195/57 138/194/57 34/54/57 32/81/57
f 139/242/58 35/82/58 39/25/14 140/201/156
f 130/236/47 132/245/51 210/252/59 216/237/48
f 141/253/189 144/228/180 143/227/179 142/254/62 148/255/61 147/256/61 146/257/61 145/258/61
f 141/230/182 145/259/190 154/260/191 150/231/183
f 145/259/190 146/261/192 153/262/193 154/260/191
f 146/261/192 147/263/194 152/264/195 153/262/193
f 147/263/194 148/265/196 151/266/197 152/264/195
f 148/265/196 142/267/198 149/268/199 151/266/197
f 161/209/166 233/229/181 221/101/74 63/100/73
f 155/251/188 157/269/200 160/270/201 158/250/155
f 157/269/200 156/206/161 159/205/160 160/270/201
f 162/193/77 163/271/202 65/104/78 64/53/77
f 163/271/202 161/209/166 63/100/80 65/104/78
f 161/209/166 163/271/202 160/272/203 159/210/167
f 163/271/202 162/193/152 158/196/155 160/272/203
f 204/273/204 200/274/205 180/275/206 181/276/207
f 175/277/86 173/278/86 170/279/86 168/280/86
f 182/281/208 238/282/209 235/117/89 90/116/88
f 164/283/210 198/284/211 201/285/212 167/286/213
f 178/287/214 247/288/215 238/282/216 182/281/217
f 203/289/218 257/290/219 259/291/102 166/292/101 167/293/101 201/294/220
f 175/295/221 168/296/221 261/297/222 259/298/223
f 164/283/210 167/286/213 166/299/224 165/300/224
f 177/301/225 245/302/226 237/303/227 176/304/228
f 173/305/229 257/290/219 260/306/230 186/307/231 185/308/232 172/309/233
f 115/146/117 204/273/117 181/276/117 87/147/117
f 183/310/234 78/151/120 88/150/120 192/311/235
f 172/312/121 174/313/121 169/314/121 171/315/121
f 176/316/122 237/317/123 234/318/123
f 173/278/236 172/319/236 171/320/236 170/279/236
f 117/241/185 178/287/214 182/281/217 139/242/185
f 176/316/122 178/321/125 133/244/52 135/243/52
f 177/301/225 176/304/228 135/247/186 134/246/186
f 179/322/126 83/165/126 85/164/126 180/323/126
f 200/324/205 197/325/237 179/322/238 180/323/206
f 180/275/129 85/168/129 87/147/129 181/276/129
f 139/242/58 182/281/208 90/116/88 35/82/58
f 176/316/122 234/318/123 247/326/130 178/321/125
f 183/327/239 187/328/133 188/329/133 189/330/133 190/331/133 184/332/132 185/308/232 186/307/231
f 183/310/234 192/311/235 196/333/240 187/334/241
f 187/334/241 196/333/240 195/335/242 188/336/243
f 188/336/243 195/335/242 194/337/244 189/338/245
f 189/338/245 194/337/244 193/339/246 190/340/247
f 190/340/247 193/339/246 191/341/248 184/342/249
f 203/289/218 114/187/145 254/186/144 260/306/230
f 197/325/237 200/324/205 202/343/250 199/344/251
f 199/344/251 202/343/250 201/285/212 198/284/211
f 204/273/148 115/146/148 116/191/57 205/345/252
f 205/345/252 116/191/57 114/187/150 203/289/218
f 203/289/218 201/294/220 202/346/253 205/345/252
f 205/345/252 202/346/253 200/274/205 204/273/204
f 209/238/48 216/237/48 126/226/178 128/347/254
f 214/65/48 206/64/48 20/348/254 18/52/40
f 210/208/165 213/202/164 149/268/199 142/267/198
f 271/349/255 273/350/255 246/351/256 242/352/256
f 213/202/157 218/24/13 37/57/257 150/231/257 154/260/257 153/262/257 152/264/257 151/266/257 149/268/257
f 218/24/13 207/23/12 48/98/257 50/96/257 51/94/257 52/92/257 53/90/257 49/58/257 37/57/257
f 207/23/21 219/31/20 41/99/72 48/98/71
f 212/224/176 209/223/175 128/235/258 123/234/258
f 206/46/34 220/45/33 15/61/259 20/60/259
f 216/237/48 210/252/59 142/254/62 143/227/179 126/226/178
f 219/83/59 214/65/48 18/52/40 42/51/39 41/89/62
f 208/353/260 215/354/260 226/355/4 224/356/4
f 215/354/260 217/357/260 228/6/4 226/355/4
f 232/49/37 231/33/24 60/32/23
f 221/101/74 233/229/181 144/228/180 141/253/189 22/358/261
f 222/41/30 223/40/29 11/43/262 12/42/262
f 229/7/4 228/6/4 217/357/260 211/359/260
f 224/356/4 226/355/4 5/12/3 1/13/5
f 227/217/171 225/216/170 120/220/263 119/219/263
f 230/214/168 233/229/181 161/209/166
f 226/355/4 228/6/4 7/5/3 5/12/3
f 230/214/168 225/213/25 129/360/264 127/225/177
f 222/34/25 231/33/24 19/48/36 21/361/264
f 232/49/37 221/101/74 22/358/261 40/84/60 43/50/38
f 247/326/130 234/318/123 172/309/233 185/308/232 184/332/132
f 241/157/123 236/169/130 92/171/132 93/143/114 74/142/113
f 242/352/256 246/351/256 258/10/2 255/362/2
f 234/318/123 237/317/123 174/363/265 172/309/233
f 243/158/123 241/157/123 74/142/113 76/364/265
f 240/118/90 235/117/89 88/150/266 100/149/266 104/177/266 103/179/266 102/181/266 101/183/266 99/185/266
f 266/365/267 268/366/267 215/354/260 208/353/260
f 268/366/267 269/367/267 217/357/260 215/354/260
f 235/117/89 238/282/209 191/341/266 193/339/266 194/337/266 195/335/266 196/333/266 192/311/266 88/150/266
f 238/282/216 247/288/215 184/342/249 191/341/248
f 236/124/98 240/118/97 99/185/143 92/184/142
f 237/303/227 245/302/226 169/314/268 174/313/268
f 248/140/111 243/139/110 76/155/269 71/154/269
f 254/186/144 252/145/116 94/144/115 91/170/131 78/368/270
f 250/130/103 252/145/116 111/125/99
f 253/3/2 256/2/2 244/369/256 239/370/256
f 250/130/103 249/129/102 77/371/271 75/141/112
f 256/2/2 258/10/2 246/351/256 244/369/256
f 259/291/102 257/290/219 173/305/229 175/372/271
f 260/306/230 254/186/144 78/368/270 183/327/239 186/307/231
f 251/133/106 249/132/105 68/136/272 67/135/272
f 260/306/230 257/290/219 203/289/218
f 255/362/2 258/10/2 8/9/1 4/11/1
f 259/298/223 261/297/222 165/300/273 166/299/273
f 272/373/255 273/350/255 265/374/274 264/375/274
f 270/376/255 272/373/255 264/375/274 262/377/274
f 267/378/267 269/367/267 265/374/274 263/379/274
f 211/359/260 217/357/260 269/367/267 267/378/267
f 264/375/274 265/374/274 269/367/267 268/366/267
f 262/377/274 264/375/274 268/366/267 266/365/267
f 239/370/256 244/369/256 272/373/255 270/376/255
f 244/369/256 246/351/256 273/350/255 272/373/255
f 263/379/274 265/374/274 273/350/255 271/349/255
f 277/380/275 527/381/276 524/382/276 1/383/5
f 278/384/277 499/385/278 500/386/278 275/387/277
f 277/380/275 279/388/275 529/389/276 527/381/276
f 279/388/275 277/380/275 1/383/5 3/390/5
f 276/391/277 278/384/277 275/387/277 274/392/277
f 332/393/279 328/394/280 302/395/281 304/396/282
f 292/397/283 290/398/283 287/399/283 285/400/283
f 309/401/284 478/402/285 489/403/286 310/404/287
f 281/405/288 326/406/289 329/407/290 284/408/291
f 296/409/292 490/410/293 478/402/294 309/401/295
f 331/411/296 502/412/297 493/413/298 283/414/299 284/415/299 329/416/300
f 292/417/301 285/418/301 494/419/302 493/420/303
f 281/405/288 284/408/291 283/421/304 282/422/304
f 295/423/305 491/424/306 477/425/307 294/426/308
f 290/427/309 502/412/297 503/428/310 314/429/311 313/430/312 289/431/313
f 335/432/314 332/393/314 304/396/314 305/433/314
f 311/434/315 293/435/316 308/436/316 320/437/317
f 289/438/318 291/439/318 286/440/318 288/441/318
f 294/442/319 477/443/320 485/444/320
f 290/398/321 289/445/321 288/446/321 287/399/321
f 280/447/322 296/409/292 309/401/295 307/448/322
f 294/442/319 296/449/323 297/450/324 299/451/324
f 295/423/305 294/426/308 299/452/325 298/453/325
f 300/454/326 301/455/326 303/456/326 302/457/326
f 328/458/280 325/459/327 300/454/328 302/457/281
f 302/395/329 303/460/329 305/433/329 304/396/329
f 307/448/330 309/401/284 310/404/287 306/461/330
f 294/442/319 485/444/320 490/462/331 296/449/323
f 311/463/332 315/464/333 316/465/333 317/466/333 318/467/333 312/468/334 313/430/312 314/429/311
f 311/434/315 320/437/317 324/469/335 315/470/336
f 315/470/336 324/469/335 323/471/337 316/472/338
f 316/472/338 323/471/337 322/473/339 317/474/340
f 317/474/340 322/473/339 321/475/341 318/476/342
f 318/476/342 321/475/341 319/477/343 312/478/344
f 331/411/296 334/479/345 492/480/346 503/428/310
f 325/459/327 328/458/280 330/481/347 327/482/348
f 327/482/348 330/481/347 329/407/290 326/406/289
f 332/393/349 335/432/349 336/483/350 333/484/351
f 333/484/351 336/483/350 334/479/352 331/411/296
f 331/411/296 329/416/300 330/485/353 333/484/351
f 333/484/351 330/485/353 328/394/280 332/393/279
f 383/486/354 357/487/355 355/488/356 379/489/357
f 348/490/358 341/491/358 343/492/358 346/493/358
f 360/494/359 361/495/360 506/496/361 511/497/362
f 337/498/363 340/499/364 380/500/365 377/501/366
f 352/502/367 360/494/368 511/497/369 507/503/370
f 382/504/371 380/505/372 340/506/373 339/507/373 520/508/374 521/509/375
f 348/510/376 520/511/377 522/512/378 341/513/376
f 337/498/363 338/514/379 339/515/379 340/499/364
f 351/516/380 350/517/381 514/518/382 519/519/383
f 346/520/384 345/521/385 364/522/386 365/523/387 523/524/388 521/509/375
f 386/525/389 358/526/389 357/487/389 383/486/389
f 362/527/390 371/528/391 359/529/392 349/530/392
f 345/531/393 344/532/393 342/533/393 347/534/393
f 350/535/394 512/536/395 514/537/395
f 346/493/396 343/492/396 344/538/396 345/539/396
f 280/447/322 307/448/322 360/494/368 352/502/367
f 350/535/394 299/451/324 297/450/324 352/540/397
f 351/516/380 298/453/325 299/452/325 350/517/381
f 353/541/398 355/542/398 356/543/398 354/544/398
f 379/545/357 355/542/356 353/541/399 376/546/400
f 355/488/401 357/487/401 358/526/401 356/547/401
f 307/448/330 306/461/330 361/495/360 360/494/359
f 350/535/394 352/540/397 507/548/402 512/536/395
f 362/549/403 365/523/387 364/522/386 363/550/404 369/551/405 368/552/405 367/553/405 366/554/405
f 362/527/390 366/555/406 375/556/407 371/528/391
f 366/555/406 367/557/408 374/558/409 375/556/407
f 367/557/408 368/559/410 373/560/411 374/558/409
f 368/559/410 369/561/412 372/562/413 373/560/411
f 369/561/412 363/563/414 370/564/415 372/562/413
f 382/504/371 523/524/388 525/565/416 385/566/417
f 376/546/400 378/567/418 381/568/419 379/545/357
f 378/567/418 377/501/366 380/500/365 381/568/419
f 383/486/420 384/569/421 387/570/422 386/525/420
f 384/569/421 382/504/371 385/566/423 387/570/422
f 382/504/371 384/569/421 381/571/424 380/505/372
f 384/569/421 383/486/354 379/489/357 381/571/424
f 433/572/425 409/573/426 408/574/427 429/575/428
f 400/576/283 393/577/283 395/578/283 398/579/283
f 411/580/429 310/404/287 489/403/286 484/581/430
f 389/582/431 392/583/432 430/584/433 427/585/434
f 403/586/435 411/580/436 484/581/437 481/587/438
f 432/588/439 430/589/440 392/590/299 391/591/299 496/592/298 501/593/441
f 400/594/442 496/595/443 498/596/444 393/597/442
f 389/582/431 390/598/445 391/599/445 392/583/432
f 402/600/446 401/601/447 480/602/448 483/603/449
f 398/604/450 397/605/451 414/606/452 415/607/453 504/608/454 501/593/441
f 335/432/314 305/433/314 409/573/314 433/572/314
f 412/609/455 421/610/456 308/436/316 293/435/316
f 397/611/318 396/612/318 394/613/318 399/614/318
f 401/615/319 487/616/320 480/617/320
f 398/579/457 395/578/457 396/618/457 397/619/457
f 388/620/458 410/621/458 411/580/436 403/586/435
f 401/615/319 406/622/324 404/623/324 403/624/323
f 402/600/446 405/625/459 406/626/459 401/601/447
f 407/627/326 408/628/326 303/456/326 301/455/326
f 429/629/428 408/628/427 407/627/460 426/630/461
f 408/574/329 409/573/329 305/433/329 303/460/329
f 410/621/330 306/461/330 310/404/287 411/580/429
f 401/615/319 403/624/323 481/631/331 487/616/320
f 412/632/462 415/607/453 414/606/452 413/633/334 419/634/333 418/635/333 417/636/333 416/637/333
f 412/609/455 416/638/463 425/639/464 421/610/456
f 416/638/463 417/640/465 424/641/466 425/639/464
f 417/640/465 418/642/467 423/643/468 424/641/466
f 418/642/467 419/644/469 422/645/470 423/643/468
f 419/644/469 413/646/471 420/647/472 422/645/470
f 432/588/439 504/608/454 492/480/346 334/479/345
f 426/630/461 428/648/473 431/649/474 429/629/428
f 428/648/473 427/585/434 430/584/433 431/649/474
f 433/572/349 434/650/475 336/483/350 335/432/349
f 434/650/475 432/588/439 334/479/352 336/483/350
f 432/588/439 434/650/475 431/651/476 430/589/440
f 434/650/475 433/572/425 429/575/428 431/651/476
f 475/652/477 471/653/478 451/654/479 452/655/480
f 446/656/358 444/657/358 441/658/358 439/659/358
f 453/660/481 509/661/482 506/496/361 361/495/360
f 435/662/483 469/663/484 472/664/485 438/665/486
f 449/666/487 518/667/488 509/661/489 453/660/490
f 474/668/491 528/669/492 530/670/374 437/671/373 438/672/373 472/673/493
f 446/674/494 439/675/494 532/676/495 530/677/496
f 435/662/483 438/665/486 437/678/497 436/679/497
f 448/680/498 516/681/499 508/682/500 447/683/501
f 444/684/502 528/669/492 531/685/503 457/686/504 456/687/505 443/688/506
f 386/525/389 475/652/389 452/655/389 358/526/389
f 454/689/507 349/530/392 359/529/392 463/690/508
f 443/691/393 445/692/393 440/693/393 442/694/393
f 447/695/394 508/696/395 505/697/395
f 444/657/509 443/698/509 442/699/509 441/658/509
f 388/620/458 449/666/487 453/660/490 410/621/458
f 447/695/394 449/700/397 404/623/324 406/622/324
f 448/680/498 447/683/501 406/626/459 405/625/459
f 450/701/398 354/544/398 356/543/398 451/702/398
f 471/703/478 468/704/510 450/701/511 451/702/479
f 451/654/401 356/547/401 358/526/401 452/655/401
f 410/621/330 453/660/481 361/495/360 306/461/330
f 447/695/394 505/697/395 518/705/402 449/700/397
f 454/706/512 458/707/405 459/708/405 460/709/405 461/710/405 455/711/404 456/687/505 457/686/504
f 454/689/507 463/690/508 467/712/513 458/713/514
f 458/713/514 467/712/513 466/714/515 459/715/516
f 459/715/516 466/714/515 465/716/517 460/717/518
f 460/717/518 465/716/517 464/718/519 461/719/520
f 461/719/520 464/718/519 462/720/521 455/721/522
f 474/668/491 385/566/417 525/565/416 531/685/503
f 468/704/510 471/703/478 473/722/523 470/723/524
f 470/723/524 473/722/523 472/664/485 469/663/484
f 475/652/420 386/525/420 387/570/422 476/724/525
f 476/724/525 387/570/422 385/566/423 474/668/491
f 474/668/491 472/673/493 473/725/526 476/724/525
f 476/724/525 473/725/526 471/653/478 475/652/477
f 480/617/320 487/616/320 397/605/451 399/726/527
f 485/444/320 477/443/320 291/727/527 289/431/313
f 481/587/438 484/581/437 420/647/472 413/646/471
f 542/728/528 544/729/528 517/730/529 513/731/529
f 484/581/430 489/403/286 308/436/530 421/610/530 425/639/530 424/641/530 423/643/530 422/645/530 420/647/530
f 489/403/286 478/402/285 319/477/530 321/475/530 322/473/530 323/471/530 324/469/530 320/437/530 308/436/530
f 478/402/294 490/410/293 312/478/344 319/477/343
f 483/603/449 480/602/448 399/614/531 394/613/531
f 477/425/307 491/424/306 286/440/532 291/439/532
f 487/616/320 481/631/331 413/633/334 414/606/452 397/605/451
f 490/462/331 485/444/320 289/431/313 313/430/312 312/468/334
f 479/732/533 486/733/533 497/734/278 495/735/278
f 486/733/533 488/736/533 499/385/278 497/734/278
f 503/428/310 502/412/297 331/411/296
f 492/480/346 504/608/454 415/607/453 412/632/462 293/737/534
f 493/420/303 494/419/302 282/422/535 283/421/535
f 500/386/278 499/385/278 488/736/533 482/738/533
f 495/735/278 497/734/278 276/391/277 274/392/277
f 498/596/444 496/595/443 391/599/536 390/598/536
f 501/593/441 504/608/454 432/588/439
f 497/734/278 499/385/278 278/384/277 276/391/277
f 501/593/441 496/592/298 400/739/537 398/604/450
f 493/413/298 502/412/297 290/427/309 292/740/537
f 503/428/310 492/480/346 293/737/534 311/463/332 314/429/311
f 518/705/402 505/697/395 443/688/506 456/687/505 455/711/404
f 512/536/395 507/548/402 363/550/404 364/522/386 345/521/385
f 513/731/529 517/730/529 529/389/276 526/741/276
f 505/697/395 508/696/395 445/742/538 443/688/506
f 514/537/395 512/536/395 345/521/385 347/743/538
f 511/497/362 506/496/361 359/529/539 371/528/539 375/556/539 374/558/539 373/560/539 372/562/539 370/564/539
f 537/744/540 539/745/540 486/733/533 479/732/533
f 539/745/540 540/746/540 488/736/533 486/733/533
f 506/496/361 509/661/482 462/720/539 464/718/539 465/716/539 466/714/539 467/712/539 463/690/539 359/529/539
f 509/661/489 518/667/488 455/721/522 462/720/521
f 507/503/370 511/497/369 370/564/415 363/563/414
f 508/682/500 516/681/499 440/693/541 445/692/541
f 519/519/383 514/518/382 347/534/542 342/533/542
f 525/565/416 523/524/388 365/523/387 362/549/403 349/747/543
f 521/509/375 523/524/388 382/504/371
f 524/382/276 527/381/276 515/748/529 510/749/529
f 521/509/375 520/508/374 348/750/544 346/520/384
f 527/381/276 529/389/276 517/730/529 515/748/529
f 530/670/374 528/669/492 444/684/502 446/751/544
f 531/685/503 525/565/416 349/747/543 454/706/512 457/686/504
f 522/512/378 520/511/377 339/515/545 338/514/545
f 531/685/503 528/669/492 474/668/491
f 526/741/276 529/389/276 279/388/275 3/390/5
f 530/677/496 532/676/495 436/679/546 437/678/546
f 543/752/528 544/729/528 536/753/547 535/754/547
f 541/755/528 543/752/528 535/754/547 533/756/547
f 538/757/540 540/746/540 536/753/547 534/758/547
f 482/738/533 488/736/533 540/746/540 538/757/540
f 535/754/547 536/753/547 540/746/540 539/745/540
f 533/756/547 535/754/547 539/745/540 537/744/540
f 510/749/529 515/748/529 543/752/528 541/755/528
f 515/748/529 517/730/529 544/729/528 543/752/528
f 534/758/547 536/753/547 544/729/528 542/728/528
