# Blender v3.6.0 OBJ File: 'AllModules_Unreal.blend'
# www.blender.org
mtllib TopPadded_Flat_Straight.mtl
o TopPadded_Flat_Straight_Plane.026
v -2.000000 4.000379 0.999975
v -2.000000 4.000379 2.000000
v -2.000000 3.000000 0.999975
v -2.000000 3.000000 2.000000
v -2.000000 5.000757 0.999975
v -2.000000 5.000757 2.000000
v -2.000000 5.000757 -0.000025
v -2.000000 3.112653 1.769501
v -2.000000 3.802597 1.089872
v -2.000000 3.112653 1.094944
v -2.000000 3.202144 1.908975
v -2.000000 3.886314 1.896296
v -2.000000 3.906522 1.221740
v -2.000000 4.766787 1.903902
v -2.000000 4.108597 1.914046
v -2.000000 4.091276 1.211595
v -2.000000 4.203860 1.094942
v -2.000000 4.888031 1.100014
v -2.000000 4.908239 1.805001
v -2.000000 4.189427 0.909820
v -2.000000 4.896692 0.902213
v -2.000000 4.908239 0.202297
v -2.000000 4.102823 0.788096
v -2.000000 4.795655 0.100861
v -2.000000 4.117258 0.105933
v -2.000000 3.796823 0.909820
v -2.000000 3.101105 0.197226
v -2.000000 3.101105 0.902213
v -2.000000 3.903635 0.098325
v -2.000000 3.202143 0.085645
v -2.000000 3.912295 0.803311
v -1.933032 3.347347 0.671587
v -1.933032 3.688553 0.303163
v -1.933032 4.307346 0.345401
v -1.933032 4.643541 0.716282
v -1.933032 4.685240 1.343578
v -1.933032 4.343832 1.700723
v -1.933032 3.694899 1.712170
v -1.933032 3.353492 1.327551
v -2.000000 4.000379 -1.000025
v -2.000000 4.000379 0.000000
v -2.000000 3.000000 -1.000025
v -2.000000 3.000000 0.000000
v -2.000000 5.000757 -1.000025
v -2.000000 3.112653 -0.230499
v -2.000000 3.802597 -0.910128
v -2.000000 3.112653 -0.905056
v -2.000000 3.202144 -0.091025
v -2.000000 3.886314 -0.103704
v -2.000000 3.906522 -0.778260
v -2.000000 4.766787 -0.096098
v -2.000000 4.108597 -0.085954
v -2.000000 4.091276 -0.788405
v -2.000000 4.203860 -0.905058
v -2.000000 4.888031 -0.899986
v -2.000000 4.908239 -0.194999
v -2.000000 4.189427 -1.090180
v -2.000000 4.896692 -1.097787
v -2.000000 4.908239 -1.797703
v -2.000000 4.102823 -1.211904
v -2.000000 4.795655 -1.899139
v -2.000000 4.117258 -1.894067
v -2.000000 3.796823 -1.090180
v -2.000000 3.101105 -1.802774
v -2.000000 3.101105 -1.097787
v -2.000000 3.903635 -1.901675
v -2.000000 3.912295 -1.196689
v -2.000000 3.202143 -1.914355
v -1.933032 3.347347 -1.328413
v -1.933032 3.688553 -1.696837
v -1.933032 4.307346 -1.654599
v -1.933032 4.643541 -1.283718
v -1.933032 4.685240 -0.656422
v -1.933032 4.343832 -0.299277
v -1.933032 3.694899 -0.287830
v -1.933032 3.353492 -0.672449
v -2.000000 4.000379 -2.000000
v -2.000000 3.000000 -2.000000
v -2.000000 5.000757 -2.000000
v -1.990115 3.000157 -0.001736
v -1.990115 3.000157 -2.000000
v -1.990115 4.000000 -0.001736
v -1.990115 3.000157 -1.004094
v -1.990115 3.000157 -0.988704
v -1.990115 4.000000 -2.000000
v -1.990115 4.000000 -0.996398
v -1.990115 3.049724 -0.869994
v -1.990115 3.120442 -0.940887
v -1.990115 3.052134 -0.888342
v -1.990115 3.059199 -0.905441
v -1.990115 3.070437 -0.920123
v -1.990115 3.085083 -0.931390
v -1.990115 3.102139 -0.938472
v -1.990115 3.793676 -0.940887
v -1.990115 3.815032 -0.869667
v -1.990115 3.815170 -0.938461
v -1.990115 3.830358 -0.931346
v -1.990115 3.838204 -0.920028
v -1.990115 3.838174 -0.905278
v -1.990115 3.830271 -0.888100
v -1.990115 3.120768 -0.173671
v -1.990115 3.049725 -0.195080
v -1.990115 3.102380 -0.158394
v -1.990115 3.085246 -0.150471
v -1.990115 3.070532 -0.150441
v -1.990115 3.059242 -0.158307
v -1.990115 3.052145 -0.173532
v -1.990115 3.049725 -1.797718
v -1.990115 3.120768 -1.819126
v -1.990115 3.052145 -1.819265
v -1.990115 3.059243 -1.834491
v -1.990115 3.070532 -1.842357
v -1.990115 3.085247 -1.842327
v -1.990115 3.102381 -1.834404
v -1.990115 3.815032 -1.123130
v -1.990115 3.793676 -1.051910
v -1.990115 3.830271 -1.104697
v -1.990115 3.838175 -1.087520
v -1.990115 3.838204 -1.072770
v -1.990115 3.830357 -1.061451
v -1.990115 3.815170 -1.054336
v -1.990115 3.120442 -1.051910
v -1.990115 3.049724 -1.122804
v -1.990115 3.102139 -1.054325
v -1.990115 3.085083 -1.061407
v -1.990115 3.070437 -1.072674
v -1.990115 3.059199 -1.087357
v -1.990115 3.052134 -1.104455
v -1.990115 3.197496 -0.046940
v -1.990115 3.176141 -0.118160
v -1.990115 3.176002 -0.049366
v -1.990115 3.160815 -0.056481
v -1.990115 3.152968 -0.067799
v -1.990115 3.152998 -0.082550
v -1.990115 3.160902 -0.099727
v -1.990115 3.870404 -0.814156
v -1.990115 3.941448 -0.792746
v -1.990115 3.888792 -0.829433
v -1.990115 3.905926 -0.837356
v -1.990115 3.920640 -0.837385
v -1.990115 3.931930 -0.829520
v -1.990115 3.939027 -0.814294
v -1.990115 3.941448 -0.117833
v -1.990115 3.870730 -0.046939
v -1.990115 3.939038 -0.099484
v -1.990115 3.931974 -0.082386
v -1.990115 3.920735 -0.067703
v -1.990115 3.906089 -0.056437
v -1.990115 3.889033 -0.049355
v -1.990115 3.941448 -1.200050
v -1.990115 3.870404 -1.178641
v -1.990115 3.939027 -1.178503
v -1.990115 3.931930 -1.163277
v -1.990115 3.920640 -1.155411
v -1.990115 3.905926 -1.155441
v -1.990115 3.888792 -1.163364
v -1.990115 3.176141 -1.874638
v -1.990115 3.197497 -1.945859
v -1.990115 3.160902 -1.893071
v -1.990115 3.152998 -1.910248
v -1.990115 3.152968 -1.924999
v -1.990115 3.160815 -1.936317
v -1.990115 3.176003 -1.943432
v -1.990115 3.870731 -1.945858
v -1.990115 3.941448 -1.874964
v -1.990115 3.889034 -1.943443
v -1.990115 3.906089 -1.936360
v -1.990115 3.920736 -1.925094
v -1.990115 3.931974 -1.910411
v -1.990115 3.939039 -1.893313
v -2.034280 2.999842 -2.000000
v -2.034280 2.999842 -1.004094
v -2.034280 2.999842 -0.988705
v -2.034280 4.000000 -2.000000
v -2.034279 2.999842 -0.001736
v -2.034279 3.049928 -0.869993
v -2.034280 3.120614 -0.940888
v -2.034280 3.052336 -0.888342
v -2.034279 3.059398 -0.905441
v -2.034280 3.070631 -0.920124
v -2.034280 3.085271 -0.931390
v -2.034279 3.102319 -0.938473
v -2.034280 3.793544 -0.940888
v -2.034280 3.814890 -0.869667
v -2.034280 3.815028 -0.938461
v -2.034279 3.830209 -0.931346
v -2.034280 3.838053 -0.920028
v -2.034279 3.838023 -0.905277
v -2.034279 3.830123 -0.888100
v -2.034279 3.120939 -0.173671
v -2.034279 3.049928 -0.195080
v -2.034279 3.102560 -0.158394
v -2.034279 3.085433 -0.150471
v -2.034279 3.070727 -0.150441
v -2.034279 3.059441 -0.158307
v -2.034279 3.052347 -0.173532
v -2.034280 3.049928 -1.797718
v -2.034280 3.120939 -1.819127
v -2.034280 3.052348 -1.819266
v -2.034280 3.059442 -1.834491
v -2.034280 3.070727 -1.842357
v -2.034280 3.085434 -1.842327
v -2.034280 3.102560 -1.834404
v -2.034279 3.814890 -1.123130
v -2.034280 3.793544 -1.051910
v -2.034279 3.830123 -1.104698
v -2.034279 3.838023 -1.087520
v -2.034280 3.838053 -1.072770
v -2.034280 3.830209 -1.061451
v -2.034280 3.815028 -1.054336
v -2.034279 3.120613 -1.051910
v -2.034280 3.049928 -1.122804
v -2.034279 3.102319 -1.054326
v -2.034280 3.085271 -1.061408
v -2.034279 3.070631 -1.072674
v -2.034279 3.059398 -1.087357
v -2.034279 3.052336 -1.104455
v -2.034279 3.197633 -0.046940
v -2.034279 3.176287 -0.118160
v -2.034279 3.176148 -0.049366
v -2.034279 3.160968 -0.056481
v -2.034279 3.153125 -0.067799
v -2.034279 3.153155 -0.082550
v -2.034279 3.161055 -0.099727
v -2.034279 3.870238 -0.814155
v -2.034279 3.941249 -0.792746
v -2.034279 3.888617 -0.829432
v -2.034279 3.905744 -0.837356
v -2.034279 3.920451 -0.837385
v -2.034279 3.931736 -0.829520
v -2.034279 3.938830 -0.814294
v -2.034279 3.941249 -0.117833
v -2.034279 3.870563 -0.046939
v -2.034279 3.938841 -0.099484
v -2.034279 3.931779 -0.082386
v -2.034279 3.920546 -0.067703
v -2.034279 3.905906 -0.056437
v -2.034279 3.888859 -0.049355
v -2.034280 3.941249 -1.200050
v -2.034280 3.870238 -1.178641
v -2.034280 3.938830 -1.178503
v -2.034280 3.931736 -1.163277
v -2.034280 3.920451 -1.155411
v -2.034279 3.905744 -1.155441
v -2.034280 3.888617 -1.163364
v -2.034280 3.176287 -1.874638
v -2.034280 3.197634 -1.945859
v -2.034280 3.161055 -1.893072
v -2.034280 3.153155 -1.910248
v -2.034280 3.153125 -1.924999
v -2.034280 3.160968 -1.936317
v -2.034280 3.176149 -1.943432
v -2.034280 3.870564 -1.945858
v -2.034280 3.941250 -1.874964
v -2.034280 3.888859 -1.943443
v -2.034280 3.905907 -1.936360
v -2.034280 3.920547 -1.925094
v -2.034280 3.931780 -1.910411
v -2.034280 3.938841 -1.893313
v -1.990114 3.000157 2.000000
v -1.990115 3.000157 1.000622
v -1.990115 3.000157 0.985233
v -1.990114 4.000000 2.000000
v -1.990114 4.000000 0.992927
v -1.990114 3.049725 0.866522
v -1.990115 3.120443 0.937417
v -1.990115 3.052135 0.884871
v -1.990115 3.059199 0.901969
v -1.990115 3.070437 0.916652
v -1.990115 3.085084 0.927919
v -1.990115 3.102139 0.935001
v -1.990115 3.793676 0.937416
v -1.990115 3.815032 0.866195
v -1.990115 3.815170 0.934989
v -1.990115 3.830358 0.927874
v -1.990115 3.838205 0.916556
v -1.990115 3.838175 0.901806
v -1.990115 3.830271 0.884629
v -1.990115 3.120768 0.170199
v -1.990115 3.049725 0.191608
v -1.990115 3.102380 0.154922
v -1.990115 3.085246 0.146999
v -1.990115 3.070532 0.146970
v -1.990115 3.059242 0.154835
v -1.990115 3.052145 0.170061
v -1.990114 3.049725 1.794246
v -1.990114 3.120769 1.815655
v -1.990114 3.052146 1.815794
v -1.990114 3.059243 1.831019
v -1.990114 3.070533 1.838885
v -1.990114 3.085247 1.838856
v -1.990114 3.102381 1.830932
v -1.990115 3.815032 1.119658
v -1.990115 3.793676 1.048438
v -1.990115 3.830271 1.101226
v -1.990114 3.838175 1.084048
v -1.990115 3.838205 1.069298
v -1.990114 3.830358 1.057980
v -1.990115 3.815170 1.050864
v -1.990115 3.120443 1.048438
v -1.990114 3.049725 1.119332
v -1.990114 3.102140 1.050854
v -1.990114 3.085084 1.057936
v -1.990114 3.070437 1.069203
v -1.990115 3.059199 1.083885
v -1.990114 3.052135 1.100984
v -1.990115 3.197496 0.043467
v -1.990115 3.176141 0.114688
v -1.990115 3.176002 0.045894
v -1.990115 3.160815 0.053009
v -1.990115 3.152968 0.064327
v -1.990115 3.152998 0.079078
v -1.990115 3.160902 0.096255
v -1.990115 3.870405 0.810684
v -1.990114 3.941448 0.789274
v -1.990115 3.888792 0.825961
v -1.990115 3.905926 0.833885
v -1.990115 3.920640 0.833914
v -1.990115 3.931930 0.826048
v -1.990114 3.939028 0.810822
v -1.990115 3.941448 0.114362
v -1.990115 3.870730 0.043467
v -1.990115 3.939038 0.096012
v -1.990115 3.931974 0.078914
v -1.990115 3.920735 0.064231
v -1.990115 3.906089 0.052965
v -1.990115 3.889033 0.045883
v -1.990114 3.941448 1.196579
v -1.990114 3.870405 1.175169
v -1.990114 3.939028 1.175031
v -1.990115 3.931930 1.159806
v -1.990114 3.920640 1.151939
v -1.990114 3.905927 1.151969
v -1.990114 3.888792 1.159892
v -1.990114 3.176142 1.871166
v -1.990114 3.197498 1.942387
v -1.990114 3.160903 1.889600
v -1.990114 3.152999 1.906777
v -1.990114 3.152969 1.921527
v -1.990114 3.160815 1.932845
v -1.990114 3.176004 1.939960
v -1.990114 3.870731 1.942387
v -1.990114 3.941449 1.871493
v -1.990114 3.889035 1.939971
v -1.990114 3.906090 1.932888
v -1.990114 3.920737 1.921622
v -1.990114 3.931975 1.906940
v -1.990114 3.939039 1.889841
v -2.034279 2.999842 2.000001
v -2.034279 2.999842 1.000622
v -2.034279 2.999842 0.985233
v -2.034279 4.000000 2.000000
v -2.034279 3.049928 0.866522
v -2.034279 3.120614 0.937416
v -2.034279 3.052336 0.884871
v -2.034279 3.059398 0.901969
v -2.034279 3.070631 0.916652
v -2.034279 3.085271 0.927919
v -2.034279 3.102319 0.935001
v -2.034279 3.793544 0.937416
v -2.034279 3.814891 0.866195
v -2.034279 3.815029 0.934989
v -2.034279 3.830210 0.927875
v -2.034279 3.838053 0.916556
v -2.034279 3.838023 0.901806
v -2.034279 3.830123 0.884629
v -2.034279 3.120939 0.170199
v -2.034279 3.049928 0.191608
v -2.034279 3.102560 0.154922
v -2.034279 3.085433 0.146999
v -2.034279 3.070727 0.146970
v -2.034279 3.059441 0.154835
v -2.034279 3.052347 0.170061
v -2.034279 3.049929 1.794246
v -2.034279 3.120940 1.815655
v -2.034279 3.052349 1.815794
v -2.034279 3.059443 1.831020
v -2.034279 3.070727 1.838886
v -2.034279 3.085435 1.838856
v -2.034279 3.102561 1.830933
v -2.034279 3.814891 1.119658
v -2.034279 3.793544 1.048438
v -2.034279 3.830123 1.101226
v -2.034279 3.838023 1.084048
v -2.034279 3.838053 1.069298
v -2.034279 3.830209 1.057980
v -2.034279 3.815029 1.050865
v -2.034279 3.120614 1.048438
v -2.034279 3.049928 1.119332
v -2.034279 3.102319 1.050854
v -2.034279 3.085271 1.057936
v -2.034279 3.070631 1.069203
v -2.034279 3.059398 1.083886
v -2.034279 3.052337 1.100984
v -2.034279 3.197633 0.043467
v -2.034279 3.176287 0.114688
v -2.034279 3.176148 0.045894
v -2.034279 3.160968 0.053009
v -2.034279 3.153125 0.064327
v -2.034279 3.153155 0.079078
v -2.034279 3.161055 0.096255
v -2.034279 3.870239 0.810684
v -2.034279 3.941250 0.789274
v -2.034279 3.888617 0.825961
v -2.034279 3.905744 0.833885
v -2.034279 3.920451 0.833914
v -2.034279 3.931736 0.826048
v -2.034279 3.938830 0.810822
v -2.034279 3.941249 0.114362
v -2.034279 3.870563 0.043467
v -2.034279 3.938841 0.096012
v -2.034279 3.931779 0.078914
v -2.034279 3.920546 0.064231
v -2.034279 3.905906 0.052965
v -2.034279 3.888859 0.045883
v -2.034279 3.941250 1.196579
v -2.034279 3.870239 1.175169
v -2.034279 3.938831 1.175031
v -2.034279 3.931736 1.159806
v -2.034279 3.920451 1.151939
v -2.034279 3.905744 1.151969
v -2.034279 3.888618 1.159892
v -2.034279 3.176288 1.871166
v -2.034279 3.197634 1.942388
v -2.034279 3.161056 1.889600
v -2.034279 3.153156 1.906777
v -2.034279 3.153126 1.921527
v -2.034279 3.160969 1.932846
v -2.034279 3.176150 1.939960
v -2.034279 3.870565 1.942387
v -2.034279 3.941250 1.871493
v -2.034279 3.888860 1.939971
v -2.034279 3.905907 1.932888
v -2.034279 3.920547 1.921622
v -2.034279 3.931781 1.906940
v -2.034279 3.938842 1.889841
v -1.990115 4.999845 -0.001736
v -1.990115 4.999845 -2.000000
v -1.990115 4.999845 -1.004094
v -1.990115 4.999845 -0.988704
v -1.990115 4.950277 -0.869994
v -1.990115 4.879559 -0.940887
v -1.990115 4.947867 -0.888342
v -1.990115 4.940803 -0.905441
v -1.990115 4.929564 -0.920123
v -1.990115 4.914918 -0.931390
v -1.990115 4.897862 -0.938472
v -1.990115 4.206326 -0.940887
v -1.990115 4.184970 -0.869667
v -1.990115 4.184831 -0.938461
v -1.990115 4.169643 -0.931346
v -1.990115 4.161797 -0.920028
v -1.990115 4.161827 -0.905278
v -1.990115 4.169730 -0.888100
v -1.990115 4.879233 -0.173671
v -1.990115 4.950276 -0.195080
v -1.990115 4.897621 -0.158394
v -1.990115 4.914756 -0.150471
v -1.990115 4.929469 -0.150441
v -1.990115 4.940759 -0.158307
v -1.990115 4.947856 -0.173532
v -1.990115 4.950277 -1.797718
v -1.990115 4.879233 -1.819126
v -1.990115 4.947856 -1.819265
v -1.990115 4.940759 -1.834491
v -1.990115 4.929469 -1.842357
v -1.990115 4.914754 -1.842327
v -1.990115 4.897620 -1.834404
v -1.990115 4.184969 -1.123130
v -1.990115 4.206326 -1.051910
v -1.990115 4.169730 -1.104697
v -1.990115 4.161827 -1.087520
v -1.990115 4.161797 -1.072770
v -1.990115 4.169644 -1.061451
v -1.990115 4.184831 -1.054336
v -1.990115 4.879559 -1.051910
v -1.990115 4.950277 -1.122804
v -1.990115 4.897862 -1.054325
v -1.990115 4.914918 -1.061407
v -1.990115 4.929564 -1.072674
v -1.990115 4.940803 -1.087357
v -1.990115 4.947867 -1.104455
v -1.990115 4.802505 -0.046940
v -1.990115 4.823860 -0.118160
v -1.990115 4.823999 -0.049366
v -1.990115 4.839186 -0.056481
v -1.990115 4.847033 -0.067799
v -1.990115 4.847003 -0.082550
v -1.990115 4.839099 -0.099727
v -1.990115 4.129597 -0.814156
v -1.990115 4.058554 -0.792746
v -1.990115 4.111209 -0.829433
v -1.990115 4.094075 -0.837356
v -1.990115 4.079361 -0.837385
v -1.990115 4.068071 -0.829520
v -1.990115 4.060974 -0.814294
v -1.990115 4.058554 -0.117833
v -1.990115 4.129272 -0.046939
v -1.990115 4.060963 -0.099484
v -1.990115 4.068027 -0.082386
v -1.990115 4.079266 -0.067703
v -1.990115 4.093912 -0.056437
v -1.990115 4.110968 -0.049355
v -1.990115 4.058554 -1.200050
v -1.990115 4.129597 -1.178641
v -1.990115 4.060974 -1.178503
v -1.990115 4.068071 -1.163277
v -1.990115 4.079361 -1.155411
v -1.990115 4.094075 -1.155441
v -1.990115 4.111209 -1.163364
v -1.990115 4.823860 -1.874638
v -1.990115 4.802505 -1.945859
v -1.990115 4.839099 -1.893071
v -1.990115 4.847003 -1.910248
v -1.990115 4.847033 -1.924999
v -1.990115 4.839186 -1.936317
v -1.990115 4.823998 -1.943432
v -1.990115 4.129271 -1.945858
v -1.990115 4.058553 -1.874964
v -1.990115 4.110967 -1.943443
v -1.990115 4.093912 -1.936360
v -1.990115 4.079266 -1.925094
v -1.990115 4.068027 -1.910411
v -1.990115 4.060963 -1.893313
v -2.034280 5.000159 -2.000000
v -2.034280 5.000159 -1.004094
v -2.034280 5.000159 -0.988705
v -2.034279 5.000159 -0.001736
v -2.034279 4.950073 -0.869993
v -2.034280 4.879387 -0.940888
v -2.034280 4.947665 -0.888342
v -2.034279 4.940603 -0.905441
v -2.034280 4.929370 -0.920124
v -2.034280 4.914731 -0.931390
v -2.034279 4.897682 -0.938473
v -2.034280 4.206457 -0.940888
v -2.034280 4.185111 -0.869667
v -2.034280 4.184973 -0.938461
v -2.034279 4.169792 -0.931346
v -2.034280 4.161949 -0.920028
v -2.034279 4.161978 -0.905277
v -2.034279 4.169878 -0.888100
v -2.034279 4.879062 -0.173671
v -2.034279 4.950073 -0.195080
v -2.034279 4.897441 -0.158394
v -2.034279 4.914568 -0.150471
v -2.034279 4.929275 -0.150441
v -2.034279 4.940559 -0.158307
v -2.034279 4.947654 -0.173532
v -2.034280 4.950073 -1.797718
v -2.034280 4.879062 -1.819127
v -2.034280 4.947653 -1.819266
v -2.034280 4.940559 -1.834491
v -2.034280 4.929275 -1.842357
v -2.034280 4.914567 -1.842327
v -2.034280 4.897441 -1.834404
v -2.034279 4.185111 -1.123130
v -2.034280 4.206457 -1.051910
v -2.034279 4.169878 -1.104698
v -2.034279 4.161978 -1.087520
v -2.034280 4.161949 -1.072770
v -2.034280 4.169793 -1.061451
v -2.034280 4.184973 -1.054336
v -2.034279 4.879388 -1.051910
v -2.034280 4.950073 -1.122804
v -2.034279 4.897682 -1.054326
v -2.034280 4.914731 -1.061408
v -2.034279 4.929370 -1.072674
v -2.034279 4.940603 -1.087357
v -2.034279 4.947665 -1.104455
v -2.034279 4.802369 -0.046940
v -2.034279 4.823714 -0.118160
v -2.034279 4.823853 -0.049366
v -2.034279 4.839034 -0.056481
v -2.034279 4.846876 -0.067799
v -2.034279 4.846847 -0.082550
v -2.034279 4.838946 -0.099727
v -2.034279 4.129763 -0.814155
v -2.034279 4.058752 -0.792746
v -2.034279 4.111384 -0.829432
v -2.034279 4.094257 -0.837356
v -2.034279 4.079550 -0.837385
v -2.034279 4.068265 -0.829520
v -2.034279 4.061171 -0.814294
v -2.034279 4.058752 -0.117833
v -2.034279 4.129438 -0.046939
v -2.034279 4.061160 -0.099484
v -2.034279 4.068222 -0.082386
v -2.034279 4.079455 -0.067703
v -2.034279 4.094095 -0.056437
v -2.034279 4.111143 -0.049355
v -2.034280 4.058752 -1.200050
v -2.034280 4.129763 -1.178641
v -2.034280 4.061171 -1.178503
v -2.034280 4.068265 -1.163277
v -2.034280 4.079550 -1.155411
v -2.034279 4.094257 -1.155441
v -2.034280 4.111384 -1.163364
v -2.034280 4.823714 -1.874638
v -2.034280 4.802368 -1.945859
v -2.034280 4.838946 -1.893072
v -2.034280 4.846846 -1.910248
v -2.034280 4.846876 -1.924999
v -2.034280 4.839034 -1.936317
v -2.034280 4.823852 -1.943432
v -2.034280 4.129437 -1.945858
v -2.034280 4.058752 -1.874964
v -2.034280 4.111142 -1.943443
v -2.034280 4.094094 -1.936360
v -2.034280 4.079455 -1.925094
v -2.034280 4.068222 -1.910411
v -2.034280 4.061160 -1.893313
v -1.990114 4.999844 2.000000
v -1.990115 4.999845 1.000622
v -1.990115 4.999845 0.985233
v -1.990114 4.950276 0.866522
v -1.990115 4.879558 0.937417
v -1.990115 4.947867 0.884871
v -1.990115 4.940802 0.901969
v -1.990115 4.929564 0.916652
v -1.990115 4.914917 0.927919
v -1.990115 4.897862 0.935001
v -1.990115 4.206325 0.937416
v -1.990115 4.184969 0.866195
v -1.990115 4.184831 0.934989
v -1.990115 4.169643 0.927874
v -1.990115 4.161797 0.916556
v -1.990115 4.161826 0.901806
v -1.990115 4.169730 0.884629
v -1.990115 4.879233 0.170199
v -1.990115 4.950276 0.191608
v -1.990115 4.897621 0.154922
v -1.990115 4.914755 0.146999
v -1.990115 4.929469 0.146970
v -1.990115 4.940759 0.154835
v -1.990115 4.947856 0.170061
v -1.990114 4.950276 1.794246
v -1.990114 4.879232 1.815655
v -1.990114 4.947855 1.815794
v -1.990114 4.940757 1.831019
v -1.990114 4.929468 1.838885
v -1.990114 4.914753 1.838856
v -1.990114 4.897620 1.830932
v -1.990115 4.184969 1.119658
v -1.990115 4.206325 1.048438
v -1.990115 4.169730 1.101226
v -1.990114 4.161826 1.084048
v -1.990115 4.161797 1.069298
v -1.990114 4.169643 1.057980
v -1.990115 4.184831 1.050864
v -1.990115 4.879559 1.048438
v -1.990114 4.950276 1.119332
v -1.990114 4.897861 1.050854
v -1.990114 4.914917 1.057936
v -1.990114 4.929564 1.069203
v -1.990115 4.940802 1.083885
v -1.990114 4.947866 1.100984
v -1.990115 4.802505 0.043467
v -1.990115 4.823860 0.114688
v -1.990115 4.823999 0.045894
v -1.990115 4.839186 0.053009
v -1.990115 4.847033 0.064327
v -1.990115 4.847003 0.079078
v -1.990115 4.839099 0.096255
v -1.990115 4.129596 0.810684
v -1.990114 4.058553 0.789274
v -1.990115 4.111209 0.825961
v -1.990115 4.094075 0.833885
v -1.990115 4.079361 0.833914
v -1.990115 4.068071 0.826048
v -1.990114 4.060974 0.810822
v -1.990115 4.058554 0.114362
v -1.990115 4.129272 0.043467
v -1.990115 4.060963 0.096012
v -1.990115 4.068027 0.078914
v -1.990115 4.079266 0.064231
v -1.990115 4.093912 0.052965
v -1.990115 4.110968 0.045883
v -1.990114 4.058553 1.196579
v -1.990114 4.129596 1.175169
v -1.990114 4.060973 1.175031
v -1.990115 4.068071 1.159806
v -1.990114 4.079361 1.151939
v -1.990114 4.094074 1.151969
v -1.990114 4.111209 1.159892
v -1.990114 4.823860 1.871166
v -1.990114 4.802504 1.942387
v -1.990114 4.839098 1.889600
v -1.990114 4.847002 1.906777
v -1.990114 4.847032 1.921527
v -1.990114 4.839185 1.932845
v -1.990114 4.823997 1.939960
v -1.990114 4.129270 1.942387
v -1.990114 4.058552 1.871493
v -1.990114 4.110967 1.939971
v -1.990114 4.093911 1.932888
v -1.990114 4.079265 1.921622
v -1.990114 4.068027 1.906940
v -1.990114 4.060962 1.889841
v -2.034279 5.000159 2.000001
v -2.034279 5.000159 1.000622
v -2.034279 5.000159 0.985233
v -2.034279 4.950073 0.866522
v -2.034279 4.879387 0.937416
v -2.034279 4.947664 0.884871
v -2.034279 4.940603 0.901969
v -2.034279 4.929370 0.916652
v -2.034279 4.914730 0.927919
v -2.034279 4.897682 0.935001
v -2.034279 4.206457 0.937416
v -2.034279 4.185111 0.866195
v -2.034279 4.184972 0.934989
v -2.034279 4.169792 0.927875
v -2.034279 4.161949 0.916556
v -2.034279 4.161978 0.901806
v -2.034279 4.169878 0.884629
v -2.034279 4.879062 0.170199
v -2.034279 4.950073 0.191608
v -2.034279 4.897441 0.154922
v -2.034279 4.914567 0.146999
v -2.034279 4.929275 0.146970
v -2.034279 4.940559 0.154835
v -2.034279 4.947654 0.170061
v -2.034279 4.950072 1.794246
v -2.034279 4.879061 1.815655
v -2.034279 4.947652 1.815794
v -2.034279 4.940558 1.831020
v -2.034279 4.929274 1.838886
v -2.034279 4.914566 1.838856
v -2.034279 4.897440 1.830933
v -2.034279 4.185111 1.119658
v -2.034279 4.206457 1.048438
v -2.034279 4.169878 1.101226
v -2.034279 4.161978 1.084048
v -2.034279 4.161949 1.069298
v -2.034279 4.169792 1.057980
v -2.034279 4.184972 1.050865
v -2.034279 4.879387 1.048438
v -2.034279 4.950073 1.119332
v -2.034279 4.897682 1.050854
v -2.034279 4.914730 1.057936
v -2.034279 4.929370 1.069203
v -2.034279 4.940603 1.083886
v -2.034279 4.947664 1.100984
v -2.034279 4.802369 0.043467
v -2.034279 4.823714 0.114688
v -2.034279 4.823853 0.045894
v -2.034279 4.839034 0.053009
v -2.034279 4.846876 0.064327
v -2.034279 4.846847 0.079078
v -2.034279 4.838946 0.096255
v -2.034279 4.129763 0.810684
v -2.034279 4.058752 0.789274
v -2.034279 4.111384 0.825961
v -2.034279 4.094257 0.833885
v -2.034279 4.079550 0.833914
v -2.034279 4.068265 0.826048
v -2.034279 4.061171 0.810822
v -2.034279 4.058752 0.114362
v -2.034279 4.129438 0.043467
v -2.034279 4.061161 0.096012
v -2.034279 4.068222 0.078914
v -2.034279 4.079455 0.064231
v -2.034279 4.094095 0.052965
v -2.034279 4.111143 0.045883
v -2.034279 4.058751 1.196579
v -2.034279 4.129763 1.175169
v -2.034279 4.061171 1.175031
v -2.034279 4.068265 1.159806
v -2.034279 4.079550 1.151939
v -2.034279 4.094257 1.151969
v -2.034279 4.111383 1.159892
v -2.034279 4.823713 1.871166
v -2.034279 4.802367 1.942388
v -2.034279 4.838945 1.889600
v -2.034279 4.846845 1.906777
v -2.034279 4.846875 1.921527
v -2.034279 4.839033 1.932846
v -2.034279 4.823851 1.939960
v -2.034279 4.129436 1.942387
v -2.034279 4.058751 1.871493
v -2.034279 4.111141 1.939971
v -2.034279 4.094094 1.932888
v -2.034279 4.079453 1.921622
v -2.034279 4.068221 1.906940
v -2.034279 4.061159 1.889841
vt 0.097487 0.953758
vt -0.000013 1.000000
vt 0.500000 0.500000
vt 0.452516 0.601702
vt 0.455051 0.401146
vt 0.452515 0.056305
vt 0.500000 -0.000000
vt 1.000000 1.000000
vt 0.605939 0.551203
vt 0.949557 0.897487
vt -0.000013 0.500000
vt -0.000013 -0.000000
vt 0.045500 0.101034
vt 0.051840 0.442989
vt 0.548881 0.050533
vt 0.545077 0.398261
vt 0.500000 1.000000
vt 0.548881 0.947987
vt 0.898839 0.953758
vt 1.000000 -0.000000
vt 1.000000 0.500000
vt 0.950825 0.451646
vt 0.957165 0.101033
vt 0.394190 0.545432
vt 0.048036 0.883059
vt 0.115237 0.056305
vt 0.336212 0.176679
vt 0.389117 0.453089
vt 0.143902 0.347318
vt 0.042964 0.554089
vt 0.449980 0.943658
vt 0.149626 0.671662
vt 0.328198 0.842301
vt 0.545078 0.594488
vt 0.641846 0.821459
vt 0.827287 0.653426
vt 0.947021 0.558417
vt 0.664194 0.173608
vt 0.901375 0.050533
vt 0.598332 0.455975
vt 0.848406 0.344146
vt 0.097487 0.953758
vt -0.000013 1.000000
vt 0.500000 0.500000
vt 0.452516 0.601702
vt 0.455051 0.401146
vt 0.452515 0.056305
vt 0.500000 -0.000000
vt 1.000000 1.000000
vt 0.605939 0.551203
vt 0.949557 0.897487
vt -0.000013 0.500000
vt -0.000013 -0.000000
vt 0.045500 0.101034
vt 0.051840 0.442989
vt 0.548881 0.050533
vt 0.545077 0.398261
vt 0.500000 1.000000
vt 0.548881 0.947987
vt 0.898839 0.953758
vt 1.000000 -0.000000
vt 1.000000 0.500000
vt 0.950825 0.451646
vt 0.957165 0.101033
vt 0.394190 0.545432
vt 0.048036 0.883059
vt 0.115237 0.056305
vt 0.336212 0.176679
vt 0.389117 0.453089
vt 0.143902 0.347318
vt 0.042964 0.554089
vt 0.449980 0.943658
vt 0.149626 0.671662
vt 0.328198 0.842301
vt 0.545078 0.594488
vt 0.641846 0.821459
vt 0.827287 0.653426
vt 0.947021 0.558417
vt 0.664194 0.173608
vt 0.901375 0.050533
vt 0.598332 0.455975
vt 0.848406 0.344146
vt -0.386626 0.402607
vt 1.901396 0.371311
vt 0.496184 0.399526
vt -0.386626 0.371311
vt 0.006225 0.006225
vt 0.092035 0.064509
vt 0.437158 0.409632
vt 0.495654 0.500000
vt 0.437158 0.590368
vt 0.092035 0.935491
vt 0.006225 0.993775
vt 0.495654 0.993775
vt 0.472474 0.935653
vt 0.472474 0.600985
vt 0.102651 0.970807
vt 0.437320 0.970807
vt 0.006225 0.503816
vt 0.029193 0.562680
vt 0.029193 0.897349
vt 0.064509 0.907965
vt 0.409632 0.562842
vt 0.399015 0.527526
vt 0.064347 0.527526
vt 0.409632 0.437158
vt 0.064509 0.092035
vt 0.006225 0.496184
vt 0.064347 0.472474
vt 0.399015 0.472474
vt 0.029193 0.102651
vt 0.029193 0.437320
vt 0.472474 0.399016
vt 0.472474 0.064347
vt 0.495654 0.006225
vt 0.437320 0.029193
vt 0.102651 0.029193
vt 0.030391 0.553582
vt 0.033903 0.545103
vt 0.039489 0.537823
vt 0.046770 0.532236
vt 0.055249 0.528724
vt 0.409700 0.528729
vt 0.417250 0.532258
vt 0.421151 0.537870
vt 0.421136 0.545184
vt 0.417207 0.553702
vt 0.055369 0.915540
vt 0.046851 0.919469
vt 0.039537 0.919484
vt 0.033924 0.915583
vt 0.030396 0.908033
vt 0.030396 0.091967
vt 0.033924 0.084417
vt 0.039537 0.080516
vt 0.046851 0.080531
vt 0.055369 0.084460
vt 0.417207 0.446298
vt 0.421136 0.454816
vt 0.421151 0.462130
vt 0.417250 0.467742
vt 0.409700 0.471271
vt 0.055249 0.471276
vt 0.046770 0.467764
vt 0.039489 0.462178
vt 0.033903 0.454897
vt 0.030391 0.446418
vt 0.091966 0.969604
vt 0.084417 0.966076
vt 0.080516 0.960463
vt 0.080531 0.953149
vt 0.084460 0.944631
vt 0.446298 0.582793
vt 0.454816 0.578864
vt 0.462130 0.578850
vt 0.467742 0.582750
vt 0.471270 0.590300
vt 0.471276 0.944752
vt 0.467764 0.953230
vt 0.462177 0.960511
vt 0.454897 0.966097
vt 0.446418 0.969609
vt 0.471270 0.409700
vt 0.467742 0.417250
vt 0.462130 0.421151
vt 0.454816 0.421136
vt 0.446298 0.417207
vt 0.084460 0.055369
vt 0.080531 0.046851
vt 0.080516 0.039537
vt 0.084417 0.033925
vt 0.091966 0.030396
vt 0.446418 0.030391
vt 0.454897 0.033903
vt 0.462177 0.039490
vt 0.467764 0.046770
vt 0.471276 0.055249
vt 0.006225 0.006225
vt 0.495654 0.500000
vt 0.437158 0.409632
vt 0.092035 0.064509
vt 0.092035 0.935491
vt 0.437158 0.590368
vt 0.472474 0.600985
vt 0.472474 0.935653
vt 0.437320 0.970807
vt 0.102651 0.970807
vt 0.006225 0.503816
vt 0.029193 0.897349
vt 0.029193 0.562680
vt 0.409632 0.562842
vt 0.064509 0.907965
vt 0.064347 0.527526
vt 0.399015 0.527526
vt 0.064509 0.092035
vt 0.409632 0.437158
vt 0.006225 0.496184
vt 0.399015 0.472474
vt 0.064347 0.472474
vt 0.029193 0.437320
vt 0.029193 0.102651
vt 0.495654 0.006225
vt 0.472474 0.064347
vt 0.472474 0.399016
vt 0.102651 0.029193
vt 0.437320 0.029193
vt 0.030391 0.553582
vt 0.033903 0.545103
vt 0.039489 0.537823
vt 0.046770 0.532236
vt 0.055249 0.528724
vt 0.409700 0.528729
vt 0.417250 0.532258
vt 0.421151 0.537870
vt 0.421136 0.545184
vt 0.417207 0.553702
vt 0.055369 0.915540
vt 0.046851 0.919469
vt 0.039537 0.919484
vt 0.033924 0.915583
vt 0.030396 0.908033
vt 0.030396 0.091967
vt 0.033924 0.084417
vt 0.039537 0.080516
vt 0.046851 0.080531
vt 0.055369 0.084460
vt 0.417207 0.446298
vt 0.421136 0.454816
vt 0.421151 0.462130
vt 0.417250 0.467742
vt 0.409700 0.471271
vt 0.055249 0.471276
vt 0.046770 0.467764
vt 0.039489 0.462178
vt 0.033903 0.454897
vt 0.030391 0.446418
vt 0.091966 0.969604
vt 0.084417 0.966076
vt 0.080516 0.960463
vt 0.080531 0.953149
vt 0.084460 0.944631
vt 0.446298 0.582793
vt 0.454816 0.578864
vt 0.462130 0.578850
vt 0.467742 0.582750
vt 0.471270 0.590300
vt 0.471276 0.944752
vt 0.467764 0.953230
vt 0.462177 0.960511
vt 0.454897 0.966097
vt 0.446418 0.969609
vt 0.471270 0.409700
vt 0.467742 0.417250
vt 0.462130 0.421151
vt 0.454816 0.421136
vt 0.446298 0.417207
vt 0.084460 0.055369
vt 0.080531 0.046851
vt 0.080516 0.039537
vt 0.084417 0.033925
vt 0.091966 0.030396
vt 0.446418 0.030391
vt 0.454897 0.033903
vt 0.462177 0.039490
vt 0.467764 0.046770
vt 0.471276 0.055249
vt -0.386626 0.402607
vt -0.386626 0.371311
vt 0.006225 0.006225
vt 0.437158 0.409632
vt 0.092035 0.064509
vt 0.006225 0.993775
vt 0.092035 0.935491
vt 0.437158 0.590368
vt 0.472474 0.600985
vt 0.472474 0.935653
vt 0.437320 0.970807
vt 0.102651 0.970807
vt 0.006225 0.503816
vt 0.029193 0.897349
vt 0.029193 0.562680
vt 0.409632 0.562842
vt 0.064509 0.907965
vt 0.064347 0.527526
vt 0.399015 0.527526
vt 0.064509 0.092035
vt 0.409632 0.437158
vt 0.006225 0.496184
vt 0.399015 0.472474
vt 0.064347 0.472474
vt 0.029193 0.437320
vt 0.029193 0.102651
vt 0.472474 0.064347
vt 0.472474 0.399016
vt 0.102651 0.029193
vt 0.437320 0.029193
vt 0.030391 0.553582
vt 0.033903 0.545103
vt 0.039489 0.537823
vt 0.046770 0.532236
vt 0.055249 0.528724
vt 0.409700 0.528729
vt 0.417250 0.532258
vt 0.421151 0.537870
vt 0.421136 0.545184
vt 0.417207 0.553702
vt 0.055369 0.915540
vt 0.046851 0.919469
vt 0.039537 0.919484
vt 0.033924 0.915583
vt 0.030396 0.908033
vt 0.030396 0.091967
vt 0.033924 0.084417
vt 0.039537 0.080516
vt 0.046851 0.080531
vt 0.055369 0.084460
vt 0.417207 0.446298
vt 0.421136 0.454816
vt 0.421151 0.462130
vt 0.417250 0.467742
vt 0.409700 0.471271
vt 0.055249 0.471276
vt 0.046770 0.467764
vt 0.039489 0.462178
vt 0.033903 0.454897
vt 0.030391 0.446418
vt 0.091966 0.969604
vt 0.084417 0.966076
vt 0.080516 0.960463
vt 0.080531 0.953149
vt 0.084460 0.944631
vt 0.446298 0.582793
vt 0.454816 0.578864
vt 0.462130 0.578850
vt 0.467742 0.582750
vt 0.471270 0.590300
vt 0.471276 0.944752
vt 0.467764 0.953230
vt 0.462177 0.960511
vt 0.454897 0.966097
vt 0.446418 0.969609
vt 0.471270 0.409700
vt 0.467742 0.417250
vt 0.462130 0.421151
vt 0.454816 0.421136
vt 0.446298 0.417207
vt 0.084460 0.055369
vt 0.080531 0.046851
vt 0.080516 0.039537
vt 0.084417 0.033925
vt 0.091966 0.030396
vt 0.446418 0.030391
vt 0.454897 0.033903
vt 0.462177 0.039490
vt 0.467764 0.046770
vt 0.471276 0.055249
vt 0.006225 0.006225
vt 0.092035 0.064509
vt 0.437158 0.409632
vt 0.437158 0.590368
vt 0.092035 0.935491
vt 0.472474 0.935653
vt 0.472474 0.600985
vt 0.102651 0.970807
vt 0.437320 0.970807
vt 0.006225 0.503816
vt 0.029193 0.562680
vt 0.029193 0.897349
vt 0.064509 0.907965
vt 0.409632 0.562842
vt 0.399015 0.527526
vt 0.064347 0.527526
vt 0.409632 0.437158
vt 0.064509 0.092035
vt 0.006225 0.496184
vt 0.064347 0.472474
vt 0.399015 0.472474
vt 0.029193 0.102651
vt 0.029193 0.437320
vt 0.472474 0.399016
vt 0.472474 0.064347
vt 0.437320 0.029193
vt 0.102651 0.029193
vt 0.030391 0.553582
vt 0.033903 0.545103
vt 0.039489 0.537823
vt 0.046770 0.532236
vt 0.055249 0.528724
vt 0.409700 0.528729
vt 0.417250 0.532258
vt 0.421151 0.537870
vt 0.421136 0.545184
vt 0.417207 0.553702
vt 0.055369 0.915540
vt 0.046851 0.919469
vt 0.039537 0.919484
vt 0.033924 0.915583
vt 0.030396 0.908033
vt 0.030396 0.091967
vt 0.033924 0.084417
vt 0.039537 0.080516
vt 0.046851 0.080531
vt 0.055369 0.084460
vt 0.417207 0.446298
vt 0.421136 0.454816
vt 0.421151 0.462130
vt 0.417250 0.467742
vt 0.409700 0.471271
vt 0.055249 0.471276
vt 0.046770 0.467764
vt 0.039489 0.462178
vt 0.033903 0.454897
vt 0.030391 0.446418
vt 0.091966 0.969604
vt 0.084417 0.966076
vt 0.080516 0.960463
vt 0.080531 0.953149
vt 0.084460 0.944631
vt 0.446298 0.582793
vt 0.454816 0.578864
vt 0.462130 0.578850
vt 0.467742 0.582750
vt 0.471270 0.590300
vt 0.471276 0.944752
vt 0.467764 0.953230
vt 0.462177 0.960511
vt 0.454897 0.966097
vt 0.446418 0.969609
vt 0.471270 0.409700
vt 0.467742 0.417250
vt 0.462130 0.421151
vt 0.454816 0.421136
vt 0.446298 0.417207
vt 0.084460 0.055369
vt 0.080531 0.046851
vt 0.080516 0.039537
vt 0.084417 0.033925
vt 0.091966 0.030396
vt 0.446418 0.030391
vt 0.454897 0.033903
vt 0.462177 0.039490
vt 0.467764 0.046770
vt 0.471276 0.055249
vt 0.177509 0.402606
vt 0.177509 0.371312
vt 0.148164 0.371312
vt 0.148164 0.402606
vt 1.090900 0.402606
vt 1.090900 0.371312
vt 1.115947 0.402606
vt 1.115947 0.371312
vt 1.140993 0.402606
vt 1.140993 0.371312
vt 1.166039 0.402606
vt 1.166039 0.371312
vt 1.191086 0.402606
vt 1.191086 0.371312
vt 1.216133 0.402606
vt 1.216133 0.371312
vt 1.241179 0.402606
vt 1.241179 0.371312
vt 2.154570 0.402607
vt 2.154570 0.371313
vt 2.183916 0.402607
vt 2.183916 0.371313
vt 2.206659 0.402607
vt 2.206659 0.371313
vt 2.225313 0.402607
vt 2.225313 0.371313
vt 2.245275 0.402607
vt 2.245276 0.371313
vt 2.270876 0.402607
vt 2.270876 0.371313
vt 2.303277 0.402607
vt 2.303277 0.371313
vt 0.028803 0.402606
vt 0.028803 0.371312
vt -1.303277 0.371311
vt -1.303277 0.402605
vt 0.061204 0.402606
vt 0.061203 0.371312
vt 0.086804 0.402606
vt 0.086803 0.371312
vt 0.106766 0.402606
vt 0.106766 0.371312
vt 0.125419 0.402606
vt 0.125419 0.371312
vt 0.493149 0.402607
vt -0.386626 0.402607
vt -0.386626 0.371311
vt 0.493149 0.371311
vt 0.506851 0.371311
vt 0.506851 0.402607
vt 1.386626 0.371311
vt 1.386626 0.402607
vt 2.273968 0.402607
vt 2.273968 0.371312
vt 2.251223 0.371312
vt 2.251223 0.402607
vt 2.232569 0.371312
vt 2.232569 0.402607
vt 2.212607 0.371312
vt 2.212607 0.402607
vt 2.187006 0.371312
vt 2.187006 0.402607
vt 2.154605 0.371312
vt 2.154605 0.402607
vt 0.822497 0.371311
vt 0.822497 0.402606
vt 0.790096 0.371311
vt 0.790095 0.402606
vt 0.764495 0.371311
vt 0.764495 0.402606
vt 0.744532 0.371311
vt 0.744532 0.402606
vt 0.725879 0.371311
vt 0.725879 0.402606
vt 0.703133 0.371311
vt 0.703133 0.402606
vt 0.673787 0.371311
vt 0.673787 0.402606
vt -0.239623 0.371311
vt -0.239623 0.402606
vt -0.264670 0.371311
vt -0.264670 0.402606
vt -0.289717 0.371311
vt -0.289717 0.402606
vt -0.314764 0.371311
vt -0.314764 0.402606
vt -0.339811 0.371311
vt -0.339810 0.402606
vt -0.364857 0.371311
vt -0.364857 0.402606
vt -0.389905 0.371311
vt -0.389905 0.402606
vt -1.303314 0.371311
vt -1.303314 0.402606
vt 2.303314 0.402607
vt 2.303314 0.371312
vt -0.115983 0.402607
vt -0.115983 0.371311
vt -0.141030 0.371311
vt -0.141030 0.402607
vt -0.166078 0.371311
vt -0.166078 0.402607
vt -0.191127 0.371311
vt -0.191127 0.402607
vt -0.216174 0.371311
vt -0.216174 0.402607
vt -0.241223 0.371311
vt -0.241223 0.402607
vt -1.154665 0.371311
vt -1.154665 0.402607
vt -1.184013 0.371311
vt -1.184013 0.402607
vt -1.206758 0.371311
vt -1.206758 0.402607
vt -1.225413 0.371311
vt -1.225413 0.402607
vt -1.245376 0.371311
vt -1.245376 0.402607
vt -1.270979 0.371311
vt -1.270979 0.402607
vt -1.303381 0.371311
vt -1.303381 0.402607
vt 2.303381 0.402607
vt 2.303381 0.371311
vt 0.971224 0.371311
vt 0.971224 0.402607
vt 0.938822 0.371311
vt 0.938822 0.402607
vt 0.913220 0.371311
vt 0.913219 0.402607
vt 0.893256 0.371311
vt 0.893256 0.402607
vt 0.874602 0.371311
vt 0.874602 0.402607
vt 0.851857 0.371311
vt 0.851857 0.402607
vt 0.822509 0.371311
vt 0.822509 0.402607
vt -0.090934 0.371311
vt -0.090934 0.402607
vt 0.296859 0.402607
vt 0.296859 0.371311
vt 0.274114 0.371311
vt 0.274114 0.402607
vt 0.255460 0.371311
vt 0.255460 0.402607
vt 0.235497 0.371311
vt 0.235497 0.402607
vt 0.209895 0.371311
vt 0.209895 0.402607
vt 0.177492 0.371311
vt 0.177492 0.402607
vt -1.154659 0.371311
vt -1.154659 0.402607
vt -1.187061 0.371311
vt -1.187061 0.402607
vt -1.212663 0.371311
vt -1.212663 0.402607
vt -1.232626 0.371311
vt -1.232626 0.402607
vt -1.251281 0.371311
vt -1.251281 0.402607
vt -1.274027 0.371311
vt -1.274027 0.402607
vt -1.303374 0.371311
vt -1.303374 0.402607
vt 2.303374 0.402607
vt 2.303374 0.371311
vt 1.389935 0.371311
vt 1.389935 0.402607
vt 1.364886 0.371311
vt 1.364886 0.402607
vt 1.339839 0.371311
vt 1.339839 0.402607
vt 1.314790 0.371311
vt 1.314790 0.402607
vt 1.289743 0.371311
vt 1.289743 0.402607
vt 1.264695 0.371311
vt 1.264695 0.402607
vt 1.239647 0.371311
vt 1.239647 0.402607
vt 0.326207 0.371311
vt 0.326207 0.402607
vt 0.177509 0.402606
vt 0.148164 0.402606
vt 0.148164 0.371312
vt 0.177509 0.371312
vt 1.090900 0.402606
vt 1.090900 0.371312
vt 1.115947 0.402606
vt 1.115947 0.371312
vt 1.140993 0.402606
vt 1.140993 0.371312
vt 1.166039 0.402606
vt 1.166039 0.371312
vt 1.191086 0.402606
vt 1.191086 0.371312
vt 1.216133 0.402606
vt 1.216133 0.371312
vt 1.241179 0.402606
vt 1.241179 0.371312
vt 2.154570 0.402607
vt 2.154570 0.371313
vt 2.183916 0.402607
vt 2.183916 0.371313
vt 2.206659 0.402607
vt 2.206659 0.371313
vt 2.225313 0.402607
vt 2.225313 0.371313
vt 2.245275 0.402607
vt 2.245276 0.371313
vt 2.270876 0.402607
vt 2.270876 0.371313
vt 2.303277 0.402607
vt 2.303277 0.371313
vt 0.028803 0.402606
vt -1.303277 0.402605
vt -1.303277 0.371311
vt 0.028803 0.371312
vt 0.061204 0.402606
vt 0.061203 0.371312
vt 0.086804 0.402606
vt 0.086803 0.371312
vt 0.106766 0.402606
vt 0.106766 0.371312
vt 0.125419 0.402606
vt 0.125419 0.371312
vt 0.493149 0.402607
vt 0.493149 0.371311
vt 0.506851 0.371311
vt 0.506851 0.402607
vt 1.386626 0.371311
vt 1.386626 0.402607
vt 0.506851 0.402607
vt 1.386626 0.402607
vt 1.386626 0.371311
vt 0.506851 0.371311
vt 2.273968 0.402607
vt 2.251223 0.402607
vt 2.251223 0.371312
vt 2.273968 0.371312
vt 2.232569 0.402607
vt 2.232569 0.371312
vt 2.212607 0.402607
vt 2.212607 0.371312
vt 2.187006 0.402607
vt 2.187006 0.371312
vt 2.154605 0.402607
vt 2.154605 0.371312
vt 0.822497 0.402606
vt 0.822497 0.371311
vt 0.790095 0.402606
vt 0.790096 0.371311
vt 0.764495 0.402606
vt 0.764495 0.371311
vt 0.744532 0.402606
vt 0.744532 0.371311
vt 0.725879 0.402606
vt 0.725879 0.371311
vt 0.703133 0.402606
vt 0.703133 0.371311
vt 0.673787 0.402606
vt 0.673787 0.371311
vt -0.239623 0.402606
vt -0.239623 0.371311
vt -0.264670 0.402606
vt -0.264670 0.371311
vt -0.289717 0.402606
vt -0.289717 0.371311
vt -0.314764 0.402606
vt -0.314764 0.371311
vt -0.339810 0.402606
vt -0.339811 0.371311
vt -0.364857 0.402606
vt -0.364857 0.371311
vt -0.389905 0.402606
vt -0.389905 0.371311
vt -1.303314 0.402606
vt -1.303314 0.371311
vt 2.303314 0.402607
vt 2.303314 0.371312
vt -0.115983 0.402607
vt -0.141030 0.402607
vt -0.141030 0.371311
vt -0.115983 0.371311
vt -0.166078 0.402607
vt -0.166078 0.371311
vt -0.191127 0.402607
vt -0.191127 0.371311
vt -0.216174 0.402607
vt -0.216174 0.371311
vt -0.241223 0.402607
vt -0.241223 0.371311
vt -1.154665 0.402607
vt -1.154665 0.371311
vt -1.184013 0.402607
vt -1.184013 0.371311
vt -1.206758 0.402607
vt -1.206758 0.371311
vt -1.225413 0.402607
vt -1.225413 0.371311
vt -1.245376 0.402607
vt -1.245376 0.371311
vt -1.270979 0.402607
vt -1.270979 0.371311
vt -1.303381 0.402607
vt -1.303381 0.371311
vt 2.303381 0.402607
vt 0.971224 0.402607
vt 0.971224 0.371311
vt 2.303381 0.371311
vt 0.938822 0.402607
vt 0.938822 0.371311
vt 0.913219 0.402607
vt 0.913220 0.371311
vt 0.893256 0.402607
vt 0.893256 0.371311
vt 0.874602 0.402607
vt 0.874602 0.371311
vt 0.851857 0.402607
vt 0.851857 0.371311
vt 0.822509 0.402607
vt 0.822509 0.371311
vt -0.090934 0.402607
vt -0.090934 0.371311
vt 0.296859 0.402607
vt 0.274114 0.402607
vt 0.274114 0.371311
vt 0.296859 0.371311
vt 0.255460 0.402607
vt 0.255460 0.371311
vt 0.235497 0.402607
vt 0.235497 0.371311
vt 0.209895 0.402607
vt 0.209895 0.371311
vt 0.177492 0.402607
vt 0.177492 0.371311
vt -1.154659 0.402607
vt -1.154659 0.371311
vt -1.187061 0.402607
vt -1.187061 0.371311
vt -1.212663 0.402607
vt -1.212663 0.371311
vt -1.232626 0.402607
vt -1.232626 0.371311
vt -1.251281 0.402607
vt -1.251281 0.371311
vt -1.274027 0.402607
vt -1.274027 0.371311
vt -1.303374 0.402607
vt -1.303374 0.371311
vt 2.303374 0.402607
vt 1.389935 0.402607
vt 1.389935 0.371311
vt 2.303374 0.371311
vt 1.364886 0.402607
vt 1.364886 0.371311
vt 1.339839 0.402607
vt 1.339839 0.371311
vt 1.314790 0.402607
vt 1.314790 0.371311
vt 1.289743 0.402607
vt 1.289743 0.371311
vt 1.264695 0.402607
vt 1.264695 0.371311
vt 1.239647 0.402607
vt 1.239647 0.371311
vt 0.326207 0.402607
vt 0.326207 0.371311
vt 0.177509 0.402606
vt 0.148164 0.402606
vt 0.148164 0.371312
vt 0.177509 0.371312
vt 1.090900 0.402606
vt 1.090900 0.371312
vt 1.115947 0.402606
vt 1.115947 0.371312
vt 1.140993 0.402606
vt 1.140993 0.371312
vt 1.166039 0.402606
vt 1.166039 0.371312
vt 1.191086 0.402606
vt 1.191086 0.371312
vt 1.216133 0.402606
vt 1.216133 0.371312
vt 1.241179 0.402606
vt 1.241179 0.371312
vt 2.154570 0.402607
vt 2.154570 0.371313
vt 2.183916 0.402607
vt 2.183916 0.371313
vt 2.206659 0.402607
vt 2.206659 0.371313
vt 2.225313 0.402607
vt 2.225313 0.371313
vt 2.245275 0.402607
vt 2.245276 0.371313
vt 2.270876 0.402607
vt 2.270876 0.371313
vt 2.303277 0.402607
vt 2.303277 0.371313
vt 0.028803 0.402606
vt -1.303277 0.402605
vt -1.303277 0.371311
vt 0.028803 0.371312
vt 0.061204 0.402606
vt 0.061203 0.371312
vt 0.086804 0.402606
vt 0.086803 0.371312
vt 0.106766 0.402606
vt 0.106766 0.371312
vt 0.125419 0.402606
vt 0.125419 0.371312
vt 0.493149 0.402607
vt 0.493149 0.371311
vt -0.386626 0.371311
vt -0.386626 0.402607
vt 0.506851 0.371311
vt 0.506851 0.402607
vt 1.386626 0.371311
vt 1.386626 0.402607
vt 2.273968 0.402607
vt 2.251223 0.402607
vt 2.251223 0.371312
vt 2.273968 0.371312
vt 2.232569 0.402607
vt 2.232569 0.371312
vt 2.212607 0.402607
vt 2.212607 0.371312
vt 2.187006 0.402607
vt 2.187006 0.371312
vt 2.154605 0.402607
vt 2.154605 0.371312
vt 0.822497 0.402606
vt 0.822497 0.371311
vt 0.790095 0.402606
vt 0.790096 0.371311
vt 0.764495 0.402606
vt 0.764495 0.371311
vt 0.744532 0.402606
vt 0.744532 0.371311
vt 0.725879 0.402606
vt 0.725879 0.371311
vt 0.703133 0.402606
vt 0.703133 0.371311
vt 0.673787 0.402606
vt 0.673787 0.371311
vt -0.239623 0.402606
vt -0.239623 0.371311
vt -0.264670 0.402606
vt -0.264670 0.371311
vt -0.289717 0.402606
vt -0.289717 0.371311
vt -0.314764 0.402606
vt -0.314764 0.371311
vt -0.339810 0.402606
vt -0.339811 0.371311
vt -0.364857 0.402606
vt -0.364857 0.371311
vt -0.389905 0.402606
vt -0.389905 0.371311
vt -1.303314 0.402606
vt -1.303314 0.371311
vt 2.303314 0.402607
vt 2.303314 0.371312
vt -0.115983 0.402607
vt -0.141030 0.402607
vt -0.141030 0.371311
vt -0.115983 0.371311
vt -0.166078 0.402607
vt -0.166078 0.371311
vt -0.191127 0.402607
vt -0.191127 0.371311
vt -0.216174 0.402607
vt -0.216174 0.371311
vt -0.241223 0.402607
vt -0.241223 0.371311
vt -1.154665 0.402607
vt -1.154665 0.371311
vt -1.184013 0.402607
vt -1.184013 0.371311
vt -1.206758 0.402607
vt -1.206758 0.371311
vt -1.225413 0.402607
vt -1.225413 0.371311
vt -1.245376 0.402607
vt -1.245376 0.371311
vt -1.270979 0.402607
vt -1.270979 0.371311
vt -1.303381 0.402607
vt -1.303381 0.371311
vt 2.303381 0.402607
vt 0.971224 0.402607
vt 0.971224 0.371311
vt 2.303381 0.371311
vt 0.938822 0.402607
vt 0.938822 0.371311
vt 0.913219 0.402607
vt 0.913220 0.371311
vt 0.893256 0.402607
vt 0.893256 0.371311
vt 0.874602 0.402607
vt 0.874602 0.371311
vt 0.851857 0.402607
vt 0.851857 0.371311
vt 0.822509 0.402607
vt 0.822509 0.371311
vt -0.090934 0.402607
vt -0.090934 0.371311
vt 0.296859 0.402607
vt 0.274114 0.402607
vt 0.274114 0.371311
vt 0.296859 0.371311
vt 0.255460 0.402607
vt 0.255460 0.371311
vt 0.235497 0.402607
vt 0.235497 0.371311
vt 0.209895 0.402607
vt 0.209895 0.371311
vt 0.177492 0.402607
vt 0.177492 0.371311
vt -1.154659 0.402607
vt -1.154659 0.371311
vt -1.187061 0.402607
vt -1.187061 0.371311
vt -1.212663 0.402607
vt -1.212663 0.371311
vt -1.232626 0.402607
vt -1.232626 0.371311
vt -1.251281 0.402607
vt -1.251281 0.371311
vt -1.274027 0.402607
vt -1.274027 0.371311
vt -1.303374 0.402607
vt -1.303374 0.371311
vt 2.303374 0.402607
vt 1.389935 0.402607
vt 1.389935 0.371311
vt 2.303374 0.371311
vt 1.364886 0.402607
vt 1.364886 0.371311
vt 1.339839 0.402607
vt 1.339839 0.371311
vt 1.314790 0.402607
vt 1.314790 0.371311
vt 1.289743 0.402607
vt 1.289743 0.371311
vt 1.264695 0.402607
vt 1.264695 0.371311
vt 1.239647 0.402607
vt 1.239647 0.371311
vt 0.326207 0.402607
vt 0.326207 0.371311
vt 0.177509 0.402606
vt 0.177509 0.371312
vt 0.148164 0.371312
vt 0.148164 0.402606
vt 1.090900 0.402606
vt 1.090900 0.371312
vt 1.115947 0.402606
vt 1.115947 0.371312
vt 1.140993 0.402606
vt 1.140993 0.371312
vt 1.166039 0.402606
vt 1.166039 0.371312
vt 1.191086 0.402606
vt 1.191086 0.371312
vt 1.216133 0.402606
vt 1.216133 0.371312
vt 1.241179 0.402606
vt 1.241179 0.371312
vt 2.154570 0.402607
vt 2.154570 0.371313
vt 2.183916 0.402607
vt 2.183916 0.371313
vt 2.206659 0.402607
vt 2.206659 0.371313
vt 2.225313 0.402607
vt 2.225313 0.371313
vt 2.245275 0.402607
vt 2.245276 0.371313
vt 2.270876 0.402607
vt 2.270876 0.371313
vt 2.303277 0.402607
vt 2.303277 0.371313
vt 0.028803 0.402606
vt 0.028803 0.371312
vt -1.303277 0.371311
vt -1.303277 0.402605
vt 0.061204 0.402606
vt 0.061203 0.371312
vt 0.086804 0.402606
vt 0.086803 0.371312
vt 0.106766 0.402606
vt 0.106766 0.371312
vt 0.125419 0.402606
vt 0.125419 0.371312
vt 0.493149 0.402607
vt 0.493149 0.371311
vt 0.506851 0.371311
vt 0.506851 0.402607
vt 1.386626 0.371311
vt 1.386626 0.402607
vt 1.386626 0.371311
vt 1.386626 0.402607
vt 2.273968 0.402607
vt 2.273968 0.371312
vt 2.251223 0.371312
vt 2.251223 0.402607
vt 2.232569 0.371312
vt 2.232569 0.402607
vt 2.212607 0.371312
vt 2.212607 0.402607
vt 2.187006 0.371312
vt 2.187006 0.402607
vt 2.154605 0.371312
vt 2.154605 0.402607
vt 0.822497 0.371311
vt 0.822497 0.402606
vt 0.790096 0.371311
vt 0.790095 0.402606
vt 0.764495 0.371311
vt 0.764495 0.402606
vt 0.744532 0.371311
vt 0.744532 0.402606
vt 0.725879 0.371311
vt 0.725879 0.402606
vt 0.703133 0.371311
vt 0.703133 0.402606
vt 0.673787 0.371311
vt 0.673787 0.402606
vt -0.239623 0.371311
vt -0.239623 0.402606
vt -0.264670 0.371311
vt -0.264670 0.402606
vt -0.289717 0.371311
vt -0.289717 0.402606
vt -0.314764 0.371311
vt -0.314764 0.402606
vt -0.339811 0.371311
vt -0.339810 0.402606
vt -0.364857 0.371311
vt -0.364857 0.402606
vt -0.389905 0.371311
vt -0.389905 0.402606
vt -1.303314 0.371311
vt -1.303314 0.402606
vt 2.303314 0.402607
vt 2.303314 0.371312
vt -0.115983 0.402607
vt -0.115983 0.371311
vt -0.141030 0.371311
vt -0.141030 0.402607
vt -0.166078 0.371311
vt -0.166078 0.402607
vt -0.191127 0.371311
vt -0.191127 0.402607
vt -0.216174 0.371311
vt -0.216174 0.402607
vt -0.241223 0.371311
vt -0.241223 0.402607
vt -1.154665 0.371311
vt -1.154665 0.402607
vt -1.184013 0.371311
vt -1.184013 0.402607
vt -1.206758 0.371311
vt -1.206758 0.402607
vt -1.225413 0.371311
vt -1.225413 0.402607
vt -1.245376 0.371311
vt -1.245376 0.402607
vt -1.270979 0.371311
vt -1.270979 0.402607
vt -1.303381 0.371311
vt -1.303381 0.402607
vt 2.303381 0.402607
vt 2.303381 0.371311
vt 0.971224 0.371311
vt 0.971224 0.402607
vt 0.938822 0.371311
vt 0.938822 0.402607
vt 0.913220 0.371311
vt 0.913219 0.402607
vt 0.893256 0.371311
vt 0.893256 0.402607
vt 0.874602 0.371311
vt 0.874602 0.402607
vt 0.851857 0.371311
vt 0.851857 0.402607
vt 0.822509 0.371311
vt 0.822509 0.402607
vt -0.090934 0.371311
vt -0.090934 0.402607
vt 0.296859 0.402607
vt 0.296859 0.371311
vt 0.274114 0.371311
vt 0.274114 0.402607
vt 0.255460 0.371311
vt 0.255460 0.402607
vt 0.235497 0.371311
vt 0.235497 0.402607
vt 0.209895 0.371311
vt 0.209895 0.402607
vt 0.177492 0.371311
vt 0.177492 0.402607
vt -1.154659 0.371311
vt -1.154659 0.402607
vt -1.187061 0.371311
vt -1.187061 0.402607
vt -1.212663 0.371311
vt -1.212663 0.402607
vt -1.232626 0.371311
vt -1.232626 0.402607
vt -1.251281 0.371311
vt -1.251281 0.402607
vt -1.274027 0.371311
vt -1.274027 0.402607
vt -1.303374 0.371311
vt -1.303374 0.402607
vt 2.303374 0.402607
vt 2.303374 0.371311
vt 1.389935 0.371311
vt 1.389935 0.402607
vt 1.364886 0.371311
vt 1.364886 0.402607
vt 1.339839 0.371311
vt 1.339839 0.402607
vt 1.314790 0.371311
vt 1.314790 0.402607
vt 1.289743 0.371311
vt 1.289743 0.402607
vt 1.264695 0.371311
vt 1.264695 0.402607
vt 1.239647 0.371311
vt 1.239647 0.402607
vt 0.326207 0.371311
vt 0.326207 0.402607
vn 0.9999 0.0063 0.0142
vn 1.0000 0.0000 0.0000
vn 0.9999 -0.0140 -0.0063
vn 0.9999 0.0147 -0.0066
vn 0.9988 -0.0354 -0.0348
vn 0.9999 -0.0067 0.0153
vn 0.9999 0.0138 -0.0061
vn 0.9999 -0.0139 0.0057
vn 0.9980 0.0451 0.0451
vn 0.9988 -0.0354 0.0345
vn 0.9999 0.0149 0.0069
vn 0.9985 0.0395 0.0366
vn 0.9999 0.0059 -0.0130
vn 0.9984 0.0404 -0.0397
vn 0.9999 -0.0141 -0.0061
vn 0.9999 -0.0059 -0.0132
vn 0.9998 0.0169 0.0073
vn 0.9999 -0.0070 0.0152
vn 0.9983 0.0422 0.0405
vn 0.9999 0.0061 -0.0140
vn 0.9995 0.0191 0.0261
vn 0.9986 -0.0370 0.0371
vn 0.9986 0.0365 -0.0390
vn 0.9994 0.0343 -0.0108
vn 0.9996 -0.0088 0.0281
vn 0.9999 -0.0152 0.0064
vn 0.9995 -0.0256 0.0168
vn 0.9997 -0.0043 0.0255
vn 0.9985 -0.0376 -0.0403
vn 0.9988 0.0384 -0.0298
vn 0.9999 -0.0062 -0.0141
vn 0.9999 0.0058 0.0137
vn 1.0000 0.0013 -0.0076
vn -0.0000 -0.0000 1.0000
vn 0.0046 0.9984 0.0559
vn 0.0044 0.9627 0.2704
vn 0.0044 0.9627 0.2707
vn 0.0046 0.9979 -0.0652
vn 0.0044 0.9661 -0.2583
vn 0.0044 0.9661 -0.2581
vn 0.0039 0.8665 -0.4992
vn 0.0039 0.8667 -0.4988
vn 0.0031 0.7079 -0.7064
vn 0.0031 0.7082 -0.7060
vn 0.0021 0.5007 -0.8656
vn 0.0021 0.5012 -0.8653
vn 0.0011 0.2591 -0.9658
vn 0.0011 0.2598 -0.9657
vn 0.0003 0.0654 -0.9979
vn 0.0003 0.0657 -0.9978
vn 0.0002 -0.0561 -0.9984
vn 0.0002 -0.0563 -0.9984
vn 0.0009 -0.2716 -0.9624
vn 0.0009 -0.2722 -0.9622
vn 0.0022 -0.6450 -0.7642
vn 0.0022 -0.6456 -0.7636
vn 0.0033 -0.9547 -0.2977
vn 0.0033 -0.9548 -0.2973
vn 0.0033 -0.9766 0.2150
vn 0.0033 -0.9767 0.2148
vn 0.0028 -0.8467 0.5321
vn 0.0028 -0.8468 0.5319
vn 0.0011 -0.7402 0.6724
vn 0.0011 -0.7403 0.6723
vn -0.0014 -0.6744 0.7384
vn -0.0014 -0.6743 0.7385
vn -0.0022 -0.5342 0.8453
vn -0.0022 -0.5337 0.8456
vn -0.0009 -0.2165 0.9763
vn -0.0009 -0.2153 0.9765
vn 0.0013 0.2979 0.9546
vn 0.0013 0.2994 0.9541
vn 0.0034 0.7651 0.6439
vn 0.0035 0.7657 0.6432
vn 0.0071 -1.0000 -0.0000
vn 0.0043 -0.9627 -0.2707
vn 0.0043 -0.9627 -0.2704
vn 0.0034 -0.7657 -0.6432
vn 0.0034 -0.7651 -0.6439
vn 0.0013 -0.2994 -0.9541
vn 0.0013 -0.2979 -0.9546
vn -0.0009 0.2154 -0.9765
vn -0.0009 0.2164 -0.9763
vn -0.0021 0.5337 -0.8456
vn -0.0021 0.5342 -0.8453
vn -0.0013 0.6743 -0.7385
vn -0.0013 0.6744 -0.7384
vn 0.0012 0.7403 -0.6723
vn 0.0012 0.7402 -0.6724
vn 0.0029 0.8468 -0.5319
vn 0.0029 0.8467 -0.5321
vn 0.0034 0.9767 -0.2148
vn 0.0034 0.9766 -0.2150
vn 0.0034 0.9548 0.2973
vn 0.0034 0.9547 0.2976
vn 0.0022 0.6457 0.7636
vn 0.0022 0.6450 0.7642
vn 0.0009 0.2722 0.9622
vn 0.0009 0.2715 0.9624
vn 0.0002 0.0563 0.9984
vn 0.0002 0.0561 0.9984
vn 0.0003 -0.0657 0.9978
vn 0.0002 -0.0654 0.9979
vn 0.0010 -0.2598 0.9657
vn 0.0010 -0.2592 0.9658
vn 0.0021 -0.5013 0.8653
vn 0.0021 -0.5007 0.8656
vn 0.0030 -0.7082 0.7060
vn 0.0030 -0.7078 0.7064
vn 0.0038 -0.8667 0.4989
vn 0.0038 -0.8665 0.4992
vn 0.0043 -0.9661 0.2581
vn 0.0043 -0.9661 0.2583
vn 0.0045 -0.9979 0.0652
vn 0.0045 -0.9984 -0.0559
vn 0.0044 0.9661 0.2583
vn 0.0044 0.9661 0.2581
vn 0.0039 0.8667 0.4988
vn 0.0039 0.8665 0.4992
vn 0.0031 0.7082 0.7060
vn 0.0031 0.7078 0.7064
vn 0.0021 0.5012 0.8653
vn 0.0021 0.5007 0.8656
vn 0.0011 0.2598 0.9657
vn 0.0011 0.2591 0.9658
vn 0.0003 0.0657 0.9978
vn 0.0003 0.0654 0.9979
vn 0.0002 -0.0563 0.9984
vn 0.0002 -0.0561 0.9984
vn 0.0009 -0.2722 0.9623
vn 0.0009 -0.2716 0.9624
vn 0.0022 -0.6457 0.7636
vn 0.0022 -0.6450 0.7642
vn 0.0033 -0.9548 0.2973
vn 0.0033 -0.9547 0.2976
vn 0.0033 -0.9767 -0.2148
vn 0.0033 -0.9766 -0.2150
vn 0.0028 -0.8468 -0.5318
vn 0.0028 -0.8467 -0.5321
vn 0.0011 -0.7403 -0.6723
vn 0.0011 -0.7402 -0.6724
vn -0.0014 -0.6743 -0.7385
vn -0.0014 -0.6744 -0.7384
vn -0.0022 -0.5337 -0.8456
vn -0.0022 -0.5342 -0.8453
vn -0.0009 -0.2154 -0.9765
vn -0.0009 -0.2165 -0.9763
vn 0.0013 0.2994 -0.9541
vn 0.0013 0.2979 -0.9546
vn 0.0035 0.7657 -0.6432
vn 0.0034 0.7651 -0.6439
vn 0.0044 0.9627 -0.2704
vn 0.0044 0.9627 -0.2707
vn 0.0046 0.9984 -0.0559
vn 0.0046 0.9979 0.0652
vn 0.0009 0.2715 -0.9624
vn 0.0009 0.2722 -0.9622
vn 0.0022 0.6457 -0.7636
vn 0.0022 0.6450 -0.7642
vn 0.0034 0.9548 -0.2973
vn 0.0034 0.9547 -0.2977
vn 0.0034 0.9767 0.2148
vn 0.0034 0.9766 0.2150
vn 0.0029 0.8468 0.5319
vn 0.0029 0.8467 0.5321
vn 0.0012 0.7403 0.6723
vn 0.0012 0.7402 0.6724
vn -0.0013 0.6743 0.7385
vn -0.0013 0.6744 0.7384
vn -0.0021 0.5337 0.8456
vn -0.0021 0.5342 0.8453
vn -0.0009 0.2154 0.9765
vn -0.0009 0.2164 0.9763
vn 0.0013 -0.2994 0.9541
vn 0.0013 -0.2979 0.9546
vn 0.0034 -0.7657 0.6432
vn 0.0034 -0.7651 0.6439
vn 0.0043 -0.9627 0.2704
vn 0.0043 -0.9627 0.2707
vn 0.0045 -0.9984 0.0559
vn 0.0045 -0.9979 -0.0652
vn 0.0043 -0.9661 -0.2581
vn 0.0043 -0.9661 -0.2583
vn 0.0038 -0.8667 -0.4989
vn 0.0038 -0.8665 -0.4992
vn 0.0030 -0.7082 -0.7060
vn 0.0030 -0.7078 -0.7064
vn 0.0021 -0.5012 -0.8653
vn 0.0021 -0.5007 -0.8656
vn 0.0010 -0.2598 -0.9657
vn 0.0010 -0.2591 -0.9658
vn 0.0002 -0.0657 -0.9978
vn 0.0002 -0.0654 -0.9979
vn 0.0002 0.0563 -0.9984
vn 0.0002 0.0561 -0.9984
vn 0.0009 -0.2722 0.9622
vn 0.0022 -0.6456 0.7636
vn 0.0033 -0.9547 0.2977
vn 0.0028 -0.8468 -0.5319
vn -0.0009 -0.2153 -0.9765
vn 0.0043 -0.9627 0.2705
vn -0.0021 0.5342 0.8454
vn 0.0029 0.8468 0.5318
vn 0.0035 0.9766 0.2150
vn 0.0035 0.9767 0.2148
vn 0.0034 0.9547 -0.2976
vn 0.0010 -0.2592 -0.9658
vn 0.0031 0.7078 -0.7064
vn 0.0009 -0.2715 -0.9624
vn 0.0009 -0.2722 -0.9623
vn 0.0033 -0.9547 -0.2976
vn 0.0034 0.7657 0.6432
vn 0.0034 0.9547 0.2977
vn -0.0021 0.5338 -0.8456
vn 0.0030 -0.7079 0.7064
vn 0.0021 -0.5012 0.8653
vn 0.0010 -0.2591 0.9658
vn 0.0003 -0.0654 0.9979
vn 0.0046 -0.9984 0.0559
vn 0.0044 -0.9627 0.2707
vn 0.0044 -0.9627 0.2704
vn 0.0046 -0.9979 -0.0652
vn 0.0044 -0.9661 -0.2583
vn 0.0044 -0.9661 -0.2581
vn 0.0039 -0.8665 -0.4992
vn 0.0039 -0.8667 -0.4989
vn 0.0031 -0.7079 -0.7064
vn 0.0031 -0.7082 -0.7060
vn 0.0011 -0.2591 -0.9658
vn 0.0011 -0.2598 -0.9657
vn 0.0003 -0.0654 -0.9979
vn 0.0003 -0.0657 -0.9978
vn 0.0009 0.2716 -0.9624
vn 0.0022 0.6456 -0.7636
vn 0.0033 0.9547 -0.2977
vn 0.0033 0.9548 -0.2973
vn 0.0033 0.9766 0.2150
vn 0.0033 0.9767 0.2148
vn 0.0028 0.8467 0.5321
vn 0.0028 0.8468 0.5319
vn 0.0011 0.7402 0.6724
vn 0.0011 0.7403 0.6723
vn -0.0014 0.6744 0.7384
vn -0.0014 0.6743 0.7385
vn -0.0022 0.5342 0.8453
vn -0.0022 0.5337 0.8456
vn -0.0009 0.2165 0.9763
vn 0.0035 -0.7651 0.6439
vn 0.0035 -0.7657 0.6432
vn 0.0071 1.0000 0.0000
vn 0.0043 0.9627 -0.2707
vn 0.0034 0.7657 -0.6432
vn 0.0043 0.9627 -0.2704
vn -0.0009 -0.2164 -0.9763
vn -0.0021 -0.5342 -0.8454
vn -0.0021 -0.5337 -0.8456
vn -0.0013 -0.6744 -0.7384
vn -0.0013 -0.6743 -0.7385
vn 0.0012 -0.7402 -0.6724
vn 0.0012 -0.7403 -0.6723
vn 0.0029 -0.8467 -0.5321
vn 0.0029 -0.8468 -0.5318
vn 0.0034 -0.9766 -0.2150
vn 0.0034 -0.9766 -0.2148
vn 0.0034 -0.9547 0.2976
vn 0.0034 -0.9548 0.2972
vn 0.0009 -0.2715 0.9624
vn 0.0002 0.0654 0.9979
vn 0.0002 0.0657 0.9978
vn 0.0010 0.2592 0.9658
vn 0.0010 0.2598 0.9657
vn 0.0021 0.5013 0.8653
vn 0.0030 0.7079 0.7064
vn 0.0030 0.7082 0.7060
vn 0.0038 0.8665 0.4992
vn 0.0038 0.8667 0.4989
vn 0.0043 0.9661 0.2583
vn 0.0043 0.9661 0.2581
vn 0.0045 0.9979 0.0652
vn 0.0045 0.9984 -0.0559
vn 0.0044 -0.9661 0.2583
vn 0.0039 -0.8665 0.4992
vn 0.0039 -0.8667 0.4989
vn 0.0044 -0.9661 0.2581
vn 0.0031 -0.7078 0.7064
vn 0.0031 -0.7082 0.7060
vn 0.0011 -0.2591 0.9658
vn 0.0011 -0.2598 0.9657
vn 0.0009 0.2716 0.9624
vn 0.0009 0.2722 0.9623
vn 0.0022 0.6456 0.7636
vn 0.0033 0.9547 0.2977
vn 0.0033 0.9548 0.2973
vn 0.0033 0.9766 -0.2150
vn 0.0033 0.9767 -0.2148
vn 0.0028 0.8467 -0.5321
vn 0.0028 0.8468 -0.5319
vn 0.0011 0.7402 -0.6724
vn 0.0011 0.7403 -0.6723
vn -0.0014 0.6744 -0.7384
vn -0.0014 0.6743 -0.7385
vn -0.0022 0.5342 -0.8454
vn -0.0022 0.5337 -0.8457
vn -0.0009 0.2165 -0.9763
vn -0.0009 0.2153 -0.9765
vn 0.0035 -0.7651 -0.6439
vn 0.0035 -0.7657 -0.6432
vn 0.0044 -0.9627 -0.2707
vn 0.0044 -0.9627 -0.2704
vn 0.0046 -0.9984 -0.0559
vn 0.0046 -0.9979 0.0652
vn 0.0022 -0.6457 -0.7636
vn 0.0034 -0.9547 -0.2977
vn 0.0034 -0.9548 -0.2973
vn 0.0034 -0.9766 0.2150
vn 0.0034 -0.9767 0.2148
vn 0.0029 -0.8467 0.5321
vn 0.0029 -0.8468 0.5319
vn 0.0012 -0.7402 0.6724
vn 0.0012 -0.7403 0.6723
vn -0.0013 -0.6744 0.7384
vn -0.0013 -0.6743 0.7385
vn -0.0021 -0.5342 0.8453
vn -0.0021 -0.5337 0.8456
vn -0.0009 -0.2164 0.9763
vn -0.0009 -0.2154 0.9765
vn 0.0043 0.9627 0.2707
vn 0.0043 0.9627 0.2704
vn 0.0045 0.9984 0.0559
vn 0.0045 0.9979 -0.0652
vn 0.0043 0.9661 -0.2583
vn 0.0043 0.9661 -0.2581
vn 0.0038 0.8665 -0.4992
vn 0.0038 0.8667 -0.4988
vn 0.0030 0.7079 -0.7064
vn 0.0030 0.7082 -0.7060
vn 0.0010 0.2591 -0.9658
vn 0.0010 0.2598 -0.9657
vn 0.0002 0.0654 -0.9979
vn 0.0002 0.0657 -0.9978
vn 0.0044 -0.9627 -0.2705
vn 0.0039 -0.8667 0.4988
vn 0.0031 -0.7079 0.7064
vn -0.0022 0.5342 -0.8453
vn -0.0022 0.5337 -0.8456
vn 0.0013 -0.2995 -0.9541
vn 0.0043 0.9627 0.2705
vn -0.0021 -0.5342 0.8454
vn 0.0029 -0.8468 0.5318
vn 0.0034 -0.9547 -0.2976
vn 0.0010 0.2592 -0.9658
vn 0.0030 0.7078 -0.7064
vn 0.0038 0.8667 -0.4989
vn 0.0039 -0.8667 -0.4988
vn 0.0009 0.2722 -0.9623
vn 0.0028 0.8468 0.5318
vn -0.0009 0.2153 0.9765
vn 0.0034 -0.9548 0.2973
vn 0.0034 -0.9547 0.2977
vn 0.0034 -0.9767 -0.2148
vn 0.0029 -0.8468 -0.5319
vn -0.0021 -0.5338 -0.8456
vn -0.0021 -0.5342 -0.8453
vn 0.0038 0.8667 0.4988
vn 0.0038 0.8665 0.4991
usemtl MI_PaddedWall
s 1
f 19/1/1 6/2/2 1/3/2 17/4/3
f 1/3/2 9/5/4 10/6/5 3/7/2
f 7/8/2 1/3/2 23/9/6 24/10/7
f 2/11/2 4/12/2 11/13/8 12/14/9
f 1/3/2 3/7/2 28/15/10 26/16/11
f 5/17/2 21/18/12 22/19/13 7/8/2
f 43/20/2 41/21/2 29/22/14 30/23/15
f 16/24/16 1/3/2 6/2/2 14/25/17
f 4/12/2 8/26/18 9/5/4 1/3/2
f 8/26/18 10/6/5 39/27/19
f 3/7/2 10/6/5 8/26/18 4/12/2
f 1/3/2 13/28/20 11/13/8 4/12/2
f 13/28/20 38/29/21 11/13/8
f 12/14/9 13/28/20 1/3/2 2/11/2
f 14/25/17 6/2/2 2/11/2 15/30/22
f 15/30/22 2/11/2 1/3/2 16/24/16
f 17/4/3 1/3/2 5/17/2 18/31/23
f 16/24/16 14/25/17 37/32/24
f 18/31/23 19/1/1 36/33/25
f 18/31/23 5/17/2 6/2/2 19/1/1
f 7/8/2 22/19/13 20/34/26 1/3/2
f 22/19/13 35/35/27 20/34/26
f 21/18/12 5/17/2 1/3/2 20/34/26
f 24/10/7 34/36/28 25/37/29
f 25/37/29 23/9/6 1/3/2 41/21/2
f 41/21/2 7/8/2 24/10/7 25/37/29
f 26/16/11 28/15/10 32/38/30
f 26/16/11 27/39/31 43/20/2 1/3/2
f 28/15/10 3/7/2 43/20/2 27/39/31
f 30/23/15 31/40/32 1/3/2 43/20/2
f 29/22/14 41/21/2 1/3/2 31/40/32
f 30/23/15 33/41/33 31/40/32
f 32/38/30 28/15/10 27/39/31
f 27/39/31 26/16/11 32/38/30
f 31/40/32 33/41/33 29/22/14
f 33/41/33 30/23/15 29/22/14
f 25/37/29 34/36/28 23/9/6
f 23/9/6 34/36/28 24/10/7
f 20/34/26 35/35/27 21/18/12
f 21/18/12 35/35/27 22/19/13
f 36/33/25 19/1/1 17/4/3
f 17/4/3 18/31/23 36/33/25
f 37/32/24 14/25/17 15/30/22
f 15/30/22 16/24/16 37/32/24
f 11/13/8 38/29/21 12/14/9
f 12/14/9 38/29/21 13/28/20
f 39/27/19 10/6/5 9/5/4
f 9/5/4 8/26/18 39/27/19
f 56/42/1 7/43/2 40/44/2 54/45/3
f 40/44/2 46/46/4 47/47/5 42/48/2
f 79/49/2 40/44/2 60/50/6 61/51/7
f 41/52/2 43/53/2 48/54/8 49/55/9
f 40/44/2 42/48/2 65/56/10 63/57/11
f 44/58/2 58/59/12 59/60/13 79/49/2
f 78/61/2 77/62/2 66/63/14 68/64/15
f 53/65/16 40/44/2 7/43/2 51/66/17
f 43/53/2 45/67/18 46/46/4 40/44/2
f 45/67/18 47/47/5 76/68/19
f 42/48/2 47/47/5 45/67/18 43/53/2
f 40/44/2 50/69/20 48/54/8 43/53/2
f 50/69/20 75/70/21 48/54/8
f 49/55/9 50/69/20 40/44/2 41/52/2
f 51/66/17 7/43/2 41/52/2 52/71/22
f 52/71/22 41/52/2 40/44/2 53/65/16
f 54/45/3 40/44/2 44/58/2 55/72/23
f 53/65/16 51/66/17 74/73/24
f 55/72/23 56/42/1 73/74/25
f 55/72/23 44/58/2 7/43/2 56/42/1
f 79/49/2 59/60/13 57/75/26 40/44/2
f 59/60/13 72/76/27 57/75/26
f 58/59/12 44/58/2 40/44/2 57/75/26
f 61/51/7 71/77/28 62/78/29
f 62/78/29 60/50/6 40/44/2 77/62/2
f 77/62/2 79/49/2 61/51/7 62/78/29
f 63/57/11 65/56/10 69/79/30
f 63/57/11 64/80/31 78/61/2 40/44/2
f 65/56/10 42/48/2 78/61/2 64/80/31
f 68/64/15 67/81/32 40/44/2 78/61/2
f 66/63/14 77/62/2 40/44/2 67/81/32
f 68/64/15 70/82/33 67/81/32
f 69/79/30 65/56/10 64/80/31
f 64/80/31 63/57/11 69/79/30
f 67/81/32 70/82/33 66/63/14
f 70/82/33 68/64/15 66/63/14
f 62/78/29 71/77/28 60/50/6
f 60/50/6 71/77/28 61/51/7
f 57/75/26 72/76/27 58/59/12
f 58/59/12 72/76/27 59/60/13
f 73/74/25 56/42/1 54/45/3
f 54/45/3 55/72/23 73/74/25
f 74/73/24 51/66/17 52/71/22
f 52/71/22 53/65/16 74/73/24
f 48/54/8 75/70/21 49/55/9
f 49/55/9 75/70/21 50/69/20
f 76/68/19 47/47/5 46/46/4
f 46/46/4 45/67/18 76/68/19
f 81/83/34 85/84/34 174/85/34 171/86/34
f 81/87/2 157/88/2 151/89/2 86/90/2
f 86/90/2 136/91/2 130/92/2 80/93/2
f 82/94/2 143/95/2 137/96/2 86/90/2
f 80/93/2 129/97/2 144/98/2 82/94/2
f 84/99/2 87/100/2 102/101/2 80/93/2
f 80/93/2 101/102/2 95/103/2 86/90/2
f 86/90/2 94/104/2 88/105/2 84/99/2
f 86/90/2 115/106/2 109/107/2 81/87/2
f 83/108/2 122/109/2 116/110/2 86/90/2
f 81/87/2 108/111/2 123/112/2 83/108/2
f 86/90/2 150/113/2 165/114/2 85/115/2
f 85/115/2 164/116/2 158/117/2 81/87/2
f 86/90/2 84/99/2 83/108/2
f 87/100/2 84/99/2 89/118/2
f 89/118/2 84/99/2 90/119/2
f 90/119/2 84/99/2 91/120/2
f 91/120/2 84/99/2 92/121/2
f 92/121/2 84/99/2 93/122/2
f 93/122/2 84/99/2 88/105/2
f 94/104/2 86/90/2 96/123/2
f 96/123/2 86/90/2 97/124/2
f 97/124/2 86/90/2 98/125/2
f 98/125/2 86/90/2 99/126/2
f 99/126/2 86/90/2 100/127/2
f 100/127/2 86/90/2 95/103/2
f 101/102/2 80/93/2 103/128/2
f 103/128/2 80/93/2 104/129/2
f 104/129/2 80/93/2 105/130/2
f 105/130/2 80/93/2 106/131/2
f 106/131/2 80/93/2 107/132/2
f 107/132/2 80/93/2 102/101/2
f 108/111/2 81/87/2 110/133/2
f 110/133/2 81/87/2 111/134/2
f 111/134/2 81/87/2 112/135/2
f 112/135/2 81/87/2 113/136/2
f 113/136/2 81/87/2 114/137/2
f 114/137/2 81/87/2 109/107/2
f 115/106/2 86/90/2 117/138/2
f 117/138/2 86/90/2 118/139/2
f 118/139/2 86/90/2 119/140/2
f 119/140/2 86/90/2 120/141/2
f 120/141/2 86/90/2 121/142/2
f 121/142/2 86/90/2 116/110/2
f 122/109/2 83/108/2 124/143/2
f 124/143/2 83/108/2 125/144/2
f 125/144/2 83/108/2 126/145/2
f 126/145/2 83/108/2 127/146/2
f 127/146/2 83/108/2 128/147/2
f 128/147/2 83/108/2 123/112/2
f 129/97/2 80/93/2 131/148/2
f 131/148/2 80/93/2 132/149/2
f 132/149/2 80/93/2 133/150/2
f 133/150/2 80/93/2 134/151/2
f 134/151/2 80/93/2 135/152/2
f 135/152/2 80/93/2 130/92/2
f 136/91/2 86/90/2 138/153/2
f 138/153/2 86/90/2 139/154/2
f 139/154/2 86/90/2 140/155/2
f 140/155/2 86/90/2 141/156/2
f 141/156/2 86/90/2 142/157/2
f 142/157/2 86/90/2 137/96/2
f 143/95/2 82/94/2 145/158/2
f 145/158/2 82/94/2 146/159/2
f 146/159/2 82/94/2 147/160/2
f 147/160/2 82/94/2 148/161/2
f 148/161/2 82/94/2 149/162/2
f 149/162/2 82/94/2 144/98/2
f 150/113/2 86/90/2 152/163/2
f 152/163/2 86/90/2 153/164/2
f 153/164/2 86/90/2 154/165/2
f 154/165/2 86/90/2 155/166/2
f 155/166/2 86/90/2 156/167/2
f 156/167/2 86/90/2 151/89/2
f 157/88/2 81/87/2 159/168/2
f 159/168/2 81/87/2 160/169/2
f 160/169/2 81/87/2 161/170/2
f 161/170/2 81/87/2 162/171/2
f 162/171/2 81/87/2 163/172/2
f 163/172/2 81/87/2 158/117/2
f 164/116/2 85/115/2 166/173/2
f 166/173/2 85/115/2 167/174/2
f 167/174/2 85/115/2 168/175/2
f 168/175/2 85/115/2 169/176/2
f 169/176/2 85/115/2 170/177/2
f 170/177/2 85/115/2 165/114/2
f 260/178/2 264/179/2 329/180/2 335/181/2
f 264/179/2 80/93/2 308/182/2 314/183/2
f 82/94/2 264/179/2 315/184/2 321/185/2
f 80/93/2 82/94/2 322/186/2 307/187/2
f 262/188/2 80/93/2 280/189/2 265/190/2
f 80/93/2 264/179/2 273/191/2 279/192/2
f 264/179/2 262/188/2 266/193/2 272/194/2
f 264/179/2 260/178/2 287/195/2 293/196/2
f 261/197/2 264/179/2 294/198/2 300/199/2
f 260/178/2 261/197/2 301/200/2 286/201/2
f 264/179/2 263/202/2 343/203/2 328/204/2
f 263/202/2 260/178/2 336/205/2 342/206/2
f 264/179/2 261/197/2 262/188/2
f 265/190/2 267/207/2 262/188/2
f 267/207/2 268/208/2 262/188/2
f 268/208/2 269/209/2 262/188/2
f 269/209/2 270/210/2 262/188/2
f 270/210/2 271/211/2 262/188/2
f 271/211/2 266/193/2 262/188/2
f 272/194/2 274/212/2 264/179/2
f 274/212/2 275/213/2 264/179/2
f 275/213/2 276/214/2 264/179/2
f 276/214/2 277/215/2 264/179/2
f 277/215/2 278/216/2 264/179/2
f 278/216/2 273/191/2 264/179/2
f 279/192/2 281/217/2 80/93/2
f 281/217/2 282/218/2 80/93/2
f 282/218/2 283/219/2 80/93/2
f 283/219/2 284/220/2 80/93/2
f 284/220/2 285/221/2 80/93/2
f 285/221/2 280/189/2 80/93/2
f 286/201/2 288/222/2 260/178/2
f 288/222/2 289/223/2 260/178/2
f 289/223/2 290/224/2 260/178/2
f 290/224/2 291/225/2 260/178/2
f 291/225/2 292/226/2 260/178/2
f 292/226/2 287/195/2 260/178/2
f 293/196/2 295/227/2 264/179/2
f 295/227/2 296/228/2 264/179/2
f 296/228/2 297/229/2 264/179/2
f 297/229/2 298/230/2 264/179/2
f 298/230/2 299/231/2 264/179/2
f 299/231/2 294/198/2 264/179/2
f 300/199/2 302/232/2 261/197/2
f 302/232/2 303/233/2 261/197/2
f 303/233/2 304/234/2 261/197/2
f 304/234/2 305/235/2 261/197/2
f 305/235/2 306/236/2 261/197/2
f 306/236/2 301/200/2 261/197/2
f 307/187/2 309/237/2 80/93/2
f 309/237/2 310/238/2 80/93/2
f 310/238/2 311/239/2 80/93/2
f 311/239/2 312/240/2 80/93/2
f 312/240/2 313/241/2 80/93/2
f 313/241/2 308/182/2 80/93/2
f 314/183/2 316/242/2 264/179/2
f 316/242/2 317/243/2 264/179/2
f 317/243/2 318/244/2 264/179/2
f 318/244/2 319/245/2 264/179/2
f 319/245/2 320/246/2 264/179/2
f 320/246/2 315/184/2 264/179/2
f 321/185/2 323/247/2 82/94/2
f 323/247/2 324/248/2 82/94/2
f 324/248/2 325/249/2 82/94/2
f 325/249/2 326/250/2 82/94/2
f 326/250/2 327/251/2 82/94/2
f 327/251/2 322/186/2 82/94/2
f 328/204/2 330/252/2 264/179/2
f 330/252/2 331/253/2 264/179/2
f 331/253/2 332/254/2 264/179/2
f 332/254/2 333/255/2 264/179/2
f 333/255/2 334/256/2 264/179/2
f 334/256/2 329/180/2 264/179/2
f 335/181/2 337/257/2 260/178/2
f 337/257/2 338/258/2 260/178/2
f 338/258/2 339/259/2 260/178/2
f 339/259/2 340/260/2 260/178/2
f 340/260/2 341/261/2 260/178/2
f 341/261/2 336/205/2 260/178/2
f 342/206/2 344/262/2 263/202/2
f 344/262/2 345/263/2 263/202/2
f 345/263/2 346/264/2 263/202/2
f 346/264/2 347/265/2 263/202/2
f 347/265/2 348/266/2 263/202/2
f 348/266/2 343/203/2 263/202/2
f 438/267/34 525/268/34 174/85/34 85/84/34
f 438/269/2 86/90/2 505/270/2 511/271/2
f 86/90/2 437/272/2 484/273/2 490/274/2
f 82/94/2 86/90/2 491/275/2 497/276/2
f 437/272/2 82/94/2 498/277/2 483/278/2
f 440/279/2 437/272/2 456/280/2 441/281/2
f 437/272/2 86/90/2 449/282/2 455/283/2
f 86/90/2 440/279/2 442/284/2 448/285/2
f 86/90/2 438/269/2 463/286/2 469/287/2
f 439/288/2 86/90/2 470/289/2 476/290/2
f 438/269/2 439/288/2 477/291/2 462/292/2
f 86/90/2 85/115/2 519/293/2 504/294/2
f 85/115/2 438/269/2 512/295/2 518/296/2
f 86/90/2 439/288/2 440/279/2
f 441/281/2 443/297/2 440/279/2
f 443/297/2 444/298/2 440/279/2
f 444/298/2 445/299/2 440/279/2
f 445/299/2 446/300/2 440/279/2
f 446/300/2 447/301/2 440/279/2
f 447/301/2 442/284/2 440/279/2
f 448/285/2 450/302/2 86/90/2
f 450/302/2 451/303/2 86/90/2
f 451/303/2 452/304/2 86/90/2
f 452/304/2 453/305/2 86/90/2
f 453/305/2 454/306/2 86/90/2
f 454/306/2 449/282/2 86/90/2
f 455/283/2 457/307/2 437/272/2
f 457/307/2 458/308/2 437/272/2
f 458/308/2 459/309/2 437/272/2
f 459/309/2 460/310/2 437/272/2
f 460/310/2 461/311/2 437/272/2
f 461/311/2 456/280/2 437/272/2
f 462/292/2 464/312/2 438/269/2
f 464/312/2 465/313/2 438/269/2
f 465/313/2 466/314/2 438/269/2
f 466/314/2 467/315/2 438/269/2
f 467/315/2 468/316/2 438/269/2
f 468/316/2 463/286/2 438/269/2
f 469/287/2 471/317/2 86/90/2
f 471/317/2 472/318/2 86/90/2
f 472/318/2 473/319/2 86/90/2
f 473/319/2 474/320/2 86/90/2
f 474/320/2 475/321/2 86/90/2
f 475/321/2 470/289/2 86/90/2
f 476/290/2 478/322/2 439/288/2
f 478/322/2 479/323/2 439/288/2
f 479/323/2 480/324/2 439/288/2
f 480/324/2 481/325/2 439/288/2
f 481/325/2 482/326/2 439/288/2
f 482/326/2 477/291/2 439/288/2
f 483/278/2 485/327/2 437/272/2
f 485/327/2 486/328/2 437/272/2
f 486/328/2 487/329/2 437/272/2
f 487/329/2 488/330/2 437/272/2
f 488/330/2 489/331/2 437/272/2
f 489/331/2 484/273/2 437/272/2
f 490/274/2 492/332/2 86/90/2
f 492/332/2 493/333/2 86/90/2
f 493/333/2 494/334/2 86/90/2
f 494/334/2 495/335/2 86/90/2
f 495/335/2 496/336/2 86/90/2
f 496/336/2 491/275/2 86/90/2
f 497/276/2 499/337/2 82/94/2
f 499/337/2 500/338/2 82/94/2
f 500/338/2 501/339/2 82/94/2
f 501/339/2 502/340/2 82/94/2
f 502/340/2 503/341/2 82/94/2
f 503/341/2 498/277/2 82/94/2
f 504/294/2 506/342/2 86/90/2
f 506/342/2 507/343/2 86/90/2
f 507/343/2 508/344/2 86/90/2
f 508/344/2 509/345/2 86/90/2
f 509/345/2 510/346/2 86/90/2
f 510/346/2 505/270/2 86/90/2
f 511/271/2 513/347/2 438/269/2
f 513/347/2 514/348/2 438/269/2
f 514/348/2 515/349/2 438/269/2
f 515/349/2 516/350/2 438/269/2
f 516/350/2 517/351/2 438/269/2
f 517/351/2 512/295/2 438/269/2
f 518/296/2 520/352/2 85/115/2
f 520/352/2 521/353/2 85/115/2
f 521/353/2 522/354/2 85/115/2
f 522/354/2 523/355/2 85/115/2
f 523/355/2 524/356/2 85/115/2
f 524/356/2 519/293/2 85/115/2
f 613/357/2 686/358/2 680/359/2 264/179/2
f 264/179/2 665/360/2 659/361/2 437/272/2
f 82/94/2 672/362/2 666/363/2 264/179/2
f 437/272/2 658/364/2 673/365/2 82/94/2
f 615/366/2 616/367/2 631/368/2 437/272/2
f 437/272/2 630/369/2 624/370/2 264/179/2
f 264/179/2 623/371/2 617/372/2 615/366/2
f 264/179/2 644/373/2 638/374/2 613/357/2
f 614/375/2 651/376/2 645/377/2 264/179/2
f 613/357/2 637/378/2 652/379/2 614/375/2
f 264/179/2 679/380/2 694/381/2 263/202/2
f 263/202/2 693/382/2 687/383/2 613/357/2
f 264/179/2 615/366/2 614/375/2
f 616/367/2 615/366/2 618/384/2
f 618/384/2 615/366/2 619/385/2
f 619/385/2 615/366/2 620/386/2
f 620/386/2 615/366/2 621/387/2
f 621/387/2 615/366/2 622/388/2
f 622/388/2 615/366/2 617/372/2
f 623/371/2 264/179/2 625/389/2
f 625/389/2 264/179/2 626/390/2
f 626/390/2 264/179/2 627/391/2
f 627/391/2 264/179/2 628/392/2
f 628/392/2 264/179/2 629/393/2
f 629/393/2 264/179/2 624/370/2
f 630/369/2 437/272/2 632/394/2
f 632/394/2 437/272/2 633/395/2
f 633/395/2 437/272/2 634/396/2
f 634/396/2 437/272/2 635/397/2
f 635/397/2 437/272/2 636/398/2
f 636/398/2 437/272/2 631/368/2
f 637/378/2 613/357/2 639/399/2
f 639/399/2 613/357/2 640/400/2
f 640/400/2 613/357/2 641/401/2
f 641/401/2 613/357/2 642/402/2
f 642/402/2 613/357/2 643/403/2
f 643/403/2 613/357/2 638/374/2
f 644/373/2 264/179/2 646/404/2
f 646/404/2 264/179/2 647/405/2
f 647/405/2 264/179/2 648/406/2
f 648/406/2 264/179/2 649/407/2
f 649/407/2 264/179/2 650/408/2
f 650/408/2 264/179/2 645/377/2
f 651/376/2 614/375/2 653/409/2
f 653/409/2 614/375/2 654/410/2
f 654/410/2 614/375/2 655/411/2
f 655/411/2 614/375/2 656/412/2
f 656/412/2 614/375/2 657/413/2
f 657/413/2 614/375/2 652/379/2
f 658/364/2 437/272/2 660/414/2
f 660/414/2 437/272/2 661/415/2
f 661/415/2 437/272/2 662/416/2
f 662/416/2 437/272/2 663/417/2
f 663/417/2 437/272/2 664/418/2
f 664/418/2 437/272/2 659/361/2
f 665/360/2 264/179/2 667/419/2
f 667/419/2 264/179/2 668/420/2
f 668/420/2 264/179/2 669/421/2
f 669/421/2 264/179/2 670/422/2
f 670/422/2 264/179/2 671/423/2
f 671/423/2 264/179/2 666/363/2
f 672/362/2 82/94/2 674/424/2
f 674/424/2 82/94/2 675/425/2
f 675/425/2 82/94/2 676/426/2
f 676/426/2 82/94/2 677/427/2
f 677/427/2 82/94/2 678/428/2
f 678/428/2 82/94/2 673/365/2
f 679/380/2 264/179/2 681/429/2
f 681/429/2 264/179/2 682/430/2
f 682/430/2 264/179/2 683/431/2
f 683/431/2 264/179/2 684/432/2
f 684/432/2 264/179/2 685/433/2
f 685/433/2 264/179/2 680/359/2
f 686/358/2 613/357/2 688/434/2
f 688/434/2 613/357/2 689/435/2
f 689/435/2 613/357/2 690/436/2
f 690/436/2 613/357/2 691/437/2
f 691/437/2 613/357/2 692/438/2
f 692/438/2 613/357/2 687/383/2
f 693/382/2 263/202/2 695/439/2
f 695/439/2 263/202/2 696/440/2
f 696/440/2 263/202/2 697/441/2
f 697/441/2 263/202/2 698/442/2
f 698/442/2 263/202/2 699/443/2
f 699/443/2 263/202/2 694/381/2
usemtl MI_Trim_02
f 197/444/35 108/445/35 110/446/36 199/447/37
f 212/448/38 123/449/38 108/445/35 197/444/35
f 217/450/39 128/451/40 123/449/38 212/448/38
f 216/452/41 127/453/42 128/451/40 217/450/39
f 215/454/43 126/455/44 127/453/42 216/452/41
f 214/456/45 125/457/46 126/455/44 215/454/43
f 213/458/47 124/459/48 125/457/46 214/456/45
f 211/460/49 122/461/50 124/459/48 213/458/47
f 205/462/51 116/463/52 122/461/50 211/460/49
f 210/464/53 121/465/54 116/463/52 205/462/51
f 209/466/55 120/467/56 121/465/54 210/464/53
f 208/468/57 119/469/58 120/467/56 209/466/55
f 207/470/59 118/471/60 119/469/58 208/468/57
f 206/472/61 117/473/62 118/471/60 207/470/59
f 204/474/63 115/475/64 117/473/62 206/472/61
f 198/476/65 109/477/66 115/478/64 204/479/63
f 203/480/67 114/481/68 109/477/66 198/476/65
f 202/482/69 113/483/70 114/481/68 203/480/67
f 201/484/71 112/485/72 113/483/70 202/482/69
f 200/486/73 111/487/74 112/485/72 201/484/71
f 199/447/37 110/446/36 111/487/74 200/486/73
f 84/488/75 80/489/75 175/490/75 173/491/75
f 172/492/75 83/493/75 84/488/75 173/491/75
f 171/494/75 81/495/75 83/493/75 172/492/75
f 241/496/76 152/497/77 153/498/78 242/499/79
f 242/499/79 153/498/78 154/500/80 243/501/81
f 243/501/81 154/500/80 155/502/82 244/503/83
f 244/503/83 155/502/82 156/504/84 245/505/85
f 245/505/85 156/504/84 151/506/86 240/507/87
f 240/507/87 151/506/86 157/508/88 246/509/89
f 246/509/89 157/508/88 159/510/90 248/511/91
f 248/511/91 159/510/90 160/512/92 249/513/93
f 249/513/93 160/512/92 161/514/94 250/515/95
f 250/515/95 161/514/94 162/516/96 251/517/97
f 251/517/97 162/516/96 163/518/98 252/519/99
f 252/519/99 163/518/98 158/520/100 247/521/101
f 247/521/101 158/520/100 164/522/102 253/523/103
f 253/523/103 164/522/102 166/524/104 255/525/105
f 255/525/105 166/524/104 167/526/106 256/527/107
f 256/527/107 167/526/106 168/528/108 257/529/109
f 257/529/109 168/528/108 169/530/110 258/531/111
f 258/531/111 169/530/110 170/532/112 259/533/113
f 259/533/113 170/532/112 165/534/114 254/535/114
f 254/535/114 165/534/114 150/536/115 239/537/115
f 239/538/115 150/539/115 152/497/77 241/496/76
f 178/540/116 89/541/117 90/542/118 179/543/119
f 179/543/119 90/542/118 91/544/120 180/545/121
f 180/545/121 91/544/120 92/546/122 181/547/123
f 181/547/123 92/546/122 93/548/124 182/549/125
f 182/549/125 93/548/124 88/550/126 177/551/127
f 177/551/127 88/550/126 94/552/128 183/553/129
f 183/553/129 94/552/128 96/554/130 185/555/131
f 185/555/131 96/554/130 97/556/132 186/557/133
f 186/557/133 97/556/132 98/558/134 187/559/135
f 187/559/135 98/558/134 99/560/136 188/561/137
f 188/561/137 99/560/136 100/562/138 189/563/139
f 189/563/139 100/562/138 95/564/140 184/565/141
f 184/566/141 95/567/140 101/568/142 190/569/143
f 190/569/143 101/568/142 103/570/144 192/571/145
f 192/571/145 103/570/144 104/572/146 193/573/147
f 193/573/147 104/572/146 105/574/148 194/575/149
f 194/575/149 105/574/148 106/576/150 195/577/151
f 195/577/151 106/576/150 107/578/152 196/579/153
f 196/579/153 107/578/152 102/580/154 191/581/154
f 191/581/154 102/580/154 87/582/155 176/583/155
f 176/583/155 87/582/155 89/541/117 178/540/116
f 220/584/156 131/585/157 132/586/158 221/587/159
f 221/587/159 132/586/158 133/588/160 222/589/161
f 222/589/161 133/588/160 134/590/162 223/591/163
f 223/591/163 134/590/162 135/592/164 224/593/165
f 224/593/165 135/592/164 130/594/166 219/595/167
f 219/595/167 130/594/166 136/596/168 225/597/169
f 225/597/169 136/596/168 138/598/170 227/599/171
f 227/599/171 138/598/170 139/600/172 228/601/173
f 228/601/173 139/600/172 140/602/174 229/603/175
f 229/603/175 140/602/174 141/604/176 230/605/177
f 230/605/177 141/604/176 142/606/178 231/607/179
f 231/607/179 142/606/178 137/608/180 226/609/180
f 226/610/180 137/611/180 143/612/181 232/613/181
f 232/613/181 143/612/181 145/614/182 234/615/183
f 234/615/183 145/614/182 146/616/184 235/617/185
f 235/617/185 146/616/184 147/618/186 236/619/187
f 236/619/187 147/618/186 148/620/188 237/621/189
f 237/621/189 148/620/188 149/622/190 238/623/191
f 238/623/191 149/622/190 144/624/192 233/625/193
f 233/625/193 144/624/192 129/626/194 218/627/195
f 218/627/195 129/626/194 131/585/157 220/584/156
f 374/628/154 376/629/153 288/630/152 286/631/154
f 389/632/155 374/628/154 286/631/154 301/633/155
f 394/634/116 389/632/155 301/633/155 306/635/117
f 393/636/119 394/634/116 306/635/117 305/637/118
f 392/638/121 393/636/119 305/637/118 304/639/120
f 391/640/123 392/638/121 304/639/120 303/641/122
f 390/642/125 391/640/123 303/641/122 302/643/124
f 388/644/127 390/642/125 302/643/124 300/645/126
f 382/646/129 388/644/127 300/645/126 294/647/128
f 387/648/131 382/646/129 294/647/128 299/649/196
f 386/650/133 387/648/131 299/649/196 298/651/197
f 385/652/198 386/650/133 298/651/197 297/653/134
f 384/654/137 385/652/198 297/653/134 296/655/136
f 383/656/139 384/654/137 296/655/136 295/657/199
f 381/658/141 383/656/139 295/657/199 293/659/140
f 375/660/143 381/661/141 293/662/140 287/663/142
f 380/664/145 375/660/143 287/663/142 292/665/144
f 379/666/147 380/664/145 292/665/144 291/667/200
f 378/668/149 379/666/147 291/667/200 290/669/148
f 377/670/151 378/668/149 290/669/148 289/671/150
f 376/629/153 377/670/151 289/671/150 288/630/152
f 262/672/75 351/673/75 175/490/75 80/489/75
f 350/674/75 351/673/75 262/672/75 261/675/75
f 349/676/75 350/674/75 261/675/75 260/677/75
f 352/678/34 349/679/34 260/680/34 263/681/34
f 418/682/179 419/683/177 331/684/176 330/685/201
f 419/683/177 420/686/175 332/687/174 331/684/176
f 420/686/175 421/688/173 333/689/172 332/687/174
f 421/688/173 422/690/202 334/691/170 333/689/172
f 422/690/202 417/692/169 329/693/168 334/691/170
f 417/692/169 423/694/167 335/695/166 329/693/168
f 423/694/167 425/696/165 337/697/203 335/695/166
f 425/696/165 426/698/204 338/699/205 337/697/203
f 426/698/204 427/700/206 339/701/160 338/699/205
f 427/700/206 428/702/159 340/703/158 339/701/160
f 428/702/159 429/704/156 341/705/157 340/703/158
f 429/704/156 424/706/195 336/707/194 341/705/157
f 424/706/195 430/708/193 342/709/192 336/707/194
f 430/708/193 432/710/207 344/711/190 342/709/192
f 432/710/207 433/712/189 345/713/188 344/711/190
f 433/712/189 434/714/187 346/715/186 345/713/188
f 434/714/187 435/716/185 347/717/184 346/715/186
f 435/716/185 436/718/183 348/719/182 347/717/184
f 436/718/183 431/720/181 343/721/181 348/719/182
f 431/720/181 416/722/180 328/723/180 343/721/181
f 416/724/180 418/682/179 330/685/201 328/725/180
f 355/726/39 356/727/41 268/728/42 267/729/40
f 356/727/41 357/730/208 269/731/44 268/728/42
f 357/730/208 358/732/45 270/733/46 269/731/44
f 358/732/45 359/734/47 271/735/48 270/733/46
f 359/734/47 354/736/49 266/737/50 271/735/48
f 354/736/49 360/738/51 272/739/52 266/737/50
f 360/738/51 362/740/209 274/741/210 272/739/52
f 362/740/209 363/742/55 275/743/56 274/741/210
f 363/742/55 364/744/211 276/745/58 275/743/56
f 364/744/211 365/746/59 277/747/60 276/745/58
f 365/746/59 366/748/61 278/749/62 277/747/60
f 366/748/61 361/750/63 273/751/64 278/749/62
f 361/752/63 367/753/65 279/754/66 273/755/64
f 367/753/65 369/756/67 281/757/68 279/754/66
f 369/756/67 370/758/69 282/759/70 281/757/68
f 370/758/69 371/760/71 283/761/72 282/759/70
f 371/760/71 372/762/73 284/763/212 283/761/72
f 372/762/73 373/764/37 285/765/36 284/763/212
f 373/764/37 368/766/35 280/767/35 285/765/36
f 368/766/35 353/768/38 265/769/38 280/767/35
f 353/768/38 355/726/39 267/729/40 265/769/38
f 397/770/99 398/771/97 310/772/96 309/773/98
f 398/771/97 399/774/213 311/775/94 310/772/96
f 399/774/213 400/776/93 312/777/92 311/775/94
f 400/776/93 401/778/91 313/779/90 312/777/92
f 401/778/91 396/780/89 308/781/88 313/779/90
f 396/780/89 402/782/87 314/783/86 308/781/88
f 402/782/87 404/784/85 316/785/214 314/783/86
f 404/784/85 405/786/83 317/787/82 316/785/214
f 405/786/83 406/788/81 318/789/80 317/787/82
f 406/788/81 407/790/79 319/791/78 318/789/80
f 407/790/79 408/792/76 320/793/77 319/791/78
f 408/792/76 403/794/115 315/795/115 320/793/77
f 403/796/115 409/797/114 321/798/114 315/799/115
f 409/797/114 411/800/113 323/801/112 321/798/114
f 411/800/113 412/802/111 324/803/110 323/801/112
f 412/802/111 413/804/215 325/805/108 324/803/110
f 413/804/215 414/806/107 326/807/216 325/805/108
f 414/806/107 415/808/217 327/809/104 326/807/216
f 415/808/217 410/810/218 322/811/102 327/809/104
f 410/810/218 395/812/101 307/813/100 322/811/102
f 395/812/101 397/770/99 309/773/98 307/813/100
f 550/814/219 552/815/220 464/816/221 462/817/219
f 565/818/222 550/814/219 462/817/219 477/819/222
f 570/820/223 565/818/222 477/819/222 482/821/224
f 569/822/225 570/820/223 482/821/224 481/823/226
f 568/824/227 569/822/225 481/823/226 480/825/228
f 567/826/189 568/824/227 480/825/228 479/827/188
f 566/828/229 567/826/189 479/827/188 478/829/230
f 564/830/231 566/828/229 478/829/230 476/831/232
f 558/832/195 564/830/231 476/831/232 470/833/194
f 563/834/233 558/832/195 470/833/194 475/835/157
f 562/836/159 563/834/233 475/835/157 474/837/234
f 561/838/235 562/836/159 474/837/234 473/839/236
f 560/840/237 561/838/235 473/839/236 472/841/238
f 559/842/239 560/840/237 472/841/238 471/843/240
f 557/844/241 559/842/239 471/843/240 469/845/242
f 551/846/243 557/847/241 469/848/242 463/849/244
f 556/850/245 551/846/243 463/849/244 468/851/246
f 555/852/247 556/850/245 468/851/246 467/853/172
f 554/854/175 555/852/247 467/853/172 466/855/174
f 553/856/248 554/854/175 466/855/174 465/857/249
f 552/815/220 553/856/248 465/857/249 464/816/221
f 440/858/250 527/859/250 528/860/250 437/861/250
f 526/862/250 527/859/250 440/858/250 439/863/250
f 525/864/250 526/862/250 439/863/250 438/865/250
f 594/866/251 595/867/151 507/868/252 506/869/253
f 595/867/151 596/870/149 508/871/148 507/868/252
f 596/870/149 597/872/254 509/873/146 508/871/148
f 597/872/254 598/874/255 510/875/256 509/873/146
f 598/874/255 593/876/257 505/877/258 510/875/256
f 593/876/257 599/878/259 511/879/260 505/877/258
f 599/878/259 601/880/261 513/881/262 511/879/260
f 601/880/261 602/882/263 514/883/264 513/881/262
f 602/882/263 603/884/265 515/885/266 514/883/264
f 603/884/265 604/886/133 516/887/132 515/885/266
f 604/886/133 605/888/267 517/889/196 516/887/132
f 605/888/267 600/890/129 512/891/128 517/889/196
f 600/890/129 606/892/268 518/893/269 512/891/128
f 606/892/268 608/894/270 520/895/271 518/893/269
f 608/894/270 609/896/123 521/897/272 520/895/271
f 609/896/123 610/898/273 522/899/274 521/897/272
f 610/898/273 611/900/275 523/901/276 522/899/274
f 611/900/275 612/902/277 524/903/278 523/901/276
f 612/902/277 607/904/279 519/905/279 524/903/278
f 607/904/279 592/906/280 504/907/280 519/905/279
f 592/908/280 594/866/251 506/869/253 504/909/280
f 531/910/281 532/911/282 444/912/283 443/913/284
f 532/911/282 533/914/285 445/915/286 444/912/283
f 533/914/285 534/916/107 446/917/106 445/915/286
f 534/916/107 535/918/287 447/919/288 446/917/106
f 535/918/287 530/920/218 442/921/102 447/919/288
f 530/920/218 536/922/101 448/923/100 442/921/102
f 536/922/101 538/924/289 450/925/290 448/923/100
f 538/924/289 539/926/97 451/927/291 450/925/290
f 539/926/97 540/928/292 452/929/293 451/927/291
f 540/928/292 541/930/294 453/931/295 452/929/293
f 541/930/294 542/932/296 454/933/297 453/931/295
f 542/932/296 537/934/298 449/935/299 454/933/297
f 537/936/298 543/937/300 455/938/301 449/939/299
f 543/937/300 545/940/302 457/941/303 455/938/301
f 545/940/302 546/942/304 458/943/305 457/941/303
f 546/942/304 547/944/81 459/945/80 458/943/305
f 547/944/81 548/946/306 460/947/307 459/945/80
f 548/946/306 549/948/308 461/949/309 460/947/307
f 549/948/308 544/950/310 456/951/310 461/949/309
f 544/950/310 529/952/311 441/953/311 456/951/310
f 529/952/311 531/910/281 443/913/284 441/953/311
f 573/954/209 574/955/55 486/956/312 485/957/54
f 574/955/55 575/958/313 487/959/314 486/956/312
f 575/958/313 576/960/315 488/961/316 487/959/314
f 576/960/315 577/962/317 489/963/318 488/961/316
f 577/962/317 572/964/319 484/965/320 489/963/318
f 572/964/319 578/966/321 490/967/322 484/965/320
f 578/966/321 580/968/323 492/969/324 490/967/322
f 580/968/323 581/970/325 493/971/326 492/969/324
f 581/970/325 582/972/71 494/973/72 493/971/326
f 582/972/71 583/974/73 495/975/212 494/973/72
f 583/974/73 584/976/327 496/977/328 495/975/212
f 584/976/327 579/978/329 491/979/329 496/977/328
f 579/980/329 585/981/330 497/982/330 491/983/329
f 585/981/330 587/984/331 499/985/332 497/982/330
f 587/984/331 588/986/333 500/987/334 499/985/332
f 588/986/333 589/988/335 501/989/336 500/987/334
f 589/988/335 590/990/45 502/991/46 501/989/336
f 590/990/45 591/992/337 503/993/338 502/991/46
f 591/992/337 586/994/339 498/995/340 503/993/338
f 586/994/339 571/996/51 483/997/52 498/995/340
f 571/996/51 573/954/209 485/957/54 483/997/52
f 724/998/310 637/999/310 639/1000/341 726/1001/308
f 739/1002/311 652/1003/311 637/999/310 724/998/310
f 744/1004/281 657/1005/284 652/1003/311 739/1002/311
f 743/1006/282 656/1007/342 657/1005/284 744/1004/281
f 742/1008/343 655/1009/286 656/1007/342 743/1006/282
f 741/1010/107 654/1011/216 655/1009/286 742/1008/343
f 740/1012/287 653/1013/288 654/1011/216 741/1010/107
f 738/1014/218 651/1015/102 653/1013/288 740/1012/287
f 732/1016/101 645/1017/100 651/1015/102 738/1014/218
f 737/1018/289 650/1019/98 645/1017/100 732/1016/101
f 736/1020/97 649/1021/96 650/1019/98 737/1018/289
f 735/1022/292 648/1023/293 649/1021/96 736/1020/97
f 734/1024/294 647/1025/295 648/1023/293 735/1022/292
f 733/1026/296 646/1027/297 647/1025/295 734/1024/294
f 731/1028/298 644/1029/299 646/1027/297 733/1026/296
f 725/1030/300 638/1031/301 644/1032/299 731/1033/298
f 730/1034/344 643/1035/345 638/1031/301 725/1030/300
f 729/1036/304 642/1037/82 643/1035/345 730/1034/344
f 728/1038/81 641/1039/346 642/1037/82 729/1036/304
f 727/1040/79 640/1041/307 641/1039/346 728/1038/81
f 726/1001/308 639/1000/341 640/1041/307 727/1040/79
f 615/1042/250 437/861/250 528/860/250 702/1043/250
f 701/1044/250 614/1045/250 615/1042/250 702/1043/250
f 700/1046/250 613/1047/250 614/1045/250 701/1044/250
f 352/678/34 263/681/34 613/1048/34 700/1049/34
f 768/1050/327 681/1051/347 682/1052/212 769/1053/73
f 769/1053/73 682/1052/212 683/1054/72 770/1055/71
f 770/1055/71 683/1054/72 684/1056/326 771/1057/325
f 771/1057/325 684/1056/326 685/1058/324 772/1059/348
f 772/1059/348 685/1058/324 680/1060/322 767/1061/321
f 767/1061/321 680/1060/322 686/1062/320 773/1063/319
f 773/1063/319 686/1062/320 688/1064/349 775/1065/317
f 775/1065/317 688/1064/349 689/1066/316 776/1067/315
f 776/1067/315 689/1066/316 690/1068/314 777/1069/350
f 777/1069/350 690/1068/314 691/1070/312 778/1071/55
f 778/1071/55 691/1070/312 692/1072/54 779/1073/209
f 779/1073/209 692/1072/54 687/1074/52 774/1075/51
f 774/1075/51 687/1074/52 693/1076/340 780/1077/339
f 780/1077/339 693/1076/340 695/1078/338 782/1079/351
f 782/1079/351 695/1078/338 696/1080/46 783/1081/45
f 783/1081/45 696/1080/46 697/1082/336 784/1083/352
f 784/1083/352 697/1082/336 698/1084/353 785/1085/333
f 785/1085/333 698/1084/353 699/1086/332 786/1087/331
f 786/1087/331 699/1086/332 694/1088/330 781/1089/330
f 781/1089/330 694/1088/330 679/1090/329 766/1091/329
f 766/1092/329 679/1093/329 681/1051/347 768/1050/327
f 705/1094/223 618/1095/224 619/1096/354 706/1097/225
f 706/1097/225 619/1096/354 620/1098/228 707/1099/227
f 707/1099/227 620/1098/228 621/1100/188 708/1101/189
f 708/1101/189 621/1100/188 622/1102/230 709/1103/229
f 709/1103/229 622/1102/230 617/1104/232 704/1105/231
f 704/1105/231 617/1104/232 623/1106/194 710/1107/195
f 710/1107/195 623/1106/194 625/1108/355 712/1109/156
f 712/1109/156 625/1108/355 626/1110/158 713/1111/159
f 713/1111/159 626/1110/158 627/1112/236 714/1113/235
f 714/1113/235 627/1112/236 628/1114/238 715/1115/237
f 715/1115/237 628/1114/238 629/1116/356 716/1117/239
f 716/1117/239 629/1116/356 624/1118/166 711/1119/241
f 711/1120/241 624/1121/166 630/1122/244 717/1123/243
f 717/1123/243 630/1122/244 632/1124/246 719/1125/245
f 719/1125/245 632/1124/246 633/1126/357 720/1127/247
f 720/1127/247 633/1126/357 634/1128/174 721/1129/175
f 721/1129/175 634/1128/174 635/1130/249 722/1131/248
f 722/1131/248 635/1130/249 636/1132/221 723/1133/220
f 723/1133/220 636/1132/221 631/1134/219 718/1135/219
f 718/1135/219 631/1134/219 616/1136/222 703/1137/222
f 703/1137/222 616/1136/222 618/1095/224 705/1094/223
f 747/1138/267 660/1139/196 661/1140/132 748/1141/133
f 748/1141/133 661/1140/132 662/1142/358 749/1143/359
f 749/1143/359 662/1142/358 663/1144/360 750/1145/263
f 750/1145/263 663/1144/360 664/1146/361 751/1147/261
f 751/1147/261 664/1146/361 659/1148/260 746/1149/259
f 746/1149/259 659/1148/260 665/1150/258 752/1151/257
f 752/1151/257 665/1150/258 667/1152/362 754/1153/363
f 754/1153/363 667/1152/362 668/1154/146 755/1155/254
f 755/1155/254 668/1154/146 669/1156/148 756/1157/149
f 756/1157/149 669/1156/148 670/1158/252 757/1159/151
f 757/1159/151 670/1158/252 671/1160/253 758/1161/251
f 758/1161/251 671/1160/253 666/1162/280 753/1163/280
f 753/1164/280 666/1165/280 672/1166/279 759/1167/279
f 759/1167/279 672/1166/279 674/1168/278 761/1169/277
f 761/1169/277 674/1168/278 675/1170/364 762/1171/365
f 762/1171/365 675/1170/364 676/1172/274 763/1173/273
f 763/1173/273 676/1172/274 677/1174/122 764/1175/123
f 764/1175/123 677/1174/122 678/1176/271 765/1177/270
f 765/1177/270 678/1176/271 673/1178/126 760/1179/127
f 760/1179/127 673/1178/126 658/1180/128 745/1181/129
f 745/1181/129 658/1180/128 660/1139/196 747/1138/267
