# Blender v3.6.0 OBJ File: 'AllModules_Unreal.blend'
# www.blender.org
mtllib TopPadded_Incline_Curve_Square_Outer.mtl
o TopPadded_Incline_Curve_Square_Outer_Plane.266
v -0.998290 3.997129 -4.496634
v 0.001735 3.997129 -4.496633
v -0.998290 3.004417 -4.000963
v 0.001735 3.004417 -4.000963
v -0.998290 4.989841 -4.992304
v 0.001736 4.989841 -4.992303
v -1.998290 4.989841 -4.992304
v -0.228764 3.116206 -4.056780
v -0.908392 3.800863 -4.398636
v -0.903320 3.116206 -4.056780
v -0.089290 3.205012 -4.101121
v -0.101969 3.883939 -4.440116
v -0.776525 3.903991 -4.450129
v -0.094362 4.757663 -4.876375
v -0.084219 4.104518 -4.550253
v -0.786670 4.087330 -4.541672
v -0.903322 4.199051 -4.597456
v -0.898250 4.877979 -4.936450
v -0.193264 4.898031 -4.946462
v -1.088445 4.184729 -4.590304
v -1.096052 4.886573 -4.940742
v -1.795967 4.898031 -4.946463
v -1.210168 4.098788 -4.547393
v -1.897403 4.786310 -4.890679
v -1.892331 4.113112 -4.554545
v -1.088445 3.795133 -4.395775
v -1.801039 3.104747 -4.051059
v -1.096052 3.104747 -4.051059
v -1.899940 3.901126 -4.448699
v -1.912620 3.205011 -4.101122
v -1.194953 3.909720 -4.452990
v -1.326678 3.319186 -4.232982
v -1.695102 3.657777 -4.402044
v -1.652864 4.271828 -4.708646
v -1.281982 4.605446 -4.875224
v -0.654687 4.646825 -4.895885
v -0.297542 4.308035 -4.726723
v -0.286095 3.664075 -4.405188
v -0.670713 3.325284 -4.236027
v -2.998290 3.997129 -4.496634
v -1.998265 3.997129 -4.496634
v -2.998290 3.004417 -4.000964
v -1.998265 3.004417 -4.000964
v -2.998290 4.989841 -4.992305
v -2.228764 3.116206 -4.056781
v -2.908392 3.800863 -4.398637
v -2.903321 3.116206 -4.056781
v -2.089290 3.205012 -4.101122
v -2.101969 3.883939 -4.440117
v -2.776525 3.903991 -4.450130
v -2.094362 4.757663 -4.876376
v -2.084219 4.104518 -4.550254
v -2.786670 4.087330 -4.541672
v -2.903323 4.199051 -4.597456
v -2.898250 4.877979 -4.936451
v -2.193264 4.898031 -4.946463
v -3.088445 4.184729 -4.590305
v -3.096052 4.886573 -4.940742
v -3.795967 4.898031 -4.946464
v -3.210168 4.098788 -4.547394
v -3.897403 4.786310 -4.890680
v -3.892332 4.113112 -4.554546
v -3.088445 3.795133 -4.395776
v -3.801039 3.104747 -4.051060
v -3.096052 3.104747 -4.051060
v -3.899940 3.901126 -4.448700
v -3.194953 3.909720 -4.452990
v -3.912620 3.205011 -4.101123
v -3.326678 3.319186 -4.232983
v -3.695102 3.657777 -4.402045
v -3.652864 4.271828 -4.708646
v -3.281982 4.605446 -4.875225
v -2.654687 4.646826 -4.895886
v -2.297542 4.308035 -4.726724
v -2.286095 3.664075 -4.405189
v -2.670713 3.325284 -4.236028
v -3.998265 3.997129 -4.496634
v -3.998265 3.004417 -4.000964
v -3.998265 4.989841 -4.992305
v -4.496634 3.997129 -3.001710
v -4.496634 3.997129 -4.001736
v -4.000963 3.004417 -3.001710
v -4.000963 3.004417 -4.001735
v -4.992304 4.989841 -3.001710
v -4.992304 4.989841 -4.001736
v -4.992304 4.989841 -2.001710
v -4.056780 3.116206 -3.771236
v -4.398636 3.800863 -3.091608
v -4.056781 3.116206 -3.096680
v -4.101122 3.205012 -3.910710
v -4.440116 3.883939 -3.898031
v -4.450130 3.903991 -3.223476
v -4.876375 4.757663 -3.905638
v -4.550254 4.104518 -3.915781
v -4.541672 4.087330 -3.213331
v -4.597456 4.199051 -3.096678
v -4.936450 4.877979 -3.101750
v -4.946463 4.898031 -3.806736
v -4.590304 4.184729 -2.911555
v -4.940742 4.886573 -2.903948
v -4.946463 4.898031 -2.204033
v -4.547393 4.098788 -2.789832
v -4.890679 4.786310 -2.102597
v -4.554545 4.113112 -2.107669
v -4.395775 3.795133 -2.911556
v -4.051059 3.104747 -2.198961
v -4.051059 3.104747 -2.903948
v -4.448699 3.901126 -2.100060
v -4.101122 3.205011 -2.087381
v -4.452990 3.909720 -2.805047
v -4.232982 3.319186 -2.673322
v -4.402044 3.657777 -2.304898
v -4.708646 4.271828 -2.347136
v -4.875224 4.605446 -2.718018
v -4.895885 4.646825 -3.345314
v -4.726723 4.308035 -3.702458
v -4.405188 3.664075 -3.713906
v -4.236027 3.325284 -3.329287
v -4.496634 3.997129 -1.001710
v -4.496634 3.997129 -2.001735
v -4.000964 3.004417 -1.001710
v -4.000964 3.004417 -2.001735
v -4.992305 4.989841 -1.001710
v -4.056781 3.116206 -1.771236
v -4.398637 3.800863 -1.091608
v -4.056781 3.116206 -1.096680
v -4.101122 3.205012 -1.910710
v -4.440117 3.883939 -1.898031
v -4.450130 3.903991 -1.223476
v -4.876376 4.757663 -1.905638
v -4.550254 4.104518 -1.915781
v -4.541672 4.087330 -1.213331
v -4.597456 4.199051 -1.096678
v -4.936451 4.877979 -1.101750
v -4.946463 4.898031 -1.806736
v -4.590304 4.184729 -0.911555
v -4.940742 4.886573 -0.903948
v -4.946464 4.898031 -0.204033
v -4.547394 4.098788 -0.789832
v -4.890680 4.786310 -0.102597
v -4.554546 4.113112 -0.107669
v -4.395776 3.795133 -0.911556
v -4.051060 3.104747 -0.198961
v -4.051059 3.104747 -0.903948
v -4.448699 3.901126 -0.100060
v -4.452990 3.909720 -0.805047
v -4.101122 3.205011 -0.087381
v -4.232983 3.319186 -0.673322
v -4.402045 3.657777 -0.304898
v -4.708646 4.271828 -0.347136
v -4.875225 4.605446 -0.718018
v -4.895885 4.646826 -1.345314
v -4.726724 4.308035 -1.702458
v -4.405189 3.664075 -1.713906
v -4.236028 3.325284 -1.329287
v -4.496634 3.997129 -0.001736
v -4.000964 3.004417 -0.001735
v -4.992305 4.989841 -0.001736
vt 0.097487 0.953758
vt -0.000013 1.000000
vt 0.500000 0.500000
vt 0.452516 0.601702
vt 0.455051 0.401146
vt 0.452515 0.056305
vt 0.500000 -0.000000
vt 1.000000 1.000000
vt 0.605939 0.551203
vt 0.949557 0.897487
vt -0.000013 0.500000
vt -0.000013 -0.000000
vt 0.045500 0.101034
vt 0.051840 0.442989
vt 0.548881 0.050533
vt 0.545077 0.398261
vt 0.500000 1.000000
vt 0.548881 0.947987
vt 0.898839 0.953758
vt 1.000000 -0.000000
vt 1.000000 0.500000
vt 0.950825 0.451646
vt 0.957165 0.101033
vt 0.394190 0.545432
vt 0.048036 0.883059
vt 0.115237 0.056305
vt 0.336212 0.176679
vt 0.389117 0.453089
vt 0.143902 0.347318
vt 0.042964 0.554089
vt 0.449980 0.943658
vt 0.149626 0.671662
vt 0.328198 0.842301
vt 0.545078 0.594488
vt 0.641846 0.821459
vt 0.827287 0.653426
vt 0.947021 0.558417
vt 0.664194 0.173608
vt 0.901375 0.050533
vt 0.598332 0.455975
vt 0.848406 0.344146
vt 0.097487 0.953758
vt -0.000013 1.000000
vt 0.500000 0.500000
vt 0.452516 0.601702
vt 0.455051 0.401146
vt 0.452515 0.056305
vt 0.500000 -0.000000
vt 1.000000 1.000000
vt 0.605939 0.551203
vt 0.949557 0.897487
vt -0.000013 0.500000
vt -0.000013 -0.000000
vt 0.045500 0.101034
vt 0.051840 0.442989
vt 0.548881 0.050533
vt 0.545077 0.398261
vt 0.500000 1.000000
vt 0.548881 0.947987
vt 0.898839 0.953758
vt 1.000000 -0.000000
vt 1.000000 0.500000
vt 0.950825 0.451646
vt 0.957165 0.101033
vt 0.394190 0.545432
vt 0.048036 0.883059
vt 0.115237 0.056305
vt 0.336212 0.176679
vt 0.389117 0.453089
vt 0.143902 0.347318
vt 0.042964 0.554089
vt 0.449980 0.943658
vt 0.149626 0.671662
vt 0.328198 0.842301
vt 0.545078 0.594488
vt 0.641846 0.821459
vt 0.827287 0.653426
vt 0.947021 0.558417
vt 0.664194 0.173608
vt 0.901375 0.050533
vt 0.598332 0.455975
vt 0.848406 0.344146
vt 0.097487 0.953758
vt -0.000013 1.000000
vt 0.500000 0.500000
vt 0.452516 0.601702
vt 0.455051 0.401146
vt 0.452515 0.056305
vt 0.500000 -0.000000
vt 1.000000 1.000000
vt 0.605939 0.551203
vt 0.949557 0.897487
vt -0.000013 0.500000
vt -0.000013 -0.000000
vt 0.045500 0.101034
vt 0.051840 0.442989
vt 0.548881 0.050533
vt 0.545077 0.398261
vt 0.500000 1.000000
vt 0.548881 0.947987
vt 0.898839 0.953758
vt 1.000000 -0.000000
vt 1.000000 0.500000
vt 0.950825 0.451646
vt 0.957165 0.101033
vt 0.394190 0.545432
vt 0.048036 0.883059
vt 0.115237 0.056305
vt 0.336212 0.176679
vt 0.389117 0.453089
vt 0.143902 0.347318
vt 0.042964 0.554089
vt 0.449980 0.943658
vt 0.149626 0.671662
vt 0.328198 0.842301
vt 0.545078 0.594488
vt 0.641846 0.821459
vt 0.827287 0.653426
vt 0.947021 0.558417
vt 0.664194 0.173608
vt 0.901375 0.050533
vt 0.598332 0.455975
vt 0.848406 0.344146
vt 0.097487 0.953758
vt -0.000013 1.000000
vt 0.500000 0.500000
vt 0.452516 0.601702
vt 0.455051 0.401146
vt 0.452515 0.056305
vt 0.500000 -0.000000
vt 1.000000 1.000000
vt 0.605939 0.551203
vt 0.949557 0.897487
vt -0.000013 0.500000
vt -0.000013 -0.000000
vt 0.045500 0.101034
vt 0.051840 0.442989
vt 0.548881 0.050533
vt 0.545077 0.398261
vt 0.500000 1.000000
vt 0.548881 0.947987
vt 0.898839 0.953758
vt 1.000000 -0.000000
vt 1.000000 0.500000
vt 0.950825 0.451646
vt 0.957165 0.101033
vt 0.394190 0.545432
vt 0.048036 0.883059
vt 0.115237 0.056305
vt 0.336212 0.176679
vt 0.389117 0.453089
vt 0.143902 0.347318
vt 0.042964 0.554089
vt 0.449980 0.943658
vt 0.149626 0.671662
vt 0.328198 0.842301
vt 0.545078 0.594488
vt 0.641846 0.821459
vt 0.827287 0.653426
vt 0.947021 0.558417
vt 0.664194 0.173608
vt 0.901375 0.050533
vt 0.598332 0.455975
vt 0.848406 0.344146
vt 0.221980 0.568436
vt 0.143739 0.614782
vt 0.143792 0.522071
vt 0.282836 0.568102
vt 0.004800 0.661128
vt 0.004800 0.475887
vn 0.0146 -0.4403 -0.8977
vn 0.0000 -0.4467 -0.8947
vn -0.0050 -0.4576 -0.8892
vn -0.0053 -0.4352 -0.9003
vn -0.0325 -0.4766 -0.8785
vn 0.0157 -0.4534 -0.8912
vn -0.0049 -0.4360 -0.8999
vn 0.0046 -0.4575 -0.8892
vn 0.0423 -0.4071 -0.9124
vn 0.0322 -0.4765 -0.8786
vn 0.0055 -0.4350 -0.9004
vn 0.0339 -0.4126 -0.9103
vn -0.0133 -0.4408 -0.8975
vn -0.0371 -0.4115 -0.9107
vn -0.0049 -0.4576 -0.8891
vn -0.0135 -0.4526 -0.8916
vn 0.0058 -0.4336 -0.9011
vn 0.0156 -0.4536 -0.8911
vn 0.0373 -0.4081 -0.9122
vn -0.0144 -0.4406 -0.8976
vn 0.0301 -0.4346 -0.9001
vn 0.0347 -0.4780 -0.8777
vn -0.0369 -0.4144 -0.9093
vn -0.0072 -0.4150 -0.9098
vn 0.0248 -0.4573 -0.8890
vn 0.0051 -0.4584 -0.8887
vn 0.0206 -0.4705 -0.8822
vn 0.0221 -0.4464 -0.8945
vn -0.0382 -0.4787 -0.8771
vn -0.0264 -0.4117 -0.9109
vn -0.0145 -0.4529 -0.8915
vn 0.0141 -0.4408 -0.8975
vn -0.0115 -0.4490 -0.8935
vn 0.0322 -0.4766 -0.8786
vn -0.0371 -0.4114 -0.9107
vn -0.8977 -0.4403 -0.0146
vn -0.8947 -0.4467 0.0000
vn -0.8892 -0.4576 0.0050
vn -0.9003 -0.4352 0.0053
vn -0.8785 -0.4766 0.0325
vn -0.8912 -0.4534 -0.0157
vn -0.8999 -0.4360 0.0049
vn -0.8892 -0.4575 -0.0046
vn -0.9124 -0.4071 -0.0423
vn -0.8786 -0.4766 -0.0322
vn -0.9004 -0.4350 -0.0055
vn -0.9103 -0.4126 -0.0339
vn -0.8975 -0.4408 0.0133
vn -0.9107 -0.4114 0.0371
vn -0.8891 -0.4576 0.0049
vn -0.8916 -0.4526 0.0135
vn -0.9011 -0.4336 -0.0058
vn -0.8911 -0.4536 -0.0156
vn -0.9122 -0.4081 -0.0373
vn -0.8976 -0.4406 0.0144
vn -0.9001 -0.4346 -0.0301
vn -0.8777 -0.4780 -0.0347
vn -0.9093 -0.4144 0.0369
vn -0.9098 -0.4150 0.0072
vn -0.8890 -0.4573 -0.0248
vn -0.8887 -0.4584 -0.0051
vn -0.8822 -0.4705 -0.0206
vn -0.8945 -0.4464 -0.0221
vn -0.8771 -0.4787 0.0382
vn -0.9109 -0.4117 0.0264
vn -0.8915 -0.4529 0.0145
vn -0.8975 -0.4408 -0.0141
vn -0.8935 -0.4490 0.0115
vn -0.9107 -0.4115 0.0371
vn -0.6621 -0.3329 -0.6714
vn -0.6640 -0.3329 -0.6695
vn -0.6652 -0.3329 -0.6683
usemtl MI_PaddedWall
s 1
f 19/1/1 6/2/2 1/3/2 17/4/3
f 1/3/2 9/5/4 10/6/5 3/7/2
f 7/8/2 1/3/2 23/9/6 24/10/7
f 2/11/2 4/12/2 11/13/8 12/14/9
f 1/3/2 3/7/2 28/15/10 26/16/11
f 5/17/2 21/18/12 22/19/13 7/8/2
f 43/20/2 41/21/2 29/22/14 30/23/15
f 16/24/16 1/3/2 6/2/2 14/25/17
f 4/12/2 8/26/18 9/5/4 1/3/2
f 8/26/18 10/6/5 39/27/19
f 3/7/2 10/6/5 8/26/18 4/12/2
f 1/3/2 13/28/20 11/13/8 4/12/2
f 13/28/20 38/29/21 11/13/8
f 12/14/9 13/28/20 1/3/2 2/11/2
f 14/25/17 6/2/2 2/11/2 15/30/22
f 15/30/22 2/11/2 1/3/2 16/24/16
f 17/4/3 1/3/2 5/17/2 18/31/23
f 16/24/16 14/25/17 37/32/24
f 18/31/23 19/1/1 36/33/25
f 18/31/23 5/17/2 6/2/2 19/1/1
f 7/8/2 22/19/13 20/34/26 1/3/2
f 22/19/13 35/35/27 20/34/26
f 21/18/12 5/17/2 1/3/2 20/34/26
f 24/10/7 34/36/28 25/37/29
f 25/37/29 23/9/6 1/3/2 41/21/2
f 41/21/2 7/8/2 24/10/7 25/37/29
f 26/16/11 28/15/10 32/38/30
f 26/16/11 27/39/31 43/20/2 1/3/2
f 28/15/10 3/7/2 43/20/2 27/39/31
f 30/23/15 31/40/32 1/3/2 43/20/2
f 29/22/14 41/21/2 1/3/2 31/40/32
f 30/23/15 33/41/33 31/40/32
f 32/38/30 28/15/10 27/39/31
f 27/39/31 26/16/11 32/38/30
f 31/40/32 33/41/33 29/22/14
f 33/41/33 30/23/15 29/22/14
f 25/37/29 34/36/28 23/9/6
f 23/9/6 34/36/28 24/10/7
f 20/34/26 35/35/27 21/18/12
f 21/18/12 35/35/27 22/19/13
f 36/33/25 19/1/1 17/4/3
f 17/4/3 18/31/23 36/33/25
f 37/32/24 14/25/17 15/30/22
f 15/30/22 16/24/16 37/32/24
f 11/13/8 38/29/21 12/14/9
f 12/14/9 38/29/21 13/28/20
f 39/27/19 10/6/5 9/5/4
f 9/5/4 8/26/18 39/27/19
f 56/42/1 7/43/2 40/44/2 54/45/3
f 40/44/2 46/46/4 47/47/5 42/48/2
f 79/49/2 40/44/2 60/50/6 61/51/7
f 41/52/2 43/53/2 48/54/8 49/55/9
f 40/44/2 42/48/2 65/56/34 63/57/11
f 44/58/2 58/59/12 59/60/13 79/49/2
f 78/61/2 77/62/2 66/63/35 68/64/15
f 53/65/16 40/44/2 7/43/2 51/66/17
f 43/53/2 45/67/18 46/46/4 40/44/2
f 45/67/18 47/47/5 76/68/19
f 42/48/2 47/47/5 45/67/18 43/53/2
f 40/44/2 50/69/20 48/54/8 43/53/2
f 50/69/20 75/70/21 48/54/8
f 49/55/9 50/69/20 40/44/2 41/52/2
f 51/66/17 7/43/2 41/52/2 52/71/22
f 52/71/22 41/52/2 40/44/2 53/65/16
f 54/45/3 40/44/2 44/58/2 55/72/23
f 53/65/16 51/66/17 74/73/24
f 55/72/23 56/42/1 73/74/25
f 55/72/23 44/58/2 7/43/2 56/42/1
f 79/49/2 59/60/13 57/75/26 40/44/2
f 59/60/13 72/76/27 57/75/26
f 58/59/12 44/58/2 40/44/2 57/75/26
f 61/51/7 71/77/28 62/78/29
f 62/78/29 60/50/6 40/44/2 77/62/2
f 77/62/2 79/49/2 61/51/7 62/78/29
f 63/57/11 65/56/34 69/79/30
f 63/57/11 64/80/31 78/61/2 40/44/2
f 65/56/34 42/48/2 78/61/2 64/80/31
f 68/64/15 67/81/32 40/44/2 78/61/2
f 66/63/35 77/62/2 40/44/2 67/81/32
f 68/64/15 70/82/33 67/81/32
f 69/79/30 65/56/34 64/80/31
f 64/80/31 63/57/11 69/79/30
f 67/81/32 70/82/33 66/63/35
f 70/82/33 68/64/15 66/63/35
f 62/78/29 71/77/28 60/50/6
f 60/50/6 71/77/28 61/51/7
f 57/75/26 72/76/27 58/59/12
f 58/59/12 72/76/27 59/60/13
f 73/74/25 56/42/1 54/45/3
f 54/45/3 55/72/23 73/74/25
f 74/73/24 51/66/17 52/71/22
f 52/71/22 53/65/16 74/73/24
f 48/54/8 75/70/21 49/55/9
f 49/55/9 75/70/21 50/69/20
f 76/68/19 47/47/5 46/46/4
f 46/46/4 45/67/18 76/68/19
f 98/83/36 85/84/37 80/85/37 96/86/38
f 80/85/37 88/87/39 89/88/40 82/89/37
f 86/90/37 80/85/37 102/91/41 103/92/42
f 81/93/37 83/94/37 90/95/43 91/96/44
f 80/85/37 82/89/37 107/97/45 105/98/46
f 84/99/37 100/100/47 101/101/48 86/90/37
f 122/102/37 120/103/37 108/104/49 109/105/50
f 95/106/51 80/85/37 85/84/37 93/107/52
f 83/94/37 87/108/53 88/87/39 80/85/37
f 87/108/53 89/88/40 118/109/54
f 82/89/37 89/88/40 87/108/53 83/94/37
f 80/85/37 92/110/55 90/95/43 83/94/37
f 92/110/55 117/111/56 90/95/43
f 91/96/44 92/110/55 80/85/37 81/93/37
f 93/107/52 85/84/37 81/93/37 94/112/57
f 94/112/57 81/93/37 80/85/37 95/106/51
f 96/86/38 80/85/37 84/99/37 97/113/58
f 95/106/51 93/107/52 116/114/59
f 97/113/58 98/83/36 115/115/60
f 97/113/58 84/99/37 85/84/37 98/83/36
f 86/90/37 101/101/48 99/116/61 80/85/37
f 101/101/48 114/117/62 99/116/61
f 100/100/47 84/99/37 80/85/37 99/116/61
f 103/92/42 113/118/63 104/119/64
f 104/119/64 102/91/41 80/85/37 120/103/37
f 120/103/37 86/90/37 103/92/42 104/119/64
f 105/98/46 107/97/45 111/120/65
f 105/98/46 106/121/66 122/102/37 80/85/37
f 107/97/45 82/89/37 122/102/37 106/121/66
f 109/105/50 110/122/67 80/85/37 122/102/37
f 108/104/49 120/103/37 80/85/37 110/122/67
f 109/105/50 112/123/68 110/122/67
f 111/120/65 107/97/45 106/121/66
f 106/121/66 105/98/46 111/120/65
f 110/122/67 112/123/68 108/104/49
f 112/123/68 109/105/50 108/104/49
f 104/119/64 113/118/63 102/91/41
f 102/91/41 113/118/63 103/92/42
f 99/116/61 114/117/62 100/100/47
f 100/100/47 114/117/62 101/101/48
f 115/115/60 98/83/36 96/86/38
f 96/86/38 97/113/58 115/115/60
f 116/114/59 93/107/52 94/112/57
f 94/112/57 95/106/51 116/114/59
f 90/95/43 117/111/56 91/96/44
f 91/96/44 117/111/56 92/110/55
f 118/109/54 89/88/40 88/87/39
f 88/87/39 87/108/53 118/109/54
f 135/124/36 86/125/37 119/126/37 133/127/38
f 119/126/37 125/128/39 126/129/40 121/130/37
f 158/131/37 119/126/37 139/132/41 140/133/42
f 120/134/37 122/135/37 127/136/43 128/137/44
f 119/126/37 121/130/37 144/138/45 142/139/46
f 123/140/37 137/141/47 138/142/48 158/131/37
f 157/143/37 156/144/37 145/145/69 147/146/50
f 132/147/51 119/126/37 86/125/37 130/148/52
f 122/135/37 124/149/53 125/128/39 119/126/37
f 124/149/53 126/129/40 155/150/54
f 121/130/37 126/129/40 124/149/53 122/135/37
f 119/126/37 129/151/55 127/136/43 122/135/37
f 129/151/55 154/152/56 127/136/43
f 128/137/44 129/151/55 119/126/37 120/134/37
f 130/148/52 86/125/37 120/134/37 131/153/57
f 131/153/57 120/134/37 119/126/37 132/147/51
f 133/127/38 119/126/37 123/140/37 134/154/58
f 132/147/51 130/148/52 153/155/59
f 134/154/58 135/124/36 152/156/60
f 134/154/58 123/140/37 86/125/37 135/124/36
f 158/131/37 138/142/48 136/157/61 119/126/37
f 138/142/48 151/158/62 136/157/61
f 137/141/47 123/140/37 119/126/37 136/157/61
f 140/133/42 150/159/63 141/160/64
f 141/160/64 139/132/41 119/126/37 156/144/37
f 156/144/37 158/131/37 140/133/42 141/160/64
f 142/139/46 144/138/45 148/161/65
f 142/139/46 143/162/66 157/143/37 119/126/37
f 144/138/45 121/130/37 157/143/37 143/162/66
f 147/146/50 146/163/67 119/126/37 157/143/37
f 145/145/69 156/144/37 119/126/37 146/163/67
f 147/146/50 149/164/68 146/163/67
f 148/161/65 144/138/45 143/162/66
f 143/162/66 142/139/46 148/161/65
f 146/163/67 149/164/68 145/145/69
f 149/164/68 147/146/50 145/145/69
f 141/160/64 150/159/63 139/132/41
f 139/132/41 150/159/63 140/133/42
f 136/157/61 151/158/62 137/141/47
f 137/141/47 151/158/62 138/142/48
f 152/156/60 135/124/36 133/127/38
f 133/127/38 134/154/58 152/156/60
f 153/155/59 130/148/52 131/153/57
f 131/153/57 132/147/51 153/155/59
f 127/136/43 154/152/56 128/137/44
f 128/137/44 154/152/56 129/151/55
f 155/150/54 126/129/40 125/128/39
f 125/128/39 124/149/53 155/150/54
usemtl MI_Trim_01
f 83/165/70 81/166/71 77/167/71 78/168/70
f 81/166/71 85/169/72 79/170/72 77/167/71
