# Blender v3.6.0 OBJ File: 'AllModules_Unreal.blend'
# www.blender.org
mtllib TopPadded_Incline_Curve_Square_Inner.mtl
o TopPadded_Incline_Curve_Square_Inner_Plane.257
v -3.503366 3.997129 -0.998289
v -3.503366 3.997129 0.000000
v -3.999036 3.000000 -0.998289
v -3.999036 3.000000 0.000000
v -3.000000 5.000000 -0.998289
v -3.000000 5.000000 0.001736
v -3.000000 5.000000 -1.998289
v -3.943219 3.116206 -0.228763
v -3.601363 3.800863 -0.908392
v -3.943219 3.116206 -0.903320
v -3.898878 3.205012 -0.089289
v -3.559883 3.883939 -0.101969
v -3.549870 3.903991 -0.776524
v -3.123624 4.757663 -0.094362
v -3.449746 4.104518 -0.084218
v -3.458328 4.087330 -0.786669
v -3.402544 4.199051 -0.903322
v -3.063549 4.877979 -0.898250
v -3.053537 4.898031 -0.193263
v -3.409696 4.184729 -1.088444
v -3.059258 4.886573 -1.096051
v -3.053537 4.898031 -1.795967
v -3.452606 4.098788 -1.210168
v -3.109320 4.786310 -1.897403
v -3.445455 4.113112 -1.892331
v -3.604224 3.795133 -1.088444
v -3.948941 3.104747 -1.801039
v -3.948941 3.104747 -1.096051
v -3.551301 3.901126 -1.899939
v -3.898878 3.205011 -1.912619
v -3.547010 3.909720 -1.194953
v -3.767018 3.319186 -1.326678
v -3.597956 3.657777 -1.695101
v -3.291354 4.271828 -1.652864
v -3.124776 4.605446 -1.281982
v -3.104115 4.646825 -0.654686
v -3.273276 4.308035 -0.297541
v -3.594811 3.664075 -0.286094
v -3.763973 3.325284 -0.670713
v -3.503366 3.997129 -2.998289
v -3.503366 3.997129 -1.998264
v -3.999037 3.000000 -2.998289
v -3.999036 3.000000 -1.998264
v -3.000000 5.000000 -3.000000
v -3.943219 3.116206 -2.228763
v -3.601364 3.800863 -2.908392
v -3.943219 3.116206 -2.903320
v -3.898878 3.205012 -2.089289
v -3.559883 3.883939 -2.101969
v -3.549870 3.903991 -2.776524
v -3.123624 4.757663 -2.094362
v -3.449746 4.104518 -2.084218
v -3.458328 4.087330 -2.786669
v -3.402544 4.199051 -2.903322
v -3.063549 4.877979 -2.898250
v -3.053537 4.898031 -2.193263
v -3.409696 4.184729 -3.088444
v -3.452607 4.098788 -3.210168
v -3.604224 3.795133 -3.088444
v -3.948941 3.104747 -3.801039
v -3.948941 3.104747 -3.096051
v -3.547010 3.909720 -3.194953
v -3.767018 3.319186 -3.326678
v -3.104115 4.646826 -2.654686
v -3.273276 4.308035 -2.297541
v -3.594811 3.664075 -2.286094
v -3.763973 3.325284 -2.670713
v -3.998650 3.000000 -3.998650
v -3.334878 4.328033 -3.334878
v -3.627403 3.675265 -3.627403
v -3.883067 3.234901 -3.883067
v -3.394307 4.176158 -3.394307
v -3.370808 4.256386 -3.370808
v -3.546792 3.905460 -3.546792
v -3.500822 3.997129 -3.500822
v -3.213531 4.511961 -3.213531
v -3.301003 4.395584 -3.301003
v -3.447372 4.103711 -3.447372
v -3.099373 4.797650 -3.099373
v -0.998289 3.997129 -3.503366
v 0.000000 3.997129 -3.503366
v -0.998289 3.000000 -3.999036
v 0.000000 3.000000 -3.999036
v -0.998289 5.000000 -3.000000
v 0.001736 5.000000 -3.000000
v -1.998289 5.000000 -3.000000
v -0.228763 3.116206 -3.943219
v -0.908392 3.800863 -3.601363
v -0.903320 3.116206 -3.943219
v -0.089289 3.205012 -3.898878
v -0.101969 3.883939 -3.559883
v -0.776524 3.903991 -3.549870
v -0.094362 4.757663 -3.123624
v -0.084218 4.104518 -3.449746
v -0.786669 4.087330 -3.458328
v -0.903322 4.199051 -3.402544
v -0.898250 4.877979 -3.063549
v -0.193263 4.898031 -3.053537
v -1.088444 4.184729 -3.409696
v -1.096051 4.886573 -3.059258
v -1.795967 4.898031 -3.053537
v -1.210168 4.098788 -3.452606
v -1.897403 4.786310 -3.109320
v -1.892331 4.113112 -3.445455
v -1.088444 3.795133 -3.604224
v -1.801039 3.104747 -3.948941
v -1.096051 3.104747 -3.948941
v -1.899939 3.901126 -3.551301
v -1.912619 3.205011 -3.898878
v -1.194953 3.909720 -3.547010
v -1.326678 3.319186 -3.767018
v -1.695101 3.657777 -3.597956
v -1.652864 4.271828 -3.291354
v -1.281982 4.605446 -3.124776
v -0.654686 4.646825 -3.104115
v -0.297541 4.308035 -3.273276
v -0.286094 3.664075 -3.594811
v -0.670713 3.325284 -3.763973
v -2.998289 3.997129 -3.503366
v -1.998264 3.997129 -3.503366
v -2.998289 3.000000 -3.999037
v -1.998264 3.000000 -3.999036
v -2.228763 3.116206 -3.943219
v -2.908392 3.800863 -3.601364
v -2.903320 3.116206 -3.943219
v -2.089289 3.205012 -3.898878
v -2.101969 3.883939 -3.559883
v -2.776524 3.903991 -3.549870
v -2.094362 4.757663 -3.123624
v -2.084218 4.104518 -3.449746
v -2.786669 4.087330 -3.458328
v -2.903322 4.199051 -3.402544
v -2.898250 4.877979 -3.063549
v -2.193263 4.898031 -3.053537
v -3.088444 4.184729 -3.409696
v -3.210168 4.098788 -3.452607
v -3.088444 3.795133 -3.604224
v -3.801039 3.104747 -3.948941
v -3.096051 3.104747 -3.948941
v -3.194953 3.909720 -3.547010
v -3.326678 3.319186 -3.767018
v -2.654686 4.646826 -3.104115
v -2.297541 4.308035 -3.273276
v -2.286094 3.664075 -3.594811
v -2.670713 3.325284 -3.763973
v -3.445159 4.111446 -3.114570
v -3.462663 4.078649 -3.168192
v -3.167710 4.078417 -3.462778
v -3.112996 4.109898 -3.445947
v -3.081367 4.170001 -3.417049
v -3.464692 4.069175 -3.464692
v -3.466683 4.069506 -3.193641
v -3.212217 4.067520 -3.467397
v -3.928280 3.159157 -3.935778
v -3.549034 3.920198 -3.151169
v -3.150322 3.920198 -3.549880
v -3.499321 3.624883 -3.464579
v -3.577714 3.908908 -3.521731
v -3.532899 3.908908 -3.566545
v -3.069134 4.868320 -3.069809
v -3.123370 4.074462 -3.517154
v -3.521098 4.062709 -3.115156
v -3.147902 4.237969 -3.168422
v -3.492429 4.068909 -3.514952
v -3.519606 4.068107 -3.487484
v -3.047809 4.390974 -3.400339
v -3.398880 4.390016 -3.028051
v -3.131532 4.368969 -3.147928
v -3.502833 4.170712 -3.018268
v -3.146456 4.249541 -3.166612
v -3.004025 4.218900 -3.538294
v -3.313850 4.033751 -3.324629
v -3.507614 4.068461 -3.499605
vt 0.097487 0.953758
vt -0.000013 1.000000
vt 0.500000 0.500000
vt 0.452516 0.601702
vt 0.455051 0.401146
vt 0.452515 0.056305
vt 0.500000 -0.000000
vt 1.000000 1.000000
vt 0.605939 0.551203
vt 0.949557 0.897487
vt -0.000013 0.500000
vt -0.000013 -0.000000
vt 0.045500 0.101034
vt 0.051840 0.442989
vt 0.548881 0.050533
vt 0.545077 0.398261
vt 0.500000 1.000000
vt 0.548881 0.947987
vt 0.898839 0.953758
vt 1.000000 -0.000000
vt 1.000000 0.500000
vt 0.950825 0.451646
vt 0.957165 0.101033
vt 0.394190 0.545432
vt 0.048036 0.883059
vt 0.115237 0.056305
vt 0.336212 0.176679
vt 0.389117 0.453089
vt 0.143902 0.347318
vt 0.042964 0.554089
vt 0.449980 0.943658
vt 0.149626 0.671662
vt 0.328198 0.842301
vt 0.545078 0.594488
vt 0.641846 0.821459
vt 0.827287 0.653426
vt 0.947021 0.558417
vt 0.664194 0.173608
vt 0.901375 0.050533
vt 0.598332 0.455975
vt 0.848406 0.344146
vt 0.097487 0.953758
vt -0.000013 1.000000
vt 0.500000 0.500000
vt 0.452516 0.601702
vt 0.455051 0.401146
vt 0.452515 0.056305
vt 0.500000 -0.000000
vt -0.000013 0.500000
vt -0.000013 -0.000000
vt 0.045500 0.101034
vt 0.051840 0.442989
vt 0.548881 0.050533
vt 0.545077 0.398261
vt 0.394190 0.545432
vt 0.048036 0.883059
vt 0.115237 0.056305
vt 0.336212 0.176679
vt 0.389117 0.453089
vt 0.143902 0.347318
vt 0.042964 0.554089
vt 0.500000 1.000000
vt 0.449980 0.943658
vt 0.149626 0.671662
vt 0.328198 0.842301
vt 0.664194 0.173608
vt 0.901375 0.050533
vt 1.000000 -0.000000
vt 0.598332 0.455975
vt 0.831048 0.351908
vt 0.773079 0.453829
vt 0.944847 0.421420
vt 0.931078 0.319154
vt 0.923818 0.320287
vt 0.922445 0.466005
vt 0.758996 0.389572
vt 0.599518 0.456739
vt 0.847348 0.352402
vt 0.941945 0.116088
vt 0.884479 0.336794
vt 0.940900 0.460362
vt 0.947970 0.443738
vt 0.548399 0.903199
vt 0.545078 0.594488
vt 0.750000 0.500000
vt 0.731853 0.536287
vt 0.597547 0.536511
vt 0.953438 0.306741
vt 0.097487 0.953758
vt 0.452516 0.601702
vt 0.500000 0.500000
vt -0.000013 1.000000
vt 0.500000 -0.000000
vt 0.452515 0.056305
vt 0.455051 0.401146
vt 1.000000 1.000000
vt 0.949557 0.897487
vt 0.605939 0.551203
vt -0.000013 0.500000
vt 0.051840 0.442989
vt 0.045500 0.101034
vt -0.000013 -0.000000
vt 0.545077 0.398261
vt 0.548881 0.050533
vt 0.500000 1.000000
vt 0.898839 0.953758
vt 0.548881 0.947987
vt 1.000000 -0.000000
vt 0.957165 0.101033
vt 0.950825 0.451646
vt 1.000000 0.500000
vt 0.394190 0.545432
vt 0.048036 0.883059
vt 0.115237 0.056305
vt 0.336212 0.176679
vt 0.389117 0.453089
vt 0.143902 0.347318
vt 0.042964 0.554089
vt 0.449980 0.943658
vt 0.149626 0.671662
vt 0.328198 0.842301
vt 0.545078 0.594488
vt 0.641846 0.821459
vt 0.947021 0.558417
vt 0.827287 0.653426
vt 0.664194 0.173608
vt 0.901375 0.050533
vt 0.598332 0.455975
vt 0.848406 0.344146
vt 0.097487 0.953758
vt 0.452516 0.601702
vt 0.500000 0.500000
vt -0.000013 1.000000
vt 0.500000 -0.000000
vt 0.452515 0.056305
vt 0.455051 0.401146
vt -0.000013 0.500000
vt 0.051840 0.442989
vt 0.045500 0.101034
vt -0.000013 -0.000000
vt 0.545077 0.398261
vt 0.548881 0.050533
vt 0.394190 0.545432
vt 0.048036 0.883059
vt 0.115237 0.056305
vt 0.336212 0.176679
vt 0.389117 0.453089
vt 0.143902 0.347318
vt 0.042964 0.554089
vt 0.449980 0.943658
vt 0.149626 0.671662
vt 0.328198 0.842301
vt 0.664194 0.173608
vt 0.901375 0.050533
vt 0.598332 0.455975
vt 0.927274 0.203298
vt 0.850739 0.196372
vt 0.919547 0.180483
vt 0.887717 0.174806
vt 0.853769 0.188060
vt 0.545078 0.594488
vt 0.541539 0.587070
vt 0.606759 0.535535
vt 0.584951 0.541059
vt 0.557578 0.557578
vt 0.584710 0.540942
vt 0.556798 0.556798
vt 0.951109 0.432395
vt 0.962376 0.301881
vt 0.939840 0.191239
vt 0.545077 0.398261
vt 0.548881 0.050533
vt 0.664194 0.173608
vt 0.901375 0.050533
vt 0.769223 0.185425
vt 0.565411 0.185425
vt 0.548881 0.050533
vt 0.901375 0.050533
vt 0.545077 0.398261
vt 0.547336 0.191809
vt 0.639439 0.220295
vt 0.664194 0.173608
vt 0.548881 0.050533
vt 0.732558 0.050533
vt 0.901375 0.050533
vt 0.812741 0.137035
vt 0.662007 0.177732
vt 0.769223 0.185425
vt 0.671613 0.185425
vt 0.704423 0.050533
vt 0.901375 0.050533
vt 0.547881 0.141907
vt 0.760773 0.187753
vt 0.565411 0.185425
vt 0.548881 0.050533
vn 0.8963 -0.4433 0.0091
vn 0.8916 -0.4527 -0.0030
vn 0.8947 -0.4467 -0.0000
vn 0.8909 -0.4541 -0.0051
vn 0.8991 -0.4378 -0.0046
vn 0.8814 -0.4715 -0.0281
vn 0.8990 -0.4380 -0.0002
vn 0.8916 -0.4527 0.0001
vn 0.8892 -0.4573 0.0114
vn 0.8978 -0.4405 -0.0046
vn 0.8946 -0.4468 -0.0044
vn 0.8971 -0.4418 -0.0026
vn 0.8910 -0.4540 0.0036
vn 0.9127 -0.4068 0.0384
vn 0.8818 -0.4708 0.0278
vn 0.8990 -0.4378 0.0051
vn 0.8893 -0.4572 -0.0002
vn 0.9074 -0.4193 0.0287
vn 0.8959 -0.4441 -0.0078
vn 0.8973 -0.4414 -0.0001
vn 0.8947 -0.4468 0.0001
vn 0.9110 -0.4112 -0.0333
vn 0.8910 -0.4540 -0.0039
vn 0.8900 -0.4559 -0.0100
vn 0.8993 -0.4374 0.0040
vn 0.8925 -0.4508 0.0114
vn 0.9122 -0.4081 0.0373
vn 0.8991 -0.4375 -0.0111
vn 0.9001 -0.4346 0.0301
vn 0.8776 -0.4785 0.0299
vn 0.9066 -0.4208 -0.0317
vn 0.9098 -0.4150 -0.0072
vn 0.8890 -0.4573 0.0248
vn 0.8905 -0.4550 0.0050
vn 0.8822 -0.4705 0.0206
vn 0.8945 -0.4464 0.0221
vn 0.8770 -0.4792 -0.0340
vn 0.9109 -0.4117 -0.0264
vn 0.8930 -0.4499 -0.0099
vn 0.8991 -0.4375 0.0106
vn 0.8935 -0.4490 -0.0115
vn 0.8943 -0.4474 0.0028
vn 0.8991 -0.4377 -0.0045
vn 0.8992 -0.4376 -0.0002
vn 0.8910 -0.4540 0.0037
vn 0.9127 -0.4068 0.0385
vn 0.8820 -0.4704 0.0279
vn 0.8988 -0.4384 0.0058
vn 0.8926 -0.4508 0.0114
vn 0.8776 -0.4785 0.0300
vn 0.5741 -0.5838 0.5741
vn 0.9066 -0.4209 -0.0318
vn 0.8930 -0.4499 -0.0090
vn 0.5817 -0.5686 0.5817
vn 0.8959 -0.4441 0.0080
vn 0.5659 -0.5997 0.5659
vn 0.6131 -0.4982 0.6131
vn 0.8913 -0.4532 0.0131
vn 0.5883 -0.5548 0.5883
vn 0.6048 -0.5182 0.6048
vn 0.8910 -0.4538 0.0131
vn 0.5904 -0.5502 0.5904
vn 0.5833 -0.5652 0.5833
vn 0.5251 -0.6697 0.5251
vn 0.5764 -0.5793 0.5764
vn 0.5774 -0.5772 0.5774
vn 0.8927 -0.4506 0.0051
vn 0.8955 -0.4450 0.0035
vn 0.5768 -0.5786 0.5767
vn 0.5806 -0.5708 0.5806
vn 0.8973 -0.4413 0.0076
vn 0.5518 -0.6251 0.5521
vn 0.0091 -0.4433 0.8963
vn -0.0051 -0.4541 0.8909
vn -0.0000 -0.4467 0.8947
vn -0.0030 -0.4527 0.8916
vn -0.0002 -0.4380 0.8990
vn -0.0281 -0.4715 0.8814
vn -0.0046 -0.4378 0.8991
vn 0.0001 -0.4527 0.8916
vn -0.0046 -0.4405 0.8978
vn 0.0114 -0.4573 0.8892
vn -0.0044 -0.4468 0.8946
vn 0.0384 -0.4068 0.9127
vn 0.0036 -0.4540 0.8910
vn -0.0026 -0.4418 0.8971
vn 0.0051 -0.4378 0.8991
vn 0.0278 -0.4708 0.8818
vn -0.0002 -0.4572 0.8893
vn -0.0078 -0.4441 0.8959
vn 0.0287 -0.4193 0.9074
vn -0.0001 -0.4414 0.8973
vn -0.0039 -0.4540 0.8910
vn -0.0333 -0.4112 0.9110
vn 0.0001 -0.4468 0.8947
vn -0.0100 -0.4559 0.8900
vn 0.0040 -0.4374 0.8993
vn 0.0114 -0.4508 0.8925
vn 0.0373 -0.4081 0.9122
vn -0.0111 -0.4375 0.8991
vn 0.0301 -0.4346 0.9001
vn 0.0299 -0.4785 0.8776
vn -0.0317 -0.4208 0.9066
vn -0.0072 -0.4150 0.9098
vn 0.0248 -0.4573 0.8890
vn 0.0050 -0.4550 0.8905
vn 0.0206 -0.4705 0.8822
vn -0.0340 -0.4792 0.8770
vn 0.0221 -0.4464 0.8945
vn -0.0264 -0.4117 0.9109
vn -0.0099 -0.4499 0.8930
vn 0.0106 -0.4375 0.8991
vn -0.0115 -0.4490 0.8935
vn 0.0028 -0.4474 0.8943
vn -0.0002 -0.4376 0.8992
vn -0.0045 -0.4377 0.8991
vn 0.0385 -0.4068 0.9127
vn 0.0037 -0.4540 0.8910
vn 0.0058 -0.4384 0.8988
vn 0.0279 -0.4704 0.8820
vn 0.0114 -0.4508 0.8926
vn 0.0300 -0.4785 0.8776
vn -0.0318 -0.4209 0.9066
vn -0.0090 -0.4499 0.8930
vn 0.0080 -0.4441 0.8959
vn 0.0131 -0.4527 0.8916
vn 0.0127 -0.4544 0.8907
vn 0.0036 -0.4447 0.8957
vn 0.0050 -0.4507 0.8927
vn 0.0109 -0.4470 0.8945
vn 0.0074 -0.4415 0.8972
vn 0.4188 -0.8070 0.4164
vn 0.8325 -0.0174 0.5537
vn 0.4299 -0.7516 0.5002
vn 0.5451 0.0363 0.8376
vn -0.0283 0.9992 -0.0283
vn 0.7129 -0.1945 0.6737
vn 0.3978 -0.1738 0.9009
vn 0.7278 -0.1663 0.6653
vn 0.5756 -0.6471 0.5000
vn 0.2807 -0.8315 0.4794
vn 0.2227 -0.9570 0.1861
vn 0.5607 -0.7942 0.2343
vn 0.8558 -0.3882 0.3418
vn 0.6934 -0.3581 0.6253
vn -0.0738 -0.9920 -0.1023
vn 0.0068 -0.9822 -0.1878
vn 0.4152 -0.4647 0.7821
vn 0.9382 -0.1146 0.3266
vn -0.1492 -0.9886 -0.0200
usemtl MI_PaddedWall
s 1
f 19/1/1 6/2/2 1/3/3 17/4/4
f 1/3/3 9/5/5 10/6/6 3/7/7
f 7/8/8 1/3/3 23/9/9 24/10/10
f 2/11/11 4/12/12 11/13/13 12/14/14
f 1/3/3 3/7/7 28/15/15 26/16/16
f 5/17/17 21/18/18 22/19/19 7/8/8
f 43/20/20 41/21/21 29/22/22 30/23/23
f 16/24/24 1/3/3 6/2/2 14/25/25
f 4/12/12 8/26/26 9/5/5 1/3/3
f 8/26/26 10/6/6 39/27/27
f 3/7/7 10/6/6 8/26/26 4/12/12
f 1/3/3 13/28/28 11/13/13 4/12/12
f 13/28/28 38/29/29 11/13/13
f 12/14/14 13/28/28 1/3/3 2/11/11
f 14/25/25 6/2/2 2/11/11 15/30/30
f 15/30/30 2/11/11 1/3/3 16/24/24
f 17/4/4 1/3/3 5/17/17 18/31/31
f 16/24/24 14/25/25 37/32/32
f 18/31/31 19/1/1 36/33/33
f 18/31/31 5/17/17 6/2/2 19/1/1
f 7/8/8 22/19/19 20/34/34 1/3/3
f 22/19/19 35/35/35 20/34/34
f 21/18/18 5/17/17 1/3/3 20/34/34
f 24/10/10 34/36/36 25/37/37
f 25/37/37 23/9/9 1/3/3 41/21/21
f 41/21/21 7/8/8 24/10/10 25/37/37
f 26/16/16 28/15/15 32/38/38
f 26/16/16 27/39/39 43/20/20 1/3/3
f 28/15/15 3/7/7 43/20/20 27/39/39
f 30/23/23 31/40/40 1/3/3 43/20/20
f 29/22/22 41/21/21 1/3/3 31/40/40
f 30/23/23 33/41/41 31/40/40
f 32/38/38 28/15/15 27/39/39
f 27/39/39 26/16/16 32/38/38
f 31/40/40 33/41/41 29/22/22
f 33/41/41 30/23/23 29/22/22
f 25/37/37 34/36/36 23/9/9
f 23/9/9 34/36/36 24/10/10
f 20/34/34 35/35/35 21/18/18
f 21/18/18 35/35/35 22/19/19
f 36/33/33 19/1/1 17/4/4
f 17/4/4 18/31/31 36/33/33
f 37/32/32 14/25/25 15/30/30
f 15/30/30 16/24/24 37/32/32
f 11/13/13 38/29/29 12/14/14
f 12/14/14 38/29/29 13/28/28
f 39/27/27 10/6/6 9/5/5
f 9/5/5 8/26/26 39/27/27
f 56/42/1 7/43/8 40/44/42 54/45/4
f 40/44/42 46/46/43 47/47/6 42/48/44
f 41/49/21 43/50/20 48/51/45 49/52/46
f 40/44/42 42/48/44 61/53/47 59/54/48
f 53/55/24 40/44/42 7/43/8 51/56/25
f 43/50/20 45/57/49 46/46/43 40/44/42
f 45/57/49 47/47/6 67/58/27
f 42/48/44 47/47/6 45/57/49 43/50/20
f 40/44/42 50/59/28 48/51/45 43/50/20
f 50/59/28 66/60/29 48/51/45
f 49/52/46 50/59/28 40/44/42 41/49/21
f 51/56/25 7/43/8 41/49/21 52/61/50
f 52/61/50 41/49/21 40/44/42 53/55/24
f 54/45/4 40/44/42 44/62/51 55/63/52
f 53/55/24 51/56/25 65/64/32
f 55/63/52 56/42/1 64/65/33
f 55/63/52 44/62/51 7/43/8 56/42/1
f 59/54/48 61/53/47 63/66/38
f 59/54/48 60/67/53 68/68/54 40/44/42
f 61/53/47 42/48/44 68/68/54 60/67/53
f 63/66/38 61/53/47 60/67/53
f 60/67/53 59/54/48 63/66/38
f 62/69/55 70/70/56 74/71/57
f 58/72/58 72/73/59 73/74/60
f 57/75/61 76/76/62 79/77/63
f 64/65/33 56/42/1 54/45/4
f 54/45/4 55/63/52 64/65/33
f 65/64/32 51/56/25 52/61/50
f 52/61/50 53/55/24 65/64/32
f 48/51/45 66/60/29 49/52/46
f 49/52/46 66/60/29 50/59/28
f 67/58/27 47/47/6 46/46/43
f 46/46/43 45/57/49 67/58/27
f 77/78/64 76/76/62 57/75/61
f 68/68/54 71/79/65 62/69/55 40/44/42
f 71/79/65 70/70/56 62/69/55
f 73/74/60 69/80/66 146/81/67 147/82/68 58/72/58
f 69/80/66 77/78/64 57/75/61 146/81/67
f 79/83/63 44/62/51 40/44/42 57/84/61
f 75/85/69 151/86/70 152/87/71 40/44/42
f 74/71/57 75/85/69 40/44/42 62/69/55
f 78/88/72 72/73/59 58/72/58
f 98/89/73 96/90/74 80/91/75 85/92/76
f 80/91/75 82/93/77 89/94/78 88/95/79
f 86/96/80 103/97/81 102/98/82 80/91/75
f 81/99/83 91/100/84 90/101/85 83/102/86
f 80/91/75 105/103/87 107/104/88 82/93/77
f 84/105/89 86/96/80 101/106/90 100/107/91
f 122/108/92 109/109/93 108/110/94 120/111/95
f 95/112/96 93/113/97 85/92/76 80/91/75
f 83/102/86 80/91/75 88/95/79 87/114/98
f 87/114/98 118/115/99 89/94/78
f 82/93/77 83/102/86 87/114/98 89/94/78
f 80/91/75 83/102/86 90/101/85 92/116/100
f 92/116/100 90/101/85 117/117/101
f 91/100/84 81/99/83 80/91/75 92/116/100
f 93/113/97 94/118/102 81/99/83 85/92/76
f 94/118/102 95/112/96 80/91/75 81/99/83
f 96/90/74 97/119/103 84/105/89 80/91/75
f 95/112/96 116/120/104 93/113/97
f 97/119/103 115/121/105 98/89/73
f 97/119/103 98/89/73 85/92/76 84/105/89
f 86/96/80 80/91/75 99/122/106 101/106/90
f 101/106/90 99/122/106 114/123/107
f 100/107/91 99/122/106 80/91/75 84/105/89
f 103/97/81 104/124/108 113/125/109
f 104/124/108 120/111/95 80/91/75 102/98/82
f 120/111/95 104/124/108 103/97/81 86/96/80
f 105/103/87 111/126/110 107/104/88
f 105/103/87 80/91/75 122/108/92 106/127/111
f 107/104/88 106/127/111 122/108/92 82/93/77
f 109/109/93 122/108/92 80/91/75 110/128/112
f 108/110/94 110/128/112 80/91/75 120/111/95
f 109/109/93 110/128/112 112/129/113
f 111/126/110 106/127/111 107/104/88
f 106/127/111 111/126/110 105/103/87
f 110/128/112 108/110/94 112/129/113
f 112/129/113 108/110/94 109/109/93
f 104/124/108 102/98/82 113/125/109
f 102/98/82 103/97/81 113/125/109
f 99/122/106 100/107/91 114/123/107
f 100/107/91 101/106/90 114/123/107
f 115/121/105 96/90/74 98/89/73
f 96/90/74 115/121/105 97/119/103
f 116/120/104 94/118/102 93/113/97
f 94/118/102 116/120/104 95/112/96
f 90/101/85 91/100/84 117/117/101
f 91/100/84 92/116/100 117/117/101
f 118/115/99 88/95/79 89/94/78
f 88/95/79 118/115/99 87/114/98
f 134/130/73 132/131/74 119/132/114 86/133/80
f 119/132/114 121/134/115 125/135/78 124/136/116
f 120/137/95 127/138/117 126/139/118 122/140/92
f 119/132/114 137/141/119 139/142/120 121/134/115
f 131/143/96 129/144/97 86/133/80 119/132/114
f 122/140/92 119/132/114 124/136/116 123/145/121
f 123/145/121 145/146/99 125/135/78
f 121/134/115 122/140/92 123/145/121 125/135/78
f 119/132/114 122/140/92 126/139/118 128/147/100
f 128/147/100 126/139/118 144/148/101
f 127/138/117 120/137/95 119/132/114 128/147/100
f 129/144/97 130/149/122 120/137/95 86/133/80
f 130/149/122 131/143/96 119/132/114 120/137/95
f 132/131/74 133/150/123 44/62/51 119/132/114
f 131/143/96 143/151/104 129/144/97
f 133/150/123 142/152/105 134/130/73
f 133/150/123 134/130/73 86/133/80 44/62/51
f 137/141/119 141/153/110 139/142/120
f 137/141/119 119/132/114 68/68/54 138/154/124
f 139/142/120 138/154/124 68/68/54 121/134/115
f 141/153/110 138/154/124 139/142/120
f 138/154/124 141/153/110 137/141/119
f 140/155/125 74/71/57 70/70/56
f 136/156/126 73/74/60 72/73/59
f 135/157/127 79/77/63 76/76/62
f 142/152/105 132/131/74 134/130/73
f 132/131/74 142/152/105 133/150/123
f 143/151/104 130/149/122 129/144/97
f 130/149/122 143/151/104 131/143/96
f 126/139/118 127/138/117 144/148/101
f 127/138/117 128/147/100 144/148/101
f 145/146/99 124/136/116 125/135/78
f 124/136/116 145/146/99 123/145/121
f 77/78/64 135/157/127 76/76/62
f 68/68/54 119/132/114 140/155/125 71/79/65
f 71/79/65 140/155/125 70/70/56
f 73/74/60 136/156/126 148/158/128 149/159/129 69/80/66
f 69/80/66 149/159/129 150/160/130 135/157/127 77/78/64
f 79/83/63 135/161/127 150/162/130 119/132/114 44/62/51
f 75/85/69 119/132/114 153/163/131 151/86/70
f 74/71/57 140/155/125 119/132/114 75/85/69
f 78/88/72 136/156/126 72/73/59
f 147/164/68 146/165/67 40/44/42
f 146/165/67 57/84/61 40/44/42
f 148/166/128 119/132/114 149/167/129
f 149/167/129 119/132/114 150/162/130
f 147/82/68 152/168/71 151/169/70 78/88/72 58/72/58
f 148/158/128 136/156/126 78/88/72 151/169/70 153/170/131
f 40/44/42 152/87/71 147/164/68
f 119/132/114 148/166/128 153/163/131
f 154/171/132 156/172/133 157/173/134
f 157/173/134 156/172/133 155/174/135
f 155/174/135 154/171/132 157/173/134
f 155/175/135 156/176/133 159/177/136 158/178/136
f 160/179/137 167/180/138 168/181/139
f 163/182/140 162/183/141 172/184/142
f 161/185/143 171/186/144 170/187/145 163/182/140
f 161/188/143 172/189/142 173/190/146 164/191/147
f 168/181/139 167/180/138 169/192/148 170/187/145
f 168/181/139 166/193/149 160/179/137
f 170/187/145 171/186/144 166/193/149 168/181/139
f 170/187/145 169/192/148 162/183/141 163/182/140
f 173/190/146 172/189/142 162/194/141 165/195/150
f 172/184/142 161/185/143 163/182/140
