# Blender 4.0.2
# www.blender.org
mtllib TopSimple_Corner_Round_Outer.mtl
o TopSimple_Corner_Round_Outer
v -2.828180 3.000000 -2.828195
v 0.000001 3.000000 -4.000000
v -2.828180 5.000001 -2.828195
v 0.000002 5.000000 -4.000000
v 0.000002 3.647002 -4.000000
v -2.828180 3.647003 -2.828195
v 0.000002 4.635870 -4.000000
v -2.828180 4.635870 -2.828195
v -1.530420 3.000000 -3.694706
v -1.530420 5.000000 -3.694706
v -1.530420 3.647003 -3.694706
v -1.530420 4.635870 -3.694706
v -1.159708 3.000000 -3.823516
v -0.778796 3.000001 -3.915197
v -0.391566 3.000000 -3.973642
v -1.159708 5.000001 -3.823516
v -0.778796 5.000001 -3.915197
v -0.391566 5.000000 -3.973642
v -0.391568 3.647002 -3.973642
v -0.778796 3.647003 -3.915197
v -1.159708 3.647003 -3.823516
v -0.391568 4.635870 -3.973642
v -0.778796 4.635871 -3.915197
v -1.159708 4.635871 -3.823516
v -1.882587 3.647002 -3.522006
v -2.217699 3.647003 -3.319238
v -2.533592 3.647003 -3.087502
v -1.882587 4.635870 -3.522006
v -2.217699 4.635870 -3.319238
v -2.533592 4.635870 -3.087502
v -2.533593 3.000000 -3.087502
v -2.217699 3.000000 -3.319238
v -1.882587 3.000000 -3.522006
v -2.533592 5.000000 -3.087502
v -2.217699 5.000000 -3.319238
v -1.882587 5.000001 -3.522006
v -3.999999 3.000000 -0.000022
v -3.999999 5.000000 -0.000022
v -3.999999 3.647002 -0.000022
v -3.999999 4.635870 -0.000022
v -3.694698 3.000000 -1.530442
v -3.694699 5.000000 -1.530442
v -3.694698 3.647002 -1.530442
v -3.694699 4.635870 -1.530442
v -3.521996 3.000000 -1.882608
v -3.319226 3.000000 -2.217716
v -3.087488 3.000000 -2.533608
v -3.521995 5.000000 -1.882607
v -3.319226 5.000000 -2.217716
v -3.087488 5.000000 -2.533608
v -3.087488 3.647003 -2.533608
v -3.319226 3.647002 -2.217716
v -3.521995 3.647003 -1.882608
v -3.087488 4.635870 -2.533608
v -3.319226 4.635870 -2.217716
v -3.521995 4.635870 -1.882607
v -3.823510 3.647002 -1.159728
v -3.915194 3.647002 -0.778817
v -3.973642 3.647003 -0.391590
v -3.823510 4.635870 -1.159728
v -3.915194 4.635870 -0.778817
v -3.973641 4.635870 -0.391590
v -3.973642 3.000000 -0.391590
v -3.915194 3.000000 -0.778817
v -3.823510 3.000000 -1.159728
v -3.973641 5.000001 -0.391590
v -3.915194 5.000000 -0.778817
v -3.823510 5.000000 -1.159728
vn -0.1083 -0.0000 -0.9941
vn -0.0672 -0.0000 -0.9977
vn -0.4795 -0.0000 -0.8776
vn -0.3850 -0.0000 -0.9229
vn -0.2815 -0.0000 -0.9596
vn -0.1918 -0.0000 -0.9814
vn -0.7071 -0.0000 -0.7071
vn -0.6267 -0.0000 -0.7792
vn -0.5551 -0.0000 -0.8318
vn -0.7792 -0.0000 -0.6267
vn -0.9596 -0.0000 -0.2815
vn -0.9229 -0.0000 -0.3850
vn -0.8776 -0.0000 -0.4795
vn -0.8318 -0.0000 -0.5551
vn -0.9977 -0.0000 -0.0672
vn -0.9941 -0.0000 -0.1083
vn -0.9814 -0.0000 -0.1918
vt 0.627138 0.859251
vt 0.627138 0.928852
vt 0.752138 0.928852
vt 0.752138 0.859251
vt 0.627138 0.761577
vt 0.627138 0.861537
vt 0.752138 0.861537
vt 0.752138 0.761577
vt 0.627138 0.803704
vt 0.627138 0.891805
vt 0.752138 0.891805
vt 0.752138 0.803704
vt 0.127138 0.803704
vt 0.127138 0.891805
vt 0.252138 0.891805
vt 0.252138 0.803704
vt 0.127138 0.761577
vt 0.127138 0.861537
vt 0.252138 0.861537
vt 0.252138 0.761577
vt 0.127138 0.859251
vt 0.127138 0.928853
vt 0.252138 0.928853
vt 0.252138 0.859251
vt 0.377138 0.891805
vt 0.377138 0.803704
vt 0.502138 0.891805
vt 0.502138 0.803704
vt 0.377138 0.861537
vt 0.377138 0.761577
vt 0.502138 0.861537
vt 0.502138 0.761577
vt 0.377138 0.928853
vt 0.377138 0.859251
vt 0.502138 0.928852
vt 0.502138 0.859251
vt -0.247862 0.859251
vt -0.247862 0.928852
vt -0.122862 0.928853
vt -0.122862 0.859251
vt 0.002138 0.928853
vt 0.002138 0.859251
vt -0.247862 0.761577
vt -0.247862 0.861537
vt -0.122862 0.861537
vt -0.122862 0.761577
vt 0.002138 0.861537
vt 0.002138 0.761577
vt -0.247862 0.803704
vt -0.247862 0.891805
vt -0.122862 0.891805
vt -0.122862 0.803704
vt 0.002138 0.891805
vt 0.002138 0.803704
s 1
usemtl MI_Trim_02
f 22/1/1 18/2/1 4/3/2 7/4/2
f 15/5/1 19/6/1 5/7/2 2/8/2
f 19/9/1 22/10/1 7/11/2 5/12/2
f 25/13/3 28/14/3 12/15/4 11/16/4
f 33/17/3 25/18/3 11/19/4 9/20/4
f 28/21/3 36/22/3 10/23/4 12/24/4
f 11/16/4 12/15/4 24/25/5 21/26/5
f 21/26/5 24/25/5 23/27/6 20/28/6
f 20/28/6 23/27/6 22/10/1 19/9/1
f 9/20/4 11/19/4 21/29/5 13/30/5
f 13/30/5 21/29/5 20/31/6 14/32/6
f 14/32/6 20/31/6 19/6/1 15/5/1
f 12/24/4 10/23/4 16/33/5 24/34/5
f 24/34/5 16/33/5 17/35/6 23/36/6
f 23/36/6 17/35/6 18/2/1 22/1/1
f 8/37/7 3/38/7 34/39/8 30/40/8
f 30/40/8 34/39/8 35/41/9 29/42/9
f 29/42/9 35/41/9 36/22/3 28/21/3
f 1/43/7 6/44/7 27/45/8 31/46/8
f 31/46/8 27/45/8 26/47/9 32/48/9
f 32/48/9 26/47/9 25/18/3 33/17/3
f 6/49/7 8/50/7 30/51/8 27/52/8
f 27/52/8 30/51/8 29/53/9 26/54/9
f 26/54/9 29/53/9 28/14/3 25/13/3
f 54/1/10 50/2/10 3/3/7 8/4/7
f 47/5/10 51/6/10 6/7/7 1/8/7
f 51/9/10 54/10/10 8/11/7 6/12/7
f 57/13/11 60/14/11 44/15/12 43/16/12
f 65/17/11 57/18/11 43/19/12 41/20/12
f 60/21/11 68/22/11 42/23/12 44/24/12
f 43/16/12 44/15/12 56/25/13 53/26/13
f 53/26/13 56/25/13 55/27/14 52/28/14
f 52/28/14 55/27/14 54/10/10 51/9/10
f 41/20/12 43/19/12 53/29/13 45/30/13
f 45/30/13 53/29/13 52/31/14 46/32/14
f 46/32/14 52/31/14 51/6/10 47/5/10
f 44/24/12 42/23/12 48/33/13 56/34/13
f 56/34/13 48/33/13 49/35/14 55/36/14
f 55/36/14 49/35/14 50/2/10 54/1/10
f 40/37/15 38/38/15 66/39/16 62/40/16
f 62/40/16 66/39/16 67/41/17 61/42/17
f 61/42/17 67/41/17 68/22/11 60/21/11
f 37/43/15 39/44/15 59/45/16 63/46/16
f 63/46/16 59/45/16 58/47/17 64/48/17
f 64/48/17 58/47/17 57/18/11 65/17/11
f 39/49/15 40/50/15 62/51/16 59/52/16
f 59/52/16 62/51/16 61/53/17 58/54/17
f 58/54/17 61/53/17 60/14/11 57/13/11
