# Blender v3.6.0 OBJ File: 'AllModules_Unreal.blend'
# www.blender.org
mtllib WallWideBand_Straight_Transition2.mtl
o WallWideBand_Straight_Transition2_Plane.151
v -2.000000 0.000000 2.000000
v -2.000000 1.000000 2.000000
v -2.000000 0.000000 0.000000
v -2.000000 1.000000 -0.000000
v -2.100000 0.200000 2.000000
v -2.100000 0.200000 -0.000000
v -2.000000 -0.000000 -2.000000
v -2.100000 0.200000 1.000000
v -2.100000 0.199999 -2.000000
v -2.000000 1.000000 1.000000
v -2.000000 1.000000 -2.000000
v -2.000000 3.000000 2.000000
v -2.000000 3.000000 -2.000000
v -1.992499 2.844916 1.939894
v -1.992499 2.601933 1.939894
v -1.992499 2.844915 1.550691
v -1.992499 2.601933 1.550691
v -2.000000 0.000000 1.000000
v -2.000000 3.000000 -0.000000
v -2.000000 3.000000 1.000000
v -2.000000 -0.000000 -1.000000
v -2.100000 0.200000 -1.000000
v -2.000000 3.000000 -1.000000
v -2.000000 1.000000 -1.000000
v -2.000000 1.000000 1.500000
v -2.100000 0.200000 1.500000
v -2.000000 3.000000 1.500000
v -2.000000 0.000000 1.500000
v -2.000000 1.000000 -1.500000
v -2.000000 -0.000000 -1.500000
v -2.100000 0.200000 -1.500000
v -2.000000 3.000000 -1.500000
v -2.000000 1.456897 1.000000
v -2.000000 1.456896 -2.000000
v -2.000000 1.456897 2.000000
v -2.000000 1.456897 -0.000000
v -2.000000 1.456896 -1.000000
v -2.000000 1.456897 1.500000
v -2.000000 1.456896 -1.500000
v -2.000000 1.228449 2.000000
v -2.000000 1.228448 1.000000
v -2.000000 1.228448 -2.000000
v -2.000000 1.228448 -0.000000
v -2.000000 1.228448 -1.000000
v -2.000000 1.228449 1.500000
v -2.000000 1.228448 -1.500000
v -2.000000 1.996983 1.000000
v -2.000000 1.996982 -2.000000
v -2.000000 1.996983 -0.000000
v -2.000000 1.996983 -1.000000
v -2.000000 1.996983 1.500000
v -2.000000 1.996983 -1.500000
v -2.000000 1.996983 2.000000
v -2.000000 1.456896 -0.687419
v -2.000000 1.228448 -0.343710
v -2.000000 1.664655 -1.000000
v -2.000000 1.456897 0.687419
v -2.000000 1.228448 0.343709
v -2.000000 1.664656 1.000000
v -1.998018 1.120680 -1.422473
v -1.998018 1.020877 -1.422473
v -1.998018 1.120681 -1.986748
v -1.998018 1.020877 -1.986749
v -2.071541 0.200000 2.000000
v -2.071541 0.200000 -0.000000
v -2.071541 0.199999 -2.000000
v -2.071541 0.200000 1.000000
v -2.071541 0.200000 -1.000000
v -2.071541 0.200000 1.500000
v -2.071541 0.200000 -1.500000
vt 0.760517 0.409735
vt 0.760517 0.373239
vt 1.019308 0.373239
vt 1.019308 0.409735
vt 0.760517 0.409735
vt 0.760517 0.373239
vt 0.631121 0.409735
vt 0.631121 0.373239
vt 0.631121 0.409735
vt 0.631121 0.373239
vt 0.501726 0.409735
vt 0.501726 0.373239
vt 0.501726 0.409735
vt 0.501726 0.373239
vt 0.994837 0.579164
vt 0.994837 0.522411
vt 1.077256 0.579164
vt 0.500325 0.579164
vt 0.500325 0.486932
vt 0.582744 0.486932
vt 0.582744 0.579164
vt 0.830000 0.579164
vt 0.830000 0.486932
vt 0.943312 0.486932
vt 0.665163 0.522412
vt 0.665163 0.579164
vt 0.716688 0.486932
vt 0.665163 0.447919
vt 0.665163 0.486932
vt 0.582744 0.447919
vt 0.500325 0.447919
vt 0.830000 0.447919
vt 0.886656 0.447919
vt 0.773344 0.447919
vt 1.077256 0.750453
vt 1.159675 0.579164
vt 1.159675 0.750453
vt 0.665163 0.750453
vt 0.830000 0.750453
vt 0.582744 0.750453
vt 0.994837 0.750453
vt 0.500325 0.750453
vt 0.500966 0.733252
vt 0.500966 0.733252
vt 0.500966 0.733252
vt 0.500966 0.733252
vt 0.500966 0.733252
vt 0.500966 0.733252
vt 0.500966 0.733252
vt 0.500966 0.733252
vt 0.500966 0.733252
vt 0.500966 0.733252
vt 0.500966 0.733252
vt 0.500966 0.733252
vt 0.500966 0.733252
vt 0.500966 0.733252
vt 0.026778 0.226397
vt 0.026778 0.189286
vt 0.236597 0.189286
vt 0.236597 0.226397
vt 0.799616 0.579130
vt 0.799616 0.490855
vt 0.941012 0.490855
vt 0.941012 0.579130
vt 0.519061 0.591441
vt 0.519061 0.407339
vt 0.812631 0.407339
vt 0.812631 0.591441
vt 0.519061 0.591441
vt 0.519061 0.407339
vt 1.077256 0.447919
vt 1.077256 0.408906
vt 1.159675 0.408906
vt 1.159675 0.447919
vt 0.665163 0.408906
vt 0.830000 0.408906
vt 0.582744 0.408906
vt 0.372276 0.591441
vt 0.372276 0.407339
vt 0.372276 0.591441
vt 0.372276 0.407339
vt 0.225492 0.591441
vt 0.225491 0.407339
vt 0.500325 0.408906
vt 0.225492 0.591441
vt 0.225491 0.407339
vt 0.994837 0.447919
vt 0.994837 0.408906
vt 1.077256 0.486932
vt 1.159675 0.486932
vt 0.994837 0.486932
vn 0.9416 0.3368 -0.0000
vn 1.0000 0.0000 0.0000
vn -0.0000 1.0000 -0.0000
vn 0.9923 -0.1240 -0.0000
usemtl MI_Trim_02_NoAccent
s 1
f 67/1/1 18/2/1 3/3/1 65/4/1
f 68/5/1 65/4/1 3/3/1 21/6/1
f 69/7/1 28/8/1 18/2/1 67/1/1
f 70/9/1 68/5/1 21/6/1 30/10/1
f 64/11/1 1/12/1 28/8/1 69/7/1
f 66/13/1 70/9/1 30/10/1 7/14/1
f 50/15/2 56/16/2 52/17/2
f 53/18/2 35/19/2 38/20/2 51/21/2
f 49/22/2 36/23/2 54/24/2 56/16/2 50/15/2
f 51/21/2 59/25/2 47/26/2
f 47/26/2 59/25/2 57/27/2 36/23/2 49/22/2
f 41/28/2 33/29/2 38/20/2 45/30/2
f 35/19/2 40/31/2 45/30/2 38/20/2
f 36/23/2 43/32/2 55/33/2 54/24/2
f 33/29/2 41/28/2 58/34/2 57/27/2
f 32/35/2 52/17/2 48/36/2 13/37/2
f 20/38/2 47/26/2 49/22/2 19/39/2
f 27/40/2 51/21/2 47/26/2 20/38/2
f 19/39/2 49/22/2 50/15/2 23/41/2
f 12/42/2 53/18/2 51/21/2 27/40/2
f 23/41/2 50/15/2 52/17/2 32/35/2
f 57/27/2 58/34/2 43/32/2 36/23/2
f 59/25/2 51/21/2 38/20/2 33/29/2
f 57/27/2 59/25/2 33/29/2
usemtl MI_Trim_01
f 9/43/3 31/44/3 70/45/3 66/46/3
f 5/47/3 64/48/3 69/49/3 26/50/3
f 31/44/3 22/51/3 68/52/3 70/45/3
f 26/50/3 69/49/3 67/53/3 8/54/3
f 22/51/3 6/55/3 65/56/3 68/52/3
f 8/54/3 67/53/3 65/56/3 6/55/3
usemtl M_Decal_White
s off
f 60/57/2 61/58/2 63/59/2 62/60/2
s 1
f 14/61/2 15/62/2 17/63/2 16/64/2
usemtl MI_Trim_02_Color
f 10/65/4 8/66/4 6/67/4 4/68/4
f 24/69/4 4/68/4 6/67/4 22/70/4
f 46/71/2 29/72/2 11/73/2 42/74/2
f 41/28/2 10/75/2 4/76/2 58/34/2
f 45/30/2 25/77/2 10/75/2 41/28/2
f 25/78/4 26/79/4 8/66/4 10/65/4
f 43/32/2 4/76/2 55/33/2
f 29/80/4 24/69/4 22/70/4 31/81/4
f 2/82/4 5/83/4 26/79/4 25/78/4
f 40/31/2 2/84/2 25/77/2 45/30/2
f 11/85/4 29/80/4 31/81/4 9/86/4
f 44/87/2 24/88/2 29/72/2 46/71/2
f 52/17/2 39/89/2 34/90/2 48/36/2
f 39/89/2 46/71/2 42/74/2 34/90/2
f 44/87/2 46/71/2 39/89/2 37/91/2
f 54/24/2 55/33/2 44/87/2 37/91/2
f 55/33/2 4/76/2 24/88/2 44/87/2
f 56/16/2 54/24/2 37/91/2
f 52/17/2 56/16/2 37/91/2 39/89/2
f 58/34/2 4/76/2 43/32/2
