# Blender v3.6.0 OBJ File: 'AllModules_Unreal.blend'
# www.blender.org
mtllib WallPipe_Corner_Square_Inner.mtl
o WallPipe_Corner_Square_Inner_Plane.003
v 0.000000 0.000000 -4.000000
v -2.000000 0.000000 -4.000000
v 0.000000 0.265611 -4.000000
v -2.000000 0.265611 -4.000000
v -4.000000 0.000000 -4.000000
v -4.000000 0.265611 -4.000000
v 0.000000 0.500000 -4.200000
v -2.000000 2.875975 -4.200000
v 0.000000 3.000000 -4.000000
v 0.000000 2.875975 -4.200000
v 0.000000 2.755010 -4.000000
v -0.999999 2.755010 -4.000000
v -0.999999 2.438356 -4.000000
v 0.000000 2.438356 -4.000000
v -4.000000 1.104416 -4.000000
v -3.000000 1.104416 -4.000000
v -3.000000 2.438356 -4.000000
v -1.000000 2.875975 -4.200000
v -1.942275 0.262142 -4.217869
v -1.942275 0.517944 -4.217869
v -2.057724 0.262142 -4.217869
v -2.057724 0.517944 -4.217869
v -1.942275 0.543330 -4.044425
v -2.057724 0.543330 -4.044425
v -1.942275 0.262142 -4.102863
v -1.942275 0.312478 -4.052526
v -2.057724 0.312478 -4.052526
v -2.057724 0.262142 -4.102863
v -2.057724 0.365509 -4.019536
v -1.942275 0.365509 -4.019536
v -1.966425 0.453215 -4.210106
v -2.033575 0.453215 -4.210106
v -1.966425 0.453215 -4.018032
v -2.033575 0.453215 -4.018032
v -1.966425 0.701389 -4.210106
v -2.033575 0.701389 -4.210106
v -2.033575 0.701389 -4.018032
v -1.966425 0.701389 -4.018032
v 0.000000 1.104416 -4.000000
v -1.000000 3.000000 -4.000000
v 0.000001 0.656889 -4.000000
v -0.999999 0.656889 -4.000000
v -0.999999 1.104416 -4.000000
v -1.999999 2.755010 -4.000000
v -1.999999 2.438356 -4.000000
v -1.999999 1.104416 -4.000000
v -2.000000 3.000000 -4.000000
v -0.999999 0.500000 -4.200000
v -1.999999 0.500000 -4.200000
v -3.000000 0.500000 -4.200000
v -3.000000 0.656889 -4.000000
v -1.999999 0.656889 -4.000000
v -3.000000 3.000000 -4.000000
v -3.000000 2.875975 -4.200000
v -3.000000 2.755009 -4.000000
v -1.000000 0.000000 -4.000000
v -1.000000 0.265611 -4.000000
v -3.000000 0.000000 -4.000000
v -3.000000 0.265611 -4.000000
v -0.500000 3.000000 -4.000000
v -0.499999 2.438356 -4.000000
v -0.499999 1.104416 -4.000000
v -0.499999 0.656889 -4.000000
v -0.500000 2.875975 -4.200000
v -0.499999 0.500000 -4.200000
v -0.500000 2.755010 -4.000000
v -0.499999 0.000000 -4.000000
v -0.499999 0.265611 -4.000000
v -1.500000 0.000000 -4.000000
v -1.500000 0.265611 -4.000000
v -1.500000 2.755010 -4.000000
v -1.500000 2.438356 -4.000000
v -1.500000 2.875975 -4.200000
v -1.500000 3.000000 -4.000000
v -1.500000 1.104416 -4.000000
v -1.499999 0.500000 -4.200000
v -1.500000 0.656889 -4.000000
v -2.500000 0.000000 -4.000000
v -2.500000 0.265611 -4.000000
v -2.500000 2.875975 -4.200000
v -2.500000 2.438356 -4.000000
v -2.500000 1.104416 -4.000000
v -2.500000 0.500000 -4.200000
v -2.500000 0.656889 -4.000000
v -2.500000 3.000000 -4.000000
v -2.500000 2.755009 -4.000000
v -3.500118 0.500000 -4.200000
v -3.500118 2.875975 -4.200000
v -3.500118 2.755009 -4.000000
v -3.500118 2.438356 -4.000000
v -3.500118 1.104416 -4.000000
v -3.500118 0.656889 -4.000000
v -3.500118 3.000000 -4.000000
v -3.500119 0.000000 -4.000000
v -3.500119 0.265611 -4.000000
v -4.000000 0.000000 0.000000
v -4.000000 0.000000 -2.000000
v -4.000000 0.265611 0.000000
v -4.000000 0.265611 -2.000000
v -4.200000 0.500000 0.000000
v -4.200000 0.500000 -4.200000
v -4.200000 2.875975 -2.000000
v -4.000000 0.656889 -4.000000
v -4.000000 3.000000 0.000000
v -4.000000 3.000000 -4.000000
v -4.200000 2.875975 0.000000
v -4.200000 2.875975 -4.200000
v -4.000000 2.755010 0.000000
v -4.000000 2.755009 -4.000000
v -4.000000 2.755010 -1.000000
v -4.000000 2.438356 -1.000000
v -4.000000 2.438356 0.000000
v -4.000000 1.104416 -3.000000
v -4.000000 2.438356 -3.000000
v -4.200000 2.875975 -1.000000
v -4.000000 2.438356 -4.000000
v -4.217869 0.262142 -1.942275
v -4.217869 0.517944 -1.942275
v -4.217869 0.262142 -2.057724
v -4.217869 0.517944 -2.057724
v -4.044425 0.543330 -1.942275
v -4.044425 0.543330 -2.057724
v -4.102863 0.262142 -1.942275
v -4.052526 0.312478 -1.942275
v -4.052526 0.312478 -2.057724
v -4.102863 0.262142 -2.057724
v -4.019536 0.365509 -2.057724
v -4.019536 0.365509 -1.942275
v -4.210106 0.453215 -1.966425
v -4.210106 0.453215 -2.033575
v -4.018032 0.453215 -1.966425
v -4.018032 0.453215 -2.033575
v -4.210106 0.701389 -1.966425
v -4.210106 0.701389 -2.033575
v -4.018032 0.701389 -2.033575
v -4.018032 0.701389 -1.966425
v -4.000000 1.104416 0.000000
v -4.000000 3.000000 -1.000000
v -4.000000 0.656889 0.000001
v -4.000000 0.656889 -1.000000
v -4.000000 1.104416 -1.000000
v -4.000000 2.755010 -1.999999
v -4.000000 2.438356 -1.999999
v -4.000000 1.104416 -2.000000
v -4.000000 3.000000 -2.000000
v -4.200000 0.500000 -1.000000
v -4.200000 0.500000 -2.000000
v -4.200000 0.500000 -3.000000
v -4.000000 0.656889 -3.000000
v -4.000000 0.656889 -2.000000
v -4.000000 3.000000 -3.000000
v -4.200000 2.875975 -3.000000
v -4.000000 2.755009 -3.000000
v -4.000000 0.000000 -1.000000
v -4.000000 0.265611 -1.000000
v -4.000000 0.000000 -3.000000
v -4.000000 0.265611 -3.000000
v -4.000000 3.000000 -0.500000
v -4.000000 2.438356 -0.500000
v -4.000000 1.104416 -0.500000
v -4.000000 0.656889 -0.500000
v -4.200000 2.875975 -0.500000
v -4.200000 0.500000 -0.500000
v -4.000000 2.755010 -0.500000
v -4.000000 0.000000 -0.500000
v -4.000000 0.265611 -0.500000
v -4.000000 0.000000 -1.500000
v -4.000000 0.265611 -1.500000
v -4.000000 2.755010 -1.500000
v -4.000000 2.438356 -1.500000
v -4.200000 2.875975 -1.500000
v -4.000000 3.000000 -1.500000
v -4.000000 1.104416 -1.500000
v -4.200000 0.500000 -1.500000
v -4.000000 0.656889 -1.500000
v -4.000000 0.000000 -2.500000
v -4.000000 0.265611 -2.500000
v -4.200000 2.875975 -2.500000
v -4.000000 2.438356 -2.500000
v -4.000000 1.104416 -2.500000
v -4.200000 0.500000 -2.500000
v -4.000000 0.656889 -2.500000
v -4.000000 3.000000 -2.500000
v -4.000000 2.755009 -2.500000
v -4.200000 0.500000 -3.500118
v -4.200000 2.875975 -3.500118
v -4.000000 2.755009 -3.500118
v -4.000000 2.438356 -3.500118
v -4.000000 1.104416 -3.500118
v -4.000000 0.656889 -3.500118
v -4.000000 3.000000 -3.500118
v -4.000000 0.000000 -3.500119
v -4.000000 0.265611 -3.500119
v -4.114327 0.388324 -2.000000
v -4.083077 0.396697 -2.000000
v -4.060201 0.419574 -2.000000
v -4.051827 0.450824 -2.000000
v -4.060201 0.482074 -2.000000
v -4.083077 0.504950 -2.000000
v -4.114327 0.513324 -2.000000
v -4.114327 0.380827 -4.000000
v -4.079329 0.390204 -4.000000
v -4.053709 0.415825 -4.000000
v -4.044331 0.450824 -4.000000
v -4.053709 0.485822 -4.000000
v -4.079329 0.511443 -4.000000
v -4.114327 0.520821 -4.000000
v -4.114327 0.388324 -3.887894
v -4.083078 0.396697 -3.887894
v -4.060201 0.419574 -3.887894
v -4.051828 0.450824 -3.887894
v -4.060201 0.482074 -3.887894
v -4.083078 0.504950 -3.887894
v -4.114327 0.513324 -3.887894
v -4.114327 0.380827 -3.893131
v -4.079329 0.390204 -3.893131
v -4.053709 0.415825 -3.893131
v -4.044331 0.450824 -3.893131
v -4.053709 0.485822 -3.893131
v -4.079329 0.511443 -3.893131
v -4.114327 0.520821 -3.893131
v -4.114327 0.388324 -3.833955
v -4.083078 0.396697 -3.833955
v -4.060201 0.419574 -3.833955
v -4.051828 0.450824 -3.833955
v -4.060201 0.482074 -3.833955
v -4.083078 0.504950 -3.833955
v -4.114327 0.513324 -3.833955
v -4.114327 0.388324 -3.868904
v -4.083078 0.396697 -3.868904
v -4.060201 0.419574 -3.868904
v -4.051828 0.450824 -3.868904
v -4.060201 0.482074 -3.868904
v -4.083078 0.504950 -3.868904
v -4.114327 0.513324 -3.868904
v -4.114327 0.383082 -3.865175
v -4.114327 0.383082 -3.837684
v -4.080457 0.392158 -3.865175
v -4.080457 0.392158 -3.837684
v -4.055662 0.416953 -3.865175
v -4.055662 0.416953 -3.837684
v -4.046587 0.450824 -3.865175
v -4.046587 0.450824 -3.837684
v -4.055662 0.484694 -3.865175
v -4.055662 0.484694 -3.837684
v -4.080457 0.509489 -3.865175
v -4.080457 0.509489 -3.837684
v -4.114327 0.518565 -3.865175
v -4.114327 0.518565 -3.837684
v -4.114327 0.380827 0.000000
v -4.079329 0.390204 0.000000
v -4.053708 0.415825 0.000000
v -4.044331 0.450824 0.000000
v -4.053708 0.485822 0.000000
v -4.079329 0.511443 0.000000
v -4.114327 0.520821 0.000000
v -4.114327 0.388324 -0.112105
v -4.083077 0.396697 -0.112105
v -4.060201 0.419574 -0.112105
v -4.051827 0.450824 -0.112105
v -4.060201 0.482074 -0.112105
v -4.083077 0.504950 -0.112105
v -4.114327 0.513324 -0.112105
v -4.114327 0.380827 -0.106868
v -4.079329 0.390204 -0.106868
v -4.053708 0.415825 -0.106868
v -4.044331 0.450824 -0.106868
v -4.053708 0.485822 -0.106868
v -4.079329 0.511443 -0.106868
v -4.114327 0.520821 -0.106868
v -4.114327 0.388324 -0.166045
v -4.083077 0.396697 -0.166045
v -4.060201 0.419574 -0.166045
v -4.051827 0.450824 -0.166045
v -4.060201 0.482074 -0.166045
v -4.083077 0.504950 -0.166045
v -4.114327 0.513324 -0.166045
v -4.114327 0.388324 -0.131095
v -4.083077 0.396697 -0.131095
v -4.060201 0.419574 -0.131095
v -4.051827 0.450824 -0.131095
v -4.060201 0.482074 -0.131095
v -4.083077 0.504950 -0.131095
v -4.114327 0.513324 -0.131095
v -4.114327 0.383082 -0.134824
v -4.114327 0.383082 -0.162316
v -4.080457 0.392158 -0.134824
v -4.080457 0.392158 -0.162316
v -4.055662 0.416953 -0.134824
v -4.055662 0.416953 -0.162316
v -4.046586 0.450824 -0.134824
v -4.046586 0.450824 -0.162316
v -4.055662 0.484694 -0.134824
v -4.055662 0.484694 -0.162316
v -4.080457 0.509489 -0.134824
v -4.080457 0.509489 -0.162316
v -4.114327 0.518565 -0.134824
v -4.114327 0.518565 -0.162316
v -4.114327 0.388324 -0.991324
v -4.083077 0.396697 -0.991324
v -4.060201 0.419574 -0.991324
v -4.051827 0.450824 -0.991324
v -4.060201 0.482074 -0.991324
v -4.083077 0.504950 -0.991324
v -4.114327 0.513324 -0.991324
v -4.114327 0.388324 -3.000000
v -4.083078 0.396697 -3.000000
v -4.060201 0.419574 -3.000000
v -4.051828 0.450824 -3.000000
v -4.060201 0.482074 -3.000000
v -4.083078 0.504950 -3.000000
v -4.114327 0.513324 -3.000000
v -4.114327 0.388324 -2.500000
v -4.083078 0.396697 -2.500000
v -4.060201 0.419574 -2.500000
v -4.051828 0.450824 -2.500000
v -4.060201 0.482074 -2.500000
v -4.083078 0.504950 -2.500000
v -4.114327 0.513324 -2.500000
v -4.114327 0.388324 -3.500373
v -4.083078 0.396697 -3.500373
v -4.060201 0.419574 -3.500373
v -4.051828 0.450824 -3.500373
v -4.060201 0.482074 -3.500373
v -4.083078 0.504950 -3.500373
v -4.114327 0.513324 -3.500373
v -4.114327 0.388324 -1.495662
v -4.083077 0.396697 -1.495662
v -4.060201 0.419574 -1.495662
v -4.051827 0.450824 -1.495662
v -4.060201 0.482074 -1.495662
v -4.083077 0.504950 -1.495662
v -4.114327 0.513324 -1.495662
v -4.114327 0.388324 -0.496157
v -4.083077 0.396697 -0.496157
v -4.060201 0.419574 -0.496157
v -4.051827 0.450824 -0.496157
v -4.060201 0.482074 -0.496157
v -4.083077 0.504950 -0.496157
v -4.114327 0.513324 -0.496157
v -4.145576 0.396697 -2.000000
v -4.168453 0.419574 -2.000000
v -4.176826 0.450824 -2.000000
v -4.168453 0.482074 -2.000000
v -4.145576 0.504950 -2.000000
v -4.149325 0.390204 -4.000000
v -4.174946 0.415825 -4.000000
v -4.184323 0.450824 -4.000000
v -4.174946 0.485822 -4.000000
v -4.149325 0.511443 -4.000000
v -4.145576 0.396697 -3.887894
v -4.168453 0.419574 -3.887894
v -4.176826 0.450824 -3.887894
v -4.168453 0.482074 -3.887894
v -4.145576 0.504950 -3.887894
v -4.149325 0.390204 -3.893131
v -4.174946 0.415825 -3.893131
v -4.184323 0.450824 -3.893131
v -4.174946 0.485822 -3.893131
v -4.149325 0.511443 -3.893131
v -4.145576 0.396697 -3.833955
v -4.168453 0.419574 -3.833955
v -4.176826 0.450824 -3.833955
v -4.168453 0.482074 -3.833955
v -4.145576 0.504950 -3.833955
v -4.145576 0.396697 -3.868904
v -4.168453 0.419574 -3.868904
v -4.176826 0.450824 -3.868904
v -4.168453 0.482074 -3.868904
v -4.145576 0.504950 -3.868904
v -4.148197 0.392158 -3.865175
v -4.148197 0.392158 -3.837684
v -4.172992 0.416953 -3.865175
v -4.172992 0.416953 -3.837684
v -4.182068 0.450824 -3.865175
v -4.182068 0.450824 -3.837684
v -4.172992 0.484694 -3.865175
v -4.172992 0.484694 -3.837684
v -4.148197 0.509489 -3.865175
v -4.148197 0.509489 -3.837684
v -4.149325 0.390204 0.000000
v -4.174946 0.415825 0.000000
v -4.184324 0.450824 0.000000
v -4.174946 0.485822 0.000000
v -4.149325 0.511443 0.000000
v -4.145577 0.396697 -0.112105
v -4.168454 0.419574 -0.112105
v -4.176827 0.450824 -0.112105
v -4.168454 0.482074 -0.112105
v -4.145577 0.504950 -0.112105
v -4.149325 0.390204 -0.106868
v -4.174946 0.415825 -0.106868
v -4.184324 0.450824 -0.106868
v -4.174946 0.485822 -0.106868
v -4.149325 0.511443 -0.106868
v -4.145577 0.396697 -0.166045
v -4.168454 0.419574 -0.166045
v -4.176827 0.450824 -0.166045
v -4.168454 0.482074 -0.166045
v -4.145577 0.504950 -0.166045
v -4.145577 0.396697 -0.131095
v -4.168454 0.419574 -0.131095
v -4.176827 0.450824 -0.131095
v -4.168454 0.482074 -0.131095
v -4.145577 0.504950 -0.131095
v -4.148198 0.392158 -0.134824
v -4.148198 0.392158 -0.162316
v -4.172993 0.416953 -0.134824
v -4.172993 0.416953 -0.162316
v -4.182068 0.450824 -0.134824
v -4.182068 0.450824 -0.162316
v -4.172993 0.484694 -0.134824
v -4.172993 0.484694 -0.162316
v -4.148198 0.509489 -0.134824
v -4.148198 0.509489 -0.162316
v -4.145577 0.396697 -0.991324
v -4.168453 0.419574 -0.991324
v -4.176827 0.450824 -0.991324
v -4.168453 0.482074 -0.991324
v -4.145577 0.504950 -0.991324
v -4.145576 0.396697 -3.000000
v -4.168453 0.419574 -3.000000
v -4.176826 0.450824 -3.000000
v -4.168453 0.482074 -3.000000
v -4.145576 0.504950 -3.000000
v -4.145576 0.396697 -2.500000
v -4.168453 0.419574 -2.500000
v -4.176826 0.450824 -2.500000
v -4.168453 0.482074 -2.500000
v -4.145576 0.504950 -2.500000
v -4.145576 0.396697 -3.500373
v -4.168453 0.419574 -3.500373
v -4.176826 0.450824 -3.500373
v -4.168453 0.482074 -3.500373
v -4.145576 0.504950 -3.500373
v -4.145577 0.396697 -1.495662
v -4.168453 0.419574 -1.495662
v -4.176827 0.450824 -1.495662
v -4.168453 0.482074 -1.495662
v -4.145577 0.504950 -1.495662
v -4.145577 0.396697 -0.496157
v -4.168454 0.419574 -0.496157
v -4.176827 0.450824 -0.496157
v -4.168454 0.482074 -0.496157
v -4.145577 0.504950 -0.496157
v -2.000000 0.388324 -4.114327
v -2.000000 0.396697 -4.083077
v -2.000000 0.419574 -4.060201
v -2.000000 0.450824 -4.051827
v -2.000000 0.482074 -4.060201
v -2.000000 0.504950 -4.083077
v -2.000000 0.513324 -4.114327
v 0.000000 0.380827 -4.114327
v 0.000000 0.390204 -4.079329
v 0.000000 0.415825 -4.053709
v 0.000000 0.450824 -4.044331
v 0.000000 0.485822 -4.053709
v 0.000000 0.511443 -4.079329
v 0.000000 0.520821 -4.114327
v -0.112106 0.388324 -4.114327
v -0.112106 0.396697 -4.083078
v -0.112106 0.419574 -4.060201
v -0.112106 0.450824 -4.051828
v -0.112106 0.482074 -4.060201
v -0.112106 0.504950 -4.083078
v -0.112106 0.513324 -4.114327
v -0.106869 0.380827 -4.114327
v -0.106869 0.390204 -4.079329
v -0.106869 0.415825 -4.053709
v -0.106869 0.450824 -4.044331
v -0.106869 0.485822 -4.053709
v -0.106869 0.511443 -4.079329
v -0.106869 0.520821 -4.114327
v -0.166045 0.388324 -4.114327
v -0.166045 0.396697 -4.083078
v -0.166045 0.419574 -4.060201
v -0.166045 0.450824 -4.051828
v -0.166045 0.482074 -4.060201
v -0.166045 0.504950 -4.083078
v -0.166045 0.513324 -4.114327
v -0.131096 0.388324 -4.114327
v -0.131096 0.396697 -4.083078
v -0.131096 0.419574 -4.060201
v -0.131096 0.450824 -4.051828
v -0.131096 0.482074 -4.060201
v -0.131096 0.504950 -4.083078
v -0.131096 0.513324 -4.114327
v -0.134825 0.383082 -4.114327
v -0.162316 0.383082 -4.114327
v -0.134825 0.392158 -4.080457
v -0.162316 0.392158 -4.080457
v -0.134825 0.416953 -4.055662
v -0.162316 0.416953 -4.055662
v -0.134825 0.450824 -4.046587
v -0.162316 0.450824 -4.046587
v -0.134825 0.484694 -4.055662
v -0.162316 0.484694 -4.055662
v -0.134825 0.509489 -4.080457
v -0.162316 0.509489 -4.080457
v -0.134825 0.518565 -4.114327
v -0.162316 0.518565 -4.114327
v -4.000000 0.380827 -4.114327
v -4.000000 0.390204 -4.079329
v -4.000000 0.415825 -4.053708
v -4.000000 0.450824 -4.044331
v -4.000000 0.485822 -4.053708
v -4.000000 0.511443 -4.079329
v -4.000000 0.520821 -4.114327
v -3.887895 0.388324 -4.114327
v -3.887895 0.396697 -4.083077
v -3.887895 0.419574 -4.060201
v -3.887895 0.450824 -4.051827
v -3.887895 0.482074 -4.060201
v -3.887895 0.504950 -4.083077
v -3.887895 0.513324 -4.114327
v -3.893132 0.380827 -4.114327
v -3.893132 0.390204 -4.079329
v -3.893132 0.415825 -4.053708
v -3.893132 0.450824 -4.044331
v -3.893132 0.485822 -4.053708
v -3.893132 0.511443 -4.079329
v -3.893132 0.520821 -4.114327
v -3.833955 0.388324 -4.114327
v -3.833955 0.396697 -4.083077
v -3.833955 0.419574 -4.060201
v -3.833955 0.450824 -4.051827
v -3.833955 0.482074 -4.060201
v -3.833955 0.504950 -4.083077
v -3.833955 0.513324 -4.114327
v -3.868905 0.388324 -4.114327
v -3.868905 0.396697 -4.083077
v -3.868905 0.419574 -4.060201
v -3.868905 0.450824 -4.051827
v -3.868905 0.482074 -4.060201
v -3.868905 0.504950 -4.083077
v -3.868905 0.513324 -4.114327
v -3.865176 0.383082 -4.114327
v -3.837684 0.383082 -4.114327
v -3.865176 0.392158 -4.080457
v -3.837684 0.392158 -4.080457
v -3.865176 0.416953 -4.055662
v -3.837684 0.416953 -4.055662
v -3.865176 0.450824 -4.046586
v -3.837684 0.450824 -4.046586
v -3.865176 0.484694 -4.055662
v -3.837684 0.484694 -4.055662
v -3.865176 0.509489 -4.080457
v -3.837684 0.509489 -4.080457
v -3.865176 0.518565 -4.114327
v -3.837684 0.518565 -4.114327
v -3.008676 0.388324 -4.114327
v -3.008676 0.396697 -4.083077
v -3.008676 0.419574 -4.060201
v -3.008676 0.450824 -4.051827
v -3.008676 0.482074 -4.060201
v -3.008676 0.504950 -4.083077
v -3.008676 0.513324 -4.114327
v -1.000000 0.388324 -4.114327
v -1.000000 0.396697 -4.083078
v -1.000000 0.419574 -4.060201
v -1.000000 0.450824 -4.051828
v -1.000000 0.482074 -4.060201
v -1.000000 0.504950 -4.083078
v -1.000000 0.513324 -4.114327
v -1.500000 0.388324 -4.114327
v -1.500000 0.396697 -4.083078
v -1.500000 0.419574 -4.060201
v -1.500000 0.450824 -4.051828
v -1.500000 0.482074 -4.060201
v -1.500000 0.504950 -4.083078
v -1.500000 0.513324 -4.114327
v -0.499627 0.388324 -4.114327
v -0.499627 0.396697 -4.083078
v -0.499627 0.419574 -4.060201
v -0.499627 0.450824 -4.051828
v -0.499627 0.482074 -4.060201
v -0.499627 0.504950 -4.083078
v -0.499627 0.513324 -4.114327
v -2.504338 0.388324 -4.114327
v -2.504338 0.396697 -4.083077
v -2.504338 0.419574 -4.060201
v -2.504338 0.450824 -4.051827
v -2.504338 0.482074 -4.060201
v -2.504338 0.504950 -4.083077
v -2.504338 0.513324 -4.114327
v -3.503843 0.388324 -4.114327
v -3.503843 0.396697 -4.083077
v -3.503843 0.419574 -4.060201
v -3.503843 0.450824 -4.051827
v -3.503843 0.482074 -4.060201
v -3.503843 0.504950 -4.083077
v -3.503843 0.513324 -4.114327
v -2.000000 0.396697 -4.145576
v -2.000000 0.419574 -4.168453
v -2.000000 0.450824 -4.176826
v -2.000000 0.482074 -4.168453
v -2.000000 0.504950 -4.145576
v 0.000000 0.390204 -4.149325
v 0.000000 0.415825 -4.174946
v 0.000000 0.450824 -4.184323
v 0.000000 0.485822 -4.174946
v 0.000000 0.511443 -4.149325
v -0.112106 0.396697 -4.145576
v -0.112106 0.419574 -4.168453
v -0.112106 0.450824 -4.176826
v -0.112106 0.482074 -4.168453
v -0.112106 0.504950 -4.145576
v -0.106869 0.390204 -4.149325
v -0.106869 0.415825 -4.174946
v -0.106869 0.450824 -4.184323
v -0.106869 0.485822 -4.174946
v -0.106869 0.511443 -4.149325
v -0.166045 0.396697 -4.145576
v -0.166045 0.419574 -4.168453
v -0.166045 0.450824 -4.176826
v -0.166045 0.482074 -4.168453
v -0.166045 0.504950 -4.145576
v -0.131096 0.396697 -4.145576
v -0.131096 0.419574 -4.168453
v -0.131096 0.450824 -4.176826
v -0.131096 0.482074 -4.168453
v -0.131096 0.504950 -4.145576
v -0.134825 0.392158 -4.148197
v -0.162316 0.392158 -4.148197
v -0.134825 0.416953 -4.172992
v -0.162316 0.416953 -4.172992
v -0.134825 0.450824 -4.182068
v -0.162316 0.450824 -4.182068
v -0.134825 0.484694 -4.172992
v -0.162316 0.484694 -4.172992
v -0.134825 0.509489 -4.148197
v -0.162316 0.509489 -4.148197
v -4.000000 0.390204 -4.149325
v -4.000000 0.415825 -4.174946
v -4.000000 0.450824 -4.184324
v -4.000000 0.485822 -4.174946
v -4.000000 0.511443 -4.149325
v -3.887895 0.396697 -4.145577
v -3.887895 0.419574 -4.168454
v -3.887895 0.450824 -4.176827
v -3.887895 0.482074 -4.168454
v -3.887895 0.504950 -4.145577
v -3.893132 0.390204 -4.149325
v -3.893132 0.415825 -4.174946
v -3.893132 0.450824 -4.184324
v -3.893132 0.485822 -4.174946
v -3.893132 0.511443 -4.149325
v -3.833955 0.396697 -4.145577
v -3.833955 0.419574 -4.168454
v -3.833955 0.450824 -4.176827
v -3.833955 0.482074 -4.168454
v -3.833955 0.504950 -4.145577
v -3.868905 0.396697 -4.145577
v -3.868905 0.419574 -4.168454
v -3.868905 0.450824 -4.176827
v -3.868905 0.482074 -4.168454
v -3.868905 0.504950 -4.145577
v -3.865176 0.392158 -4.148198
v -3.837684 0.392158 -4.148198
v -3.865176 0.416953 -4.172993
v -3.837684 0.416953 -4.172993
v -3.865176 0.450824 -4.182068
v -3.837684 0.450824 -4.182068
v -3.865176 0.484694 -4.172993
v -3.837684 0.484694 -4.172993
v -3.865176 0.509489 -4.148198
v -3.837684 0.509489 -4.148198
v -3.008676 0.396697 -4.145577
v -3.008676 0.419574 -4.168453
v -3.008676 0.450824 -4.176827
v -3.008676 0.482074 -4.168453
v -3.008676 0.504950 -4.145577
v -1.000000 0.396697 -4.145576
v -1.000000 0.419574 -4.168453
v -1.000000 0.450824 -4.176826
v -1.000000 0.482074 -4.168453
v -1.000000 0.504950 -4.145576
v -1.500000 0.396697 -4.145576
v -1.500000 0.419574 -4.168453
v -1.500000 0.450824 -4.176826
v -1.500000 0.482074 -4.168453
v -1.500000 0.504950 -4.145576
v -0.499627 0.396697 -4.145576
v -0.499627 0.419574 -4.168453
v -0.499627 0.450824 -4.176826
v -0.499627 0.482074 -4.168453
v -0.499627 0.504950 -4.145576
v -2.504338 0.396697 -4.145577
v -2.504338 0.419574 -4.168453
v -2.504338 0.450824 -4.176827
v -2.504338 0.482074 -4.168453
v -2.504338 0.504950 -4.145577
v -3.503843 0.396697 -4.145577
v -3.503843 0.419574 -4.168454
v -3.503843 0.450824 -4.176827
v -3.503843 0.482074 -4.168454
v -3.503843 0.504950 -4.145577
v -4.110000 0.522229 -4.110000
v -4.143248 0.512552 -4.143248
v -4.167587 0.486115 -4.167588
v -4.176497 0.450000 -4.176497
v -4.167587 0.413885 -4.167588
v -4.143248 0.387448 -4.143248
v -4.110000 0.377771 -4.110000
v -4.076752 0.387448 -4.076751
v -4.052412 0.413885 -4.052412
v -4.043504 0.450000 -4.043503
v -4.052412 0.486115 -4.052412
v -4.076752 0.512552 -4.076751
vt 0.753356 0.408906
vt 0.837782 0.408906
vt 0.837782 0.362340
vt 0.753356 0.362340
vt 1.077276 0.750453
vt 1.159675 0.750453
vt 1.159675 0.697079
vt 1.077276 0.697079
vt 1.077276 0.688858
vt 1.159675 0.688858
vt 1.159675 0.751199
vt 1.077276 0.751199
vt 0.246664 0.408906
vt 0.331109 0.408906
vt 0.331109 0.362340
vt 0.246664 0.362340
vt 0.415555 0.408906
vt 0.500000 0.408906
vt 0.500000 0.362340
vt 0.415555 0.362340
vt 0.584445 0.408906
vt 0.668891 0.408906
vt 0.668891 0.362340
vt 0.584445 0.362340
vt 0.587932 0.688858
vt 0.665163 0.688858
vt 0.665163 0.751199
vt 0.587932 0.751199
vt 0.747581 0.688858
vt 0.830000 0.688858
vt 0.830000 0.751199
vt 0.747581 0.751199
vt 0.912419 0.688858
vt 0.994837 0.688858
vt 0.994837 0.751199
vt 0.912419 0.751199
vt 0.587932 0.750453
vt 0.665163 0.750453
vt 0.665163 0.697079
vt 0.587932 0.697079
vt 0.747581 0.750453
vt 0.830000 0.750453
vt 0.830000 0.697079
vt 0.747581 0.697079
vt 0.912419 0.750453
vt 0.994837 0.750453
vt 0.994837 0.697079
vt 0.912419 0.697079
vt 0.510701 0.750453
vt 0.510701 0.697079
vt 0.510701 0.688858
vt 0.510701 0.751199
vt 0.162218 0.408906
vt 0.162218 0.362340
vt 0.753356 0.408906
vt 0.753356 0.362340
vt 1.077276 0.750453
vt 1.077276 0.697079
vt 1.077276 0.688858
vt 1.077276 0.751199
vt 0.246664 0.408906
vt 0.246664 0.362340
vt 0.331109 0.362340
vt 0.331109 0.408906
vt 0.415555 0.408906
vt 0.415555 0.362340
vt 0.500000 0.362340
vt 0.500000 0.408906
vt 0.584445 0.408906
vt 0.584445 0.362340
vt 0.668891 0.362340
vt 0.668891 0.408906
vt 0.587932 0.688858
vt 0.587932 0.751199
vt 0.665163 0.751199
vt 0.665163 0.688858
vt 0.747581 0.688858
vt 0.747581 0.751199
vt 0.830000 0.751199
vt 0.830000 0.688858
vt 0.912419 0.688858
vt 0.912419 0.751199
vt 0.994837 0.751199
vt 0.994837 0.688858
vt 0.587932 0.750453
vt 0.587932 0.697079
vt 0.665163 0.697079
vt 0.665163 0.750453
vt 0.747581 0.750453
vt 0.747581 0.697079
vt 0.830000 0.697079
vt 0.830000 0.750453
vt 0.912419 0.750453
vt 0.912419 0.697079
vt 0.994837 0.697079
vt 0.994837 0.750453
vt 0.510701 0.750453
vt 0.510701 0.697079
vt 0.510701 0.688858
vt 0.510701 0.751199
vt 0.162218 0.408906
vt 0.162218 0.362340
vt 0.455026 0.569623
vt 0.518179 0.569623
vt 0.518179 0.579777
vt 0.455026 0.579777
vt 0.518179 0.589931
vt 0.455026 0.589931
vt 0.518179 0.600085
vt 0.455026 0.600085
vt 0.518179 0.610239
vt 0.455026 0.610239
vt 0.518179 0.620393
vt 0.455026 0.620393
vt 0.518179 0.630547
vt 0.455026 0.630547
vt 0.500917 0.365751
vt 0.500917 0.371133
vt 0.460363 0.371133
vt 0.460363 0.365751
vt 0.419809 0.371133
vt 0.419809 0.365751
vt 0.379255 0.371133
vt 0.379255 0.365751
vt 0.338701 0.371133
vt 0.338701 0.365752
vt 0.298147 0.371133
vt 0.298147 0.365751
vt 0.257593 0.371133
vt 0.257593 0.365751
vt 0.455026 0.569623
vt 0.455026 0.579777
vt 0.518179 0.579777
vt 0.518179 0.569623
vt 0.455026 0.589931
vt 0.518179 0.589931
vt 0.455026 0.600085
vt 0.518179 0.600085
vt 0.455026 0.610239
vt 0.518179 0.610239
vt 0.455026 0.620393
vt 0.518179 0.620393
vt 0.455026 0.630547
vt 0.518179 0.630547
vt 0.500917 0.365751
vt 0.460363 0.365751
vt 0.460363 0.371133
vt 0.500917 0.371133
vt 0.419809 0.365751
vt 0.419809 0.371133
vt 0.379255 0.365751
vt 0.379255 0.371133
vt 0.338701 0.365752
vt 0.338701 0.371133
vt 0.298147 0.365751
vt 0.298147 0.371133
vt 0.257593 0.365751
vt 0.257593 0.371133
vt 0.455026 0.579777
vt 0.518179 0.579777
vt 0.455026 0.589931
vt 0.518179 0.589931
vt 0.455026 0.600085
vt 0.518179 0.600085
vt 0.455026 0.610239
vt 0.518179 0.610239
vt 0.455026 0.620393
vt 0.518179 0.620393
vt 0.460363 0.365751
vt 0.460363 0.371133
vt 0.419809 0.365751
vt 0.419809 0.371133
vt 0.379255 0.365751
vt 0.379255 0.371133
vt 0.338701 0.365752
vt 0.338701 0.371133
vt 0.298147 0.365751
vt 0.298147 0.371133
vt 0.518179 0.579777
vt 0.455026 0.579777
vt 0.518179 0.589931
vt 0.455026 0.589931
vt 0.518179 0.600085
vt 0.455026 0.600085
vt 0.518179 0.610239
vt 0.455026 0.610239
vt 0.518179 0.620393
vt 0.455026 0.620393
vt 0.460363 0.371133
vt 0.460363 0.365751
vt 0.419809 0.371133
vt 0.419809 0.365751
vt 0.379255 0.371133
vt 0.379255 0.365751
vt 0.338701 0.371133
vt 0.338701 0.365752
vt 0.298147 0.371133
vt 0.298147 0.365751
vt 0.455026 0.569623
vt 0.518179 0.569623
vt 0.518179 0.579777
vt 0.455026 0.579777
vt 0.518179 0.589931
vt 0.455026 0.589931
vt 0.518179 0.600085
vt 0.455026 0.600085
vt 0.518179 0.610239
vt 0.455026 0.610239
vt 0.518179 0.620393
vt 0.455026 0.620393
vt 0.518179 0.630547
vt 0.455026 0.630547
vt 0.500917 0.365751
vt 0.500917 0.371133
vt 0.460363 0.371133
vt 0.460363 0.365751
vt 0.419809 0.371133
vt 0.419809 0.365751
vt 0.379255 0.371133
vt 0.379255 0.365751
vt 0.338701 0.371133
vt 0.338701 0.365752
vt 0.298147 0.371133
vt 0.298147 0.365751
vt 0.257593 0.371133
vt 0.257593 0.365751
vt 0.455026 0.569623
vt 0.455026 0.579777
vt 0.518179 0.579777
vt 0.518179 0.569623
vt 0.455026 0.589931
vt 0.518179 0.589931
vt 0.455026 0.600085
vt 0.518179 0.600085
vt 0.455026 0.610239
vt 0.518179 0.610239
vt 0.455026 0.620393
vt 0.518179 0.620393
vt 0.455026 0.630547
vt 0.518179 0.630547
vt 0.500917 0.365751
vt 0.460363 0.365751
vt 0.460363 0.371133
vt 0.500917 0.371133
vt 0.419809 0.365751
vt 0.419809 0.371133
vt 0.379255 0.365751
vt 0.379255 0.371133
vt 0.338701 0.365752
vt 0.338701 0.371133
vt 0.298147 0.365751
vt 0.298147 0.371133
vt 0.257593 0.365751
vt 0.257593 0.371133
vt 0.455026 0.579777
vt 0.518179 0.579777
vt 0.455026 0.589931
vt 0.518179 0.589931
vt 0.455026 0.600085
vt 0.518179 0.600085
vt 0.455026 0.610239
vt 0.518179 0.610239
vt 0.455026 0.620393
vt 0.518179 0.620393
vt 0.460363 0.365751
vt 0.460363 0.371133
vt 0.419809 0.365751
vt 0.419809 0.371133
vt 0.379255 0.365751
vt 0.379255 0.371133
vt 0.338701 0.365752
vt 0.338701 0.371133
vt 0.298147 0.365751
vt 0.298147 0.371133
vt 0.518179 0.579777
vt 0.455026 0.579777
vt 0.518179 0.589931
vt 0.455026 0.589931
vt 0.518179 0.600085
vt 0.455026 0.600085
vt 0.518179 0.610239
vt 0.455026 0.610239
vt 0.518179 0.620393
vt 0.455026 0.620393
vt 0.460363 0.371133
vt 0.460363 0.365751
vt 0.419809 0.371133
vt 0.419809 0.365751
vt 0.379255 0.371133
vt 0.379255 0.365751
vt 0.338701 0.371133
vt 0.338701 0.365752
vt 0.298147 0.371133
vt 0.298147 0.365751
vt 0.501925 0.997904
vt 0.616774 0.997904
vt 0.616774 0.930211
vt 0.501925 0.930211
vt 0.501925 0.710248
vt 0.404644 0.710248
vt 0.404644 0.661440
vt 0.501925 0.661440
vt 0.501898 0.997904
vt 0.501898 0.930211
vt 0.616774 0.930211
vt 0.616774 0.997904
vt 0.501925 0.661440
vt 0.404644 0.661440
vt 0.404644 0.710248
vt 0.501925 0.710248
vt 0.501948 0.661440
vt 0.501948 0.710248
vt 0.378289 0.985777
vt 0.378289 0.709169
vt 0.256310 0.709169
vt 0.256310 0.985777
vt 0.501925 0.661440
vt 0.501925 0.710248
vt 0.501925 0.997904
vt 0.501925 0.930211
vt 0.622246 0.709169
vt 0.622246 0.985777
vt 0.744224 0.985777
vt 0.744224 0.709169
vt 0.134332 0.985777
vt 0.134332 0.709169
vt 0.866231 0.985777
vt 0.866231 0.709169
vt 0.501925 0.997904
vt 0.501925 0.930211
vt 0.012354 0.985777
vt 0.012354 0.709169
vt 0.599206 0.661440
vt 0.599206 0.710248
vt 0.387076 0.997904
vt 0.387076 0.930211
vt 0.387076 0.997904
vt 0.387076 0.930211
vt 0.500267 0.985777
vt 0.500267 0.709169
vt 0.599206 0.710248
vt 0.599206 0.661440
vt 0.988181 0.985777
vt 0.988181 0.709169
vt 0.599206 0.661440
vt 0.599206 0.710248
vt 0.387076 0.997904
vt 0.387076 0.930211
vt 0.501925 0.997904
vt 0.501925 0.930211
vt 0.616774 0.930211
vt 0.616774 0.997904
vt 0.501925 0.710248
vt 0.501925 0.661440
vt 0.404644 0.661440
vt 0.404644 0.710248
vt 0.501898 0.997904
vt 0.616774 0.997904
vt 0.616774 0.930211
vt 0.501898 0.930211
vt 0.501925 0.661440
vt 0.501925 0.710248
vt 0.404644 0.710248
vt 0.404644 0.661440
vt 0.501948 0.661440
vt 0.501948 0.710248
vt 0.378289 0.985777
vt 0.256310 0.985777
vt 0.256310 0.709169
vt 0.378289 0.709169
vt 0.501925 0.661440
vt 0.501925 0.710248
vt 0.501925 0.997904
vt 0.501925 0.930211
vt 0.622246 0.709169
vt 0.744224 0.709169
vt 0.744224 0.985777
vt 0.622246 0.985777
vt 0.134332 0.985777
vt 0.134332 0.709169
vt 0.866231 0.985777
vt 0.866231 0.709169
vt 0.501925 0.997904
vt 0.501925 0.930211
vt 0.012354 0.985777
vt 0.012354 0.709169
vt 0.599206 0.661440
vt 0.599206 0.710248
vt 0.387076 0.997904
vt 0.387076 0.930211
vt 0.387076 0.997904
vt 0.387076 0.930211
vt 0.500267 0.985777
vt 0.500267 0.709169
vt 0.599206 0.710248
vt 0.599206 0.661440
vt 0.429516 0.293475
vt 0.429516 0.483608
vt 0.397147 0.483608
vt 0.397147 0.293475
vt 0.461886 0.293475
vt 0.461886 0.483608
vt 0.494255 0.293475
vt 0.494255 0.483608
vt 0.526625 0.293475
vt 0.526625 0.483608
vt 0.558994 0.293475
vt 0.558994 0.483608
vt 0.591364 0.293475
vt 0.591363 0.483608
vt 0.666232 0.590478
vt 0.744230 0.590478
vt 0.744230 0.602610
vt 0.666232 0.602610
vt 0.666232 0.578347
vt 0.744230 0.578347
vt 0.666232 0.566214
vt 0.744230 0.566215
vt 0.666232 0.554083
vt 0.744230 0.554083
vt 0.666232 0.541951
vt 0.744230 0.541951
vt 0.666232 0.529819
vt 0.744230 0.529819
vt 0.409955 0.965938
vt 0.454088 0.965938
vt 0.454088 0.970938
vt 0.409955 0.970938
vt 0.409955 0.998262
vt 0.365822 0.998262
vt 0.365822 0.995137
vt 0.409955 0.995137
vt 0.498221 0.965938
vt 0.498221 0.970938
vt 0.454088 0.998262
vt 0.454088 0.995137
vt 0.542353 0.965938
vt 0.542353 0.970938
vt 0.498221 0.998262
vt 0.498221 0.995137
vt 0.586486 0.965938
vt 0.586486 0.970938
vt 0.542353 0.998262
vt 0.542353 0.995137
vt 0.586486 0.995137
vt 0.630619 0.970938
vt 0.630619 0.995137
vt 0.365822 0.970938
vt 0.365822 0.965938
vt 0.630619 0.998262
vt 0.586486 0.998262
vt 0.630619 0.965938
vt 0.429516 0.293475
vt 0.397147 0.293475
vt 0.397147 0.483608
vt 0.429516 0.483608
vt 0.461886 0.293475
vt 0.461886 0.483608
vt 0.494255 0.293475
vt 0.494255 0.483608
vt 0.526625 0.293475
vt 0.526625 0.483608
vt 0.558994 0.293475
vt 0.558994 0.483608
vt 0.591364 0.293475
vt 0.591363 0.483608
vt 0.666232 0.590478
vt 0.666232 0.602610
vt 0.744230 0.602610
vt 0.744230 0.590478
vt 0.666232 0.578347
vt 0.744230 0.578347
vt 0.666232 0.566214
vt 0.744230 0.566215
vt 0.666232 0.554083
vt 0.744230 0.554083
vt 0.666232 0.541951
vt 0.744230 0.541951
vt 0.666232 0.529819
vt 0.744230 0.529819
vt 0.409955 0.965938
vt 0.409955 0.970938
vt 0.454088 0.970938
vt 0.454088 0.965938
vt 0.409955 0.998262
vt 0.409955 0.995137
vt 0.365822 0.995137
vt 0.365822 0.998262
vt 0.498221 0.970938
vt 0.498221 0.965938
vt 0.454088 0.998262
vt 0.454088 0.995137
vt 0.542353 0.970938
vt 0.542353 0.965938
vt 0.498221 0.998262
vt 0.498221 0.995137
vt 0.586486 0.970938
vt 0.586486 0.965938
vt 0.542353 0.998262
vt 0.542353 0.995137
vt 0.586486 0.995137
vt 0.630619 0.995137
vt 0.630619 0.970938
vt 0.365822 0.970938
vt 0.365822 0.965938
vt 0.630619 0.998262
vt 0.586486 0.998262
vt 0.630619 0.965938
vt 0.430070 0.529819
vt 0.430070 0.541951
vt 0.549234 0.541951
vt 0.549234 0.529819
vt 0.430070 0.554083
vt 0.549234 0.554083
vt 0.430070 0.566215
vt 0.549234 0.566215
vt 0.430070 0.578347
vt 0.549234 0.578347
vt 0.430070 0.590478
vt 0.549234 0.590478
vt 0.430070 0.602611
vt 0.549234 0.602611
vt 0.430070 0.529819
vt 0.549234 0.529819
vt 0.549234 0.541951
vt 0.430070 0.541951
vt 0.549234 0.554083
vt 0.430070 0.554083
vt 0.549234 0.566215
vt 0.430070 0.566215
vt 0.549234 0.578347
vt 0.430070 0.578347
vt 0.549234 0.590478
vt 0.430070 0.590478
vt 0.549234 0.602611
vt 0.430070 0.602611
vt 0.310906 0.590478
vt 0.310906 0.602611
vt 0.310906 0.578347
vt 0.310906 0.566215
vt 0.310906 0.554083
vt 0.310906 0.541951
vt 0.310906 0.529819
vt 0.429516 0.293475
vt 0.429516 0.483608
vt 0.461886 0.293475
vt 0.461886 0.483608
vt 0.494255 0.293475
vt 0.494255 0.483608
vt 0.526625 0.293475
vt 0.526625 0.483608
vt 0.558994 0.293475
vt 0.558994 0.483608
vt 0.666232 0.590478
vt 0.744230 0.590478
vt 0.666232 0.578347
vt 0.744230 0.578347
vt 0.666232 0.566214
vt 0.744230 0.566215
vt 0.666232 0.554083
vt 0.744230 0.554083
vt 0.666232 0.541951
vt 0.744230 0.541951
vt 0.409955 0.965938
vt 0.409955 0.970938
vt 0.454088 0.970938
vt 0.454088 0.965938
vt 0.409955 0.998262
vt 0.409955 0.995137
vt 0.498221 0.970938
vt 0.498221 0.965938
vt 0.454088 0.998262
vt 0.454088 0.995137
vt 0.542353 0.970938
vt 0.542353 0.965938
vt 0.498221 0.998262
vt 0.498221 0.995137
vt 0.586486 0.970938
vt 0.586486 0.965938
vt 0.542353 0.998262
vt 0.542353 0.995137
vt 0.586486 0.995137
vt 0.586486 0.998262
vt 0.429516 0.293475
vt 0.429516 0.483608
vt 0.461886 0.293475
vt 0.461886 0.483608
vt 0.494255 0.293475
vt 0.494255 0.483608
vt 0.526625 0.293475
vt 0.526625 0.483608
vt 0.558994 0.293475
vt 0.558994 0.483608
vt 0.666232 0.590478
vt 0.744230 0.590478
vt 0.666232 0.578347
vt 0.744230 0.578347
vt 0.666232 0.566214
vt 0.744230 0.566215
vt 0.666232 0.554083
vt 0.744230 0.554083
vt 0.666232 0.541951
vt 0.744230 0.541951
vt 0.409955 0.965938
vt 0.454088 0.965938
vt 0.454088 0.970938
vt 0.409955 0.970938
vt 0.409955 0.998262
vt 0.409955 0.995137
vt 0.498221 0.965938
vt 0.498221 0.970938
vt 0.454088 0.998262
vt 0.454088 0.995137
vt 0.542353 0.965938
vt 0.542353 0.970938
vt 0.498221 0.998262
vt 0.498221 0.995137
vt 0.586486 0.965938
vt 0.586486 0.970938
vt 0.542353 0.998262
vt 0.542353 0.995137
vt 0.586486 0.995137
vt 0.586486 0.998262
vt 0.549234 0.541951
vt 0.430070 0.541951
vt 0.549234 0.554083
vt 0.430070 0.554083
vt 0.549234 0.566215
vt 0.430070 0.566215
vt 0.549234 0.578347
vt 0.430070 0.578347
vt 0.549234 0.590478
vt 0.430070 0.590478
vt 0.430070 0.541951
vt 0.549234 0.541951
vt 0.430070 0.554083
vt 0.549234 0.554083
vt 0.430070 0.566215
vt 0.549234 0.566215
vt 0.430070 0.578347
vt 0.549234 0.578347
vt 0.430070 0.590478
vt 0.549234 0.590478
vt 0.310906 0.590478
vt 0.310906 0.578347
vt 0.310906 0.566215
vt 0.310906 0.554083
vt 0.310906 0.541951
vt 0.429516 0.293475
vt 0.429516 0.483608
vt 0.397147 0.483608
vt 0.397147 0.293475
vt 0.461886 0.293475
vt 0.461886 0.483608
vt 0.494255 0.293475
vt 0.494255 0.483608
vt 0.526625 0.293475
vt 0.526625 0.483608
vt 0.558994 0.293475
vt 0.558994 0.483608
vt 0.591364 0.293475
vt 0.591363 0.483608
vt 0.666232 0.590478
vt 0.744230 0.590478
vt 0.744230 0.602610
vt 0.666232 0.602610
vt 0.666232 0.578347
vt 0.744230 0.578347
vt 0.666232 0.566214
vt 0.744230 0.566215
vt 0.666232 0.554083
vt 0.744230 0.554083
vt 0.666232 0.541951
vt 0.744230 0.541951
vt 0.666232 0.529819
vt 0.744230 0.529819
vt 0.409955 0.965938
vt 0.454088 0.965938
vt 0.454088 0.970938
vt 0.409955 0.970938
vt 0.409955 0.998262
vt 0.365822 0.998262
vt 0.365822 0.995137
vt 0.409955 0.995137
vt 0.498221 0.965938
vt 0.498221 0.970938
vt 0.454088 0.998262
vt 0.454088 0.995137
vt 0.542353 0.965938
vt 0.542353 0.970938
vt 0.498221 0.998262
vt 0.498221 0.995137
vt 0.586486 0.965938
vt 0.586486 0.970938
vt 0.542353 0.998262
vt 0.542353 0.995137
vt 0.586486 0.995137
vt 0.630619 0.970938
vt 0.630619 0.995137
vt 0.365822 0.970938
vt 0.365822 0.965938
vt 0.630619 0.998262
vt 0.586486 0.998262
vt 0.630619 0.965938
vt 0.429516 0.293475
vt 0.397147 0.293475
vt 0.397147 0.483608
vt 0.429516 0.483608
vt 0.461886 0.293475
vt 0.461886 0.483608
vt 0.494255 0.293475
vt 0.494255 0.483608
vt 0.526625 0.293475
vt 0.526625 0.483608
vt 0.558994 0.293475
vt 0.558994 0.483608
vt 0.591364 0.293475
vt 0.591363 0.483608
vt 0.666232 0.590478
vt 0.666232 0.602610
vt 0.744230 0.602610
vt 0.744230 0.590478
vt 0.666232 0.578347
vt 0.744230 0.578347
vt 0.666232 0.566214
vt 0.744230 0.566215
vt 0.666232 0.554083
vt 0.744230 0.554083
vt 0.666232 0.541951
vt 0.744230 0.541951
vt 0.666232 0.529819
vt 0.744230 0.529819
vt 0.409955 0.965938
vt 0.409955 0.970938
vt 0.454088 0.970938
vt 0.454088 0.965938
vt 0.409955 0.998262
vt 0.409955 0.995137
vt 0.365822 0.995137
vt 0.365822 0.998262
vt 0.498221 0.970938
vt 0.498221 0.965938
vt 0.454088 0.998262
vt 0.454088 0.995137
vt 0.542353 0.970938
vt 0.542353 0.965938
vt 0.498221 0.998262
vt 0.498221 0.995137
vt 0.586486 0.970938
vt 0.586486 0.965938
vt 0.542353 0.998262
vt 0.542353 0.995137
vt 0.586486 0.995137
vt 0.630619 0.995137
vt 0.630619 0.970938
vt 0.365822 0.970938
vt 0.365822 0.965938
vt 0.630619 0.998262
vt 0.586486 0.998262
vt 0.630619 0.965938
vt 0.430070 0.529819
vt 0.430070 0.541951
vt 0.549234 0.541951
vt 0.549234 0.529819
vt 0.430070 0.554083
vt 0.549234 0.554083
vt 0.430070 0.566215
vt 0.549234 0.566215
vt 0.430070 0.578347
vt 0.549234 0.578347
vt 0.430070 0.590478
vt 0.549234 0.590478
vt 0.430070 0.602611
vt 0.549234 0.602611
vt 0.430070 0.529819
vt 0.549234 0.529819
vt 0.549234 0.541951
vt 0.430070 0.541951
vt 0.549234 0.554083
vt 0.430070 0.554083
vt 0.549234 0.566215
vt 0.430070 0.566215
vt 0.549234 0.578347
vt 0.430070 0.578347
vt 0.549234 0.590478
vt 0.430070 0.590478
vt 0.549234 0.602611
vt 0.430070 0.602611
vt 0.310906 0.590478
vt 0.310906 0.602611
vt 0.310906 0.578347
vt 0.310906 0.566215
vt 0.310906 0.554083
vt 0.310906 0.541951
vt 0.310906 0.529819
vt 0.429516 0.293475
vt 0.429516 0.483608
vt 0.461886 0.293475
vt 0.461886 0.483608
vt 0.494255 0.293475
vt 0.494255 0.483608
vt 0.526625 0.293475
vt 0.526625 0.483608
vt 0.558994 0.293475
vt 0.558994 0.483608
vt 0.666232 0.590478
vt 0.744230 0.590478
vt 0.666232 0.578347
vt 0.744230 0.578347
vt 0.666232 0.566214
vt 0.744230 0.566215
vt 0.666232 0.554083
vt 0.744230 0.554083
vt 0.666232 0.541951
vt 0.744230 0.541951
vt 0.409955 0.965938
vt 0.409955 0.970938
vt 0.454088 0.970938
vt 0.454088 0.965938
vt 0.409955 0.998262
vt 0.409955 0.995137
vt 0.498221 0.970938
vt 0.498221 0.965938
vt 0.454088 0.998262
vt 0.454088 0.995137
vt 0.542353 0.970938
vt 0.542353 0.965938
vt 0.498221 0.998262
vt 0.498221 0.995137
vt 0.586486 0.970938
vt 0.586486 0.965938
vt 0.542353 0.998262
vt 0.542353 0.995137
vt 0.586486 0.995137
vt 0.586486 0.998262
vt 0.429516 0.293475
vt 0.429516 0.483608
vt 0.461886 0.293475
vt 0.461886 0.483608
vt 0.494255 0.293475
vt 0.494255 0.483608
vt 0.526625 0.293475
vt 0.526625 0.483608
vt 0.558994 0.293475
vt 0.558994 0.483608
vt 0.666232 0.590478
vt 0.744230 0.590478
vt 0.666232 0.578347
vt 0.744230 0.578347
vt 0.666232 0.566214
vt 0.744230 0.566215
vt 0.666232 0.554083
vt 0.744230 0.554083
vt 0.666232 0.541951
vt 0.744230 0.541951
vt 0.409955 0.965938
vt 0.454088 0.965938
vt 0.454088 0.970938
vt 0.409955 0.970938
vt 0.409955 0.998262
vt 0.409955 0.995137
vt 0.498221 0.965938
vt 0.498221 0.970938
vt 0.454088 0.998262
vt 0.454088 0.995137
vt 0.542353 0.965938
vt 0.542353 0.970938
vt 0.498221 0.998262
vt 0.498221 0.995137
vt 0.586486 0.965938
vt 0.586486 0.970938
vt 0.542353 0.998262
vt 0.542353 0.995137
vt 0.586486 0.995137
vt 0.586486 0.998262
vt 0.549234 0.541951
vt 0.430070 0.541951
vt 0.549234 0.554083
vt 0.430070 0.554083
vt 0.549234 0.566215
vt 0.430070 0.566215
vt 0.549234 0.578347
vt 0.430070 0.578347
vt 0.549234 0.590478
vt 0.430070 0.590478
vt 0.430070 0.541951
vt 0.549234 0.541951
vt 0.430070 0.554083
vt 0.549234 0.554083
vt 0.430070 0.566215
vt 0.549234 0.566215
vt 0.430070 0.578347
vt 0.549234 0.578347
vt 0.430070 0.590478
vt 0.549234 0.590478
vt 0.310906 0.590478
vt 0.310906 0.578347
vt 0.310906 0.566215
vt 0.310906 0.554083
vt 0.310906 0.541951
vt 0.482952 0.373767
vt 0.495506 0.373767
vt 0.495177 0.412402
vt 0.482638 0.411781
vt 0.508294 0.373767
vt 0.507720 0.412930
vt 0.521248 0.373767
vt 0.520271 0.413218
vt 0.534135 0.373767
vt 0.532826 0.413218
vt 0.546719 0.373767
vt 0.545379 0.413010
vt 0.558936 0.373767
vt 0.557931 0.412773
vt 0.406974 0.373767
vt 0.419426 0.373767
vt 0.419884 0.410837
vt 0.407340 0.411343
vt 0.431997 0.373767
vt 0.432437 0.410642
vt 0.444868 0.373767
vt 0.444992 0.410707
vt 0.457801 0.373767
vt 0.457545 0.410895
vt 0.470473 0.373767
vt 0.470095 0.411242
vt 0.470095 0.415194
vt 0.482638 0.414655
vt 0.482953 0.452669
vt 0.470473 0.452669
vt 0.457545 0.415541
vt 0.457801 0.452669
vt 0.444992 0.415729
vt 0.444869 0.452669
vt 0.432438 0.415794
vt 0.431998 0.452669
vt 0.419884 0.415599
vt 0.419426 0.452669
vt 0.407340 0.415093
vt 0.406974 0.452669
vt 0.545380 0.413427
vt 0.557932 0.413663
vt 0.558936 0.452669
vt 0.546720 0.452669
vt 0.532827 0.413218
vt 0.534136 0.452669
vt 0.520272 0.413218
vt 0.521249 0.452669
vt 0.507721 0.413506
vt 0.508295 0.452669
vt 0.495177 0.414034
vt 0.495506 0.452669
vt 0.625000 0.500000
vt 0.875000 0.500000
vt 0.875000 0.750000
vt 0.625000 0.750000
vt 0.625000 0.500000
vt 0.625000 0.750000
vt 0.875000 0.750000
vt 0.875000 0.500000
vt 0.625000 0.500000
vt 0.625000 0.750000
vt 0.875000 0.750000
vt 0.875000 0.500000
vt 0.625000 0.500000
vt 0.875000 0.500000
vt 0.875000 0.750000
vt 0.625000 0.750000
vt 0.558140 0.281270
vt 0.655196 0.281270
vt 0.655196 0.222317
vt 0.558140 0.222317
vt 0.558140 0.311098
vt 0.655196 0.311098
vt 0.558140 0.281270
vt 0.558140 0.222317
vt 0.558140 0.311098
vt 0.364028 0.311098
vt 0.461084 0.311098
vt 0.461084 0.281270
vt 0.364028 0.281270
vt 0.461084 0.222317
vt 0.364028 0.222317
vt 0.364005 0.311098
vt 0.364005 0.281270
vt 0.461084 0.281270
vt 0.461084 0.311098
vt 0.364005 0.222317
vt 0.461084 0.222317
vt 0.266972 0.281270
vt 0.266972 0.222317
vt 0.266972 0.311098
vt 0.266972 0.281270
vt 0.266972 0.222317
vt 0.266972 0.311098
vt 0.558140 0.281270
vt 0.558140 0.222317
vt 0.655196 0.222317
vt 0.655196 0.281270
vt 0.558140 0.311098
vt 0.655196 0.311098
vt 0.558140 0.281270
vt 0.558140 0.222317
vt 0.558140 0.311098
vt 0.364028 0.311098
vt 0.364028 0.281270
vt 0.461084 0.281270
vt 0.461084 0.311098
vt 0.364028 0.222317
vt 0.461084 0.222317
vt 0.364005 0.311098
vt 0.461084 0.311098
vt 0.461084 0.281270
vt 0.364005 0.281270
vt 0.461084 0.222317
vt 0.364005 0.222317
vt 0.266972 0.281270
vt 0.266972 0.222317
vt 0.266972 0.311098
vt 0.375000 0.000000
vt 0.375000 0.250000
vt 0.563603 0.250000
vt 0.563603 0.000000
vt 0.376561 0.454135
vt 0.302061 0.454135
vt 0.302061 0.539136
vt 0.393287 0.555025
vt 0.393287 0.518834
vt 0.393287 0.470861
vt 0.393287 0.566806
vt 0.467788 0.566806
vt 0.484514 0.550080
vt 0.484514 0.502108
vt 0.484514 0.465916
vt 0.393287 0.481806
vt 0.397393 0.993373
vt 0.397393 0.935918
vt 0.331347 0.935918
vt 0.331347 0.993373
vt 0.617622 0.500000
vt 0.617622 0.750000
vt 0.875000 0.750000
vt 0.875000 0.500000
vt 0.528106 0.935918
vt 0.484939 0.935918
vt 0.484939 0.993373
vt 0.528106 0.993372
vt 0.664063 0.993372
vt 0.664063 0.935918
vt 0.375000 0.000000
vt 0.563603 0.000000
vt 0.563603 0.250000
vt 0.375000 0.250000
vt 0.376561 0.454135
vt 0.393287 0.470861
vt 0.393287 0.518834
vt 0.393287 0.555025
vt 0.302061 0.539136
vt 0.302061 0.454135
vt 0.393287 0.566806
vt 0.393287 0.481806
vt 0.484514 0.465916
vt 0.484514 0.502108
vt 0.484514 0.550080
vt 0.467788 0.566806
vt 0.397393 0.993373
vt 0.331347 0.993373
vt 0.331347 0.935918
vt 0.397393 0.935918
vt 0.617622 0.500000
vt 0.875000 0.500000
vt 0.875000 0.750000
vt 0.617622 0.750000
vt 0.528106 0.935918
vt 0.528106 0.993372
vt 0.484939 0.993373
vt 0.484939 0.935918
vt 0.664063 0.993372
vt 0.664063 0.935918
vn 0.0000 -0.7868 0.6172
vn 0.0000 -0.8499 0.5270
vn 0.0000 0.8557 0.5175
vn 0.6172 -0.7868 0.0000
vn 0.5270 -0.8499 0.0000
vn 0.5175 0.8557 0.0000
vn -0.0000 -1.0000 0.0000
vn 0.5000 -0.8660 0.0000
vn 0.8660 -0.5000 0.0000
vn 1.0000 0.0000 0.0000
vn 0.8660 0.5000 0.0000
vn 0.5000 0.8660 0.0000
vn -0.0000 1.0000 0.0000
vn -0.0000 -0.5727 0.8198
vn 0.2863 -0.4960 0.8198
vn 0.4959 -0.2863 0.8198
vn 0.5727 -0.0000 0.8198
vn 0.4960 0.2863 0.8198
vn 0.2863 0.4960 0.8198
vn 0.2864 0.4960 0.8198
vn -0.0000 0.5727 0.8198
vn -0.0000 -0.5727 -0.8198
vn 0.2863 -0.4959 -0.8198
vn 0.4959 -0.2863 -0.8198
vn 0.5727 0.0000 -0.8198
vn 0.4959 0.2863 -0.8198
vn 0.2863 0.4959 -0.8198
vn -0.0000 0.5727 -0.8198
vn -0.5000 -0.8660 0.0000
vn -0.8660 -0.5000 0.0000
vn -1.0000 0.0000 0.0000
vn -0.8660 0.5000 0.0000
vn -0.5000 0.8660 0.0000
vn -0.2863 -0.4960 0.8198
vn -0.4960 -0.2863 0.8198
vn -0.5727 0.0000 0.8198
vn -0.4960 0.2863 0.8198
vn -0.2863 0.4960 0.8198
vn -0.2864 0.4960 0.8198
vn -0.2863 -0.4959 -0.8198
vn -0.4959 -0.2863 -0.8198
vn -0.5727 -0.0000 -0.8198
vn -0.4959 0.2863 -0.8198
vn -0.2863 0.4959 -0.8198
vn 0.0000 -0.8660 0.5000
vn 0.0000 -0.5000 0.8660
vn 0.0000 0.0000 1.0000
vn 0.0000 0.5000 0.8660
vn 0.0000 0.8660 0.5000
vn -0.8198 -0.5727 0.0000
vn -0.8198 -0.4960 0.2863
vn -0.8198 -0.2863 0.4959
vn -0.8198 0.0000 0.5727
vn -0.8198 0.2863 0.4959
vn -0.8198 0.4960 0.2863
vn -0.8198 0.5727 -0.0000
vn 0.8198 -0.5727 -0.0000
vn 0.8198 -0.4960 0.2863
vn 0.8198 -0.2863 0.4959
vn 0.8198 0.0000 0.5727
vn 0.8198 0.2863 0.4959
vn 0.8198 0.4960 0.2863
vn 0.8198 0.5727 -0.0000
vn 0.0000 -0.8660 -0.5000
vn 0.0000 -0.5000 -0.8660
vn 0.0000 0.0000 -1.0000
vn 0.0000 0.5000 -0.8660
vn 0.0000 0.8660 -0.5000
vn -0.8198 -0.4960 -0.2863
vn -0.8198 -0.4959 -0.2863
vn -0.8198 -0.2863 -0.4960
vn -0.8198 0.0000 -0.5727
vn -0.8198 0.2863 -0.4960
vn -0.8198 0.4960 -0.2863
vn -0.8198 0.4959 -0.2863
vn 0.8198 -0.4959 -0.2863
vn 0.8198 -0.2863 -0.4959
vn 0.8198 -0.0000 -0.5727
vn 0.8198 0.2863 -0.4959
vn 0.8198 0.4959 -0.2863
vn 0.5007 0.8655 0.0134
vn -0.0058 1.0000 0.0053
vn 0.8680 0.4965 0.0127
vn 0.9999 0.0013 0.0126
vn 0.8681 -0.4960 0.0196
vn 0.4983 -0.8667 0.0224
vn -0.0092 -0.9999 0.0129
vn 0.2899 -0.5021 -0.8148
vn 0.5021 -0.2899 -0.8148
vn 0.2899 -0.5021 0.8148
vn -0.0000 -0.5797 0.8148
vn 0.5797 -0.0000 -0.8148
vn 0.5021 -0.2899 0.8148
vn 0.5021 0.2899 -0.8148
vn 0.5797 -0.0000 0.8148
vn 0.2899 0.5021 -0.8148
vn 0.5021 0.2899 0.8148
vn -0.0000 -0.5797 -0.8148
vn -0.0000 0.5797 0.8148
vn 0.2899 0.5021 0.8148
vn 0.0000 0.5797 -0.8148
vn 0.2899 -0.5020 0.8148
vn 0.5020 -0.2899 0.8148
vn 0.2899 -0.5020 -0.8148
vn 0.5020 -0.2899 -0.8148
vn 0.5020 0.2899 0.8148
vn 0.2899 0.5020 0.8148
vn 0.5020 0.2899 -0.8148
vn 0.2899 0.5020 -0.8148
vn -0.5074 0.8617 -0.0077
vn -0.8688 0.4948 -0.0183
vn -0.9998 0.0004 -0.0216
vn -0.8695 -0.4936 -0.0159
vn -0.5096 -0.8604 -0.0027
vn -0.2899 -0.5021 -0.8148
vn -0.5020 -0.2899 -0.8148
vn -0.2899 -0.5021 0.8148
vn -0.5797 -0.0000 -0.8148
vn -0.5020 -0.2899 0.8148
vn -0.5021 0.2899 -0.8148
vn -0.5797 -0.0000 0.8148
vn -0.2899 0.5021 -0.8148
vn -0.5021 0.2899 0.8148
vn -0.2899 0.5021 0.8148
vn -0.2899 -0.5020 0.8148
vn -0.2899 -0.5020 -0.8148
vn -0.5020 0.2899 0.8148
vn -0.2899 0.5020 0.8148
vn -0.5020 0.2899 -0.8148
vn -0.2899 0.5020 -0.8148
vn 0.8148 -0.5021 0.2899
vn 0.8148 -0.2899 0.5021
vn -0.8148 -0.5021 0.2899
vn -0.8148 -0.5797 -0.0000
vn 0.8148 0.0000 0.5797
vn -0.8148 -0.2899 0.5021
vn 0.8148 0.2899 0.5021
vn -0.8148 -0.0000 0.5797
vn 0.8148 0.5021 0.2899
vn -0.8148 0.2899 0.5021
vn 0.8148 -0.5797 -0.0000
vn -0.8148 0.5797 -0.0000
vn -0.8148 0.5021 0.2899
vn 0.8148 0.5797 -0.0000
vn 0.0053 1.0000 -0.0058
vn 0.0134 0.8655 0.5007
vn 0.0127 0.4965 0.8680
vn 0.0126 0.0013 0.9999
vn 0.0196 -0.4960 0.8681
vn 0.0224 -0.8667 0.4983
vn 0.0129 -0.9999 -0.0092
vn -0.8148 -0.5020 0.2898
vn -0.8148 -0.2898 0.5020
vn 0.8148 -0.5020 0.2899
vn 0.8148 -0.2898 0.5020
vn -0.8148 0.2899 0.5020
vn -0.8148 0.5020 0.2898
vn 0.8148 0.2898 0.5020
vn 0.8148 0.5020 0.2898
vn 0.8148 -0.5020 -0.2899
vn 0.8148 -0.2899 -0.5020
vn -0.8148 -0.5021 -0.2899
vn 0.8148 0.0000 -0.5797
vn -0.8148 -0.2899 -0.5020
vn 0.8148 0.2899 -0.5020
vn -0.8148 0.0000 -0.5797
vn 0.8148 0.5020 -0.2899
vn -0.8148 0.2899 -0.5020
vn -0.8148 0.5021 -0.2899
vn -0.0077 0.8617 -0.5074
vn -0.0183 0.4948 -0.8688
vn -0.0216 0.0004 -0.9998
vn -0.0159 -0.4936 -0.8695
vn -0.0027 -0.8604 -0.5096
vn 0.8148 -0.2899 -0.5021
vn -0.8148 0.2899 -0.5021
vn 0.8148 0.2899 -0.5021
vn 0.8148 0.2898 -0.5021
vn -0.0631 0.9960 -0.0631
vn -0.3432 0.8743 -0.3432
vn -0.9035 0.4269 -0.0387
vn -0.9991 -0.0007 -0.0432
vn -0.9034 -0.4274 -0.0344
vn -0.3408 -0.8762 -0.3408
vn -0.0595 -0.9965 -0.0595
vn 0.2280 -0.9466 0.2280
vn 0.8330 -0.5517 0.0414
vn 0.9997 -0.0032 0.0252
vn 0.8380 0.5450 0.0264
vn 0.2247 0.9482 0.2247
vn 0.0264 0.5450 0.8380
vn 0.0252 -0.0031 0.9997
vn 0.0414 -0.5517 0.8330
vn -0.0343 -0.4274 -0.9034
vn -0.0432 -0.0007 -0.9991
vn -0.0387 0.4269 -0.9035
vn -0.0000 0.6491 0.7607
vn 0.7607 0.6491 -0.0000
vn 0.0000 0.1386 0.9903
vn 0.0000 0.9895 -0.1448
vn 0.0000 -0.7071 0.7071
vn 0.0000 -0.5282 0.8491
vn 0.9903 0.1386 0.0000
vn -0.1448 0.9895 0.0000
vn 0.7071 -0.7071 0.0000
vn 0.8491 -0.5282 0.0000
usemtl MI_Trim_02
s 1
f 92/1/1 103/2/1 101/3/1 87/4/1
f 93/5/2 105/6/2 107/7/2 88/8/2
f 88/9/3 107/10/3 109/11/3 89/12/3
f 63/13/1 42/14/1 48/15/1 65/16/1
f 77/17/1 52/18/1 49/19/1 76/20/1
f 84/21/1 51/22/1 50/23/1 83/24/1
f 64/25/3 18/26/3 12/27/3 66/28/3
f 73/29/3 8/30/3 44/31/3 71/32/3
f 80/33/3 54/34/3 55/35/3 86/36/3
f 60/37/2 40/38/2 18/39/2 64/40/2
f 74/41/2 47/42/2 8/43/2 73/44/2
f 85/45/2 53/46/2 54/47/2 80/48/2
f 9/49/2 60/37/2 64/40/2 10/50/2
f 10/51/3 64/25/3 66/28/3 11/52/3
f 41/53/1 63/13/1 65/16/1 7/54/1
f 40/38/2 74/41/2 73/44/2 18/39/2
f 18/26/3 73/29/3 71/32/3 12/27/3
f 42/14/1 77/17/1 76/20/1 48/15/1
f 47/42/2 85/45/2 80/48/2 8/43/2
f 8/30/3 80/33/3 86/36/3 44/31/3
f 52/18/1 84/21/1 83/24/1 49/19/1
f 54/34/3 88/9/3 89/12/3 55/35/3
f 53/46/2 93/5/2 88/8/2 54/47/2
f 51/22/1 92/1/1 87/4/1 50/23/1
f 190/55/4 185/56/4 101/3/4 103/2/4
f 191/57/5 186/58/5 107/7/5 105/6/5
f 186/59/6 187/60/6 109/11/6 107/10/6
f 161/61/4 163/62/4 146/63/4 140/64/4
f 175/65/4 174/66/4 147/67/4 150/68/4
f 182/69/4 181/70/4 148/71/4 149/72/4
f 162/73/6 164/74/6 110/75/6 115/76/6
f 171/77/6 169/78/6 142/79/6 102/80/6
f 178/81/6 184/82/6 153/83/6 152/84/6
f 158/85/5 162/86/5 115/87/5 138/88/5
f 172/89/5 171/90/5 102/91/5 145/92/5
f 183/93/5 178/94/5 152/95/5 151/96/5
f 104/97/5 106/98/5 162/86/5 158/85/5
f 106/99/6 108/100/6 164/74/6 162/73/6
f 139/101/4 100/102/4 163/62/4 161/61/4
f 138/88/5 115/87/5 171/90/5 172/89/5
f 115/76/6 110/75/6 169/78/6 171/77/6
f 140/64/4 146/63/4 174/66/4 175/65/4
f 145/92/5 102/91/5 178/94/5 183/93/5
f 102/80/6 142/79/6 184/82/6 178/81/6
f 150/68/4 147/67/4 181/70/4 182/69/4
f 152/84/6 153/83/6 187/60/6 186/59/6
f 151/96/5 152/95/5 186/58/5 191/57/5
f 149/72/4 148/71/4 185/56/4 190/55/4
f 229/103/7 208/104/7 209/105/8 230/106/8
f 230/106/8 209/105/8 210/107/9 231/108/9
f 231/108/9 210/107/9 211/109/10 232/110/10
f 232/110/10 211/109/10 212/111/11 233/112/11
f 233/112/11 212/111/11 213/113/12 234/114/12
f 234/114/12 213/113/12 214/115/13 235/116/13
f 208/117/14 215/118/14 216/119/15 209/120/15
f 209/120/15 216/119/15 217/121/16 210/122/16
f 210/122/16 217/121/16 218/123/17 211/124/17
f 211/124/17 218/123/17 219/125/18 212/126/18
f 212/126/18 219/125/18 220/127/19 213/128/20
f 213/128/20 220/127/19 221/129/21 214/130/21
f 278/131/7 279/132/8 258/133/8 257/134/7
f 279/132/8 280/135/9 259/136/9 258/133/8
f 280/135/9 281/137/10 260/138/10 259/136/9
f 281/137/10 282/139/11 261/140/11 260/138/10
f 282/139/11 283/141/12 262/142/12 261/140/11
f 283/141/12 284/143/13 263/144/13 262/142/12
f 257/145/22 258/146/23 265/147/23 264/148/22
f 258/146/23 259/149/24 266/150/24 265/147/23
f 259/149/24 260/151/25 267/152/25 266/150/24
f 260/151/25 261/153/26 268/154/26 267/152/25
f 261/153/26 262/155/27 269/156/27 268/154/26
f 262/155/27 263/157/28 270/158/28 269/156/27
f 229/103/7 366/159/29 351/160/29 208/104/7
f 366/159/29 367/161/30 352/162/30 351/160/29
f 367/161/30 368/163/31 353/164/31 352/162/30
f 368/163/31 369/165/32 354/166/32 353/164/31
f 369/165/32 370/167/33 355/168/33 354/166/32
f 370/167/33 235/116/13 214/115/13 355/168/33
f 208/117/14 351/169/34 356/170/34 215/118/14
f 351/169/34 352/171/35 357/172/35 356/170/34
f 352/171/35 353/173/36 358/174/36 357/172/35
f 353/173/36 354/175/37 359/176/37 358/174/36
f 354/175/37 355/177/38 360/178/39 359/176/37
f 355/177/38 214/130/21 221/129/21 360/178/39
f 278/131/7 257/134/7 386/179/29 401/180/29
f 401/180/29 386/179/29 387/181/30 402/182/30
f 402/182/30 387/181/30 388/183/31 403/184/31
f 403/184/31 388/183/31 389/185/32 404/186/32
f 404/186/32 389/185/32 390/187/33 405/188/33
f 405/188/33 390/187/33 263/144/13 284/143/13
f 257/145/22 264/148/22 391/189/40 386/190/40
f 386/190/40 391/189/40 392/191/41 387/192/41
f 387/192/41 392/191/41 393/193/42 388/194/42
f 388/194/42 393/193/42 394/195/43 389/196/43
f 389/196/43 394/195/43 395/197/44 390/198/44
f 390/198/44 395/197/44 270/158/28 263/157/28
f 481/199/7 460/200/7 461/201/45 482/202/45
f 482/202/45 461/201/45 462/203/46 483/204/46
f 483/204/46 462/203/46 463/205/47 484/206/47
f 484/206/47 463/205/47 464/207/48 485/208/48
f 485/208/48 464/207/48 465/209/49 486/210/49
f 486/210/49 465/209/49 466/211/13 487/212/13
f 460/213/50 467/214/50 468/215/51 461/216/51
f 461/216/51 468/215/51 469/217/52 462/218/52
f 462/218/52 469/217/52 470/219/53 463/220/53
f 463/220/53 470/219/53 471/221/54 464/222/54
f 464/222/54 471/221/54 472/223/55 465/224/55
f 465/224/55 472/223/55 473/225/56 466/226/56
f 530/227/7 531/228/45 510/229/45 509/230/7
f 531/228/45 532/231/46 511/232/46 510/229/45
f 532/231/46 533/233/47 512/234/47 511/232/46
f 533/233/47 534/235/48 513/236/48 512/234/47
f 534/235/48 535/237/49 514/238/49 513/236/48
f 535/237/49 536/239/13 515/240/13 514/238/49
f 509/241/57 510/242/58 517/243/58 516/244/57
f 510/242/58 511/245/59 518/246/59 517/243/58
f 511/245/59 512/247/60 519/248/60 518/246/59
f 512/247/60 513/249/61 520/250/61 519/248/60
f 513/249/61 514/251/62 521/252/62 520/250/61
f 514/251/62 515/253/63 522/254/63 521/252/62
f 481/199/7 618/255/64 603/256/64 460/200/7
f 618/255/64 619/257/65 604/258/65 603/256/64
f 619/257/65 620/259/66 605/260/66 604/258/65
f 620/259/66 621/261/67 606/262/67 605/260/66
f 621/261/67 622/263/68 607/264/68 606/262/67
f 622/263/68 487/212/13 466/211/13 607/264/68
f 460/213/50 603/265/69 608/266/70 467/214/50
f 603/265/69 604/267/71 609/268/71 608/266/70
f 604/267/71 605/269/72 610/270/72 609/268/71
f 605/269/72 606/271/73 611/272/73 610/270/72
f 606/271/73 607/273/74 612/274/75 611/272/73
f 607/273/74 466/226/56 473/225/56 612/274/75
f 530/227/7 509/230/7 638/275/64 653/276/64
f 653/276/64 638/275/64 639/277/65 654/278/65
f 654/278/65 639/277/65 640/279/66 655/280/66
f 655/280/66 640/279/66 641/281/67 656/282/67
f 656/282/67 641/281/67 642/283/68 657/284/68
f 657/284/68 642/283/68 515/240/13 536/239/13
f 509/241/57 516/244/57 643/285/76 638/286/76
f 638/286/76 643/285/76 644/287/77 639/288/77
f 639/288/77 644/287/77 645/289/78 640/290/78
f 640/290/78 645/289/78 646/291/79 641/292/79
f 641/292/79 646/291/79 647/293/80 642/294/80
f 642/294/80 647/293/80 522/254/63 515/253/63
usemtl MI_Trim_01
f 66/295/47 12/296/47 13/297/47 61/298/47
f 77/299/47 42/300/47 43/301/47 75/302/47
f 89/303/47 90/304/47 17/305/47 55/306/47
f 82/307/47 16/308/47 51/309/47 84/310/47
f 91/311/47 92/312/47 51/309/47 16/308/47
f 72/313/47 75/314/47 43/315/47 13/316/47
f 62/317/47 43/301/47 42/300/47 63/318/47
f 86/319/47 55/306/47 17/305/47 81/320/47
f 82/321/47 81/322/47 17/323/47 16/324/47
f 61/325/47 13/316/47 43/315/47 62/326/47
f 90/327/47 91/328/47 16/324/47 17/323/47
f 71/329/47 72/330/47 13/297/47 12/296/47
f 14/331/47 61/325/47 62/326/47 39/332/47
f 39/333/47 62/317/47 63/318/47 41/334/47
f 11/335/47 66/295/47 61/298/47 14/336/47
f 44/337/47 45/338/47 72/330/47 71/329/47
f 45/339/47 46/340/47 75/314/47 72/313/47
f 52/341/47 77/299/47 75/302/47 46/342/47
f 46/340/47 45/339/47 81/322/47 82/321/47
f 44/337/47 86/319/47 81/320/47 45/338/47
f 46/342/47 82/307/47 84/310/47 52/341/47
f 116/343/47 15/344/47 91/328/47 90/327/47
f 15/345/47 103/346/47 92/312/47 91/311/47
f 109/347/47 116/348/47 90/304/47 89/303/47
f 164/349/10 159/350/10 111/351/10 110/352/10
f 175/353/10 173/354/10 141/355/10 140/356/10
f 187/357/10 153/358/10 114/359/10 188/360/10
f 180/361/10 182/362/10 149/363/10 113/364/10
f 189/365/10 113/364/10 149/363/10 190/366/10
f 170/367/10 111/368/10 141/369/10 173/370/10
f 160/371/10 161/372/10 140/356/10 141/355/10
f 184/373/10 179/374/10 114/359/10 153/358/10
f 180/375/10 113/376/10 114/377/10 179/378/10
f 159/379/10 160/380/10 141/369/10 111/368/10
f 188/381/10 114/377/10 113/376/10 189/382/10
f 169/383/10 110/352/10 111/351/10 170/384/10
f 112/385/10 137/386/10 160/380/10 159/379/10
f 137/387/10 139/388/10 161/372/10 160/371/10
f 108/389/10 112/390/10 159/350/10 164/349/10
f 142/391/10 169/383/10 170/384/10 143/392/10
f 143/393/10 170/367/10 173/370/10 144/394/10
f 150/395/10 144/396/10 173/354/10 175/353/10
f 144/394/10 180/375/10 179/378/10 143/393/10
f 142/391/10 143/392/10 179/374/10 184/373/10
f 144/396/10 150/395/10 182/362/10 180/361/10
f 116/343/10 188/381/10 189/382/10 15/344/10
f 15/345/10 189/365/10 190/366/10 103/346/10
f 109/347/10 187/357/10 188/360/10 116/348/10
f 220/397/12 206/398/81 207/399/82 221/400/13
f 219/401/11 205/402/83 206/398/81 220/397/12
f 218/403/10 204/404/84 205/402/83 219/401/11
f 217/405/9 203/406/85 204/404/84 218/403/10
f 216/407/8 202/408/86 203/406/85 217/405/9
f 215/409/7 201/410/87 202/408/86 216/407/8
f 325/411/12 227/412/12 228/413/13 326/414/13
f 324/415/11 226/416/11 227/412/12 325/411/12
f 323/417/10 225/418/10 226/416/11 324/415/11
f 322/419/9 224/420/9 225/418/10 323/417/10
f 321/421/8 223/422/8 224/420/9 322/419/9
f 320/423/7 222/424/7 223/422/8 321/421/8
f 230/425/88 231/426/89 240/427/89 238/428/88
f 223/429/90 222/430/91 237/431/91 239/432/90
f 231/426/89 232/433/92 242/434/92 240/427/89
f 224/435/93 223/429/90 239/432/90 241/436/93
f 232/433/92 233/437/94 244/438/94 242/434/92
f 225/439/95 224/435/93 241/436/93 243/440/95
f 233/437/94 234/441/96 246/442/96 244/438/94
f 226/443/97 225/439/95 243/440/95 245/444/97
f 247/445/12 246/442/12 248/446/13 249/447/13
f 245/444/11 244/438/11 246/442/12 247/445/12
f 243/440/10 242/434/10 244/438/11 245/444/11
f 241/436/9 240/427/9 242/434/10 243/440/10
f 239/432/8 238/428/8 240/427/9 241/436/9
f 237/431/7 236/448/7 238/428/8 239/432/8
f 229/449/98 230/425/88 238/428/88 236/448/98
f 228/450/99 227/451/100 247/445/100 249/447/99
f 227/451/100 226/443/97 245/444/97 247/445/100
f 234/441/96 235/452/101 248/446/101 246/442/96
f 269/453/12 270/454/13 256/455/13 255/456/12
f 268/457/11 269/453/12 255/456/12 254/458/11
f 267/459/10 268/457/11 254/458/11 253/460/10
f 266/461/9 267/459/10 253/460/10 252/462/9
f 265/463/8 266/461/9 252/462/9 251/464/8
f 264/465/7 265/463/8 251/464/8 250/466/7
f 339/467/12 340/468/13 277/469/13 276/470/12
f 338/471/11 339/467/12 276/470/12 275/472/11
f 337/473/10 338/471/11 275/472/11 274/474/10
f 336/475/9 337/473/10 274/474/10 273/476/9
f 335/477/8 336/475/9 273/476/9 272/478/8
f 334/479/7 335/477/8 272/478/8 271/480/7
f 279/481/102 287/482/102 289/483/103 280/484/103
f 272/485/104 288/486/104 286/487/98 271/488/98
f 280/484/103 289/483/103 291/489/95 281/490/95
f 273/491/105 290/492/105 288/486/104 272/485/104
f 281/490/95 291/489/95 293/493/106 282/494/106
f 274/495/92 292/496/92 290/492/105 273/491/105
f 282/494/106 293/493/106 295/497/107 283/498/107
f 275/499/108 294/500/108 292/496/92 274/495/92
f 296/501/12 298/502/13 297/503/13 295/497/12
f 294/500/11 296/501/12 295/497/12 293/493/11
f 292/496/10 294/500/11 293/493/11 291/489/10
f 290/492/9 292/496/10 291/489/10 289/483/9
f 288/486/8 290/492/9 289/483/9 287/482/8
f 286/487/7 288/486/8 287/482/8 285/504/7
f 278/505/91 285/504/91 287/482/102 279/481/102
f 277/506/101 298/502/101 296/501/109 276/507/109
f 276/507/109 296/501/109 294/500/108 275/499/108
f 283/498/107 295/497/107 297/503/99 284/508/99
f 327/509/7 328/510/8 300/511/8 299/512/7
f 328/510/8 329/513/9 301/514/9 300/511/8
f 329/513/9 330/515/10 302/516/10 301/514/9
f 330/515/10 331/517/11 303/518/11 302/516/10
f 331/517/11 332/519/12 304/520/12 303/518/11
f 332/519/12 333/521/13 305/522/13 304/520/12
f 313/523/7 306/524/7 307/525/8 314/526/8
f 314/526/8 307/525/8 308/527/9 315/528/9
f 315/528/9 308/527/9 309/529/10 316/530/10
f 316/530/10 309/529/10 310/531/11 317/532/11
f 317/532/11 310/531/11 311/533/12 318/534/12
f 318/534/12 311/533/12 312/535/13 319/536/13
f 199/537/12 318/534/12 319/536/13 200/538/13
f 198/539/11 317/532/11 318/534/12 199/537/12
f 197/540/10 316/530/10 317/532/11 198/539/11
f 196/541/9 315/528/9 316/530/10 197/540/10
f 195/542/8 314/526/8 315/528/9 196/541/9
f 194/543/7 313/523/7 314/526/8 195/542/8
f 306/524/7 320/423/7 321/421/8 307/525/8
f 307/525/8 321/421/8 322/419/9 308/527/9
f 308/527/9 322/419/9 323/417/10 309/529/10
f 309/529/10 323/417/10 324/415/11 310/531/11
f 310/531/11 324/415/11 325/411/12 311/533/12
f 311/533/12 325/411/12 326/414/13 312/535/13
f 199/537/12 200/538/13 333/521/13 332/519/12
f 198/539/11 199/537/12 332/519/12 331/517/11
f 197/540/10 198/539/11 331/517/11 330/515/10
f 196/541/9 197/540/10 330/515/10 329/513/9
f 195/542/8 196/541/9 329/513/9 328/510/8
f 194/543/7 195/542/8 328/510/8 327/509/7
f 299/512/7 300/511/8 335/477/8 334/479/7
f 300/511/8 301/514/9 336/475/9 335/477/8
f 301/514/9 302/516/10 337/473/10 336/475/9
f 302/516/10 303/518/11 338/471/11 337/473/10
f 303/518/11 304/520/12 339/467/12 338/471/11
f 304/520/12 305/522/13 340/468/13 339/467/12
f 360/544/33 221/400/13 207/399/82 350/545/110
f 359/546/32 360/544/33 350/545/110 349/547/111
f 358/548/31 359/546/32 349/547/111 348/549/112
f 357/550/30 358/548/31 348/549/112 347/551/113
f 356/552/29 357/550/30 347/551/113 346/553/114
f 215/409/7 356/552/29 346/553/114 201/410/87
f 435/554/33 326/414/13 228/413/13 365/555/33
f 434/556/32 435/554/33 365/555/33 364/557/32
f 433/558/31 434/556/32 364/557/32 363/559/31
f 432/560/30 433/558/31 363/559/31 362/561/30
f 431/562/29 432/560/30 362/561/30 361/563/29
f 320/423/7 431/562/29 361/563/29 222/424/7
f 366/564/115 371/565/115 373/566/116 367/567/116
f 361/568/117 372/569/117 237/431/91 222/430/91
f 367/567/116 373/566/116 375/570/118 368/571/118
f 362/572/119 374/573/119 372/569/117 361/568/117
f 368/571/118 375/570/118 377/574/120 369/575/120
f 363/576/121 376/577/121 374/573/119 362/572/119
f 369/575/120 377/574/120 379/578/122 370/579/122
f 364/580/123 378/581/123 376/577/121 363/576/121
f 380/582/33 249/447/13 248/446/13 379/578/33
f 378/581/32 380/582/33 379/578/33 377/574/32
f 376/577/31 378/581/32 377/574/32 375/570/31
f 374/573/30 376/577/31 375/570/31 373/566/30
f 372/569/29 374/573/30 373/566/30 371/565/29
f 237/431/7 372/569/29 371/565/29 236/448/7
f 229/449/98 236/448/98 371/565/115 366/564/115
f 228/450/99 249/447/99 380/582/124 365/583/124
f 365/583/124 380/582/124 378/581/123 364/580/123
f 370/579/122 379/578/122 248/446/101 235/452/101
f 395/584/33 385/585/33 256/455/13 270/454/13
f 394/586/32 384/587/32 385/585/33 395/584/33
f 393/588/31 383/589/31 384/587/32 394/586/32
f 392/590/30 382/591/30 383/589/31 393/588/31
f 391/592/29 381/593/29 382/591/30 392/590/30
f 264/465/7 250/466/7 381/593/29 391/592/29
f 445/594/33 400/595/33 277/469/13 340/468/13
f 444/596/32 399/597/32 400/595/33 445/594/33
f 443/598/31 398/599/31 399/597/32 444/596/32
f 442/600/30 397/601/30 398/599/31 443/598/31
f 441/602/29 396/603/29 397/601/30 442/600/30
f 334/479/7 271/480/7 396/603/29 441/602/29
f 401/604/125 402/605/119 408/606/119 406/607/125
f 396/608/126 271/488/98 286/487/98 407/609/126
f 402/605/119 403/610/121 410/611/121 408/606/119
f 397/612/116 396/608/126 407/609/126 409/613/116
f 403/610/121 404/614/127 412/615/127 410/611/121
f 398/616/118 397/612/116 409/613/116 411/617/118
f 404/614/127 405/618/128 414/619/128 412/615/127
f 399/620/129 398/616/118 411/617/118 413/621/129
f 415/622/33 414/619/33 297/503/13 298/502/13
f 413/621/32 412/615/32 414/619/33 415/622/33
f 411/617/31 410/611/31 412/615/32 413/621/32
f 409/613/30 408/606/30 410/611/31 411/617/31
f 407/609/29 406/607/29 408/606/30 409/613/30
f 286/487/7 285/504/7 406/607/29 407/609/29
f 278/505/91 401/604/125 406/607/125 285/504/91
f 277/506/101 400/623/130 415/622/130 298/502/101
f 400/623/130 399/620/129 413/621/129 415/622/130
f 405/618/128 284/508/99 297/503/99 414/619/128
f 327/509/7 299/512/7 416/624/29 436/625/29
f 436/625/29 416/624/29 417/626/30 437/627/30
f 437/627/30 417/626/30 418/628/31 438/629/31
f 438/629/31 418/628/31 419/630/32 439/631/32
f 439/631/32 419/630/32 420/632/33 440/633/33
f 440/633/33 420/632/33 305/522/13 333/521/13
f 313/523/7 426/634/29 421/635/29 306/524/7
f 426/634/29 427/636/30 422/637/30 421/635/29
f 427/636/30 428/638/31 423/639/31 422/637/30
f 428/638/31 429/640/32 424/641/32 423/639/31
f 429/640/32 430/642/33 425/643/33 424/641/32
f 430/642/33 319/536/13 312/535/13 425/643/33
f 345/644/33 200/538/13 319/536/13 430/642/33
f 344/645/32 345/644/33 430/642/33 429/640/32
f 343/646/31 344/645/32 429/640/32 428/638/31
f 342/647/30 343/646/31 428/638/31 427/636/30
f 341/648/29 342/647/30 427/636/30 426/634/29
f 194/543/7 341/648/29 426/634/29 313/523/7
f 306/524/7 421/635/29 431/562/29 320/423/7
f 421/635/29 422/637/30 432/560/30 431/562/29
f 422/637/30 423/639/31 433/558/31 432/560/30
f 423/639/31 424/641/32 434/556/32 433/558/31
f 424/641/32 425/643/33 435/554/33 434/556/32
f 425/643/33 312/535/13 326/414/13 435/554/33
f 345/644/33 440/633/33 333/521/13 200/538/13
f 344/645/32 439/631/32 440/633/33 345/644/33
f 343/646/31 438/629/31 439/631/32 344/645/32
f 342/647/30 437/627/30 438/629/31 343/646/31
f 341/648/29 436/625/29 437/627/30 342/647/30
f 194/543/7 327/509/7 436/625/29 341/648/29
f 299/512/7 334/479/7 441/602/29 416/624/29
f 416/624/29 441/602/29 442/600/30 417/626/30
f 417/626/30 442/600/30 443/598/31 418/628/31
f 418/628/31 443/598/31 444/596/32 419/630/32
f 419/630/32 444/596/32 445/594/33 420/632/33
f 420/632/33 445/594/33 340/468/13 305/522/13
f 472/649/49 458/650/49 459/651/13 473/652/13
f 471/653/48 457/654/48 458/650/49 472/649/49
f 470/655/47 456/656/47 457/654/48 471/653/48
f 469/657/46 455/658/46 456/656/47 470/655/47
f 468/659/45 454/660/45 455/658/46 469/657/46
f 467/661/7 453/662/7 454/660/45 468/659/45
f 577/663/49 479/664/49 480/665/13 578/666/13
f 576/667/48 478/668/48 479/664/49 577/663/49
f 575/669/47 477/670/47 478/668/48 576/667/48
f 574/671/46 476/672/46 477/670/47 575/669/47
f 573/673/45 475/674/45 476/672/46 574/671/46
f 572/675/7 474/676/7 475/674/45 573/673/45
f 482/677/131 483/678/132 492/679/132 490/680/131
f 475/681/133 474/682/134 489/683/134 491/684/133
f 483/678/132 484/685/135 494/686/135 492/679/132
f 476/687/136 475/681/133 491/684/133 493/688/136
f 484/685/135 485/689/137 496/690/137 494/686/135
f 477/691/138 476/687/136 493/688/136 495/692/138
f 485/689/137 486/693/139 498/694/139 496/690/137
f 478/695/140 477/691/138 495/692/138 497/696/140
f 499/697/49 498/694/49 500/698/13 501/699/13
f 497/696/48 496/690/48 498/694/49 499/697/49
f 495/692/47 494/686/47 496/690/48 497/696/48
f 493/688/46 492/679/46 494/686/47 495/692/47
f 491/684/45 490/680/45 492/679/46 493/688/46
f 489/683/7 488/700/7 490/680/45 491/684/45
f 481/701/141 482/677/131 490/680/131 488/700/141
f 480/702/142 479/703/143 499/697/143 501/699/142
f 479/703/143 478/695/140 497/696/140 499/697/143
f 486/693/139 487/704/144 500/698/144 498/694/139
f 521/705/49 522/706/13 508/707/145 507/708/146
f 520/709/48 521/705/49 507/708/146 506/710/147
f 519/711/47 520/709/48 506/710/147 505/712/148
f 518/713/46 519/711/47 505/712/148 504/714/149
f 517/715/45 518/713/46 504/714/149 503/716/150
f 516/717/7 517/715/45 503/716/150 502/718/151
f 591/719/49 592/720/13 529/721/13 528/722/49
f 590/723/48 591/719/49 528/722/49 527/724/48
f 589/725/47 590/723/48 527/724/48 526/726/47
f 588/727/46 589/725/47 526/726/47 525/728/46
f 587/729/45 588/727/46 525/728/46 524/730/45
f 586/731/7 587/729/45 524/730/45 523/732/7
f 531/733/152 539/734/152 541/735/153 532/736/153
f 524/737/154 540/738/154 538/739/141 523/740/141
f 532/736/153 541/735/153 543/741/138 533/742/138
f 525/743/155 542/744/155 540/738/154 524/737/154
f 533/742/138 543/741/138 545/745/156 534/746/156
f 526/747/135 544/748/135 542/744/155 525/743/155
f 534/746/156 545/745/156 547/749/157 535/750/157
f 527/751/158 546/752/158 544/748/135 526/747/135
f 548/753/49 550/754/13 549/755/13 547/749/49
f 546/752/48 548/753/49 547/749/49 545/745/48
f 544/748/47 546/752/48 545/745/48 543/741/47
f 542/744/46 544/748/47 543/741/47 541/735/46
f 540/738/45 542/744/46 541/735/46 539/734/45
f 538/739/7 540/738/45 539/734/45 537/756/7
f 530/757/134 537/756/134 539/734/152 531/733/152
f 529/758/144 550/754/144 548/753/159 528/759/159
f 528/759/159 548/753/159 546/752/158 527/751/158
f 535/750/157 547/749/157 549/755/142 536/760/142
f 579/761/7 580/762/45 552/763/45 551/764/7
f 580/762/45 581/765/46 553/766/46 552/763/45
f 581/765/46 582/767/47 554/768/47 553/766/46
f 582/767/47 583/769/48 555/770/48 554/768/47
f 583/769/48 584/771/49 556/772/49 555/770/48
f 584/771/49 585/773/13 557/774/13 556/772/49
f 565/775/7 558/776/7 559/777/45 566/778/45
f 566/778/45 559/777/45 560/779/46 567/780/46
f 567/780/46 560/779/46 561/781/47 568/782/47
f 568/782/47 561/781/47 562/783/48 569/784/48
f 569/784/48 562/783/48 563/785/49 570/786/49
f 570/786/49 563/785/49 564/787/13 571/788/13
f 451/789/49 570/786/49 571/788/13 452/790/13
f 450/791/48 569/784/48 570/786/49 451/789/49
f 449/792/47 568/782/47 569/784/48 450/791/48
f 448/793/46 567/780/46 568/782/47 449/792/47
f 447/794/45 566/778/45 567/780/46 448/793/46
f 446/795/7 565/775/7 566/778/45 447/794/45
f 558/776/7 572/675/7 573/673/45 559/777/45
f 559/777/45 573/673/45 574/671/46 560/779/46
f 560/779/46 574/671/46 575/669/47 561/781/47
f 561/781/47 575/669/47 576/667/48 562/783/48
f 562/783/48 576/667/48 577/663/49 563/785/49
f 563/785/49 577/663/49 578/666/13 564/787/13
f 451/789/49 452/790/13 585/773/13 584/771/49
f 450/791/48 451/789/49 584/771/49 583/769/48
f 449/792/47 450/791/48 583/769/48 582/767/47
f 448/793/46 449/792/47 582/767/47 581/765/46
f 447/794/45 448/793/46 581/765/46 580/762/45
f 446/795/7 447/794/45 580/762/45 579/761/7
f 551/764/7 552/763/45 587/729/45 586/731/7
f 552/763/45 553/766/46 588/727/46 587/729/45
f 553/766/46 554/768/47 589/725/47 588/727/46
f 554/768/47 555/770/48 590/723/48 589/725/47
f 555/770/48 556/772/49 591/719/49 590/723/48
f 556/772/49 557/774/13 592/720/13 591/719/49
f 612/796/68 473/652/13 459/651/13 602/797/68
f 611/798/67 612/796/68 602/797/68 601/799/67
f 610/800/66 611/798/67 601/799/67 600/801/66
f 609/802/65 610/800/66 600/801/66 599/803/65
f 608/804/64 609/802/65 599/803/65 598/805/64
f 467/661/7 608/804/64 598/805/64 453/662/7
f 687/806/68 578/666/13 480/665/13 617/807/68
f 686/808/67 687/806/68 617/807/68 616/809/67
f 685/810/66 686/808/67 616/809/67 615/811/66
f 684/812/65 685/810/66 615/811/66 614/813/65
f 683/814/64 684/812/65 614/813/65 613/815/64
f 572/675/7 683/814/64 613/815/64 474/676/7
f 618/816/160 623/817/160 625/818/161 619/819/161
f 613/820/162 624/821/162 489/683/134 474/682/134
f 619/819/161 625/818/161 627/822/163 620/823/163
f 614/824/164 626/825/164 624/821/162 613/820/162
f 620/823/163 627/822/163 629/826/165 621/827/165
f 615/828/166 628/829/166 626/825/164 614/824/164
f 621/827/165 629/826/165 631/830/167 622/831/167
f 616/832/168 630/833/168 628/829/166 615/828/166
f 632/834/68 501/699/13 500/698/13 631/830/68
f 630/833/67 632/834/68 631/830/68 629/826/67
f 628/829/66 630/833/67 629/826/67 627/822/66
f 626/825/65 628/829/66 627/822/66 625/818/65
f 624/821/64 626/825/65 625/818/65 623/817/64
f 489/683/7 624/821/64 623/817/64 488/700/7
f 481/701/141 488/700/141 623/817/160 618/816/160
f 480/702/142 501/699/142 632/834/169 617/835/169
f 617/835/169 632/834/169 630/833/168 616/832/168
f 622/831/167 631/830/167 500/698/144 487/704/144
f 647/836/68 637/837/170 508/707/145 522/706/13
f 646/838/67 636/839/171 637/837/170 647/836/68
f 645/840/66 635/841/172 636/839/171 646/838/67
f 644/842/65 634/843/173 635/841/172 645/840/66
f 643/844/64 633/845/174 634/843/173 644/842/65
f 516/717/7 502/718/151 633/845/174 643/844/64
f 697/846/68 652/847/68 529/721/13 592/720/13
f 696/848/67 651/849/67 652/847/68 697/846/68
f 695/850/66 650/851/66 651/849/67 696/848/67
f 694/852/65 649/853/65 650/851/66 695/850/66
f 693/854/64 648/855/64 649/853/65 694/852/65
f 586/731/7 523/732/7 648/855/64 693/854/64
f 653/856/162 654/857/164 660/858/164 658/859/162
f 648/860/160 523/740/141 538/739/141 659/861/160
f 654/857/164 655/862/166 662/863/166 660/858/164
f 649/864/175 648/860/160 659/861/160 661/865/175
f 655/862/166 656/866/176 664/867/176 662/863/166
f 650/868/163 649/864/175 661/865/175 663/869/163
f 656/866/176 657/870/169 666/871/169 664/867/176
f 651/872/177 650/868/163 663/869/163 665/873/178
f 667/874/68 666/871/68 549/755/13 550/754/13
f 665/873/67 664/867/67 666/871/68 667/874/68
f 663/869/66 662/863/66 664/867/67 665/873/67
f 661/865/65 660/858/65 662/863/66 663/869/66
f 659/861/64 658/859/64 660/858/65 661/865/65
f 538/739/7 537/756/7 658/859/64 659/861/64
f 530/757/134 653/856/162 658/859/162 537/756/134
f 529/758/144 652/875/167 667/874/167 550/754/144
f 652/875/167 651/872/177 665/873/178 667/874/167
f 657/870/169 536/760/142 549/755/142 666/871/169
f 579/761/7 551/764/7 668/876/64 688/877/64
f 688/877/64 668/876/64 669/878/65 689/879/65
f 689/879/65 669/878/65 670/880/66 690/881/66
f 690/881/66 670/880/66 671/882/67 691/883/67
f 691/883/67 671/882/67 672/884/68 692/885/68
f 692/885/68 672/884/68 557/774/13 585/773/13
f 565/775/7 678/886/64 673/887/64 558/776/7
f 678/886/64 679/888/65 674/889/65 673/887/64
f 679/888/65 680/890/66 675/891/66 674/889/65
f 680/890/66 681/892/67 676/893/67 675/891/66
f 681/892/67 682/894/68 677/895/68 676/893/67
f 682/894/68 571/788/13 564/787/13 677/895/68
f 597/896/68 452/790/13 571/788/13 682/894/68
f 596/897/67 597/896/68 682/894/68 681/892/67
f 595/898/66 596/897/67 681/892/67 680/890/66
f 594/899/65 595/898/66 680/890/66 679/888/65
f 593/900/64 594/899/65 679/888/65 678/886/64
f 446/795/7 593/900/64 678/886/64 565/775/7
f 558/776/7 673/887/64 683/814/64 572/675/7
f 673/887/64 674/889/65 684/812/65 683/814/64
f 674/889/65 675/891/66 685/810/66 684/812/65
f 675/891/66 676/893/67 686/808/67 685/810/66
f 676/893/67 677/895/68 687/806/68 686/808/67
f 677/895/68 564/787/13 578/666/13 687/806/68
f 597/896/68 692/885/68 585/773/13 452/790/13
f 596/897/67 691/883/67 692/885/68 597/896/68
f 595/898/66 690/881/66 691/883/67 596/897/67
f 594/899/65 689/879/65 690/881/66 595/898/66
f 593/900/64 688/877/64 689/879/65 594/899/65
f 446/795/7 579/761/7 688/877/64 593/900/64
f 551/764/7 586/731/7 693/854/64 668/876/64
f 668/876/64 693/854/64 694/852/65 669/878/65
f 669/878/65 694/852/65 695/850/66 670/880/66
f 670/880/66 695/850/66 696/848/67 671/882/67
f 671/882/67 696/848/67 697/846/68 672/884/68
f 672/884/68 697/846/68 592/720/13 557/774/13
f 698/901/179 699/902/180 350/903/110 207/904/82
f 699/902/180 700/905/181 349/906/111 350/903/110
f 700/905/181 701/907/182 348/908/112 349/906/111
f 701/907/182 702/909/183 347/910/113 348/908/112
f 702/909/183 703/911/184 346/912/114 347/910/113
f 703/911/184 704/913/185 201/914/87 346/912/114
f 704/915/185 705/916/186 202/917/86 201/918/87
f 705/916/186 706/919/187 203/920/85 202/917/86
f 706/919/187 707/921/188 204/922/84 203/920/85
f 707/921/188 708/923/189 205/924/83 204/922/84
f 708/923/189 709/925/190 206/926/81 205/924/83
f 709/925/190 698/901/179 207/904/82 206/926/81
f 507/927/146 508/928/145 698/929/179 709/930/190
f 506/931/147 507/927/146 709/930/190 708/932/191
f 505/933/148 506/931/147 708/932/191 707/934/192
f 504/935/149 505/933/148 707/934/192 706/936/193
f 503/937/150 504/935/149 706/936/193 705/938/186
f 502/939/151 503/937/150 705/938/186 704/940/185
f 633/941/174 502/942/151 704/943/185 703/944/184
f 634/945/173 633/941/174 703/944/184 702/946/194
f 635/947/172 634/945/173 702/946/194 701/948/195
f 636/949/171 635/947/172 701/948/195 700/950/196
f 637/951/170 636/949/171 700/950/196 699/952/180
f 508/928/145 637/951/170 699/952/180 698/929/179
usemtl MI_Trim_03_Dark
s off
f 34/953/7 32/954/7 31/955/7 33/956/7
f 37/957/13 38/958/13 35/959/13 36/960/13
f 31/955/10 35/959/10 38/958/10 33/956/10
f 34/953/31 37/957/31 36/960/31 32/954/31
f 33/956/47 38/958/47 37/957/47 34/953/47
f 32/954/66 36/960/66 35/959/66 31/955/66
f 132/961/7 131/962/7 129/963/7 130/964/7
f 135/965/13 134/966/13 133/967/13 136/968/13
f 129/963/47 131/962/47 136/968/47 133/967/47
f 132/961/66 130/964/66 134/966/66 135/965/66
f 131/962/10 132/961/10 135/965/10 136/968/10
f 130/964/31 129/963/31 133/967/31 134/966/31
s 1
f 70/969/47 4/970/47 2/971/47 69/972/47
f 76/973/197 49/974/197 4/970/197 70/969/197
f 79/975/47 78/976/47 2/971/47 4/970/47
f 83/977/197 79/975/197 4/970/197 49/974/197
f 65/978/197 48/979/197 57/980/197 68/981/197
f 68/981/47 57/980/47 56/982/47 67/983/47
f 87/984/197 95/985/197 59/986/197 50/987/197
f 95/985/47 94/988/47 58/989/47 59/986/47
f 3/990/47 68/981/47 67/983/47 1/991/47
f 7/992/197 65/978/197 68/981/197 3/990/197
f 48/979/197 76/973/197 70/969/197 57/980/197
f 57/980/47 70/969/47 69/972/47 56/982/47
f 50/987/197 59/986/197 79/975/197 83/977/197
f 59/986/47 58/989/47 78/976/47 79/975/47
f 6/993/47 5/994/47 94/988/47 95/985/47
f 101/995/197 6/993/197 95/985/197 87/984/197
f 168/996/10 167/997/10 97/998/10 99/999/10
f 174/1000/198 168/996/198 99/999/198 147/1001/198
f 177/1002/10 99/999/10 97/998/10 176/1003/10
f 181/1004/198 147/1001/198 99/999/198 177/1002/198
f 163/1005/198 166/1006/198 155/1007/198 146/1008/198
f 166/1006/10 165/1009/10 154/1010/10 155/1007/10
f 185/1011/198 148/1012/198 157/1013/198 193/1014/198
f 193/1014/10 157/1013/10 156/1015/10 192/1016/10
f 98/1017/10 96/1018/10 165/1009/10 166/1006/10
f 100/1019/198 98/1017/198 166/1006/198 163/1005/198
f 146/1008/198 155/1007/198 168/996/198 174/1000/198
f 155/1007/10 154/1010/10 167/997/10 168/996/10
f 148/1012/198 181/1004/198 177/1002/198 157/1013/198
f 157/1013/10 177/1002/10 176/1003/10 156/1015/10
f 6/993/10 193/1014/10 192/1016/10 5/994/10
f 101/995/198 185/1011/198 193/1014/198 6/993/198
usemtl MI_Trim_03
s off
f 19/1020/66 21/1021/66 22/1022/66 20/1023/66
f 25/1024/10 19/1025/10 20/1026/10 23/1027/10 30/1028/10 26/1029/10
f 21/1030/31 28/1031/31 27/1032/31 29/1033/31 24/1034/31 22/1035/31
f 29/1036/199 30/1037/199 23/1038/199 24/1039/199
f 24/1040/200 23/1041/200 20/1042/200 22/1043/200
f 25/1044/201 26/1045/201 27/1046/201 28/1047/201
f 21/1048/7 19/1049/7 25/1044/7 28/1047/7
f 27/1046/202 26/1045/202 30/1037/202 29/1036/202
f 117/1050/31 118/1051/31 120/1052/31 119/1053/31
f 123/1054/47 124/1055/47 128/1056/47 121/1057/47 118/1058/47 117/1059/47
f 119/1060/66 120/1061/66 122/1062/66 127/1063/66 125/1064/66 126/1065/66
f 127/1066/203 122/1067/203 121/1068/203 128/1069/203
f 122/1070/204 120/1071/204 118/1072/204 121/1073/204
f 123/1074/205 126/1075/205 125/1076/205 124/1077/205
f 119/1078/7 126/1075/7 123/1074/7 117/1079/7
f 125/1076/206 127/1066/206 128/1069/206 124/1077/206
