# Blender v3.6.0 OBJ File: 'AllModules_Unreal.blend'
# www.blender.org
mtllib WallPipe_Corner_Round_Inner.mtl
o WallPipe_Corner_Round_Inner_Plane.045
v -2.828180 0.000000 -2.828195
v -1.530420 0.000000 -3.694706
v -2.828180 0.265611 -2.828195
v -1.530420 0.265611 -3.694706
v 0.000002 0.000000 -3.999999
v 0.000002 0.265611 -4.000000
v -2.969601 0.500000 -2.969617
v 0.000001 0.500000 -4.200000
v -1.606972 2.875975 -3.879475
v 0.000001 0.656889 -4.000000
v -2.828181 3.000000 -2.828196
v 0.000001 3.000000 -4.000000
v -2.969601 2.875976 -2.969617
v 0.000001 2.875975 -4.200000
v -2.828181 2.755010 -2.828196
v 0.000002 2.755010 -4.000000
v -1.574180 0.388324 -3.800327
v -1.562219 0.396697 -3.771457
v -1.553463 0.419574 -3.750322
v -1.550258 0.450824 -3.742587
v -1.553463 0.482074 -3.750322
v -1.562219 0.504950 -3.771457
v -1.574180 0.513324 -3.800327
v 0.000001 0.380827 -4.114328
v 0.000001 0.390204 -4.079330
v 0.000001 0.415825 -4.053709
v 0.000001 0.450824 -4.044331
v 0.000001 0.485822 -4.053709
v 0.000001 0.511443 -4.079329
v 0.000001 0.520821 -4.114328
v -0.090280 0.388324 -4.108391
v -0.089600 0.396697 -4.077148
v -0.089103 0.419574 -4.054277
v -0.088921 0.450824 -4.045906
v -0.089103 0.482074 -4.054277
v -0.089600 0.504950 -4.077148
v -0.090280 0.513324 -4.108391
v -0.086063 0.380827 -4.108670
v -0.085337 0.390204 -4.073678
v -0.084806 0.415825 -4.048063
v -0.084612 0.450824 -4.038688
v -0.084806 0.485822 -4.048063
v -0.085337 0.511443 -4.073678
v -0.086063 0.520821 -4.108670
v -0.133718 0.388324 -4.105515
v -0.132711 0.396697 -4.074282
v -0.131974 0.419574 -4.051417
v -0.131705 0.450824 -4.043048
v -0.131974 0.482074 -4.051417
v -0.132711 0.504950 -4.074282
v -0.133718 0.513324 -4.105515
v -0.105573 0.388324 -4.107380
v -0.104779 0.396697 -4.076140
v -0.104197 0.419574 -4.053271
v -0.103984 0.450824 -4.044900
v -0.104197 0.482074 -4.053271
v -0.104779 0.504950 -4.076140
v -0.105573 0.513324 -4.107380
v -0.108575 0.383083 -4.107182
v -0.130714 0.383083 -4.105714
v -0.107689 0.392158 -4.073322
v -0.129647 0.392158 -4.071860
v -0.107041 0.416953 -4.048536
v -0.128867 0.416953 -4.047078
v -0.106803 0.450824 -4.039464
v -0.128581 0.450824 -4.038007
v -0.107041 0.484694 -4.048536
v -0.128867 0.484694 -4.047078
v -0.107689 0.509489 -4.073322
v -0.129647 0.509489 -4.071860
v -0.108575 0.518565 -4.107182
v -0.130714 0.518565 -4.105714
v -2.909022 0.380827 -2.909037
v -2.884274 0.390204 -2.884289
v -2.866158 0.415825 -2.866173
v -2.859527 0.450824 -2.859542
v -2.866158 0.485822 -2.866173
v -2.884274 0.511443 -2.884289
v -2.909022 0.520821 -2.909037
v -2.841181 0.388324 -2.968929
v -2.819574 0.396697 -2.946353
v -2.803756 0.419574 -2.929826
v -2.797966 0.450824 -2.923777
v -2.803756 0.482074 -2.929826
v -2.819574 0.504950 -2.946353
v -2.841181 0.513324 -2.968929
v -2.844351 0.380827 -2.966132
v -2.820125 0.390204 -2.940873
v -2.802391 0.415825 -2.922382
v -2.795900 0.450824 -2.915614
v -2.802391 0.485822 -2.922382
v -2.820125 0.511443 -2.940873
v -2.844351 0.520821 -2.966132
v -2.808527 0.388324 -2.997731
v -2.787158 0.396697 -2.974929
v -2.771515 0.419574 -2.958236
v -2.765790 0.450824 -2.952127
v -2.771515 0.482074 -2.958236
v -2.787158 0.504950 -2.974929
v -2.808527 0.513324 -2.997731
v -2.829685 0.388324 -2.979071
v -2.808161 0.396697 -2.956415
v -2.792405 0.419574 -2.939830
v -2.786638 0.450824 -2.933759
v -2.792405 0.482074 -2.939830
v -2.808161 0.504950 -2.956415
v -2.829685 0.513324 -2.979071
v -2.827429 0.383082 -2.981061
v -2.810785 0.383082 -2.995740
v -2.804118 0.392158 -2.956488
v -2.787606 0.392158 -2.971042
v -2.787053 0.416953 -2.938499
v -2.770639 0.416953 -2.952962
v -2.780807 0.450824 -2.931915
v -2.764428 0.450824 -2.946344
v -2.787053 0.484694 -2.938499
v -2.770639 0.484694 -2.952962
v -2.804118 0.509489 -2.956488
v -2.787606 0.509489 -2.971042
v -2.827429 0.518565 -2.981061
v -2.810785 0.518565 -2.995740
v -2.217699 2.755010 -3.319239
v -2.217699 2.438357 -3.319239
v -2.828181 2.438357 -2.828195
v 0.000001 1.104416 -4.000000
v -0.778796 1.104416 -3.915198
v -0.778796 2.438357 -3.915198
v -2.328921 2.875975 -3.485460
v 0.000001 2.438357 -4.000000
v -1.700955 0.262142 -3.978441
v -1.700955 0.517944 -3.978441
v -1.609348 0.262142 -4.013145
v -1.609348 0.517944 -4.013145
v -1.589800 0.543330 -3.718577
v -1.504155 0.543330 -3.750811
v -1.612782 0.262142 -3.772306
v -1.592986 0.312478 -3.726026
v -1.507171 0.312478 -3.758330
v -1.525905 0.262142 -3.805050
v -1.494892 0.365509 -3.727710
v -1.580012 0.365509 -3.695694
v -1.669092 0.453215 -3.955596
v -1.615712 0.453215 -3.974384
v -1.562327 0.453215 -3.702669
v -1.512317 0.453215 -3.720060
v -1.669092 0.701389 -3.955596
v -1.615712 0.701389 -3.974384
v -1.512317 0.701389 -3.720060
v -1.562327 0.701389 -3.702669
v -2.828180 1.104416 -2.828195
v -2.217699 3.000000 -3.319239
v -2.828180 0.656889 -2.828195
v -2.217699 0.656889 -3.319238
v -2.217699 1.104416 -3.319238
v -1.530420 2.755010 -3.694706
v -1.530420 2.438357 -3.694706
v -1.530420 1.104416 -3.694706
v -1.530420 3.000000 -3.694706
v -2.328921 0.500000 -3.485459
v -1.606972 0.500000 -3.879476
v -0.817558 0.500000 -4.111406
v -0.778796 0.656889 -3.915198
v -1.530420 0.656889 -3.694706
v -0.778796 3.000000 -3.915198
v -0.817558 2.875976 -4.111405
v -0.778796 2.755009 -3.915198
v -2.217699 0.000000 -3.319238
v -2.217699 0.265611 -3.319238
v -0.778796 0.000000 -3.915198
v -0.778796 0.265611 -3.915198
v -2.287082 0.388324 -3.410336
v -2.269659 0.396697 -3.384394
v -2.256905 0.419574 -3.365403
v -2.252236 0.450824 -3.358451
v -2.256905 0.482074 -3.365403
v -2.269659 0.504950 -3.384394
v -2.287082 0.513324 -3.410336
v -0.800954 0.388324 -4.027358
v -0.794898 0.396697 -3.996700
v -0.790464 0.419574 -3.974257
v -0.788841 0.450824 -3.966043
v -0.790464 0.482074 -3.974257
v -0.794898 0.504950 -3.996700
v -0.800954 0.513324 -4.027358
v -2.533593 3.000000 -3.087503
v -2.533593 2.438356 -3.087503
v -2.533592 1.104416 -3.087502
v -2.533592 0.656889 -3.087502
v -2.660541 2.875975 -3.242048
v -2.660540 0.500000 -3.242048
v -2.533593 2.755010 -3.087503
v -2.533592 0.000000 -3.087502
v -2.533592 0.265611 -3.087502
v -1.882587 0.000000 -3.522007
v -1.882587 0.265611 -3.522007
v -1.882587 2.755010 -3.522007
v -1.882587 2.438356 -3.522007
v -1.976962 2.875975 -3.698339
v -1.882587 3.000000 -3.522007
v -1.882587 1.104416 -3.522007
v -1.976962 0.500000 -3.698339
v -1.882587 0.656889 -3.522007
v -1.159708 0.000000 -3.823517
v -1.159708 0.265611 -3.823517
v -1.217628 2.875975 -4.014946
v -1.159708 2.438356 -3.823517
v -1.159708 1.104416 -3.823517
v -1.217629 0.500000 -4.014946
v -1.159708 0.656889 -3.823516
v -1.159708 3.000000 -3.823517
v -1.159708 2.755010 -3.823517
v -0.410841 0.500000 -4.172709
v -0.410840 2.875976 -4.172708
v -0.391475 2.755009 -3.973649
v -0.391475 2.438356 -3.973649
v -0.391475 1.104416 -3.973648
v -0.391475 0.656889 -3.973648
v -0.391475 3.000000 -3.973649
v -0.391475 0.000000 -3.973648
v -0.391475 0.265611 -3.973648
v -1.192818 0.388324 -3.932945
v -1.183767 0.396697 -3.903034
v -1.177142 0.419574 -3.881138
v -1.174717 0.450824 -3.873123
v -1.177142 0.482074 -3.881138
v -1.183767 0.504950 -3.903034
v -1.192818 0.513324 -3.932945
v -0.402340 0.388324 -4.087452
v -0.399315 0.396697 -4.056349
v -0.397101 0.419574 -4.033580
v -0.396291 0.450824 -4.025246
v -0.397101 0.482074 -4.033580
v -0.399315 0.504950 -4.056349
v -0.402340 0.513324 -4.087452
v -1.939666 0.388324 -3.621230
v -1.924896 0.396697 -3.593691
v -1.914084 0.419574 -3.573531
v -1.910127 0.450824 -3.566152
v -1.914084 0.482074 -3.573531
v -1.924896 0.504950 -3.593691
v -1.939666 0.513324 -3.621230
v -2.608492 0.388324 -3.173798
v -2.588638 0.396697 -3.149665
v -2.574104 0.419574 -3.131999
v -2.568784 0.450824 -3.125532
v -2.574104 0.482074 -3.131999
v -2.588638 0.504950 -3.149665
v -2.608492 0.513324 -3.173798
v -4.000000 0.000000 -0.000020
v -3.694700 0.000000 -1.530441
v -4.000000 0.265611 -0.000020
v -3.694701 0.265611 -1.530441
v -4.200001 0.500000 -0.000021
v -3.879469 2.875975 -1.606994
v -4.000001 3.000001 -0.000020
v -4.200001 2.875976 -0.000021
v -4.000001 2.755010 -0.000020
v -3.800321 0.388324 -1.574202
v -3.771451 0.396697 -1.562240
v -3.750317 0.419574 -1.553484
v -3.742581 0.450824 -1.550279
v -3.750317 0.482074 -1.553484
v -3.771451 0.504950 -1.562240
v -3.800321 0.513324 -1.574202
v -2.968915 0.388324 -2.841198
v -2.946339 0.396697 -2.819590
v -2.929812 0.419574 -2.803772
v -2.923763 0.450824 -2.797982
v -2.929812 0.482074 -2.803772
v -2.946339 0.504950 -2.819590
v -2.968915 0.513324 -2.841198
v -2.966117 0.380827 -2.844369
v -2.940858 0.390204 -2.820143
v -2.922367 0.415825 -2.802409
v -2.915599 0.450824 -2.795918
v -2.922367 0.485822 -2.802409
v -2.940858 0.511443 -2.820143
v -2.966117 0.520821 -2.844369
v -2.997717 0.388324 -2.808543
v -2.974915 0.396697 -2.787174
v -2.958222 0.419574 -2.771531
v -2.952113 0.450824 -2.765806
v -2.958222 0.482074 -2.771531
v -2.974915 0.504950 -2.787174
v -2.997717 0.513324 -2.808543
v -2.979055 0.388324 -2.829703
v -2.956399 0.396697 -2.808179
v -2.939814 0.419574 -2.792423
v -2.933744 0.450824 -2.786655
v -2.939814 0.482074 -2.792423
v -2.956399 0.504950 -2.808179
v -2.979055 0.513324 -2.829703
v -2.981049 0.383082 -2.827444
v -2.995726 0.383082 -2.810801
v -2.956476 0.392158 -2.804133
v -2.971028 0.392158 -2.787623
v -2.938487 0.416953 -2.787068
v -2.952948 0.416953 -2.770655
v -2.931903 0.450824 -2.780822
v -2.946331 0.450824 -2.764444
v -2.938487 0.484694 -2.787068
v -2.952948 0.484694 -2.770655
v -2.956476 0.509489 -2.804133
v -2.971028 0.509489 -2.787623
v -2.981049 0.518565 -2.827444
v -2.995726 0.518565 -2.810801
v -4.114328 0.380827 -0.000021
v -4.079329 0.390204 -0.000021
v -4.053709 0.415825 -0.000021
v -4.044331 0.450824 -0.000021
v -4.053709 0.485822 -0.000021
v -4.079329 0.511443 -0.000021
v -4.114328 0.520821 -0.000021
v -4.108391 0.388324 -0.090302
v -4.077148 0.396697 -0.089622
v -4.054277 0.419574 -0.089125
v -4.045906 0.450824 -0.088943
v -4.054277 0.482074 -0.089125
v -4.077148 0.504950 -0.089622
v -4.108391 0.513324 -0.090302
v -4.108670 0.380827 -0.086085
v -4.073678 0.390204 -0.085359
v -4.048063 0.415825 -0.084828
v -4.038688 0.450824 -0.084633
v -4.048063 0.485822 -0.084828
v -4.073678 0.511443 -0.085359
v -4.108670 0.520821 -0.086085
v -4.105515 0.388324 -0.133738
v -4.074282 0.396697 -0.132731
v -4.051417 0.419574 -0.131994
v -4.043048 0.450824 -0.131725
v -4.051417 0.482074 -0.131994
v -4.074282 0.504950 -0.132731
v -4.105515 0.513324 -0.133738
v -4.107380 0.388324 -0.105594
v -4.076140 0.396697 -0.104799
v -4.053271 0.419574 -0.104217
v -4.044900 0.450824 -0.104004
v -4.053271 0.482074 -0.104217
v -4.076140 0.504950 -0.104799
v -4.107380 0.513324 -0.105594
v -4.107182 0.383082 -0.108597
v -4.105715 0.383083 -0.130738
v -4.073322 0.392158 -0.107711
v -4.071861 0.392158 -0.129671
v -4.048536 0.416953 -0.107063
v -4.047078 0.416953 -0.128891
v -4.039464 0.450824 -0.106825
v -4.038007 0.450824 -0.128605
v -4.048536 0.484694 -0.107063
v -4.047078 0.484694 -0.128891
v -4.073322 0.509489 -0.107711
v -4.071861 0.509489 -0.129671
v -4.107182 0.518565 -0.108597
v -4.105715 0.518565 -0.130738
v -3.915195 2.755010 -0.778818
v -3.915195 2.438356 -0.778818
v -4.000001 2.438357 -0.000020
v -3.319227 1.104416 -2.217717
v -3.319227 2.438357 -2.217717
v -4.111402 2.875975 -0.817581
v -4.013139 0.262142 -1.609370
v -4.013139 0.517944 -1.609370
v -3.978433 0.262142 -1.700977
v -3.978433 0.517944 -1.700977
v -3.750805 0.543330 -1.504176
v -3.718569 0.543330 -1.589820
v -3.805044 0.262142 -1.525926
v -3.758325 0.312478 -1.507192
v -3.726017 0.312478 -1.593006
v -3.772298 0.262142 -1.612803
v -3.695686 0.365509 -1.580032
v -3.727704 0.365509 -1.494913
v -3.974377 0.453215 -1.615736
v -3.955589 0.453215 -1.669114
v -3.720053 0.453215 -1.512340
v -3.702663 0.453215 -1.562347
v -3.974377 0.701389 -1.615736
v -3.955589 0.701389 -1.669114
v -3.702663 0.701389 -1.562347
v -3.720053 0.701389 -1.512340
v -4.000001 1.104416 -0.000020
v -3.915195 3.000000 -0.778818
v -4.000000 0.656889 -0.000020
v -3.915195 0.656889 -0.778818
v -3.915195 1.104416 -0.778818
v -3.694701 2.755009 -1.530441
v -3.694701 2.438356 -1.530441
v -3.694700 1.104416 -1.530441
v -3.694701 3.000000 -1.530441
v -4.111402 0.500000 -0.817581
v -3.879469 0.500000 -1.606994
v -3.485449 0.500000 -2.328939
v -3.319228 0.656889 -2.217715
v -3.694700 0.656889 -1.530441
v -3.319227 3.000000 -2.217717
v -3.485448 2.875975 -2.328940
v -3.319227 2.755009 -2.217717
v -3.915195 0.000000 -0.778818
v -3.915195 0.265611 -0.778818
v -3.319227 0.000000 -2.217717
v -3.319227 0.265611 -2.217717
v -4.028756 0.388324 -0.794113
v -3.998088 0.396697 -0.788109
v -3.975638 0.419574 -0.783713
v -3.967421 0.450824 -0.782104
v -3.975638 0.482074 -0.783713
v -3.998088 0.504950 -0.788109
v -4.028756 0.513324 -0.794113
v -3.414245 0.388324 -2.281296
v -3.388273 0.396697 -2.263918
v -3.369260 0.419574 -2.251196
v -3.362301 0.450824 -2.246539
v -3.369260 0.482074 -2.251196
v -3.388273 0.504950 -2.263918
v -3.414245 0.513324 -2.281296
v -3.973643 3.000000 -0.391588
v -3.973643 2.438357 -0.391588
v -3.973642 1.104416 -0.391588
v -3.973642 0.656889 -0.391588
v -4.172702 2.875976 -0.410959
v -4.172702 0.500000 -0.410959
v -3.973643 2.755010 -0.391588
v -3.973642 0.000000 -0.391588
v -3.973642 0.265611 -0.391588
v -3.823512 0.000000 -1.159727
v -3.823512 0.265611 -1.159727
v -3.823512 2.755010 -1.159727
v -3.823512 2.438357 -1.159727
v -4.014941 2.875976 -1.217648
v -3.823512 3.000000 -1.159727
v -3.823512 1.104416 -1.159727
v -4.014941 0.500000 -1.217648
v -3.823512 0.656889 -1.159727
v -3.521996 0.000000 -1.882608
v -3.521997 0.265611 -1.882608
v -3.698329 2.875975 -1.976984
v -3.521998 2.438356 -1.882607
v -3.521997 1.104416 -1.882607
v -3.698330 0.500000 -1.976983
v -3.521997 0.656889 -1.882607
v -3.521997 3.000000 -1.882608
v -3.521998 2.755009 -1.882607
v -3.241969 0.500000 -2.660631
v -3.241969 2.875975 -2.660631
v -3.087428 2.755009 -2.533679
v -3.087428 2.438357 -2.533679
v -3.087427 1.104416 -2.533679
v -3.087427 0.656889 -2.533679
v -3.087428 3.000000 -2.533679
v -3.087427 0.000000 -2.533678
v -3.087427 0.265611 -2.533679
v -3.622796 0.388324 -1.936556
v -3.595244 0.396697 -1.921809
v -3.575074 0.419574 -1.911014
v -3.567692 0.450824 -1.907063
v -3.575074 0.482074 -1.911014
v -3.595244 0.504950 -1.921809
v -3.622796 0.513324 -1.936556
v -3.175633 0.388324 -2.606404
v -3.151487 0.396697 -2.586567
v -3.133811 0.419574 -2.572044
v -3.127341 0.450824 -2.566729
v -3.133811 0.482074 -2.572044
v -3.151487 0.504950 -2.586567
v -3.175633 0.513324 -2.606404
v -3.934085 0.388324 -1.189529
v -3.904166 0.396697 -1.180504
v -3.882265 0.419574 -1.173898
v -3.874248 0.450824 -1.171480
v -3.882265 0.482074 -1.173898
v -3.904166 0.504950 -1.180504
v -3.934085 0.513324 -1.189529
v -4.087644 0.388324 -0.399568
v -4.056538 0.396697 -0.396564
v -4.033767 0.419574 -0.394365
v -4.025433 0.450824 -0.393561
v -4.033767 0.482074 -0.394365
v -4.056538 0.504950 -0.396564
v -4.087643 0.513324 -0.399568
vt 0.753356 0.408906
vt 0.753356 0.362340
vt 0.837782 0.362340
vt 0.837782 0.408906
vt 1.077276 0.750453
vt 1.077276 0.697079
vt 1.159675 0.697079
vt 1.159675 0.750453
vt 1.077276 0.688858
vt 1.077276 0.751199
vt 1.159675 0.751199
vt 1.159675 0.688858
vt 0.455026 0.569623
vt 0.518179 0.569623
vt 0.518179 0.579777
vt 0.455026 0.579777
vt 0.518179 0.589931
vt 0.455026 0.589931
vt 0.518179 0.600085
vt 0.455026 0.600085
vt 0.518179 0.610239
vt 0.455026 0.610239
vt 0.518179 0.620393
vt 0.455026 0.620393
vt 0.518179 0.630547
vt 0.455026 0.630547
vt 0.500917 0.365751
vt 0.500917 0.371133
vt 0.460363 0.371133
vt 0.460363 0.365751
vt 0.419809 0.371133
vt 0.419809 0.365751
vt 0.379255 0.371133
vt 0.379255 0.365751
vt 0.338701 0.371133
vt 0.338701 0.365752
vt 0.298147 0.371133
vt 0.298147 0.365751
vt 0.257593 0.371133
vt 0.257593 0.365751
vt 0.455026 0.569623
vt 0.455026 0.579777
vt 0.518179 0.579777
vt 0.518179 0.569623
vt 0.455026 0.589931
vt 0.518179 0.589931
vt 0.455026 0.600085
vt 0.518179 0.600085
vt 0.455026 0.610239
vt 0.518179 0.610239
vt 0.455026 0.620393
vt 0.518179 0.620393
vt 0.455026 0.630547
vt 0.518179 0.630547
vt 0.500917 0.365751
vt 0.460363 0.365751
vt 0.460363 0.371133
vt 0.500917 0.371133
vt 0.419809 0.365751
vt 0.419809 0.371133
vt 0.379255 0.365751
vt 0.379255 0.371133
vt 0.338701 0.365752
vt 0.338701 0.371133
vt 0.298147 0.365751
vt 0.298147 0.371133
vt 0.257593 0.365751
vt 0.257593 0.371133
vt 0.246664 0.408906
vt 0.246664 0.362340
vt 0.331109 0.362340
vt 0.331109 0.408906
vt 0.415555 0.408906
vt 0.415555 0.362340
vt 0.500000 0.362340
vt 0.500000 0.408906
vt 0.584445 0.408906
vt 0.584445 0.362340
vt 0.668891 0.362340
vt 0.668891 0.408906
vt 0.587932 0.688858
vt 0.587932 0.751199
vt 0.665163 0.751199
vt 0.665163 0.688858
vt 0.747581 0.688858
vt 0.747581 0.751199
vt 0.830000 0.751199
vt 0.830000 0.688858
vt 0.912419 0.688858
vt 0.912419 0.751199
vt 0.994837 0.751199
vt 0.994837 0.688858
vt 0.587932 0.750453
vt 0.587932 0.697079
vt 0.665163 0.697079
vt 0.665163 0.750453
vt 0.747581 0.750453
vt 0.747581 0.697079
vt 0.830000 0.697079
vt 0.830000 0.750453
vt 0.912419 0.750453
vt 0.912419 0.697079
vt 0.994837 0.697079
vt 0.994837 0.750453
vt 0.510701 0.750453
vt 0.510701 0.697079
vt 0.510701 0.688858
vt 0.510701 0.751199
vt 0.162218 0.408906
vt 0.162218 0.362340
vt 0.753356 0.408906
vt 0.753356 0.362340
vt 0.837782 0.362340
vt 0.837782 0.408906
vt 1.077276 0.750453
vt 1.077276 0.697079
vt 1.159675 0.697079
vt 1.159675 0.750453
vt 1.077276 0.688858
vt 1.077276 0.751199
vt 1.159675 0.751199
vt 1.159675 0.688858
vt 0.455026 0.569623
vt 0.518179 0.569623
vt 0.518179 0.579777
vt 0.455026 0.579777
vt 0.518179 0.589931
vt 0.455026 0.589931
vt 0.518179 0.600085
vt 0.455026 0.600085
vt 0.518179 0.610239
vt 0.455026 0.610239
vt 0.518179 0.620393
vt 0.455026 0.620393
vt 0.518179 0.630547
vt 0.455026 0.630547
vt 0.500917 0.365751
vt 0.500917 0.371133
vt 0.460363 0.371133
vt 0.460363 0.365751
vt 0.419809 0.371133
vt 0.419809 0.365751
vt 0.379255 0.371133
vt 0.379255 0.365751
vt 0.338701 0.371133
vt 0.338701 0.365752
vt 0.298147 0.371133
vt 0.298147 0.365751
vt 0.257593 0.371133
vt 0.257593 0.365751
vt 0.455026 0.569623
vt 0.455026 0.579777
vt 0.518179 0.579777
vt 0.518179 0.569623
vt 0.455026 0.589931
vt 0.518179 0.589931
vt 0.455026 0.600085
vt 0.518179 0.600085
vt 0.455026 0.610239
vt 0.518179 0.610239
vt 0.455026 0.620393
vt 0.518179 0.620393
vt 0.455026 0.630547
vt 0.518179 0.630547
vt 0.500917 0.365751
vt 0.460363 0.365751
vt 0.460363 0.371133
vt 0.500917 0.371133
vt 0.419809 0.365751
vt 0.419809 0.371133
vt 0.379255 0.365751
vt 0.379255 0.371133
vt 0.338701 0.365752
vt 0.338701 0.371133
vt 0.298147 0.365751
vt 0.298147 0.371133
vt 0.257593 0.365751
vt 0.257593 0.371133
vt 0.246664 0.408906
vt 0.246664 0.362340
vt 0.331109 0.362340
vt 0.331109 0.408906
vt 0.415555 0.408906
vt 0.415555 0.362340
vt 0.500000 0.362340
vt 0.500000 0.408906
vt 0.584445 0.408906
vt 0.584445 0.362340
vt 0.668891 0.362340
vt 0.668891 0.408906
vt 0.587932 0.688858
vt 0.587932 0.751199
vt 0.665163 0.751199
vt 0.665163 0.688858
vt 0.747581 0.688858
vt 0.747581 0.751199
vt 0.830000 0.751199
vt 0.830000 0.688858
vt 0.912419 0.688858
vt 0.912419 0.751199
vt 0.994837 0.751199
vt 0.994837 0.688858
vt 0.587932 0.750453
vt 0.587932 0.697079
vt 0.665163 0.697079
vt 0.665163 0.750453
vt 0.747581 0.750453
vt 0.747581 0.697079
vt 0.830000 0.697079
vt 0.830000 0.750453
vt 0.912419 0.750453
vt 0.912419 0.697079
vt 0.994837 0.697079
vt 0.994837 0.750453
vt 0.510701 0.750453
vt 0.510701 0.697079
vt 0.510701 0.688858
vt 0.510701 0.751199
vt 0.162218 0.408906
vt 0.162218 0.362340
vt 0.429516 0.293475
vt 0.429516 0.483608
vt 0.397147 0.483608
vt 0.397147 0.293475
vt 0.461886 0.293475
vt 0.461886 0.483608
vt 0.494255 0.293475
vt 0.494255 0.483608
vt 0.526625 0.293475
vt 0.526625 0.483608
vt 0.558994 0.293475
vt 0.558994 0.483608
vt 0.591364 0.293475
vt 0.591363 0.483608
vt 0.666232 0.590478
vt 0.744230 0.590478
vt 0.744230 0.602610
vt 0.666232 0.602610
vt 0.666232 0.578347
vt 0.744230 0.578347
vt 0.666232 0.566214
vt 0.744230 0.566215
vt 0.666232 0.554083
vt 0.744230 0.554083
vt 0.666232 0.541951
vt 0.744230 0.541951
vt 0.666232 0.529819
vt 0.744230 0.529819
vt 0.409955 0.965938
vt 0.454088 0.965938
vt 0.454088 0.970938
vt 0.409955 0.970938
vt 0.409955 0.998262
vt 0.365822 0.998262
vt 0.365822 0.995137
vt 0.409955 0.995137
vt 0.498221 0.965938
vt 0.498221 0.970938
vt 0.454088 0.998262
vt 0.454088 0.995137
vt 0.542353 0.965938
vt 0.542353 0.970938
vt 0.498221 0.998262
vt 0.498221 0.995137
vt 0.586486 0.965938
vt 0.586486 0.970938
vt 0.542353 0.998262
vt 0.542353 0.995137
vt 0.586486 0.995137
vt 0.630619 0.970938
vt 0.630619 0.995137
vt 0.365822 0.970938
vt 0.365822 0.965938
vt 0.630619 0.998262
vt 0.586486 0.998262
vt 0.630619 0.965938
vt 0.429516 0.293475
vt 0.397147 0.293475
vt 0.397147 0.483608
vt 0.429516 0.483608
vt 0.461886 0.293475
vt 0.461886 0.483608
vt 0.494255 0.293475
vt 0.494255 0.483608
vt 0.526625 0.293475
vt 0.526625 0.483608
vt 0.558994 0.293475
vt 0.558994 0.483608
vt 0.591364 0.293475
vt 0.591363 0.483608
vt 0.666232 0.590478
vt 0.666232 0.602610
vt 0.744230 0.602610
vt 0.744230 0.590478
vt 0.666232 0.578347
vt 0.744230 0.578347
vt 0.666232 0.566214
vt 0.744230 0.566215
vt 0.666232 0.554083
vt 0.744230 0.554083
vt 0.666232 0.541951
vt 0.744230 0.541951
vt 0.666232 0.529819
vt 0.744230 0.529819
vt 0.409955 0.965938
vt 0.409955 0.970938
vt 0.454088 0.970938
vt 0.454088 0.965938
vt 0.409955 0.998262
vt 0.409955 0.995137
vt 0.365822 0.995137
vt 0.365822 0.998262
vt 0.498221 0.970938
vt 0.498221 0.965938
vt 0.454088 0.998262
vt 0.454088 0.995137
vt 0.542353 0.970938
vt 0.542353 0.965938
vt 0.498221 0.998262
vt 0.498221 0.995137
vt 0.586486 0.970938
vt 0.586486 0.965938
vt 0.542353 0.998262
vt 0.542353 0.995137
vt 0.586486 0.995137
vt 0.630619 0.995137
vt 0.630619 0.970938
vt 0.365822 0.970938
vt 0.365822 0.965938
vt 0.630619 0.998262
vt 0.586486 0.998262
vt 0.630619 0.965938
vt 0.501925 0.997904
vt 0.501925 0.930211
vt 0.616774 0.930211
vt 0.616774 0.997904
vt 0.501925 0.710248
vt 0.501925 0.661440
vt 0.404644 0.661440
vt 0.404644 0.710248
vt 0.501898 0.997904
vt 0.616774 0.997904
vt 0.616774 0.930211
vt 0.501898 0.930211
vt 0.501925 0.661440
vt 0.501925 0.710248
vt 0.404644 0.710248
vt 0.404644 0.661440
vt 0.501948 0.661440
vt 0.501948 0.710248
vt 0.378289 0.985777
vt 0.256310 0.985777
vt 0.256310 0.709169
vt 0.378289 0.709169
vt 0.501925 0.661440
vt 0.501925 0.710248
vt 0.501925 0.997904
vt 0.501925 0.930211
vt 0.622246 0.709169
vt 0.744224 0.709169
vt 0.744224 0.985777
vt 0.622246 0.985777
vt 0.134332 0.985777
vt 0.134332 0.709169
vt 0.866231 0.985777
vt 0.866231 0.709169
vt 0.501925 0.997904
vt 0.501925 0.930211
vt 0.430070 0.529819
vt 0.430070 0.541951
vt 0.549234 0.541951
vt 0.549234 0.529819
vt 0.430070 0.554083
vt 0.549234 0.554083
vt 0.430070 0.566215
vt 0.549234 0.566215
vt 0.430070 0.578347
vt 0.549234 0.578347
vt 0.430070 0.590478
vt 0.549234 0.590478
vt 0.430070 0.602611
vt 0.549234 0.602611
vt 0.430070 0.529819
vt 0.549234 0.529819
vt 0.549234 0.541951
vt 0.430070 0.541951
vt 0.549234 0.554083
vt 0.430070 0.554083
vt 0.549234 0.566215
vt 0.430070 0.566215
vt 0.549234 0.578347
vt 0.430070 0.578347
vt 0.549234 0.590478
vt 0.430070 0.590478
vt 0.549234 0.602611
vt 0.430070 0.602611
vt 0.012354 0.985777
vt 0.012354 0.709169
vt 0.599206 0.661440
vt 0.599206 0.710248
vt 0.387076 0.997904
vt 0.387076 0.930211
vt 0.387076 0.997904
vt 0.387076 0.930211
vt 0.500267 0.985777
vt 0.500267 0.709169
vt 0.599206 0.710248
vt 0.599206 0.661440
vt 0.988181 0.985777
vt 0.988181 0.709169
vt 0.599206 0.661440
vt 0.599206 0.710248
vt 0.387076 0.997904
vt 0.387076 0.930211
vt 0.310906 0.590478
vt 0.310906 0.602611
vt 0.310906 0.578347
vt 0.310906 0.566215
vt 0.310906 0.554083
vt 0.310906 0.541951
vt 0.310906 0.529819
vt 0.429516 0.293475
vt 0.397147 0.293475
vt 0.461886 0.293475
vt 0.494255 0.293475
vt 0.526625 0.293475
vt 0.558994 0.293475
vt 0.591364 0.293475
vt 0.666232 0.590478
vt 0.744230 0.590478
vt 0.744230 0.602610
vt 0.666232 0.602610
vt 0.666232 0.578347
vt 0.744230 0.578347
vt 0.666232 0.566214
vt 0.744230 0.566215
vt 0.666232 0.554083
vt 0.744230 0.554083
vt 0.666232 0.541951
vt 0.744230 0.541951
vt 0.666232 0.529819
vt 0.744230 0.529819
vt 0.409955 0.965938
vt 0.454088 0.965938
vt 0.454088 0.970938
vt 0.409955 0.970938
vt 0.409955 0.998262
vt 0.365822 0.998262
vt 0.365822 0.995137
vt 0.409955 0.995137
vt 0.498221 0.965938
vt 0.498221 0.970938
vt 0.454088 0.998262
vt 0.454088 0.995137
vt 0.542353 0.965938
vt 0.542353 0.970938
vt 0.498221 0.998262
vt 0.498221 0.995137
vt 0.586486 0.965938
vt 0.586486 0.970938
vt 0.542353 0.998262
vt 0.542353 0.995137
vt 0.586486 0.995137
vt 0.630619 0.970938
vt 0.630619 0.995137
vt 0.365822 0.970938
vt 0.365822 0.965938
vt 0.630619 0.998262
vt 0.586486 0.998262
vt 0.630619 0.965938
vt 0.429516 0.293475
vt 0.397147 0.293475
vt 0.397147 0.483608
vt 0.429516 0.483608
vt 0.461886 0.293475
vt 0.461886 0.483608
vt 0.494255 0.293475
vt 0.494255 0.483608
vt 0.526625 0.293475
vt 0.526625 0.483608
vt 0.558994 0.293475
vt 0.558994 0.483608
vt 0.591364 0.293475
vt 0.591363 0.483608
vt 0.666232 0.590478
vt 0.666232 0.602610
vt 0.744230 0.602610
vt 0.744230 0.590478
vt 0.666232 0.578347
vt 0.744230 0.578347
vt 0.666232 0.566214
vt 0.744230 0.566215
vt 0.666232 0.554083
vt 0.744230 0.554083
vt 0.666232 0.541951
vt 0.744230 0.541951
vt 0.666232 0.529819
vt 0.744230 0.529819
vt 0.409955 0.965938
vt 0.409955 0.970938
vt 0.454088 0.970938
vt 0.454088 0.965938
vt 0.409955 0.998262
vt 0.409955 0.995137
vt 0.365822 0.995137
vt 0.365822 0.998262
vt 0.498221 0.970938
vt 0.498221 0.965938
vt 0.454088 0.998262
vt 0.454088 0.995137
vt 0.542353 0.970938
vt 0.542353 0.965938
vt 0.498221 0.998262
vt 0.498221 0.995137
vt 0.586486 0.970938
vt 0.586486 0.965938
vt 0.542353 0.998262
vt 0.542353 0.995137
vt 0.586486 0.995137
vt 0.630619 0.995137
vt 0.630619 0.970938
vt 0.365822 0.970938
vt 0.365822 0.965938
vt 0.630619 0.998262
vt 0.586486 0.998262
vt 0.630619 0.965938
vt 0.501925 0.997904
vt 0.501925 0.930211
vt 0.616774 0.930211
vt 0.616774 0.997904
vt 0.501925 0.710248
vt 0.501925 0.661440
vt 0.404644 0.661440
vt 0.404644 0.710248
vt 0.501898 0.997904
vt 0.616774 0.997904
vt 0.616774 0.930211
vt 0.501898 0.930211
vt 0.501925 0.661440
vt 0.501925 0.710248
vt 0.404644 0.710248
vt 0.404644 0.661440
vt 0.501948 0.661440
vt 0.501948 0.710248
vt 0.378289 0.985777
vt 0.256310 0.985777
vt 0.256310 0.709169
vt 0.378289 0.709169
vt 0.501925 0.661440
vt 0.501925 0.710248
vt 0.501925 0.997904
vt 0.501925 0.930211
vt 0.622246 0.709169
vt 0.744224 0.709169
vt 0.744224 0.985777
vt 0.622246 0.985777
vt 0.134332 0.985777
vt 0.134332 0.709169
vt 0.866231 0.985777
vt 0.866231 0.709169
vt 0.501925 0.997904
vt 0.501925 0.930211
vt 0.430070 0.529819
vt 0.430070 0.541951
vt 0.549234 0.541951
vt 0.549234 0.529819
vt 0.430070 0.554083
vt 0.549234 0.554083
vt 0.430070 0.566215
vt 0.549234 0.566215
vt 0.430070 0.578347
vt 0.549234 0.578347
vt 0.430070 0.590478
vt 0.549234 0.590478
vt 0.430070 0.602611
vt 0.549234 0.602611
vt 0.430070 0.529819
vt 0.549234 0.529819
vt 0.549234 0.541951
vt 0.430070 0.541951
vt 0.549234 0.554083
vt 0.430070 0.554083
vt 0.549234 0.566215
vt 0.430070 0.566215
vt 0.549234 0.578347
vt 0.430070 0.578347
vt 0.549234 0.590478
vt 0.430070 0.590478
vt 0.549234 0.602611
vt 0.430070 0.602611
vt 0.012354 0.985777
vt 0.012354 0.709169
vt 0.599206 0.661440
vt 0.599206 0.710248
vt 0.387076 0.997904
vt 0.387076 0.930211
vt 0.387076 0.997904
vt 0.387076 0.930211
vt 0.500267 0.985777
vt 0.500267 0.709169
vt 0.599206 0.710248
vt 0.599206 0.661440
vt 0.988181 0.985777
vt 0.988181 0.709169
vt 0.310906 0.590478
vt 0.310906 0.602611
vt 0.310906 0.578347
vt 0.310906 0.566215
vt 0.310906 0.554083
vt 0.310906 0.541951
vt 0.310906 0.529819
vt 0.625000 0.500000
vt 0.625000 0.750000
vt 0.875000 0.750000
vt 0.875000 0.500000
vt 0.625000 0.500000
vt 0.875000 0.500000
vt 0.875000 0.750000
vt 0.625000 0.750000
vt 0.625000 0.500000
vt 0.625000 0.750000
vt 0.875000 0.750000
vt 0.875000 0.500000
vt 0.625000 0.500000
vt 0.875000 0.500000
vt 0.875000 0.750000
vt 0.625000 0.750000
vt 0.558140 0.281270
vt 0.558140 0.222317
vt 0.655196 0.222317
vt 0.655196 0.281270
vt 0.558140 0.311098
vt 0.655196 0.311098
vt 0.558140 0.281270
vt 0.558140 0.222317
vt 0.558140 0.311098
vt 0.364028 0.311098
vt 0.364028 0.281270
vt 0.461084 0.281270
vt 0.461084 0.311098
vt 0.364028 0.222317
vt 0.461084 0.222317
vt 0.364005 0.311098
vt 0.461084 0.311098
vt 0.461084 0.281270
vt 0.364005 0.281270
vt 0.461084 0.222317
vt 0.364005 0.222317
vt 0.266972 0.281270
vt 0.266972 0.222317
vt 0.266972 0.311098
vt 0.266972 0.281270
vt 0.266972 0.222317
vt 0.266972 0.311098
vt 0.558140 0.281270
vt 0.558140 0.222317
vt 0.655196 0.222317
vt 0.655196 0.281270
vt 0.558140 0.311098
vt 0.655196 0.311098
vt 0.558140 0.281270
vt 0.558140 0.222317
vt 0.558140 0.311098
vt 0.364028 0.311098
vt 0.364028 0.281270
vt 0.461084 0.281270
vt 0.461084 0.311098
vt 0.364028 0.222317
vt 0.461084 0.222317
vt 0.364005 0.311098
vt 0.461084 0.311098
vt 0.461084 0.281270
vt 0.364005 0.281270
vt 0.461084 0.222317
vt 0.364005 0.222317
vt 0.266972 0.281270
vt 0.266972 0.222317
vt 0.266972 0.311098
vt 0.375000 0.000000
vt 0.563603 0.000000
vt 0.563603 0.250000
vt 0.375000 0.250000
vt 0.376561 0.454135
vt 0.393287 0.470861
vt 0.393287 0.518834
vt 0.393287 0.555025
vt 0.302061 0.539136
vt 0.302061 0.454135
vt 0.393287 0.566806
vt 0.393287 0.481806
vt 0.484514 0.465916
vt 0.484514 0.502108
vt 0.484514 0.550080
vt 0.467788 0.566806
vt 0.397393 0.993373
vt 0.331347 0.993373
vt 0.331347 0.935918
vt 0.397393 0.935918
vt 0.617622 0.500000
vt 0.875000 0.500000
vt 0.875000 0.750000
vt 0.617622 0.750000
vt 0.528106 0.935918
vt 0.528106 0.993372
vt 0.484939 0.993373
vt 0.484939 0.935918
vt 0.664063 0.993372
vt 0.664063 0.935918
vt 0.375000 0.000000
vt 0.563603 0.000000
vt 0.563603 0.250000
vt 0.375000 0.250000
vt 0.376561 0.454135
vt 0.393287 0.470861
vt 0.393287 0.518834
vt 0.393287 0.555025
vt 0.302061 0.539136
vt 0.302061 0.454135
vt 0.393287 0.566806
vt 0.393287 0.481806
vt 0.484514 0.465916
vt 0.484514 0.502108
vt 0.484514 0.550080
vt 0.467788 0.566806
vt 0.397393 0.993373
vt 0.331347 0.993373
vt 0.331347 0.935918
vt 0.397393 0.935918
vt 0.617622 0.500000
vt 0.875000 0.500000
vt 0.875000 0.750000
vt 0.617622 0.750000
vt 0.528106 0.935918
vt 0.528106 0.993372
vt 0.484939 0.993373
vt 0.484939 0.935918
vt 0.664063 0.993372
vt 0.664063 0.935918
vn 0.0668 -0.7867 0.6137
vn 0.0665 -0.7867 0.6138
vn 0.0412 -0.7864 0.6163
vn 0.0571 -0.8498 0.5241
vn 0.0568 -0.8498 0.5241
vn 0.0352 -0.8495 0.5264
vn 0.0558 0.8556 0.5147
vn 0.0560 0.8556 0.5146
vn 0.0346 0.8554 0.5169
vn 0.0171 -0.9659 0.2585
vn 0.0470 -0.7068 0.7059
vn 0.0643 -0.2586 0.9638
vn 0.0665 -0.0000 0.9978
vn 0.0643 0.2586 0.9638
vn 0.0470 0.7068 0.7059
vn 0.0171 0.9659 0.2585
vn -0.8603 -0.4875 0.1489
vn -0.8648 -0.4275 0.2633
vn -0.8648 -0.4259 0.2661
vn -0.8601 -0.2479 0.4458
vn -0.8601 -0.2462 0.4468
vn -0.8584 -0.0000 0.5130
vn -0.8601 0.2479 0.4458
vn -0.8601 0.2462 0.4467
vn -0.8648 0.4275 0.2633
vn -0.8648 0.4259 0.2661
vn -0.8603 0.4875 0.1489
vn 0.1713 -0.9659 0.1943
vn 0.4677 -0.7068 0.5307
vn 0.6386 -0.2586 0.7247
vn 0.6611 -0.0000 0.7503
vn 0.6387 0.2586 0.7247
vn 0.4678 0.7068 0.5306
vn 0.1713 0.9659 0.1943
vn 0.7137 -0.4875 -0.5030
vn 0.7997 -0.4257 -0.4235
vn 0.7979 -0.4272 -0.4254
vn 0.9240 -0.2460 -0.2928
vn 0.9234 -0.2475 -0.2934
vn 0.9696 0.0000 -0.2449
vn 0.9240 0.2460 -0.2928
vn 0.9234 0.2475 -0.2934
vn 0.7997 0.4257 -0.4235
vn 0.7979 0.4272 -0.4254
vn 0.7137 0.4875 -0.5030
vn 0.3869 -0.7867 0.4810
vn 0.3871 -0.7867 0.4808
vn 0.3427 -0.7867 0.5134
vn 0.2960 -0.7867 0.5417
vn 0.2958 -0.7867 0.5419
vn 0.2374 -0.7870 0.5695
vn 0.2375 -0.7870 0.5694
vn 0.1737 -0.7868 0.5923
vn 0.1740 -0.7868 0.5922
vn 0.1185 -0.7867 0.6058
vn 0.1184 -0.7867 0.6059
vn 0.3246 0.8556 0.4032
vn 0.3244 0.8556 0.4034
vn 0.2873 0.8556 0.4305
vn 0.2874 0.8556 0.4305
vn 0.2480 0.8556 0.4544
vn 0.2482 0.8556 0.4543
vn 0.1992 0.8558 0.4775
vn 0.1991 0.8558 0.4775
vn 0.1459 0.8557 0.4966
vn 0.1457 0.8557 0.4966
vn 0.0993 0.8556 0.5080
vn 0.3304 -0.8498 0.4107
vn 0.3306 -0.8498 0.4106
vn 0.2926 -0.8498 0.4384
vn 0.2527 -0.8498 0.4626
vn 0.2525 -0.8498 0.4627
vn 0.2027 -0.8500 0.4862
vn 0.2028 -0.8500 0.4862
vn 0.1483 -0.8498 0.5057
vn 0.1486 -0.8498 0.5057
vn 0.1012 -0.8498 0.5173
vn 0.1011 -0.8498 0.5173
vn 0.3725 -0.8500 0.3725
vn 0.3658 0.8558 0.3658
vn 0.4362 -0.7870 0.4362
vn 0.4810 -0.7867 0.3869
vn 0.4808 -0.7867 0.3871
vn 0.4107 -0.8498 0.3304
vn 0.4106 -0.8498 0.3306
vn 0.4032 0.8556 0.3246
vn 0.4033 0.8556 0.3244
vn 0.1943 -0.9659 0.1713
vn 0.5306 -0.7068 0.4678
vn 0.7247 -0.2586 0.6386
vn 0.7503 0.0000 0.6611
vn 0.7247 0.2586 0.6386
vn 0.5307 0.7068 0.4678
vn 0.1942 0.9659 0.1713
vn -0.5029 -0.4876 0.7137
vn -0.4252 -0.4273 0.7978
vn -0.4233 -0.4259 0.7996
vn -0.2932 -0.2476 0.9234
vn -0.2926 -0.2461 0.9240
vn -0.2447 -0.0000 0.9696
vn -0.2932 0.2476 0.9234
vn -0.2926 0.2461 0.9240
vn -0.4252 0.4274 0.7978
vn -0.4233 0.4259 0.7996
vn -0.5029 0.4876 0.7137
vn 0.2585 -0.9659 0.0171
vn 0.7059 -0.7068 0.0470
vn 0.9638 -0.2586 0.0643
vn 0.9978 -0.0000 0.0666
vn 0.9638 0.2586 0.0643
vn 0.7059 0.7068 0.0470
vn 0.2585 0.9659 0.0171
vn 0.1489 -0.4875 -0.8603
vn 0.2661 -0.4259 -0.8648
vn 0.2633 -0.4275 -0.8648
vn 0.4467 -0.2462 -0.8601
vn 0.4458 -0.2479 -0.8601
vn 0.5130 0.0000 -0.8584
vn 0.4467 0.2462 -0.8601
vn 0.4458 0.2479 -0.8601
vn 0.2661 0.4259 -0.8648
vn 0.2633 0.4275 -0.8648
vn 0.1489 0.4875 -0.8603
vn 0.6137 -0.7867 0.0668
vn 0.6138 -0.7867 0.0665
vn 0.6058 -0.7867 0.1185
vn 0.6059 -0.7867 0.1184
vn 0.5923 -0.7868 0.1737
vn 0.5922 -0.7868 0.1740
vn 0.5695 -0.7870 0.2375
vn 0.5694 -0.7870 0.2375
vn 0.5417 -0.7867 0.2960
vn 0.5418 -0.7867 0.2958
vn 0.5134 -0.7867 0.3427
vn 0.5147 0.8556 0.0558
vn 0.5146 0.8556 0.0561
vn 0.5080 0.8556 0.0993
vn 0.4966 0.8557 0.1459
vn 0.4966 0.8557 0.1457
vn 0.4775 0.8558 0.1992
vn 0.4775 0.8558 0.1991
vn 0.4544 0.8556 0.2480
vn 0.4543 0.8556 0.2482
vn 0.4305 0.8556 0.2874
vn 0.5241 -0.8498 0.0571
vn 0.5241 -0.8498 0.0568
vn 0.5173 -0.8498 0.1012
vn 0.5173 -0.8498 0.1011
vn 0.5057 -0.8498 0.1483
vn 0.5057 -0.8498 0.1486
vn 0.4862 -0.8500 0.2027
vn 0.4862 -0.8500 0.2028
vn 0.4626 -0.8498 0.2527
vn 0.4627 -0.8498 0.2525
vn 0.4384 -0.8498 0.2926
vn 0.5264 -0.8495 0.0352
vn 0.5169 0.8554 0.0346
vn 0.6163 -0.7864 0.0412
vn 0.0171 0.9658 0.2586
vn 0.0469 0.7065 0.7061
vn 0.0642 0.2584 0.9639
vn 0.0642 -0.2584 0.9639
vn 0.0469 -0.7065 0.7061
vn 0.0171 -0.9658 0.2586
vn 0.0281 0.9659 0.2573
vn 0.0174 0.9659 0.2584
vn 0.0279 0.9659 0.2573
vn 0.0767 0.7071 0.7029
vn 0.0475 0.7069 0.7057
vn 0.0764 0.7071 0.7030
vn 0.1083 0.0000 0.9941
vn 0.0671 0.0000 0.9977
vn 0.0648 0.2587 0.9638
vn 0.1045 0.2588 0.9603
vn 0.1045 -0.2588 0.9603
vn 0.0648 -0.2587 0.9638
vn 0.0764 -0.7071 0.7030
vn 0.0475 -0.7069 0.7057
vn 0.0767 -0.7071 0.7029
vn 0.0279 -0.9659 0.2573
vn 0.0174 -0.9659 0.2584
vn 0.0281 -0.9659 0.2573
vn 0.8774 -0.4259 0.2209
vn 0.8848 -0.2437 0.3971
vn 0.8849 -0.2423 0.3979
vn 0.8775 -0.4243 0.2234
vn -0.8583 -0.4314 0.2779
vn -0.8547 -0.4940 0.1596
vn -0.8584 -0.4327 0.2757
vn 0.8875 0.0000 0.4608
vn -0.8521 -0.2492 0.4603
vn -0.8521 -0.2504 0.4596
vn 0.8848 0.2438 0.3971
vn 0.8849 0.2423 0.3979
vn -0.8498 0.0000 0.5271
vn 0.8774 0.4259 0.2209
vn 0.8775 0.4243 0.2234
vn -0.8521 0.2492 0.4603
vn -0.8521 0.2504 0.4596
vn 0.0172 0.9659 0.2584
vn 0.0471 0.7069 0.7058
vn 0.0667 -0.0000 0.9978
vn 0.0644 0.2586 0.9638
vn 0.0644 -0.2586 0.9638
vn 0.0471 -0.7069 0.7058
vn 0.0172 -0.9659 0.2584
vn 0.8652 -0.4895 0.1089
vn -0.8547 0.4940 0.1596
vn -0.8583 0.4314 0.2779
vn -0.8584 0.4327 0.2757
vn 0.8652 0.4895 0.1089
vn 0.1715 0.9658 0.1943
vn 0.1829 0.9660 0.1829
vn 0.4680 0.7066 0.5307
vn 0.4999 0.7073 0.4999
vn 0.6612 0.0000 0.7502
vn 0.6387 0.2585 0.7247
vn 0.6830 0.2589 0.6830
vn 0.7071 0.0000 0.7071
vn 0.6387 -0.2585 0.7247
vn 0.6830 -0.2589 0.6830
vn 0.4680 -0.7066 0.5307
vn 0.4999 -0.7073 0.4999
vn 0.1715 -0.9658 0.1943
vn 0.1829 -0.9660 0.1829
vn 0.1623 0.9659 0.2016
vn 0.1624 0.9659 0.2015
vn 0.1711 0.9659 0.1944
vn 0.4434 0.7071 0.5507
vn 0.4437 0.7071 0.5506
vn 0.4673 0.7069 0.5309
vn 0.6272 -0.0000 0.7788
vn 0.6060 0.2588 0.7522
vn 0.6382 0.2587 0.7251
vn 0.6607 0.0000 0.7506
vn 0.6060 -0.2588 0.7522
vn 0.6382 -0.2587 0.7251
vn 0.4437 -0.7071 0.5506
vn 0.4434 -0.7071 0.5507
vn 0.4673 -0.7069 0.5309
vn 0.1624 -0.9659 0.2015
vn 0.1623 -0.9659 0.2016
vn 0.1711 -0.9659 0.1944
vn -0.4639 -0.4262 0.7766
vn -0.4624 -0.4248 0.7783
vn -0.3438 -0.2427 0.9071
vn -0.3443 -0.2440 0.9066
vn 0.8034 -0.4312 -0.4105
vn 0.8021 -0.4323 -0.4120
vn 0.7174 -0.4939 -0.4914
vn -0.3011 0.0000 0.9536
vn 0.9279 -0.2489 -0.2775
vn 0.9275 -0.2501 -0.2780
vn -0.3438 0.2427 0.9071
vn -0.3443 0.2440 0.9066
vn 0.9735 -0.0000 -0.2288
vn -0.4624 0.4248 0.7783
vn -0.4640 0.4262 0.7766
vn 0.9279 0.2489 -0.2775
vn 0.9275 0.2501 -0.2780
vn 0.1713 0.9659 0.1942
vn 0.4676 0.7069 0.5306
vn 0.6386 0.2587 0.7248
vn 0.6386 -0.2587 0.7248
vn 0.4676 -0.7069 0.5307
vn 0.1713 -0.9659 0.1942
vn -0.5347 -0.4898 0.6886
vn 0.7174 0.4939 -0.4914
vn 0.8021 0.4323 -0.4120
vn 0.8034 0.4312 -0.4105
vn -0.5347 0.4898 0.6886
vn 0.6267 0.0000 0.7792
vn 0.5551 0.0000 0.8318
vn 0.4795 0.0000 0.8776
vn 0.1918 0.0000 0.9814
vn 0.2815 0.0000 0.9596
vn 0.1242 -0.9659 0.2271
vn 0.1243 -0.9659 0.2271
vn 0.1440 -0.9659 0.2151
vn 0.3394 -0.7070 0.6205
vn 0.3396 -0.7070 0.6203
vn 0.3934 -0.7070 0.5876
vn 0.3935 -0.7070 0.5876
vn 0.4637 -0.2588 0.8474
vn 0.4801 0.0000 0.8772
vn 0.5564 0.0000 0.8309
vn 0.5374 -0.2588 0.8026
vn 0.4637 0.2588 0.8474
vn 0.5374 0.2588 0.8026
vn 0.3396 0.7070 0.6203
vn 0.3394 0.7070 0.6205
vn 0.3935 0.7070 0.5876
vn 0.3934 0.7070 0.5876
vn 0.1243 0.9659 0.2271
vn 0.1242 0.9659 0.2271
vn 0.1440 0.9659 0.2151
vn 0.0730 -0.9659 0.2483
vn 0.0497 -0.9659 0.2541
vn 0.0496 -0.9659 0.2541
vn 0.0728 -0.9659 0.2484
vn 0.1993 -0.7071 0.6785
vn 0.1357 -0.7070 0.6941
vn 0.1356 -0.7070 0.6941
vn 0.1990 -0.7071 0.6785
vn 0.2720 -0.2588 0.9268
vn 0.1853 -0.2587 0.9480
vn 0.1853 0.2587 0.9480
vn 0.2720 0.2588 0.9268
vn 0.1990 0.7071 0.6785
vn 0.1356 0.7070 0.6941
vn 0.1357 0.7070 0.6941
vn 0.1993 0.7071 0.6785
vn 0.0728 0.9659 0.2484
vn 0.0496 0.9659 0.2541
vn 0.0497 0.9659 0.2541
vn 0.0730 0.9659 0.2483
vn 0.3850 0.0000 0.9229
vn 0.0672 0.0000 0.9977
vn 0.0996 0.9660 0.2387
vn 0.0996 0.9660 0.2388
vn 0.2722 0.7073 0.6524
vn 0.2721 0.7073 0.6524
vn 0.3718 0.2589 0.8915
vn 0.3718 -0.2589 0.8915
vn 0.2721 -0.7073 0.6525
vn 0.2722 -0.7073 0.6524
vn 0.0996 -0.9660 0.2388
vn 0.0996 -0.9660 0.2387
vn 0.1943 0.9658 0.1715
vn 0.5307 0.7066 0.4680
vn 0.7502 0.0000 0.6612
vn 0.7247 0.2585 0.6388
vn 0.7247 -0.2585 0.6388
vn 0.5307 -0.7066 0.4680
vn 0.1943 -0.9658 0.1715
vn 0.2017 0.9659 0.1622
vn 0.1944 0.9659 0.1711
vn 0.2016 0.9659 0.1623
vn 0.5510 0.7071 0.4431
vn 0.5309 0.7069 0.4673
vn 0.5508 0.7071 0.4433
vn 0.7792 -0.0000 0.6267
vn 0.7506 -0.0000 0.6607
vn 0.7251 0.2587 0.6382
vn 0.7526 0.2588 0.6055
vn 0.7526 -0.2588 0.6055
vn 0.7251 -0.2587 0.6382
vn 0.5508 -0.7071 0.4433
vn 0.5309 -0.7069 0.4673
vn 0.5510 -0.7071 0.4431
vn 0.2016 -0.9659 0.1623
vn 0.1944 -0.9659 0.1711
vn 0.2017 -0.9659 0.1622
vn 0.7766 -0.4267 -0.4636
vn 0.9067 -0.2443 -0.3438
vn 0.9073 -0.2430 -0.3433
vn 0.7783 -0.4253 -0.4620
vn -0.4105 -0.4312 0.8034
vn -0.4914 -0.4939 0.7174
vn -0.4120 -0.4324 0.8021
vn 0.9538 0.0000 -0.3005
vn -0.2774 -0.2490 0.9279
vn -0.2779 -0.2501 0.9275
vn 0.9067 0.2443 -0.3438
vn 0.9072 0.2430 -0.3433
vn -0.2288 0.0000 0.9735
vn 0.7766 0.4267 -0.4636
vn 0.7782 0.4253 -0.4620
vn -0.2775 0.2490 0.9279
vn -0.2779 0.2501 0.9275
vn 0.5307 0.7069 0.4676
vn 0.7503 -0.0000 0.6610
vn 0.7248 0.2587 0.6386
vn 0.7248 -0.2587 0.6386
vn 0.5307 -0.7069 0.4676
vn 0.1942 -0.9659 0.1713
vn 0.6885 -0.4903 -0.5344
vn -0.4914 0.4939 0.7174
vn -0.4105 0.4312 0.8034
vn -0.4120 0.4324 0.8021
vn 0.6885 0.4903 -0.5344
vn 0.2586 0.9658 0.0171
vn 0.7061 0.7065 0.0469
vn 0.9978 0.0000 0.0665
vn 0.9639 0.2584 0.0642
vn 0.9639 -0.2584 0.0642
vn 0.7061 -0.7065 0.0469
vn 0.2586 -0.9658 0.0171
vn 0.2573 0.9659 0.0279
vn 0.2573 0.9659 0.0277
vn 0.2584 0.9659 0.0174
vn 0.7030 0.7071 0.0761
vn 0.7030 0.7071 0.0758
vn 0.7057 0.7069 0.0475
vn 0.9942 -0.0000 0.1076
vn 0.9603 0.2588 0.1037
vn 0.9638 0.2587 0.0648
vn 0.9977 0.0000 0.0671
vn 0.9603 -0.2588 0.1037
vn 0.9638 -0.2587 0.0648
vn 0.7030 -0.7071 0.0758
vn 0.7030 -0.7071 0.0761
vn 0.7057 -0.7069 0.0475
vn 0.2573 -0.9659 0.0277
vn 0.2573 -0.9659 0.0279
vn 0.2584 -0.9659 0.0174
vn 0.2210 -0.4261 0.8773
vn 0.2235 -0.4246 0.8774
vn 0.3981 -0.2424 0.8847
vn 0.3973 -0.2439 0.8847
vn 0.2777 -0.4310 -0.8586
vn 0.2755 -0.4323 -0.8586
vn 0.1595 -0.4935 -0.8550
vn 0.4610 -0.0000 0.8874
vn 0.4599 -0.2489 -0.8523
vn 0.4592 -0.2502 -0.8524
vn 0.3981 0.2424 0.8847
vn 0.3973 0.2439 0.8847
vn 0.5267 0.0000 -0.8501
vn 0.2235 0.4246 0.8774
vn 0.2210 0.4261 0.8773
vn 0.4599 0.2489 -0.8523
vn 0.4592 0.2502 -0.8524
vn 0.2584 0.9659 0.0172
vn 0.7058 0.7069 0.0471
vn 0.9978 -0.0000 0.0667
vn 0.9638 0.2586 0.0644
vn 0.9638 -0.2586 0.0644
vn 0.7058 -0.7069 0.0471
vn 0.2584 -0.9659 0.0172
vn 0.1089 -0.4897 0.8651
vn 0.1595 0.4935 -0.8550
vn 0.2755 0.4323 -0.8586
vn 0.2777 0.4310 -0.8586
vn 0.1089 0.4897 0.8650
vn 0.9941 0.0000 0.1083
vn 0.9814 0.0000 0.1918
vn 0.9596 0.0000 0.2815
vn 0.8317 0.0000 0.5552
vn 0.8776 0.0000 0.4795
vn 0.2484 -0.9659 0.0728
vn 0.2484 -0.9659 0.0727
vn 0.2542 -0.9659 0.0493
vn 0.6786 -0.7071 0.1988
vn 0.6787 -0.7071 0.1985
vn 0.6943 -0.7070 0.1346
vn 0.6943 -0.7070 0.1347
vn 0.9270 -0.2588 0.2714
vn 0.9598 -0.0000 0.2808
vn 0.9817 -0.0000 0.1904
vn 0.9483 -0.2588 0.1839
vn 0.9270 0.2588 0.2714
vn 0.9483 0.2588 0.1839
vn 0.6787 0.7071 0.1985
vn 0.6786 0.7071 0.1988
vn 0.6943 0.7070 0.1347
vn 0.6943 0.7070 0.1346
vn 0.2484 0.9659 0.0727
vn 0.2484 0.9659 0.0728
vn 0.2542 0.9659 0.0493
vn 0.2272 -0.9659 0.1240
vn 0.2153 -0.9659 0.1437
vn 0.2272 -0.9659 0.1241
vn 0.6207 -0.7070 0.3389
vn 0.5882 -0.7070 0.3926
vn 0.6206 -0.7070 0.3391
vn 0.8478 -0.2588 0.4630
vn 0.8034 -0.2588 0.5363
vn 0.8776 -0.0000 0.4794
vn 0.8034 0.2588 0.5363
vn 0.8478 0.2588 0.4630
vn 0.6206 0.7070 0.3391
vn 0.5882 0.7070 0.3926
vn 0.6207 0.7070 0.3389
vn 0.2272 0.9659 0.1241
vn 0.2153 0.9659 0.1437
vn 0.2272 0.9659 0.1240
vn 0.9977 0.0000 0.0672
vn 0.9229 0.0000 0.3850
vn 0.2387 0.9660 0.0996
vn 0.2388 0.9660 0.0996
vn 0.6524 0.7073 0.2722
vn 0.6525 0.7073 0.2721
vn 0.8915 0.2590 0.3718
vn 0.8915 -0.2590 0.3718
vn 0.6525 -0.7073 0.2721
vn 0.6524 -0.7073 0.2722
vn 0.2388 -0.9660 0.0996
vn 0.2387 -0.9660 0.0996
vn -0.0000 -1.0000 0.0000
vn 0.0000 1.0000 -0.0000
vn -0.9213 0.0000 0.3889
vn 0.9264 0.0000 -0.3766
vn 0.3285 0.0000 0.9445
vn -0.3320 0.0000 -0.9433
vn -0.3766 0.0000 0.9264
vn 0.3889 0.0000 -0.9213
vn 0.9445 0.0000 0.3285
vn -0.9433 0.0000 -0.3320
vn 0.3645 0.6490 0.6678
vn 0.3647 0.6490 0.6677
vn 0.2928 0.6493 0.7019
vn 0.2927 0.6493 0.7020
vn 0.2144 0.6491 0.7299
vn 0.2141 0.6491 0.7300
vn 0.4771 0.6490 0.5926
vn 0.4768 0.6490 0.5928
vn 0.4223 0.6490 0.6328
vn 0.4224 0.6490 0.6328
vn 0.0820 0.6489 0.7564
vn 0.1460 0.6490 0.7467
vn 0.1459 0.6490 0.7467
vn 0.0823 0.6489 0.7564
vn 0.5377 0.6494 0.5377
vn 0.0508 0.6486 0.7594
vn 0.7299 0.6491 0.2144
vn 0.7300 0.6491 0.2141
vn 0.7019 0.6493 0.2928
vn 0.7020 0.6493 0.2927
vn 0.6678 0.6490 0.3645
vn 0.6677 0.6490 0.3647
vn 0.7564 0.6489 0.0820
vn 0.7564 0.6489 0.0823
vn 0.7467 0.6490 0.1459
vn 0.7467 0.6490 0.1460
vn 0.5926 0.6490 0.4771
vn 0.6328 0.6490 0.4224
vn 0.5928 0.6490 0.4769
vn 0.7594 0.6486 0.0508
vn -0.3543 0.0000 -0.9351
vn -0.9194 0.0000 0.3933
vn 0.9282 -0.0000 -0.3722
vn 0.3488 0.1385 0.9269
vn -0.0316 0.9960 -0.0837
vn 0.2493 -0.7069 0.6619
vn 0.2991 -0.5280 0.7948
vn -0.9351 0.0000 -0.3543
vn -0.3722 0.0000 0.9282
vn 0.3933 0.0000 -0.9194
vn 0.9269 0.1385 0.3488
vn -0.0837 0.9960 -0.0316
vn 0.6619 -0.7069 0.2493
vn 0.7948 -0.5280 0.2991
usemtl MI_Trim_02
s 1
f 217/1/1 212/2/2 8/3/3 10/4/3
f 218/5/4 213/6/5 14/7/6 12/8/6
f 213/9/7 214/10/8 16/11/9 14/12/9
f 52/13/10 31/14/10 32/15/10 53/16/10
f 53/16/11 32/15/11 33/17/11 54/18/11
f 54/18/12 33/17/12 34/19/13 55/20/13
f 55/20/13 34/19/13 35/21/14 56/22/14
f 56/22/15 35/21/15 36/23/15 57/24/15
f 57/24/16 36/23/16 37/25/16 58/26/16
f 31/27/17 38/28/17 39/29/18 32/30/19
f 32/30/19 39/29/18 40/31/20 33/32/21
f 33/32/21 40/31/20 41/33/22 34/34/22
f 34/34/22 41/33/22 42/35/23 35/36/24
f 35/36/24 42/35/23 43/37/25 36/38/26
f 36/38/26 43/37/25 44/39/27 37/40/27
f 101/41/28 102/42/28 81/43/28 80/44/28
f 102/42/29 103/45/29 82/46/29 81/43/29
f 103/45/30 104/47/31 83/48/31 82/46/30
f 104/47/31 105/49/32 84/50/32 83/48/31
f 105/49/33 106/51/33 85/52/33 84/50/33
f 106/51/34 107/53/34 86/54/34 85/52/34
f 80/55/35 81/56/36 88/57/37 87/58/35
f 81/56/36 82/59/38 89/60/39 88/57/37
f 82/59/38 83/61/40 90/62/40 89/60/39
f 83/61/40 84/63/41 91/64/42 90/62/40
f 84/63/41 85/65/43 92/66/44 91/64/42
f 85/65/43 86/67/45 93/68/45 92/66/44
f 188/69/46 190/70/47 159/71/48 153/72/48
f 202/73/49 201/74/50 160/75/51 163/76/52
f 209/77/53 208/78/54 161/79/55 162/80/56
f 189/81/57 191/82/58 122/83/59 128/84/60
f 198/85/61 196/86/62 155/87/63 9/88/64
f 205/89/65 211/90/66 166/91/67 165/92/67
f 185/93/68 189/94/69 128/95/70 151/96/70
f 199/97/71 198/98/72 9/99/73 158/100/74
f 210/101/75 205/102/76 165/103/77 164/104/78
f 11/105/79 13/106/79 189/94/69 185/93/68
f 13/107/80 15/108/80 191/82/58 189/81/57
f 152/109/81 7/110/81 190/70/47 188/69/46
f 151/96/70 128/95/70 198/98/72 199/97/71
f 128/84/60 122/83/59 196/86/62 198/85/61
f 153/72/48 159/71/48 201/74/50 202/73/49
f 158/100/74 9/99/73 205/102/76 210/101/75
f 9/88/64 155/87/63 211/90/66 205/89/65
f 163/76/52 160/75/51 208/78/54 209/77/53
f 165/92/67 166/91/67 214/10/8 213/9/7
f 164/104/78 165/103/77 213/6/5 218/5/4
f 162/80/56 161/79/55 212/2/2 217/1/1
f 449/111/82 444/112/83 7/113/81 152/114/81
f 450/115/84 445/116/85 13/117/79 11/118/79
f 445/119/86 446/120/87 15/121/80 13/122/80
f 286/123/88 265/124/88 266/125/88 287/126/88
f 287/126/89 266/125/89 267/127/89 288/128/89
f 288/128/90 267/127/90 268/129/91 289/130/91
f 289/130/91 268/129/91 269/131/92 290/132/92
f 290/132/93 269/131/93 270/133/93 291/134/93
f 291/134/94 270/133/94 271/135/94 292/136/94
f 265/137/95 272/138/95 273/139/96 266/140/97
f 266/140/97 273/139/96 274/141/98 267/142/99
f 267/142/99 274/141/98 275/143/100 268/144/100
f 268/144/100 275/143/100 276/145/101 269/146/102
f 269/146/102 276/145/101 277/147/103 270/148/104
f 270/148/104 277/147/103 278/149/105 271/150/105
f 335/151/106 336/152/106 315/153/106 314/154/106
f 336/152/107 337/155/107 316/156/107 315/153/107
f 337/155/108 338/157/109 317/158/109 316/156/108
f 338/157/109 339/159/110 318/160/110 317/158/109
f 339/159/111 340/161/111 319/162/111 318/160/111
f 340/161/112 341/163/112 320/164/112 319/162/112
f 314/165/113 315/166/114 322/167/115 321/168/113
f 315/166/114 316/169/116 323/170/117 322/167/115
f 316/169/116 317/171/118 324/172/118 323/170/117
f 317/171/118 318/173/119 325/174/120 324/172/118
f 318/173/119 319/175/121 326/176/122 325/174/120
f 319/175/121 320/177/123 327/178/123 326/176/122
f 420/179/124 422/180/125 391/181/126 385/182/127
f 434/183/128 433/184/129 392/185/130 395/186/131
f 441/187/132 440/188/133 393/189/134 394/190/134
f 421/191/135 423/192/136 356/193/137 361/194/137
f 430/195/138 428/196/139 387/197/140 254/198/141
f 437/199/142 443/200/143 398/201/144 397/202/144
f 417/203/145 421/204/146 361/205/147 383/206/148
f 431/207/149 430/208/150 254/209/151 390/210/152
f 442/211/153 437/212/154 397/213/155 396/214/155
f 255/215/156 256/216/156 421/204/146 417/203/145
f 256/217/157 257/218/157 423/192/136 421/191/135
f 384/219/158 253/220/158 422/180/125 420/179/124
f 383/206/148 361/205/147 430/208/150 431/207/149
f 361/194/137 356/193/137 428/196/139 430/195/138
f 385/182/127 391/181/126 433/184/129 434/183/128
f 390/210/152 254/209/151 437/212/154 442/211/153
f 254/198/141 387/197/140 443/200/143 437/199/142
f 395/186/131 392/185/130 440/188/133 441/187/132
f 397/202/144 398/201/144 446/120/87 445/119/86
f 396/214/155 397/213/155 445/116/85 450/115/84
f 394/190/134 393/189/134 444/112/83 449/111/82
usemtl MI_Trim_01
f 43/221/159 29/222/159 30/223/159 44/224/159
f 42/225/160 28/226/160 29/222/160 43/221/160
f 41/227/13 27/228/13 28/226/161 42/225/161
f 40/229/162 26/230/162 27/228/13 41/227/13
f 39/231/163 25/232/163 26/230/163 40/229/163
f 38/233/164 24/234/164 25/232/164 39/231/164
f 233/235/165 50/236/166 51/237/166 234/238/167
f 232/239/168 49/240/169 50/236/169 233/235/170
f 231/241/171 48/242/172 49/240/173 232/239/174
f 230/243/175 47/244/176 48/242/172 231/241/171
f 229/245/177 46/246/178 47/244/178 230/243/179
f 228/247/180 45/248/181 46/246/181 229/245/182
f 53/249/183 54/250/184 63/251/185 61/252/186
f 46/253/187 45/254/188 60/255/188 62/256/189
f 54/250/184 55/257/190 65/258/190 63/251/185
f 47/259/191 46/253/187 62/256/189 64/260/192
f 55/257/190 56/261/193 67/262/194 65/258/190
f 48/263/195 47/259/191 64/260/192 66/264/195
f 56/261/193 57/265/196 69/266/197 67/262/194
f 49/267/198 48/263/195 66/264/195 68/268/199
f 70/269/200 69/266/200 71/270/200 72/271/200
f 68/268/201 67/262/201 69/266/201 70/269/201
f 66/264/202 65/258/202 67/262/203 68/268/203
f 64/260/204 63/251/204 65/258/202 66/264/202
f 62/256/205 61/252/205 63/251/205 64/260/205
f 60/255/206 59/272/206 61/252/206 62/256/206
f 52/273/207 53/249/183 61/252/186 59/272/207
f 51/274/208 50/275/209 70/269/210 72/271/208
f 50/275/209 49/267/198 68/268/199 70/269/210
f 57/265/196 58/276/211 71/270/211 69/266/197
f 92/277/212 93/278/212 79/279/213 78/280/213
f 91/281/214 92/277/214 78/280/215 77/282/215
f 90/283/216 91/281/217 77/282/218 76/284/219
f 89/285/220 90/283/216 76/284/219 75/286/221
f 88/287/222 89/285/222 75/286/223 74/288/223
f 87/289/224 88/287/224 74/288/225 73/290/225
f 247/291/226 248/292/227 100/293/228 99/294/228
f 246/295/229 247/291/230 99/294/231 98/296/231
f 245/297/232 246/295/233 98/296/234 97/298/235
f 244/299/236 245/297/232 97/298/235 96/300/237
f 243/301/238 244/299/239 96/300/240 95/302/240
f 242/303/241 243/301/242 95/302/243 94/304/243
f 102/305/244 110/306/245 112/307/246 103/308/247
f 95/309/248 111/310/249 109/311/250 94/312/250
f 103/308/247 112/307/246 114/313/251 104/314/251
f 96/315/252 113/316/253 111/310/249 95/309/248
f 104/314/251 114/313/251 116/317/254 105/318/255
f 97/319/256 115/320/256 113/316/253 96/315/252
f 105/318/255 116/317/254 118/321/257 106/322/258
f 98/323/259 117/324/260 115/320/256 97/319/256
f 119/325/261 121/326/261 120/327/261 118/321/261
f 117/324/262 119/325/262 118/321/262 116/317/262
f 115/320/31 117/324/263 116/317/263 114/313/31
f 113/316/264 115/320/31 114/313/31 112/307/264
f 111/310/265 113/316/265 112/307/265 110/306/265
f 109/311/266 111/310/266 110/306/266 108/328/266
f 101/329/267 108/328/267 110/306/245 102/305/244
f 100/330/268 121/326/268 119/325/269 99/331/270
f 99/331/270 119/325/269 117/324/260 98/323/259
f 106/322/258 118/321/257 120/327/271 107/332/271
f 191/333/272 186/334/272 123/335/273 122/336/273
f 202/337/274 200/338/274 154/339/273 153/340/273
f 214/341/171 166/342/275 127/343/275 215/344/171
f 207/345/276 209/346/276 162/347/275 126/348/275
f 216/349/171 126/348/275 162/347/275 217/350/171
f 197/351/274 123/352/273 154/353/273 200/354/274
f 187/355/272 188/356/272 153/340/273 154/339/273
f 211/357/276 206/358/276 127/343/275 166/342/275
f 207/359/276 126/360/275 127/361/275 206/362/276
f 186/363/272 187/364/272 154/353/273 123/352/273
f 215/365/171 127/361/275 126/360/275 216/366/171
f 196/367/274 122/336/273 123/335/273 197/368/274
f 235/369/277 236/370/278 172/371/279 171/372/279
f 236/370/280 237/373/281 173/374/282 172/371/283
f 237/373/284 238/375/285 174/376/286 173/374/287
f 238/375/285 239/377/288 175/378/289 174/376/286
f 239/377/290 240/379/291 176/380/292 175/378/293
f 240/379/294 241/381/295 177/382/296 176/380/296
f 221/383/297 178/384/298 179/385/299 222/386/300
f 222/386/301 179/385/302 180/387/303 223/388/304
f 223/388/305 180/387/306 181/389/275 224/390/276
f 224/390/276 181/389/275 182/391/307 225/392/308
f 225/392/309 182/391/310 183/393/311 226/394/312
f 226/394/313 183/393/314 184/395/315 227/396/316
f 124/397/219 150/398/219 187/364/272 186/363/272
f 150/399/219 152/400/219 188/356/272 187/355/272
f 15/401/219 124/402/219 186/334/272 191/333/272
f 155/403/317 196/367/274 197/368/274 156/404/317
f 156/405/317 197/351/274 200/354/274 157/406/317
f 163/407/317 157/408/317 200/338/274 202/337/274
f 157/406/317 207/359/276 206/362/276 156/405/317
f 155/403/317 156/404/317 206/358/276 211/357/276
f 157/408/317 163/407/317 209/346/276 207/345/276
f 129/409/318 215/365/171 216/366/171 125/410/318
f 125/411/318 216/349/171 217/350/171 10/412/318
f 16/413/318 214/341/171 215/344/171 129/414/318
f 22/415/319 226/394/313 227/396/316 23/416/320
f 21/417/321 225/392/309 226/394/312 22/415/322
f 20/418/317 224/390/276 225/392/308 21/417/323
f 19/419/324 223/388/305 224/390/276 20/418/317
f 18/420/325 222/386/301 223/388/304 19/419/326
f 17/421/327 221/383/297 222/386/300 18/420/328
f 178/384/298 228/247/180 229/245/182 179/385/299
f 179/385/302 229/245/177 230/243/179 180/387/303
f 180/387/306 230/243/175 231/241/171 181/389/275
f 181/389/275 231/241/171 232/239/174 182/391/307
f 182/391/310 232/239/168 233/235/170 183/393/311
f 183/393/314 233/235/165 234/238/167 184/395/315
f 22/415/319 23/416/320 241/381/295 240/379/294
f 21/417/321 22/415/322 240/379/291 239/377/290
f 20/418/317 21/417/323 239/377/288 238/375/285
f 19/419/324 20/418/317 238/375/285 237/373/284
f 18/420/325 19/419/326 237/373/281 236/370/280
f 17/421/327 18/420/328 236/370/278 235/369/277
f 171/372/279 172/371/279 243/301/242 242/303/241
f 172/371/283 173/374/282 244/299/239 243/301/238
f 173/374/287 174/376/286 245/297/232 244/299/236
f 174/376/286 175/378/289 246/295/233 245/297/232
f 175/378/293 176/380/292 247/291/230 246/295/229
f 176/380/296 177/382/296 248/292/227 247/291/226
f 277/422/329 78/280/213 79/279/213 278/423/329
f 276/424/330 77/282/215 78/280/215 277/422/330
f 275/425/331 76/284/219 77/282/218 276/424/332
f 274/426/333 75/286/221 76/284/219 275/425/331
f 273/427/334 74/288/223 75/286/223 274/426/334
f 272/428/335 73/290/225 74/288/225 273/427/335
f 465/429/336 284/430/337 285/431/337 466/432/338
f 464/433/339 283/434/340 284/430/340 465/429/341
f 463/435/342 282/436/343 283/434/344 464/433/345
f 462/437/346 281/438/347 282/436/343 463/435/342
f 461/439/348 280/440/349 281/438/349 462/437/350
f 460/441/351 279/442/352 280/440/352 461/439/353
f 287/443/354 288/444/355 297/445/356 295/446/357
f 280/447/358 279/448/359 294/449/359 296/450/360
f 288/444/355 289/451/361 299/452/361 297/445/356
f 281/453/362 280/447/358 296/450/360 298/454/363
f 289/451/361 290/455/364 301/456/365 299/452/361
f 282/457/366 281/453/362 298/454/363 300/458/366
f 290/455/364 291/459/367 303/460/368 301/456/365
f 283/461/369 282/457/366 300/458/366 302/462/370
f 304/463/94 303/460/94 305/464/94 306/465/94
f 302/462/371 301/456/371 303/460/371 304/463/371
f 300/458/372 299/452/372 301/456/373 302/462/373
f 298/454/374 297/445/374 299/452/372 300/458/372
f 296/450/375 295/446/375 297/445/375 298/454/375
f 294/449/376 293/466/376 295/446/376 296/450/376
f 286/467/377 287/443/354 295/446/357 293/466/377
f 285/468/378 284/469/379 304/463/380 306/465/378
f 284/469/379 283/461/369 302/462/370 304/463/380
f 291/459/367 292/470/381 305/464/381 303/460/368
f 326/471/382 327/472/382 313/473/382 312/474/382
f 325/475/383 326/471/383 312/474/383 311/476/383
f 324/477/384 325/475/385 311/476/385 310/478/384
f 323/479/386 324/477/384 310/478/384 309/480/386
f 322/481/387 323/479/387 309/480/387 308/482/387
f 321/483/388 322/481/388 308/482/388 307/484/388
f 479/485/389 480/486/390 334/487/391 333/488/391
f 478/489/392 479/485/393 333/488/394 332/490/394
f 477/491/395 478/489/396 332/490/397 331/492/398
f 476/493/399 477/491/395 331/492/398 330/494/400
f 475/495/401 476/493/402 330/494/403 329/496/403
f 474/497/404 475/495/405 329/496/406 328/498/406
f 336/499/407 344/500/408 346/501/409 337/502/410
f 329/503/411 345/504/412 343/505/413 328/506/413
f 337/502/410 346/501/409 348/507/414 338/508/414
f 330/509/415 347/510/416 345/504/412 329/503/411
f 338/508/414 348/507/414 350/511/417 339/512/418
f 331/513/419 349/514/419 347/510/416 330/509/415
f 339/512/418 350/511/417 352/515/420 340/516/421
f 332/517/422 351/518/423 349/514/419 331/513/419
f 353/519/424 355/520/424 354/521/424 352/515/424
f 351/518/425 353/519/425 352/515/425 350/511/425
f 349/514/426 351/518/427 350/511/427 348/507/426
f 347/510/428 349/514/426 348/507/426 346/501/428
f 345/504/429 347/510/429 346/501/429 344/500/429
f 343/505/430 345/504/430 344/500/430 342/522/430
f 335/523/431 342/522/431 344/500/408 336/499/407
f 334/524/432 355/520/432 353/519/433 333/525/434
f 333/525/434 353/519/433 351/518/423 332/517/422
f 340/516/421 352/515/420 354/521/435 341/526/435
f 423/527/436 418/528/436 357/529/437 356/530/437
f 434/531/438 432/532/438 386/533/437 385/534/437
f 446/535/342 398/536/439 360/537/439 447/538/342
f 439/539/440 441/540/440 394/541/439 359/542/439
f 448/543/342 359/542/439 394/541/439 449/544/342
f 429/545/438 357/546/437 386/547/437 432/548/438
f 419/549/436 420/550/436 385/534/437 386/533/437
f 443/551/440 438/552/440 360/537/439 398/536/439
f 439/553/440 359/554/439 360/555/439 438/556/440
f 418/557/436 419/558/436 386/547/437 357/546/437
f 447/559/342 360/555/439 359/554/439 448/560/342
f 428/561/438 356/530/437 357/529/437 429/562/438
f 467/563/441 468/564/442 404/565/443 403/566/443
f 468/564/444 469/567/445 405/568/446 404/565/447
f 469/567/448 470/569/449 406/570/450 405/568/451
f 470/569/449 471/571/452 407/572/453 406/570/450
f 471/571/454 472/573/455 408/574/456 407/572/457
f 472/573/458 473/575/459 409/576/460 408/574/460
f 453/577/461 410/578/462 411/579/462 454/580/463
f 454/580/464 411/579/465 412/581/465 455/582/466
f 455/582/467 412/581/468 413/583/439 456/584/469
f 456/584/469 413/583/439 414/585/470 457/586/471
f 457/586/472 414/585/473 415/587/473 458/588/474
f 458/588/475 415/587/476 416/589/476 459/590/477
f 358/591/478 382/592/478 419/558/436 418/557/436
f 382/593/478 384/594/478 420/550/436 419/549/436
f 257/595/478 358/596/478 418/528/436 423/527/436
f 387/597/479 428/561/438 429/562/438 388/598/479
f 388/599/479 429/545/438 432/548/438 389/600/479
f 395/601/479 389/602/479 432/532/438 434/531/438
f 389/600/479 439/553/440 438/556/440 388/599/479
f 387/597/479 388/598/479 438/552/440 443/551/440
f 389/602/479 395/601/479 441/540/440 439/539/440
f 124/603/219 447/559/342 448/560/342 150/604/219
f 150/399/219 448/543/342 449/544/342 152/400/219
f 15/401/219 446/535/342 447/538/342 124/402/219
f 263/605/480 458/588/475 459/590/477 264/606/481
f 262/607/482 457/586/472 458/588/474 263/605/483
f 261/608/479 456/584/469 457/586/471 262/607/484
f 260/609/485 455/582/467 456/584/469 261/608/479
f 259/610/486 454/580/464 455/582/466 260/609/487
f 258/611/488 453/577/461 454/580/463 259/610/489
f 410/578/462 460/441/351 461/439/353 411/579/462
f 411/579/465 461/439/348 462/437/350 412/581/465
f 412/581/468 462/437/346 463/435/342 413/583/439
f 413/583/439 463/435/342 464/433/345 414/585/470
f 414/585/473 464/433/339 465/429/341 415/587/473
f 415/587/476 465/429/336 466/432/338 416/589/476
f 263/605/480 264/606/481 473/575/459 472/573/458
f 262/607/482 263/605/483 472/573/455 471/571/454
f 261/608/479 262/607/484 471/571/452 470/569/449
f 260/609/485 261/608/479 470/569/449 469/567/448
f 259/610/486 260/609/487 469/567/445 468/564/444
f 258/611/488 259/610/489 468/564/442 467/563/441
f 403/566/443 404/565/443 475/495/405 474/497/404
f 404/565/447 405/568/446 476/493/402 475/495/401
f 405/568/451 406/570/450 477/491/395 476/493/399
f 406/570/450 407/572/453 478/489/396 477/491/395
f 407/572/457 408/574/456 479/485/393 478/489/392
f 408/574/460 409/576/460 480/486/390 479/485/389
usemtl MI_Trim_03_Dark
s off
f 145/612/490 144/613/490 142/614/490 143/615/490
f 148/616/491 147/617/491 146/618/491 149/619/491
f 142/614/492 144/613/492 149/619/492 146/618/492
f 145/612/493 143/615/493 147/617/493 148/616/493
f 144/613/494 145/612/494 148/616/494 149/619/494
f 143/615/495 142/614/495 146/618/495 147/617/495
f 377/620/490 376/621/490 374/622/490 375/623/490
f 380/624/491 379/625/491 378/626/491 381/627/491
f 374/622/496 376/621/496 381/627/496 378/626/496
f 377/620/497 375/623/497 379/625/497 380/624/497
f 376/621/498 377/620/498 380/624/498 381/627/498
f 375/623/499 374/622/499 378/626/499 379/625/499
s 1
f 195/628/274 194/629/274 2/630/317 4/631/317
f 201/632/500 195/628/501 4/631/502 160/633/503
f 204/634/276 4/631/317 2/630/317 203/635/276
f 208/636/504 160/633/503 4/631/502 204/634/505
f 190/637/506 193/638/507 168/639/508 159/640/509
f 193/638/272 192/641/272 167/642/273 168/639/273
f 212/643/510 161/644/511 170/645/512 220/646/513
f 220/646/171 170/645/275 169/647/275 219/648/171
f 3/649/219 1/650/219 192/641/272 193/638/272
f 7/651/514 3/649/514 193/638/507 190/637/506
f 159/640/509 168/639/508 195/628/501 201/632/500
f 168/639/273 167/642/273 194/629/274 195/628/274
f 161/644/511 208/636/504 204/634/505 170/645/512
f 170/645/275 204/634/276 203/635/276 169/647/275
f 6/652/318 220/646/171 219/648/171 5/653/318
f 8/654/515 212/643/510 220/646/513 6/652/515
f 427/655/438 426/656/438 250/657/479 252/658/479
f 433/659/516 427/655/517 252/658/518 392/660/519
f 436/661/440 252/658/479 250/657/479 435/662/440
f 440/663/520 392/660/519 252/658/518 436/661/521
f 422/664/522 425/665/523 400/666/524 391/667/525
f 425/665/436 424/668/436 399/669/437 400/666/437
f 444/670/526 393/671/527 402/672/527 452/673/528
f 452/673/342 402/672/439 401/674/439 451/675/342
f 251/676/478 249/677/478 424/668/436 425/665/436
f 253/678/529 251/676/529 425/665/523 422/664/522
f 391/667/525 400/666/524 427/655/517 433/659/516
f 400/666/437 399/669/437 426/656/438 427/655/438
f 393/671/527 440/663/520 436/661/521 402/672/527
f 402/672/439 436/661/440 435/662/440 401/674/439
f 3/649/219 452/673/342 451/675/342 1/650/219
f 7/651/514 444/670/526 452/673/528 3/649/514
usemtl MI_Trim_03
s off
f 130/679/530 131/680/530 133/681/530 132/682/530
f 136/683/531 137/684/531 141/685/531 134/686/531 131/687/531 130/688/531
f 132/689/532 133/690/532 135/691/532 140/692/532 138/693/532 139/694/532
f 140/695/533 135/696/533 134/697/533 141/698/533
f 135/699/534 133/700/534 131/701/534 134/702/534
f 136/703/535 139/704/535 138/705/535 137/706/535
f 132/707/490 139/704/490 136/703/490 130/708/490
f 138/705/536 140/695/536 141/698/536 137/706/536
f 362/709/537 363/710/537 365/711/537 364/712/537
f 368/713/538 369/714/538 373/715/538 366/716/538 363/717/538 362/718/538
f 364/719/539 365/720/539 367/721/539 372/722/539 370/723/539 371/724/539
f 372/725/540 367/726/540 366/727/540 373/728/540
f 367/729/541 365/730/541 363/731/541 366/732/541
f 368/733/542 371/734/542 370/735/542 369/736/542
f 364/737/490 371/734/490 368/733/490 362/738/490
f 370/735/543 372/725/543 373/728/543 369/736/543
