# Blender v3.6.0 OBJ File: 'AllModules_Unreal.blend'
# www.blender.org
mtllib WallWideBand_Corner_Square_Inner.mtl
o WallWideBand_Corner_Square_Inner_Plane.156
v -4.000000 3.000000 -4.000000
v 0.000000 3.000000 -4.000000
v -3.939893 2.844916 -3.992499
v -3.939893 2.601933 -3.992499
v -3.550691 2.844915 -3.992499
v -3.550691 2.601933 -3.992499
v -2.000000 3.000000 -4.000000
v -3.000000 3.000000 -4.000000
v -1.000000 3.000000 -4.000000
v -3.500000 3.000000 -4.000000
v -0.500000 3.000000 -4.000000
v -3.000000 1.456897 -4.000000
v -0.000000 1.456896 -4.000000
v -4.000000 1.456897 -4.000000
v -2.000000 1.456897 -4.000000
v -1.000000 1.456896 -4.000000
v -3.500000 1.456897 -4.000000
v -0.500000 1.456896 -4.000000
v -4.000000 1.228449 -4.000000
v -3.000000 1.228448 -4.000000
v -0.000000 1.228448 -4.000000
v -2.000000 1.228448 -4.000000
v -1.000000 1.228448 -4.000000
v -3.500000 1.228449 -4.000000
v -0.500000 1.228448 -4.000000
v -3.000000 1.996983 -4.000000
v 0.000000 1.996982 -4.000000
v -2.000000 1.996983 -4.000000
v -1.000000 1.996983 -4.000000
v -3.500000 1.996983 -4.000000
v -0.500000 1.996983 -4.000000
v -4.000000 1.996983 -4.000000
v -0.577527 1.120680 -3.998018
v -0.577527 1.020877 -3.998018
v -0.013251 1.120681 -3.998017
v -0.013251 1.020877 -3.998017
v -2.000000 0.000000 -4.000000
v -2.000000 1.000000 -4.000000
v -2.000000 0.200000 -4.100000
v 0.000000 -0.000000 -4.000000
v 0.100000 0.199999 -4.100000
v -0.000000 1.000000 -4.000000
v -1.000000 -0.000000 -4.000000
v -1.000000 0.200000 -4.100000
v -1.000000 1.000000 -4.000000
v -0.500000 1.000000 -4.000000
v -0.500000 -0.000000 -4.000000
v -0.500000 0.200000 -4.100000
v -2.000000 0.200000 -4.071541
v 0.071777 0.199999 -4.071541
v -1.000000 0.200000 -4.071541
v -0.500000 0.200000 -4.071541
v -4.000000 1.000000 -4.000000
v -3.000000 -0.000000 -4.000000
v -3.000000 0.200000 -4.100000
v -3.000000 1.000000 -4.000000
v -3.500000 1.000000 -4.000000
v -3.500000 -0.000000 -4.000000
v -3.500000 0.200000 -4.100000
v -4.071777 0.199999 -4.071541
v -3.000000 0.200000 -4.071541
v -3.500000 0.200000 -4.071541
v -4.000000 0.000000 0.000000
v -4.000000 1.000000 0.000000
v -4.000000 0.000000 -2.000000
v -4.000000 1.000000 -2.000000
v -4.100000 0.200000 0.000000
v -4.100000 0.200000 -2.000000
v -4.000000 -0.000000 -4.000000
v -4.100000 0.200000 -1.000000
v -4.100000 0.199999 -4.100000
v -4.000000 1.000000 -1.000000
v -4.000000 3.000000 -0.000000
v -3.992499 2.844916 -0.060106
v -3.992499 2.601933 -0.060106
v -3.992499 2.844915 -0.449309
v -3.992499 2.601933 -0.449309
v -4.000000 0.000000 -1.000000
v -4.000000 3.000000 -2.000000
v -4.000000 3.000000 -1.000000
v -4.000000 -0.000000 -3.000000
v -4.100000 0.200000 -3.000000
v -4.000000 3.000000 -3.000000
v -4.000000 1.000000 -3.000000
v -4.000000 1.000000 -0.500000
v -4.100000 0.200000 -0.500000
v -4.000000 3.000000 -0.500000
v -4.000000 0.000000 -0.500000
v -4.000000 1.000000 -3.500000
v -4.000000 -0.000000 -3.500000
v -4.100000 0.200000 -3.500000
v -4.000000 3.000000 -3.500000
v -4.000000 1.456897 -1.000000
v -4.000000 1.456897 0.000000
v -4.000000 1.456897 -2.000000
v -4.000000 1.456896 -3.000000
v -4.000000 1.456897 -0.500000
v -4.000000 1.456896 -3.500000
v -4.000000 1.228449 0.000000
v -4.000000 1.228449 -1.000000
v -4.000000 1.228448 -2.000000
v -4.000000 1.228448 -3.000000
v -4.000000 1.228449 -0.500000
v -4.000000 1.228448 -3.500000
v -4.000000 1.996983 -1.000000
v -4.000000 1.996983 -2.000000
v -4.000000 1.996983 -3.000000
v -4.000000 1.996983 -0.500000
v -4.000000 1.996983 -3.500000
v -4.000000 1.996983 0.000000
v -3.998018 1.120680 -3.422473
v -3.998018 1.020877 -3.422472
v -3.998018 1.120681 -3.986748
v -3.998018 1.020877 -3.986749
v -4.071541 0.200000 0.000000
v -4.071541 0.200000 -2.000000
v -4.071541 0.200000 -1.000000
v -4.071541 0.200000 -3.000000
v -4.071541 0.200000 -0.500000
v -4.071541 0.200000 -3.500000
vt 0.994837 0.447919
vt 0.994837 0.486932
vt 0.830000 0.486932
vt 0.830000 0.447919
vt 0.830000 0.447919
vt 0.830000 0.486932
vt 0.665163 0.486932
vt 0.665163 0.447919
vt 0.500325 0.579164
vt 0.500325 0.486932
vt 0.582744 0.486932
vt 0.582744 0.579164
vt 0.994837 0.579164
vt 0.994837 0.486932
vt 1.077256 0.486932
vt 1.077256 0.579164
vt 0.665163 0.579164
vt 0.830000 0.579164
vt 1.159675 0.486932
vt 1.159675 0.579164
vt 0.582744 0.447919
vt 0.500325 0.447919
vt 1.077256 0.447919
vt 1.159675 0.447919
vt 1.077256 0.750453
vt 1.159675 0.750453
vt 0.665163 0.750453
vt 0.830000 0.750453
vt 0.582744 0.750453
vt 0.994837 0.750453
vt 0.500325 0.750453
vt 0.994837 0.447919
vt 0.760517 0.409735
vt 1.019308 0.409735
vt 1.019308 0.373239
vt 0.760517 0.373239
vt 0.631121 0.409735
vt 0.631121 0.373239
vt 0.501726 0.409735
vt 0.501726 0.373239
vt 0.760517 0.409735
vt 0.760517 0.373239
vt 0.631121 0.409735
vt 0.631121 0.373239
vt 0.501726 0.409735
vt 0.501726 0.373239
vt 0.760517 0.409735
vt 0.760517 0.373239
vt 1.019308 0.373239
vt 1.019308 0.409735
vt 0.760517 0.409735
vt 0.760517 0.373239
vt 0.631121 0.409735
vt 0.631121 0.373239
vt 0.994837 0.579164
vt 0.830000 0.579164
vt 0.631121 0.409735
vt 0.631121 0.373239
vt 0.501726 0.409735
vt 0.501726 0.373239
vt 0.665163 0.486932
vt 0.665163 0.447919
vt 0.500325 0.579164
vt 0.500325 0.486932
vt 0.582744 0.486932
vt 0.582744 0.579164
vt 1.077256 0.486932
vt 1.077256 0.579164
vt 0.665163 0.579164
vt 1.159675 0.486932
vt 1.159675 0.579164
vt 0.582744 0.447919
vt 0.500325 0.447919
vt 1.077256 0.447919
vt 1.159675 0.447919
vt 1.077256 0.750453
vt 1.159675 0.750453
vt 0.665163 0.750453
vt 0.830000 0.750453
vt 0.582744 0.750453
vt 0.994837 0.750453
vt 0.500325 0.750453
vt 0.500966 0.733252
vt 0.500966 0.733252
vt 0.500966 0.733252
vt 0.500966 0.733252
vt 0.500966 0.733252
vt 0.500966 0.733252
vt 0.500966 0.733252
vt 0.500966 0.733252
vt 0.500966 0.733252
vt 0.500966 0.733252
vt 0.500966 0.733252
vt 0.500966 0.733252
vt 0.500966 0.733252
vt 0.500966 0.733252
vt 0.500966 0.733252
vt 0.500966 0.733252
vt 0.500966 0.733252
vt 0.500966 0.733252
vt 0.500966 0.733252
vt 0.500966 0.733252
vt 0.500966 0.733252
vt 0.500966 0.733252
vt 0.500966 0.733252
vt 0.500966 0.733252
vt 0.500966 0.733252
vt 0.500966 0.733252
vt 0.026778 0.226397
vt 0.026778 0.189286
vt 0.236597 0.189286
vt 0.236597 0.226397
vt 0.026778 0.226397
vt 0.026778 0.189286
vt 0.236597 0.189286
vt 0.236597 0.226397
vt 0.799616 0.579130
vt 0.799616 0.490855
vt 0.941012 0.490855
vt 0.941012 0.579130
vt 0.799616 0.579130
vt 0.799616 0.490855
vt 0.941012 0.490855
vt 0.941012 0.579130
vt 1.077256 0.408906
vt 1.159675 0.408906
vt 0.582744 0.408906
vt 0.665163 0.408906
vt 0.830000 0.408906
vt 0.500325 0.408906
vt 0.994837 0.408906
vt 0.519061 0.591441
vt 0.812631 0.591441
vt 0.812631 0.407339
vt 0.519061 0.407339
vt 0.372276 0.591441
vt 0.372276 0.407339
vt 0.225492 0.591441
vt 0.225491 0.407339
vt 0.519061 0.591441
vt 0.519061 0.407339
vt 0.372276 0.591441
vt 0.372276 0.407339
vt 0.225492 0.591441
vt 0.225491 0.407339
vt 0.519061 0.591441
vt 0.519061 0.407339
vt 0.812631 0.407339
vt 0.812631 0.591441
vt 0.519061 0.591441
vt 0.519061 0.407339
vt 1.077256 0.408906
vt 1.159675 0.408906
vt 0.582744 0.408906
vt 0.665163 0.408906
vt 0.372276 0.591441
vt 0.372276 0.407339
vt 0.372276 0.591441
vt 0.372276 0.407339
vt 0.225492 0.591441
vt 0.225491 0.407339
vt 0.500325 0.408906
vt 0.994837 0.408906
vt 0.830000 0.408906
vn 1.0000 0.0000 0.0000
vn 0.0000 0.0000 1.0000
vn 0.0000 0.3368 0.9416
vn 0.9416 0.3368 -0.0000
vn 0.9415 0.3370 -0.0001
vn 0.9414 0.3373 -0.0002
vn 0.0000 1.0000 0.0000
vn -0.0000 -0.1240 0.9923
vn 0.9923 -0.1240 -0.0000
usemtl MI_Trim_02_NoAccent
s 1
f 102/1/1 96/2/1 95/3/1 101/4/1
f 22/5/2 15/6/2 12/7/2 20/8/2
f 32/9/2 14/10/2 17/11/2 30/12/2
f 29/13/2 16/14/2 18/15/2 31/16/2
f 26/17/2 12/7/2 15/6/2 28/18/2
f 31/16/2 18/15/2 13/19/2 27/20/2
f 20/8/2 12/7/2 17/11/2 24/21/2
f 14/10/2 19/22/2 24/21/2 17/11/2
f 16/14/2 29/13/2 28/18/2 15/6/2
f 30/12/2 17/11/2 12/7/2 26/17/2
f 18/15/2 25/23/2 21/24/2 13/19/2
f 11/25/2 31/16/2 27/20/2 2/26/2
f 8/27/2 26/17/2 28/18/2 7/28/2
f 10/29/2 30/12/2 26/17/2 8/27/2
f 7/28/2 28/18/2 29/13/2 9/30/2
f 1/31/2 32/9/2 30/12/2 10/29/2
f 9/30/2 29/13/2 31/16/2 11/25/2
f 23/32/2 25/23/2 18/15/2 16/14/2
f 51/33/3 49/34/3 37/35/3 43/36/3
f 52/37/3 51/33/3 43/36/3 47/38/3
f 50/39/3 52/37/3 47/38/3 40/40/3
f 61/41/3 54/42/3 37/35/3 49/34/3
f 62/43/3 58/44/3 54/42/3 61/41/3
f 60/45/3 69/46/3 58/44/3 62/43/3
f 117/47/4 78/48/4 65/49/4 116/50/4
f 118/51/4 116/50/4 65/49/4 81/52/4
f 119/53/4 88/54/4 78/48/4 117/47/4
f 96/2/1 107/55/1 106/56/1 95/3/1
f 120/57/5 118/51/4 81/52/4 90/58/5
f 115/59/4 63/60/4 88/54/4 119/53/4
f 60/45/6 120/57/5 90/58/5 69/46/6
f 101/4/1 95/3/1 93/61/1 100/62/1
f 110/63/1 94/64/1 97/65/1 108/66/1
f 107/55/1 96/2/1 98/67/1 109/68/1
f 105/69/1 93/61/1 95/3/1 106/56/1
f 109/68/1 98/67/1 14/70/1 32/71/1
f 100/62/1 93/61/1 97/65/1 103/72/1
f 94/64/1 99/73/1 103/72/1 97/65/1
f 108/66/1 97/65/1 93/61/1 105/69/1
f 98/67/1 104/74/1 19/75/1 14/70/1
f 92/76/1 109/68/1 32/71/1 1/77/1
f 80/78/1 105/69/1 106/56/1 79/79/1
f 87/80/1 108/66/1 105/69/1 80/78/1
f 79/79/1 106/56/1 107/55/1 83/81/1
f 73/82/1 110/63/1 108/66/1 87/80/1
f 83/81/1 107/55/1 109/68/1 92/76/1
f 102/1/1 104/74/1 98/67/1 96/2/1
f 23/32/2 16/14/2 15/6/2 22/5/2
usemtl MI_Trim_01
f 41/83/7 48/84/7 52/85/7 50/86/7
f 48/84/7 44/87/7 51/88/7 52/85/7
f 44/87/7 39/89/7 49/90/7 51/88/7
f 71/91/7 60/92/7 62/93/7 59/94/7
f 59/94/7 62/93/7 61/95/7 55/96/7
f 55/96/7 61/95/7 49/90/7 39/89/7
f 71/91/7 91/97/7 120/98/7 60/92/7
f 67/99/7 115/100/7 119/101/7 86/102/7
f 91/97/7 82/103/7 118/104/7 120/98/7
f 86/102/7 119/101/7 117/105/7 70/106/7
f 82/103/7 68/107/7 116/108/7 118/104/7
f 70/106/7 117/105/7 116/108/7 68/107/7
usemtl M_Decal_White
s off
f 33/109/2 34/110/2 36/111/2 35/112/2
f 111/113/1 112/114/1 114/115/1 113/116/1
s 1
f 3/117/2 4/118/2 6/119/2 5/120/2
f 74/121/1 75/122/1 77/123/1 76/124/1
usemtl MI_Trim_02_Color
f 25/23/2 46/125/2 42/126/2 21/24/2
f 24/21/2 57/127/2 56/128/2 20/8/2
f 38/129/2 22/5/2 20/8/2 56/128/2
f 19/22/2 53/130/2 57/127/2 24/21/2
f 23/32/2 45/131/2 46/125/2 25/23/2
f 38/129/2 45/131/2 23/32/2 22/5/2
f 45/132/8 38/133/8 39/134/8 44/135/8
f 46/136/8 45/132/8 44/135/8 48/137/8
f 42/138/8 46/136/8 48/137/8 41/139/8
f 56/140/8 55/141/8 39/134/8 38/133/8
f 57/142/8 59/143/8 55/141/8 56/140/8
f 53/144/8 71/145/8 59/143/8 57/142/8
f 72/146/9 70/147/9 68/148/9 66/149/9
f 84/150/9 66/149/9 68/148/9 82/151/9
f 104/74/1 89/152/1 53/153/1 19/75/1
f 103/72/1 85/154/1 72/155/1 100/62/1
f 85/156/9 86/157/9 70/147/9 72/146/9
f 89/158/9 84/150/9 82/151/9 91/159/9
f 64/160/9 67/161/9 86/157/9 85/156/9
f 99/73/1 64/162/1 85/154/1 103/72/1
f 53/144/9 89/158/9 91/159/9 71/145/9
f 102/1/1 84/163/1 89/152/1 104/74/1
f 66/164/1 101/4/1 100/62/1 72/155/1
f 66/164/1 84/163/1 102/1/1 101/4/1
