# Blender v3.6.0 OBJ File: 'AllModules_Unreal.blend'
# www.blender.org
mtllib WallPadded_Curve_Round_Inner.mtl
o WallPadded_Curve_Round_Inner_Plane.182
v -1.606972 2.800000 -3.879476
v -1.683524 2.707941 -4.064245
v -3.111022 2.707941 -3.111039
v -1.755767 2.800000 -3.809318
v -1.839378 2.707941 -3.991008
v -2.969601 2.800000 -2.969617
v -1.672135 3.000000 -3.627637
v -1.530420 3.000000 -3.694706
v -2.828180 3.000000 -2.828195
v -1.860970 2.800000 -3.756633
v -1.772116 3.000000 -3.577454
v -2.047142 2.707941 -3.886880
v 0.000002 2.707941 -4.400000
v -1.451477 2.800000 -3.933828
v -1.520832 2.707941 -4.121421
v 0.000002 2.800000 -4.200000
v -1.382135 3.000000 -3.746231
v 0.000001 3.000000 -4.000000
v -1.340325 2.800000 -3.972478
v -1.276466 3.000000 -3.782947
v -1.301186 2.707941 -4.197566
v -1.568696 0.800000 -3.787091
v -2.898891 0.800000 -2.898906
v -1.530420 -0.000000 -3.694706
v -2.828181 0.000000 -2.828195
v 0.000001 0.800000 -4.100000
v 0.000001 0.000000 -4.000000
v -2.843803 0.304051 -2.843818
v -1.538877 0.304051 -3.715117
v 0.000001 0.304051 -4.022093
v -2.854312 0.508580 -2.854326
v -1.544565 0.508579 -3.728847
v 0.000001 0.508580 -4.036955
v 0.000001 0.719906 -4.052310
v -1.550443 0.719906 -3.743033
v -2.865170 0.719906 -2.865185
v -2.861627 0.650958 -2.861642
v 0.000001 0.650958 -4.047300
v -1.548525 0.650958 -3.738405
v -2.342294 1.832161 -3.505486
v -2.986629 1.832161 -2.986645
v -2.244102 0.915651 -3.358737
v -2.861776 0.915652 -2.861791
v -2.440486 2.748670 -3.652234
v -3.111482 2.748671 -3.111498
v -1.683754 2.748670 -4.064853
v -2.737836 1.018860 -2.997489
v -2.384108 1.650960 -3.435093
v -2.317968 1.018859 -3.332826
v -2.832319 1.100848 -2.935264
v -2.908340 1.727659 -3.029085
v -2.484712 1.746173 -3.389097
v -3.020845 2.534315 -3.136864
v -2.946580 1.931306 -3.047593
v -2.497024 1.915438 -3.420125
v -2.428035 2.018583 -3.490877
v -2.500659 2.645395 -3.587526
v -2.974493 2.663908 -3.211240
v -2.298407 2.005360 -3.575327
v -2.360554 2.653330 -3.683941
v -1.834904 2.663908 -3.975727
v -2.206063 1.926017 -3.619030
v -1.748764 2.560763 -3.996393
v -1.704521 1.939241 -3.884824
v -2.260896 1.645671 -3.517063
v -1.697537 1.008280 -3.687973
v -2.189393 1.008280 -3.417210
v -1.683742 1.743528 -3.853103
v -1.625054 1.100847 -3.744205
v -2.198966 1.751462 -3.583317
v -2.024549 1.246546 -3.498845
v -1.789672 1.559147 -3.684197
v -1.868653 2.126062 -3.766766
v -2.171538 2.434071 -3.677887
v -2.611707 2.472273 -3.389342
v -2.797353 2.159489 -3.147008
v -2.728155 1.564961 -3.055328
v -2.457595 1.252177 -3.210357
v -0.822204 1.832161 -4.135034
v -1.616189 1.832161 -3.901722
v -0.787984 0.915652 -3.961812
v -1.548606 0.915652 -3.738599
v -0.856424 2.748671 -4.308256
v -1.382451 1.018859 -3.817462
v -0.887858 1.650960 -4.085975
v -0.866109 1.018859 -3.966132
v -1.493383 1.100848 -3.795573
v -1.527709 1.727659 -3.911402
v -0.998403 1.746173 -4.081965
v -1.590378 2.534315 -4.054007
v -1.555936 1.931306 -3.943063
v -0.997847 1.915438 -4.115357
v -0.906967 2.018583 -4.154349
v -0.936860 2.645395 -4.271480
v -1.519134 2.663908 -4.105408
v -0.754840 2.005360 -4.182789
v -0.770436 2.653330 -4.306964
v -0.173504 2.663908 -4.373360
v -0.652798 1.926017 -4.187834
v -0.086117 2.560763 -4.359062
v -0.087987 1.939241 -4.239074
v -0.742621 1.645670 -4.114579
v -0.156953 1.008280 -4.054912
v -0.715025 1.008280 -3.994919
v -0.080948 1.743527 -4.201784
v -0.659987 1.751462 -4.152111
v -0.068454 1.100847 -4.078663
v -0.531538 1.246546 -4.007291
v -0.243487 1.559147 -4.087124
v -0.284724 2.126062 -4.193818
v -0.598292 2.434071 -4.229016
v -1.115560 2.472273 -4.130798
v -1.380209 2.159489 -3.978683
v -1.351421 1.564960 -3.867429
v -1.042020 1.252176 -3.906370
v -0.008825 1.832161 -4.224081
v -0.008825 0.915651 -4.047511
v -0.008825 2.748670 -4.400650
v -1.568696 0.800000 -3.787091
v -1.577981 0.820256 -3.809505
v -2.875351 0.800000 -2.919688
v -1.713726 0.800000 -3.718590
v -1.676820 0.800000 -3.737071
v -1.659973 0.914492 -3.699552
v -1.696501 0.914492 -3.681243
v -1.552954 0.914492 -3.749095
v -2.846492 0.914492 -2.890386
v -2.869810 0.914492 -2.869825
v -1.798067 0.914492 -3.630300
v -1.662334 0.944029 -3.704811
v -1.698915 0.944029 -3.686478
v -1.555161 0.944029 -3.754421
v -2.850537 0.944029 -2.894493
v -2.873886 0.944029 -2.873901
v -1.800628 0.944029 -3.635464
v 0.000002 0.800000 -4.100000
v -0.031325 0.800000 -4.097939
v -1.417040 0.800000 -3.839948
v -1.456026 0.800000 -3.826376
v -1.441406 0.914492 -3.787935
v -1.402811 0.914492 -3.801361
v -0.031013 0.914492 -4.056813
v 0.000002 0.914492 -4.058873
v -1.295479 0.914492 -3.838663
v -1.443455 0.944029 -3.793323
v -1.404805 0.944029 -3.806769
v -0.031057 0.944029 -4.062577
v 0.000002 0.944029 -4.064637
v -1.297320 0.944029 -3.844126
v -2.675826 1.832161 -3.260656
v -2.787901 2.748670 -3.397096
v -2.628176 1.643357 -3.202648
v -2.557050 0.508580 -3.116059
v -2.576371 1.018860 -3.139580
v -2.597067 0.800000 -3.164775
v -2.660541 2.800000 -3.242048
v -2.664376 1.738536 -3.246718
v -2.619786 1.373895 -3.192434
v -2.597067 0.800000 -3.164775
v -2.574620 0.944029 -3.137449
v -2.743639 2.386713 -3.343211
v -2.563750 0.915651 -3.124216
v -2.717536 2.173253 -3.311434
v -2.678082 2.059338 -3.263402
v -2.563616 0.650958 -3.124053
v -2.776556 2.655899 -3.383285
v -2.566796 0.719906 -3.127924
v -2.731864 2.290427 -3.328877
v -2.733432 2.537238 -3.330786
v -2.533593 3.000000 -3.087502
v -2.547616 0.304051 -3.104574
v -2.633358 1.484882 -3.208957
v -2.533592 0.000000 -3.087502
v -2.686806 1.921953 -3.274023
v -2.787488 2.707941 -3.396593
v -2.607022 1.269514 -3.176895
v -2.567371 1.161136 -3.128625
v -2.570961 0.914492 -3.132995
v -2.217699 -0.000000 -3.319238
v -2.253644 0.944029 -3.372958
v -2.273310 0.800000 -3.402349
v -2.328921 2.800000 -3.485460
v -2.244003 0.650958 -3.358550
v -2.250438 0.914492 -3.368168
v -2.273310 0.800000 -3.402349
v -2.217699 3.000000 -3.319238
v -2.229985 0.304051 -3.337600
v -2.440142 2.707941 -3.651682
v -2.246789 0.719906 -3.362714
v -2.238250 0.508580 -3.349952
v -1.938047 1.279101 -3.625630
v -1.929775 0.800000 -3.610173
v -1.946667 1.373918 -3.641735
v -1.929775 0.800000 -3.610173
v -1.906712 1.160360 -3.567082
v -1.997365 1.931602 -3.736461
v -1.905006 0.915651 -3.563895
v -1.980679 1.748048 -3.705283
v -2.071644 2.748670 -3.875246
v -1.882587 3.000000 -3.522006
v -1.987749 2.056201 -3.718495
v -2.038748 2.386812 -3.813782
v -2.029982 2.290392 -3.797404
v -1.910368 0.914492 -3.573912
v -2.033197 2.530785 -3.803410
v -1.900025 0.508579 -3.554588
v -1.882587 -0.000000 -3.522006
v -1.913427 1.008280 -3.579629
v -1.988325 1.832161 -3.719571
v -1.893012 0.304051 -3.541485
v -1.913088 0.944029 -3.578995
v -1.904907 0.650958 -3.563710
v -1.907271 0.719906 -3.568127
v -2.071337 2.707941 -3.874673
v -1.976962 2.800000 -3.698339
v -1.950870 1.634834 -3.649589
v -2.063529 2.659409 -3.860084
v -1.955992 1.476489 -3.659158
v -2.021048 2.192109 -3.780710
v -1.188668 0.800000 -3.919231
v -1.219379 1.738536 -4.020730
v -1.275549 2.707941 -4.206375
v -1.229612 1.921953 -4.054552
v -1.166106 0.304051 -3.844663
v -1.202862 1.643357 -3.966143
v -1.178427 0.944029 -3.885384
v -1.217629 2.800000 -4.014946
v -1.255543 2.386714 -4.140253
v -1.199034 1.373895 -3.953491
v -1.225632 2.059338 -4.041397
v -1.170410 0.508579 -3.858888
v -1.250171 2.290439 -4.122500
v -1.159708 -0.000000 -3.823517
v -1.173406 0.650958 -3.868790
v -1.205227 1.484883 -3.973957
v -1.188668 0.800000 -3.919231
v -1.250886 2.537238 -4.124862
v -1.174857 0.719906 -3.873585
v -1.243633 2.173253 -4.100892
v -1.224602 1.832161 -4.037995
v -1.270561 2.655899 -4.189891
v -1.193210 1.269514 -3.934243
v -1.275738 2.748671 -4.206997
v -1.159708 3.000000 -3.823516
v -1.176758 0.914492 -3.879866
v -1.173467 0.915652 -3.868992
v -1.175120 1.161136 -3.874453
v -1.179226 1.018860 -3.888023
v -0.856321 2.707941 -4.307613
v -0.817558 2.800001 -4.111405
v -0.791323 0.944029 -3.978609
v -0.798177 0.800000 -4.013302
v -0.798177 0.800000 -4.013302
v -0.785958 0.508580 -3.951452
v -0.778796 -0.000000 -3.915197
v -0.787964 0.650958 -3.961601
v -0.788935 0.719906 -3.966516
v -0.778796 3.000001 -3.915197
v -0.402949 1.279101 -4.090621
v -0.783078 0.304051 -3.936872
v -0.790206 0.914492 -3.972954
v -0.393706 0.304051 -3.995631
v -0.396518 1.160360 -4.024527
v -0.401251 0.800000 -4.073172
v -0.428704 2.659409 -4.355293
v -0.413150 2.056201 -4.195455
v -0.422478 2.530785 -4.291314
v -0.404718 1.373917 -4.108801
v -0.430306 2.707941 -4.371761
v -0.396168 0.915651 -4.020929
v -0.391566 3.000000 -3.973642
v -0.397268 0.914492 -4.032238
v -0.421819 2.290404 -4.284537
v -0.406632 1.476488 -4.128469
v -0.410936 2.800000 -4.172702
v -0.419985 2.192109 -4.265689
v -0.397896 1.008280 -4.038691
v -0.391566 0.000000 -3.973642
v -0.395145 0.508580 -4.010423
v -0.413269 1.832161 -4.196669
v -0.397826 0.944029 -4.037975
v -0.423618 2.386812 -4.303022
v -0.401251 0.800000 -4.073172
v -0.396147 0.650958 -4.020720
v -0.415124 1.931602 -4.215737
v -0.411699 1.748048 -4.180541
v -0.396633 0.719906 -4.025707
v -0.405581 1.634834 -4.117667
v -0.430369 2.748670 -4.372408
v -2.264822 0.907225 -3.389703
v -2.888122 0.907225 -2.888137
v -2.461206 2.740244 -3.683200
v -3.137828 2.740244 -3.137845
v -1.698014 2.740244 -4.099274
v -0.795205 0.907225 -3.998364
v -1.562867 0.907225 -3.773021
v -0.863645 2.740244 -4.344808
v -0.008825 1.823735 -4.261339
v -0.008825 0.907225 -4.084770
v -0.008825 2.740244 -4.437909
v -2.811551 2.740244 -3.425887
v -2.587399 0.907225 -3.153007
v -1.922588 0.907225 -3.596745
v -2.089226 2.740244 -3.908096
v -1.286528 2.740244 -4.242660
v -1.184257 0.907225 -3.904654
v -0.399776 0.907225 -4.058013
v -0.433978 2.740244 -4.409492
v -3.879469 2.800000 -1.606994
v -4.064239 2.707940 -1.683547
v -4.400001 2.707941 -0.000024
v -3.933822 2.800001 -1.451500
v -4.121414 2.707941 -1.520857
v -4.200000 2.800000 -0.000023
v -3.746225 3.000000 -1.382155
v -3.694700 3.000000 -1.530441
v -4.000000 3.000000 -0.000022
v -3.972472 2.800000 -1.340348
v -3.782941 3.000000 -1.276488
v -4.197561 2.707941 -1.301207
v -3.809309 2.800000 -1.755787
v -3.990997 2.707941 -1.839402
v -3.627627 3.000000 -1.672156
v -3.756624 2.800000 -1.860988
v -3.577446 3.000000 -1.772134
v -3.886870 2.707941 -2.047166
v -3.787085 0.800000 -1.568717
v -4.100001 0.800000 -0.000023
v -3.694700 -0.000000 -1.530441
v -4.000000 0.000000 -0.000022
v -4.022094 0.304051 -0.000022
v -3.715111 0.304051 -1.538898
v -4.036956 0.508580 -0.000022
v -3.728841 0.508579 -1.544586
v -3.743027 0.719905 -1.550464
v -4.052311 0.719906 -0.000023
v -4.047301 0.650958 -0.000022
v -3.738399 0.650958 -1.548546
v -4.135023 1.832161 -0.822268
v -4.224082 1.832161 -0.005910
v -3.961801 0.915652 -0.788045
v -4.047512 0.915651 -0.005910
v -4.308244 2.748670 -0.856491
v -4.400651 2.748670 -0.005911
v -4.064831 2.748671 -1.683818
v -4.055177 1.018860 -0.183546
v -4.115528 1.650961 -0.743072
v -3.996470 1.018860 -0.717626
v -4.078380 1.100848 -0.072776
v -4.198441 1.727659 -0.085338
v -4.155198 1.746173 -0.639572
v -4.354226 2.534315 -0.081979
v -4.238617 1.931306 -0.071391
v -4.185767 1.915437 -0.652764
v -4.186084 2.018583 -0.751410
v -4.305835 2.645395 -0.768316
v -4.373766 2.663908 -0.167269
v -4.152656 2.005360 -0.902552
v -4.273356 2.653330 -0.935333
v -4.107473 2.663908 -1.513226
v -4.117283 1.926017 -0.998600
v -4.060096 2.560763 -1.588410
v -3.949980 1.939241 -1.540804
v -4.084924 1.645671 -0.887914
v -3.806819 1.008280 -1.406853
v -3.963684 1.008280 -0.867918
v -3.912777 1.743528 -1.533037
v -3.794147 1.100847 -1.497477
v -4.087131 1.751462 -0.978400
v -3.905182 1.246546 -1.042435
v -3.870419 1.559147 -1.339409
v -3.985100 2.126062 -1.342090
v -4.133913 2.434071 -1.064532
v -4.242337 2.472274 -0.549552
v -4.202797 2.159489 -0.247101
v -4.089069 1.564960 -0.231257
v -4.008321 1.252177 -0.532382
v -3.505450 1.832161 -2.342348
v -3.901716 1.832161 -1.616211
v -3.358703 0.915651 -2.244154
v -3.738593 0.915651 -1.548627
v -3.652197 2.748670 -2.440542
v -3.677914 1.018860 -1.722152
v -3.517766 1.650961 -2.261677
v -3.417643 1.018859 -2.192394
v -3.742268 1.100848 -1.628929
v -3.848311 1.727660 -1.686512
v -3.593975 1.746173 -2.181289
v -3.993528 2.534315 -1.743094
v -3.890833 1.931306 -1.689035
v -3.617135 1.915438 -2.205233
v -3.579681 2.018583 -2.296504
v -3.683710 2.645395 -2.358161
v -3.978518 2.663908 -1.829304
v -3.491004 2.005360 -2.423305
v -3.589841 2.653330 -2.499968
v -3.215380 2.663909 -2.969810
v -3.421614 1.926017 -2.498458
v -3.143224 2.560763 -3.021346
v -3.059701 1.939241 -2.935200
v -3.434103 1.645671 -2.383755
v -2.978426 1.008280 -2.756395
v -3.329873 1.008280 -2.318699
v -3.028335 1.743528 -2.913800
v -3.401517 1.751462 -2.468212
v -2.932399 1.100847 -2.835567
v -3.209100 1.246546 -2.457521
v -3.062635 1.559147 -2.718161
v -3.167367 2.126062 -2.764479
v -3.411738 2.434071 -2.565758
v -3.708902 2.472273 -2.131618
v -3.789642 2.159489 -1.837395
v -3.690732 1.564960 -1.779143
v -3.499468 1.252177 -2.025723
v -3.787085 0.800000 -1.568717
v -4.100001 0.800000 -0.000021
v -4.097940 0.800000 -0.031349
v -3.839942 0.800000 -1.417063
v -3.826369 0.800000 -1.456049
v -3.787928 0.914492 -1.441429
v -3.801354 0.914492 -1.402834
v -3.749089 0.914491 -1.552975
v -4.056814 0.914492 -0.031037
v -4.058874 0.914492 -0.000021
v -3.838657 0.914492 -1.295500
v -3.793316 0.944029 -1.443478
v -3.806762 0.944029 -1.404828
v -3.754415 0.944029 -1.555182
v -4.062578 0.944029 -0.031081
v -4.064638 0.944029 -0.000021
v -3.844120 0.944029 -1.297341
v -2.919674 0.800000 -2.875367
v -3.718580 0.800000 -1.713748
v -3.737062 0.800000 -1.676840
v -3.699544 0.914492 -1.659993
v -3.681234 0.914492 -1.696522
v -2.890372 0.914492 -2.846508
v -3.630291 0.914492 -1.798089
v -3.704803 0.944029 -1.662354
v -3.686469 0.944029 -1.698936
v -2.894478 0.944029 -2.850553
v -3.635455 0.944029 -1.800649
v -4.196670 1.832161 -0.413294
v -4.372409 2.748671 -0.430395
v -4.121954 1.643357 -0.406023
v -4.010424 0.508580 -0.395169
v -4.040720 1.018860 -0.398118
v -4.073173 0.800000 -0.401276
v -4.172702 2.800001 -0.410961
v -4.178717 1.738536 -0.411547
v -4.108798 1.373895 -0.404742
v -4.073173 0.800000 -0.401276
v -4.037976 0.944029 -0.397850
v -4.303004 2.386714 -0.423641
v -4.020930 0.915652 -0.396192
v -4.262074 2.173253 -0.419658
v -4.200207 2.059338 -0.413638
v -4.020721 0.650958 -0.396171
v -4.354620 2.655899 -0.428664
v -4.025707 0.719906 -0.396657
v -4.284542 2.290427 -0.421845
v -4.287000 2.537238 -0.422084
v -3.973643 3.000000 -0.391590
v -3.995632 0.304051 -0.393730
v -4.130080 1.484882 -0.406813
v -3.973642 0.000000 -0.391590
v -4.213887 1.921953 -0.414969
v -4.371762 2.707942 -0.430332
v -4.088783 1.269514 -0.402795
v -4.026609 1.161136 -0.396744
v -4.032238 0.914492 -0.397292
v -3.915195 -0.000000 -0.778818
v -3.978606 0.944029 -0.791345
v -4.013299 0.800000 -0.798199
v -4.111402 2.800000 -0.817581
v -3.961599 0.650958 -0.787985
v -3.972951 0.914492 -0.790228
v -4.013299 0.800000 -0.798199
v -3.915195 3.000000 -0.778818
v -3.936869 0.304051 -0.783100
v -4.307610 2.707941 -0.856344
v -3.966514 0.719906 -0.788956
v -3.951449 0.508579 -0.785980
v -3.936006 1.279101 -1.193765
v -3.919226 0.800000 -1.188688
v -3.953490 1.373918 -1.199055
v -3.919226 0.800000 -1.188688
v -3.872446 1.160360 -1.174533
v -4.056326 1.931602 -1.230170
v -3.868987 0.915652 -1.173486
v -4.022479 1.748048 -1.219929
v -4.206992 2.748670 -1.275758
v -3.823512 3.000000 -1.159727
v -4.036822 2.056202 -1.224269
v -4.140266 2.386812 -1.255569
v -4.122487 2.290392 -1.250189
v -3.879861 0.914492 -1.176777
v -4.129006 2.530785 -1.252162
v -3.858883 0.508579 -1.170429
v -3.823512 -0.000000 -1.159727
v -3.886067 1.008280 -1.178654
v -4.037990 1.832161 -1.224622
v -3.844658 0.304051 -1.166125
v -3.885379 0.944029 -1.178446
v -3.868785 0.650958 -1.173425
v -3.873580 0.719906 -1.174876
v -4.206370 2.707941 -1.275570
v -4.014941 2.800000 -1.217648
v -3.962016 1.634834 -1.201635
v -4.190532 2.659409 -1.270778
v -3.972404 1.476489 -1.204778
v -4.104363 2.192109 -1.244705
v -3.610163 0.800000 -1.929796
v -3.703657 1.738536 -1.979836
v -3.874662 2.707941 -2.071360
v -3.734812 1.921953 -1.996510
v -3.541475 0.304051 -1.893034
v -3.653375 1.643357 -1.952924
v -3.578984 0.944029 -1.913109
v -3.698329 2.800000 -1.976984
v -3.813754 2.386714 -2.038762
v -3.641721 1.373895 -1.946686
v -3.722693 2.059338 -1.990024
v -3.554579 0.508579 -1.900046
v -3.797401 2.290439 -2.030009
v -3.521996 -0.000000 -1.882608
v -3.563700 0.650958 -1.904928
v -3.660573 1.484882 -1.956776
v -3.610163 0.800000 -1.929796
v -3.799577 2.537238 -2.031173
v -3.568117 0.719906 -1.907292
v -3.777497 2.173253 -2.019356
v -3.719560 1.832161 -1.988347
v -3.859477 2.655899 -2.063233
v -3.623991 1.269514 -1.937197
v -3.875235 2.748670 -2.071667
v -3.521996 3.000000 -1.882608
v -3.573902 0.914492 -1.910389
v -3.563885 0.915651 -1.905028
v -3.568916 1.161136 -1.907720
v -3.581416 1.018860 -1.914410
v -3.651669 2.707941 -2.440163
v -3.485448 2.800000 -2.328940
v -3.372947 0.944029 -2.253662
v -3.402337 0.800000 -2.273329
v -3.402337 0.800000 -2.273329
v -3.349940 0.508579 -2.238268
v -3.319227 -0.000000 -2.217717
v -3.358539 0.650958 -2.244021
v -3.362703 0.719906 -2.246808
v -3.319227 3.000000 -2.217717
v -3.178308 1.279101 -2.608211
v -3.337589 0.304051 -2.230003
v -3.368156 0.914492 -2.250457
v -3.104561 0.304051 -2.547632
v -3.126995 1.160360 -2.566060
v -3.164762 0.800000 -2.597083
v -3.383792 2.659409 -2.777003
v -3.259699 2.056202 -2.675068
v -3.334121 2.530785 -2.736201
v -3.192424 1.373918 -2.619806
v -3.396578 2.707941 -2.787506
v -3.124202 0.915652 -2.563766
v -3.087489 3.000000 -2.533608
v -3.132981 0.914492 -2.570977
v -3.328859 2.290405 -2.731879
v -3.207693 1.476489 -2.632349
v -3.242034 2.800000 -2.660557
v -3.314226 2.192110 -2.719859
v -3.137992 1.008280 -2.575093
v -3.087489 0.000000 -2.533608
v -3.116045 0.508580 -2.557065
v -3.260641 1.832161 -2.675842
v -3.137435 0.944029 -2.574636
v -3.343212 2.386812 -2.743669
v -3.164762 0.800000 -2.597083
v -3.124039 0.650958 -2.563632
v -3.275445 1.931602 -2.688003
v -3.248120 1.748048 -2.665556
v -3.127911 0.719906 -2.566812
v -3.199306 1.634834 -2.625459
v -3.397081 2.748671 -2.787919
v -4.261340 1.823734 -0.005911
v -3.998354 0.907225 -0.795267
v -4.084771 0.907225 -0.005910
v -4.344796 2.740244 -0.863712
v -4.437910 2.740244 -0.005912
v -4.099252 2.740244 -1.698079
v -3.389669 0.907225 -2.264875
v -3.773015 0.907225 -1.562888
v -3.683163 2.740244 -2.461263
v -4.409493 2.740244 -0.434004
v -4.058014 0.907225 -0.399800
v -3.904649 0.907225 -1.184277
v -4.242654 2.740244 -1.286549
v -3.908085 2.740244 -2.089249
v -3.596735 0.907225 -1.922609
v -3.152993 0.907225 -2.587416
v -3.425872 2.740244 -2.811569
v -1.778902 0.198716 -3.870177
v -1.969244 2.895998 -4.346917
v -1.459732 0.324214 -3.287572
v -1.594360 0.293434 -3.407965
v -1.492868 0.321871 -3.287599
v -1.530088 0.315198 -3.310488
v -1.565727 0.305213 -3.352754
v -1.784702 2.990716 -3.884704
v -1.650074 3.021496 -3.764311
v -1.756070 3.002495 -3.829494
v -1.720430 3.012481 -3.787226
v -1.683210 3.019153 -3.764338
v -1.382188 0.324214 -3.318532
v -1.572530 3.021496 -3.795272
v -1.474496 0.198716 -3.991713
v -1.664839 2.895998 -4.468453
v -1.304644 0.324214 -3.349492
v -1.289954 0.293434 -3.529501
v -1.280638 0.321871 -3.372333
v -1.269417 0.315198 -3.414563
v -1.272688 0.305213 -3.469753
v -1.480296 2.990716 -4.006240
v -1.494986 3.021496 -3.826232
v -1.463030 3.002495 -3.946492
v -1.459759 3.012481 -3.891302
v -1.470980 3.019153 -3.849072
v -1.756813 0.198716 -3.878996
v -1.469002 0.313680 -3.343469
v -1.587761 0.285484 -3.455580
v -1.497608 0.311533 -3.344191
v -1.530222 0.305421 -3.365750
v -1.561880 0.296274 -3.404865
v -1.402712 0.313680 -3.369936
v -1.496585 0.198716 -3.982894
v -1.336421 0.313680 -3.396403
v -1.327532 0.285484 -3.559478
v -1.316178 0.311533 -3.416628
v -1.307381 0.305421 -3.454722
v -1.311368 0.296274 -3.504884
v -1.737122 -0.006465 -3.829675
v -1.447793 0.006237 -3.290347
v -1.566924 0.003121 -3.403391
v -1.476427 0.006000 -3.291141
v -1.509122 0.005324 -3.312902
v -1.540900 0.004314 -3.352319
v -1.381502 0.006237 -3.316814
v -1.476893 -0.006465 -3.933574
v -1.315211 0.006237 -3.343282
v -1.306695 0.003121 -3.507289
v -1.294997 0.006000 -3.363578
v -1.286281 0.005324 -3.401874
v -1.290388 0.004314 -3.452338
v -1.946045 2.895998 -4.356179
v -1.775988 2.983282 -3.930246
v -1.657447 3.011645 -3.817100
v -1.750023 2.994136 -3.879201
v -1.718378 3.003338 -3.839774
v -1.685869 3.009486 -3.817967
v -1.591722 3.011645 -3.843341
v -1.688038 2.895998 -4.459191
v -1.517980 2.983282 -4.033257
v -1.525997 3.011645 -3.869582
v -1.501649 2.994136 -3.978366
v -1.497438 3.003338 -3.927986
v -1.505988 3.009486 -3.889786
v -1.514294 0.078888 -3.325857
v -1.546043 0.075882 -3.365200
v -1.291453 0.078888 -3.414828
v -1.300189 0.080896 -3.376582
v -1.572032 0.072337 -3.416184
v -1.741949 0.043831 -3.841765
v -1.481619 0.080896 -3.304145
v -1.320411 0.081601 -3.356303
v -1.311803 0.072337 -3.520082
v -1.295531 0.075882 -3.465219
v -1.452992 0.081601 -3.303369
v -1.386701 0.081601 -3.329836
v -1.481720 0.043831 -3.945663
v -1.368648 0.006961 -3.284620
v -1.425978 0.006961 -3.261731
v -1.311319 0.006961 -3.307509
v -1.315826 0.073552 -3.318798
v -1.373155 0.073552 -3.295909
v -1.430485 0.073552 -3.273020
v -3.993529 0.198716 -1.481382
v -4.465094 2.895998 -1.684205
v -3.356000 0.324214 -1.294685
v -3.536333 0.293434 -1.284739
v -3.379465 0.321871 -1.271289
v -3.421975 0.315198 -1.261183
v -3.477060 0.305213 -1.265906
v -4.007898 2.990716 -1.487562
v -3.827565 3.021496 -1.497509
v -3.948625 3.002495 -1.468730
v -3.893539 3.012481 -1.464007
v -3.851029 3.019153 -1.474113
v -3.323010 0.324214 -1.371388
v -3.794575 3.021496 -1.574212
v -3.864022 0.198716 -1.782483
v -4.335588 2.895998 -1.985307
v -3.290020 0.324214 -1.448091
v -3.406827 0.293434 -1.585840
v -3.289174 0.321871 -1.481215
v -3.311075 0.315198 -1.519025
v -3.352389 0.305213 -1.555764
v -3.878392 2.990716 -1.788663
v -3.761584 3.021496 -1.650914
v -3.823954 3.002495 -1.758588
v -3.782640 3.012481 -1.721849
v -3.760738 3.019153 -1.684039
v -3.984131 0.198716 -1.503230
v -3.402058 0.313680 -1.327686
v -3.565311 0.285484 -1.323093
v -3.422809 0.311533 -1.307983
v -3.461121 0.305421 -1.300191
v -3.511161 0.296274 -1.305497
v -3.373856 0.313680 -1.393257
v -3.873420 0.198716 -1.760635
v -3.345653 0.313680 -1.458828
v -3.454599 0.285484 -1.580497
v -3.345622 0.311533 -1.487443
v -3.366315 0.305421 -1.520614
v -3.404583 0.296274 -1.553290
v -3.935346 -0.006465 -1.482248
v -3.349514 0.006237 -1.305086
v -3.513688 0.003121 -1.300889
v -3.370335 0.006000 -1.285413
v -3.408846 0.005324 -1.277707
v -3.459186 0.004314 -1.283142
v -3.321311 0.006237 -1.370657
v -3.824635 -0.006465 -1.739651
v -3.293108 0.006237 -1.436229
v -3.402977 0.003121 -1.558293
v -3.293148 0.006000 -1.464873
v -3.314041 0.005324 -1.498130
v -3.352608 0.004314 -1.530935
v -4.455224 2.895998 -1.707153
v -4.033914 2.983282 -1.525944
v -3.870084 3.011645 -1.529650
v -3.979471 2.994136 -1.508174
v -3.929219 3.003338 -1.502638
v -3.890808 3.009486 -1.510180
v -3.842122 3.011645 -1.594662
v -4.345457 2.895998 -1.962360
v -3.924147 2.983282 -1.781151
v -3.814160 3.011645 -1.659673
v -3.873804 2.994136 -1.753852
v -3.835223 3.003338 -1.721180
v -3.814279 3.009486 -1.688109
v -3.421660 0.078888 -1.283219
v -3.471926 0.075882 -1.288622
v -3.326855 0.078888 -1.503641
v -3.306010 0.080896 -1.470406
v -3.526342 0.072337 -1.306332
v -3.947304 0.043831 -1.487391
v -3.383198 0.080896 -1.290946
v -3.305989 0.081601 -1.441768
v -3.415631 0.072337 -1.563736
v -3.365348 0.075882 -1.536415
v -3.362394 0.081601 -1.310626
v -3.334191 0.081601 -1.376197
v -3.836593 0.043831 -1.744795
v -3.289466 0.006961 -1.356960
v -3.313856 0.006961 -1.300253
v -3.265076 0.006961 -1.413668
v -3.276242 0.073552 -1.418470
v -3.300632 0.073552 -1.361763
v -3.325022 0.073552 -1.305056
v -4.213682 1.832161 -0.074058
v -4.037112 0.915651 -0.074057
v -4.390251 2.748670 -0.074059
v -4.084771 0.771028 -0.074058
v -4.037112 0.915651 0.000000
v -4.213682 1.832161 0.000000
v -4.390251 2.748670 0.000000
v -4.084771 0.771028 0.000000
v -4.098239 0.914280 -0.074057
v -4.274809 1.830789 -0.074058
v -4.451378 2.747299 -0.074059
v -4.145898 0.769656 -0.074058
v -4.098239 0.914280 0.000000
v -4.274809 1.830789 0.000000
v -4.451378 2.747299 0.000000
v -4.145898 0.769656 0.000000
v -0.074058 1.832161 -4.213682
v -0.074057 0.915651 -4.037112
v -0.074059 2.748670 -4.390251
v -0.074058 0.771028 -4.084771
v 0.000000 0.915651 -4.037112
v 0.000000 1.832161 -4.213682
v 0.000000 2.748670 -4.390251
v 0.000000 0.771028 -4.084771
v -0.074057 0.914280 -4.098239
v -0.074058 1.830789 -4.274809
v -0.074059 2.747299 -4.451378
v -0.074058 0.769656 -4.145898
v 0.000000 0.914280 -4.098239
v 0.000000 1.830789 -4.274809
v 0.000000 2.747299 -4.451378
v 0.000000 0.769656 -4.145898
v -2.916049 0.820256 -2.916064
v 0.000001 0.820256 -4.124267
v -2.612438 0.820256 -3.183506
v -2.286765 0.820256 -3.422486
v -1.941196 0.820256 -3.631540
v -1.195703 0.820256 -3.942428
v -0.802901 0.820256 -4.037055
v -0.403626 0.820256 -4.097279
v -3.809500 0.820256 -1.578002
v -4.124268 0.820256 -0.000023
v -4.097280 0.820256 -0.403651
v -4.037052 0.820256 -0.802924
v -3.942423 0.820256 -1.195723
v -3.631530 0.820256 -1.941218
v -3.422475 0.820256 -2.286783
v -3.183493 0.820256 -2.612454
vt 0.830285 0.282518
vt 0.843431 0.307802
vt 0.894221 0.284155
vt 0.861879 0.343285
vt 0.920115 0.307674
vt 0.774202 0.333822
vt 0.790267 0.304302
vt 0.823107 0.322213
vt 0.806733 0.351525
vt 0.801744 0.283213
vt 0.844415 0.282284
vt 0.355079 0.381685
vt 0.341876 0.352320
vt 0.374484 0.352320
vt 0.361840 0.381685
vt 0.830285 0.282518
vt 0.894221 0.284155
vt 0.843431 0.307802
vt 0.823107 0.322213
vt 0.790267 0.304302
vt 0.844415 0.282284
vt 0.801744 0.283213
vt 0.355079 0.381685
vt 0.361840 0.381685
vt 0.374484 0.352320
vt 0.341876 0.352320
vt 0.315657 0.712854
vt 0.378665 0.712854
vt 0.378665 0.692896
vt 0.345576 0.692896
vt 0.315657 0.692896
vt 0.009032 0.376637
vt 0.009032 0.395612
vt 0.001760 0.395612
vt 0.001760 0.376637
vt 0.780816 0.376637
vt 0.780816 0.395612
vt 0.733533 0.395612
vt 0.733533 0.376637
vt 1.000000 0.424182
vt 1.000000 0.440179
vt 0.992739 0.440179
vt 0.992739 0.424182
vt 0.315657 0.692896
vt 0.315657 0.687775
vt 0.345576 0.687775
vt 0.345576 0.692896
vt 0.378665 0.687775
vt 0.378665 0.692896
vt 0.009032 0.400481
vt 0.001760 0.400481
vt 0.780816 0.400481
vt 0.733533 0.400481
vt 1.000000 0.444284
vt 0.992739 0.444284
vt 0.009032 0.376637
vt 0.001760 0.376637
vt 0.001760 0.395612
vt 0.009032 0.395612
vt 0.733533 0.376637
vt 0.733533 0.395612
vt 1.000000 0.424182
vt 0.992739 0.424182
vt 0.992739 0.440179
vt 1.000000 0.440179
vt 0.345576 0.687775
vt 0.315657 0.687775
vt 0.378665 0.687775
vt 0.001760 0.400481
vt 0.009032 0.400481
vt 0.733533 0.400481
vt 0.992739 0.444284
vt 1.000000 0.444284
vt 0.378665 0.712854
vt 0.315657 0.712854
vt 0.588396 0.692896
vt 0.588396 0.687775
vt 0.685076 0.687775
vt 0.685076 0.692896
vt 0.588396 0.712853
vt 0.685076 0.712853
vt 0.577330 0.381685
vt 0.581545 0.352320
vt 0.685076 0.352320
vt 0.685076 0.381685
vt 0.483531 0.712853
vt 0.483531 0.692896
vt 0.483531 0.687775
vt 0.469585 0.381685
vt 0.478015 0.352320
vt 0.483531 0.712853
vt 0.483531 0.692896
vt 0.469585 0.381685
vt 0.478015 0.352320
vt 0.483531 0.687775
vt 0.588397 0.692896
vt 0.588397 0.687775
vt 0.577330 0.381685
vt 0.581545 0.352320
vt 0.588396 0.712853
vt 0.685076 0.381685
vt 0.685076 0.352320
vt 0.685076 0.692896
vt 0.685076 0.687775
vt 0.685076 0.712853
vt 0.830285 0.282518
vt 0.843431 0.307802
vt 0.894221 0.284155
vt 0.861879 0.343285
vt 0.920115 0.307674
vt 0.774202 0.333822
vt 0.790267 0.304302
vt 0.823107 0.322213
vt 0.806733 0.351525
vt 0.801744 0.283213
vt 0.844415 0.282284
vt 0.355079 0.381685
vt 0.341876 0.352320
vt 0.374484 0.352320
vt 0.361840 0.381685
vt 0.830285 0.282518
vt 0.894221 0.284155
vt 0.843431 0.307802
vt 0.823107 0.322213
vt 0.790267 0.304302
vt 0.844415 0.282284
vt 0.801744 0.283213
vt 0.355079 0.381685
vt 0.361840 0.381685
vt 0.374484 0.352320
vt 0.341876 0.352320
vt 0.315657 0.712854
vt 0.378665 0.712854
vt 0.378665 0.692896
vt 0.345576 0.692896
vt 0.315657 0.692896
vt 0.009032 0.376637
vt 0.009032 0.395612
vt 0.001760 0.395612
vt 0.001760 0.376637
vt 0.780816 0.376637
vt 0.780816 0.395612
vt 0.733533 0.395612
vt 0.733533 0.376637
vt 1.000000 0.424182
vt 1.000000 0.440179
vt 0.992739 0.440179
vt 0.992739 0.424182
vt 0.315657 0.692896
vt 0.315657 0.687775
vt 0.345576 0.687775
vt 0.345576 0.692896
vt 0.378665 0.687775
vt 0.378665 0.692896
vt 0.009032 0.400481
vt 0.001760 0.400481
vt 0.780816 0.400481
vt 0.733533 0.400481
vt 1.000000 0.444284
vt 0.992739 0.444284
vt 0.009032 0.376637
vt 0.009032 0.395612
vt 0.733533 0.376637
vt 0.733533 0.395612
vt 1.000000 0.424182
vt 0.992739 0.424182
vt 0.992739 0.440179
vt 1.000000 0.440179
vt 0.345576 0.687775
vt 0.315657 0.687775
vt 0.378665 0.687775
vt 0.009032 0.400481
vt 0.733533 0.400481
vt 0.992739 0.444284
vt 1.000000 0.444284
vt 0.378665 0.712854
vt 0.315657 0.712854
vt 0.588396 0.692896
vt 0.588396 0.687775
vt 0.685076 0.687775
vt 0.685076 0.692896
vt 0.588396 0.712853
vt 0.685076 0.712853
vt 0.577330 0.381685
vt 0.581545 0.352320
vt 0.685076 0.352320
vt 0.685076 0.381685
vt 0.483531 0.712853
vt 0.483531 0.692896
vt 0.483531 0.687775
vt 0.469585 0.381685
vt 0.478015 0.352320
vt 0.483531 0.712853
vt 0.483531 0.692896
vt 0.469585 0.381685
vt 0.478015 0.352320
vt 0.483531 0.687775
vt 0.588397 0.692896
vt 0.588397 0.687775
vt 0.577330 0.381685
vt 0.581545 0.352320
vt 0.588396 0.712853
vt 0.685076 0.692896
vt 0.685076 0.687775
vt 0.685076 0.712853
vt 1.000490 0.304256
vt 0.003362 0.304256
vt 0.003362 0.183178
vt 1.000490 0.183178
vt 1.000490 0.341299
vt 0.003362 0.341299
vt 0.003362 0.335925
vt 1.000490 0.335925
vt 1.000490 0.312173
vt 0.003362 0.312173
vt 1.000490 0.320090
vt 0.003362 0.320090
vt 1.000490 0.328007
vt 0.003362 0.328007
vt 1.000490 0.304256
vt 1.000490 0.183178
vt 0.003362 0.183178
vt 0.003362 0.304256
vt 1.000490 0.335925
vt 0.003362 0.335925
vt 0.003362 0.312173
vt 1.000490 0.312173
vt 0.003362 0.320090
vt 1.000490 0.320090
vt 0.003362 0.328007
vt 1.000490 0.328007
vt 1.000490 0.335925
vt 1.000490 0.328007
vt 1.000490 0.335925
vt 1.000490 0.341299
vt 1.000490 0.320090
vt 1.000490 0.312173
vt 1.000490 0.183178
vt 1.000490 0.304256
vt 1.000490 0.304256
vt 1.000490 0.328007
vt 1.000490 0.320090
vt 1.000490 0.312173
vt 1.000490 0.183178
vt 0.003362 0.312173
vt 0.003362 0.320090
vt 0.003362 0.335925
vt 0.003362 0.328007
vt 0.003362 0.335925
vt 0.003362 0.341299
vt 0.003362 0.312173
vt 0.003362 0.304256
vt 0.003362 0.320090
vt 0.003362 0.183178
vt 0.003362 0.304256
vt 0.003362 0.328007
vt 0.003362 0.183178
vt 1.000490 0.304256
vt 0.003362 0.304256
vt 0.003362 0.183178
vt 1.000490 0.183178
vt 1.000490 0.341299
vt 0.003362 0.341299
vt 0.003362 0.335925
vt 1.000490 0.335925
vt 1.000490 0.312173
vt 0.003362 0.312173
vt 1.000490 0.320090
vt 0.003362 0.320090
vt 1.000490 0.328007
vt 0.003362 0.328007
vt 1.000490 0.304256
vt 1.000490 0.183178
vt 0.003362 0.183178
vt 0.003362 0.304256
vt 1.000490 0.335925
vt 0.003362 0.335925
vt 0.003362 0.312173
vt 1.000490 0.312173
vt 0.003362 0.320090
vt 1.000490 0.320090
vt 0.003362 0.328007
vt 1.000490 0.328007
vt 1.000490 0.335925
vt 1.000490 0.328007
vt 1.000490 0.335925
vt 1.000490 0.341299
vt 1.000490 0.320090
vt 1.000490 0.312173
vt 1.000490 0.183178
vt 1.000490 0.304256
vt 1.000490 0.304256
vt 1.000490 0.328007
vt 1.000490 0.320090
vt 1.000490 0.312173
vt 1.000490 0.183178
vt 0.003362 0.312173
vt 0.003362 0.320090
vt 0.003362 0.335925
vt 0.003362 0.328007
vt 0.003362 0.335925
vt 0.003362 0.341299
vt 0.003362 0.312173
vt 0.003362 0.304256
vt 0.003362 0.320090
vt 0.003362 0.183178
vt 0.003362 0.304256
vt 0.003362 0.328007
vt 0.003362 0.183178
vt 0.474514 0.958052
vt 0.554491 0.958052
vt 0.554491 0.985342
vt 0.474514 0.985342
vt 0.394537 0.958052
vt 0.394537 0.985342
vt 0.474514 0.958052
vt 0.554491 0.958052
vt 0.554491 0.985342
vt 0.474514 0.985342
vt 0.394537 0.958052
vt 0.394537 0.985342
vt 0.499396 0.958052
vt 0.579373 0.958052
vt 0.579373 0.985342
vt 0.499396 0.985342
vt 0.535085 0.743855
vt 0.501367 0.743855
vt 0.501367 0.723702
vt 0.535085 0.723702
vt 0.467649 0.743855
vt 0.467649 0.723702
vt 0.394537 0.958052
vt 0.419419 0.958052
vt 0.419419 0.985342
vt 0.394537 0.985342
vt 0.604256 0.958052
vt 0.604256 0.985342
vt 0.499396 0.958052
vt 0.579373 0.958052
vt 0.579373 0.985342
vt 0.499396 0.985342
vt 0.535085 0.743855
vt 0.501367 0.743855
vt 0.501367 0.723702
vt 0.535085 0.723702
vt 0.467649 0.743855
vt 0.467649 0.723702
vt 0.394537 0.958052
vt 0.419419 0.958052
vt 0.419419 0.985342
vt 0.394537 0.985342
vt 0.604256 0.958052
vt 0.604256 0.985342
vt 0.507594 0.500761
vt 0.969884 0.500760
vt 0.969884 0.515776
vt 0.507594 0.515776
vt -0.030116 0.500761
vt 0.045305 0.500761
vt 0.045305 0.515777
vt -0.030116 0.515777
vt 0.507594 0.500761
vt 0.507594 0.528849
vt 0.969884 0.528849
vt 0.969884 0.500760
vt -0.030116 0.500761
vt -0.030116 0.528850
vt 0.045305 0.528850
vt 0.045305 0.500761
vt 0.507594 0.500761
vt 0.507594 0.515776
vt 0.969884 0.515776
vt 0.969884 0.500760
vt -0.030116 0.500761
vt -0.030116 0.515777
vt 0.045305 0.515777
vt 0.045305 0.500761
vt 0.507594 0.500761
vt 0.969884 0.500760
vt 0.969884 0.528849
vt 0.507594 0.528849
vt -0.030116 0.500761
vt 0.045305 0.500761
vt 0.045305 0.528850
vt -0.030116 0.528850
vt 1.000000 0.440793
vt 0.885134 0.440793
vt 0.885134 0.370083
vt 1.000000 0.370083
vt 0.586482 0.370083
vt 0.619224 0.370083
vt 0.619224 0.440793
vt 1.000000 0.440793
vt 1.000000 0.370083
vt 0.885134 0.370083
vt 0.885134 0.440793
vt 0.586482 0.370083
vt 0.619224 0.440793
vt 0.619224 0.370083
vt 0.770268 0.440793
vt 0.770268 0.370083
vt 0.655402 0.440793
vt 0.655402 0.370083
vt 0.655402 0.440793
vt 0.655402 0.370083
vt 0.770268 0.440793
vt 0.770268 0.370083
vt 1.000000 0.440793
vt 0.885134 0.440793
vt 0.885134 0.370083
vt 1.000000 0.370083
vt 0.586482 0.370083
vt 0.619224 0.370083
vt 0.619224 0.440793
vt 0.885134 0.370083
vt 0.885134 0.440793
vt 0.586482 0.370083
vt 0.619224 0.440793
vt 0.619224 0.370083
vt 0.770268 0.440793
vt 0.770268 0.370083
vt 0.655402 0.440793
vt 0.655402 0.370083
vt 0.655402 0.440793
vt 0.655402 0.370083
vt 0.770268 0.440793
vt 0.770268 0.370083
vt 0.435104 0.378818
vt 0.411296 0.378834
vt 0.411486 0.370041
vt 0.435181 0.370041
vt 0.566564 0.378818
vt 0.548073 0.378813
vt 0.548062 0.370041
vt 0.566488 0.370041
vt 0.384353 0.378857
vt 0.168614 0.379054
vt 0.170077 0.370041
vt 0.384684 0.370041
vt 0.453595 0.378813
vt 0.453606 0.370041
vt 0.534552 0.378813
vt 0.534552 0.370041
vt 0.617315 0.378857
vt 0.590373 0.378834
vt 0.590182 0.370041
vt 0.616984 0.370041
vt 0.467116 0.378813
vt 0.467116 0.370041
vt 0.833055 0.379054
vt 0.831591 0.370041
vt 0.837562 0.406810
vt 0.618334 0.406007
vt 0.500834 0.405826
vt 0.467116 0.405826
vt 0.500834 0.378813
vt 0.590959 0.405911
vt 0.566800 0.405848
vt 0.410709 0.405911
vt 0.383335 0.406007
vt 0.534552 0.405826
vt 0.453561 0.405826
vt 0.548107 0.405826
vt 0.434869 0.405848
vt 0.164106 0.406810
vt 0.435104 0.378818
vt 0.411296 0.378834
vt 0.411486 0.370041
vt 0.435181 0.370041
vt 0.566564 0.378818
vt 0.548073 0.378813
vt 0.548062 0.370041
vt 0.566488 0.370041
vt 0.384353 0.378857
vt 0.168614 0.379054
vt 0.170077 0.370041
vt 0.384684 0.370041
vt 0.453595 0.378813
vt 0.453606 0.370041
vt 0.534552 0.378813
vt 0.534552 0.370041
vt 0.617315 0.378857
vt 0.590373 0.378834
vt 0.590182 0.370041
vt 0.616984 0.370041
vt 0.467116 0.378813
vt 0.467116 0.370041
vt 0.833055 0.379054
vt 0.831591 0.370041
vt 0.837562 0.406810
vt 0.618334 0.406007
vt 0.500834 0.405826
vt 0.467116 0.405826
vt 0.500834 0.378813
vt 0.590959 0.405911
vt 0.566800 0.405848
vt 0.410709 0.405911
vt 0.383335 0.406007
vt 0.534552 0.405826
vt 0.453561 0.405826
vt 0.548107 0.405826
vt 0.434869 0.405848
vt 0.164106 0.406810
vt 0.599372 0.992305
vt 0.599372 0.948391
vt -0.070993 0.948391
vt -0.070993 0.992305
vt 0.601730 0.947293
vt 0.601730 0.991208
vt 1.272096 0.991208
vt 1.272096 0.947293
vt 0.445496 0.947135
vt 0.445496 0.991557
vt 0.497920 0.991557
vt 0.497920 0.947135
vt 1.269737 0.992305
vt 1.269737 0.948391
vt -0.178004 0.947294
vt -0.178004 0.991208
vt -0.068637 0.991208
vt -0.068637 0.947294
vt 0.445495 0.991557
vt 0.445495 0.947136
vt 0.393071 0.947136
vt 0.393071 0.991557
vt -0.180360 0.948391
vt -0.180360 0.992305
vt 0.599372 0.992305
vt -0.070993 0.992305
vt -0.070993 0.948391
vt 0.599372 0.948391
vt 0.601730 0.947293
vt 1.272096 0.947293
vt 1.272096 0.991208
vt 0.601730 0.991208
vt 0.445496 0.947135
vt 0.497920 0.947135
vt 0.497920 0.991557
vt 0.445496 0.991557
vt 1.269737 0.992305
vt 1.269737 0.948391
vt -0.178004 0.947294
vt -0.068637 0.947294
vt -0.068637 0.991208
vt -0.178004 0.991208
vt 0.445495 0.991557
vt 0.393071 0.991557
vt 0.393071 0.947136
vt 0.445495 0.947136
vt -0.180360 0.992305
vt -0.180360 0.948391
vt 0.752710 0.848131
vt 0.752710 0.795474
vt 0.877170 0.795474
vt 0.877170 0.848131
vt 0.000000 0.928508
vt 0.000000 0.902538
vt 0.127170 0.902538
vt 0.127170 0.928508
vt 0.752710 0.928508
vt 0.752710 0.902538
vt 0.877170 0.902538
vt 0.877170 0.928508
vt 0.252710 0.717195
vt 0.252710 0.795474
vt 0.127170 0.795474
vt 0.127170 0.717195
vt 0.377710 0.848131
vt 0.377710 0.795474
vt 0.502710 0.795474
vt 0.502710 0.848131
vt 0.252710 0.902538
vt 0.252710 0.928508
vt 0.252710 0.848131
vt 0.127170 0.848131
vt 0.583698 0.296278
vt 0.583698 0.272406
vt 0.629604 0.272406
vt 0.629604 0.296278
vt 0.377710 0.928508
vt 0.377710 0.902538
vt 0.502710 0.902538
vt 0.502710 0.928508
vt 0.752710 0.717195
vt 0.877170 0.717195
vt 0.127170 0.884787
vt 0.252710 0.884787
vt 0.445982 0.296278
vt 0.445982 0.272406
vt 0.491888 0.272406
vt 0.491888 0.296278
vt 0.000000 0.884787
vt 0.000000 0.848131
vt 0.502710 0.884787
vt 0.627710 0.848131
vt 0.627710 0.884787
vt 0.627710 0.902538
vt 0.627710 0.928508
vt 0.537793 0.272406
vt 0.537793 0.296278
vt 0.308267 0.296278
vt 0.308267 0.272406
vt 0.354172 0.272406
vt 0.354172 0.296278
vt 0.377710 0.884787
vt 0.752710 0.884787
vt 0.877170 0.884787
vt 0.400077 0.272406
vt 0.400077 0.296278
vt 0.000000 0.795474
vt -0.000000 0.717195
vt 0.377710 0.717195
vt 0.627710 0.717195
vt 0.627710 0.795474
vt 0.502710 0.717195
vt 1.000000 0.902538
vt 1.000000 0.928508
vt 1.000000 0.848131
vt 1.000000 0.884787
vt 0.675509 0.272406
vt 0.675509 0.296278
vt 1.000000 0.795474
vt 1.000000 0.717195
vt 0.752710 0.848131
vt 0.752710 0.795474
vt 0.877170 0.795474
vt 0.877170 0.848131
vt 0.000000 0.928508
vt 0.000000 0.902538
vt 0.127170 0.902538
vt 0.127170 0.928508
vt 0.752710 0.928508
vt 0.752710 0.902538
vt 0.877170 0.902538
vt 0.877170 0.928508
vt 0.252710 0.717195
vt 0.252710 0.795474
vt 0.127170 0.795474
vt 0.127170 0.717195
vt 0.377710 0.848131
vt 0.377710 0.795474
vt 0.502710 0.795474
vt 0.502710 0.848131
vt 0.252710 0.902538
vt 0.252710 0.928508
vt 0.252710 0.848131
vt 0.127170 0.848131
vt 0.583698 0.296278
vt 0.583698 0.272406
vt 0.629604 0.272406
vt 0.629604 0.296278
vt 0.377710 0.928508
vt 0.377710 0.902538
vt 0.502710 0.902538
vt 0.502710 0.928508
vt 0.752710 0.717195
vt 0.877170 0.717195
vt 0.127170 0.884787
vt 0.252710 0.884787
vt 0.445982 0.296278
vt 0.445982 0.272406
vt 0.491888 0.272406
vt 0.491888 0.296278
vt 0.000000 0.884787
vt 0.000000 0.848131
vt 0.502710 0.884787
vt 0.627710 0.848131
vt 0.627710 0.884787
vt 0.627710 0.902538
vt 0.627710 0.928508
vt 0.537793 0.272406
vt 0.537793 0.296278
vt 0.308267 0.296278
vt 0.308267 0.272406
vt 0.354172 0.272406
vt 0.354172 0.296278
vt 0.377710 0.884787
vt 0.752710 0.884787
vt 0.877170 0.884787
vt 0.400077 0.272406
vt 0.400077 0.296278
vt 0.000000 0.795474
vt -0.000000 0.717195
vt 0.377710 0.717195
vt 0.627710 0.717195
vt 0.627710 0.795474
vt 0.502710 0.717195
vt 1.000000 0.902538
vt 1.000000 0.928508
vt 1.000000 0.848131
vt 1.000000 0.884787
vt 0.675509 0.272406
vt 0.675509 0.296278
vt 1.000000 0.795474
vt 1.000000 0.717195
vt 1.000000 0.928508
vt 0.877170 0.928508
vt 0.752710 0.928508
vt 1.000000 0.928508
vt 0.877170 0.928508
vt 0.127170 0.928508
vt 0.000000 0.928508
vt 0.377710 0.928508
vt 0.252710 0.928508
vt 0.752710 0.928508
vt 0.627710 0.928508
vt 0.502710 0.928508
vt 0.127170 0.928508
vt 0.000000 0.928508
vt 0.377710 0.928508
vt 0.252710 0.928508
vt 0.627710 0.928508
vt 0.502710 0.928508
vt 0.097487 0.953758
vt -0.000013 1.000000
vt 0.249987 0.750006
vt 0.249987 0.802535
vt 0.500000 0.500000
vt 0.455051 0.401146
vt 0.452515 0.056305
vt 0.500000 -0.000000
vt 1.000000 1.000000
vt 0.749987 0.749987
vt 0.749987 0.696369
vt 0.949557 0.897487
vt -0.000013 0.500000
vt -0.000013 -0.000000
vt 0.045500 0.101034
vt 0.051840 0.442989
vt 0.548881 0.050533
vt 0.545077 0.398261
vt 0.500000 1.000000
vt 0.548881 0.947987
vt 0.749987 0.951303
vt 0.749987 1.000000
vt 1.000000 -0.000000
vt 1.000000 0.500000
vt 0.950825 0.451646
vt 0.957165 0.101033
vt 0.394190 0.545432
vt 0.249987 0.686082
vt 0.115237 0.056305
vt 0.249987 0.193049
vt 0.249987 0.249994
vt 0.249987 0.056305
vt 0.249987 0.129709
vt 0.249987 -0.000000
vt 0.389117 0.453089
vt 0.249987 0.310543
vt 0.249987 0.393077
vt 0.249987 0.448923
vt 0.249987 0.500000
vt 0.048036 0.883059
vt 0.042964 0.554089
vt 0.249987 0.548986
vt 0.452516 0.601702
vt 0.449980 0.943658
vt 0.249987 0.619861
vt 0.249987 0.949389
vt 0.249987 0.880085
vt 0.328198 0.842301
vt 0.249987 1.000000
vt 0.898839 0.953758
vt 0.749987 0.802589
vt 0.749987 0.877130
vt 0.545078 0.594488
vt 0.827287 0.653426
vt 0.947021 0.558417
vt 0.749987 0.554250
vt 0.749993 0.500000
vt 0.664194 0.173608
vt 0.749987 0.198279
vt 0.749994 0.250006
vt 0.749994 -0.000000
vt 0.749987 0.050533
vt 0.749987 0.305964
vt 0.749987 0.454112
vt 0.848406 0.344146
vt 0.749987 0.388157
vt 0.749987 0.129089
vt 0.901375 0.050533
vt 0.598332 0.455975
vt 0.749987 0.617727
vt 0.605939 0.551203
vt 0.641846 0.821459
vt 0.149626 0.671662
vt 0.143902 0.347318
vt 0.336212 0.176679
vt 0.097487 0.953758
vt -0.000013 1.000000
vt 0.249981 0.750013
vt 0.249987 0.802535
vt 0.500000 0.500000
vt 0.455051 0.401146
vt 0.452515 0.056305
vt 0.500000 -0.000000
vt 1.000000 1.000000
vt 0.749994 0.749994
vt 0.749987 0.696369
vt 0.949557 0.897487
vt -0.000013 0.500000
vt -0.000013 -0.000000
vt 0.045500 0.101034
vt 0.051840 0.442989
vt 0.548881 0.050533
vt 0.545077 0.398261
vt 0.500000 1.000000
vt 0.548881 0.947987
vt 0.749987 0.951303
vt 0.749994 1.000000
vt 1.000000 -0.000000
vt 1.000000 0.500000
vt 0.950825 0.451646
vt 0.957165 0.101033
vt 0.394190 0.545432
vt 0.249987 0.686082
vt 0.115237 0.056305
vt 0.249987 0.193049
vt 0.249987 0.249994
vt 0.249987 0.056305
vt 0.249987 0.129709
vt 0.249987 -0.000000
vt 0.389117 0.453089
vt 0.249987 0.310543
vt 0.249987 0.393077
vt 0.249987 0.448923
vt 0.249987 0.500000
vt 0.048036 0.883059
vt 0.042964 0.554089
vt 0.249987 0.548986
vt 0.452516 0.601702
vt 0.449980 0.943658
vt 0.249987 0.619861
vt 0.249987 0.949389
vt 0.249987 0.880085
vt 0.328198 0.842301
vt 0.249981 1.000000
vt 0.898839 0.953758
vt 0.749987 0.802589
vt 0.749987 0.877130
vt 0.545078 0.594488
vt 0.827287 0.653426
vt 0.947021 0.558417
vt 0.749987 0.554250
vt 0.749994 0.500000
vt 0.664194 0.173608
vt 0.749987 0.198279
vt 0.749994 0.250006
vt 0.749994 -0.000000
vt 0.749987 0.050533
vt 0.749987 0.305964
vt 0.749987 0.454112
vt 0.848406 0.344146
vt 0.749987 0.388157
vt 0.749987 0.129089
vt 0.901375 0.050533
vt 0.598332 0.455975
vt 0.749987 0.617727
vt 0.605939 0.551203
vt 0.641846 0.821459
vt 0.149626 0.671662
vt 0.143902 0.347318
vt 0.336212 0.176679
vt 0.500000 1.000000
vt 0.249981 1.000000
vt 1.000000 1.000000
vt 0.749987 1.000000
vt 0.749994 -0.000000
vt 1.000000 -0.000000
vt 0.500000 -0.000000
vt 0.749994 -0.000000
vt -0.000013 1.000000
vt 0.249987 -0.000000
vt -0.000013 -0.000000
vt 0.249987 -0.000000
vt 1.000000 -0.000000
vt 1.000000 1.000000
vt 0.749994 1.000000
vt 0.500000 -0.000000
vt 1.000000 0.500000
vt -0.000013 -0.000000
vt 0.249987 1.000000
vt -0.000013 1.000000
vt 0.500000 1.000000
vt 0.097487 0.953758
vt -0.000013 1.000000
vt 0.249987 0.750006
vt 0.249987 0.802535
vt 0.500000 0.500000
vt 0.455051 0.401146
vt 0.452515 0.056305
vt 0.500000 -0.000000
vt 1.000000 1.000000
vt 0.749987 0.749987
vt 0.749987 0.696369
vt 0.949557 0.897487
vt -0.000013 0.500000
vt -0.000013 -0.000000
vt 0.045500 0.101034
vt 0.051840 0.442989
vt 0.548881 0.050533
vt 0.545077 0.398261
vt 0.500000 1.000000
vt 0.548881 0.947987
vt 0.749987 0.951303
vt 0.749987 1.000000
vt 1.000000 -0.000000
vt 1.000000 0.500000
vt 0.950825 0.451646
vt 0.957165 0.101033
vt 0.394190 0.545432
vt 0.249987 0.686082
vt 0.115237 0.056305
vt 0.249987 0.193049
vt 0.249987 0.249994
vt 0.249987 0.056305
vt 0.249987 0.129709
vt 0.249987 -0.000000
vt 0.389117 0.453089
vt 0.249987 0.310543
vt 0.249987 0.393077
vt 0.249987 0.448923
vt 0.249987 0.500000
vt 0.048036 0.883059
vt 0.042964 0.554089
vt 0.249987 0.548986
vt 0.452516 0.601702
vt 0.449980 0.943658
vt 0.249987 0.619861
vt 0.249987 0.949389
vt 0.249987 0.880085
vt 0.328198 0.842301
vt 0.249987 1.000000
vt 0.898839 0.953758
vt 0.749987 0.802589
vt 0.749987 0.877130
vt 0.545078 0.594488
vt 0.827287 0.653426
vt 0.947021 0.558417
vt 0.749987 0.554250
vt 0.749993 0.500000
vt 0.664194 0.173608
vt 0.749987 0.198279
vt 0.749994 0.250006
vt 0.749994 -0.000000
vt 0.749987 0.050533
vt 0.749987 0.305964
vt 0.749987 0.454112
vt 0.848406 0.344146
vt 0.749987 0.388157
vt 0.749987 0.129089
vt 0.901375 0.050533
vt 0.598332 0.455975
vt 0.749987 0.617727
vt 0.605939 0.551203
vt 0.641846 0.821459
vt 0.149626 0.671662
vt 0.143902 0.347318
vt 0.336212 0.176679
vt 0.097487 0.953758
vt -0.000013 1.000000
vt 0.249981 0.750013
vt 0.249987 0.802535
vt 0.500000 0.500000
vt 0.455051 0.401146
vt 0.452515 0.056305
vt 0.500000 -0.000000
vt 1.000000 1.000000
vt 0.749994 0.749994
vt 0.749987 0.696369
vt 0.949557 0.897487
vt -0.000013 0.500000
vt -0.000013 -0.000000
vt 0.045500 0.101034
vt 0.051840 0.442989
vt 0.548881 0.050533
vt 0.545077 0.398261
vt 0.500000 1.000000
vt 0.548881 0.947987
vt 0.749987 0.951303
vt 0.749994 1.000000
vt 1.000000 -0.000000
vt 1.000000 0.500000
vt 0.950825 0.451646
vt 0.957165 0.101033
vt 0.394190 0.545432
vt 0.249987 0.686082
vt 0.115237 0.056305
vt 0.249987 0.193049
vt 0.249987 0.249994
vt 0.249987 0.056305
vt 0.249987 0.129709
vt 0.249987 -0.000000
vt 0.389117 0.453089
vt 0.249987 0.310543
vt 0.249987 0.393077
vt 0.249987 0.448923
vt 0.249987 0.500000
vt 0.048036 0.883059
vt 0.042964 0.554089
vt 0.249987 0.548986
vt 0.452516 0.601702
vt 0.449980 0.943658
vt 0.249987 0.619861
vt 0.249987 0.949389
vt 0.249987 0.880085
vt 0.328198 0.842301
vt 0.249981 1.000000
vt 0.898839 0.953758
vt 0.749987 0.802589
vt 0.749987 0.877130
vt 0.545078 0.594488
vt 0.827287 0.653426
vt 0.947021 0.558417
vt 0.749987 0.554250
vt 0.749994 0.500000
vt 0.664194 0.173608
vt 0.749987 0.198279
vt 0.749994 0.250006
vt 0.749994 -0.000000
vt 0.749987 0.050533
vt 0.749987 0.305964
vt 0.749987 0.454112
vt 0.848406 0.344146
vt 0.749987 0.388157
vt 0.749987 0.129089
vt 0.901375 0.050533
vt 0.598332 0.455975
vt 0.749987 0.617727
vt 0.605939 0.551203
vt 0.641846 0.821459
vt 0.149626 0.671662
vt 0.143902 0.347318
vt 0.336212 0.176679
vt 0.500000 1.000000
vt 0.249981 1.000000
vt 1.000000 1.000000
vt 0.749987 1.000000
vt 0.749994 -0.000000
vt 1.000000 -0.000000
vt 0.500000 -0.000000
vt 0.749994 -0.000000
vt -0.000013 1.000000
vt 0.249987 -0.000000
vt -0.000013 -0.000000
vt 0.249987 -0.000000
vt 1.000000 -0.000000
vt -0.000013 0.500000
vt 1.000000 1.000000
vt 0.749994 1.000000
vt 0.500000 -0.000000
vt -0.000013 -0.000000
vt -0.000013 1.000000
vt 0.249987 1.000000
vt 0.500000 1.000000
vn 0.2563 -0.8205 0.5109
vn 0.2496 -0.8211 0.5134
vn 0.3097 -0.7070 0.6358
vn 0.2149 -0.8235 0.5251
vn 0.2676 -0.7073 0.6543
vn 0.1827 -0.9083 0.3763
vn 0.1584 -0.9085 0.3867
vn 0.1877 -0.9083 0.3737
vn 0.2750 -0.8226 0.4976
vn 0.2021 -0.9084 0.3660
vn 0.1874 -0.8205 0.5400
vn 0.2325 -0.7069 0.6680
vn 0.1881 -0.8205 0.5399
vn 0.1378 -0.9083 0.3950
vn 0.1368 -0.9083 0.3953
vn 0.1176 -0.9084 0.4012
vn 0.1596 -0.8232 0.5449
vn 0.3090 -0.3379 0.8890
vn 0.2649 -0.3381 0.9030
vn 0.2805 -0.0766 0.9568
vn 0.3271 -0.0759 0.9419
vn 0.3274 -0.0759 0.9418
vn 0.6224 -0.3376 0.7061
vn 0.6593 -0.0759 0.7481
vn 0.7050 -0.0768 0.7050
vn 0.6654 -0.3381 0.6655
vn 0.3529 -0.3382 0.8724
vn 0.3738 -0.0767 0.9243
vn 0.4329 -0.0762 0.8982
vn 0.4084 -0.3379 0.8479
vn 0.4469 -0.0759 0.8913
vn 0.4219 -0.3378 0.8414
vn 0.4399 0.1915 0.8774
vn 0.4402 0.1915 0.8772
vn 0.4472 -0.0759 0.8912
vn 0.4746 0.1916 0.8591
vn 0.4822 -0.0765 0.8727
vn 0.6489 0.1913 0.7364
vn 0.6940 0.1916 0.6940
vn 0.3680 0.1916 0.9099
vn 0.4261 0.1915 0.8842
vn 0.0625 -0.3376 0.9392
vn 0.0621 -0.3375 0.9393
vn 0.0659 -0.0767 0.9949
vn 0.0663 -0.0759 0.9949
vn 0.3095 -0.3379 0.8888
vn 0.3278 -0.0760 0.9417
vn 0.3220 0.1915 0.9272
vn 0.3223 0.1915 0.9270
vn 0.2762 0.1916 0.9418
vn 0.0650 0.1912 0.9794
vn 0.0654 0.1913 0.9794
vn 0.3226 0.1914 0.9270
vn 0.4549 -0.3380 0.8239
vn 0.6249 -0.0766 0.7769
vn 0.6153 0.1915 0.7647
vn 0.5900 -0.3380 0.7332
vn 0.2624 -0.9083 0.3256
vn 0.3563 -0.8229 0.4426
vn 0.4006 -0.8241 0.4006
vn 0.2955 -0.9085 0.2955
vn 0.5225 -0.3380 0.7828
vn 0.5535 -0.0766 0.8293
vn 0.5449 0.1915 0.8164
vn 0.2322 -0.9084 0.3478
vn 0.3155 -0.8229 0.4726
vn 0.1806 -0.3380 0.9237
vn 0.1913 -0.0765 0.9786
vn 0.0803 -0.9083 0.4104
vn 0.1091 -0.8228 0.5578
vn 0.1883 0.1915 0.9633
vn 0.1079 -0.0765 0.9912
vn 0.1061 0.1915 0.9757
vn 0.0449 -0.9083 0.4159
vn 0.0613 -0.8227 0.5652
vn 0.1017 -0.3380 0.9356
vn 0.0276 -0.9082 0.4177
vn 0.0376 -0.8237 0.5658
vn 0.5401 -0.8205 0.1874
vn 0.5399 -0.8205 0.1881
vn 0.6680 -0.7069 0.2325
vn 0.5251 -0.8235 0.2149
vn 0.6543 -0.7073 0.2676
vn 0.3950 -0.9083 0.1378
vn 0.3867 -0.9085 0.1584
vn 0.3953 -0.9083 0.1368
vn 0.5449 -0.8232 0.1596
vn 0.4012 -0.9084 0.1176
vn 0.5109 -0.8205 0.2563
vn 0.6358 -0.7070 0.3097
vn 0.5134 -0.8211 0.2496
vn 0.3763 -0.9083 0.1827
vn 0.3737 -0.9083 0.1877
vn 0.3660 -0.9084 0.2021
vn 0.4976 -0.8226 0.2750
vn 0.8414 -0.3378 0.4219
vn 0.8239 -0.3380 0.4549
vn 0.8727 -0.0765 0.4822
vn 0.8912 -0.0759 0.4472
vn 0.8913 -0.0759 0.4469
vn 0.9392 -0.3376 0.0625
vn 0.9949 -0.0759 0.0663
vn 0.9949 -0.0767 0.0659
vn 0.9393 -0.3375 0.0621
vn 0.8724 -0.3382 0.3529
vn 0.9243 -0.0767 0.3738
vn 0.9417 -0.0760 0.3278
vn 0.8888 -0.3379 0.3095
vn 0.9418 -0.0759 0.3274
vn 0.8890 -0.3379 0.3090
vn 0.9270 0.1915 0.3223
vn 0.9272 0.1915 0.3220
vn 0.9419 -0.0759 0.3271
vn 0.9418 0.1916 0.2762
vn 0.9568 -0.0766 0.2805
vn 0.9794 0.1913 0.0653
vn 0.9794 0.1912 0.0650
vn 0.9099 0.1916 0.3680
vn 0.9270 0.1914 0.3226
vn 0.7061 -0.3376 0.6224
vn 0.7480 -0.0759 0.6593
vn 0.8479 -0.3379 0.4084
vn 0.8982 -0.0762 0.4329
vn 0.8772 0.1915 0.4402
vn 0.8774 0.1914 0.4399
vn 0.8591 0.1916 0.4746
vn 0.7364 0.1913 0.6489
vn 0.8842 0.1915 0.4261
vn 0.9030 -0.3381 0.2649
vn 0.9912 -0.0765 0.1079
vn 0.9757 0.1915 0.1061
vn 0.9356 -0.3380 0.1017
vn 0.4158 -0.9083 0.0449
vn 0.5652 -0.8227 0.0613
vn 0.5658 -0.8237 0.0376
vn 0.4177 -0.9082 0.0276
vn 0.9237 -0.3380 0.1806
vn 0.9785 -0.0765 0.1913
vn 0.9633 0.1915 0.1883
vn 0.4104 -0.9083 0.0803
vn 0.5578 -0.8228 0.1091
vn 0.7828 -0.3380 0.5225
vn 0.8293 -0.0766 0.5535
vn 0.3478 -0.9084 0.2322
vn 0.4726 -0.8229 0.3155
vn 0.8163 0.1915 0.5449
vn 0.7769 -0.0766 0.6249
vn 0.7647 0.1915 0.6153
vn 0.3256 -0.9083 0.2624
vn 0.4426 -0.8229 0.3563
vn 0.7332 -0.3380 0.5900
vn -0.9100 0.0090 0.4145
vn -0.9287 -0.0000 0.3708
vn 0.3643 0.1870 0.9123
vn 0.1790 0.1835 0.9666
vn -0.8345 0.0383 0.5497
vn -0.6606 0.0852 0.7459
vn -0.2848 0.1473 0.9472
vn 0.9453 0.0090 -0.3262
vn 0.9287 0.0000 -0.3708
vn 0.5360 0.1835 0.8241
vn 0.9836 0.0383 -0.1762
vn 0.9927 0.0852 0.0858
vn 0.8588 0.1473 0.4906
vn 0.0693 -0.9824 0.1736
vn -0.0693 0.9824 -0.1736
vn -0.3510 0.0090 0.9363
vn -0.3951 0.0000 0.9186
vn 0.9024 0.1870 0.3881
vn 0.8097 0.1835 0.5575
vn -0.2021 0.0383 0.9786
vn 0.0596 0.0852 0.9946
vn 0.4678 0.1473 0.8715
vn 0.4383 0.0090 -0.8988
vn 0.3951 0.0000 -0.9186
vn 0.9616 0.1835 0.2043
vn 0.5714 0.0383 -0.8198
vn 0.7630 0.0852 -0.6408
vn 0.9544 0.1473 -0.2598
vn 0.1717 -0.9824 0.0739
vn -0.1717 0.9824 -0.0739
vn -0.1718 0.9824 -0.0739
vn 0.0077 -0.9998 0.0194
vn 0.0192 -0.9998 0.0083
vn 0.2665 0.6954 0.6674
vn -0.0614 0.3647 0.9291
vn 0.0798 0.9766 0.1998
vn 0.3648 0.1796 0.9136
vn 0.9490 0.1160 0.2930
vn 0.6844 0.3647 0.6313
vn 0.9927 0.0491 -0.1099
vn -0.4863 0.1161 0.8661
vn -0.7955 0.0491 0.6040
vn 0.6602 0.6954 0.2839
vn 0.6131 0.3647 0.7008
vn 0.1976 0.9766 0.0850
vn 0.9037 0.1796 0.3887
vn 0.8786 0.1161 -0.4633
vn 0.9304 0.3647 -0.0369
vn 0.6247 0.0491 -0.7793
vn 0.2679 0.1161 0.9564
vn -0.1360 0.0491 0.9895
vn 0.9819 0.1892 0.0000
vn 0.9498 -0.3130 0.0000
vn 0.9980 -0.0640 0.0000
vn -0.9819 -0.1892 0.0000
vn -0.9498 0.3130 0.0000
vn -0.9980 0.0640 0.0000
vn 0.0000 0.1892 0.9819
vn 0.0000 -0.3130 0.9498
vn 0.0000 -0.0640 0.9980
vn 0.0000 -0.1892 -0.9819
vn 0.0000 0.3130 -0.9498
vn 0.0000 0.0640 -0.9980
vn 0.4433 -0.7070 0.5511
vn 0.4998 -0.7074 0.4998
vn 0.3173 -0.7071 0.6320
vn 0.0472 -0.7066 0.7060
vn 0.0765 -0.7070 0.7031
vn 0.2319 -0.7070 0.6681
vn 0.3926 -0.7070 0.5882
vn 0.3421 -0.7071 0.6188
vn 0.1987 -0.7072 0.6785
vn 0.1357 -0.7070 0.6941
vn 0.7031 -0.7070 0.0766
vn 0.7060 -0.7066 0.0472
vn 0.6681 -0.7070 0.2319
vn 0.5511 -0.7070 0.4433
vn 0.6320 -0.7071 0.3173
vn 0.6941 -0.7070 0.1357
vn 0.6785 -0.7072 0.1987
vn 0.6188 -0.7071 0.3421
vn 0.5882 -0.7070 0.3926
vn -0.6757 0.0814 0.7326
vn -0.8401 0.0368 0.5412
vn -0.8334 0.0391 0.5513
vn -0.6631 0.0842 0.7437
vn 0.9945 0.0814 0.0658
vn 0.8701 0.1424 0.4719
vn 0.8596 0.1448 0.4900
vn 0.9930 0.0842 0.0825
vn -0.9110 0.0088 0.4122
vn -0.9088 0.0099 0.4171
vn -0.3058 0.1424 0.9414
vn -0.2857 0.1448 0.9473
vn 0.9444 0.0088 -0.3286
vn 0.9818 0.0368 -0.1862
vn 0.9839 0.0391 -0.1742
vn 0.9462 0.0099 -0.3235
vn 0.9443 0.0087 -0.3291
vn 0.3645 0.1829 0.9130
vn 0.1688 0.1793 0.9692
vn 0.9816 0.0366 -0.1875
vn 0.9947 0.0811 0.0636
vn -0.8408 0.0366 0.5401
vn -0.9112 0.0087 0.4118
vn 0.5451 0.1793 0.8189
vn -0.3079 0.1422 0.9407
vn 0.8712 0.1422 0.4700
vn -0.6774 0.0811 0.7311
vn 0.0396 0.0814 0.9959
vn -0.2120 0.0368 0.9766
vn -0.2001 0.0391 0.9790
vn 0.0563 0.0842 0.9949
vn 0.7502 0.0814 -0.6562
vn 0.9491 0.1424 -0.2809
vn 0.9545 0.1448 -0.2607
vn 0.7609 0.0842 -0.6433
vn -0.3533 0.0088 0.9355
vn -0.3483 0.0099 0.9373
vn 0.4488 0.1424 0.8822
vn 0.4672 0.1448 0.8722
vn 0.4361 0.0088 -0.8999
vn 0.5631 0.0368 -0.8256
vn 0.5731 0.0391 -0.8186
vn 0.4409 0.0099 -0.8975
vn 0.4356 0.0087 -0.9001
vn 0.9031 0.1829 0.3884
vn 0.8043 0.1793 0.5665
vn 0.5620 0.0366 -0.8263
vn 0.7487 0.0811 -0.6579
vn -0.2133 0.0366 0.9763
vn -0.3538 0.0087 0.9353
vn 0.9644 0.1793 0.1943
vn 0.4469 0.1422 0.8832
vn 0.9485 0.1422 -0.2831
vn 0.0374 0.0811 0.9960
vn 0.0000 0.0000 1.0000
vn -0.0000 -0.0000 -1.0000
vn -0.0224 0.9997 0.0000
vn 0.0224 -0.9997 0.0000
vn 1.0000 0.0000 0.0000
vn -1.0000 -0.0000 0.0000
vn 0.0000 0.9997 -0.0224
vn 0.0000 -0.9997 0.0224
vn 0.1913 0.0725 0.9789
vn 0.1080 0.0724 0.9915
vn 0.1079 0.0724 0.9915
vn 0.5359 0.6524 0.5359
vn 0.6739 0.3030 0.6739
vn 0.5976 0.3019 0.7428
vn 0.4759 0.6509 0.5914
vn 0.1457 0.6508 0.7452
vn 0.1829 0.3019 0.9357
vn 0.1031 0.3017 0.9478
vn 0.0821 0.6507 0.7549
vn 0.5537 0.0725 0.8296
vn 0.6251 0.0725 0.7772
vn 0.4781 0.0725 0.8753
vn 0.4782 0.0725 0.8753
vn 0.3839 0.0725 0.9205
vn 0.5292 0.3019 0.7929
vn 0.4215 0.6508 0.6315
vn 0.6252 0.0725 0.7771
vn 0.1913 0.0725 0.9788
vn 0.3639 0.6509 0.6663
vn 0.4570 0.3019 0.8367
vn 0.3669 0.3028 0.8796
vn 0.2918 0.6522 0.6997
vn 0.7052 0.0725 0.7052
vn 0.2808 0.0725 0.9570
vn 0.2684 0.3022 0.9147
vn 0.2137 0.6513 0.7281
vn 0.2807 0.0725 0.9571
vn 0.3840 0.0725 0.9205
vn 0.0637 0.3025 0.9510
vn 0.0506 0.6518 0.7567
vn 0.0668 0.0724 0.9951
vn 0.0669 0.0724 0.9951
vn 0.8296 0.0725 0.5537
vn 0.7772 0.0725 0.6251
vn 0.7771 0.0725 0.6252
vn 0.7567 0.6518 0.0506
vn 0.9510 0.3025 0.0637
vn 0.9478 0.3017 0.1031
vn 0.7549 0.6507 0.0821
vn 0.6315 0.6509 0.4215
vn 0.7929 0.3019 0.5292
vn 0.7428 0.3019 0.5976
vn 0.5914 0.6509 0.4759
vn 0.9789 0.0725 0.1913
vn 0.9915 0.0724 0.1080
vn 0.9570 0.0725 0.2808
vn 0.9205 0.0725 0.3839
vn 0.9357 0.3018 0.1829
vn 0.7452 0.6508 0.1457
vn 0.9788 0.0725 0.1913
vn 0.9915 0.0724 0.1079
vn 0.7281 0.6513 0.2137
vn 0.9147 0.3022 0.2684
vn 0.8796 0.3028 0.3669
vn 0.6997 0.6522 0.2918
vn 0.9788 0.0724 0.1913
vn 0.9951 0.0724 0.0668
vn 0.8753 0.0725 0.4781
vn 0.8367 0.3019 0.4570
vn 0.6663 0.6509 0.3639
vn 0.9951 0.0724 0.0669
vn 0.9571 0.0725 0.2807
vn 0.8753 0.0725 0.4782
vn 0.9205 0.0725 0.3840
vn 0.4532 0.7677 0.4532
vn 0.4996 0.7672 0.4022
vn 0.5336 0.7671 0.3562
vn 0.0428 0.7670 0.6402
vn 0.0692 0.7671 0.6378
vn 0.6378 0.7671 0.0692
vn 0.6402 0.7670 0.0428
vn 0.6152 0.7673 0.1807
vn 0.6296 0.7671 0.1231
vn 0.1231 0.7671 0.6296
vn 0.5630 0.7672 0.3073
vn 0.5915 0.7676 0.2467
vn 0.4022 0.7672 0.4996
vn 0.3073 0.7672 0.5630
vn 0.3562 0.7671 0.5336
vn 0.1807 0.7673 0.6153
vn 0.2467 0.7676 0.5915
vn 0.6363 0.1970 0.7459
vn 0.6944 0.1888 0.6944
vn 0.6195 0.1911 0.7614
vn 0.5186 0.0597 0.8529
vn 0.5462 0.1895 0.8159
vn 0.5795 0.1954 0.7912
vn 0.6037 0.1575 0.7815
vn 0.5463 0.1998 0.8134
vn 0.3751 0.1865 0.9080
vn 0.4722 0.1860 0.8616
vn 0.3362 0.3008 0.8925
vn 0.4330 0.1948 0.8801
vn 0.6943 0.1893 0.6943
vn 0.6943 0.1895 0.6943
vn 0.6473 0.1750 0.7419
vn 0.6040 0.2384 0.7605
vn 0.4924 0.1603 0.8555
vn 0.5100 0.1937 0.8381
vn 0.5484 0.1778 0.8171
vn 0.4854 0.2192 0.8463
vn 0.4512 0.3040 0.8390
vn 0.4714 0.1683 0.8657
vn 0.3753 0.1921 0.9068
vn 0.3714 0.1890 0.9090
vn 0.4568 0.2267 0.8602
vn 0.4307 0.1812 0.8841
vn 0.5901 0.1852 0.7858
vn 0.7032 0.3177 0.6360
vn 0.6354 0.1791 0.7511
vn 0.4586 0.3275 0.8261
vn 0.6192 0.1876 0.7625
vn 0.6309 0.0566 0.7738
vn 0.4642 0.2031 0.8621
vn 0.6161 0.1968 0.7627
vn 0.5910 0.1920 0.7835
vn 0.7202 0.0859 0.6885
vn 0.7173 0.2463 0.6518
vn 0.5915 0.3443 0.7291
vn 0.6201 0.1888 0.7615
vn 0.6426 0.2051 0.7383
vn 0.6235 0.1472 0.7679
vn 0.6306 0.0571 0.7740
vn 0.5815 0.1836 0.7925
vn 0.5999 0.2189 0.7695
vn 0.7447 0.1902 0.6397
vn 0.5995 0.3339 0.7274
vn 0.4999 0.2058 0.8413
vn 0.5754 0.1799 0.7979
vn 0.6186 0.1787 0.7651
vn 0.4419 0.1955 0.8755
vn 0.5793 0.0757 0.8116
vn 0.5843 0.1904 0.7889
vn 0.5103 0.1845 0.8400
vn 0.4168 0.1893 0.8891
vn 0.4659 0.1515 0.8718
vn 0.4744 0.0315 0.8798
vn 0.4667 0.1874 0.8644
vn 0.5131 0.2322 0.8263
vn 0.5744 0.3173 0.7546
vn 0.4714 0.1910 0.8610
vn 0.4682 0.2073 0.8590
vn 0.4742 0.0649 0.8780
vn 0.3642 0.0829 0.9276
vn 0.4491 0.3233 0.8329
vn 0.4526 0.1849 0.8723
vn 0.3258 0.2230 0.9188
vn 0.6091 0.2012 0.7671
vn 0.4460 0.1793 0.8769
vn 0.5004 0.1922 0.8442
vn 0.3148 0.1492 0.9374
vn 0.5023 0.1789 0.8460
vn 0.4791 0.1632 0.8625
vn 0.6499 0.2288 0.7248
vn 0.6197 0.2027 0.7582
vn 0.5536 0.2361 0.7986
vn 0.3069 0.1969 0.9311
vn 0.2809 0.1909 0.9405
vn 0.1510 0.0583 0.9868
vn 0.1904 0.1895 0.9632
vn 0.2295 0.1963 0.9533
vn 0.2564 0.1564 0.9538
vn 0.1917 0.1996 0.9609
vn 0.0662 0.1891 0.9797
vn 0.0999 0.1914 0.9764
vn -0.0354 0.3022 0.9526
vn 0.0722 0.2030 0.9765
vn 0.3189 0.1751 0.9315
vn 0.2717 0.2385 0.9323
vn 0.1266 0.1608 0.9788
vn 0.1492 0.1933 0.9697
vn 0.1923 0.1780 0.9650
vn 0.1236 0.2188 0.9679
vn 0.0939 0.3078 0.9468
vn 0.1038 0.1767 0.9788
vn 0.0676 0.1882 0.9798
vn 0.0680 0.1890 0.9796
vn 0.1115 0.2340 0.9658
vn 0.0737 0.1737 0.9820
vn 0.2413 0.1848 0.9527
vn 0.4069 0.3189 0.8560
vn 0.3045 0.1791 0.9355
vn 0.1062 0.3287 0.9385
vn 0.2804 0.1878 0.9413
vn 0.2867 0.0554 0.9564
vn 0.0971 0.2029 0.9744
vn 0.2778 0.1961 0.9404
vn 0.2430 0.1925 0.9507
vn 0.4031 0.0844 0.9113
vn 0.4123 0.2464 0.8771
vn 0.2670 0.3453 0.8997
vn 0.2814 0.1889 0.9408
vn 0.3157 0.2052 0.9264
vn 0.2869 0.1473 0.9466
vn 0.2859 0.0559 0.9566
vn 0.2310 0.1827 0.9556
vn 0.2577 0.2200 0.9409
vn 0.4427 0.1905 0.8762
vn 0.2752 0.3350 0.9011
vn 0.1385 0.2065 0.9686
vn 0.2208 0.1797 0.9586
vn 0.2790 0.1796 0.9434
vn 0.0809 0.1965 0.9772
vn 0.2292 0.0702 0.9709
vn 0.2345 0.1902 0.9533
vn 0.1486 0.1849 0.9715
vn 0.0403 0.1892 0.9811
vn 0.1128 0.1451 0.9830
vn 0.0993 0.0276 0.9947
vn 0.0997 0.1882 0.9771
vn 0.1555 0.2322 0.9602
vn 0.2476 0.3228 0.9135
vn 0.1000 0.1862 0.9774
vn 0.1037 0.1995 0.9744
vn 0.1000 0.0613 0.9931
vn -0.0231 0.0816 0.9964
vn 0.0940 0.3278 0.9401
vn 0.0798 0.1849 0.9795
vn -0.0545 0.2231 0.9733
vn 0.2654 0.2016 0.9428
vn 0.0861 0.1803 0.9798
vn 0.1379 0.1920 0.9717
vn -0.0720 0.1491 0.9862
vn 0.1391 0.1788 0.9740
vn 0.1106 0.1633 0.9804
vn 0.3270 0.2285 0.9170
vn 0.2867 0.2028 0.9363
vn 0.2007 0.2361 0.9508
vn -0.0622 0.9754 -0.2116
vn -0.0424 0.9754 -0.2165
vn -0.0623 0.9754 -0.2116
vn -0.1057 0.9754 -0.1937
vn -0.0848 0.9754 -0.2035
vn -0.1056 0.9754 -0.1937
vn 0.0849 -0.9754 0.2035
vn 0.1058 -0.9754 0.1936
vn 0.1057 -0.9754 0.1937
vn 0.0848 -0.9754 0.2035
vn 0.0241 -0.9753 0.2194
vn 0.0423 -0.9754 0.2166
vn 0.0423 -0.9754 0.2165
vn 0.0240 -0.9753 0.2194
vn 0.0621 -0.9754 0.2117
vn 0.0622 -0.9754 0.2117
vn 0.1383 -0.9754 0.1719
vn 0.1559 -0.9754 0.1559
vn 0.1384 -0.9754 0.1719
vn 0.0151 -0.9753 0.2204
vn -0.0239 0.9753 -0.2194
vn -0.0147 0.9753 -0.2204
vn -0.0238 0.9753 -0.2194
vn 0.1225 -0.9754 0.1835
vn -0.1559 0.9754 -0.1559
vn -0.1384 0.9754 -0.1718
vn -0.1385 0.9754 -0.1718
vn -0.1225 0.9754 -0.1835
vn 0.9770 0.1971 0.0818
vn 0.9798 0.1889 0.0654
vn 0.9764 0.1920 0.0990
vn 0.9697 0.0588 0.2371
vn 0.9632 0.1896 0.1904
vn 0.9697 0.1932 0.1494
vn 0.9790 0.1595 0.1271
vn 0.9613 0.1994 0.1899
vn 0.9080 0.1865 0.3752
vn 0.9409 0.1902 0.2801
vn 0.8629 0.3080 0.4007
vn 0.9268 0.2020 0.3167
vn 0.9797 0.1889 0.0667
vn 0.9798 0.1886 0.0668
vn 0.9821 0.1743 0.0720
vn 0.9641 0.2388 0.1161
vn 0.9536 0.1573 0.2566
vn 0.9532 0.1965 0.2297
vn 0.9652 0.1780 0.1915
vn 0.9407 0.2229 0.2555
vn 0.9100 0.3109 0.2742
vn 0.9434 0.1792 0.2790
vn 0.9068 0.1917 0.3755
vn 0.9087 0.1896 0.3718
vn 0.9318 0.2332 0.2780
vn 0.9316 0.1748 0.3186
vn 0.9728 0.1863 0.1376
vn 0.9484 0.3138 -0.0448
vn 0.9800 0.1792 0.0866
vn 0.9091 0.3267 0.2585
vn 0.9773 0.1866 0.1000
vn 0.9933 0.0582 0.1002
vn 0.9386 0.2033 0.2788
vn 0.9746 0.1986 0.1037
vn 0.9724 0.1901 0.1352
vn 0.9957 0.0903 -0.0196
vn 0.9679 0.2462 -0.0506
vn 0.9352 0.3413 0.0948
vn 0.9771 0.1886 0.0989
vn 0.9759 0.2056 0.0727
vn 0.9833 0.1465 0.1077
vn 0.9933 0.0604 0.0988
vn 0.9713 0.1858 0.1483
vn 0.9686 0.2173 0.1207
vn 0.9788 0.1896 -0.0775
vn 0.9384 0.3337 0.0902
vn 0.9483 0.2062 0.2413
vn 0.9718 0.1797 0.1530
vn 0.9788 0.1768 0.1036
vn 0.9308 0.1963 0.3084
vn 0.9857 0.0668 0.1546
vn 0.9709 0.1918 0.1434
vn 0.9559 0.1813 0.2311
vn 0.9194 0.1887 0.3451
vn 0.9480 0.1461 0.2828
vn 0.9579 0.0238 0.2861
vn 0.9410 0.1886 0.2810
vn 0.9490 0.2322 0.2132
vn 0.9385 0.3242 0.1188
vn 0.9413 0.1877 0.2804
vn 0.9402 0.1970 0.2778
vn 0.9562 0.0587 0.2869
vn 0.9104 0.0760 0.4067
vn 0.9039 0.3314 0.2704
vn 0.9331 0.1852 0.3083
vn 0.8801 0.2232 0.4191
vn 0.9732 0.2013 0.1113
vn 0.9349 0.1801 0.3058
vn 0.9510 0.1937 0.2410
vn 0.8852 0.1499 0.4403
vn 0.9537 0.1793 0.2416
vn 0.9509 0.1620 0.2635
vn 0.9718 0.2289 0.0559
vn 0.9741 0.2026 0.1009
vn 0.9571 0.2361 0.1677
vn 0.8748 0.1966 0.4428
vn 0.8625 0.1883 0.4696
vn 0.8074 0.0643 0.5865
vn 0.8159 0.1896 0.5462
vn 0.8380 0.1935 0.5102
vn 0.8554 0.1591 0.4930
vn 0.8145 0.1997 0.5447
vn 0.7621 0.1903 0.6188
vn 0.6450 0.3066 0.7000
vn 0.7382 0.2019 0.6437
vn 0.8836 0.1815 0.4316
vn 0.8557 0.2330 0.4621
vn 0.7812 0.1584 0.6038
vn 0.7911 0.1956 0.5796
vn 0.8176 0.1778 0.5477
vn 0.7701 0.2219 0.5981
vn 0.7360 0.3100 0.6018
vn 0.7651 0.1783 0.6187
vn 0.7576 0.2331 0.6096
vn 0.7421 0.1748 0.6471
vn 0.8454 0.1862 0.5006
vn 0.8923 0.3129 0.3254
vn 0.8756 0.1789 0.4486
vn 0.7448 0.3228 0.5841
vn 0.8607 0.1915 0.4717
vn 0.8781 0.0609 0.4745
vn 0.7581 0.2029 0.6198
vn 0.8595 0.2047 0.4684
vn 0.8459 0.1903 0.4982
vn 0.9257 0.0914 0.3671
vn 0.9123 0.2461 0.3274
vn 0.8278 0.3376 0.4480
vn 0.8644 0.1889 0.4660
vn 0.8808 0.1996 0.4294
vn 0.8748 0.1530 0.4597
vn 0.8785 0.0646 0.4734
vn 0.8400 0.1854 0.5100
vn 0.8481 0.2177 0.4830
vn 0.9327 0.1898 0.3068
vn 0.8326 0.3303 0.4447
vn 0.7815 0.2065 0.5888
vn 0.8380 0.1796 0.5152
vn 0.8656 0.1688 0.4714
vn 0.7450 0.1963 0.6375
vn 0.8508 0.0678 0.5210
vn 0.8417 0.1914 0.5048
vn 0.7927 0.1822 0.5817
vn 0.7203 0.1890 0.6674
vn 0.7707 0.1460 0.6202
vn 0.7752 0.0249 0.6312
vn 0.7619 0.1884 0.6197
vn 0.7922 0.2322 0.5644
vn 0.8213 0.3231 0.4702
vn 0.7625 0.1875 0.6192
vn 0.7625 0.1979 0.6160
vn 0.7734 0.0599 0.6310
vn 0.6863 0.0774 0.7231
vn 0.7317 0.3304 0.5962
vn 0.7470 0.1851 0.6385
vn 0.6522 0.2232 0.7245
vn 0.8556 0.2015 0.4769
vn 0.7501 0.1801 0.6363
vn 0.7846 0.1933 0.5891
vn 0.6490 0.1497 0.7459
vn 0.7869 0.1792 0.5905
vn 0.7749 0.1623 0.6109
vn 0.8745 0.2291 0.4274
vn 0.8591 0.2025 0.4700
vn 0.8189 0.2362 0.5232
vn -0.1937 0.9754 -0.1057
vn -0.1835 0.9754 -0.1225
vn -0.1937 0.9754 -0.1056
vn -0.2116 0.9754 -0.0622
vn -0.2035 0.9754 -0.0849
vn -0.2035 0.9754 -0.0848
vn -0.2116 0.9754 -0.0623
vn 0.2035 -0.9754 0.0849
vn 0.2117 -0.9754 0.0621
vn 0.2117 -0.9754 0.0622
vn 0.2035 -0.9754 0.0848
vn 0.1719 -0.9754 0.1383
vn 0.1835 -0.9754 0.1225
vn 0.1719 -0.9754 0.1384
vn 0.1936 -0.9754 0.1058
vn 0.1937 -0.9754 0.1057
vn 0.2194 -0.9753 0.0240
vn 0.2204 -0.9753 0.0150
vn 0.2194 -0.9753 0.0239
vn -0.1718 0.9754 -0.1384
vn -0.1718 0.9754 -0.1385
vn 0.2166 -0.9754 0.0423
vn 0.2165 -0.9754 0.0423
vn -0.2204 0.9753 -0.0146
vn -0.2194 0.9753 -0.0238
vn -0.2194 0.9753 -0.0237
vn -0.2165 0.9754 -0.0424
usemtl MI_Trim_03
s 1
f 10/1/1 4/2/2 7/3/3
f 4/2/2 1/4/4 8/5/5 7/3/3
f 1/6/4 4/7/2 5/8/6 2/9/7
f 4/7/2 10/10/1 12/11/8 5/8/6
f 12/12/8 10/13/1 215/14/9 214/15/10
f 19/16/11 17/17/12 14/18/13
f 14/18/13 17/17/12 8/5/5 1/4/4
f 1/6/4 2/9/7 15/19/14 14/20/13
f 14/20/13 15/19/14 21/21/15 19/22/11
f 21/23/15 222/24/16 227/25/17 19/26/11
f 138/27/18 236/28/19 245/29/20 144/30/21 141/31/22
f 121/32/23 127/33/24 128/34/25 23/35/26
f 119/36/27 126/37/28 124/38/29 123/39/30
f 123/40/30 124/41/29 125/42/31 122/43/32
f 125/44/31 131/45/33 135/46/34 129/47/35
f 129/47/35 135/46/34 211/48/36 204/49/37
f 127/33/24 133/50/38 134/51/39 128/34/25
f 126/37/28 132/52/40 130/53/41 124/38/29
f 124/41/29 130/54/41 131/55/33 125/42/31
f 137/56/42 136/57/43 143/58/44 142/59/45
f 119/36/27 139/60/46 140/61/47 126/37/28
f 139/62/46 138/63/18 141/64/22 140/65/47
f 141/31/22 144/30/21 149/66/48 146/67/49
f 144/30/21 245/29/20 226/68/50 149/66/48
f 142/59/45 143/58/44 148/69/51 147/70/52
f 126/37/28 140/61/47 145/71/53 132/52/40
f 140/65/47 141/64/22 146/72/49 145/73/53
f 129/47/35 204/49/37 194/74/54 122/75/32 125/44/31
f 178/76/55 160/77/56 133/78/38 127/79/24
f 155/80/57 178/76/55 127/79/24 121/81/23
f 175/82/58 156/83/59 6/84/60 3/85/61
f 185/86/62 184/87/63 178/76/55 155/80/57
f 184/87/63 180/88/64 160/77/56 178/76/55
f 188/89/65 182/90/66 156/83/59 175/82/58
f 204/49/37 211/48/36 180/88/64 184/87/63
f 194/74/54 204/49/37 184/87/63 185/86/62
f 214/15/10 215/14/9 182/90/66 188/89/65
f 245/29/20 236/28/19 253/91/67 261/92/68
f 227/25/17 222/24/16 249/93/69 250/94/70
f 226/68/50 245/29/20 261/92/68 251/95/71
f 251/95/71 261/92/68 272/96/72 281/97/73
f 250/94/70 249/93/69 269/98/74 275/99/75
f 261/92/68 253/91/67 283/100/76 272/96/72
f 275/99/75 269/98/74 13/101/77 16/102/78
f 281/97/73 272/96/72 142/103/45 147/104/52
f 272/96/72 283/100/76 137/105/42 142/103/45
f 318/106/79 312/107/80 315/108/81
f 312/107/80 309/109/82 316/110/83 315/108/81
f 309/111/82 312/112/80 313/113/84 310/114/85
f 312/112/80 318/115/79 320/116/86 313/113/84
f 320/117/86 318/118/79 508/119/87 507/120/88
f 324/121/89 323/122/90 321/123/91
f 321/123/91 323/122/90 316/110/83 309/109/82
f 309/111/82 310/114/85 322/124/92 321/125/91
f 321/125/91 322/124/92 326/126/93 324/127/89
f 326/128/93 515/129/94 520/130/95 324/131/89
f 433/132/96 529/133/97 538/134/98 438/135/99 436/136/100
f 417/137/101 423/138/102 424/139/103 416/140/104
f 415/141/105 422/142/106 420/143/107 419/144/108
f 419/145/108 420/146/107 421/147/109 418/148/110
f 421/149/109 427/150/111 431/151/112 425/152/113
f 425/152/113 431/151/112 504/153/114 497/154/115
f 423/138/102 429/155/116 430/156/117 424/139/103
f 422/142/106 428/157/118 426/158/119 420/143/107
f 420/146/107 426/159/119 427/160/111 421/147/109
f 432/161/120 23/35/26 128/34/25 437/162/121
f 415/141/105 434/163/122 435/164/123 422/142/106
f 434/165/122 433/166/96 436/167/100 435/168/123
f 436/136/100 438/135/99 442/169/124 440/170/125
f 438/135/99 538/134/98 519/171/126 442/169/124
f 437/162/121 128/34/25 134/51/39 441/172/127
f 422/142/106 435/164/123 439/173/128 428/157/118
f 435/168/123 436/167/100 440/174/125 439/175/128
f 425/152/113 497/154/115 487/176/129 418/177/110 421/149/109
f 471/178/130 453/179/131 429/180/116 423/181/102
f 448/182/132 471/178/130 423/181/102 417/183/101
f 468/184/133 449/185/134 314/186/135 311/187/136
f 478/188/137 477/189/138 471/178/130 448/182/132
f 477/189/138 473/190/139 453/179/131 471/178/130
f 481/191/140 475/192/141 449/185/134 468/184/133
f 497/154/115 504/153/114 473/190/139 477/189/138
f 487/176/129 497/154/115 477/189/138 478/188/137
f 507/120/88 508/119/87 475/192/141 481/191/140
f 538/134/98 529/133/97 546/193/142 554/194/143
f 520/130/95 515/129/94 542/195/144 543/196/145
f 519/171/126 538/134/98 554/194/143 544/197/146
f 544/197/146 554/194/143 565/198/147 574/199/148
f 543/196/145 542/195/144 562/200/149 568/201/150
f 554/194/143 546/193/142 576/202/151 565/198/147
f 568/201/150 562/200/149 3/85/61 6/84/60
f 574/199/148 565/198/147 437/203/121 441/204/127
f 565/198/147 576/202/151 432/205/120 437/203/121
f 603/206/152 607/207/152 601/208/153 600/209/153
f 612/210/154 613/211/154 608/212/155 602/213/155
f 607/207/152 603/206/152 606/214/156 609/215/156
f 609/215/156 606/214/156 605/216/157 610/217/157
f 610/217/157 605/216/157 604/218/158 611/219/158
f 611/219/158 604/218/158 602/213/155 608/212/155
f 617/220/159 614/221/160 615/222/160 621/223/159
f 612/210/154 616/224/161 622/225/161 613/211/154
f 621/223/159 623/226/162 620/227/162 617/220/159
f 623/226/162 624/228/163 619/229/163 620/227/162
f 624/228/163 625/230/164 618/231/164 619/229/163
f 618/231/165 616/224/165 634/232/165 636/233/165
f 612/210/165 602/213/165 627/234/165 632/235/165
f 619/229/165 618/231/165 636/233/165 637/236/165
f 620/227/165 619/229/165 637/236/165 638/237/165
f 603/206/165 600/209/165 626/238/165 628/239/165
f 617/220/165 620/227/165 638/237/165 635/240/165
f 602/213/165 604/218/165 629/241/165 627/234/165
f 604/218/165 605/216/165 630/242/165 629/241/165
f 616/224/165 612/210/165 632/235/165 634/232/165
f 605/216/165 606/214/165 631/243/165 630/242/165
f 606/214/165 603/206/165 628/239/165 631/243/165
f 614/221/165 617/220/165 635/240/165 633/244/165
f 624/228/166 623/226/166 662/245/166 663/246/166
f 611/219/166 608/212/166 654/247/166 657/248/166
f 613/211/166 622/225/166 661/249/166 658/250/166
f 607/207/166 609/215/166 655/251/166 653/252/166
f 610/217/166 611/219/166 657/248/166 656/253/166
f 609/215/166 610/217/166 656/253/166 655/251/166
f 621/223/166 615/222/166 659/254/166 660/255/166
f 608/212/166 613/211/166 658/250/166 654/247/166
f 622/225/166 625/230/166 664/256/166 661/249/166
f 623/226/166 621/223/166 660/255/166 662/245/166
f 625/230/166 624/228/166 663/246/166 664/256/166
f 601/208/166 607/207/166 653/252/166 652/257/166
f 653/252/166 655/251/166 656/253/166 657/248/166 654/247/166 658/250/166 661/249/166 664/256/166 663/246/166 662/245/166 660/255/166 659/254/166 652/257/166
f 625/230/164 622/225/161 616/224/161 618/231/164
f 687/258/167 691/259/167 685/260/168 684/261/168
f 696/262/169 697/263/169 692/264/170 686/265/170
f 691/259/167 687/258/167 690/266/171 693/267/171
f 693/267/171 690/266/171 689/268/172 694/269/172
f 694/269/172 689/268/172 688/270/173 695/271/173
f 695/271/173 688/270/173 686/265/170 692/264/170
f 701/272/174 698/273/175 699/274/175 705/275/174
f 696/262/169 700/276/176 706/277/176 697/263/169
f 705/275/174 707/278/177 704/279/177 701/272/174
f 707/278/177 708/280/178 703/281/178 704/279/177
f 708/280/178 709/282/179 702/283/179 703/281/178
f 702/283/180 700/276/180 718/284/180 720/285/180
f 696/262/180 686/265/180 711/286/180 716/287/180
f 703/281/180 702/283/180 720/285/180 721/288/180
f 704/279/180 703/281/180 721/288/180 722/289/180
f 687/258/180 684/261/180 710/290/180 712/291/180
f 701/272/180 704/279/180 722/289/180 719/292/180
f 686/265/180 688/270/180 713/293/180 711/286/180
f 688/270/180 689/268/180 714/294/180 713/293/180
f 700/276/180 696/262/180 716/287/180 718/284/180
f 689/268/180 690/266/180 715/295/180 714/294/180
f 690/266/180 687/258/180 712/291/180 715/295/180
f 698/273/180 701/272/180 719/292/180 717/296/180
f 708/280/181 707/278/181 746/297/181 747/298/181
f 695/271/181 692/264/181 738/299/181 741/300/181
f 697/263/182 706/277/182 745/301/181 742/302/181
f 691/259/181 693/267/181 739/303/181 737/304/181
f 694/269/181 695/271/181 741/300/181 740/305/181
f 693/267/181 694/269/181 740/305/181 739/303/181
f 705/275/181 699/274/181 743/306/181 744/307/181
f 692/264/181 697/263/182 742/302/181 738/299/181
f 706/277/182 709/282/181 748/308/181 745/301/181
f 707/278/181 705/275/181 744/307/181 746/297/181
f 709/282/181 708/280/181 747/298/181 748/308/181
f 685/260/181 691/259/181 737/304/181 736/309/181
f 737/304/181 739/303/181 740/305/181 741/300/181 738/299/181 742/302/181 745/301/181 748/308/181 747/298/181 746/297/181 744/307/181 743/306/181 736/309/181
f 709/282/179 706/277/176 700/276/176 702/283/179
usemtl MI_Trim_01
s off
f 645/310/183 647/311/183 680/312/183 678/313/183
f 640/314/183 645/310/183 678/313/183 679/315/183
f 729/316/184 731/317/184 764/318/184 762/319/184
f 724/320/184 729/316/184 762/319/184 763/321/184
s 1
f 676/322/185 675/323/186 683/324/187 682/325/187
f 681/326/188 682/327/188 678/328/188 680/329/188
f 682/327/188 683/330/188 679/331/188 678/328/188
f 647/332/189 672/333/190 681/334/191 680/335/191
f 675/323/186 640/336/192 679/337/193 683/324/193
f 672/333/190 676/322/185 682/325/187 681/334/187
f 760/338/194 759/339/195 767/340/196 766/341/196
f 765/342/197 766/343/197 762/344/197 764/345/197
f 766/343/197 767/346/197 763/347/197 762/344/197
f 731/348/198 756/349/199 765/350/200 764/351/200
f 759/339/195 724/352/201 763/353/202 767/340/202
f 756/349/199 760/338/194 766/341/196 765/350/196
f 768/354/203 770/355/203 774/356/203 773/357/203
f 771/358/204 769/359/205 772/360/205 775/361/204
f 769/359/205 768/354/203 773/357/203 772/360/205
f 777/362/206 781/363/206 782/364/206 778/365/206
f 779/366/207 783/367/207 780/368/208 776/369/208
f 776/369/208 780/368/208 781/363/206 777/362/206
f 784/370/209 789/371/209 790/372/209 786/373/209
f 787/374/210 791/375/210 788/376/211 785/377/211
f 785/377/211 788/376/211 789/371/209 784/370/209
f 793/378/212 794/379/212 798/380/212 797/381/212
f 795/382/213 792/383/214 796/384/214 799/385/213
f 792/383/214 793/378/212 797/381/212 796/384/214
usemtl MI_Trim_02
f 6/386/60 156/387/59 170/388/215 9/389/216
f 7/390/3 11/391/217 10/392/1
f 16/393/78 18/394/218 271/395/219 275/396/75
f 17/397/12 19/398/11 20/399/220
f 170/388/215 156/387/59 182/400/66 186/401/221
f 186/401/221 182/400/66 215/402/9 200/403/222
f 200/403/222 215/402/9 10/392/1 11/391/217
f 227/404/17 244/405/223 20/399/220 19/398/11
f 250/406/70 258/407/224 244/405/223 227/404/17
f 275/396/75 271/395/219 258/407/224 250/406/70
f 314/408/135 449/409/134 463/410/225 317/411/226
f 315/412/81 319/413/227 318/414/79
f 6/386/60 9/389/216 564/415/228 568/416/150
f 323/417/90 324/418/89 325/419/229
f 463/410/225 449/409/134 475/420/141 479/421/230
f 479/421/230 475/420/141 508/422/87 493/423/231
f 493/423/231 508/422/87 318/414/79 319/413/227
f 520/424/95 537/425/232 325/419/229 324/418/89
f 543/426/145 551/427/233 537/425/232 520/424/95
f 568/416/150 564/415/228 551/427/233 543/426/145
f 665/428/234 666/429/235 644/430/236 643/431/237
f 667/432/238 668/433/239 649/434/240 650/435/241
f 669/436/242 670/437/153 639/438/153 641/439/243
f 671/440/244 665/428/234 643/431/237 642/441/245
f 668/433/239 672/442/190 647/443/189 649/434/240
f 673/444/246 674/445/247 651/446/248 648/447/249
f 675/448/186 671/440/244 642/441/245 640/449/192
f 666/429/235 669/436/242 641/439/243 644/430/236
f 674/445/247 667/432/238 650/435/241 651/446/248
f 677/450/160 673/444/246 648/447/249 646/451/160
f 633/452/160 635/453/250 673/444/246 677/450/160
f 632/454/251 627/455/252 675/448/186 676/456/185
f 638/457/253 637/458/254 667/432/238 674/445/247
f 631/459/255 628/460/256 669/436/242 666/429/235
f 634/461/257 632/454/251 676/456/185 672/442/190
f 627/455/252 629/462/258 671/440/244 675/448/186
f 635/453/250 638/457/253 674/445/247 673/444/246
f 636/463/259 634/461/257 672/442/190 668/433/239
f 629/462/258 630/464/260 665/428/234 671/440/244
f 628/460/256 626/465/153 670/437/153 669/436/242
f 637/458/254 636/463/259 668/433/239 667/432/238
f 630/464/260 631/459/255 666/429/235 665/428/234
f 749/466/261 750/467/262 728/468/263 727/469/264
f 751/470/265 752/471/266 733/472/267 734/473/268
f 753/474/269 754/475/168 723/476/168 725/477/270
f 755/478/271 749/466/261 727/469/264 726/479/272
f 752/471/266 756/480/199 731/481/198 733/472/267
f 757/482/273 758/483/274 735/484/275 732/485/276
f 759/486/195 755/478/271 726/479/272 724/487/201
f 750/467/262 753/474/269 725/477/270 728/468/263
f 758/483/274 751/470/265 734/473/268 735/484/275
f 761/488/175 757/482/273 732/485/276 730/489/175
f 717/490/175 719/491/277 757/482/273 761/488/175
f 716/492/278 711/493/279 759/486/195 760/494/194
f 722/495/280 721/496/281 751/470/265 758/483/274
f 715/497/282 712/498/283 753/474/269 750/467/262
f 718/499/284 716/492/278 760/494/194 756/480/199
f 711/493/279 713/500/285 755/478/271 759/486/195
f 719/491/277 722/495/280 758/483/274 757/482/273
f 720/501/286 718/499/284 756/480/199 752/471/266
f 713/500/285 714/502/287 749/466/261 755/478/271
f 712/498/283 710/503/168 754/475/168 753/474/269
f 721/496/281 720/501/286 752/471/266 751/470/265
f 714/502/287 715/497/282 750/467/262 749/466/261
f 773/504/288 781/505/288 780/506/288 772/507/288
f 768/508/289 777/509/289 778/510/289 770/511/289
f 770/512/290 778/513/290 782/514/290 774/515/290
f 774/516/288 782/517/288 781/505/288 773/504/288
f 771/518/289 779/519/289 776/520/289 769/521/289
f 769/521/289 776/520/289 777/509/289 768/508/289
f 775/522/291 783/523/291 779/524/291 771/525/291
f 772/507/288 780/506/288 783/526/288 775/527/288
f 789/528/292 788/529/292 796/530/292 797/531/292
f 784/532/293 786/533/293 794/534/293 793/535/293
f 786/536/294 790/537/294 798/538/294 794/539/294
f 790/540/292 789/528/292 797/531/292 798/541/292
f 787/542/293 785/543/293 792/544/293 795/545/293
f 785/543/293 784/532/293 793/535/293 792/544/293
f 791/546/295 787/547/295 795/548/295 799/549/295
f 788/529/292 791/550/292 799/551/292 796/530/292
usemtl MI_Trim_03_Dark
f 254/552/296 260/553/296 262/554/297 279/555/298
f 23/556/299 36/557/300 167/558/301 159/559/302
f 252/560/303 257/561/304 287/562/305 264/563/306
f 179/564/307 187/565/307 171/566/308 173/567/308
f 206/568/309 210/569/310 29/570/311 32/571/311
f 159/559/302 167/558/301 189/572/312 181/573/313
f 171/566/308 187/565/307 190/574/307 153/575/314
f 257/576/304 256/577/315 284/578/298 287/579/305
f 192/580/316 213/581/317 35/582/318 22/583/319
f 262/554/297 260/553/296 255/584/296 278/585/297
f 165/586/314 153/575/314 190/574/307 183/587/307
f 213/588/317 212/589/309 39/590/311 35/591/318
f 37/592/320 31/593/320 153/575/314 165/586/314
f 39/594/311 32/571/311 231/595/321 234/596/321
f 22/583/319 35/582/318 238/597/322 220/598/323
f 35/591/318 39/590/311 234/599/321 238/600/322
f 36/601/300 37/602/320 165/603/314 167/604/301
f 212/605/309 206/568/309 32/571/311 39/594/311
f 256/606/315 254/552/296 279/555/298 284/607/298
f 167/604/301 165/603/314 183/608/307 189/609/312
f 171/566/308 153/575/314 31/593/320 28/610/320
f 173/567/308 171/566/308 28/610/320 25/611/320
f 187/565/307 179/564/307 207/612/310 210/569/310
f 183/587/307 190/574/307 206/568/309 212/605/309
f 189/609/312 183/608/307 212/589/309 213/588/317
f 181/573/313 189/572/312 213/581/317 192/580/316
f 190/574/307 187/565/307 210/569/310 206/568/309
f 233/613/324 224/614/321 29/570/311 24/615/325
f 224/614/321 231/595/321 32/571/311 29/570/311
f 238/600/322 234/599/321 256/577/315 257/576/304
f 220/598/323 238/597/322 257/561/304 252/560/303
f 234/596/321 231/595/321 254/552/296 256/606/315
f 255/584/296 260/553/296 224/614/321 233/613/324
f 260/553/296 254/552/296 231/595/321 224/614/321
f 264/563/306 287/562/305 34/616/326 26/617/327
f 284/607/298 279/555/298 33/618/328 38/619/328
f 287/579/305 284/578/298 38/620/328 34/621/326
f 279/555/298 262/554/297 30/622/329 33/618/328
f 262/554/297 278/585/297 27/623/329 30/622/329
f 210/569/310 207/612/310 24/615/325 29/570/311
f 547/624/330 553/625/330 555/626/331 572/627/332
f 328/628/333 336/629/334 460/630/335 452/631/336
f 545/632/337 550/633/338 580/634/339 557/635/340
f 472/636/341 480/637/341 464/638/342 466/639/342
f 499/640/343 503/641/343 332/642/344 334/643/344
f 452/631/336 460/630/335 482/644/345 474/645/346
f 464/638/342 480/637/341 483/646/347 446/647/348
f 550/648/338 549/649/330 577/650/332 580/651/339
f 485/652/349 506/653/350 335/654/351 327/655/352
f 555/626/331 553/625/330 548/656/330 571/657/331
f 458/658/348 446/647/348 483/646/347 476/659/353
f 506/660/350 505/661/343 338/662/344 335/663/351
f 337/664/354 333/665/354 446/647/348 458/658/348
f 338/666/344 334/643/344 524/667/355 527/668/355
f 327/655/352 335/654/351 531/669/356 513/670/357
f 335/663/351 338/662/344 527/671/355 531/672/356
f 336/673/334 337/674/354 458/675/348 460/676/335
f 505/677/343 499/640/343 334/643/344 338/666/344
f 549/678/330 547/624/330 572/627/332 577/679/332
f 460/676/335 458/675/348 476/680/353 482/681/345
f 464/638/342 446/647/348 333/665/354 331/682/358
f 466/639/342 464/638/342 331/682/358 330/683/358
f 480/637/341 472/636/341 500/684/359 503/641/343
f 476/659/353 483/646/347 499/640/343 505/677/343
f 482/681/345 476/680/353 505/661/343 506/660/350
f 474/645/346 482/644/345 506/653/350 485/652/349
f 483/646/347 480/637/341 503/641/343 499/640/343
f 526/685/360 517/686/360 332/642/344 329/687/361
f 517/686/360 524/667/355 334/643/344 332/642/344
f 531/672/356 527/671/355 549/649/330 550/648/338
f 513/670/357 531/669/356 550/633/338 545/632/337
f 527/668/355 524/667/355 547/624/330 549/678/330
f 548/656/330 553/625/330 517/686/360 526/685/360
f 553/625/330 547/624/330 524/667/355 517/686/360
f 557/635/340 580/634/339 36/688/300 23/689/299
f 577/679/332 572/627/332 31/690/320 37/691/320
f 580/651/339 577/650/332 37/692/320 36/693/300
f 572/627/332 555/626/331 28/694/320 31/690/320
f 555/626/331 571/657/331 25/695/320 28/694/320
f 503/641/343 500/684/359 329/687/361 332/642/344
f 557/635/340 23/689/299 800/696/362 815/697/363
f 545/632/337 557/635/340 815/697/363 814/698/364
f 264/563/306 26/617/327 801/699/365 807/700/366
f 328/628/333 452/631/336 810/701/367 809/702/368
f 474/645/346 485/652/349 812/703/369 811/704/370
f 252/560/303 264/563/306 807/700/366 806/705/371
f 513/670/357 545/632/337 814/698/364 813/706/372
f 327/655/352 513/670/357 813/706/372 808/707/373
f 23/556/299 159/559/302 802/708/374 800/709/362
f 485/652/349 327/655/352 808/707/373 812/703/369
f 181/573/313 192/580/316 804/710/375 803/711/376
f 452/631/336 474/645/346 811/704/370 810/701/367
f 22/583/319 220/598/323 805/712/377 120/713/378
f 220/598/323 252/560/303 806/705/371 805/712/377
f 159/559/302 181/573/313 803/711/376 802/708/374
f 192/580/316 22/583/319 120/713/378 804/710/375
usemtl MI_PaddedWall
f 58/714/379 45/715/380 168/716/381 161/717/382
f 40/718/383 48/719/384 49/720/385 42/721/386
f 46/722/387 203/723/388 219/724/389 63/725/390
f 41/726/391 43/727/392 50/728/393 51/729/394
f 40/718/383 42/721/386 67/730/395 65/731/396
f 44/732/397 60/733/398 217/734/399 199/735/400
f 82/736/401 80/737/402 68/738/403 69/739/404
f 55/740/405 40/718/383 168/716/381 163/741/406
f 43/727/392 47/742/407 176/743/408 158/744/409
f 47/742/407 154/745/410 177/746/411
f 42/721/386 49/720/385 154/745/410 162/747/412
f 40/718/383 52/748/413 172/749/414 158/744/409
f 52/748/413 152/750/415 172/749/414
f 51/729/394 157/751/416 150/752/417 41/726/391
f 53/753/418 45/715/380 41/726/391 54/754/419
f 54/754/419 41/726/391 150/752/417 174/755/420
f 56/756/421 40/718/383 44/732/397 57/757/422
f 55/740/405 163/741/406 164/758/423
f 57/757/422 166/759/424 169/760/425 75/761/426
f 57/757/422 44/732/397 151/762/427 166/759/424
f 46/722/387 61/763/428 202/764/429 203/723/388
f 61/763/428 205/765/430 202/764/429
f 60/733/398 44/732/397 40/718/383 59/766/431
f 63/725/390 73/767/432 64/768/433
f 64/768/433 196/769/434 209/770/435 80/737/402
f 80/737/402 46/722/387 63/725/390 64/768/433
f 65/731/396 67/730/395 71/771/436
f 65/731/396 191/772/437 193/773/438 40/718/383
f 67/730/395 42/721/386 197/774/439 208/775/440
f 69/739/404 218/776/441 193/773/438 82/736/401
f 68/738/403 80/737/402 209/770/435 198/777/442
f 69/739/404 72/778/443 216/779/444 218/776/441
f 71/771/436 67/730/395 208/775/440 195/780/445
f 66/781/446 191/772/437 195/780/445
f 70/782/447 216/779/444 198/777/442
f 72/778/443 69/739/404 68/738/403
f 64/768/433 73/767/432 201/783/448 196/769/434
f 62/784/449 201/783/448 219/724/389
f 59/766/431 74/785/450 60/733/398
f 60/733/398 74/785/450 205/765/430 217/734/399
f 75/761/426 169/760/425 161/717/382 56/756/421
f 56/756/421 57/757/422 75/761/426
f 76/786/451 53/753/418 54/754/419
f 54/754/419 174/755/420 164/758/423 76/786/451
f 50/728/393 77/787/452 51/729/394
f 51/729/394 77/787/452 152/750/415 157/751/416
f 78/788/453 49/720/385 48/719/384
f 48/719/384 176/743/408 177/746/411 78/788/453
f 95/789/454 46/790/387 232/791/455 228/792/456
f 79/793/457 85/794/458 86/795/459 81/796/460
f 118/797/461 273/798/462 276/799/463 100/800/464
f 80/801/402 82/802/401 87/803/465 88/804/466
f 79/793/457 81/796/460 104/805/467 102/806/468
f 83/807/469 97/808/470 265/809/471 289/810/472
f 117/811/473 116/812/474 105/813/475 107/814/476
f 92/815/477 79/793/457 232/791/455 239/816/478
f 82/802/401 84/817/479 242/818/480 229/819/481
f 84/817/479 248/820/482 247/821/483
f 81/796/460 86/795/459 248/820/482 246/822/484
f 79/793/457 89/823/485 235/824/486 229/819/481
f 89/823/485 225/825/487 235/824/486
f 88/804/466 221/826/488 240/827/489 80/801/402
f 90/828/490 46/790/387 80/801/402 91/829/491
f 91/829/491 80/801/402 240/827/489 223/830/492
f 93/831/493 79/793/457 83/807/469 94/832/494
f 92/815/477 239/816/478 230/833/495
f 94/832/494 241/834/496 237/835/497 112/836/498
f 94/832/494 83/807/469 243/837/499 241/834/496
f 118/797/461 98/838/500 282/839/501 273/798/462
f 98/838/500 267/840/502 282/839/501
f 97/808/470 83/807/469 79/793/457 96/841/503
f 100/800/464 110/842/504 101/843/505
f 101/843/505 285/844/506 280/845/507 116/812/474
f 116/812/474 118/797/461 100/800/464 101/843/505
f 102/806/468 104/805/467 108/846/508
f 102/806/468 259/847/509 268/848/510 79/793/457
f 104/805/467 81/796/460 270/849/511 277/850/512
f 107/814/476 274/851/513 268/848/510 117/811/473
f 105/813/475 116/812/474 280/845/507 286/852/514
f 107/814/476 109/853/515 288/854/516 274/851/513
f 108/846/508 104/805/467 277/850/512 263/855/517
f 103/856/518 259/847/509 263/855/517
f 106/857/519 288/854/516 286/852/514
f 109/853/515 107/814/476 105/813/475
f 101/843/505 110/842/504 266/858/520 285/844/506
f 99/859/521 266/858/520 276/799/463
f 96/841/503 111/860/522 97/808/470
f 97/808/470 111/860/522 267/840/502 265/809/471
f 112/836/498 237/835/497 228/792/456 93/831/493
f 93/831/493 94/832/494 112/836/498
f 113/861/523 90/828/490 91/829/491
f 91/829/491 223/830/492 230/833/495 113/861/523
f 87/803/465 114/862/524 88/804/466
f 88/804/466 114/862/524 225/825/487 221/826/488
f 115/863/525 86/795/459 85/794/458
f 85/794/458 242/818/480 247/821/483 115/863/525
f 163/741/406 168/716/381 45/715/380 53/753/418
f 150/752/417 157/751/416 52/748/413 40/718/383
f 166/759/424 151/762/427 45/715/380 58/714/379
f 161/717/382 168/716/381 40/718/383 56/756/421
f 169/760/425 166/759/424 58/714/379
f 172/749/414 152/750/415 77/787/452 50/728/393
f 164/758/423 174/755/420 55/740/405
f 158/744/409 172/749/414 50/728/393 43/727/392
f 164/758/423 163/741/406 53/753/418 76/786/451
f 177/746/411 176/743/408 47/742/407
f 177/746/411 154/745/410 49/720/385 78/788/453
f 162/747/412 154/745/410 47/742/407 43/727/392
f 161/717/382 169/760/425 58/714/379
f 174/755/420 150/752/417 40/718/383 55/740/405
f 157/751/416 152/750/415 52/748/413
f 158/744/409 176/743/408 48/719/384 40/718/383
f 195/780/445 208/775/440 66/781/446
f 218/776/441 216/779/444 70/782/447
f 219/724/389 201/783/448 73/767/432 63/725/390
f 198/777/442 209/770/435 40/718/383 70/782/447
f 196/769/434 201/783/448 62/784/449
f 199/735/400 217/734/399 61/763/428 46/722/387
f 209/770/435 196/769/434 62/784/449 40/718/383
f 193/773/438 218/776/441 70/782/447 40/718/383
f 208/775/440 197/774/439 82/736/401 66/781/446
f 198/777/442 216/779/444 72/778/443 68/738/403
f 202/764/429 205/765/430 74/785/450 59/766/431
f 195/780/445 191/772/437 65/731/396 71/771/436
f 217/734/399 205/765/430 61/763/428
f 193/773/438 191/772/437 66/781/446 82/736/401
f 219/724/389 203/723/388 40/718/383 62/784/449
f 203/723/388 202/764/429 59/766/431 40/718/383
f 229/819/481 242/818/480 85/794/458 79/793/457
f 221/826/488 225/825/487 89/823/485
f 240/827/489 221/826/488 89/823/485 79/793/457
f 241/834/496 243/837/499 46/790/387 95/789/454
f 239/816/478 232/791/455 46/790/387 90/828/490
f 230/833/495 223/830/492 92/815/477
f 228/792/456 232/791/455 79/793/457 93/831/493
f 237/835/497 241/834/496 95/789/454
f 235/824/486 225/825/487 114/862/524 87/803/465
f 230/833/495 239/816/478 90/828/490 113/861/523
f 247/821/483 242/818/480 84/817/479
f 229/819/481 235/824/486 87/803/465 82/802/401
f 246/822/484 248/820/482 84/817/479 82/802/401
f 228/792/456 237/835/497 95/789/454
f 247/821/483 248/820/482 86/795/459 115/863/525
f 223/830/492 240/827/489 79/793/457 92/815/477
f 263/855/517 277/850/512 103/856/518
f 273/798/462 282/839/501 96/841/503 79/793/457
f 274/851/513 288/854/516 106/857/519
f 276/799/463 266/858/520 110/842/504 100/800/464
f 280/845/507 285/844/506 99/859/521 79/793/457
f 268/848/510 274/851/513 106/857/519 79/793/457
f 285/844/506 266/858/520 99/859/521
f 286/852/514 280/845/507 79/793/457 106/857/519
f 289/810/472 265/809/471 98/838/500 118/797/461
f 277/850/512 270/849/511 117/811/473 103/856/518
f 286/852/514 288/854/516 109/853/515 105/813/475
f 282/839/501 267/840/502 111/860/522 96/841/503
f 268/848/510 259/847/509 103/856/518 117/811/473
f 263/855/517 259/847/509 102/806/468 108/846/508
f 265/809/471 267/840/502 98/838/500
f 276/799/463 273/798/462 79/793/457 99/859/521
f 243/837/526 83/807/527 297/864/527 305/865/528
f 199/735/529 46/722/530 294/866/530 304/867/531
f 82/736/532 197/774/533 303/868/534 296/869/535
f 270/849/536 81/796/537 295/870/538 307/871/539
f 46/790/530 243/837/526 305/865/528 294/872/530
f 81/796/537 246/822/540 306/873/541 295/870/538
f 162/747/542 43/727/543 291/874/543 302/875/544
f 117/811/545 270/849/536 307/871/539 299/876/545
f 289/810/546 118/797/547 300/877/547 308/878/548
f 42/721/549 162/747/542 302/875/544 290/879/549
f 116/812/292 117/811/292 299/876/292 298/880/292
f 246/822/540 82/802/532 296/881/535 306/873/541
f 197/774/533 42/721/549 290/879/549 303/868/534
f 118/797/292 116/812/292 298/880/292 300/877/292
f 83/807/527 289/810/546 308/878/548 297/864/527
f 45/715/550 151/762/551 301/882/552 293/883/550
f 44/732/553 199/735/529 304/867/531 292/884/553
f 151/762/551 44/732/553 292/884/553 301/882/552
f 357/885/554 344/886/555 461/887/556 454/888/557
f 339/889/558 347/890/559 348/891/560 341/892/561
f 345/893/562 496/894/563 512/895/564 362/896/565
f 340/897/566 342/898/567 349/899/568 350/900/569
f 339/889/558 341/892/561 366/901/570 364/902/571
f 343/903/572 359/904/573 510/905/574 492/906/575
f 381/907/576 379/908/577 367/909/578 368/910/579
f 354/911/580 339/889/558 461/887/556 456/912/581
f 342/898/567 346/913/582 469/914/583 451/915/584
f 346/913/582 447/916/585 470/917/586
f 341/892/561 348/891/560 447/916/585 455/918/587
f 339/889/558 351/919/588 465/920/589 451/915/584
f 351/919/588 445/921/590 465/920/589
f 350/900/569 450/922/591 443/923/592 340/897/566
f 352/924/593 344/886/555 340/897/566 353/925/594
f 353/925/594 340/897/566 443/923/592 467/926/595
f 355/927/596 339/889/558 343/903/572 356/928/597
f 354/911/580 456/912/581 457/929/598
f 356/928/597 459/930/599 462/931/600 374/932/601
f 356/928/597 343/903/572 444/933/602 459/930/599
f 345/893/562 360/934/603 495/935/604 496/894/563
f 360/934/603 498/936/605 495/935/604
f 359/904/573 343/903/572 339/889/558 358/937/606
f 362/896/565 372/938/607 363/939/608
f 363/939/608 489/940/609 502/941/610 379/908/577
f 379/908/577 345/893/562 362/896/565 363/939/608
f 364/902/571 366/901/570 370/942/611
f 364/902/571 484/943/612 486/944/613 339/889/558
f 366/901/570 341/892/561 490/945/614 501/946/615
f 368/910/579 511/947/616 486/944/613 381/907/576
f 367/909/578 379/908/577 502/941/610 491/948/617
f 368/910/579 371/949/618 509/950/619 511/947/616
f 370/942/611 366/901/570 501/946/615 488/951/620
f 365/952/621 484/943/612 488/951/620
f 369/953/622 509/950/619 491/948/617
f 371/949/618 368/910/579 367/909/578
f 363/939/608 372/938/607 494/954/623 489/940/609
f 361/955/624 494/954/623 512/895/564
f 358/937/606 373/956/625 359/904/573
f 359/904/573 373/956/625 498/936/605 510/905/574
f 374/932/601 462/931/600 454/888/557 355/927/596
f 355/927/596 356/928/597 374/932/601
f 375/957/626 352/924/593 353/925/594
f 353/925/594 467/926/595 457/929/598 375/957/626
f 349/899/568 376/958/627 350/900/569
f 350/900/569 376/958/627 445/921/590 450/922/591
f 377/959/628 348/891/560 347/890/559
f 347/890/559 469/914/583 470/917/586 377/959/628
f 394/960/629 345/961/562 525/962/630 521/963/631
f 378/964/632 384/965/633 385/966/634 380/967/635
f 45/968/380 566/969/636 569/970/637 399/971/638
f 379/972/577 381/973/576 386/974/639 387/975/640
f 378/964/632 380/967/635 403/976/641 401/977/642
f 382/978/643 396/979/644 558/980/645 582/981/646
f 43/982/392 41/983/391 404/984/647 406/985/648
f 391/986/649 378/964/632 525/962/630 532/987/650
f 381/973/576 383/988/651 535/989/652 522/990/653
f 383/988/651 541/991/654 540/992/655
f 380/967/635 385/966/634 541/991/654 539/993/656
f 378/964/632 388/994/657 528/995/658 522/990/653
f 388/994/657 518/996/659 528/995/658
f 387/975/640 514/997/660 533/998/661 379/972/577
f 389/999/662 345/961/562 379/972/577 390/1000/663
f 390/1000/663 379/972/577 533/998/661 516/1001/664
f 392/1002/665 378/964/632 382/978/643 393/1003/666
f 391/986/649 532/987/650 523/1004/667
f 393/1003/666 534/1005/668 530/1006/669 411/1007/670
f 393/1003/666 382/978/643 536/1008/671 534/1005/668
f 45/968/380 397/1009/672 575/1010/673 566/969/636
f 397/1009/672 560/1011/674 575/1010/673
f 396/979/644 382/978/643 378/964/632 395/1012/675
f 399/971/638 409/1013/676 400/1014/677
f 400/1014/677 578/1015/678 573/1016/679 41/983/391
f 41/983/391 45/968/380 399/971/638 400/1014/677
f 401/977/642 403/976/641 407/1017/680
f 401/977/642 552/1018/681 561/1019/682 378/964/632
f 403/976/641 380/967/635 563/1020/683 570/1021/684
f 406/985/648 567/1022/685 561/1019/682 43/982/392
f 404/984/647 41/983/391 573/1016/679 579/1023/686
f 406/985/648 408/1024/687 581/1025/688 567/1022/685
f 407/1017/680 403/976/641 570/1021/684 556/1026/689
f 402/1027/690 552/1018/681 556/1026/689
f 405/1028/691 581/1025/688 579/1023/686
f 408/1024/687 406/985/648 404/984/647
f 400/1014/677 409/1013/676 559/1029/692 578/1015/678
f 398/1030/693 559/1029/692 569/970/637
f 395/1012/675 410/1031/694 396/979/644
f 396/979/644 410/1031/694 560/1011/674 558/980/645
f 411/1007/670 530/1006/669 521/963/631 392/1002/665
f 392/1002/665 393/1003/666 411/1007/670
f 412/1032/695 389/999/662 390/1000/663
f 390/1000/663 516/1001/664 523/1004/667 412/1032/695
f 386/974/639 413/1033/696 387/975/640
f 387/975/640 413/1033/696 518/996/659 514/997/660
f 414/1034/697 385/966/634 384/965/633
f 384/965/633 535/989/652 540/992/655 414/1034/697
f 456/912/581 461/887/556 344/886/555 352/924/593
f 443/923/592 450/922/591 351/919/588 339/889/558
f 459/930/599 444/933/602 344/886/555 357/885/554
f 454/888/557 461/887/556 339/889/558 355/927/596
f 462/931/600 459/930/599 357/885/554
f 465/920/589 445/921/590 376/958/627 349/899/568
f 457/929/598 467/926/595 354/911/580
f 451/915/584 465/920/589 349/899/568 342/898/567
f 457/929/598 456/912/581 352/924/593 375/957/626
f 470/917/586 469/914/583 346/913/582
f 470/917/586 447/916/585 348/891/560 377/959/628
f 455/918/587 447/916/585 346/913/582 342/898/567
f 454/888/557 462/931/600 357/885/554
f 467/926/595 443/923/592 339/889/558 354/911/580
f 450/922/591 445/921/590 351/919/588
f 451/915/584 469/914/583 347/890/559 339/889/558
f 488/951/620 501/946/615 365/952/621
f 511/947/616 509/950/619 369/953/622
f 512/895/564 494/954/623 372/938/607 362/896/565
f 491/948/617 502/941/610 339/889/558 369/953/622
f 489/940/609 494/954/623 361/955/624
f 492/906/575 510/905/574 360/934/603 345/893/562
f 502/941/610 489/940/609 361/955/624 339/889/558
f 486/944/613 511/947/616 369/953/622 339/889/558
f 501/946/615 490/945/614 381/907/576 365/952/621
f 491/948/617 509/950/619 371/949/618 367/909/578
f 495/935/604 498/936/605 373/956/625 358/937/606
f 488/951/620 484/943/612 364/902/571 370/942/611
f 510/905/574 498/936/605 360/934/603
f 486/944/613 484/943/612 365/952/621 381/907/576
f 512/895/564 496/894/563 339/889/558 361/955/624
f 496/894/563 495/935/604 358/937/606 339/889/558
f 522/990/653 535/989/652 384/965/633 378/964/632
f 514/997/660 518/996/659 388/994/657
f 533/998/661 514/997/660 388/994/657 378/964/632
f 534/1005/668 536/1008/671 345/961/562 394/960/629
f 532/987/650 525/962/630 345/961/562 389/999/662
f 523/1004/667 516/1001/664 391/986/649
f 521/963/631 525/962/630 378/964/632 392/1002/665
f 530/1006/669 534/1005/668 394/960/629
f 528/995/658 518/996/659 413/1033/696 386/974/639
f 523/1004/667 532/987/650 389/999/662 412/1032/695
f 540/992/655 535/989/652 383/988/651
f 522/990/653 528/995/658 386/974/639 381/973/576
f 539/993/656 541/991/654 383/988/651 381/973/576
f 521/963/631 530/1006/669 394/960/629
f 540/992/655 541/991/654 385/966/634 414/1034/697
f 516/1001/664 533/998/661 378/964/632 391/986/649
f 556/1026/689 570/1021/684 402/1027/690
f 566/969/636 575/1010/673 395/1012/675 378/964/632
f 567/1022/685 581/1025/688 405/1028/691
f 569/970/637 559/1029/692 409/1013/676 399/971/638
f 573/1016/679 578/1015/678 398/1030/693 378/964/632
f 561/1019/682 567/1022/685 405/1028/691 378/964/632
f 578/1015/678 559/1029/692 398/1030/693
f 579/1023/686 573/1016/679 378/964/632 405/1028/691
f 582/981/646 558/980/645 397/1009/672 45/968/380
f 570/1021/684 563/1020/683 43/982/392 402/1027/690
f 579/1023/686 581/1025/688 408/1024/687 404/984/647
f 575/1010/673 560/1011/674 410/1031/694 395/1012/675
f 561/1019/682 552/1018/681 402/1027/690 43/982/392
f 556/1026/689 552/1018/681 401/977/642 407/1017/680
f 558/980/645 560/1011/674 397/1009/672
f 569/970/637 566/969/636 378/964/632 398/1030/693
f 536/1008/698 382/978/699 591/1035/699 596/1036/700
f 492/906/701 345/893/702 588/1037/703 595/1038/704
f 381/907/705 490/945/706 594/1039/707 590/1040/708
f 563/1020/709 380/967/710 589/1041/710 598/1042/711
f 345/961/702 536/1008/698 596/1036/700 588/1043/703
f 380/967/710 539/993/712 597/1044/713 589/1041/710
f 455/918/714 342/898/715 585/1045/715 593/1046/716
f 43/982/543 563/1020/709 598/1042/711 291/1047/543
f 342/898/288 340/897/288 583/1048/288 585/1045/288
f 582/981/717 45/968/550 293/1049/550 599/1050/718
f 341/892/719 455/918/714 593/1046/716 584/1051/720
f 539/993/712 381/973/705 590/1052/708 597/1044/713
f 490/945/706 341/892/719 584/1051/720 594/1039/707
f 382/978/699 582/981/717 599/1050/718 591/1035/699
f 340/897/288 344/886/288 587/1053/288 583/1048/288
f 344/886/721 444/933/722 592/1054/723 587/1053/721
f 343/903/724 492/906/701 595/1038/704 586/1055/724
f 444/933/722 343/903/724 586/1055/724 592/1054/723
