# Blender v3.6.0 OBJ File: 'AllModules_Unreal.blend'
# www.blender.org
mtllib WallWideBand_Corner_Round_Inner.mtl
o WallWideBand_Corner_Round_Inner_Plane.147
v -2.828180 -0.000000 -2.828195
v -2.828180 1.000000 -2.828195
v -1.530420 0.000000 -3.694706
v -1.530420 1.000000 -3.694706
v -2.898891 0.200000 -2.898906
v -1.568696 0.200000 -3.787091
v 0.000002 0.000000 -3.999999
v -2.273310 0.200000 -3.402349
v 0.000002 0.200000 -4.099999
v -2.217699 1.000000 -3.319238
v 0.000001 1.000000 -4.000000
v -2.828180 3.000000 -2.828195
v -0.000001 3.000000 -4.000000
v -2.787527 2.844915 -2.854000
v -2.787527 2.601932 -2.854000
v -2.558641 2.844915 -3.055464
v -2.558641 2.601933 -3.055464
v -2.217699 -0.000000 -3.319238
v -1.530422 3.000000 -3.694706
v -2.217699 3.000000 -3.319238
v -0.778796 0.000000 -3.915197
v -0.798177 0.200000 -4.013302
v -0.778796 3.000000 -3.915198
v -0.778796 1.000000 -3.915198
v -2.533592 1.000000 -3.087502
v -2.597066 0.200000 -3.164775
v -2.533593 3.000000 -3.087503
v -2.533592 -0.000000 -3.087502
v -0.391568 1.000000 -3.973642
v -0.391566 0.000000 -3.973642
v -0.401251 0.200000 -4.073172
v -0.391568 3.000000 -3.973643
v -2.217699 1.456897 -3.319238
v 0.000001 1.456897 -4.000000
v -2.828180 1.456897 -2.828195
v -1.530420 1.456897 -3.694706
v -0.778796 1.456897 -3.915198
v -2.533593 1.456897 -3.087502
v -0.391568 1.456897 -3.973642
v -2.828180 1.228448 -2.828195
v -2.217699 1.228448 -3.319238
v 0.000001 1.228449 -4.000000
v -1.530420 1.228449 -3.694706
v -0.778796 1.228449 -3.915198
v -2.533593 1.228448 -3.087502
v -0.391568 1.228449 -3.973642
v -2.217699 1.996983 -3.319238
v 0.000001 1.996983 -4.000000
v -1.530420 1.996983 -3.694706
v -0.778796 1.996983 -3.915198
v -2.533593 1.996983 -3.087503
v -0.391568 1.996983 -3.973643
v -2.828181 1.996983 -2.828195
v -1.882587 1.456897 -3.522006
v -1.882589 1.996983 -3.522006
v -1.882587 1.000000 -3.522006
v -1.882589 3.000000 -3.522006
v -1.929775 0.200000 -3.610173
v -1.882587 0.000000 -3.522006
v -0.004444 1.120682 -3.997718
v -0.004444 1.020877 -3.997718
v -2.878767 0.200000 -2.878783
v -1.557804 0.200000 -3.760799
v 0.000002 0.200000 -4.071541
v -2.257484 0.200000 -3.378696
v -0.792662 0.200000 -3.985382
v -2.579002 0.200000 -3.142784
v -0.398495 0.200000 -4.044846
v -1.882587 1.228448 -3.522006
v -1.916346 0.200000 -3.585082
v -1.159708 0.000000 -3.823517
v -1.188668 0.200000 -3.919231
v -1.159708 3.000000 -3.823517
v -1.159708 1.000000 -3.823517
v -1.159708 1.996983 -3.823517
v -1.159708 1.456897 -3.823517
v -1.159708 1.228449 -3.823517
v -1.180426 0.200000 -3.891992
v -0.446928 1.020877 -3.963838
v -0.446928 1.120681 -3.963838
v -0.393556 1.120681 -3.971522
v -0.393556 1.020877 -3.971523
v -0.394932 1.120681 -3.971262
v -0.394932 1.020877 -3.971262
v -4.000000 -0.000000 -0.000020
v -4.000000 1.000000 -0.000018
v -3.694700 0.000000 -1.530441
v -3.694700 1.000000 -1.530441
v -4.100001 0.200000 -0.000021
v -3.787085 0.200000 -1.568718
v -4.013299 0.200000 -0.798199
v -3.915195 1.000000 -0.778816
v -4.000001 3.000000 -0.000018
v -3.989331 2.844915 -0.047005
v -3.989331 2.601932 -0.047005
v -3.968843 2.844915 -0.351238
v -3.968843 2.601933 -0.351238
v -3.915195 -0.000000 -0.778818
v -3.694701 3.000000 -1.530441
v -3.915196 3.000000 -0.778816
v -3.319227 0.000000 -2.217717
v -3.402337 0.200000 -2.273329
v -3.319228 3.000000 -2.217716
v -3.319228 1.000000 -2.217716
v -3.973642 1.000000 -0.391588
v -4.073173 0.200000 -0.401274
v -3.973643 3.000000 -0.391588
v -3.973642 -0.000000 -0.391588
v -3.087489 1.000000 -2.533609
v -3.087489 0.000000 -2.533608
v -3.164761 0.200000 -2.597083
v -3.087490 3.000001 -2.533609
v -3.915195 1.456897 -0.778816
v -4.000000 1.456897 -0.000018
v -3.694700 1.456897 -1.530441
v -3.319228 1.456897 -2.217715
v -3.973642 1.456897 -0.391588
v -3.087490 1.456897 -2.533609
v -4.000000 1.228448 -0.000018
v -3.915195 1.228448 -0.778816
v -3.694700 1.228448 -1.530441
v -3.319228 1.228449 -2.217715
v -3.973642 1.228448 -0.391588
v -3.087490 1.228449 -2.533609
v -3.915196 1.996983 -0.778816
v -3.694701 1.996983 -1.530441
v -3.319228 1.996983 -2.217716
v -3.973643 1.996983 -0.391588
v -3.087490 1.996983 -2.533609
v -4.000000 1.996983 -0.000018
v -3.823512 1.456897 -1.159727
v -3.823512 1.996983 -1.159727
v -3.823512 1.000000 -1.159727
v -3.823512 3.000000 -1.159727
v -3.919227 0.200000 -1.188688
v -3.823512 0.000000 -1.159727
v -2.829723 1.120682 -2.823450
v -2.829723 1.020877 -2.823450
v -4.071542 0.200000 -0.000021
v -3.760793 0.200000 -1.557824
v -3.985379 0.200000 -0.792683
v -3.378685 0.200000 -2.257502
v -4.044847 0.200000 -0.398517
v -3.142770 0.200000 -2.579019
v -3.823512 1.228448 -1.159727
v -3.891987 0.200000 -1.180446
v -3.521997 0.000000 -1.882607
v -3.610164 0.200000 -1.929795
v -3.521998 3.000000 -1.882607
v -3.521997 1.000000 -1.882607
v -3.521998 1.996983 -1.882607
v -3.521997 1.456897 -1.882607
v -3.521997 1.228449 -1.882607
v -3.585073 0.200000 -1.916366
v -3.119851 1.020877 -2.487668
v -3.119851 1.120681 -2.487668
v -3.087401 1.120681 -2.530710
v -3.087401 1.020877 -2.530710
v -3.088195 1.120681 -2.529555
v -3.088195 1.020877 -2.529555
vt 0.889912 0.409735
vt 0.889912 0.373239
vt 1.019308 0.373239
vt 1.019308 0.409735
vt 0.889912 0.409735
vt 0.889912 0.373239
vt 0.631121 0.409735
vt 0.631121 0.373239
vt 0.760517 0.373239
vt 0.760517 0.409735
vt 0.912419 0.486932
vt 0.912419 0.579164
vt 0.830000 0.579164
vt 0.830000 0.486932
vt 0.631121 0.409735
vt 0.760517 0.409735
vt 0.760517 0.373239
vt 0.631121 0.373239
vt 0.501726 0.409735
vt 0.501726 0.373239
vt 0.501726 0.409735
vt 0.501726 0.373239
vt 0.747581 0.447919
vt 0.747581 0.486932
vt 0.665163 0.486932
vt 0.665163 0.447919
vt 0.500325 0.579164
vt 0.500325 0.486932
vt 0.582744 0.486932
vt 0.582744 0.579164
vt 0.994837 0.579164
vt 0.994837 0.486932
vt 1.077256 0.486932
vt 1.077256 0.579164
vt 0.747581 0.579164
vt 1.159675 0.486932
vt 1.159675 0.579164
vt 0.582744 0.447919
vt 0.500325 0.447919
vt 0.665163 0.579164
vt 1.077256 0.447919
vt 1.159675 0.447919
vt 1.077256 0.750453
vt 1.159675 0.750453
vt 0.747581 0.750453
vt 0.830000 0.750453
vt 0.582744 0.750453
vt 0.665163 0.750453
vt 0.912419 0.750453
vt 0.994837 0.750453
vt 0.500325 0.750453
vt 0.994837 0.447919
vt 0.912419 0.447919
vt 0.830000 0.447919
vt 0.889912 0.409735
vt 0.889912 0.373239
vt 1.019308 0.373239
vt 1.019308 0.409735
vt 0.889912 0.409735
vt 0.889912 0.373239
vt 0.631121 0.409735
vt 0.631121 0.373239
vt 0.760517 0.373239
vt 0.760517 0.409735
vt 0.912419 0.486932
vt 0.912419 0.579164
vt 0.830000 0.579164
vt 0.830000 0.486932
vt 0.631121 0.409735
vt 0.760517 0.409735
vt 0.760517 0.373239
vt 0.631121 0.373239
vt 0.501726 0.409735
vt 0.501726 0.373239
vt 0.747581 0.447919
vt 0.747581 0.486932
vt 0.665163 0.486932
vt 0.665163 0.447919
vt 0.500325 0.579164
vt 0.500325 0.486932
vt 0.582744 0.486932
vt 0.582744 0.579164
vt 0.994837 0.579164
vt 0.994837 0.486932
vt 1.077256 0.486932
vt 1.077256 0.579164
vt 0.747581 0.579164
vt 1.159675 0.486932
vt 1.159675 0.579164
vt 0.582744 0.447919
vt 0.500325 0.447919
vt 0.665163 0.579164
vt 1.077256 0.447919
vt 1.159675 0.447919
vt 1.077256 0.750453
vt 1.159675 0.750453
vt 0.747581 0.750453
vt 0.830000 0.750453
vt 0.582744 0.750453
vt 0.665163 0.750453
vt 0.912419 0.750453
vt 0.994837 0.750453
vt 0.500325 0.750453
vt 0.994837 0.447919
vt 0.912419 0.447919
vt 0.830000 0.447919
vt 0.500966 0.733252
vt 0.500966 0.733252
vt 0.500966 0.733252
vt 0.500966 0.733252
vt 0.500966 0.733252
vt 0.500966 0.733252
vt 0.500966 0.733252
vt 0.500966 0.733252
vt 0.500966 0.733252
vt 0.500966 0.733252
vt 0.500966 0.733252
vt 0.500966 0.733252
vt 0.500966 0.733252
vt 0.500966 0.733252
vt 0.500966 0.733252
vt 0.500966 0.733252
vt 0.500966 0.733252
vt 0.500966 0.733252
vt 0.500966 0.733252
vt 0.500966 0.733252
vt 0.500966 0.733252
vt 0.500966 0.733252
vt 0.500966 0.733252
vt 0.500966 0.733252
vt 0.500966 0.733252
vt 0.500966 0.733252
vt 0.500966 0.733252
vt 0.500966 0.733252
vt 0.500966 0.733252
vt 0.500966 0.733252
vt 0.500966 0.733252
vt 0.500966 0.733252
vt 0.500966 0.733252
vt 0.500966 0.733252
vt 0.026778 0.226397
vt 0.026778 0.189286
vt 0.051754 0.189286
vt 0.051754 0.226397
vt 0.051754 0.226397
vt 0.051754 0.189286
vt 0.236597 0.189286
vt 0.236597 0.226397
vt 0.026778 0.226397
vt 0.026778 0.189286
vt 0.051754 0.189286
vt 0.051754 0.226397
vt 0.051754 0.226397
vt 0.051754 0.189286
vt 0.236597 0.189286
vt 0.236597 0.226397
vt 0.799616 0.579130
vt 0.799616 0.490855
vt 0.941012 0.490855
vt 0.941012 0.579130
vt 0.799616 0.579130
vt 0.799616 0.490855
vt 0.941012 0.490855
vt 0.941012 0.579130
vt 0.665846 0.591441
vt 0.665846 0.407339
vt 0.812631 0.407339
vt 0.812631 0.591441
vt 0.665846 0.591441
vt 0.665846 0.407339
vt 1.077256 0.408906
vt 1.159675 0.408906
vt 0.582744 0.408906
vt 0.665163 0.408906
vt 0.372276 0.591441
vt 0.372276 0.407339
vt 0.519061 0.407339
vt 0.519061 0.591441
vt 0.372276 0.591441
vt 0.519061 0.591441
vt 0.519061 0.407339
vt 0.372276 0.407339
vt 0.225492 0.591441
vt 0.225491 0.407339
vt 0.500325 0.408906
vt 0.225492 0.591441
vt 0.225491 0.407339
vt 0.994837 0.408906
vt 0.747581 0.408906
vt 0.912419 0.408906
vt 0.830000 0.408906
vt 0.665846 0.591441
vt 0.665846 0.407339
vt 0.812631 0.407339
vt 0.812631 0.591441
vt 0.665846 0.591441
vt 0.665846 0.407339
vt 1.077256 0.408906
vt 1.159675 0.408906
vt 0.582744 0.408906
vt 0.665163 0.408906
vt 0.372276 0.591441
vt 0.372276 0.407339
vt 0.519061 0.407339
vt 0.519061 0.591441
vt 0.372276 0.591441
vt 0.519061 0.591441
vt 0.519061 0.407339
vt 0.372276 0.407339
vt 0.225492 0.591441
vt 0.225491 0.407339
vt 0.500325 0.408906
vt 0.994837 0.408906
vt 0.747581 0.408906
vt 0.912419 0.408906
vt 0.830000 0.408906
vn 0.4513 0.3367 0.8264
vn 0.4515 0.3367 0.8263
vn 0.3625 0.3370 0.8689
vn 0.3624 0.3370 0.8690
vn 0.2652 0.3368 0.9035
vn 0.2650 0.3368 0.9035
vn 0.5903 0.3367 0.7336
vn 0.5901 0.3367 0.7337
vn 0.5227 0.3367 0.7832
vn 0.2815 0.0000 0.9596
vn 0.3850 0.0000 0.9229
vn 0.1018 0.3367 0.9361
vn 0.1806 0.3367 0.9241
vn 0.1020 0.3367 0.9361
vn 0.6657 0.3370 0.6657
vn 0.0631 0.3364 0.9396
vn 0.4795 0.0000 0.8776
vn 0.5551 0.0000 0.8318
vn 0.7071 0.0000 0.7071
vn 0.6267 0.0000 0.7792
vn 0.1918 0.0000 0.9814
vn 0.1083 0.0000 0.9941
vn 0.0672 0.0000 0.9977
vn 0.9035 0.3368 0.2652
vn 0.9035 0.3368 0.2650
vn 0.8689 0.3370 0.3625
vn 0.8690 0.3370 0.3624
vn 0.8264 0.3367 0.4513
vn 0.8263 0.3367 0.4515
vn 0.9361 0.3367 0.1018
vn 0.9361 0.3367 0.1020
vn 0.9241 0.3367 0.1806
vn 0.8776 0.0000 0.4795
vn 0.9229 0.0000 0.3850
vn 0.7336 0.3367 0.5903
vn 0.7832 0.3367 0.5227
vn 0.7337 0.3367 0.5901
vn 0.9396 0.3364 0.0631
vn 0.9596 -0.0000 0.2815
vn 0.9814 0.0000 0.1918
vn 0.9977 0.0000 0.0672
vn 0.9941 -0.0000 0.1083
vn 0.8318 0.0000 0.5551
vn 0.7792 0.0000 0.6267
vn -0.0000 1.0000 0.0000
vn 0.1414 0.0000 0.9900
vn 0.7978 0.0000 0.6029
vn 0.7506 0.0000 0.6607
vn 0.6607 0.0000 0.7506
vn 0.4757 -0.1240 0.8708
vn 0.4756 -0.1240 0.8709
vn 0.3820 -0.1241 0.9158
vn 0.2793 -0.1240 0.9521
vn 0.2794 -0.1240 0.9521
vn 0.6220 -0.1240 0.7732
vn 0.6220 -0.1240 0.7731
vn 0.5509 -0.1240 0.8253
vn 0.1074 -0.1240 0.9865
vn 0.1903 -0.1240 0.9739
vn 0.1904 -0.1240 0.9739
vn 0.1073 -0.1240 0.9865
vn 0.7016 -0.1241 0.7016
vn 0.0664 -0.1239 0.9901
vn 0.9521 -0.1240 0.2794
vn 0.9158 -0.1241 0.3820
vn 0.8708 -0.1240 0.4757
vn 0.8709 -0.1240 0.4756
vn 0.9865 -0.1240 0.1074
vn 0.9865 -0.1240 0.1073
vn 0.9739 -0.1240 0.1904
vn 0.9739 -0.1240 0.1903
vn 0.7732 -0.1240 0.6220
vn 0.8253 -0.1240 0.5509
vn 0.7731 -0.1240 0.6220
vn 0.9901 -0.1239 0.0664
usemtl MI_Trim_02_NoAccent
s 1
f 70/1/1 59/2/2 3/3/3 63/4/4
f 78/5/5 63/4/4 3/3/3 71/6/6
f 67/7/7 28/8/8 18/9/9 65/10/9
f 76/11/10 75/12/10 49/13/11 36/14/11
f 68/15/12 66/16/13 21/17/13 30/18/14
f 62/19/15 1/20/15 28/8/8 67/7/7
f 64/21/16 68/15/12 30/18/14 7/22/16
f 69/23/17 54/24/17 33/25/18 41/26/18
f 53/27/19 35/28/19 38/29/20 51/30/20
f 50/31/21 37/32/21 39/33/22 52/34/22
f 55/35/17 54/24/17 36/14/11 49/13/11
f 52/34/22 39/33/22 34/36/23 48/37/23
f 41/26/18 33/25/18 38/29/20 45/38/20
f 35/28/19 40/39/19 45/38/20 38/29/20
f 51/30/20 38/29/20 33/25/18 47/40/18
f 39/33/22 46/41/22 42/42/23 34/36/23
f 32/43/22 52/34/22 48/37/23 13/44/23
f 57/45/17 55/35/17 49/13/11 19/46/11
f 27/47/20 51/30/20 47/40/18 20/48/18
f 73/49/10 75/12/10 50/31/21 23/50/21
f 12/51/19 53/27/19 51/30/20 27/47/20
f 23/50/21 50/31/21 52/34/22 32/43/22
f 44/52/21 46/41/22 39/33/22 37/32/21
f 44/52/21 37/32/21 76/11/10 77/53/10
f 65/10/9 18/9/9 59/2/2 70/1/1
f 43/54/11 36/14/11 54/24/17 69/23/17
f 47/40/18 33/25/18 54/24/17 55/35/17
f 20/48/18 47/40/18 55/35/17 57/45/17
f 77/53/10 76/11/10 36/14/11 43/54/11
f 19/46/11 49/13/11 75/12/10 73/49/10
f 37/32/21 50/31/21 75/12/10 76/11/10
f 66/16/13 78/5/5 71/6/6 21/17/13
f 146/55/24 136/56/25 87/57/26 140/58/27
f 154/59/28 140/58/27 87/57/26 147/60/29
f 143/61/30 108/62/31 98/63/32 141/64/32
f 152/65/33 151/66/33 126/67/34 115/68/34
f 144/69/35 142/70/36 101/71/36 110/72/37
f 139/73/38 85/74/38 108/62/31 143/61/30
f 62/19/15 144/69/35 110/72/37 1/20/15
f 145/75/39 131/76/39 113/77/40 120/78/40
f 130/79/41 114/80/41 117/81/42 128/82/42
f 127/83/43 116/84/43 118/85/44 129/86/44
f 132/87/39 131/76/39 115/68/34 126/67/34
f 129/86/44 118/85/44 35/88/19 53/89/19
f 120/78/40 113/77/40 117/81/42 123/90/42
f 114/80/41 119/91/41 123/90/42 117/81/42
f 128/82/42 117/81/42 113/77/40 125/92/40
f 118/85/44 124/93/44 40/94/19 35/88/19
f 112/95/44 129/86/44 53/89/19 12/96/19
f 134/97/39 132/87/39 126/67/34 99/98/34
f 107/99/42 128/82/42 125/92/40 100/100/40
f 149/101/33 151/66/33 127/83/43 103/102/43
f 93/103/41 130/79/41 128/82/42 107/99/42
f 103/102/43 127/83/43 129/86/44 112/95/44
f 122/104/43 124/93/44 118/85/44 116/84/43
f 122/104/43 116/84/43 152/65/33 153/105/33
f 141/64/32 98/63/32 136/56/25 146/55/24
f 121/106/34 115/68/34 131/76/39 145/75/39
f 125/92/40 113/77/40 131/76/39 132/87/39
f 100/100/40 125/92/40 132/87/39 134/97/39
f 153/105/33 152/65/33 115/68/34 121/106/34
f 99/98/34 126/67/34 151/66/33 149/101/33
f 116/84/43 127/83/43 151/66/33 152/65/33
f 142/70/36 154/59/28 147/60/29 101/71/36
usemtl MI_Trim_01
f 8/107/45 65/108/45 70/109/45 58/110/45
f 22/111/45 72/112/45 78/113/45 66/114/45
f 9/115/45 31/116/45 68/117/45 64/118/45
f 5/119/45 62/120/45 67/121/45 26/122/45
f 31/116/45 22/111/45 66/114/45 68/117/45
f 26/122/45 67/121/45 65/108/45 8/107/45
f 72/112/45 6/123/45 63/124/45 78/113/45
f 58/110/45 70/109/45 63/124/45 6/123/45
f 91/125/45 141/126/45 146/127/45 135/128/45
f 102/129/45 148/130/45 154/131/45 142/132/45
f 5/119/45 111/133/45 144/134/45 62/120/45
f 89/135/45 139/136/45 143/137/45 106/138/45
f 111/133/45 102/129/45 142/132/45 144/134/45
f 106/138/45 143/137/45 141/126/45 91/125/45
f 148/130/45 90/139/45 140/140/45 154/131/45
f 135/128/45 146/127/45 140/140/45 90/139/45
usemtl M_Decal_White
s off
f 80/141/46 79/142/46 84/143/46 83/144/46
f 81/145/23 82/146/23 61/147/23 60/148/23
f 156/149/47 155/150/47 160/151/47 159/152/47
f 157/153/48 158/154/48 138/155/48 137/156/48
s 1
f 14/157/49 15/158/49 17/159/49 16/160/49
f 94/161/41 95/162/41 97/163/41 96/164/41
usemtl MI_Trim_02_Color
f 56/165/50 58/166/51 6/167/52 4/168/52
f 74/169/53 4/168/52 6/167/52 72/170/54
f 46/41/22 29/171/22 11/172/23 42/42/23
f 45/38/20 25/173/20 10/174/18 41/26/18
f 25/175/55 26/176/56 8/177/57 10/178/57
f 29/179/58 24/180/59 22/181/60 31/182/61
f 2/183/62 5/184/62 26/176/56 25/175/55
f 40/39/19 2/185/19 25/173/20 45/38/20
f 11/186/63 29/179/58 31/182/61 9/187/63
f 44/52/21 24/188/21 29/171/22 46/41/22
f 56/189/17 69/23/17 41/26/18 10/174/18
f 74/190/10 24/188/21 44/52/21 77/53/10
f 10/178/57 8/177/57 58/166/51 56/165/50
f 4/191/11 43/54/11 69/23/17 56/189/17
f 4/191/11 74/190/10 77/53/10 43/54/11
f 24/180/59 74/169/53 72/170/54 22/181/60
f 133/192/64 135/193/64 90/194/65 88/195/65
f 150/196/66 88/195/65 90/194/65 148/197/67
f 124/93/44 109/198/44 2/199/19 40/94/19
f 123/90/42 105/200/42 92/201/40 120/78/40
f 105/202/68 106/203/69 91/204/70 92/205/71
f 109/206/72 104/207/73 102/208/73 111/209/74
f 86/210/75 89/211/75 106/203/69 105/202/68
f 119/91/41 86/212/41 105/200/42 123/90/42
f 2/183/62 109/206/72 111/209/74 5/184/62
f 122/104/43 104/213/43 109/198/44 124/93/44
f 133/214/39 145/75/39 120/78/40 92/201/40
f 150/215/33 104/213/43 122/104/43 153/105/33
f 92/205/71 91/204/70 135/193/64 133/192/64
f 88/216/34 121/106/34 145/75/39 133/214/39
f 88/216/34 150/215/33 153/105/33 121/106/34
f 104/207/73 150/196/66 148/197/67 102/208/73
