# Blender v3.6.0 OBJ File: 'AllModules_Unreal.blend'
# www.blender.org
mtllib WallPipe_Straight.mtl
o WallPipe_Straight_Plane.011
v -2.000000 0.000000 2.000000
v -2.200000 0.500000 2.000000
v -2.000000 0.000000 0.000000
v -2.200000 0.500000 0.000000
v -2.000000 0.265611 2.000000
v -2.000000 0.265611 0.000000
v -2.000000 0.000000 -2.000000
v -2.200000 0.500000 -2.000000
v -2.000000 0.265611 -2.000000
v -2.327065 0.262142 0.057725
v -2.327065 0.517944 0.057725
v -2.327065 0.262142 -0.057724
v -2.327065 0.517944 -0.057724
v -2.044425 0.543330 0.057725
v -2.044425 0.543330 -0.057724
v -2.102863 0.262142 0.057725
v -2.052527 0.312478 0.057725
v -2.052527 0.312478 -0.057724
v -2.102863 0.262142 -0.057724
v -2.019536 0.365509 -0.057724
v -2.019536 0.365509 0.057725
v -2.292570 0.453215 0.033575
v -2.292570 0.453215 -0.033575
v -2.018032 0.453215 0.033575
v -2.018032 0.453215 -0.033575
v -2.292570 0.701389 0.033575
v -2.292570 0.701389 -0.033575
v -2.018032 0.701389 -0.033575
v -2.018032 0.701389 0.033575
v -2.200000 0.500000 2.000000
v -2.200000 0.500000 -2.000000
v -2.000000 0.656889 -2.000000
v -2.000000 0.656889 2.000001
v -2.000000 2.755010 2.000000
v -2.000000 2.755010 1.000000
v -2.000000 2.438356 1.000000
v -2.000000 2.438356 2.000000
v -2.000000 1.104416 -2.000000
v -2.000000 2.755010 -1.000000
v -2.000000 1.104416 -1.000000
v -2.000000 2.438356 -1.000000
v -2.000000 0.656889 -2.000000
v -2.000000 2.755010 -2.000000
v -2.000000 2.438356 -2.000000
v -2.000000 1.104416 2.000000
v -2.000000 0.656889 -1.000000
v -2.000000 0.656889 2.000001
v -2.000000 0.656889 1.000000
v -2.000000 1.104416 1.000000
v -2.000000 2.755010 0.612613
v -2.000000 2.755010 -0.612611
v -2.000000 2.755010 0.000001
v -2.000000 2.438356 0.612612
v -2.000000 2.438356 -0.612611
v -2.000000 2.438356 0.000001
v -2.000000 1.104416 0.612612
v -2.000000 1.104416 -0.612611
v -2.000000 1.104416 0.000000
v -2.000000 0.656889 -0.612612
v -2.000000 0.656889 0.612612
v -2.000000 0.656889 0.000000
v -2.200000 2.875975 0.000000
v -2.000000 3.000000 2.000000
v -2.000000 3.000000 -2.000000
v -2.200000 2.875975 2.000000
v -2.200000 2.875975 -2.000000
v -2.000000 2.755010 2.000000
v -2.000000 2.755009 -2.000000
v -2.000000 2.755010 1.000000
v -2.200000 2.875975 1.000000
v -2.000000 3.000000 1.000000
v -2.000000 2.755010 0.000001
v -2.000000 3.000000 0.000000
v -2.000000 3.000000 -1.000000
v -2.200000 2.875975 -1.000000
v -2.000000 2.755009 -1.000000
v -2.000000 3.000000 1.500000
v -2.200000 2.875975 1.500000
v -2.000000 2.755010 1.500000
v -2.000000 2.755010 0.500001
v -2.200000 2.875975 0.500000
v -2.000000 3.000000 0.500000
v -2.200000 2.875975 -0.500000
v -2.000000 3.000000 -0.500000
v -2.000000 2.755009 -0.500000
v -2.200000 2.875975 -1.500118
v -2.000000 2.755009 -1.500118
v -2.000000 3.000000 -1.500118
v -2.114327 0.388324 0.000000
v -2.083078 0.396697 0.000000
v -2.060201 0.419574 0.000000
v -2.051828 0.450824 0.000000
v -2.060201 0.482074 0.000000
v -2.083078 0.504950 0.000000
v -2.114327 0.513324 0.000000
v -2.114327 0.380827 -2.000000
v -2.079329 0.390204 -2.000000
v -2.053709 0.415825 -2.000000
v -2.044331 0.450824 -2.000000
v -2.053709 0.485822 -2.000000
v -2.079329 0.511443 -2.000000
v -2.114327 0.520821 -2.000000
v -2.114327 0.388324 -1.887894
v -2.083078 0.396697 -1.887894
v -2.060201 0.419574 -1.887894
v -2.051828 0.450824 -1.887894
v -2.060201 0.482074 -1.887894
v -2.083078 0.504950 -1.887894
v -2.114327 0.513324 -1.887894
v -2.114327 0.380827 -1.893131
v -2.079329 0.390204 -1.893131
v -2.053709 0.415825 -1.893131
v -2.044331 0.450824 -1.893131
v -2.053709 0.485822 -1.893131
v -2.079329 0.511443 -1.893131
v -2.114327 0.520821 -1.893131
v -2.114327 0.388324 -1.833955
v -2.083078 0.396697 -1.833955
v -2.060201 0.419574 -1.833955
v -2.051828 0.450824 -1.833955
v -2.060201 0.482074 -1.833955
v -2.083078 0.504950 -1.833955
v -2.114327 0.513324 -1.833955
v -2.114327 0.388324 -1.868904
v -2.083078 0.396697 -1.868904
v -2.060201 0.419574 -1.868904
v -2.051828 0.450824 -1.868904
v -2.060201 0.482074 -1.868904
v -2.083078 0.504950 -1.868904
v -2.114327 0.513324 -1.868904
v -2.114327 0.383082 -1.865175
v -2.114327 0.383082 -1.837684
v -2.080457 0.392158 -1.865175
v -2.080457 0.392158 -1.837684
v -2.055662 0.416953 -1.865175
v -2.055662 0.416953 -1.837684
v -2.046587 0.450824 -1.865175
v -2.046587 0.450824 -1.837684
v -2.055662 0.484694 -1.865175
v -2.055662 0.484694 -1.837684
v -2.080457 0.509489 -1.865175
v -2.080457 0.509489 -1.837684
v -2.114327 0.518565 -1.865175
v -2.114327 0.518565 -1.837684
v -2.114327 0.380827 2.000000
v -2.079329 0.390204 2.000000
v -2.053708 0.415825 2.000000
v -2.044330 0.450824 2.000000
v -2.053708 0.485822 2.000000
v -2.079329 0.511443 2.000000
v -2.114327 0.520821 2.000000
v -2.114327 0.388324 1.887895
v -2.083077 0.396697 1.887895
v -2.060201 0.419574 1.887895
v -2.051827 0.450824 1.887895
v -2.060201 0.482074 1.887895
v -2.083077 0.504950 1.887895
v -2.114327 0.513324 1.887895
v -2.114327 0.380827 1.893132
v -2.079329 0.390204 1.893132
v -2.053708 0.415825 1.893132
v -2.044330 0.450824 1.893132
v -2.053708 0.485822 1.893132
v -2.079329 0.511443 1.893132
v -2.114327 0.520821 1.893132
v -2.114327 0.388324 1.833955
v -2.083077 0.396697 1.833955
v -2.060201 0.419574 1.833955
v -2.051827 0.450824 1.833955
v -2.060201 0.482074 1.833955
v -2.083077 0.504950 1.833955
v -2.114327 0.513324 1.833955
v -2.114327 0.388324 1.868905
v -2.083077 0.396697 1.868905
v -2.060201 0.419574 1.868905
v -2.051827 0.450824 1.868905
v -2.060201 0.482074 1.868905
v -2.083077 0.504950 1.868905
v -2.114327 0.513324 1.868905
v -2.114327 0.383082 1.865176
v -2.114327 0.383082 1.837684
v -2.080457 0.392158 1.865176
v -2.080457 0.392158 1.837684
v -2.055662 0.416953 1.865176
v -2.055662 0.416953 1.837684
v -2.046586 0.450824 1.865176
v -2.046586 0.450824 1.837684
v -2.055662 0.484694 1.865176
v -2.055662 0.484694 1.837684
v -2.080457 0.509489 1.865176
v -2.080457 0.509489 1.837684
v -2.114327 0.518565 1.865176
v -2.114327 0.518565 1.837684
v -2.114327 0.388324 1.008676
v -2.083077 0.396697 1.008676
v -2.060201 0.419574 1.008676
v -2.051827 0.450824 1.008676
v -2.060201 0.482074 1.008676
v -2.083077 0.504950 1.008676
v -2.114327 0.513324 1.008676
v -2.114327 0.388324 -1.000000
v -2.083078 0.396697 -1.000000
v -2.060201 0.419574 -1.000000
v -2.051828 0.450824 -1.000000
v -2.060201 0.482074 -1.000000
v -2.083078 0.504950 -1.000000
v -2.114327 0.513324 -1.000000
v -2.114327 0.388324 -0.500000
v -2.083078 0.396697 -0.500000
v -2.060201 0.419574 -0.500000
v -2.051828 0.450824 -0.500000
v -2.060201 0.482074 -0.500000
v -2.083078 0.504950 -0.500000
v -2.114327 0.513324 -0.500000
v -2.114327 0.388324 -1.500373
v -2.083078 0.396697 -1.500373
v -2.060201 0.419574 -1.500373
v -2.051828 0.450824 -1.500373
v -2.060201 0.482074 -1.500373
v -2.083078 0.504950 -1.500373
v -2.114327 0.513324 -1.500373
v -2.114327 0.388324 0.504338
v -2.083077 0.396697 0.504338
v -2.060201 0.419574 0.504338
v -2.051827 0.450824 0.504338
v -2.060201 0.482074 0.504338
v -2.083077 0.504950 0.504338
v -2.114327 0.513324 0.504338
v -2.114327 0.388324 1.503843
v -2.083077 0.396697 1.503843
v -2.060201 0.419574 1.503843
v -2.051827 0.450824 1.503843
v -2.060201 0.482074 1.503843
v -2.083077 0.504950 1.503843
v -2.114327 0.513324 1.503843
v -2.145577 0.396697 0.000000
v -2.168453 0.419574 0.000000
v -2.176827 0.450824 0.000000
v -2.168453 0.482074 0.000000
v -2.145577 0.504950 0.000000
v -2.149325 0.390204 -2.000000
v -2.174946 0.415825 -2.000000
v -2.184324 0.450824 -2.000000
v -2.174946 0.485822 -2.000000
v -2.149325 0.511443 -2.000000
v -2.145576 0.396697 -1.887894
v -2.168453 0.419574 -1.887894
v -2.176826 0.450824 -1.887894
v -2.168453 0.482074 -1.887894
v -2.145576 0.504950 -1.887894
v -2.149325 0.390204 -1.893131
v -2.174946 0.415825 -1.893131
v -2.184324 0.450824 -1.893131
v -2.174946 0.485822 -1.893131
v -2.149325 0.511443 -1.893131
v -2.145576 0.396697 -1.833955
v -2.168453 0.419574 -1.833955
v -2.176826 0.450824 -1.833955
v -2.168453 0.482074 -1.833955
v -2.145576 0.504950 -1.833955
v -2.145576 0.396697 -1.868904
v -2.168453 0.419574 -1.868904
v -2.176826 0.450824 -1.868904
v -2.168453 0.482074 -1.868904
v -2.145576 0.504950 -1.868904
v -2.148197 0.392158 -1.865175
v -2.148197 0.392158 -1.837684
v -2.172992 0.416953 -1.865175
v -2.172992 0.416953 -1.837684
v -2.182068 0.450824 -1.865175
v -2.182068 0.450824 -1.837684
v -2.172992 0.484694 -1.865175
v -2.172992 0.484694 -1.837684
v -2.148197 0.509489 -1.865175
v -2.148197 0.509489 -1.837684
v -2.149326 0.390204 2.000000
v -2.174946 0.415825 2.000000
v -2.184324 0.450824 2.000000
v -2.174946 0.485822 2.000000
v -2.149326 0.511443 2.000000
v -2.145577 0.396697 1.887895
v -2.168454 0.419574 1.887895
v -2.176827 0.450824 1.887895
v -2.168454 0.482074 1.887895
v -2.145577 0.504950 1.887895
v -2.149326 0.390204 1.893132
v -2.174946 0.415825 1.893132
v -2.184324 0.450824 1.893132
v -2.174946 0.485822 1.893132
v -2.149326 0.511443 1.893132
v -2.145577 0.396697 1.833955
v -2.168454 0.419574 1.833955
v -2.176827 0.450824 1.833955
v -2.168454 0.482074 1.833955
v -2.145577 0.504950 1.833955
v -2.145577 0.396697 1.868905
v -2.168454 0.419574 1.868905
v -2.176827 0.450824 1.868905
v -2.168454 0.482074 1.868905
v -2.145577 0.504950 1.868905
v -2.148198 0.392158 1.865176
v -2.148198 0.392158 1.837684
v -2.172993 0.416953 1.865176
v -2.172993 0.416953 1.837684
v -2.182068 0.450824 1.865176
v -2.182068 0.450824 1.837684
v -2.172993 0.484694 1.865176
v -2.172993 0.484694 1.837684
v -2.148198 0.509489 1.865176
v -2.148198 0.509489 1.837684
v -2.145577 0.396697 1.008676
v -2.168453 0.419574 1.008676
v -2.176827 0.450824 1.008676
v -2.168453 0.482074 1.008676
v -2.145577 0.504950 1.008676
v -2.145576 0.396697 -1.000000
v -2.168453 0.419574 -1.000000
v -2.176826 0.450824 -1.000000
v -2.168453 0.482074 -1.000000
v -2.145576 0.504950 -1.000000
v -2.145576 0.396697 -0.500000
v -2.168453 0.419574 -0.500000
v -2.176826 0.450824 -0.500000
v -2.168453 0.482074 -0.500000
v -2.145576 0.504950 -0.500000
v -2.145576 0.396697 -1.500373
v -2.168453 0.419574 -1.500373
v -2.176826 0.450824 -1.500373
v -2.168453 0.482074 -1.500373
v -2.145576 0.504950 -1.500373
v -2.145577 0.396697 0.504338
v -2.168453 0.419574 0.504338
v -2.176827 0.450824 0.504338
v -2.168453 0.482074 0.504338
v -2.145577 0.504950 0.504338
v -2.145577 0.396697 1.503843
v -2.168454 0.419574 1.503843
v -2.176827 0.450824 1.503843
v -2.168454 0.482074 1.503843
v -2.145577 0.504950 1.503843
vt 0.162218 0.408906
vt 0.162218 0.362340
vt 0.837782 0.362340
vt 0.837782 0.408906
vt 1.077276 0.750453
vt 1.077276 0.697079
vt 1.159675 0.697079
vt 1.159675 0.750453
vt 1.077276 0.688858
vt 1.077276 0.751199
vt 1.159675 0.751199
vt 1.159675 0.688858
vt 0.587932 0.688858
vt 0.587932 0.751199
vt 0.665163 0.751199
vt 0.665163 0.688858
vt 0.747581 0.688858
vt 0.747581 0.751199
vt 0.830000 0.751199
vt 0.830000 0.688858
vt 0.912419 0.688858
vt 0.912419 0.751199
vt 0.994837 0.751199
vt 0.994837 0.688858
vt 0.587932 0.750453
vt 0.587932 0.697079
vt 0.665163 0.697079
vt 0.665163 0.750453
vt 0.747581 0.750453
vt 0.747581 0.697079
vt 0.830000 0.697079
vt 0.830000 0.750453
vt 0.912419 0.750453
vt 0.912419 0.697079
vt 0.994837 0.697079
vt 0.994837 0.750453
vt 0.510701 0.750453
vt 0.510701 0.697079
vt 0.510701 0.688858
vt 0.510701 0.751199
vt 0.455026 0.569623
vt 0.518179 0.569623
vt 0.518179 0.579777
vt 0.455026 0.579777
vt 0.518179 0.589931
vt 0.455026 0.589931
vt 0.518179 0.600085
vt 0.455026 0.600085
vt 0.518179 0.610239
vt 0.455026 0.610239
vt 0.518179 0.620393
vt 0.455026 0.620393
vt 0.518179 0.630547
vt 0.455026 0.630547
vt 0.500917 0.365751
vt 0.500917 0.371133
vt 0.460363 0.371133
vt 0.460363 0.365751
vt 0.419809 0.371133
vt 0.419809 0.365751
vt 0.379255 0.371133
vt 0.379255 0.365751
vt 0.338701 0.371133
vt 0.338701 0.365752
vt 0.298147 0.371133
vt 0.298147 0.365751
vt 0.257593 0.371133
vt 0.257593 0.365751
vt 0.455026 0.569623
vt 0.455026 0.579777
vt 0.518179 0.579777
vt 0.518179 0.569623
vt 0.455026 0.589931
vt 0.518179 0.589931
vt 0.455026 0.600085
vt 0.518179 0.600085
vt 0.455026 0.610239
vt 0.518179 0.610239
vt 0.455026 0.620393
vt 0.518179 0.620393
vt 0.455026 0.630547
vt 0.518179 0.630547
vt 0.500917 0.365751
vt 0.460363 0.365751
vt 0.460363 0.371133
vt 0.500917 0.371133
vt 0.419809 0.365751
vt 0.419809 0.371133
vt 0.379255 0.365751
vt 0.379255 0.371133
vt 0.338701 0.365752
vt 0.338701 0.371133
vt 0.298147 0.365751
vt 0.298147 0.371133
vt 0.257593 0.365751
vt 0.257593 0.371133
vt 0.455026 0.579777
vt 0.518179 0.579777
vt 0.455026 0.589931
vt 0.518179 0.589931
vt 0.455026 0.600085
vt 0.518179 0.600085
vt 0.455026 0.610239
vt 0.518179 0.610239
vt 0.455026 0.620393
vt 0.518179 0.620393
vt 0.460363 0.365751
vt 0.460363 0.371133
vt 0.419809 0.365751
vt 0.419809 0.371133
vt 0.379255 0.365751
vt 0.379255 0.371133
vt 0.338701 0.365752
vt 0.338701 0.371133
vt 0.298147 0.365751
vt 0.298147 0.371133
vt 0.518179 0.579777
vt 0.455026 0.579777
vt 0.518179 0.589931
vt 0.455026 0.589931
vt 0.518179 0.600085
vt 0.455026 0.600085
vt 0.518179 0.610239
vt 0.455026 0.610239
vt 0.518179 0.620393
vt 0.455026 0.620393
vt 0.460363 0.371133
vt 0.460363 0.365751
vt 0.419809 0.371133
vt 0.419809 0.365751
vt 0.379255 0.371133
vt 0.379255 0.365751
vt 0.338701 0.371133
vt 0.338701 0.365752
vt 0.298147 0.371133
vt 0.298147 0.365751
vt 0.387076 0.997904
vt 0.387076 0.930211
vt 0.616774 0.930211
vt 0.616774 0.997904
vt 0.527792 0.997904
vt 0.527792 0.930211
vt 0.616774 0.930211
vt 0.616774 0.997904
vt 0.387076 0.997904
vt 0.387076 0.930211
vt 0.480015 0.661440
vt 0.404644 0.661440
vt 0.404644 0.710248
vt 0.480015 0.710248
vt 0.599206 0.661440
vt 0.404644 0.661440
vt 0.404644 0.710248
vt 0.599206 0.710248
vt 0.500267 0.985777
vt 0.500267 0.709169
vt 0.649718 0.709169
vt 0.649718 0.985777
vt 0.480015 0.661440
vt 0.480015 0.710248
vt 0.599206 0.661440
vt 0.599206 0.710248
vt 0.527792 0.997904
vt 0.527792 0.930211
vt 0.387076 0.930211
vt 0.387076 0.997904
vt 0.599206 0.710248
vt 0.599206 0.661440
vt 0.350816 0.985777
vt 0.350816 0.709169
vt 0.012354 0.985777
vt 0.012354 0.709169
vt 0.256310 0.709169
vt 0.256310 0.985777
vt 0.744224 0.709169
vt 0.744224 0.985777
vt 0.988181 0.985777
vt 0.988181 0.709169
vt 0.429516 0.293475
vt 0.429516 0.483608
vt 0.397147 0.483608
vt 0.397147 0.293475
vt 0.461886 0.293475
vt 0.461886 0.483608
vt 0.494255 0.293475
vt 0.494255 0.483608
vt 0.526625 0.293475
vt 0.526625 0.483608
vt 0.558994 0.293475
vt 0.558994 0.483608
vt 0.591364 0.293475
vt 0.591363 0.483608
vt 0.666232 0.590478
vt 0.744230 0.590478
vt 0.744230 0.602610
vt 0.666232 0.602610
vt 0.666232 0.578347
vt 0.744230 0.578347
vt 0.666232 0.566214
vt 0.744230 0.566215
vt 0.666232 0.554083
vt 0.744230 0.554083
vt 0.666232 0.541951
vt 0.744230 0.541951
vt 0.666232 0.529819
vt 0.744230 0.529819
vt 0.409955 0.965938
vt 0.454088 0.965938
vt 0.454088 0.970938
vt 0.409955 0.970938
vt 0.409955 0.998262
vt 0.365822 0.998262
vt 0.365822 0.995137
vt 0.409955 0.995137
vt 0.498221 0.965938
vt 0.498221 0.970938
vt 0.454088 0.998262
vt 0.454088 0.995137
vt 0.542353 0.965938
vt 0.542353 0.970938
vt 0.498221 0.998262
vt 0.498221 0.995137
vt 0.586486 0.965938
vt 0.586486 0.970938
vt 0.542353 0.998262
vt 0.542353 0.995137
vt 0.586486 0.995137
vt 0.630619 0.970938
vt 0.630619 0.995137
vt 0.365822 0.970938
vt 0.365822 0.965938
vt 0.630619 0.998262
vt 0.586486 0.998262
vt 0.630619 0.965938
vt 0.429516 0.293475
vt 0.397147 0.293475
vt 0.397147 0.483608
vt 0.429516 0.483608
vt 0.461886 0.293475
vt 0.461886 0.483608
vt 0.494255 0.293475
vt 0.494255 0.483608
vt 0.526625 0.293475
vt 0.526625 0.483608
vt 0.558994 0.293475
vt 0.558994 0.483608
vt 0.591364 0.293475
vt 0.591363 0.483608
vt 0.666232 0.590478
vt 0.666232 0.602610
vt 0.744230 0.602610
vt 0.744230 0.590478
vt 0.666232 0.578347
vt 0.744230 0.578347
vt 0.666232 0.566214
vt 0.744230 0.566215
vt 0.666232 0.554083
vt 0.744230 0.554083
vt 0.666232 0.541951
vt 0.744230 0.541951
vt 0.666232 0.529819
vt 0.744230 0.529819
vt 0.409955 0.965938
vt 0.409955 0.970938
vt 0.454088 0.970938
vt 0.454088 0.965938
vt 0.409955 0.998262
vt 0.409955 0.995137
vt 0.365822 0.995137
vt 0.365822 0.998262
vt 0.498221 0.970938
vt 0.498221 0.965938
vt 0.454088 0.998262
vt 0.454088 0.995137
vt 0.542353 0.970938
vt 0.542353 0.965938
vt 0.498221 0.998262
vt 0.498221 0.995137
vt 0.586486 0.970938
vt 0.586486 0.965938
vt 0.542353 0.998262
vt 0.542353 0.995137
vt 0.586486 0.995137
vt 0.630619 0.995137
vt 0.630619 0.970938
vt 0.365822 0.970938
vt 0.365822 0.965938
vt 0.630619 0.998262
vt 0.586486 0.998262
vt 0.630619 0.965938
vt 0.430070 0.529819
vt 0.430070 0.541951
vt 0.549234 0.541951
vt 0.549234 0.529819
vt 0.430070 0.554083
vt 0.549234 0.554083
vt 0.430070 0.566215
vt 0.549234 0.566215
vt 0.430070 0.578347
vt 0.549234 0.578347
vt 0.430070 0.590478
vt 0.549234 0.590478
vt 0.430070 0.602611
vt 0.549234 0.602611
vt 0.430070 0.529819
vt 0.549234 0.529819
vt 0.549234 0.541951
vt 0.430070 0.541951
vt 0.549234 0.554083
vt 0.430070 0.554083
vt 0.549234 0.566215
vt 0.430070 0.566215
vt 0.549234 0.578347
vt 0.430070 0.578347
vt 0.549234 0.590478
vt 0.430070 0.590478
vt 0.549234 0.602611
vt 0.430070 0.602611
vt 0.310906 0.590478
vt 0.310906 0.602611
vt 0.310906 0.578347
vt 0.310906 0.566215
vt 0.310906 0.554083
vt 0.310906 0.541951
vt 0.310906 0.529819
vt 0.429516 0.293475
vt 0.429516 0.483608
vt 0.461886 0.293475
vt 0.461886 0.483608
vt 0.494255 0.293475
vt 0.494255 0.483608
vt 0.526625 0.293475
vt 0.526625 0.483608
vt 0.558994 0.293475
vt 0.558994 0.483608
vt 0.666232 0.590478
vt 0.744230 0.590478
vt 0.666232 0.578347
vt 0.744230 0.578347
vt 0.666232 0.566214
vt 0.744230 0.566215
vt 0.666232 0.554083
vt 0.744230 0.554083
vt 0.666232 0.541951
vt 0.744230 0.541951
vt 0.409955 0.965938
vt 0.409955 0.970938
vt 0.454088 0.970938
vt 0.454088 0.965938
vt 0.409955 0.998262
vt 0.409955 0.995137
vt 0.498221 0.970938
vt 0.498221 0.965938
vt 0.454088 0.998262
vt 0.454088 0.995137
vt 0.542353 0.970938
vt 0.542353 0.965938
vt 0.498221 0.998262
vt 0.498221 0.995137
vt 0.586486 0.970938
vt 0.586486 0.965938
vt 0.542353 0.998262
vt 0.542353 0.995137
vt 0.586486 0.995137
vt 0.586486 0.998262
vt 0.429516 0.293475
vt 0.429516 0.483608
vt 0.461886 0.293475
vt 0.461886 0.483608
vt 0.494255 0.293475
vt 0.494255 0.483608
vt 0.526625 0.293475
vt 0.526625 0.483608
vt 0.558994 0.293475
vt 0.558994 0.483608
vt 0.666232 0.590478
vt 0.744230 0.590478
vt 0.666232 0.578347
vt 0.744230 0.578347
vt 0.666232 0.566214
vt 0.744230 0.566215
vt 0.666232 0.554083
vt 0.744230 0.554083
vt 0.666232 0.541951
vt 0.744230 0.541951
vt 0.409955 0.965938
vt 0.454088 0.965938
vt 0.454088 0.970938
vt 0.409955 0.970938
vt 0.409955 0.998262
vt 0.409955 0.995137
vt 0.498221 0.965938
vt 0.498221 0.970938
vt 0.454088 0.998262
vt 0.454088 0.995137
vt 0.542353 0.965938
vt 0.542353 0.970938
vt 0.498221 0.998262
vt 0.498221 0.995137
vt 0.586486 0.965938
vt 0.586486 0.970938
vt 0.542353 0.998262
vt 0.542353 0.995137
vt 0.586486 0.995137
vt 0.586486 0.998262
vt 0.549234 0.541951
vt 0.430070 0.541951
vt 0.549234 0.554083
vt 0.430070 0.554083
vt 0.549234 0.566215
vt 0.430070 0.566215
vt 0.549234 0.578347
vt 0.430070 0.578347
vt 0.549234 0.590478
vt 0.430070 0.590478
vt 0.430070 0.541951
vt 0.549234 0.541951
vt 0.430070 0.554083
vt 0.549234 0.554083
vt 0.430070 0.566215
vt 0.549234 0.566215
vt 0.430070 0.578347
vt 0.549234 0.578347
vt 0.430070 0.590478
vt 0.549234 0.590478
vt 0.310906 0.590478
vt 0.310906 0.578347
vt 0.310906 0.566215
vt 0.310906 0.554083
vt 0.310906 0.541951
vt 0.625000 0.500000
vt 0.625000 0.750000
vt 0.875000 0.750000
vt 0.875000 0.500000
vt 0.625000 0.500000
vt 0.875000 0.500000
vt 0.875000 0.750000
vt 0.625000 0.750000
vt 0.266972 0.281270
vt 0.266972 0.222317
vt 0.655196 0.222317
vt 0.655196 0.281270
vt 0.266972 0.311098
vt 0.655196 0.311098
vt 0.266972 0.281270
vt 0.266972 0.222317
vt 0.266972 0.311098
vt 0.375000 0.000000
vt 0.563603 0.000000
vt 0.563603 0.250000
vt 0.375000 0.250000
vt 0.376561 0.454135
vt 0.393287 0.470861
vt 0.393287 0.518834
vt 0.393287 0.555025
vt 0.302061 0.539136
vt 0.302061 0.454135
vt 0.393287 0.566806
vt 0.393287 0.481806
vt 0.484514 0.465916
vt 0.484514 0.502108
vt 0.484514 0.550080
vt 0.467788 0.566806
vt 0.397393 0.993373
vt 0.331347 0.993373
vt 0.331347 0.935918
vt 0.397393 0.935918
vt 0.617622 0.500000
vt 0.875000 0.500000
vt 0.875000 0.750000
vt 0.617622 0.750000
vt 0.528106 0.935918
vt 0.528106 0.993372
vt 0.484939 0.993373
vt 0.484939 0.935918
vt 0.664063 0.993372
vt 0.664063 0.935918
vn 0.6172 -0.7868 0.0000
vn 0.5270 -0.8499 0.0000
vn 0.5175 0.8557 0.0000
vn -0.0000 -1.0000 0.0000
vn 0.5000 -0.8660 0.0000
vn 0.8660 -0.5000 0.0000
vn 1.0000 0.0000 0.0000
vn 0.8660 0.5000 0.0000
vn 0.5000 0.8660 0.0000
vn -0.0000 1.0000 0.0000
vn 0.0000 -0.5727 0.8198
vn 0.2863 -0.4959 0.8198
vn 0.4960 -0.2863 0.8198
vn 0.5727 0.0000 0.8198
vn 0.4959 0.2863 0.8198
vn 0.4960 0.2863 0.8198
vn 0.2863 0.4959 0.8198
vn 0.0000 0.5727 0.8198
vn 0.0000 -0.5727 -0.8198
vn 0.2863 -0.4959 -0.8198
vn 0.4959 -0.2863 -0.8198
vn 0.5727 0.0000 -0.8198
vn 0.4959 0.2863 -0.8198
vn 0.2863 0.4959 -0.8198
vn 0.0000 0.5727 -0.8198
vn -0.5000 -0.8660 0.0000
vn -0.8660 -0.5000 0.0000
vn -1.0000 0.0000 0.0000
vn -0.8660 0.5000 0.0000
vn -0.5000 0.8660 0.0000
vn -0.2863 -0.4959 0.8198
vn -0.4960 -0.2863 0.8198
vn -0.5727 0.0000 0.8198
vn -0.4960 0.2863 0.8198
vn -0.2863 0.4959 0.8198
vn -0.2863 -0.4959 -0.8198
vn -0.4959 -0.2863 -0.8198
vn -0.5727 -0.0000 -0.8198
vn -0.4959 0.2863 -0.8198
vn -0.2863 0.4959 -0.8198
vn 0.2899 -0.5021 -0.8148
vn 0.5021 -0.2899 -0.8148
vn 0.2899 -0.5021 0.8148
vn 0.0000 -0.5797 0.8148
vn 0.5797 0.0000 -0.8148
vn 0.5021 -0.2899 0.8148
vn 0.5021 0.2899 -0.8148
vn 0.5797 0.0000 0.8148
vn 0.2899 0.5021 -0.8148
vn 0.2899 0.5020 -0.8148
vn 0.5021 0.2899 0.8148
vn -0.0000 -0.5797 -0.8148
vn 0.0000 0.5797 0.8148
vn 0.2899 0.5021 0.8148
vn 0.2899 0.5020 0.8148
vn 0.0000 0.5797 -0.8148
vn 0.2899 -0.5020 0.8148
vn 0.5020 -0.2899 0.8148
vn 0.2899 -0.5020 -0.8148
vn 0.5020 -0.2899 -0.8148
vn 0.5020 0.2899 0.8148
vn 0.2898 0.5020 0.8148
vn 0.5020 0.2899 -0.8148
vn -0.2899 -0.5021 -0.8148
vn -0.5021 -0.2899 -0.8148
vn -0.2899 -0.5021 0.8148
vn -0.5797 0.0000 -0.8148
vn -0.5021 -0.2899 0.8148
vn -0.5021 0.2899 -0.8148
vn -0.5797 0.0000 0.8148
vn -0.2899 0.5021 -0.8148
vn -0.5021 0.2899 0.8148
vn -0.2899 0.5021 0.8148
vn -0.2899 -0.5020 0.8148
vn -0.5020 -0.2899 0.8148
vn -0.2898 -0.5020 -0.8148
vn -0.2899 -0.5020 -0.8148
vn -0.5020 -0.2899 -0.8148
vn -0.5020 0.2899 0.8148
vn -0.2899 0.5020 0.8148
vn -0.5020 0.2899 -0.8148
vn -0.2898 0.5020 -0.8148
vn -0.2899 0.5020 -0.8148
vn 0.0000 0.0000 1.0000
vn 0.0000 0.0000 -1.0000
vn 0.7607 0.6491 -0.0000
vn 0.9903 0.1386 0.0000
vn -0.0895 0.9960 0.0000
vn 0.7071 -0.7071 0.0000
vn 0.8491 -0.5282 0.0000
usemtl MI_Trim_02
s 1
f 33/1/1 30/2/1 31/3/1 32/4/1
f 88/5/2 86/6/2 66/7/2 64/8/2
f 86/9/3 87/10/3 68/11/3 66/12/3
f 78/13/3 79/14/3 69/15/3 70/16/3
f 81/17/3 80/18/3 72/19/3 62/20/3
f 83/21/3 85/22/3 76/23/3 75/24/3
f 77/25/2 78/26/2 70/27/2 71/28/2
f 82/29/2 81/30/2 62/31/2 73/32/2
f 84/33/2 83/34/2 75/35/2 74/36/2
f 63/37/2 65/38/2 78/26/2 77/25/2
f 65/39/3 67/40/3 79/14/3 78/13/3
f 71/28/2 70/27/2 81/30/2 82/29/2
f 70/16/3 69/15/3 80/18/3 81/17/3
f 73/32/2 62/31/2 83/34/2 84/33/2
f 62/20/3 72/19/3 85/22/3 83/21/3
f 75/24/3 76/23/3 87/10/3 86/9/3
f 74/36/2 75/35/2 86/6/2 88/5/2
f 124/41/4 103/42/4 104/43/5 125/44/5
f 125/44/5 104/43/5 105/45/6 126/46/6
f 126/46/6 105/45/6 106/47/7 127/48/7
f 127/48/7 106/47/7 107/49/8 128/50/8
f 128/50/8 107/49/8 108/51/9 129/52/9
f 129/52/9 108/51/9 109/53/10 130/54/10
f 103/55/11 110/56/11 111/57/12 104/58/12
f 104/58/12 111/57/12 112/59/13 105/60/13
f 105/60/13 112/59/13 113/61/14 106/62/14
f 106/62/14 113/61/14 114/63/15 107/64/16
f 107/64/16 114/63/15 115/65/17 108/66/17
f 108/66/17 115/65/17 116/67/18 109/68/18
f 173/69/4 174/70/5 153/71/5 152/72/4
f 174/70/5 175/73/6 154/74/6 153/71/5
f 175/73/6 176/75/7 155/76/7 154/74/6
f 176/75/7 177/77/8 156/78/8 155/76/7
f 177/77/8 178/79/9 157/80/9 156/78/8
f 178/79/9 179/81/10 158/82/10 157/80/9
f 152/83/19 153/84/20 160/85/20 159/86/19
f 153/84/20 154/87/21 161/88/21 160/85/20
f 154/87/21 155/89/22 162/90/22 161/88/21
f 155/89/22 156/91/23 163/92/23 162/90/22
f 156/91/23 157/93/24 164/94/24 163/92/23
f 157/93/24 158/95/25 165/96/25 164/94/24
f 124/41/4 261/97/26 246/98/26 103/42/4
f 261/97/26 262/99/27 247/100/27 246/98/26
f 262/99/27 263/101/28 248/102/28 247/100/27
f 263/101/28 264/103/29 249/104/29 248/102/28
f 264/103/29 265/105/30 250/106/30 249/104/29
f 265/105/30 130/54/10 109/53/10 250/106/30
f 103/55/11 246/107/31 251/108/31 110/56/11
f 246/107/31 247/109/32 252/110/32 251/108/31
f 247/109/32 248/111/33 253/112/33 252/110/32
f 248/111/33 249/113/34 254/114/34 253/112/33
f 249/113/34 250/115/35 255/116/35 254/114/34
f 250/115/35 109/68/18 116/67/18 255/116/35
f 173/69/4 152/72/4 281/117/26 296/118/26
f 296/118/26 281/117/26 282/119/27 297/120/27
f 297/120/27 282/119/27 283/121/28 298/122/28
f 298/122/28 283/121/28 284/123/29 299/124/29
f 299/124/29 284/123/29 285/125/30 300/126/30
f 300/126/30 285/125/30 158/82/10 179/81/10
f 152/83/19 159/86/19 286/127/36 281/128/36
f 281/128/36 286/127/36 287/129/37 282/130/37
f 282/130/37 287/129/37 288/131/38 283/132/38
f 283/132/38 288/131/38 289/133/39 284/134/39
f 284/134/39 289/133/39 290/135/40 285/136/40
f 285/136/40 290/135/40 165/96/25 158/95/25
usemtl MI_Trim_01
f 34/137/7 37/138/7 36/139/7 35/140/7
f 51/141/7 54/142/7 41/143/7 39/144/7
f 43/145/7 39/144/7 41/143/7 44/146/7
f 56/147/7 49/148/7 48/149/7 60/150/7
f 38/151/7 40/152/7 46/153/7 42/154/7
f 55/155/7 58/156/7 57/157/7 54/158/7
f 57/159/7 59/160/7 46/153/7 40/152/7
f 45/161/7 47/162/7 48/149/7 49/148/7
f 50/163/7 53/164/7 55/165/7 52/166/7
f 52/166/7 55/165/7 54/142/7 51/141/7
f 56/147/7 60/150/7 61/167/7 58/168/7
f 58/168/7 61/167/7 59/160/7 57/159/7
f 50/163/7 35/140/7 36/139/7 53/164/7
f 53/169/7 56/170/7 58/156/7 55/155/7
f 37/171/7 45/172/7 49/173/7 36/174/7
f 54/158/7 57/157/7 40/175/7 41/176/7
f 44/177/7 41/176/7 40/175/7 38/178/7
f 53/169/7 36/174/7 49/173/7 56/170/7
f 115/179/9 101/180/9 102/181/10 116/182/10
f 114/183/8 100/184/8 101/180/9 115/179/9
f 113/185/7 99/186/7 100/184/8 114/183/8
f 112/187/6 98/188/6 99/186/7 113/185/7
f 111/189/5 97/190/5 98/188/6 112/187/6
f 110/191/4 96/192/4 97/190/5 111/189/5
f 220/193/9 122/194/9 123/195/10 221/196/10
f 219/197/8 121/198/8 122/194/9 220/193/9
f 218/199/7 120/200/7 121/198/8 219/197/8
f 217/201/6 119/202/6 120/200/7 218/199/7
f 216/203/5 118/204/5 119/202/6 217/201/6
f 215/205/4 117/206/4 118/204/5 216/203/5
f 125/207/41 126/208/42 135/209/42 133/210/41
f 118/211/43 117/212/44 132/213/44 134/214/43
f 126/208/42 127/215/45 137/216/45 135/209/42
f 119/217/46 118/211/43 134/214/43 136/218/46
f 127/215/45 128/219/47 139/220/47 137/216/45
f 120/221/48 119/217/46 136/218/46 138/222/48
f 128/219/47 129/223/49 141/224/50 139/220/47
f 121/225/51 120/221/48 138/222/48 140/226/51
f 142/227/9 141/224/9 143/228/10 144/229/10
f 140/226/8 139/220/8 141/224/9 142/227/9
f 138/222/7 137/216/7 139/220/8 140/226/8
f 136/218/6 135/209/6 137/216/7 138/222/7
f 134/214/5 133/210/5 135/209/6 136/218/6
f 132/213/4 131/230/4 133/210/5 134/214/5
f 124/231/52 125/207/41 133/210/41 131/230/52
f 123/232/53 122/233/54 142/227/55 144/229/53
f 122/233/54 121/225/51 140/226/51 142/227/55
f 129/223/49 130/234/56 143/228/56 141/224/50
f 164/235/9 165/236/10 151/237/10 150/238/9
f 163/239/8 164/235/9 150/238/9 149/240/8
f 162/241/7 163/239/8 149/240/8 148/242/7
f 161/243/6 162/241/7 148/242/7 147/244/6
f 160/245/5 161/243/6 147/244/6 146/246/5
f 159/247/4 160/245/5 146/246/5 145/248/4
f 234/249/9 235/250/10 172/251/10 171/252/9
f 233/253/8 234/249/9 171/252/9 170/254/8
f 232/255/7 233/253/8 170/254/8 169/256/7
f 231/257/6 232/255/7 169/256/7 168/258/6
f 230/259/5 231/257/6 168/258/6 167/260/5
f 229/261/4 230/259/5 167/260/5 166/262/4
f 174/263/57 182/264/57 184/265/58 175/266/58
f 167/267/59 183/268/59 181/269/52 166/270/52
f 175/266/58 184/265/58 186/271/48 176/272/48
f 168/273/60 185/274/60 183/268/59 167/267/59
f 176/272/48 186/271/48 188/275/61 177/276/61
f 169/277/45 187/278/45 185/274/60 168/273/60
f 177/276/61 188/275/61 190/279/55 178/280/62
f 170/281/63 189/282/63 187/278/45 169/277/45
f 191/283/9 193/284/10 192/285/10 190/279/9
f 189/282/8 191/283/9 190/279/9 188/275/8
f 187/278/7 189/282/8 188/275/8 186/271/7
f 185/274/6 187/278/7 186/271/7 184/265/6
f 183/268/5 185/274/6 184/265/6 182/264/5
f 181/269/4 183/268/5 182/264/5 180/286/4
f 173/287/44 180/286/44 182/264/57 174/263/57
f 172/288/56 193/284/56 191/283/50 171/289/50
f 171/289/50 191/283/50 189/282/63 170/281/63
f 178/280/62 190/279/55 192/285/53 179/290/53
f 222/291/4 223/292/5 195/293/5 194/294/4
f 223/292/5 224/295/6 196/296/6 195/293/5
f 224/295/6 225/297/7 197/298/7 196/296/6
f 225/297/7 226/299/8 198/300/8 197/298/7
f 226/299/8 227/301/9 199/302/9 198/300/8
f 227/301/9 228/303/10 200/304/10 199/302/9
f 208/305/4 201/306/4 202/307/5 209/308/5
f 209/308/5 202/307/5 203/309/6 210/310/6
f 210/310/6 203/309/6 204/311/7 211/312/7
f 211/312/7 204/311/7 205/313/8 212/314/8
f 212/314/8 205/313/8 206/315/9 213/316/9
f 213/316/9 206/315/9 207/317/10 214/318/10
f 94/319/9 213/316/9 214/318/10 95/320/10
f 93/321/8 212/314/8 213/316/9 94/319/9
f 92/322/7 211/312/7 212/314/8 93/321/8
f 91/323/6 210/310/6 211/312/7 92/322/7
f 90/324/5 209/308/5 210/310/6 91/323/6
f 89/325/4 208/305/4 209/308/5 90/324/5
f 201/306/4 215/205/4 216/203/5 202/307/5
f 202/307/5 216/203/5 217/201/6 203/309/6
f 203/309/6 217/201/6 218/199/7 204/311/7
f 204/311/7 218/199/7 219/197/8 205/313/8
f 205/313/8 219/197/8 220/193/9 206/315/9
f 206/315/9 220/193/9 221/196/10 207/317/10
f 94/319/9 95/320/10 228/303/10 227/301/9
f 93/321/8 94/319/9 227/301/9 226/299/8
f 92/322/7 93/321/8 226/299/8 225/297/7
f 91/323/6 92/322/7 225/297/7 224/295/6
f 90/324/5 91/323/6 224/295/6 223/292/5
f 89/325/4 90/324/5 223/292/5 222/291/4
f 194/294/4 195/293/5 230/259/5 229/261/4
f 195/293/5 196/296/6 231/257/6 230/259/5
f 196/296/6 197/298/7 232/255/7 231/257/6
f 197/298/7 198/300/8 233/253/8 232/255/7
f 198/300/8 199/302/9 234/249/9 233/253/8
f 199/302/9 200/304/10 235/250/10 234/249/9
f 255/326/30 116/182/10 102/181/10 245/327/30
f 254/328/29 255/326/30 245/327/30 244/329/29
f 253/330/28 254/328/29 244/329/29 243/331/28
f 252/332/27 253/330/28 243/331/28 242/333/27
f 251/334/26 252/332/27 242/333/27 241/335/26
f 110/191/4 251/334/26 241/335/26 96/192/4
f 330/336/30 221/196/10 123/195/10 260/337/30
f 329/338/29 330/336/30 260/337/30 259/339/29
f 328/340/28 329/338/29 259/339/29 258/341/28
f 327/342/27 328/340/28 258/341/28 257/343/27
f 326/344/26 327/342/27 257/343/27 256/345/26
f 215/205/4 326/344/26 256/345/26 117/206/4
f 261/346/64 266/347/64 268/348/65 262/349/65
f 256/350/66 267/351/66 132/213/44 117/212/44
f 262/349/65 268/348/65 270/352/67 263/353/67
f 257/354/68 269/355/68 267/351/66 256/350/66
f 263/353/67 270/352/67 272/356/69 264/357/69
f 258/358/70 271/359/70 269/355/68 257/354/68
f 264/357/69 272/356/69 274/360/71 265/361/71
f 259/362/72 273/363/72 271/359/70 258/358/70
f 275/364/30 144/229/10 143/228/10 274/360/30
f 273/363/29 275/364/30 274/360/30 272/356/29
f 271/359/28 273/363/29 272/356/29 270/352/28
f 269/355/27 271/359/28 270/352/28 268/348/27
f 267/351/26 269/355/27 268/348/27 266/347/26
f 132/213/4 267/351/26 266/347/26 131/230/4
f 124/231/52 131/230/52 266/347/64 261/346/64
f 123/232/53 144/229/53 275/364/73 260/365/73
f 260/365/73 275/364/73 273/363/72 259/362/72
f 265/361/71 274/360/71 143/228/56 130/234/56
f 290/366/30 280/367/30 151/237/10 165/236/10
f 289/368/29 279/369/29 280/367/30 290/366/30
f 288/370/28 278/371/28 279/369/29 289/368/29
f 287/372/27 277/373/27 278/371/28 288/370/28
f 286/374/26 276/375/26 277/373/27 287/372/27
f 159/247/4 145/248/4 276/375/26 286/374/26
f 340/376/30 295/377/30 172/251/10 235/250/10
f 339/378/29 294/379/29 295/377/30 340/376/30
f 338/380/28 293/381/28 294/379/29 339/378/29
f 337/382/27 292/383/27 293/381/28 338/380/28
f 336/384/26 291/385/26 292/383/27 337/382/27
f 229/261/4 166/262/4 291/385/26 336/384/26
f 296/386/74 297/387/75 303/388/75 301/389/74
f 291/390/76 166/270/52 181/269/52 302/391/77
f 297/387/75 298/392/70 305/393/70 303/388/75
f 292/394/78 291/390/76 302/391/77 304/395/78
f 298/392/70 299/396/79 307/397/79 305/393/70
f 293/398/67 292/394/78 304/395/78 306/399/67
f 299/396/79 300/400/80 309/401/80 307/397/79
f 294/402/81 293/398/67 306/399/67 308/403/81
f 310/404/30 309/401/30 192/285/10 193/284/10
f 308/403/29 307/397/29 309/401/30 310/404/30
f 306/399/28 305/393/28 307/397/29 308/403/29
f 304/395/27 303/388/27 305/393/28 306/399/28
f 302/391/26 301/389/26 303/388/27 304/395/27
f 181/269/4 180/286/4 301/389/26 302/391/26
f 173/287/44 296/386/74 301/389/74 180/286/44
f 172/288/56 295/405/82 310/404/83 193/284/56
f 295/405/82 294/402/81 308/403/81 310/404/83
f 300/400/80 179/290/53 192/285/53 309/401/80
f 222/291/4 194/294/4 311/406/26 331/407/26
f 331/407/26 311/406/26 312/408/27 332/409/27
f 332/409/27 312/408/27 313/410/28 333/411/28
f 333/411/28 313/410/28 314/412/29 334/413/29
f 334/413/29 314/412/29 315/414/30 335/415/30
f 335/415/30 315/414/30 200/304/10 228/303/10
f 208/305/4 321/416/26 316/417/26 201/306/4
f 321/416/26 322/418/27 317/419/27 316/417/26
f 322/418/27 323/420/28 318/421/28 317/419/27
f 323/420/28 324/422/29 319/423/29 318/421/28
f 324/422/29 325/424/30 320/425/30 319/423/29
f 325/424/30 214/318/10 207/317/10 320/425/30
f 240/426/30 95/320/10 214/318/10 325/424/30
f 239/427/29 240/426/30 325/424/30 324/422/29
f 238/428/28 239/427/29 324/422/29 323/420/28
f 237/429/27 238/428/28 323/420/28 322/418/27
f 236/430/26 237/429/27 322/418/27 321/416/26
f 89/325/4 236/430/26 321/416/26 208/305/4
f 201/306/4 316/417/26 326/344/26 215/205/4
f 316/417/26 317/419/27 327/342/27 326/344/26
f 317/419/27 318/421/28 328/340/28 327/342/27
f 318/421/28 319/423/29 329/338/29 328/340/28
f 319/423/29 320/425/30 330/336/30 329/338/29
f 320/425/30 207/317/10 221/196/10 330/336/30
f 240/426/30 335/415/30 228/303/10 95/320/10
f 239/427/29 334/413/29 335/415/30 240/426/30
f 238/428/28 333/411/28 334/413/29 239/427/29
f 237/429/27 332/409/27 333/411/28 238/428/28
f 236/430/26 331/407/26 332/409/27 237/429/27
f 89/325/4 222/291/4 331/407/26 236/430/26
f 194/294/4 229/261/4 336/384/26 311/406/26
f 311/406/26 336/384/26 337/382/27 312/408/27
f 312/408/27 337/382/27 338/380/28 313/410/28
f 313/410/28 338/380/28 339/378/29 314/412/29
f 314/412/29 339/378/29 340/376/30 315/414/30
f 315/414/30 340/376/30 235/250/10 200/304/10
usemtl MI_Trim_03_Dark
s off
f 25/431/4 24/432/4 22/433/4 23/434/4
f 28/435/10 27/436/10 26/437/10 29/438/10
f 22/433/84 24/432/84 29/438/84 26/437/84
f 25/431/85 23/434/85 27/436/85 28/435/85
f 24/432/7 25/431/7 28/435/7 29/438/7
f 23/434/28 22/433/28 26/437/28 27/436/28
s 1
f 5/439/7 1/440/7 3/441/7 6/442/7
f 2/443/86 5/439/86 6/442/86 4/444/86
f 9/445/7 6/442/7 3/441/7 7/446/7
f 8/447/86 4/444/86 6/442/86 9/445/86
usemtl MI_Trim_03
s off
f 10/448/28 11/449/28 13/450/28 12/451/28
f 16/452/84 17/453/84 21/454/84 14/455/84 11/456/84 10/457/84
f 12/458/85 13/459/85 15/460/85 20/461/85 18/462/85 19/463/85
f 20/464/87 15/465/87 14/466/87 21/467/87
f 15/468/88 13/469/88 11/470/88 14/471/88
f 16/472/89 19/473/89 18/474/89 17/475/89
f 12/476/4 19/473/4 16/472/4 10/477/4
f 18/474/90 20/464/90 21/467/90 17/475/90
