# Blender v3.6.0 OBJ File: 'AllModules_Unreal.blend'
# www.blender.org
mtllib WallPipe_Corner_Square_Outer.mtl
o WallPipe_Corner_Square_Outer_Plane.118
v -3.885673 0.388324 -2.000000
v -3.916922 0.396697 -2.000000
v -3.939799 0.419574 -2.000000
v -3.948172 0.450824 -2.000000
v -3.939799 0.482074 -2.000000
v -3.916922 0.504950 -2.000000
v -3.885673 0.513324 -2.000000
v -3.885673 0.380827 -3.815404
v -3.920671 0.390204 -3.815404
v -3.946292 0.415825 -3.815404
v -3.955670 0.450824 -3.815404
v -3.946292 0.485822 -3.815404
v -3.920671 0.511443 -3.815404
v -3.885673 0.520821 -3.815404
v -3.885673 0.388324 -3.700528
v -3.916922 0.396697 -3.700528
v -3.939799 0.419574 -3.700528
v -3.948172 0.450824 -3.700528
v -3.939799 0.482074 -3.700528
v -3.916922 0.504950 -3.700528
v -3.885673 0.513324 -3.700528
v -3.885673 0.380827 -3.705765
v -3.920671 0.390204 -3.705765
v -3.946292 0.415825 -3.705765
v -3.955670 0.450824 -3.705765
v -3.946292 0.485822 -3.705765
v -3.920671 0.511443 -3.705765
v -3.885673 0.520821 -3.705765
v -3.885673 0.388324 -3.646589
v -3.916922 0.396697 -3.646589
v -3.939799 0.419574 -3.646589
v -3.948172 0.450824 -3.646589
v -3.939799 0.482074 -3.646589
v -3.916922 0.504950 -3.646589
v -3.885673 0.513324 -3.646589
v -3.885673 0.388324 -3.681538
v -3.916922 0.396697 -3.681538
v -3.939799 0.419574 -3.681538
v -3.948172 0.450824 -3.681538
v -3.939799 0.482074 -3.681538
v -3.916922 0.504950 -3.681538
v -3.885673 0.513324 -3.681538
v -3.885673 0.383082 -3.677809
v -3.885673 0.383082 -3.650317
v -3.919543 0.392158 -3.677809
v -3.919543 0.392158 -3.650317
v -3.944338 0.416953 -3.677809
v -3.944338 0.416953 -3.650317
v -3.953414 0.450824 -3.677809
v -3.953414 0.450824 -3.650317
v -3.944338 0.484694 -3.677809
v -3.944338 0.484694 -3.650317
v -3.919543 0.509489 -3.677809
v -3.919543 0.509489 -3.650317
v -3.885673 0.518565 -3.677809
v -3.885673 0.518565 -3.650317
v -3.885673 0.380827 0.000001
v -3.920671 0.390204 0.000001
v -3.946292 0.415825 0.000001
v -3.955669 0.450824 0.000001
v -3.946292 0.485822 0.000001
v -3.920671 0.511443 0.000001
v -3.885673 0.520821 0.000001
v -3.885673 0.388324 -0.112105
v -3.916923 0.396697 -0.112105
v -3.939799 0.419574 -0.112105
v -3.948173 0.450824 -0.112105
v -3.939799 0.482074 -0.112105
v -3.916923 0.504950 -0.112105
v -3.885673 0.513324 -0.112105
v -3.885673 0.380827 -0.106868
v -3.920671 0.390204 -0.106868
v -3.946292 0.415825 -0.106868
v -3.955669 0.450824 -0.106868
v -3.946292 0.485822 -0.106868
v -3.920671 0.511443 -0.106868
v -3.885673 0.520821 -0.106868
v -3.885673 0.388324 -0.166044
v -3.916923 0.396697 -0.166044
v -3.939799 0.419574 -0.166044
v -3.948173 0.450824 -0.166044
v -3.939799 0.482074 -0.166044
v -3.916923 0.504950 -0.166044
v -3.885673 0.513324 -0.166044
v -3.885673 0.388324 -0.131095
v -3.916923 0.396697 -0.131095
v -3.939799 0.419574 -0.131095
v -3.948173 0.450824 -0.131095
v -3.939799 0.482074 -0.131095
v -3.916923 0.504950 -0.131095
v -3.885673 0.513324 -0.131095
v -3.885673 0.383082 -0.134824
v -3.885673 0.383082 -0.162316
v -3.919543 0.392158 -0.134824
v -3.919543 0.392158 -0.162316
v -3.944338 0.416953 -0.134824
v -3.944338 0.416953 -0.162316
v -3.953413 0.450824 -0.134824
v -3.953413 0.450824 -0.162316
v -3.944338 0.484694 -0.134824
v -3.944338 0.484694 -0.162316
v -3.919543 0.509489 -0.134824
v -3.919543 0.509489 -0.162316
v -3.885673 0.518565 -0.134824
v -3.885673 0.518565 -0.162316
v -3.885673 0.388324 -0.991324
v -3.916923 0.396697 -0.991324
v -3.939799 0.419574 -0.991324
v -3.948173 0.450824 -0.991324
v -3.939799 0.482074 -0.991324
v -3.916923 0.504950 -0.991324
v -3.885673 0.513324 -0.991324
v -3.885673 0.388324 -3.000000
v -3.916922 0.396697 -3.000000
v -3.939799 0.419574 -3.000000
v -3.948172 0.450824 -3.000000
v -3.939799 0.482074 -3.000000
v -3.916922 0.504950 -3.000000
v -3.885673 0.513324 -3.000000
v -3.885673 0.388324 -2.500000
v -3.916922 0.396697 -2.500000
v -3.939799 0.419574 -2.500000
v -3.948172 0.450824 -2.500000
v -3.939799 0.482074 -2.500000
v -3.916922 0.504950 -2.500000
v -3.885673 0.513324 -2.500000
v -3.885673 0.388324 -3.500372
v -3.916922 0.396697 -3.500372
v -3.939799 0.419574 -3.500372
v -3.948172 0.450824 -3.500372
v -3.939799 0.482074 -3.500372
v -3.916922 0.504950 -3.500372
v -3.885673 0.513324 -3.500372
v -3.885673 0.388324 -1.495662
v -3.916923 0.396697 -1.495662
v -3.939799 0.419574 -1.495662
v -3.948173 0.450824 -1.495662
v -3.939799 0.482074 -1.495662
v -3.916923 0.504950 -1.495662
v -3.885673 0.513324 -1.495662
v -3.885673 0.388324 -0.496156
v -3.916923 0.396697 -0.496156
v -3.939799 0.419574 -0.496156
v -3.948173 0.450824 -0.496156
v -3.939799 0.482074 -0.496156
v -3.916923 0.504950 -0.496156
v -3.885673 0.513324 -0.496156
v -3.854423 0.396697 -2.000000
v -3.831547 0.419574 -2.000000
v -3.823173 0.450824 -2.000000
v -3.831547 0.482074 -2.000000
v -3.854423 0.504950 -2.000000
v -3.850675 0.390204 -3.815404
v -3.825054 0.415825 -3.815404
v -3.825054 0.485822 -3.815404
v -3.850675 0.511443 -3.815404
v -3.854424 0.396697 -3.700528
v -3.831547 0.419574 -3.700528
v -3.823174 0.450824 -3.700528
v -3.831547 0.482074 -3.700528
v -3.854424 0.504950 -3.700528
v -3.850675 0.390204 -3.705765
v -3.825054 0.415825 -3.705765
v -3.815677 0.450824 -3.705765
v -3.825054 0.485822 -3.705765
v -3.850675 0.511443 -3.705765
v -3.854424 0.396697 -3.646589
v -3.831547 0.419574 -3.646589
v -3.823174 0.450824 -3.646589
v -3.831547 0.482074 -3.646589
v -3.854424 0.504950 -3.646589
v -3.854424 0.396697 -3.681538
v -3.831547 0.419574 -3.681538
v -3.823174 0.450824 -3.681538
v -3.831547 0.482074 -3.681538
v -3.854424 0.504950 -3.681538
v -3.851803 0.392158 -3.677809
v -3.851803 0.392158 -3.650317
v -3.827008 0.416953 -3.677809
v -3.827008 0.416953 -3.650317
v -3.817933 0.450824 -3.677809
v -3.817933 0.450824 -3.650317
v -3.827008 0.484694 -3.677809
v -3.827008 0.484694 -3.650317
v -3.851803 0.509489 -3.677809
v -3.851803 0.509489 -3.650317
v -3.850674 0.390204 0.000001
v -3.825054 0.415825 0.000001
v -3.815676 0.450824 0.000001
v -3.825054 0.485822 0.000001
v -3.850674 0.511443 0.000001
v -3.854423 0.396697 -0.112105
v -3.831546 0.419574 -0.112105
v -3.823173 0.450824 -0.112105
v -3.831546 0.482074 -0.112105
v -3.854423 0.504950 -0.112105
v -3.850674 0.390204 -0.106868
v -3.825054 0.415825 -0.106868
v -3.815676 0.450824 -0.106868
v -3.825054 0.485822 -0.106868
v -3.850674 0.511443 -0.106868
v -3.854423 0.396697 -0.166044
v -3.831546 0.419574 -0.166044
v -3.823173 0.450824 -0.166044
v -3.831546 0.482074 -0.166044
v -3.854423 0.504950 -0.166044
v -3.854423 0.396697 -0.131095
v -3.831546 0.419574 -0.131095
v -3.823173 0.450824 -0.131095
v -3.831546 0.482074 -0.131095
v -3.854423 0.504950 -0.131095
v -3.851802 0.392158 -0.134824
v -3.851802 0.392158 -0.162316
v -3.827007 0.416953 -0.134824
v -3.827007 0.416953 -0.162316
v -3.817932 0.450824 -0.134824
v -3.817932 0.450824 -0.162316
v -3.827007 0.484694 -0.134824
v -3.827007 0.484694 -0.162316
v -3.851802 0.509489 -0.134824
v -3.851802 0.509489 -0.162316
v -3.854423 0.396697 -0.991324
v -3.831547 0.419574 -0.991324
v -3.823173 0.450824 -0.991324
v -3.831547 0.482074 -0.991324
v -3.854423 0.504950 -0.991324
v -3.854424 0.396697 -3.000000
v -3.831547 0.419574 -3.000000
v -3.823174 0.450824 -3.000000
v -3.831547 0.482074 -3.000000
v -3.854424 0.504950 -3.000000
v -3.854424 0.396697 -2.500000
v -3.831547 0.419574 -2.500000
v -3.823174 0.450824 -2.500000
v -3.831547 0.482074 -2.500000
v -3.854424 0.504950 -2.500000
v -3.854424 0.396697 -3.500372
v -3.831547 0.419574 -3.500372
v -3.823174 0.450824 -3.500372
v -3.831547 0.482074 -3.500372
v -3.854424 0.504950 -3.500372
v -3.854423 0.396697 -1.495662
v -3.831547 0.419574 -1.495662
v -3.823173 0.450824 -1.495662
v -3.831547 0.482074 -1.495662
v -3.854423 0.504950 -1.495662
v -3.854423 0.396697 -0.496156
v -3.831546 0.419574 -0.496156
v -3.823173 0.450824 -0.496156
v -3.831546 0.482074 -0.496156
v -3.854423 0.504950 -0.496156
v 0.000000 0.000000 -4.000000
v -2.000000 0.000000 -4.000000
v 0.000000 0.265611 -4.000000
v -2.000000 0.265611 -4.000000
v 0.000000 0.500000 -3.800000
v -3.800000 0.500000 -3.799999
v -2.000000 2.875975 -3.800000
v -0.000000 3.000000 -4.000000
v -0.000000 2.875975 -3.800000
v -3.800000 2.875975 -3.800000
v -0.000000 2.755010 -4.000000
v -4.000000 2.755009 -3.999999
v -1.000000 2.755010 -4.000000
v -1.000000 2.438356 -4.000000
v -0.000000 2.438356 -4.000000
v -3.000000 1.104416 -4.000000
v -3.000000 2.438356 -3.999999
v -1.000000 2.875975 -3.800000
v -1.942275 0.262142 -3.787332
v -1.942275 0.517944 -3.787332
v -2.057725 0.262142 -3.787332
v -2.057725 0.517944 -3.787332
v -1.942275 0.543330 -3.955575
v -2.057725 0.543330 -3.955575
v -1.942275 0.262142 -3.897137
v -1.942275 0.312478 -3.947473
v -2.057725 0.312478 -3.947473
v -2.057725 0.262142 -3.897137
v -2.057725 0.365509 -3.980464
v -1.942275 0.365509 -3.980464
v -1.966425 0.453215 -3.821826
v -2.033575 0.453215 -3.821826
v -1.966425 0.453215 -3.981968
v -2.033575 0.453215 -3.981968
v -1.966425 0.701389 -3.821826
v -2.033575 0.701389 -3.821826
v -2.033575 0.701389 -3.981968
v -1.966425 0.701389 -3.981968
v 0.000000 1.104416 -4.000000
v -1.000000 3.000000 -4.000000
v 0.000001 0.656889 -4.000000
v -1.000000 0.656889 -4.000000
v -1.000000 1.104416 -4.000000
v -1.999999 2.755010 -4.000000
v -1.999999 2.438356 -4.000000
v -2.000000 1.104416 -4.000000
v -2.000000 3.000000 -4.000000
v -1.000000 0.500000 -3.800000
v -2.000000 0.500000 -3.800000
v -3.000000 0.500000 -3.799999
v -3.000000 0.656889 -4.000000
v -2.000000 0.656889 -4.000000
v -3.000000 3.000000 -3.999999
v -3.000000 2.875975 -3.800000
v -3.000000 2.755009 -3.999999
v -1.000000 0.000000 -4.000000
v -1.000000 0.265611 -4.000000
v -3.000000 0.000000 -4.000000
v -3.000000 0.265611 -4.000000
v -0.500000 3.000000 -4.000000
v -0.500000 2.438356 -4.000000
v -0.500000 1.104416 -4.000000
v -0.500000 0.656889 -4.000000
v -0.500000 2.875975 -3.800000
v -0.500000 0.500000 -3.800000
v -0.500000 2.755010 -4.000000
v -0.500000 0.000000 -4.000000
v -0.500000 0.265611 -4.000000
v -1.500000 0.000000 -4.000000
v -1.500000 0.265611 -4.000000
v -1.500000 2.755010 -4.000000
v -1.500000 2.438356 -4.000000
v -1.500000 2.875975 -3.800000
v -1.500000 3.000000 -4.000000
v -1.500000 1.104416 -4.000000
v -1.500000 0.500000 -3.800000
v -1.500000 0.656889 -4.000000
v -2.500000 0.000000 -4.000000
v -2.500000 0.265611 -4.000000
v -2.500000 2.875975 -3.800000
v -2.500000 2.438356 -4.000000
v -2.500000 1.104416 -4.000000
v -2.500000 0.500000 -3.800000
v -2.500000 0.656889 -4.000000
v -2.500000 3.000000 -4.000000
v -2.500000 2.755009 -4.000000
v -3.500118 0.500000 -3.799999
v -3.500118 2.875975 -3.800000
v -3.500118 2.755009 -3.999999
v -3.500118 2.438356 -3.999999
v -3.500118 1.104416 -4.000000
v -3.500118 0.656889 -4.000000
v -3.500118 3.000000 -3.999999
v -3.500119 0.000000 -4.000000
v -3.500119 0.265611 -4.000000
v -2.000000 0.388324 -3.885673
v -2.000000 0.396697 -3.916922
v -2.000000 0.419574 -3.939799
v -2.000000 0.450824 -3.948172
v -2.000000 0.482074 -3.939799
v -2.000000 0.504950 -3.916922
v -2.000000 0.513324 -3.885673
v -3.816777 0.390204 -3.920671
v -3.816777 0.450824 -3.955669
v -3.816777 0.485822 -3.946291
v -3.700528 0.388324 -3.885673
v -3.700528 0.396697 -3.916922
v -3.700528 0.419574 -3.939799
v -3.700528 0.450824 -3.948172
v -3.700528 0.482074 -3.939799
v -3.700528 0.504950 -3.916922
v -3.700528 0.513324 -3.885673
v -3.705765 0.380827 -3.885673
v -3.705765 0.390204 -3.920671
v -3.705765 0.415825 -3.946291
v -3.705765 0.450824 -3.955669
v -3.705765 0.485822 -3.946291
v -3.705765 0.511443 -3.920671
v -3.705765 0.520821 -3.885673
v -3.646589 0.388324 -3.885673
v -3.646589 0.396697 -3.916922
v -3.646589 0.419574 -3.939799
v -3.646589 0.450824 -3.948172
v -3.646589 0.482074 -3.939799
v -3.646589 0.504950 -3.916922
v -3.646589 0.513324 -3.885673
v -3.681538 0.388324 -3.885673
v -3.681538 0.396697 -3.916922
v -3.681538 0.419574 -3.939799
v -3.681538 0.450824 -3.948172
v -3.681538 0.482074 -3.939799
v -3.681538 0.504950 -3.916922
v -3.681538 0.513324 -3.885673
v -3.677809 0.383082 -3.885673
v -3.650318 0.383082 -3.885673
v -3.677809 0.392158 -3.919543
v -3.650318 0.392158 -3.919543
v -3.677809 0.416953 -3.944338
v -3.650318 0.416953 -3.944338
v -3.677809 0.450824 -3.953413
v -3.650318 0.450824 -3.953413
v -3.677809 0.484694 -3.944338
v -3.650318 0.484694 -3.944338
v -3.677809 0.509489 -3.919543
v -3.650318 0.509489 -3.919543
v -3.677809 0.518565 -3.885673
v -3.650318 0.518565 -3.885673
v 0.000000 0.380827 -3.885673
v 0.000000 0.390204 -3.920671
v 0.000000 0.415825 -3.946292
v 0.000000 0.450824 -3.955670
v 0.000000 0.485822 -3.946292
v 0.000000 0.511443 -3.920671
v 0.000000 0.520821 -3.885673
v -0.112106 0.388324 -3.885673
v -0.112106 0.396697 -3.916923
v -0.112106 0.419574 -3.939799
v -0.112106 0.450824 -3.948173
v -0.112106 0.482074 -3.939799
v -0.112106 0.504950 -3.916923
v -0.112106 0.513324 -3.885673
v -0.106868 0.380827 -3.885673
v -0.106868 0.390204 -3.920671
v -0.106868 0.415825 -3.946292
v -0.106868 0.450824 -3.955670
v -0.106868 0.485822 -3.946292
v -0.106868 0.511443 -3.920671
v -0.106868 0.520821 -3.885673
v -0.166045 0.388324 -3.885673
v -0.166045 0.396697 -3.916923
v -0.166045 0.419574 -3.939799
v -0.166045 0.450824 -3.948173
v -0.166045 0.482074 -3.939799
v -0.166045 0.504950 -3.916923
v -0.166045 0.513324 -3.885673
v -0.131096 0.388324 -3.885673
v -0.131096 0.396697 -3.916923
v -0.131096 0.419574 -3.939799
v -0.131096 0.450824 -3.948173
v -0.131096 0.482074 -3.939799
v -0.131096 0.504950 -3.916923
v -0.131096 0.513324 -3.885673
v -0.134824 0.383082 -3.885673
v -0.162316 0.383082 -3.885673
v -0.134824 0.392158 -3.919543
v -0.162316 0.392158 -3.919543
v -0.134824 0.416953 -3.944338
v -0.162316 0.416953 -3.944338
v -0.134824 0.450824 -3.953414
v -0.162316 0.450824 -3.953414
v -0.134824 0.484694 -3.944338
v -0.162316 0.484694 -3.944338
v -0.134824 0.509489 -3.919543
v -0.162316 0.509489 -3.919543
v -0.134824 0.518565 -3.885673
v -0.162316 0.518565 -3.885673
v -0.991325 0.388324 -3.885673
v -0.991325 0.396697 -3.916923
v -0.991325 0.419574 -3.939799
v -0.991325 0.450824 -3.948173
v -0.991325 0.482074 -3.939799
v -0.991325 0.504950 -3.916923
v -0.991325 0.513324 -3.885673
v -3.000000 0.388324 -3.885673
v -3.000000 0.396697 -3.916922
v -3.000000 0.419574 -3.939799
v -3.000000 0.450824 -3.948172
v -3.000000 0.482074 -3.939799
v -3.000000 0.504950 -3.916922
v -3.000000 0.513324 -3.885673
v -2.500000 0.388324 -3.885673
v -2.500000 0.396697 -3.916922
v -2.500000 0.419574 -3.939799
v -2.500000 0.450824 -3.948172
v -2.500000 0.482074 -3.939799
v -2.500000 0.504950 -3.916922
v -2.500000 0.513324 -3.885673
v -3.500373 0.388324 -3.885673
v -3.500373 0.396697 -3.916922
v -3.500373 0.419574 -3.939799
v -3.500373 0.450824 -3.948172
v -3.500373 0.482074 -3.939799
v -3.500373 0.504950 -3.916922
v -3.500373 0.513324 -3.885673
v -1.495662 0.388324 -3.885673
v -1.495662 0.396697 -3.916923
v -1.495662 0.419574 -3.939799
v -1.495662 0.450824 -3.948173
v -1.495662 0.482074 -3.939799
v -1.495662 0.504950 -3.916923
v -1.495662 0.513324 -3.885673
v -0.496157 0.388324 -3.885673
v -0.496157 0.396697 -3.916923
v -0.496157 0.419574 -3.939799
v -0.496157 0.450824 -3.948173
v -0.496157 0.482074 -3.939799
v -0.496157 0.504950 -3.916923
v -0.496157 0.513324 -3.885673
v -2.000000 0.396697 -3.854423
v -2.000000 0.419574 -3.831547
v -2.000000 0.450824 -3.823173
v -2.000000 0.482074 -3.831547
v -2.000000 0.504950 -3.854423
v -3.816777 0.390204 -3.850675
v -3.816777 0.415825 -3.825054
v -3.816777 0.511443 -3.850675
v -3.700528 0.396697 -3.854423
v -3.700528 0.419574 -3.831547
v -3.700528 0.450824 -3.823173
v -3.700528 0.482074 -3.831547
v -3.700528 0.504950 -3.854423
v -3.705765 0.390204 -3.850675
v -3.705765 0.415825 -3.825054
v -3.705765 0.450824 -3.815676
v -3.705765 0.485822 -3.825054
v -3.705765 0.511443 -3.850675
v -3.646589 0.396697 -3.854423
v -3.646589 0.419574 -3.831547
v -3.646589 0.450824 -3.823173
v -3.646589 0.482074 -3.831547
v -3.646589 0.504950 -3.854423
v -3.681538 0.396697 -3.854423
v -3.681538 0.419574 -3.831547
v -3.681538 0.450824 -3.823173
v -3.681538 0.482074 -3.831547
v -3.681538 0.504950 -3.854423
v -3.677809 0.392158 -3.851803
v -3.650318 0.392158 -3.851803
v -3.677809 0.416953 -3.827008
v -3.650318 0.416953 -3.827008
v -3.677809 0.450824 -3.817932
v -3.650318 0.450824 -3.817932
v -3.677809 0.484694 -3.827008
v -3.650318 0.484694 -3.827008
v -3.677809 0.509489 -3.851803
v -3.650318 0.509489 -3.851803
v 0.000000 0.390204 -3.850674
v 0.000000 0.415825 -3.825054
v 0.000000 0.450824 -3.815676
v 0.000000 0.485822 -3.825054
v 0.000000 0.511443 -3.850674
v -0.112106 0.396697 -3.854423
v -0.112106 0.419574 -3.831546
v -0.112106 0.450824 -3.823173
v -0.112106 0.482074 -3.831546
v -0.112106 0.504950 -3.854423
v -0.106868 0.390204 -3.850674
v -0.106868 0.415825 -3.825054
v -0.106868 0.450824 -3.815676
v -0.106868 0.485822 -3.825054
v -0.106868 0.511443 -3.850674
v -0.166045 0.396697 -3.854423
v -0.166045 0.419574 -3.831546
v -0.166045 0.450824 -3.823173
v -0.166045 0.482074 -3.831546
v -0.166045 0.504950 -3.854423
v -0.131096 0.396697 -3.854423
v -0.131096 0.419574 -3.831546
v -0.131096 0.450824 -3.823173
v -0.131096 0.482074 -3.831546
v -0.131096 0.504950 -3.854423
v -0.134824 0.392158 -3.851802
v -0.162316 0.392158 -3.851802
v -0.134824 0.416953 -3.827007
v -0.162316 0.416953 -3.827007
v -0.134824 0.450824 -3.817932
v -0.162316 0.450824 -3.817932
v -0.134824 0.484694 -3.827007
v -0.162316 0.484694 -3.827007
v -0.134824 0.509489 -3.851802
v -0.162316 0.509489 -3.851802
v -0.991325 0.396697 -3.854423
v -0.991325 0.419574 -3.831547
v -0.991325 0.450824 -3.823173
v -0.991325 0.482074 -3.831547
v -0.991325 0.504950 -3.854423
v -3.000000 0.396697 -3.854423
v -3.000000 0.419574 -3.831547
v -3.000000 0.450824 -3.823173
v -3.000000 0.482074 -3.831547
v -3.000000 0.504950 -3.854423
v -2.500000 0.396697 -3.854424
v -2.500000 0.419574 -3.831547
v -2.500000 0.450824 -3.823174
v -2.500000 0.482074 -3.831547
v -2.500000 0.504950 -3.854424
v -3.500373 0.396697 -3.854423
v -3.500373 0.419574 -3.831547
v -3.500373 0.450824 -3.823173
v -3.500373 0.482074 -3.831547
v -3.500373 0.504950 -3.854423
v -1.495662 0.396697 -3.854423
v -1.495662 0.419574 -3.831547
v -1.495662 0.450824 -3.823173
v -1.495662 0.482074 -3.831547
v -1.495662 0.504950 -3.854423
v -0.496157 0.396697 -3.854423
v -0.496157 0.419574 -3.831546
v -0.496157 0.450824 -3.823173
v -0.496157 0.482074 -3.831546
v -0.496157 0.504950 -3.854423
v -4.000000 0.000000 0.000000
v -4.000000 0.000000 -2.000000
v -4.000000 0.265611 0.000000
v -4.000000 0.265611 -2.000000
v -4.000000 0.000000 -4.000000
v -4.000000 0.265611 -4.000000
v -3.800000 0.500000 0.000000
v -3.800000 2.875975 -2.000000
v -4.000000 0.656889 -3.999999
v -4.000000 3.000000 -0.000000
v -4.000000 3.000000 -4.000000
v -3.800000 2.875975 -0.000000
v -4.000000 2.755010 -0.000000
v -4.000000 2.755010 -1.000000
v -4.000000 2.438356 -1.000000
v -4.000000 2.438356 -0.000000
v -4.000000 1.104416 -4.000000
v -4.000000 1.104416 -3.000000
v -4.000000 2.438356 -3.000000
v -3.800000 2.875975 -1.000000
v -4.000000 2.438356 -4.000000
v -3.768584 0.262142 -1.942275
v -3.768584 0.517944 -1.942275
v -3.768584 0.262142 -2.057724
v -3.768584 0.517944 -2.057724
v -3.955575 0.543330 -1.942275
v -3.955575 0.543330 -2.057724
v -3.897137 0.262142 -1.942275
v -3.947473 0.312478 -1.942275
v -3.947473 0.312478 -2.057724
v -3.897137 0.262142 -2.057724
v -3.980464 0.365509 -2.057724
v -3.980464 0.365509 -1.942275
v -3.803079 0.453215 -1.966425
v -3.803079 0.453215 -2.033574
v -3.981968 0.453215 -1.966425
v -3.981968 0.453215 -2.033574
v -3.803079 0.701389 -1.966425
v -3.803079 0.701389 -2.033574
v -3.981968 0.701389 -2.033574
v -3.981968 0.701389 -1.966425
v -4.000000 1.104416 0.000000
v -4.000000 3.000000 -1.000000
v -4.000000 0.656889 0.000001
v -4.000000 0.656889 -1.000000
v -4.000000 1.104416 -1.000000
v -4.000000 2.755010 -1.999999
v -4.000000 2.438356 -1.999999
v -4.000000 1.104416 -2.000000
v -4.000000 3.000000 -2.000000
v -3.800000 0.500000 -1.000000
v -3.800000 0.500000 -2.000000
v -3.800000 0.500000 -2.999999
v -4.000000 0.656889 -2.999999
v -4.000000 0.656889 -2.000000
v -4.000000 3.000000 -3.000000
v -3.800000 2.875975 -3.000000
v -4.000000 2.755009 -3.000000
v -4.000000 0.000000 -1.000000
v -4.000000 0.265611 -1.000000
v -4.000000 0.000000 -3.000000
v -4.000000 0.265611 -3.000000
v -4.000000 3.000000 -0.500000
v -4.000000 2.438356 -0.500000
v -4.000000 1.104416 -0.500000
v -4.000000 0.656889 -0.500000
v -3.800000 2.875975 -0.500000
v -3.800000 0.500000 -0.500000
v -4.000000 2.755010 -0.500000
v -4.000000 0.000000 -0.500000
v -4.000000 0.265611 -0.500000
v -4.000000 0.000000 -1.500000
v -4.000000 0.265611 -1.500000
v -4.000000 2.755010 -1.500000
v -4.000000 2.438356 -1.500000
v -3.800000 2.875975 -1.500000
v -4.000000 3.000000 -1.500000
v -4.000000 1.104416 -1.500000
v -3.800000 0.500000 -1.500000
v -4.000000 0.656889 -1.500000
v -4.000000 0.000000 -2.500000
v -4.000000 0.265611 -2.500000
v -3.800000 2.875975 -2.500000
v -4.000000 2.438356 -2.500000
v -4.000000 1.104416 -2.500000
v -3.800000 0.500000 -2.499999
v -4.000000 0.656889 -2.500000
v -4.000000 3.000000 -2.500000
v -4.000000 2.755009 -2.500000
v -3.800000 0.500000 -3.500118
v -3.800000 2.875975 -3.500118
v -4.000000 2.755009 -3.500118
v -4.000000 2.438356 -3.500118
v -4.000000 1.104416 -3.500118
v -4.000000 0.656889 -3.500118
v -4.000000 3.000000 -3.500118
v -4.000000 0.000000 -3.500118
v -4.000000 0.265611 -3.500118
v -3.883319 0.380827 -3.833560
v -3.917124 0.390204 -3.842618
v -3.941872 0.415825 -3.849250
v -3.950930 0.450824 -3.851677
v -3.941872 0.485822 -3.849250
v -3.917124 0.511443 -3.842618
v -3.883319 0.520821 -3.833560
v -3.849513 0.390204 -3.824502
v -3.824766 0.415825 -3.817871
v -3.824766 0.485822 -3.817871
v -3.849513 0.511443 -3.824502
v -3.876345 0.380827 -3.850488
v -3.906655 0.390204 -3.867987
v -3.928843 0.415825 -3.880798
v -3.936964 0.450824 -3.885487
v -3.928843 0.485822 -3.880798
v -3.906655 0.511443 -3.867987
v -3.876345 0.520821 -3.850488
v -3.846036 0.390204 -3.832989
v -3.823848 0.415825 -3.820179
v -3.823848 0.485822 -3.820179
v -3.846036 0.511443 -3.832989
v -3.865228 0.380827 -3.865035
v -3.889975 0.390204 -3.889782
v -3.908092 0.415825 -3.907899
v -3.914723 0.450824 -3.914530
v -3.908092 0.485822 -3.907899
v -3.889975 0.511443 -3.889782
v -3.865228 0.520821 -3.865035
v -3.840481 0.390204 -3.840288
v -3.822364 0.415825 -3.822171
v -3.815733 0.450824 -3.815540
v -3.822364 0.485822 -3.822171
v -3.840481 0.511443 -3.840288
v -3.850725 0.380827 -3.876209
v -3.868224 0.390204 -3.906518
v -3.881034 0.415825 -3.928706
v -3.885723 0.450824 -3.936827
v -3.881034 0.485822 -3.928706
v -3.868224 0.511443 -3.906518
v -3.850725 0.520821 -3.876209
v -3.833226 0.390204 -3.845899
v -3.820416 0.415825 -3.823711
v -3.820416 0.485822 -3.823711
v -3.833226 0.511443 -3.845899
v -3.833824 0.380827 -3.883248
v -3.842882 0.390204 -3.917053
v -3.849513 0.415825 -3.941801
v -3.851940 0.450824 -3.950859
v -3.849513 0.485822 -3.941801
v -3.842882 0.511443 -3.917053
v -3.833824 0.520821 -3.883248
v -3.824766 0.390204 -3.849442
v -3.818135 0.415825 -3.824694
v -3.818135 0.485822 -3.824694
v -3.824766 0.511443 -3.849442
v -3.816777 0.380827 -3.885343
v -3.816777 0.415825 -3.945680
v -3.816777 0.511443 -3.920178
v -3.816777 0.520821 -3.885343
v -3.816777 0.450824 -3.815671
v -3.816777 0.485822 -3.825005
vt 0.455026 0.569623
vt 0.455026 0.579777
vt 0.518179 0.579777
vt 0.518179 0.569623
vt 0.455026 0.589931
vt 0.518179 0.589931
vt 0.455026 0.600085
vt 0.518179 0.600085
vt 0.455026 0.610239
vt 0.518179 0.610239
vt 0.455026 0.620393
vt 0.518179 0.620393
vt 0.455026 0.630547
vt 0.518179 0.630547
vt 0.500917 0.365751
vt 0.460363 0.365751
vt 0.460363 0.371133
vt 0.500917 0.371133
vt 0.419809 0.365751
vt 0.419809 0.371133
vt 0.379255 0.365751
vt 0.379255 0.371133
vt 0.338701 0.365752
vt 0.338701 0.371133
vt 0.298147 0.365751
vt 0.298147 0.371133
vt 0.257593 0.365751
vt 0.257593 0.371133
vt 0.455026 0.569623
vt 0.518179 0.569623
vt 0.518179 0.579777
vt 0.455026 0.579777
vt 0.518179 0.589931
vt 0.455026 0.589931
vt 0.518179 0.600085
vt 0.455026 0.600085
vt 0.518179 0.610239
vt 0.455026 0.610239
vt 0.518179 0.620393
vt 0.455026 0.620393
vt 0.518179 0.630547
vt 0.455026 0.630547
vt 0.500917 0.365751
vt 0.500917 0.371133
vt 0.460363 0.371133
vt 0.460363 0.365751
vt 0.419809 0.371133
vt 0.419809 0.365751
vt 0.379255 0.371133
vt 0.379255 0.365751
vt 0.338701 0.371133
vt 0.338701 0.365752
vt 0.298147 0.371133
vt 0.298147 0.365751
vt 0.257593 0.371133
vt 0.257593 0.365751
vt 0.518179 0.579777
vt 0.455026 0.579777
vt 0.518179 0.589931
vt 0.455026 0.589931
vt 0.518179 0.600085
vt 0.455026 0.600085
vt 0.518179 0.610239
vt 0.455026 0.610239
vt 0.518179 0.620393
vt 0.455026 0.620393
vt 0.460363 0.371133
vt 0.460363 0.365751
vt 0.419809 0.371133
vt 0.419809 0.365751
vt 0.379255 0.371133
vt 0.379255 0.365751
vt 0.338701 0.371133
vt 0.338701 0.365752
vt 0.298147 0.371133
vt 0.298147 0.365751
vt 0.455026 0.579777
vt 0.518179 0.579777
vt 0.455026 0.589931
vt 0.518179 0.589931
vt 0.455026 0.600085
vt 0.518179 0.600085
vt 0.455026 0.610239
vt 0.518179 0.610239
vt 0.455026 0.620393
vt 0.518179 0.620393
vt 0.460363 0.365751
vt 0.460363 0.371133
vt 0.419809 0.365751
vt 0.419809 0.371133
vt 0.379255 0.365751
vt 0.379255 0.371133
vt 0.338701 0.365752
vt 0.338701 0.371133
vt 0.298147 0.365751
vt 0.298147 0.371133
vt 0.753356 0.408906
vt 0.753356 0.362340
vt 0.837782 0.362340
vt 0.837782 0.408906
vt 1.077276 0.750453
vt 1.077276 0.697079
vt 1.159675 0.697079
vt 1.159675 0.750453
vt 1.077276 0.688858
vt 1.077276 0.751199
vt 1.159675 0.751199
vt 1.159675 0.688858
vt 0.246664 0.408906
vt 0.246664 0.362340
vt 0.331109 0.362340
vt 0.331109 0.408906
vt 0.415555 0.408906
vt 0.415555 0.362340
vt 0.500000 0.362340
vt 0.500000 0.408906
vt 0.584445 0.408906
vt 0.584445 0.362340
vt 0.668891 0.362340
vt 0.668891 0.408906
vt 0.587932 0.688858
vt 0.587932 0.751199
vt 0.665163 0.751199
vt 0.665163 0.688858
vt 0.747581 0.688858
vt 0.747581 0.751199
vt 0.830000 0.751199
vt 0.830000 0.688858
vt 0.912419 0.688858
vt 0.912419 0.751199
vt 0.994837 0.751199
vt 0.994837 0.688858
vt 0.587932 0.750453
vt 0.587932 0.697079
vt 0.665163 0.697079
vt 0.665163 0.750453
vt 0.747581 0.750453
vt 0.747581 0.697079
vt 0.830000 0.697079
vt 0.830000 0.750453
vt 0.912419 0.750453
vt 0.912419 0.697079
vt 0.994837 0.697079
vt 0.994837 0.750453
vt 0.510701 0.750453
vt 0.510701 0.697079
vt 0.510701 0.688858
vt 0.510701 0.751199
vt 0.162218 0.408906
vt 0.162218 0.362340
vt 0.455026 0.569623
vt 0.518179 0.569623
vt 0.518179 0.579777
vt 0.455026 0.579777
vt 0.518179 0.589931
vt 0.455026 0.589931
vt 0.518179 0.600085
vt 0.455026 0.600085
vt 0.518179 0.610239
vt 0.455026 0.610239
vt 0.518179 0.620393
vt 0.455026 0.620393
vt 0.518179 0.630547
vt 0.455026 0.630547
vt 0.500917 0.365751
vt 0.500917 0.371133
vt 0.460363 0.371133
vt 0.460363 0.365751
vt 0.419809 0.371133
vt 0.419809 0.365751
vt 0.379255 0.371133
vt 0.379255 0.365751
vt 0.338701 0.371133
vt 0.338701 0.365752
vt 0.298147 0.371133
vt 0.298147 0.365751
vt 0.257593 0.371133
vt 0.257593 0.365751
vt 0.455026 0.569623
vt 0.455026 0.579777
vt 0.518179 0.579777
vt 0.518179 0.569623
vt 0.455026 0.589931
vt 0.518179 0.589931
vt 0.455026 0.600085
vt 0.518179 0.600085
vt 0.455026 0.610239
vt 0.518179 0.610239
vt 0.455026 0.620393
vt 0.518179 0.620393
vt 0.455026 0.630547
vt 0.518179 0.630547
vt 0.500917 0.365751
vt 0.460363 0.365751
vt 0.460363 0.371133
vt 0.500917 0.371133
vt 0.419809 0.365751
vt 0.419809 0.371133
vt 0.379255 0.365751
vt 0.379255 0.371133
vt 0.338701 0.365752
vt 0.338701 0.371133
vt 0.298147 0.365751
vt 0.298147 0.371133
vt 0.257593 0.365751
vt 0.257593 0.371133
vt 0.455026 0.579777
vt 0.518179 0.579777
vt 0.455026 0.589931
vt 0.518179 0.589931
vt 0.455026 0.600085
vt 0.518179 0.600085
vt 0.455026 0.610239
vt 0.518179 0.610239
vt 0.455026 0.620393
vt 0.518179 0.620393
vt 0.460363 0.365751
vt 0.460363 0.371133
vt 0.419809 0.365751
vt 0.419809 0.371133
vt 0.379255 0.365751
vt 0.379255 0.371133
vt 0.338701 0.365752
vt 0.338701 0.371133
vt 0.298147 0.365751
vt 0.298147 0.371133
vt 0.518179 0.579777
vt 0.455026 0.579777
vt 0.518179 0.589931
vt 0.455026 0.589931
vt 0.518179 0.600085
vt 0.455026 0.600085
vt 0.518179 0.610239
vt 0.455026 0.610239
vt 0.518179 0.620393
vt 0.455026 0.620393
vt 0.460363 0.371133
vt 0.460363 0.365751
vt 0.419809 0.371133
vt 0.419809 0.365751
vt 0.379255 0.371133
vt 0.379255 0.365751
vt 0.338701 0.371133
vt 0.338701 0.365752
vt 0.298147 0.371133
vt 0.298147 0.365751
vt 0.753356 0.408906
vt 0.753356 0.362340
vt 1.077276 0.750453
vt 1.077276 0.697079
vt 1.077276 0.688858
vt 1.077276 0.751199
vt 0.246664 0.408906
vt 0.331109 0.408906
vt 0.331109 0.362340
vt 0.246664 0.362340
vt 0.415555 0.408906
vt 0.500000 0.408906
vt 0.500000 0.362340
vt 0.415555 0.362340
vt 0.584445 0.408906
vt 0.668891 0.408906
vt 0.668891 0.362340
vt 0.584445 0.362340
vt 0.587932 0.688858
vt 0.665163 0.688858
vt 0.665163 0.751199
vt 0.587932 0.751199
vt 0.747581 0.688858
vt 0.830000 0.688858
vt 0.830000 0.751199
vt 0.747581 0.751199
vt 0.912419 0.688858
vt 0.994837 0.688858
vt 0.994837 0.751199
vt 0.912419 0.751199
vt 0.587932 0.750453
vt 0.665163 0.750453
vt 0.665163 0.697079
vt 0.587932 0.697079
vt 0.747581 0.750453
vt 0.830000 0.750453
vt 0.830000 0.697079
vt 0.747581 0.697079
vt 0.912419 0.750453
vt 0.994837 0.750453
vt 0.994837 0.697079
vt 0.912419 0.697079
vt 0.510701 0.750453
vt 0.510701 0.697079
vt 0.510701 0.688858
vt 0.510701 0.751199
vt 0.162218 0.408906
vt 0.162218 0.362340
vt 0.429516 0.293475
vt 0.397147 0.293475
vt 0.397147 0.483608
vt 0.429516 0.483608
vt 0.461886 0.293475
vt 0.461886 0.483608
vt 0.494255 0.293475
vt 0.494255 0.483608
vt 0.526625 0.293475
vt 0.526625 0.483608
vt 0.558994 0.293475
vt 0.558994 0.483608
vt 0.591364 0.293475
vt 0.591363 0.483608
vt 0.666232 0.590478
vt 0.666232 0.602610
vt 0.744230 0.602610
vt 0.744230 0.590478
vt 0.666232 0.578347
vt 0.744230 0.578347
vt 0.666232 0.566214
vt 0.744230 0.566215
vt 0.666232 0.554083
vt 0.744230 0.554083
vt 0.666232 0.541951
vt 0.744230 0.541951
vt 0.666232 0.529819
vt 0.744230 0.529819
vt 0.409955 0.965938
vt 0.409955 0.970938
vt 0.454088 0.970938
vt 0.454088 0.965938
vt 0.409955 0.998262
vt 0.409955 0.995137
vt 0.365822 0.995137
vt 0.365822 0.998262
vt 0.498221 0.970938
vt 0.498221 0.965938
vt 0.454088 0.998262
vt 0.454088 0.995137
vt 0.542353 0.970938
vt 0.542353 0.965938
vt 0.498221 0.998262
vt 0.498221 0.995137
vt 0.586486 0.970938
vt 0.586486 0.965938
vt 0.542353 0.998262
vt 0.542353 0.995137
vt 0.586486 0.995137
vt 0.630619 0.995137
vt 0.630619 0.970938
vt 0.365822 0.970938
vt 0.365822 0.965938
vt 0.630619 0.998262
vt 0.586486 0.998262
vt 0.630619 0.965938
vt 0.429516 0.293475
vt 0.429516 0.483608
vt 0.397147 0.483608
vt 0.397147 0.293475
vt 0.461886 0.293475
vt 0.461886 0.483608
vt 0.494255 0.293475
vt 0.494255 0.483608
vt 0.526625 0.293475
vt 0.526625 0.483608
vt 0.558994 0.293475
vt 0.558994 0.483608
vt 0.591364 0.293475
vt 0.591363 0.483608
vt 0.666232 0.590478
vt 0.744230 0.590478
vt 0.744230 0.602610
vt 0.666232 0.602610
vt 0.666232 0.578347
vt 0.744230 0.578347
vt 0.666232 0.566214
vt 0.744230 0.566215
vt 0.666232 0.554083
vt 0.744230 0.554083
vt 0.666232 0.541951
vt 0.744230 0.541951
vt 0.666232 0.529819
vt 0.744230 0.529819
vt 0.409955 0.965938
vt 0.454088 0.965938
vt 0.454088 0.970938
vt 0.409955 0.970938
vt 0.409955 0.998262
vt 0.365822 0.998262
vt 0.365822 0.995137
vt 0.409955 0.995137
vt 0.498221 0.965938
vt 0.498221 0.970938
vt 0.454088 0.998262
vt 0.454088 0.995137
vt 0.542353 0.965938
vt 0.542353 0.970938
vt 0.498221 0.998262
vt 0.498221 0.995137
vt 0.586486 0.965938
vt 0.586486 0.970938
vt 0.542353 0.998262
vt 0.542353 0.995137
vt 0.586486 0.995137
vt 0.630619 0.970938
vt 0.630619 0.995137
vt 0.365822 0.970938
vt 0.365822 0.965938
vt 0.630619 0.998262
vt 0.586486 0.998262
vt 0.630619 0.965938
vt 0.430070 0.529819
vt 0.549234 0.529819
vt 0.549234 0.541951
vt 0.430070 0.541951
vt 0.549234 0.554083
vt 0.430070 0.554083
vt 0.549234 0.566215
vt 0.430070 0.566215
vt 0.549234 0.578347
vt 0.430070 0.578347
vt 0.549234 0.590478
vt 0.430070 0.590478
vt 0.549234 0.602611
vt 0.430070 0.602611
vt 0.430070 0.529819
vt 0.430070 0.541951
vt 0.549234 0.541951
vt 0.549234 0.529819
vt 0.430070 0.554083
vt 0.549234 0.554083
vt 0.430070 0.566215
vt 0.549234 0.566215
vt 0.430070 0.578347
vt 0.549234 0.578347
vt 0.430070 0.590478
vt 0.549234 0.590478
vt 0.430070 0.602611
vt 0.549234 0.602611
vt 0.310906 0.590478
vt 0.310906 0.602611
vt 0.310906 0.578347
vt 0.310906 0.566215
vt 0.310906 0.554083
vt 0.310906 0.541951
vt 0.310906 0.529819
vt 0.429516 0.293475
vt 0.429516 0.483608
vt 0.461886 0.293475
vt 0.461886 0.483608
vt 0.494255 0.293475
vt 0.494255 0.483608
vt 0.526625 0.293475
vt 0.526625 0.483608
vt 0.558994 0.293475
vt 0.558994 0.483608
vt 0.666232 0.590478
vt 0.744230 0.590478
vt 0.666232 0.578347
vt 0.744230 0.578347
vt 0.666232 0.566214
vt 0.744230 0.566215
vt 0.666232 0.554083
vt 0.744230 0.554083
vt 0.666232 0.541951
vt 0.744230 0.541951
vt 0.409955 0.965938
vt 0.454088 0.965938
vt 0.454088 0.970938
vt 0.409955 0.970938
vt 0.409955 0.998262
vt 0.409955 0.995137
vt 0.498221 0.965938
vt 0.498221 0.970938
vt 0.454088 0.998262
vt 0.454088 0.995137
vt 0.542353 0.965938
vt 0.542353 0.970938
vt 0.498221 0.998262
vt 0.498221 0.995137
vt 0.586486 0.965938
vt 0.586486 0.970938
vt 0.542353 0.998262
vt 0.542353 0.995137
vt 0.586486 0.995137
vt 0.586486 0.998262
vt 0.429516 0.293475
vt 0.429516 0.483608
vt 0.461886 0.293475
vt 0.461886 0.483608
vt 0.494255 0.293475
vt 0.494255 0.483608
vt 0.526625 0.293475
vt 0.526625 0.483608
vt 0.558994 0.293475
vt 0.558994 0.483608
vt 0.666232 0.590478
vt 0.744230 0.590478
vt 0.666232 0.578347
vt 0.744230 0.578347
vt 0.666232 0.566214
vt 0.744230 0.566215
vt 0.666232 0.554083
vt 0.744230 0.554083
vt 0.666232 0.541951
vt 0.744230 0.541951
vt 0.409955 0.965938
vt 0.409955 0.970938
vt 0.454088 0.970938
vt 0.454088 0.965938
vt 0.409955 0.998262
vt 0.409955 0.995137
vt 0.498221 0.970938
vt 0.498221 0.965938
vt 0.454088 0.998262
vt 0.454088 0.995137
vt 0.542353 0.970938
vt 0.542353 0.965938
vt 0.498221 0.998262
vt 0.498221 0.995137
vt 0.586486 0.970938
vt 0.586486 0.965938
vt 0.542353 0.998262
vt 0.542353 0.995137
vt 0.586486 0.995137
vt 0.586486 0.998262
vt 0.430070 0.541951
vt 0.549234 0.541951
vt 0.430070 0.554083
vt 0.549234 0.554083
vt 0.430070 0.566215
vt 0.549234 0.566215
vt 0.430070 0.578347
vt 0.549234 0.578347
vt 0.430070 0.590478
vt 0.549234 0.590478
vt 0.549234 0.541951
vt 0.430070 0.541951
vt 0.549234 0.554083
vt 0.430070 0.554083
vt 0.549234 0.566215
vt 0.430070 0.566215
vt 0.549234 0.578347
vt 0.430070 0.578347
vt 0.549234 0.590478
vt 0.430070 0.590478
vt 0.310906 0.590478
vt 0.310906 0.578347
vt 0.310906 0.566215
vt 0.310906 0.554083
vt 0.310906 0.541951
vt 0.501925 0.997904
vt 0.501925 0.930211
vt 0.616774 0.930211
vt 0.616774 0.997904
vt 0.501925 0.710248
vt 0.501925 0.661440
vt 0.404644 0.661440
vt 0.404644 0.710248
vt 0.501898 0.997904
vt 0.616774 0.997904
vt 0.616774 0.930211
vt 0.501898 0.930211
vt 0.501925 0.661440
vt 0.501925 0.710248
vt 0.404644 0.710248
vt 0.404644 0.661440
vt 0.501948 0.661440
vt 0.501948 0.710248
vt 0.378289 0.985777
vt 0.256310 0.985777
vt 0.256310 0.709169
vt 0.378289 0.709169
vt 0.501925 0.661440
vt 0.501925 0.710248
vt 0.501925 0.997904
vt 0.501925 0.930211
vt 0.622246 0.709169
vt 0.744224 0.709169
vt 0.744224 0.985777
vt 0.622246 0.985777
vt 0.134332 0.985777
vt 0.134332 0.709169
vt 0.866231 0.985777
vt 0.866231 0.709169
vt 0.501925 0.997904
vt 0.501925 0.930211
vt 0.012354 0.985777
vt 0.012354 0.709169
vt 0.599206 0.661440
vt 0.599206 0.710248
vt 0.387076 0.997904
vt 0.387076 0.930211
vt 0.387076 0.997904
vt 0.387076 0.930211
vt 0.500267 0.985777
vt 0.500267 0.709169
vt 0.599206 0.710248
vt 0.599206 0.661440
vt 0.988181 0.985777
vt 0.988181 0.709169
vt 0.599206 0.661440
vt 0.599206 0.710248
vt 0.387076 0.997904
vt 0.387076 0.930211
vt 0.429516 0.293475
vt 0.429516 0.483608
vt 0.397147 0.483608
vt 0.397147 0.293475
vt 0.461886 0.293475
vt 0.461886 0.483608
vt 0.494255 0.293475
vt 0.494255 0.483608
vt 0.526625 0.293475
vt 0.526625 0.483608
vt 0.558994 0.293475
vt 0.558994 0.483608
vt 0.591364 0.293475
vt 0.591363 0.483608
vt 0.666232 0.590478
vt 0.744230 0.590478
vt 0.744230 0.602610
vt 0.666232 0.602610
vt 0.666232 0.578347
vt 0.744230 0.578347
vt 0.666232 0.566214
vt 0.744230 0.566215
vt 0.666232 0.554083
vt 0.744230 0.554083
vt 0.666232 0.541951
vt 0.744230 0.541951
vt 0.666232 0.529819
vt 0.744230 0.529819
vt 0.409955 0.965938
vt 0.454088 0.965938
vt 0.454088 0.970938
vt 0.409955 0.970938
vt 0.409955 0.998262
vt 0.365822 0.998262
vt 0.365822 0.995137
vt 0.409955 0.995137
vt 0.498221 0.965938
vt 0.498221 0.970938
vt 0.454088 0.998262
vt 0.454088 0.995137
vt 0.542353 0.965938
vt 0.542353 0.970938
vt 0.498221 0.998262
vt 0.498221 0.995137
vt 0.586486 0.965938
vt 0.586486 0.970938
vt 0.542353 0.998262
vt 0.542353 0.995137
vt 0.586486 0.995137
vt 0.630619 0.970938
vt 0.630619 0.995137
vt 0.365822 0.970938
vt 0.365822 0.965938
vt 0.630619 0.998262
vt 0.586486 0.998262
vt 0.630619 0.965938
vt 0.429516 0.293475
vt 0.397147 0.293475
vt 0.397147 0.483608
vt 0.429516 0.483608
vt 0.461886 0.293475
vt 0.461886 0.483608
vt 0.494255 0.293475
vt 0.494255 0.483608
vt 0.526625 0.293475
vt 0.526625 0.483608
vt 0.558994 0.293475
vt 0.558994 0.483608
vt 0.591364 0.293475
vt 0.591363 0.483608
vt 0.666232 0.590478
vt 0.666232 0.602610
vt 0.744230 0.602610
vt 0.744230 0.590478
vt 0.666232 0.578347
vt 0.744230 0.578347
vt 0.666232 0.566214
vt 0.744230 0.566215
vt 0.666232 0.554083
vt 0.744230 0.554083
vt 0.666232 0.541951
vt 0.744230 0.541951
vt 0.666232 0.529819
vt 0.744230 0.529819
vt 0.409955 0.965938
vt 0.409955 0.970938
vt 0.454088 0.970938
vt 0.454088 0.965938
vt 0.409955 0.998262
vt 0.409955 0.995137
vt 0.365822 0.995137
vt 0.365822 0.998262
vt 0.498221 0.970938
vt 0.498221 0.965938
vt 0.454088 0.998262
vt 0.454088 0.995137
vt 0.542353 0.970938
vt 0.542353 0.965938
vt 0.498221 0.998262
vt 0.498221 0.995137
vt 0.586486 0.970938
vt 0.586486 0.965938
vt 0.542353 0.998262
vt 0.542353 0.995137
vt 0.586486 0.995137
vt 0.630619 0.995137
vt 0.630619 0.970938
vt 0.365822 0.970938
vt 0.365822 0.965938
vt 0.630619 0.998262
vt 0.586486 0.998262
vt 0.630619 0.965938
vt 0.430070 0.529819
vt 0.430070 0.541951
vt 0.549234 0.541951
vt 0.549234 0.529819
vt 0.430070 0.554083
vt 0.549234 0.554083
vt 0.430070 0.566215
vt 0.549234 0.566215
vt 0.430070 0.578347
vt 0.549234 0.578347
vt 0.430070 0.590478
vt 0.549234 0.590478
vt 0.430070 0.602611
vt 0.549234 0.602611
vt 0.430070 0.529819
vt 0.549234 0.529819
vt 0.549234 0.541951
vt 0.430070 0.541951
vt 0.549234 0.554083
vt 0.430070 0.554083
vt 0.549234 0.566215
vt 0.430070 0.566215
vt 0.549234 0.578347
vt 0.430070 0.578347
vt 0.549234 0.590478
vt 0.430070 0.590478
vt 0.549234 0.602611
vt 0.430070 0.602611
vt 0.310906 0.590478
vt 0.310906 0.602611
vt 0.310906 0.578347
vt 0.310906 0.566215
vt 0.310906 0.554083
vt 0.310906 0.541951
vt 0.310906 0.529819
vt 0.429516 0.293475
vt 0.429516 0.483608
vt 0.461886 0.293475
vt 0.461886 0.483608
vt 0.494255 0.293475
vt 0.494255 0.483608
vt 0.526625 0.293475
vt 0.526625 0.483608
vt 0.558994 0.293475
vt 0.558994 0.483608
vt 0.666232 0.590478
vt 0.744230 0.590478
vt 0.666232 0.578347
vt 0.744230 0.578347
vt 0.666232 0.566214
vt 0.744230 0.566215
vt 0.666232 0.554083
vt 0.744230 0.554083
vt 0.666232 0.541951
vt 0.744230 0.541951
vt 0.409955 0.965938
vt 0.409955 0.970938
vt 0.454088 0.970938
vt 0.454088 0.965938
vt 0.409955 0.998262
vt 0.409955 0.995137
vt 0.498221 0.970938
vt 0.498221 0.965938
vt 0.454088 0.998262
vt 0.454088 0.995137
vt 0.542353 0.970938
vt 0.542353 0.965938
vt 0.498221 0.998262
vt 0.498221 0.995137
vt 0.586486 0.970938
vt 0.586486 0.965938
vt 0.542353 0.998262
vt 0.542353 0.995137
vt 0.586486 0.995137
vt 0.586486 0.998262
vt 0.429516 0.293475
vt 0.429516 0.483608
vt 0.461886 0.293475
vt 0.461886 0.483608
vt 0.494255 0.293475
vt 0.494255 0.483608
vt 0.526625 0.293475
vt 0.526625 0.483608
vt 0.558994 0.293475
vt 0.558994 0.483608
vt 0.666232 0.590478
vt 0.744230 0.590478
vt 0.666232 0.578347
vt 0.744230 0.578347
vt 0.666232 0.566214
vt 0.744230 0.566215
vt 0.666232 0.554083
vt 0.744230 0.554083
vt 0.666232 0.541951
vt 0.744230 0.541951
vt 0.409955 0.965938
vt 0.454088 0.965938
vt 0.454088 0.970938
vt 0.409955 0.970938
vt 0.409955 0.998262
vt 0.409955 0.995137
vt 0.498221 0.965938
vt 0.498221 0.970938
vt 0.454088 0.998262
vt 0.454088 0.995137
vt 0.542353 0.965938
vt 0.542353 0.970938
vt 0.498221 0.998262
vt 0.498221 0.995137
vt 0.586486 0.965938
vt 0.586486 0.970938
vt 0.542353 0.998262
vt 0.542353 0.995137
vt 0.586486 0.995137
vt 0.586486 0.998262
vt 0.549234 0.541951
vt 0.430070 0.541951
vt 0.549234 0.554083
vt 0.430070 0.554083
vt 0.549234 0.566215
vt 0.430070 0.566215
vt 0.549234 0.578347
vt 0.430070 0.578347
vt 0.549234 0.590478
vt 0.430070 0.590478
vt 0.430070 0.541951
vt 0.549234 0.541951
vt 0.430070 0.554083
vt 0.549234 0.554083
vt 0.430070 0.566215
vt 0.549234 0.566215
vt 0.430070 0.578347
vt 0.549234 0.578347
vt 0.430070 0.590478
vt 0.549234 0.590478
vt 0.310906 0.590478
vt 0.310906 0.578347
vt 0.310906 0.566215
vt 0.310906 0.554083
vt 0.310906 0.541951
vt 0.501925 0.997904
vt 0.616774 0.997904
vt 0.616774 0.930211
vt 0.501925 0.930211
vt 0.501925 0.710248
vt 0.404644 0.710248
vt 0.404644 0.661440
vt 0.501925 0.661440
vt 0.501898 0.997904
vt 0.501898 0.930211
vt 0.616774 0.930211
vt 0.616774 0.997904
vt 0.501925 0.661440
vt 0.404644 0.661440
vt 0.404644 0.710248
vt 0.501925 0.710248
vt 0.501948 0.661440
vt 0.501948 0.710248
vt 0.378289 0.985777
vt 0.378289 0.709169
vt 0.256310 0.709169
vt 0.256310 0.985777
vt 0.501925 0.661440
vt 0.501925 0.710248
vt 0.501925 0.997904
vt 0.501925 0.930211
vt 0.622246 0.709169
vt 0.622246 0.985777
vt 0.744224 0.985777
vt 0.744224 0.709169
vt 0.134332 0.985777
vt 0.134332 0.709169
vt 0.866231 0.985777
vt 0.866231 0.709169
vt 0.501925 0.997904
vt 0.501925 0.930211
vt 0.012354 0.985777
vt 0.012354 0.709169
vt 0.599206 0.661440
vt 0.599206 0.710248
vt 0.387076 0.997904
vt 0.387076 0.930211
vt 0.387076 0.997904
vt 0.387076 0.930211
vt 0.500267 0.985777
vt 0.500267 0.709169
vt 0.599206 0.710248
vt 0.599206 0.661440
vt 0.489940 0.353334
vt 0.470613 0.353334
vt 0.470613 0.331017
vt 0.489940 0.331017
vt 0.393315 0.353334
vt 0.373990 0.353334
vt 0.373990 0.331017
vt 0.393315 0.331017
vt 0.431959 0.353334
vt 0.412636 0.353334
vt 0.412636 0.331017
vt 0.431959 0.331017
vt 0.547909 0.353334
vt 0.528589 0.353334
vt 0.528589 0.331017
vt 0.547909 0.331017
vt 0.509260 0.353334
vt 0.509260 0.331017
vt 0.354665 0.331017
vt 0.451288 0.353334
vt 0.451288 0.331017
vt 0.586559 0.353334
vt 0.567234 0.353334
vt 0.567234 0.331017
vt 0.431959 0.308700
vt 0.451288 0.308699
vt 0.354665 0.308700
vt 0.373990 0.308700
vt 0.509260 0.308699
vt 0.528589 0.308699
vt 0.470613 0.308699
vt 0.586559 0.331017
vt 0.567234 0.308699
vt 0.393315 0.308700
vt 0.412636 0.308700
vt 0.489940 0.308699
vt 0.547909 0.308699
vt 0.528589 0.286382
vt 0.547909 0.286382
vt 0.431959 0.286382
vt 0.451288 0.286382
vt 0.354665 0.286382
vt 0.373990 0.286382
vt 0.509260 0.286382
vt 0.470613 0.286382
vt 0.586559 0.308699
vt 0.567234 0.286382
vt 0.393315 0.286382
vt 0.412636 0.286382
vt 0.489940 0.286382
vt 0.489940 0.264065
vt 0.509260 0.264065
vt 0.528589 0.264065
vt 0.547909 0.264065
vt 0.431959 0.264065
vt 0.451288 0.264065
vt 0.354665 0.264065
vt 0.373990 0.264065
vt 0.470613 0.264065
vt 0.586559 0.286382
vt 0.567234 0.264065
vt 0.393315 0.264065
vt 0.412636 0.264065
vt 0.489940 0.241748
vt 0.509260 0.241748
vt 0.528589 0.241748
vt 0.547909 0.241748
vt 0.431959 0.241748
vt 0.451288 0.241748
vt 0.354665 0.241748
vt 0.373990 0.241748
vt 0.470613 0.241748
vt 0.586559 0.264065
vt 0.567234 0.241748
vt 0.393315 0.241748
vt 0.412636 0.241748
vt 0.373990 0.220566
vt 0.393315 0.220566
vt 0.489940 0.220566
vt 0.509260 0.220566
vt 0.528589 0.220566
vt 0.547909 0.220566
vt 0.431959 0.220566
vt 0.451288 0.220566
vt 0.354665 0.220566
vt 0.470613 0.220566
vt 0.586559 0.241748
vt 0.567234 0.220566
vt 0.586559 0.220566
vt 0.412636 0.220566
vt 0.625000 0.500000
vt 0.625000 0.750000
vt 0.875000 0.750000
vt 0.875000 0.500000
vt 0.625000 0.500000
vt 0.875000 0.500000
vt 0.875000 0.750000
vt 0.625000 0.750000
vt 0.625000 0.500000
vt 0.875000 0.500000
vt 0.875000 0.750000
vt 0.625000 0.750000
vt 0.625000 0.500000
vt 0.625000 0.750000
vt 0.875000 0.750000
vt 0.875000 0.500000
vt 0.558140 0.281270
vt 0.558140 0.222317
vt 0.655196 0.222317
vt 0.655196 0.281270
vt 0.558140 0.311098
vt 0.655196 0.311098
vt 0.558140 0.281270
vt 0.558140 0.222317
vt 0.558140 0.311098
vt 0.364028 0.311098
vt 0.364028 0.281270
vt 0.461084 0.281270
vt 0.461084 0.311098
vt 0.364028 0.222317
vt 0.461084 0.222317
vt 0.364005 0.311098
vt 0.461084 0.311098
vt 0.461084 0.281270
vt 0.364005 0.281270
vt 0.461084 0.222317
vt 0.364005 0.222317
vt 0.266972 0.281270
vt 0.266972 0.222317
vt 0.266972 0.311098
vt 0.266972 0.281270
vt 0.266972 0.222317
vt 0.266972 0.311098
vt 0.558140 0.281270
vt 0.655196 0.281270
vt 0.655196 0.222317
vt 0.558140 0.222317
vt 0.558140 0.311098
vt 0.655196 0.311098
vt 0.558140 0.281270
vt 0.558140 0.222317
vt 0.558140 0.311098
vt 0.364028 0.311098
vt 0.461084 0.311098
vt 0.461084 0.281270
vt 0.364028 0.281270
vt 0.461084 0.222317
vt 0.364028 0.222317
vt 0.364005 0.311098
vt 0.364005 0.281270
vt 0.461084 0.281270
vt 0.461084 0.311098
vt 0.364005 0.222317
vt 0.461084 0.222317
vt 0.266972 0.281270
vt 0.266972 0.222317
vt 0.266972 0.311098
vt 0.375000 0.000000
vt 0.563603 0.000000
vt 0.563603 0.250000
vt 0.375000 0.250000
vt 0.376561 0.454135
vt 0.393287 0.470861
vt 0.393287 0.518834
vt 0.393287 0.555025
vt 0.302061 0.539136
vt 0.302061 0.454135
vt 0.393287 0.566806
vt 0.393287 0.481806
vt 0.484514 0.465916
vt 0.484514 0.502108
vt 0.484514 0.550080
vt 0.467788 0.566806
vt 0.397393 0.993373
vt 0.331347 0.993373
vt 0.331347 0.935918
vt 0.397393 0.935918
vt 0.617622 0.500000
vt 0.875000 0.500000
vt 0.875000 0.750000
vt 0.617622 0.750000
vt 0.528106 0.935918
vt 0.528106 0.993372
vt 0.484939 0.993373
vt 0.484939 0.935918
vt 0.664063 0.993372
vt 0.664063 0.935918
vt 0.375000 0.000000
vt 0.375000 0.250000
vt 0.563603 0.250000
vt 0.563603 0.000000
vt 0.376561 0.454135
vt 0.302061 0.454135
vt 0.302061 0.539136
vt 0.393287 0.555025
vt 0.393287 0.518834
vt 0.393287 0.470861
vt 0.393287 0.566806
vt 0.467788 0.566806
vt 0.484514 0.550080
vt 0.484514 0.502108
vt 0.484514 0.465916
vt 0.393287 0.481806
vt 0.397393 0.993373
vt 0.397393 0.935918
vt 0.331347 0.935918
vt 0.331347 0.993373
vt 0.617622 0.500000
vt 0.617622 0.750000
vt 0.875000 0.750000
vt 0.875000 0.500000
vt 0.528106 0.935918
vt 0.484939 0.935918
vt 0.484939 0.993373
vt 0.528106 0.993372
vt 0.664063 0.993372
vt 0.664063 0.935918
vn -0.0000 -1.0000 0.0000
vn -0.5000 -0.8660 0.0000
vn -0.8660 -0.5000 0.0000
vn -1.0000 0.0000 0.0000
vn -0.8660 0.5000 0.0000
vn -0.5000 0.8660 0.0000
vn -0.0000 1.0000 0.0000
vn -0.0000 -0.5727 0.8198
vn -0.2863 -0.4959 0.8198
vn -0.4959 -0.2863 0.8198
vn -0.5727 0.0000 0.8198
vn -0.4959 0.2863 0.8198
vn -0.2863 0.4959 0.8198
vn 0.0000 0.5727 0.8198
vn 0.0000 -0.5727 -0.8198
vn -0.2863 -0.4959 -0.8198
vn -0.4959 -0.2863 -0.8198
vn -0.5727 0.0000 -0.8198
vn -0.4959 0.2863 -0.8198
vn -0.2863 0.4959 -0.8198
vn 0.0000 0.5727 -0.8198
vn 0.5000 -0.8660 0.0000
vn 0.8660 -0.5000 0.0000
vn 1.0000 0.0000 0.0000
vn 0.8660 0.5000 0.0000
vn 0.5000 0.8660 0.0000
vn 0.2863 -0.4959 0.8198
vn 0.4960 -0.2863 0.8198
vn 0.5727 0.0000 0.8198
vn 0.4959 0.2863 0.8198
vn 0.2863 0.4959 0.8198
vn 0.2863 -0.4959 -0.8198
vn 0.4959 -0.2863 -0.8198
vn 0.5727 0.0000 -0.8198
vn 0.4959 0.2863 -0.8198
vn 0.2863 0.4959 -0.8198
vn -0.0000 -0.7868 -0.6172
vn 0.0000 -0.8499 -0.5270
vn -0.0000 0.8557 -0.5175
vn 0.0000 -0.8660 -0.5000
vn 0.0000 -0.5000 -0.8660
vn 0.0000 0.0000 -1.0000
vn 0.0000 0.5000 -0.8660
vn 0.0000 0.8660 -0.5000
vn 0.8198 -0.5727 -0.0000
vn 0.8198 -0.4960 -0.2863
vn 0.8198 -0.2863 -0.4959
vn 0.8198 0.0000 -0.5727
vn 0.8198 0.2863 -0.4959
vn 0.8198 0.4960 -0.2863
vn 0.8198 0.5727 0.0000
vn -0.8198 -0.5727 0.0000
vn -0.8198 -0.4959 -0.2863
vn -0.8198 -0.2863 -0.4959
vn -0.8198 0.0000 -0.5727
vn -0.8198 0.2863 -0.4959
vn -0.8198 0.4959 -0.2863
vn -0.8198 0.5727 0.0000
vn 0.0000 -0.8660 0.5000
vn 0.0000 -0.5000 0.8660
vn 0.0000 0.0000 1.0000
vn 0.0000 0.5000 0.8660
vn 0.0000 0.8660 0.5000
vn 0.8198 -0.4960 0.2863
vn 0.8198 -0.2863 0.4959
vn 0.8198 0.0000 0.5727
vn 0.8198 0.2863 0.4959
vn 0.8198 0.4959 0.2863
vn -0.8198 -0.4959 0.2863
vn -0.8198 -0.2863 0.4959
vn -0.8198 -0.0000 0.5727
vn -0.8198 0.2863 0.4959
vn -0.8198 0.4959 0.2863
vn -0.6172 -0.7868 0.0000
vn -0.5270 -0.8499 0.0000
vn -0.5175 0.8557 0.0000
vn -0.0106 0.9999 -0.0014
vn -0.5076 0.8610 -0.0334
vn -0.8672 0.4947 -0.0561
vn -0.9979 0.0000 -0.0642
vn -0.8672 -0.4947 -0.0561
vn -0.5076 -0.8610 -0.0334
vn -0.0106 -0.9999 -0.0014
vn -0.2899 -0.5020 -0.8148
vn -0.5020 -0.2898 -0.8148
vn -0.2898 -0.5020 0.8148
vn -0.0000 -0.5797 0.8148
vn -0.5797 0.0000 -0.8148
vn -0.5020 -0.2899 0.8148
vn -0.5020 0.2898 -0.8148
vn -0.5797 -0.0000 0.8148
vn -0.2899 0.5020 -0.8148
vn -0.5020 0.2899 0.8148
vn -0.0000 -0.5797 -0.8148
vn -0.0000 0.5797 0.8148
vn -0.2899 0.5020 0.8148
vn -0.0000 0.5797 -0.8148
vn -0.2899 -0.5020 0.8148
vn -0.5020 -0.2899 -0.8148
vn -0.5020 0.2899 -0.8148
vn 0.4919 0.8701 0.0307
vn 0.8662 0.4997 -0.0001
vn 0.8628 0.5029 0.0521
vn 1.0000 -0.0000 -0.0003
vn 0.9477 0.0021 0.3193
vn 0.8662 -0.4997 -0.0001
vn 0.8628 -0.5029 0.0521
vn 0.4919 -0.8701 0.0307
vn 0.2899 -0.5020 -0.8148
vn 0.5021 -0.2899 -0.8148
vn 0.2898 -0.5020 0.8148
vn 0.2899 -0.5020 0.8148
vn 0.5797 0.0000 -0.8148
vn 0.5020 -0.2899 0.8148
vn 0.5020 0.2899 -0.8148
vn 0.5797 -0.0000 0.8148
vn 0.2899 0.5020 -0.8148
vn 0.5020 0.2899 0.8148
vn 0.2898 0.5020 0.8148
vn 0.2899 0.5020 0.8148
vn 0.5020 -0.2899 -0.8148
vn -0.0013 0.8668 -0.4987
vn -0.0331 0.8626 -0.5048
vn -0.0006 1.0000 -0.0097
vn -0.0003 1.0000 -0.0002
vn -0.0008 0.5021 -0.8648
vn -0.0578 0.4965 -0.8661
vn -0.0014 -0.0041 -1.0000
vn -0.0658 -0.0040 -0.9978
vn -0.0024 -0.5005 -0.8657
vn -0.0561 -0.4963 -0.8663
vn -0.0012 -0.8648 -0.5021
vn -0.0337 -0.8594 -0.5102
vn 0.0000 -1.0000 0.0007
vn -0.0012 -1.0000 -0.0087
vn -0.8148 -0.5021 -0.2899
vn -0.8148 -0.2898 -0.5020
vn 0.8148 -0.5021 -0.2899
vn 0.8148 -0.5797 -0.0000
vn -0.8148 0.0000 -0.5797
vn 0.8148 -0.2899 -0.5020
vn -0.8148 0.2899 -0.5020
vn 0.8148 0.0000 -0.5797
vn -0.8148 0.5020 -0.2899
vn 0.8148 0.2899 -0.5020
vn -0.8148 -0.5797 -0.0000
vn 0.8148 0.5797 0.0000
vn 0.8148 0.5020 -0.2899
vn -0.8148 0.5797 -0.0000
vn 0.8148 -0.5020 -0.2898
vn 0.8148 -0.2898 -0.5020
vn -0.8148 -0.5020 -0.2898
vn -0.8148 -0.5020 -0.2899
vn -0.8148 -0.2899 -0.5020
vn 0.8148 0.2899 -0.5021
vn 0.0003 0.8658 0.5003
vn 0.0376 0.8710 0.4898
vn 0.0002 0.5000 0.8660
vn 0.0425 0.5796 0.8138
vn 0.0001 -0.0003 1.0000
vn 0.0441 -0.5803 0.8132
vn 0.0002 -0.8657 0.5005
vn 0.0384 -0.8709 0.4899
vn -0.8148 -0.5021 0.2899
vn -0.8148 -0.2899 0.5020
vn 0.8148 -0.5020 0.2899
vn -0.8148 0.0000 0.5797
vn 0.8148 -0.2899 0.5020
vn -0.8148 0.2898 0.5020
vn 0.8148 -0.0000 0.5797
vn -0.8148 0.5020 0.2899
vn 0.8148 0.2899 0.5020
vn 0.8148 0.5020 0.2899
vn 0.8148 0.5021 0.2899
vn 0.8148 -0.5020 0.2898
vn 0.8148 -0.2898 0.5020
vn -0.8148 -0.5020 0.2898
vn -0.8148 -0.5020 0.2899
vn -0.8148 -0.2898 0.5020
vn -0.8148 0.2899 0.5020
vn -0.9662 -0.0000 -0.2579
vn -0.8418 -0.4909 -0.2246
vn 0.8338 0.5090 0.2136
vn 0.4676 0.8753 0.1228
vn -0.0208 0.9998 -0.0056
vn -0.4984 0.8567 -0.1329
vn -0.0208 -0.9998 -0.0056
vn 0.4676 -0.8753 0.1228
vn -0.4984 -0.8567 -0.1329
vn -0.8418 0.4909 -0.2246
vn 0.8338 -0.5090 0.2136
vn -0.4470 0.8567 -0.2573
vn -0.7550 0.4909 -0.4348
vn 0.7500 0.5092 0.4222
vn -0.4470 -0.8567 -0.2573
vn -0.0186 -0.9998 -0.0108
vn -0.8665 -0.0000 -0.4992
vn 0.7500 -0.5092 0.4222
vn 0.4199 0.8753 0.2397
vn -0.0186 0.9998 -0.0108
vn -0.7550 -0.4909 -0.4348
vn 0.4199 -0.8753 0.2397
vn -0.0152 -0.9998 -0.0153
vn 0.3436 -0.8753 0.3402
vn -0.3652 0.8567 -0.3643
vn -0.6167 0.4909 -0.6154
vn 0.6150 0.5095 0.6018
vn -0.3652 -0.8567 -0.3643
vn -0.7078 0.0000 -0.7064
vn 0.6150 -0.5095 0.6018
vn 0.3436 0.8753 0.3402
vn -0.0152 0.9998 -0.0153
vn -0.6167 -0.4909 -0.6154
vn -0.4364 -0.4909 -0.7540
vn -0.2585 -0.8567 -0.4464
vn -0.0107 -0.9998 -0.0187
vn 0.2438 -0.8754 0.4175
vn -0.2585 0.8567 -0.4464
vn -0.4364 0.4909 -0.7540
vn 0.4382 0.5100 0.7402
vn -0.5009 0.0000 -0.8655
vn 0.4381 -0.5100 0.7402
vn 0.2438 0.8754 0.4175
vn -0.0107 0.9998 -0.0187
vn -0.2243 -0.4911 -0.8417
vn -0.1332 -0.8563 -0.4991
vn -0.0056 -0.9998 -0.0211
vn 0.1330 -0.8743 0.4669
vn -0.1327 0.8569 -0.4981
vn -0.2268 0.4920 -0.8405
vn 0.4198 0.5034 0.7552
vn -0.2597 -0.0020 -0.9657
vn 0.2672 -0.5802 0.7694
vn 0.1321 0.8744 0.4669
vn -0.0048 0.9998 -0.0217
vn 0.8277 0.0046 0.5611
vn 0.8006 0.1785 0.5721
vn 0.8291 -0.1695 0.5328
vn -0.0000 0.6491 -0.7607
vn -0.7607 0.6491 -0.0000
vn 0.0000 0.1386 -0.9903
vn 0.0000 0.9888 0.1492
vn 0.0000 -0.7071 -0.7071
vn 0.0000 -0.5282 -0.8491
vn -0.9903 0.1386 0.0000
vn 0.1345 0.9909 0.0000
vn -0.7071 -0.7071 0.0000
vn -0.8491 -0.5282 0.0000
usemtl MI_Trim_02
s 1
f 36/1/1 37/2/2 16/3/2 15/4/1
f 37/2/2 38/5/3 17/6/3 16/3/2
f 38/5/3 39/7/4 18/8/4 17/6/3
f 39/7/4 40/9/5 19/10/5 18/8/4
f 40/9/5 41/11/6 20/12/6 19/10/5
f 41/11/6 42/13/7 21/14/7 20/12/6
f 15/15/8 16/16/9 23/17/9 22/18/8
f 16/16/9 17/19/10 24/20/10 23/17/9
f 17/19/10 18/21/11 25/22/11 24/20/10
f 18/21/11 19/23/12 26/24/12 25/22/11
f 19/23/12 20/25/13 27/26/13 26/24/12
f 20/25/13 21/27/14 28/28/14 27/26/13
f 85/29/1 64/30/1 65/31/2 86/32/2
f 86/32/2 65/31/2 66/33/3 87/34/3
f 87/34/3 66/33/3 67/35/4 88/36/4
f 88/36/4 67/35/4 68/37/5 89/38/5
f 89/38/5 68/37/5 69/39/6 90/40/6
f 90/40/6 69/39/6 70/41/7 91/42/7
f 64/43/15 71/44/15 72/45/16 65/46/16
f 65/46/16 72/45/16 73/47/17 66/48/17
f 66/48/17 73/47/17 74/49/18 67/50/18
f 67/50/18 74/49/18 75/51/19 68/52/19
f 68/52/19 75/51/19 76/53/20 69/54/20
f 69/54/20 76/53/20 77/55/21 70/56/21
f 36/1/1 15/4/1 157/57/22 172/58/22
f 172/58/22 157/57/22 158/59/23 173/60/23
f 173/60/23 158/59/23 159/61/24 174/62/24
f 174/62/24 159/61/24 160/63/25 175/64/25
f 175/64/25 160/63/25 161/65/26 176/66/26
f 176/66/26 161/65/26 21/14/7 42/13/7
f 15/15/8 22/18/8 162/67/27 157/68/27
f 157/68/27 162/67/27 163/69/28 158/70/28
f 158/70/28 163/69/28 164/71/29 159/72/29
f 159/72/29 164/71/29 165/73/30 160/74/30
f 160/74/30 165/73/30 166/75/31 161/76/31
f 161/76/31 166/75/31 28/28/14 21/27/14
f 85/29/1 207/77/22 192/78/22 64/30/1
f 207/77/22 208/79/23 193/80/23 192/78/22
f 208/79/23 209/81/24 194/82/24 193/80/23
f 209/81/24 210/83/25 195/84/25 194/82/24
f 210/83/25 211/85/26 196/86/26 195/84/25
f 211/85/26 91/42/7 70/41/7 196/86/26
f 64/43/15 192/87/32 197/88/32 71/44/15
f 192/87/32 193/89/33 198/90/33 197/88/32
f 193/89/33 194/91/34 199/92/34 198/90/33
f 194/91/34 195/93/35 200/94/35 199/92/34
f 195/93/35 196/95/36 201/96/36 200/94/35
f 196/95/36 70/56/21 77/55/21 201/96/36
f 343/97/37 338/98/37 257/99/37 601/100/37
f 344/101/38 339/102/38 261/103/38 603/104/38
f 339/105/39 340/106/39 263/107/39 261/108/39
f 314/109/37 316/110/37 299/111/37 293/112/37
f 328/113/37 327/114/37 300/115/37 303/116/37
f 335/117/37 334/118/37 301/119/37 302/120/37
f 315/121/39 317/122/39 264/123/39 269/124/39
f 324/125/39 322/126/39 295/127/39 258/128/39
f 331/129/39 337/130/39 306/131/39 305/132/39
f 311/133/38 315/134/38 269/135/38 291/136/38
f 325/137/38 324/138/38 258/139/38 298/140/38
f 336/141/38 331/142/38 305/143/38 304/144/38
f 259/145/38 260/146/38 315/134/38 311/133/38
f 260/147/39 262/148/39 317/122/39 315/121/39
f 292/149/37 256/150/37 316/110/37 314/109/37
f 291/136/38 269/135/38 324/138/38 325/137/38
f 269/124/39 264/123/39 322/126/39 324/125/39
f 293/112/37 299/111/37 327/114/37 328/113/37
f 298/140/38 258/139/38 331/142/38 336/141/38
f 258/128/39 295/127/39 337/130/39 331/129/39
f 303/116/37 300/115/37 334/118/37 335/117/37
f 305/132/39 306/131/39 340/106/39 339/105/39
f 304/144/38 305/143/38 339/102/38 344/101/38
f 302/120/37 301/119/37 338/98/37 343/97/37
f 378/151/1 357/152/1 358/153/40 379/154/40
f 379/154/40 358/153/40 359/155/41 380/156/41
f 380/156/41 359/155/41 360/157/42 381/158/42
f 381/158/42 360/157/42 361/159/43 382/160/43
f 382/160/43 361/159/43 362/161/44 383/162/44
f 383/162/44 362/161/44 363/163/7 384/164/7
f 357/165/45 364/166/45 365/167/46 358/168/46
f 358/168/46 365/167/46 366/169/47 359/170/47
f 359/170/47 366/169/47 367/171/48 360/172/48
f 360/172/48 367/171/48 368/173/49 361/174/49
f 361/174/49 368/173/49 369/175/50 362/176/50
f 362/176/50 369/175/50 370/177/51 363/178/51
f 427/179/1 428/180/40 407/181/40 406/182/1
f 428/180/40 429/183/41 408/184/41 407/181/40
f 429/183/41 430/185/42 409/186/42 408/184/41
f 430/185/42 431/187/43 410/188/43 409/186/42
f 431/187/43 432/189/44 411/190/44 410/188/43
f 432/189/44 433/191/7 412/192/7 411/190/44
f 406/193/52 407/194/53 414/195/53 413/196/52
f 407/194/53 408/197/54 415/198/54 414/195/53
f 408/197/54 409/199/55 416/200/55 415/198/54
f 409/199/55 410/201/56 417/202/56 416/200/55
f 410/201/56 411/203/57 418/204/57 417/202/56
f 411/203/57 412/205/58 419/206/58 418/204/57
f 378/151/1 513/207/59 498/208/59 357/152/1
f 513/207/59 514/209/60 499/210/60 498/208/59
f 514/209/60 515/211/61 500/212/61 499/210/60
f 515/211/61 516/213/62 501/214/62 500/212/61
f 516/213/62 517/215/63 502/216/63 501/214/62
f 517/215/63 384/164/7 363/163/7 502/216/63
f 357/165/45 498/217/64 503/218/64 364/166/45
f 498/217/64 499/219/65 504/220/65 503/218/64
f 499/219/65 500/221/66 505/222/66 504/220/65
f 500/221/66 501/223/67 506/224/67 505/222/66
f 501/223/67 502/225/68 507/226/68 506/224/67
f 502/225/68 363/178/51 370/177/51 507/226/68
f 427/179/1 406/182/1 533/227/59 548/228/59
f 548/228/59 533/227/59 534/229/60 549/230/60
f 549/230/60 534/229/60 535/231/61 550/232/61
f 550/232/61 535/231/61 536/233/62 551/234/62
f 551/234/62 536/233/62 537/235/63 552/236/63
f 552/236/63 537/235/63 412/192/7 433/191/7
f 406/193/52 413/196/52 538/237/69 533/238/69
f 533/238/69 538/237/69 539/239/70 534/240/70
f 534/240/70 539/239/70 540/241/71 535/242/71
f 535/242/71 540/241/71 541/243/72 536/244/72
f 536/244/72 541/243/72 542/245/73 537/246/73
f 537/246/73 542/245/73 419/206/58 412/205/58
f 687/247/74 601/100/74 257/99/74 682/248/74
f 688/249/75 603/104/75 261/103/75 683/250/75
f 683/251/76 261/108/76 263/107/76 684/252/76
f 658/253/74 637/254/74 643/255/74 660/256/74
f 672/257/74 647/258/74 644/259/74 671/260/74
f 679/261/74 646/262/74 645/263/74 678/264/74
f 659/265/76 612/266/76 606/267/76 661/268/76
f 668/269/76 600/270/76 639/271/76 666/272/76
f 675/273/76 649/274/76 650/275/76 681/276/76
f 655/277/75 635/278/75 612/279/75 659/280/75
f 669/281/75 642/282/75 600/283/75 668/284/75
f 680/285/75 648/286/75 649/287/75 675/288/75
f 602/289/75 655/277/75 659/280/75 604/290/75
f 604/291/76 659/265/76 661/268/76 605/292/76
f 636/293/74 658/253/74 660/256/74 599/294/74
f 635/278/75 669/281/75 668/284/75 612/279/75
f 612/266/76 668/269/76 666/272/76 606/267/76
f 637/254/74 672/257/74 671/260/74 643/255/74
f 642/282/75 680/285/75 675/288/75 600/283/75
f 600/270/76 675/273/76 681/276/76 639/271/76
f 647/258/74 679/261/74 678/264/74 644/259/74
f 649/274/76 683/251/76 684/252/76 650/275/76
f 648/286/75 688/249/75 683/250/75 649/287/75
f 646/262/74 687/247/74 682/248/74 645/263/74
usemtl MI_Trim_01
f 27/295/6 28/296/7 14/297/77 13/298/78
f 26/299/5 27/295/6 13/298/78 12/300/79
f 25/301/4 26/299/5 12/300/79 11/302/80
f 24/303/3 25/301/4 11/302/80 10/304/81
f 23/305/2 24/303/3 10/304/81 9/306/82
f 22/307/1 23/305/2 9/306/82 8/308/83
f 132/309/6 133/310/7 35/311/7 34/312/6
f 131/313/5 132/309/6 34/312/6 33/314/5
f 130/315/4 131/313/5 33/314/5 32/316/4
f 129/317/3 130/315/4 32/316/4 31/318/3
f 128/319/2 129/317/3 31/318/3 30/320/2
f 127/321/1 128/319/2 30/320/2 29/322/1
f 37/323/84 45/324/84 47/325/85 38/326/85
f 30/327/86 46/328/86 44/329/87 29/330/87
f 38/326/85 47/325/85 49/331/88 39/332/88
f 31/333/89 48/334/89 46/328/86 30/327/86
f 39/332/88 49/331/88 51/335/90 40/336/90
f 32/337/91 50/338/91 48/334/89 31/333/89
f 40/336/90 51/335/90 53/339/92 41/340/92
f 33/341/93 52/342/93 50/338/91 32/337/91
f 54/343/6 56/344/7 55/345/7 53/339/6
f 52/342/5 54/343/6 53/339/6 51/335/5
f 50/338/4 52/342/5 51/335/5 49/331/4
f 48/334/3 50/338/4 49/331/4 47/325/3
f 46/328/2 48/334/3 47/325/3 45/324/2
f 44/329/1 46/328/2 45/324/2 43/346/1
f 36/347/94 43/346/94 45/324/84 37/323/84
f 35/348/95 56/344/95 54/343/96 34/349/96
f 34/349/96 54/343/96 52/342/93 33/341/93
f 41/340/92 53/339/92 55/345/97 42/350/97
f 76/351/6 62/352/6 63/353/7 77/354/7
f 75/355/5 61/356/5 62/352/6 76/351/6
f 74/357/4 60/358/4 61/356/5 75/355/5
f 73/359/3 59/360/3 60/358/4 74/357/4
f 72/361/2 58/362/2 59/360/3 73/359/3
f 71/363/1 57/364/1 58/362/2 72/361/2
f 146/365/6 83/366/6 84/367/7 147/368/7
f 145/369/5 82/370/5 83/366/6 146/365/6
f 144/371/4 81/372/4 82/370/5 145/369/5
f 143/373/3 80/374/3 81/372/4 144/371/4
f 142/375/2 79/376/2 80/374/3 143/373/3
f 141/377/1 78/378/1 79/376/2 142/375/2
f 86/379/98 87/380/89 96/381/89 94/382/98
f 79/383/84 78/384/94 93/385/94 95/386/84
f 87/380/89 88/387/91 98/388/91 96/381/89
f 80/389/99 79/383/84 95/386/84 97/390/99
f 88/387/91 89/391/93 100/392/93 98/388/91
f 81/393/88 80/389/99 97/390/99 99/394/88
f 89/391/93 90/395/96 102/396/96 100/392/93
f 82/397/100 81/393/88 99/394/88 101/398/100
f 103/399/6 102/396/6 104/400/7 105/401/7
f 101/398/5 100/392/5 102/396/6 103/399/6
f 99/394/4 98/388/4 100/392/5 101/398/5
f 97/390/3 96/381/3 98/388/4 99/394/4
f 95/386/2 94/382/2 96/381/3 97/390/3
f 93/385/1 92/402/1 94/382/2 95/386/2
f 85/403/87 86/379/98 94/382/98 92/402/87
f 84/404/97 83/405/92 103/399/92 105/401/97
f 83/405/92 82/397/100 101/398/100 103/399/92
f 90/395/96 91/406/95 104/400/95 102/396/96
f 134/407/1 106/408/1 107/409/2 135/410/2
f 135/410/2 107/409/2 108/411/3 136/412/3
f 136/412/3 108/411/3 109/413/4 137/414/4
f 137/414/4 109/413/4 110/415/5 138/416/5
f 138/416/5 110/415/5 111/417/6 139/418/6
f 139/418/6 111/417/6 112/419/7 140/420/7
f 120/421/1 121/422/2 114/423/2 113/424/1
f 121/422/2 122/425/3 115/426/3 114/423/2
f 122/425/3 123/427/4 116/428/4 115/426/3
f 123/427/4 124/429/5 117/430/5 116/428/4
f 124/429/5 125/431/6 118/432/6 117/430/5
f 125/431/6 126/433/7 119/434/7 118/432/6
f 6/435/6 7/436/7 126/433/7 125/431/6
f 5/437/5 6/435/6 125/431/6 124/429/5
f 4/438/4 5/437/5 124/429/5 123/427/4
f 3/439/3 4/438/4 123/427/4 122/425/3
f 2/440/2 3/439/3 122/425/3 121/422/2
f 1/441/1 2/440/2 121/422/2 120/421/1
f 113/424/1 114/423/2 128/319/2 127/321/1
f 114/423/2 115/426/3 129/317/3 128/319/2
f 115/426/3 116/428/4 130/315/4 129/317/3
f 116/428/4 117/430/5 131/313/5 130/315/4
f 117/430/5 118/432/6 132/309/6 131/313/5
f 118/432/6 119/434/7 133/310/7 132/309/6
f 6/435/6 139/418/6 140/420/7 7/436/7
f 5/437/5 138/416/5 139/418/6 6/435/6
f 4/438/4 137/414/4 138/416/5 5/437/5
f 3/439/3 136/412/3 137/414/4 4/438/4
f 2/440/2 135/410/2 136/412/3 3/439/3
f 1/441/1 134/407/1 135/410/2 2/440/2
f 106/408/1 141/377/1 142/375/2 107/409/2
f 107/409/2 142/375/2 143/373/3 108/411/3
f 108/411/3 143/373/3 144/371/4 109/413/4
f 109/413/4 144/371/4 145/369/5 110/415/5
f 110/415/5 145/369/5 146/365/6 111/417/6
f 111/417/6 146/365/6 147/368/7 112/419/7
f 166/442/26 156/443/101 14/297/77 28/296/7
f 165/444/102 155/445/103 156/443/101 166/442/26
f 164/446/104 722/447/105 155/445/103 165/444/102
f 163/448/106 154/449/107 722/447/105 164/446/104
f 162/450/22 153/451/108 154/449/107 163/448/106
f 22/307/1 8/308/83 153/451/108 162/450/22
f 241/452/26 171/453/26 35/311/7 133/310/7
f 240/454/25 170/455/25 171/453/26 241/452/26
f 239/456/24 169/457/24 170/455/25 240/454/25
f 238/458/23 168/459/23 169/457/24 239/456/24
f 237/460/22 167/461/22 168/459/23 238/458/23
f 127/321/1 29/322/1 167/461/22 237/460/22
f 172/462/109 173/463/110 179/464/110 177/465/109
f 167/466/111 29/330/87 44/329/87 178/467/112
f 173/463/110 174/468/113 181/469/113 179/464/110
f 168/470/114 167/466/111 178/467/112 180/471/114
f 174/468/113 175/472/115 183/473/115 181/469/113
f 169/474/116 168/470/114 180/471/114 182/475/116
f 175/472/115 176/476/117 185/477/117 183/473/115
f 170/478/118 169/474/116 182/475/116 184/479/118
f 186/480/26 185/477/26 55/345/7 56/344/7
f 184/479/25 183/473/25 185/477/26 186/480/26
f 182/475/24 181/469/24 183/473/25 184/479/25
f 180/471/23 179/464/23 181/469/24 182/475/24
f 178/467/22 177/465/22 179/464/23 180/471/23
f 44/329/1 43/346/1 177/465/22 178/467/22
f 36/347/94 172/462/109 177/465/109 43/346/94
f 35/348/95 171/481/119 186/480/120 56/344/95
f 171/481/119 170/478/118 184/479/118 186/480/120
f 176/476/117 42/350/97 55/345/97 185/477/117
f 201/482/26 77/354/7 63/353/7 191/483/26
f 200/484/25 201/482/26 191/483/26 190/485/25
f 199/486/24 200/484/25 190/485/25 189/487/24
f 198/488/23 199/486/24 189/487/24 188/489/23
f 197/490/22 198/488/23 188/489/23 187/491/22
f 71/363/1 197/490/22 187/491/22 57/364/1
f 251/492/26 147/368/7 84/367/7 206/493/26
f 250/494/25 251/492/26 206/493/26 205/495/25
f 249/496/24 250/494/25 205/495/25 204/497/24
f 248/498/23 249/496/24 204/497/24 203/499/23
f 247/500/22 248/498/23 203/499/23 202/501/22
f 141/377/1 247/500/22 202/501/22 78/378/1
f 207/502/112 212/503/112 214/504/114 208/505/114
f 202/506/109 213/507/109 93/385/94 78/384/94
f 208/505/114 214/504/114 216/508/116 209/509/116
f 203/510/121 215/511/121 213/507/109 202/506/109
f 209/509/116 216/508/116 218/512/118 210/513/118
f 204/514/113 217/515/113 215/511/121 203/510/121
f 210/513/118 218/512/118 220/516/120 211/517/120
f 205/518/115 219/519/115 217/515/113 204/514/113
f 221/520/26 105/401/7 104/400/7 220/516/26
f 219/519/25 221/520/26 220/516/26 218/512/25
f 217/515/24 219/519/25 218/512/25 216/508/24
f 215/511/23 217/515/24 216/508/24 214/504/23
f 213/507/22 215/511/23 214/504/23 212/503/22
f 93/385/1 213/507/22 212/503/22 92/402/1
f 85/403/87 92/402/87 212/503/112 207/502/112
f 84/404/97 105/401/97 221/520/117 206/521/117
f 206/521/117 221/520/117 219/519/115 205/518/115
f 211/517/120 220/516/120 104/400/95 91/406/95
f 134/407/1 242/522/22 222/523/22 106/408/1
f 242/522/22 243/524/23 223/525/23 222/523/22
f 243/524/23 244/526/24 224/527/24 223/525/23
f 244/526/24 245/528/25 225/529/25 224/527/24
f 245/528/25 246/530/26 226/531/26 225/529/25
f 246/530/26 140/420/7 112/419/7 226/531/26
f 120/421/1 113/424/1 227/532/22 232/533/22
f 232/533/22 227/532/22 228/534/23 233/535/23
f 233/535/23 228/534/23 229/536/24 234/537/24
f 234/537/24 229/536/24 230/538/25 235/539/25
f 235/539/25 230/538/25 231/540/26 236/541/26
f 236/541/26 231/540/26 119/434/7 126/433/7
f 152/542/26 236/541/26 126/433/7 7/436/7
f 151/543/25 235/539/25 236/541/26 152/542/26
f 150/544/24 234/537/24 235/539/25 151/543/25
f 149/545/23 233/535/23 234/537/24 150/544/24
f 148/546/22 232/533/22 233/535/23 149/545/23
f 1/441/1 120/421/1 232/533/22 148/546/22
f 113/424/1 127/321/1 237/460/22 227/532/22
f 227/532/22 237/460/22 238/458/23 228/534/23
f 228/534/23 238/458/23 239/456/24 229/536/24
f 229/536/24 239/456/24 240/454/25 230/538/25
f 230/538/25 240/454/25 241/452/26 231/540/26
f 231/540/26 241/452/26 133/310/7 119/434/7
f 152/542/26 7/436/7 140/420/7 246/530/26
f 151/543/25 152/542/26 246/530/26 245/528/25
f 150/544/24 151/543/25 245/528/25 244/526/24
f 149/545/23 150/544/24 244/526/24 243/524/23
f 148/546/22 149/545/23 243/524/23 242/522/22
f 1/441/1 148/546/22 242/522/22 134/407/1
f 106/408/1 222/523/22 247/500/22 141/377/1
f 222/523/22 223/525/23 248/498/23 247/500/22
f 223/525/23 224/527/24 249/496/24 248/498/23
f 224/527/24 225/529/25 250/494/25 249/496/24
f 225/529/25 226/531/26 251/492/26 250/494/25
f 226/531/26 112/419/7 147/368/7 251/492/26
f 317/547/42 312/548/42 265/549/42 264/550/42
f 328/551/42 326/552/42 294/553/42 293/554/42
f 340/555/42 306/556/42 268/557/42 341/558/42
f 333/559/42 335/560/42 302/561/42 267/562/42
f 342/563/42 267/562/42 302/561/42 343/564/42
f 323/565/42 265/566/42 294/567/42 326/568/42
f 313/569/42 314/570/42 293/554/42 294/553/42
f 337/571/42 332/572/42 268/557/42 306/556/42
f 333/573/42 267/574/42 268/575/42 332/576/42
f 312/577/42 313/578/42 294/567/42 265/566/42
f 341/579/42 268/575/42 267/574/42 342/580/42
f 322/581/42 264/550/42 265/549/42 323/582/42
f 266/583/42 290/584/42 313/578/42 312/577/42
f 290/585/42 292/586/42 314/570/42 313/569/42
f 262/587/42 266/588/42 312/548/42 317/547/42
f 295/589/42 322/581/42 323/582/42 296/590/42
f 296/591/42 323/565/42 326/568/42 297/592/42
f 303/593/42 297/594/42 326/552/42 328/551/42
f 297/592/42 333/573/42 332/576/42 296/591/42
f 295/589/42 296/590/42 332/572/42 337/571/42
f 297/594/42 303/593/42 335/560/42 333/559/42
f 613/595/42 341/579/42 342/580/42 609/596/42
f 609/597/42 342/563/42 343/564/42 601/598/42
f 263/599/42 340/555/42 341/558/42 613/600/42
f 369/601/122 749/602/123 750/603/124 370/604/125
f 368/605/126 356/606/127 749/602/123 369/601/122
f 367/607/128 355/608/129 356/606/127 368/605/126
f 366/609/130 748/610/131 355/608/129 367/607/128
f 365/611/132 354/612/133 748/610/131 366/609/130
f 364/613/134 747/614/135 354/612/133 365/611/132
f 474/615/44 376/616/44 377/617/7 475/618/7
f 473/619/43 375/620/43 376/616/44 474/615/44
f 472/621/42 374/622/42 375/620/43 473/619/43
f 471/623/41 373/624/41 374/622/42 472/621/42
f 470/625/40 372/626/40 373/624/41 471/623/41
f 469/627/1 371/628/1 372/626/40 470/625/40
f 379/629/136 380/630/137 389/631/137 387/632/136
f 372/633/138 371/634/139 386/635/139 388/636/138
f 380/630/137 381/637/140 391/638/140 389/631/137
f 373/639/141 372/633/138 388/636/138 390/640/141
f 381/637/140 382/641/142 393/642/142 391/638/140
f 374/643/143 373/639/141 390/640/141 392/644/143
f 382/641/142 383/645/144 395/646/144 393/642/142
f 375/647/145 374/643/143 392/644/143 394/648/145
f 396/649/44 395/646/44 397/650/7 398/651/7
f 394/648/43 393/642/43 395/646/44 396/649/44
f 392/644/42 391/638/42 393/642/43 394/648/43
f 390/640/41 389/631/41 391/638/42 392/644/42
f 388/636/40 387/632/40 389/631/41 390/640/41
f 386/635/1 385/652/1 387/632/40 388/636/40
f 378/653/146 379/629/136 387/632/136 385/652/146
f 377/654/147 376/655/148 396/649/148 398/651/147
f 376/655/148 375/647/145 394/648/145 396/649/148
f 383/645/144 384/656/149 397/650/149 395/646/144
f 418/657/44 419/658/7 405/659/7 404/660/44
f 417/661/43 418/657/44 404/660/44 403/662/43
f 416/663/42 417/661/43 403/662/43 402/664/42
f 415/665/41 416/663/42 402/664/42 401/666/41
f 414/667/40 415/665/41 401/666/41 400/668/40
f 413/669/1 414/667/40 400/668/40 399/670/1
f 488/671/44 489/672/7 426/673/7 425/674/44
f 487/675/43 488/671/44 425/674/44 424/676/43
f 486/677/42 487/675/43 424/676/43 423/678/42
f 485/679/41 486/677/42 423/678/42 422/680/41
f 484/681/40 485/679/41 422/680/41 421/682/40
f 483/683/1 484/681/40 421/682/40 420/684/1
f 428/685/150 436/686/150 438/687/151 429/688/151
f 421/689/152 437/690/153 435/691/146 420/692/146
f 429/688/151 438/687/151 440/693/143 430/694/143
f 422/695/154 439/696/154 437/690/153 421/689/152
f 430/694/143 440/693/143 442/697/155 431/698/155
f 423/699/140 441/700/140 439/696/154 422/695/154
f 431/698/155 442/697/155 444/701/148 432/702/148
f 424/703/142 443/704/142 441/700/140 423/699/140
f 445/705/44 447/706/7 446/707/7 444/701/44
f 443/704/43 445/705/44 444/701/44 442/697/43
f 441/700/42 443/704/43 442/697/43 440/693/42
f 439/696/41 441/700/42 440/693/42 438/687/41
f 437/690/40 439/696/41 438/687/41 436/686/40
f 435/691/1 437/690/40 436/686/40 434/708/1
f 427/709/139 434/708/139 436/686/150 428/685/150
f 426/710/149 447/706/149 445/705/144 425/711/144
f 425/711/144 445/705/144 443/704/142 424/703/142
f 432/702/148 444/701/148 446/707/147 433/712/147
f 476/713/1 477/714/40 449/715/40 448/716/1
f 477/714/40 478/717/41 450/718/41 449/715/40
f 478/717/41 479/719/42 451/720/42 450/718/41
f 479/719/42 480/721/43 452/722/43 451/720/42
f 480/721/43 481/723/44 453/724/44 452/722/43
f 481/723/44 482/725/7 454/726/7 453/724/44
f 462/727/1 455/728/1 456/729/40 463/730/40
f 463/730/40 456/729/40 457/731/41 464/732/41
f 464/732/41 457/731/41 458/733/42 465/734/42
f 465/734/42 458/733/42 459/735/43 466/736/43
f 466/736/43 459/735/43 460/737/44 467/738/44
f 467/738/44 460/737/44 461/739/7 468/740/7
f 352/741/44 467/738/44 468/740/7 353/742/7
f 351/743/43 466/736/43 467/738/44 352/741/44
f 350/744/42 465/734/42 466/736/43 351/743/43
f 349/745/41 464/732/41 465/734/42 350/744/42
f 348/746/40 463/730/40 464/732/41 349/745/41
f 347/747/1 462/727/1 463/730/40 348/746/40
f 455/728/1 469/627/1 470/625/40 456/729/40
f 456/729/40 470/625/40 471/623/41 457/731/41
f 457/731/41 471/623/41 472/621/42 458/733/42
f 458/733/42 472/621/42 473/619/43 459/735/43
f 459/735/43 473/619/43 474/615/44 460/737/44
f 460/737/44 474/615/44 475/618/7 461/739/7
f 352/741/44 353/742/7 482/725/7 481/723/44
f 351/743/43 352/741/44 481/723/44 480/721/43
f 350/744/42 351/743/43 480/721/43 479/719/42
f 349/745/41 350/744/42 479/719/42 478/717/41
f 348/746/40 349/745/41 478/717/41 477/714/40
f 347/747/1 348/746/40 477/714/40 476/713/1
f 448/716/1 449/715/40 484/681/40 483/683/1
f 449/715/40 450/718/41 485/679/41 484/681/40
f 450/718/41 451/720/42 486/677/42 485/679/41
f 451/720/42 452/722/43 487/675/43 486/677/42
f 452/722/43 453/724/44 488/671/44 487/675/43
f 453/724/44 454/726/7 489/672/7 488/671/44
f 507/748/156 370/604/125 750/603/124 497/749/157
f 506/750/158 507/748/156 497/749/157 752/751/159
f 505/752/160 506/750/158 752/751/159 751/753/160
f 504/754/60 505/752/160 751/753/160 496/755/161
f 503/756/162 504/754/60 496/755/161 495/757/163
f 364/613/134 503/756/162 495/757/163 747/614/135
f 582/758/63 475/618/7 377/617/7 512/759/63
f 581/760/62 582/758/63 512/759/63 511/761/62
f 580/762/61 581/760/62 511/761/62 510/763/61
f 579/764/60 580/762/61 510/763/61 509/765/60
f 578/766/59 579/764/60 509/765/60 508/767/59
f 469/627/1 578/766/59 508/767/59 371/628/1
f 513/768/164 518/769/164 520/770/165 514/771/165
f 508/772/166 519/773/166 386/635/139 371/634/139
f 514/771/165 520/770/165 522/774/167 515/775/167
f 509/776/168 521/777/168 519/773/166 508/772/166
f 515/775/167 522/774/167 524/778/169 516/779/169
f 510/780/170 523/781/170 521/777/168 509/776/168
f 516/779/169 524/778/169 526/782/171 517/783/171
f 511/784/172 525/785/172 523/781/170 510/780/170
f 527/786/63 398/651/7 397/650/7 526/782/63
f 525/785/62 527/786/63 526/782/63 524/778/62
f 523/781/61 525/785/62 524/778/62 522/774/61
f 521/777/60 523/781/61 522/774/61 520/770/60
f 519/773/59 521/777/60 520/770/60 518/769/59
f 386/635/1 519/773/59 518/769/59 385/652/1
f 378/653/146 385/652/146 518/769/164 513/768/164
f 377/654/147 398/651/147 527/786/173 512/787/174
f 512/787/174 527/786/173 525/785/172 511/784/172
f 517/783/171 526/782/171 397/650/149 384/656/149
f 542/788/63 532/789/63 405/659/7 419/658/7
f 541/790/62 531/791/62 532/789/63 542/788/63
f 540/792/61 530/793/61 531/791/62 541/790/62
f 539/794/60 529/795/60 530/793/61 540/792/61
f 538/796/59 528/797/59 529/795/60 539/794/60
f 413/669/1 399/670/1 528/797/59 538/796/59
f 592/798/63 547/799/63 426/673/7 489/672/7
f 591/800/62 546/801/62 547/799/63 592/798/63
f 590/802/61 545/803/61 546/801/62 591/800/62
f 589/804/60 544/805/60 545/803/61 590/802/61
f 588/806/59 543/807/59 544/805/60 589/804/60
f 483/683/1 420/684/1 543/807/59 588/806/59
f 548/808/175 549/809/176 555/810/176 553/811/166
f 543/812/177 420/692/146 435/691/146 554/813/178
f 549/809/176 550/814/170 557/815/170 555/810/176
f 544/816/179 543/812/177 554/813/178 556/817/179
f 550/814/170 551/818/172 559/819/172 557/815/170
f 545/820/167 544/816/179 556/817/179 558/821/167
f 551/818/172 552/822/173 561/823/173 559/819/172
f 546/824/180 545/820/167 558/821/167 560/825/180
f 562/826/63 561/823/63 446/707/7 447/706/7
f 560/825/62 559/819/62 561/823/63 562/826/63
f 558/821/61 557/815/61 559/819/62 560/825/62
f 556/817/60 555/810/60 557/815/61 558/821/61
f 554/813/59 553/811/59 555/810/60 556/817/60
f 435/691/1 434/708/1 553/811/59 554/813/59
f 427/709/139 548/808/175 553/811/166 434/708/139
f 426/710/149 547/827/171 562/826/171 447/706/149
f 547/827/171 546/824/180 560/825/180 562/826/171
f 552/822/173 433/712/147 446/707/147 561/823/173
f 476/713/1 448/716/1 563/828/59 583/829/59
f 583/829/59 563/828/59 564/830/60 584/831/60
f 584/831/60 564/830/60 565/832/61 585/833/61
f 585/833/61 565/832/61 566/834/62 586/835/62
f 586/835/62 566/834/62 567/836/63 587/837/63
f 587/837/63 567/836/63 454/726/7 482/725/7
f 462/727/1 573/838/59 568/839/59 455/728/1
f 573/838/59 574/840/60 569/841/60 568/839/59
f 574/840/60 575/842/61 570/843/61 569/841/60
f 575/842/61 576/844/62 571/845/62 570/843/61
f 576/844/62 577/846/63 572/847/63 571/845/62
f 577/846/63 468/740/7 461/739/7 572/847/63
f 494/848/63 353/742/7 468/740/7 577/846/63
f 493/849/62 494/848/63 577/846/63 576/844/62
f 492/850/61 493/849/62 576/844/62 575/842/61
f 491/851/60 492/850/61 575/842/61 574/840/60
f 490/852/59 491/851/60 574/840/60 573/838/59
f 347/747/1 490/852/59 573/838/59 462/727/1
f 455/728/1 568/839/59 578/766/59 469/627/1
f 568/839/59 569/841/60 579/764/60 578/766/59
f 569/841/60 570/843/61 580/762/61 579/764/60
f 570/843/61 571/845/62 581/760/62 580/762/61
f 571/845/62 572/847/63 582/758/63 581/760/62
f 572/847/63 461/739/7 475/618/7 582/758/63
f 494/848/63 587/837/63 482/725/7 353/742/7
f 493/849/62 586/835/62 587/837/63 494/848/63
f 492/850/61 585/833/61 586/835/62 493/849/62
f 491/851/60 584/831/60 585/833/61 492/850/61
f 490/852/59 583/829/59 584/831/60 491/851/60
f 347/747/1 476/713/1 583/829/59 490/852/59
f 448/716/1 483/683/1 588/806/59 563/828/59
f 563/828/59 588/806/59 589/804/60 564/830/60
f 564/830/60 589/804/60 590/802/61 565/832/61
f 565/832/61 590/802/61 591/800/62 566/834/62
f 566/834/62 591/800/62 592/798/63 567/836/63
f 567/836/63 592/798/63 489/672/7 454/726/7
f 661/853/4 606/854/4 607/855/4 656/856/4
f 672/857/4 637/858/4 638/859/4 670/860/4
f 684/861/4 685/862/4 611/863/4 650/864/4
f 677/865/4 610/866/4 646/867/4 679/868/4
f 686/869/4 687/870/4 646/867/4 610/866/4
f 667/871/4 670/872/4 638/873/4 607/874/4
f 657/875/4 638/859/4 637/858/4 658/876/4
f 681/877/4 650/864/4 611/863/4 676/878/4
f 677/879/4 676/880/4 611/881/4 610/882/4
f 656/883/4 607/874/4 638/873/4 657/884/4
f 685/885/4 686/886/4 610/882/4 611/881/4
f 666/887/4 667/888/4 607/855/4 606/854/4
f 608/889/4 656/883/4 657/884/4 634/890/4
f 634/891/4 657/875/4 658/876/4 636/892/4
f 605/893/4 661/853/4 656/856/4 608/894/4
f 639/895/4 640/896/4 667/888/4 666/887/4
f 640/897/4 641/898/4 670/872/4 667/871/4
f 647/899/4 672/857/4 670/860/4 641/900/4
f 641/898/4 640/897/4 676/880/4 677/879/4
f 639/895/4 681/877/4 676/878/4 640/896/4
f 641/900/4 677/865/4 679/868/4 647/899/4
f 613/595/4 609/596/4 686/886/4 685/885/4
f 609/597/4 601/598/4 687/870/4 686/869/4
f 263/599/4 613/600/4 685/862/4 684/861/4
f 10/901/81 11/902/80 694/903/181 693/904/182
f 156/905/101 155/906/103 700/907/183 701/908/184
f 13/909/78 14/910/77 697/911/185 696/912/186
f 153/913/108 8/914/83 691/915/187 698/916/188
f 9/917/82 10/901/81 693/904/182 692/918/189
f 155/906/103 722/919/105 700/907/183
f 12/920/79 13/909/78 696/912/186 695/921/190
f 8/914/83 9/917/82 692/918/189 691/915/187
f 722/922/105 154/923/107 699/924/191
f 11/902/80 12/920/79 695/921/190 694/903/181
f 14/910/77 156/905/101 701/908/184 697/911/185
f 154/923/107 153/913/108 698/916/188 699/924/191
f 695/921/190 696/912/186 707/925/192 706/926/193
f 700/907/183 722/927/105 711/928/194
f 691/915/187 692/918/189 703/929/195 702/930/196
f 694/903/181 695/921/190 706/926/193 705/931/197
f 722/932/105 699/924/191 710/933/198
f 697/911/185 701/908/184 712/934/199 708/935/200
f 693/904/182 694/903/181 705/931/197 704/936/201
f 699/924/191 698/916/188 709/937/202 710/933/198
f 696/912/186 697/911/185 708/935/200 707/925/192
f 701/908/184 700/907/183 711/928/194 712/934/199
f 692/918/189 693/904/182 704/936/201 703/929/195
f 698/916/188 691/915/187 702/930/196 709/937/202
f 709/937/202 702/930/196 713/938/203 720/939/204
f 706/926/193 707/925/192 718/940/205 717/941/206
f 711/928/194 722/942/105 723/943/207
f 702/930/196 703/929/195 714/944/208 713/938/203
f 705/931/197 706/926/193 717/941/206 716/945/209
f 722/946/105 710/933/198 721/947/210
f 708/935/200 712/934/199 724/948/211 719/949/212
f 704/936/201 705/931/197 716/945/209 715/950/213
f 710/933/198 709/937/202 720/939/204 721/947/210
f 707/925/192 708/935/200 719/949/212 718/940/205
f 712/934/199 711/928/194 723/943/207 724/948/211
f 703/929/195 704/936/201 715/950/213 714/944/208
f 714/944/208 715/950/213 727/951/214 726/952/215
f 720/939/204 713/938/203 725/953/216 732/954/217
f 717/941/206 718/940/205 730/955/218 729/956/219
f 723/943/207 722/957/105 734/958/220
f 713/938/203 714/944/208 726/952/215 725/953/216
f 716/945/209 717/941/206 729/956/219 728/959/221
f 722/960/105 721/947/210 733/961/222
f 719/949/212 724/948/211 735/962/223 731/963/224
f 715/950/213 716/945/209 728/959/221 727/951/214
f 721/947/210 720/939/204 732/954/217 733/961/222
f 718/940/205 719/949/212 731/963/224 730/955/218
f 724/948/211 723/943/207 734/958/220 735/962/223
f 726/952/215 727/951/214 738/964/225 737/965/226
f 732/954/217 725/953/216 736/966/227 743/967/228
f 729/956/219 730/955/218 741/968/229 740/969/230
f 734/958/220 722/970/105 745/971/231
f 725/953/216 726/952/215 737/965/226 736/966/227
f 728/959/221 729/956/219 740/969/230 739/972/232
f 722/973/105 733/961/222 744/974/233
f 731/963/224 735/962/223 746/975/234 742/976/235
f 727/951/214 728/959/221 739/972/232 738/964/225
f 733/961/222 732/954/217 743/967/228 744/974/233
f 730/955/218 731/963/224 742/976/235 741/968/229
f 735/962/223 734/958/220 745/971/231 746/975/234
f 746/975/234 745/971/231 752/977/159 497/978/157
f 737/965/226 738/964/225 748/979/131 354/980/133
f 743/967/228 736/966/227 747/981/135 495/982/163
f 740/969/230 741/968/229 749/983/123 356/984/127
f 745/971/231 722/970/105 751/985/236 752/977/237
f 736/966/227 737/965/226 354/980/133 747/981/135
f 739/972/232 740/969/230 356/984/127 355/986/129
f 722/987/105 744/974/238 496/988/238 751/989/236
f 742/976/235 746/975/234 497/978/157 750/990/124
f 738/964/225 739/972/232 355/986/129 748/979/131
f 744/974/233 743/967/228 495/982/163 496/988/161
f 741/968/229 742/976/235 750/990/124 749/983/123
usemtl MI_Trim_03_Dark
s off
f 285/991/1 284/992/1 282/993/1 283/994/1
f 288/995/7 287/996/7 286/997/7 289/998/7
f 282/993/24 284/992/24 289/998/24 286/997/24
f 285/991/4 283/994/4 287/996/4 288/995/4
f 284/992/42 285/991/42 288/995/42 289/998/42
f 283/994/61 282/993/61 286/997/61 287/996/61
f 629/999/1 627/1000/1 626/1001/1 628/1002/1
f 632/1003/7 633/1004/7 630/1005/7 631/1006/7
f 626/1001/61 630/1005/61 633/1004/61 628/1002/61
f 629/999/42 632/1003/42 631/1006/42 627/1000/42
f 628/1002/4 633/1004/4 632/1003/4 629/999/4
f 627/1000/24 631/1006/24 630/1005/24 626/1001/24
s 1
f 321/1007/42 320/1008/42 253/1009/42 255/1010/42
f 327/1011/239 321/1007/239 255/1010/239 300/1012/239
f 330/1013/42 255/1010/42 253/1009/42 329/1014/42
f 334/1015/239 300/1012/239 255/1010/239 330/1013/239
f 316/1016/239 319/1017/239 308/1018/239 299/1019/239
f 319/1017/42 318/1020/42 307/1021/42 308/1018/42
f 338/1022/239 301/1023/239 310/1024/239 346/1025/239
f 346/1025/42 310/1024/42 309/1026/42 345/1027/42
f 254/1028/42 252/1029/42 318/1020/42 319/1017/42
f 256/1030/239 254/1028/239 319/1017/239 316/1016/239
f 299/1019/239 308/1018/239 321/1007/239 327/1011/239
f 308/1018/42 307/1021/42 320/1008/42 321/1007/42
f 301/1023/239 334/1015/239 330/1013/239 310/1024/239
f 310/1024/42 330/1013/42 329/1014/42 309/1026/42
f 598/1031/42 346/1025/42 345/1027/42 597/1032/42
f 257/1033/239 338/1022/239 346/1025/239 598/1031/239
f 665/1034/4 596/1035/4 594/1036/4 664/1037/4
f 671/1038/240 644/1039/240 596/1035/240 665/1034/240
f 674/1040/4 673/1041/4 594/1036/4 596/1035/4
f 678/1042/240 674/1040/240 596/1035/240 644/1039/240
f 660/1043/240 643/1044/240 652/1045/240 663/1046/240
f 663/1046/4 652/1045/4 651/1047/4 662/1048/4
f 682/1049/240 690/1050/240 654/1051/240 645/1052/240
f 690/1050/4 689/1053/4 653/1054/4 654/1051/4
f 595/1055/4 663/1046/4 662/1048/4 593/1056/4
f 599/1057/240 660/1043/240 663/1046/240 595/1055/240
f 643/1044/240 671/1038/240 665/1034/240 652/1045/240
f 652/1045/4 665/1034/4 664/1037/4 651/1047/4
f 645/1052/240 654/1051/240 674/1040/240 678/1042/240
f 654/1051/4 653/1054/4 673/1041/4 674/1040/4
f 598/1031/4 597/1032/4 689/1053/4 690/1050/4
f 257/1033/240 598/1031/240 690/1050/240 682/1049/240
usemtl MI_Trim_03
s off
f 270/1058/61 271/1059/61 273/1060/61 272/1061/61
f 276/1062/24 277/1063/24 281/1064/24 274/1065/24 271/1066/24 270/1067/24
f 272/1068/4 273/1069/4 275/1070/4 280/1071/4 278/1072/4 279/1073/4
f 280/1074/241 275/1075/241 274/1076/241 281/1077/241
f 275/1078/242 273/1079/242 271/1080/242 274/1081/242
f 276/1082/243 279/1083/243 278/1084/243 277/1085/243
f 272/1086/1 279/1083/1 276/1082/1 270/1087/1
f 278/1084/244 280/1074/244 281/1077/244 277/1085/244
f 614/1088/24 616/1089/24 617/1090/24 615/1091/24
f 620/1092/61 614/1093/61 615/1094/61 618/1095/61 625/1096/61 621/1097/61
f 616/1098/42 623/1099/42 622/1100/42 624/1101/42 619/1102/42 617/1103/42
f 624/1104/245 625/1105/245 618/1106/245 619/1107/245
f 619/1108/246 618/1109/246 615/1110/246 617/1111/246
f 620/1112/247 621/1113/247 622/1114/247 623/1115/247
f 616/1116/1 614/1117/1 620/1112/1 623/1115/1
f 622/1114/248 621/1113/248 625/1105/248 624/1104/248
