# Blender v3.6.0 OBJ File: 'AllModules_Unreal.blend'
# www.blender.org
mtllib WallWideBand_Corner_Round_Outer.mtl
o WallWideBand_Corner_Round_Outer_Plane.149
v -2.828181 -0.000000 -2.828196
v -2.828181 1.000000 -2.828196
v -1.530420 0.000000 -3.694706
v -1.530420 1.000000 -3.694706
v -2.757470 0.200000 -2.757484
v -1.492144 0.200000 -3.602321
v 0.000002 0.000000 -4.000000
v -2.162088 0.200000 -3.236127
v 0.000002 0.200000 -3.900000
v -2.217699 1.000000 -3.319238
v 0.000001 1.000000 -4.000000
v -2.828180 3.000000 -2.828195
v -0.000001 3.000000 -3.999999
v -2.798010 2.844915 -2.864732
v -2.798010 2.601932 -2.864732
v -2.568278 2.844915 -3.066962
v -2.568278 2.601933 -3.066962
v -2.217699 -0.000000 -3.319238
v -1.530422 3.000000 -3.694705
v -2.217698 3.000000 -3.319238
v -0.778796 0.000000 -3.915197
v -0.759415 0.200000 -3.817093
v -0.778796 3.000001 -3.915197
v -0.778796 1.000000 -3.915197
v -2.533593 1.000000 -3.087502
v -2.470119 0.200000 -3.010230
v -2.533592 3.000000 -3.087502
v -2.533593 -0.000000 -3.087503
v -0.391568 1.000000 -3.973642
v -0.391566 0.000000 -3.973642
v -0.381881 0.200000 -3.874112
v -0.391568 3.000000 -3.973642
v -2.217699 1.456897 -3.319238
v 0.000001 1.456897 -4.000000
v -2.828181 1.456897 -2.828195
v -1.530420 1.456897 -3.694706
v -0.778796 1.456897 -3.915197
v -2.533593 1.456897 -3.087502
v -0.391568 1.456897 -3.973642
v -2.828181 1.228448 -2.828196
v -2.217699 1.228448 -3.319238
v 0.000001 1.228449 -4.000000
v -1.530420 1.228449 -3.694706
v -0.778796 1.228449 -3.915197
v -2.533593 1.228448 -3.087502
v -0.391568 1.228449 -3.973642
v -2.217699 1.996983 -3.319238
v 0.000001 1.996983 -4.000000
v -1.530420 1.996983 -3.694705
v -0.778796 1.996983 -3.915197
v -2.533592 1.996983 -3.087502
v -0.391568 1.996983 -3.973641
v -2.828181 1.996983 -2.828195
v -1.882587 1.456897 -3.522006
v -1.882588 1.996983 -3.522005
v -1.882587 1.000000 -3.522006
v -1.882589 3.000000 -3.522005
v -1.835399 0.200000 -3.433840
v -1.882587 0.000000 -3.522006
v -0.004448 1.120682 -4.001683
v -0.004448 1.020877 -4.001683
v -2.777594 0.200000 -2.777608
v -1.503037 0.200000 -3.628613
v 0.000002 0.200000 -3.928459
v -2.177914 0.200000 -3.259780
v -0.764931 0.200000 -3.845013
v -2.488183 0.200000 -3.032221
v -0.384637 0.200000 -3.902437
v -1.882587 1.228448 -3.522006
v -1.848829 0.200000 -3.458931
v -1.159708 0.000000 -3.823517
v -1.130747 0.200000 -3.727802
v -1.159708 3.000000 -3.823516
v -1.159708 1.000000 -3.823516
v -1.159708 1.996983 -3.823516
v -1.159708 1.456897 -3.823516
v -1.159708 1.228449 -3.823516
v -1.138989 0.200000 -3.755041
v -0.448271 1.020877 -3.975902
v -0.448271 1.120681 -3.975902
v -0.393942 1.120681 -3.975468
v -0.393942 1.020877 -3.975468
v -0.395352 1.120681 -3.975540
v -0.395352 1.020877 -3.975540
v -4.000001 -0.000000 -0.000020
v -4.000001 1.000000 -0.000018
v -3.694700 0.000000 -1.530441
v -3.694700 1.000000 -1.530441
v -3.900001 0.200000 -0.000020
v -3.602315 0.200000 -1.492164
v -3.817091 0.200000 -0.759436
v -3.915195 1.000000 -0.778816
v -4.000000 3.000000 -0.000018
v -4.004332 2.844915 -0.047180
v -4.004332 2.601932 -0.047180
v -3.983787 2.844915 -0.352544
v -3.983787 2.601933 -0.352544
v -3.915195 -0.000000 -0.778818
v -3.694700 3.000000 -1.530441
v -3.915195 3.000000 -0.778816
v -3.319227 0.000000 -2.217717
v -3.236116 0.200000 -2.162105
v -3.319227 3.000000 -2.217715
v -3.319228 1.000000 -2.217715
v -3.973643 1.000000 -0.391588
v -3.874113 0.200000 -0.381902
v -3.973642 3.000000 -0.391588
v -3.973643 -0.000000 -0.391588
v -3.087489 1.000000 -2.533608
v -3.087490 0.000000 -2.533609
v -3.010217 0.200000 -2.470134
v -3.087489 3.000001 -2.533608
v -3.915195 1.456897 -0.778816
v -4.000001 1.456897 -0.000018
v -3.694700 1.456897 -1.530441
v -3.319228 1.456897 -2.217715
v -3.973642 1.456897 -0.391588
v -3.087489 1.456897 -2.533608
v -4.000001 1.228448 -0.000018
v -3.915195 1.228448 -0.778816
v -3.694700 1.228448 -1.530441
v -3.319227 1.228449 -2.217715
v -3.973642 1.228448 -0.391588
v -3.087489 1.228449 -2.533608
v -3.915195 1.996983 -0.778816
v -3.694700 1.996983 -1.530441
v -3.319227 1.996983 -2.217715
v -3.973642 1.996983 -0.391588
v -3.087489 1.996983 -2.533608
v -4.000000 1.996983 -0.000018
v -3.823512 1.456897 -1.159727
v -3.823511 1.996983 -1.159727
v -3.823512 1.000000 -1.159727
v -3.823511 3.000000 -1.159726
v -3.727797 0.200000 -1.130766
v -3.823512 0.000000 -1.159727
v -2.832530 1.120682 -2.826251
v -2.832530 1.020877 -2.826251
v -3.928460 0.200000 -0.000020
v -3.628607 0.200000 -1.503057
v -3.845010 0.200000 -0.764952
v -3.259769 0.200000 -2.177931
v -3.902438 0.200000 -0.384659
v -3.032208 0.200000 -2.488198
v -3.823512 1.228448 -1.159727
v -3.755036 0.200000 -1.139008
v -3.521997 0.000000 -1.882607
v -3.433830 0.200000 -1.835418
v -3.521997 3.000000 -1.882606
v -3.521997 1.000000 -1.882607
v -3.521997 1.996983 -1.882606
v -3.521997 1.456897 -1.882607
v -3.521997 1.228449 -1.882606
v -3.458922 0.200000 -1.848848
v -3.129338 1.020877 -2.495241
v -3.129338 1.120681 -2.495241
v -3.090466 1.120681 -2.533225
v -3.090466 1.020877 -2.533225
v -3.091519 1.120681 -2.532281
v -3.091519 1.020877 -2.532281
vt 0.889912 0.409735
vt 1.019308 0.409735
vt 1.019308 0.373239
vt 0.889912 0.373239
vt 0.889912 0.409735
vt 0.889912 0.373239
vt 0.631121 0.409735
vt 0.760517 0.409735
vt 0.760517 0.373239
vt 0.631121 0.373239
vt 0.912419 0.486932
vt 0.830000 0.486932
vt 0.830000 0.579164
vt 0.912419 0.579164
vt 0.631121 0.409735
vt 0.631121 0.373239
vt 0.760517 0.373239
vt 0.760517 0.409735
vt 0.501726 0.409735
vt 0.501726 0.373239
vt 0.501726 0.409735
vt 0.501726 0.373239
vt 0.747581 0.447919
vt 0.665163 0.447919
vt 0.665163 0.486932
vt 0.747581 0.486932
vt 0.500325 0.579164
vt 0.582744 0.579164
vt 0.582744 0.486932
vt 0.500325 0.486932
vt 0.994837 0.579164
vt 1.077256 0.579164
vt 1.077256 0.486932
vt 0.994837 0.486932
vt 0.747581 0.579164
vt 1.159675 0.579164
vt 1.159675 0.486932
vt 0.582744 0.447919
vt 0.500325 0.447919
vt 0.665163 0.579164
vt 1.159675 0.447919
vt 1.077256 0.447919
vt 1.077256 0.750453
vt 1.159675 0.750453
vt 0.747581 0.750453
vt 0.830000 0.750453
vt 0.582744 0.750453
vt 0.665163 0.750453
vt 0.912419 0.750453
vt 0.994837 0.750453
vt 0.500325 0.750453
vt 0.994837 0.447919
vt 0.912419 0.447919
vt 0.830000 0.447919
vt 0.889912 0.409735
vt 1.019308 0.409735
vt 1.019308 0.373239
vt 0.889912 0.373239
vt 0.889912 0.409735
vt 0.889912 0.373239
vt 0.631121 0.409735
vt 0.760517 0.409735
vt 0.760517 0.373239
vt 0.631121 0.373239
vt 0.912419 0.486932
vt 0.830000 0.486932
vt 0.830000 0.579164
vt 0.912419 0.579164
vt 0.631121 0.409735
vt 0.631121 0.373239
vt 0.760517 0.373239
vt 0.760517 0.409735
vt 0.501726 0.409735
vt 0.501726 0.373239
vt 0.747581 0.447919
vt 0.665163 0.447919
vt 0.665163 0.486932
vt 0.747581 0.486932
vt 0.500325 0.579164
vt 0.582744 0.579164
vt 0.582744 0.486932
vt 0.500325 0.486932
vt 0.994837 0.579164
vt 1.077256 0.579164
vt 1.077256 0.486932
vt 0.994837 0.486932
vt 0.747581 0.579164
vt 1.159675 0.579164
vt 1.159675 0.486932
vt 0.582744 0.447919
vt 0.500325 0.447919
vt 0.665163 0.579164
vt 1.159675 0.447919
vt 1.077256 0.447919
vt 1.077256 0.750453
vt 1.159675 0.750453
vt 0.747581 0.750453
vt 0.830000 0.750453
vt 0.582744 0.750453
vt 0.665163 0.750453
vt 0.912419 0.750453
vt 0.994837 0.750453
vt 0.500325 0.750453
vt 0.994837 0.447919
vt 0.912419 0.447919
vt 0.830000 0.447919
vt 0.500966 0.733252
vt 0.500966 0.733252
vt 0.500966 0.733252
vt 0.500966 0.733252
vt 0.500966 0.733252
vt 0.500966 0.733252
vt 0.500966 0.733252
vt 0.500966 0.733252
vt 0.500966 0.733252
vt 0.500966 0.733252
vt 0.500966 0.733252
vt 0.500966 0.733252
vt 0.500966 0.733252
vt 0.500966 0.733252
vt 0.500966 0.733252
vt 0.500966 0.733252
vt 0.500966 0.733252
vt 0.500966 0.733252
vt 0.500966 0.733252
vt 0.500966 0.733252
vt 0.500966 0.733252
vt 0.500966 0.733252
vt 0.500966 0.733252
vt 0.500966 0.733252
vt 0.500966 0.733252
vt 0.500966 0.733252
vt 0.500966 0.733252
vt 0.500966 0.733252
vt 0.500966 0.733252
vt 0.500966 0.733252
vt 0.500966 0.733252
vt 0.500966 0.733252
vt 0.500966 0.733252
vt 0.500966 0.733252
vt 0.026778 0.226397
vt 0.051754 0.226397
vt 0.051754 0.189286
vt 0.026778 0.189286
vt 0.051754 0.226397
vt 0.236597 0.226397
vt 0.236597 0.189286
vt 0.051754 0.189286
vt 0.026778 0.226397
vt 0.051754 0.226397
vt 0.051754 0.189286
vt 0.026778 0.189286
vt 0.051754 0.226397
vt 0.236597 0.226397
vt 0.236597 0.189286
vt 0.051754 0.189286
vt 0.799616 0.579130
vt 0.941012 0.579130
vt 0.941012 0.490855
vt 0.799616 0.490855
vt 0.799616 0.579130
vt 0.941012 0.579130
vt 0.941012 0.490855
vt 0.799616 0.490855
vt 0.665846 0.591441
vt 0.812631 0.591441
vt 0.812631 0.407339
vt 0.665846 0.407339
vt 0.665846 0.591441
vt 0.665846 0.407339
vt 1.159675 0.408906
vt 1.077256 0.408906
vt 0.665163 0.408906
vt 0.582744 0.408906
vt 0.372276 0.591441
vt 0.519061 0.591441
vt 0.519061 0.407339
vt 0.372276 0.407339
vt 0.372276 0.591441
vt 0.372276 0.407339
vt 0.519061 0.407339
vt 0.519061 0.591441
vt 0.225492 0.591441
vt 0.225491 0.407339
vt 0.500325 0.408906
vt 0.225492 0.591441
vt 0.225491 0.407339
vt 0.994837 0.408906
vt 0.747581 0.408906
vt 0.912419 0.408906
vt 0.830000 0.408906
vt 0.665846 0.591441
vt 0.812631 0.591441
vt 0.812631 0.407339
vt 0.665846 0.407339
vt 0.665846 0.591441
vt 0.665846 0.407339
vt 1.159675 0.408906
vt 1.077256 0.408906
vt 0.665163 0.408906
vt 0.582744 0.408906
vt 0.372276 0.591441
vt 0.519061 0.591441
vt 0.519061 0.407339
vt 0.372276 0.407339
vt 0.372276 0.591441
vt 0.372276 0.407339
vt 0.519061 0.407339
vt 0.519061 0.591441
vt 0.225492 0.591441
vt 0.225491 0.407339
vt 0.500325 0.408906
vt 0.994837 0.408906
vt 0.747581 0.408906
vt 0.912419 0.408906
vt 0.830000 0.408906
vn -0.4516 0.3367 -0.8262
vn -0.3625 0.3370 -0.8689
vn -0.3624 0.3370 -0.8690
vn -0.4515 0.3367 -0.8263
vn -0.2649 0.3368 -0.9036
vn -0.2650 0.3368 -0.9035
vn -0.5900 0.3367 -0.7338
vn -0.5227 0.3367 -0.7832
vn -0.5901 0.3367 -0.7337
vn -0.2815 0.0000 -0.9596
vn -0.3850 0.0000 -0.9229
vn -0.1022 0.3367 -0.9361
vn -0.1020 0.3367 -0.9361
vn -0.1806 0.3367 -0.9241
vn -0.6657 0.3370 -0.6657
vn -0.0634 0.3364 -0.9396
vn -0.4795 0.0000 -0.8776
vn -0.5551 0.0000 -0.8318
vn -0.7071 0.0000 -0.7071
vn -0.6267 0.0000 -0.7792
vn -0.1918 0.0000 -0.9814
vn -0.1083 0.0000 -0.9941
vn -0.0672 0.0000 -0.9977
vn -0.9036 0.3368 -0.2649
vn -0.8689 0.3370 -0.3625
vn -0.8690 0.3370 -0.3624
vn -0.9035 0.3368 -0.2650
vn -0.8262 0.3367 -0.4516
vn -0.8263 0.3367 -0.4515
vn -0.9361 0.3367 -0.1022
vn -0.9241 0.3367 -0.1806
vn -0.9361 0.3367 -0.1020
vn -0.8776 -0.0000 -0.4795
vn -0.9229 0.0000 -0.3850
vn -0.7338 0.3367 -0.5900
vn -0.7337 0.3367 -0.5901
vn -0.7832 0.3367 -0.5227
vn -0.9396 0.3364 -0.0634
vn -0.9596 0.0000 -0.2815
vn -0.9814 0.0000 -0.1918
vn -0.9977 0.0000 -0.0672
vn -0.9941 0.0000 -0.1083
vn -0.8318 0.0000 -0.5551
vn -0.7792 0.0000 -0.6267
vn -0.0000 1.0000 0.0000
vn 0.0068 0.0000 -1.0000
vn -0.6997 0.0000 -0.7144
vn -0.7506 0.0000 -0.6607
vn -0.6607 0.0000 -0.7506
vn -0.9977 0.0000 -0.0671
vn -0.4758 -0.1240 -0.8708
vn -0.3820 -0.1241 -0.9158
vn -0.4759 -0.1240 -0.8707
vn -0.2792 -0.1240 -0.9522
vn -0.2791 -0.1240 -0.9522
vn -0.6218 -0.1240 -0.7733
vn -0.5508 -0.1240 -0.8253
vn -0.1076 -0.1240 -0.9864
vn -0.1903 -0.1240 -0.9739
vn -0.7016 -0.1241 -0.7016
vn -0.0669 -0.1239 -0.9900
vn -0.9522 -0.1240 -0.2792
vn -0.9158 -0.1241 -0.3820
vn -0.9522 -0.1240 -0.2791
vn -0.8707 -0.1240 -0.4758
vn -0.8707 -0.1240 -0.4759
vn -0.9864 -0.1240 -0.1076
vn -0.9739 -0.1240 -0.1903
vn -0.7733 -0.1240 -0.6218
vn -0.8253 -0.1240 -0.5508
vn -0.8253 -0.1240 -0.5509
vn -0.9900 -0.1239 -0.0669
usemtl MI_Trim_02_NoAccent
s 1
f 70/1/1 63/2/2 3/3/3 59/4/4
f 78/5/5 71/6/6 3/3/3 63/2/2
f 67/7/7 65/8/8 18/9/8 28/10/9
f 76/11/10 36/12/11 49/13/11 75/14/10
f 68/15/12 30/16/13 21/17/14 66/18/14
f 62/19/15 67/7/7 28/10/9 1/20/15
f 64/21/16 7/22/16 30/16/13 68/15/12
f 69/23/17 41/24/18 33/25/18 54/26/17
f 53/27/19 51/28/20 38/29/20 35/30/19
f 50/31/21 52/32/22 39/33/22 37/34/21
f 55/35/17 49/13/11 36/12/11 54/26/17
f 52/32/22 48/36/23 34/37/23 39/33/22
f 41/24/18 45/38/20 38/29/20 33/25/18
f 35/30/19 38/29/20 45/38/20 40/39/19
f 51/28/20 47/40/18 33/25/18 38/29/20
f 39/33/22 34/37/23 42/41/23 46/42/22
f 32/43/22 13/44/23 48/36/23 52/32/22
f 57/45/17 19/46/11 49/13/11 55/35/17
f 27/47/20 20/48/18 47/40/18 51/28/20
f 73/49/10 23/50/21 50/31/21 75/14/10
f 12/51/19 27/47/20 51/28/20 53/27/19
f 23/50/21 32/43/22 52/32/22 50/31/21
f 44/52/21 37/34/21 39/33/22 46/42/22
f 44/52/21 77/53/10 76/11/10 37/34/21
f 65/8/8 70/1/1 59/4/4 18/9/8
f 43/54/11 69/23/17 54/26/17 36/12/11
f 47/40/18 55/35/17 54/26/17 33/25/18
f 20/48/18 57/45/17 55/35/17 47/40/18
f 77/53/10 43/54/11 36/12/11 76/11/10
f 19/46/11 73/49/10 75/14/10 49/13/11
f 37/34/21 76/11/10 75/14/10 50/31/21
f 66/18/14 21/17/14 71/6/6 78/5/5
f 146/55/24 140/56/25 87/57/26 136/58/27
f 154/59/28 147/60/29 87/57/26 140/56/25
f 143/61/30 141/62/31 98/63/31 108/64/32
f 152/65/33 115/66/34 126/67/34 151/68/33
f 144/69/35 110/70/36 101/71/37 142/72/37
f 139/73/38 143/61/30 108/64/32 85/74/38
f 62/19/15 1/20/15 110/70/36 144/69/35
f 145/75/39 120/76/40 113/77/40 131/78/39
f 130/79/41 128/80/42 117/81/42 114/82/41
f 127/83/43 129/84/44 118/85/44 116/86/43
f 132/87/39 126/67/34 115/66/34 131/78/39
f 129/84/44 53/88/19 35/89/19 118/85/44
f 120/76/40 123/90/42 117/81/42 113/77/40
f 114/82/41 117/81/42 123/90/42 119/91/41
f 128/80/42 125/92/40 113/77/40 117/81/42
f 118/85/44 35/89/19 40/93/19 124/94/44
f 112/95/44 12/96/19 53/88/19 129/84/44
f 134/97/39 99/98/34 126/67/34 132/87/39
f 107/99/42 100/100/40 125/92/40 128/80/42
f 149/101/33 103/102/43 127/83/43 151/68/33
f 93/103/41 107/99/42 128/80/42 130/79/41
f 103/102/43 112/95/44 129/84/44 127/83/43
f 122/104/43 116/86/43 118/85/44 124/94/44
f 122/104/43 153/105/33 152/65/33 116/86/43
f 141/62/31 146/55/24 136/58/27 98/63/31
f 121/106/34 145/75/39 131/78/39 115/66/34
f 125/92/40 132/87/39 131/78/39 113/77/40
f 100/100/40 134/97/39 132/87/39 125/92/40
f 153/105/33 121/106/34 115/66/34 152/65/33
f 99/98/34 149/101/33 151/68/33 126/67/34
f 116/86/43 152/65/33 151/68/33 127/83/43
f 142/72/37 101/71/37 147/60/29 154/59/28
usemtl MI_Trim_01
f 8/107/45 58/108/45 70/109/45 65/110/45
f 22/111/45 66/112/45 78/113/45 72/114/45
f 9/115/45 64/116/45 68/117/45 31/118/45
f 5/119/45 26/120/45 67/121/45 62/122/45
f 31/118/45 68/117/45 66/112/45 22/111/45
f 26/120/45 8/107/45 65/110/45 67/121/45
f 72/114/45 78/113/45 63/123/45 6/124/45
f 58/108/45 6/124/45 63/123/45 70/109/45
f 91/125/45 135/126/45 146/127/45 141/128/45
f 102/129/45 142/130/45 154/131/45 148/132/45
f 5/119/45 62/122/45 144/133/45 111/134/45
f 89/135/45 106/136/45 143/137/45 139/138/45
f 111/134/45 144/133/45 142/130/45 102/129/45
f 106/136/45 91/125/45 141/128/45 143/137/45
f 148/132/45 154/131/45 140/139/45 90/140/45
f 135/126/45 90/140/45 140/139/45 146/127/45
usemtl M_Decal_White
s off
f 80/141/46 83/142/46 84/143/46 79/144/46
f 81/145/23 60/146/23 61/147/23 82/148/23
f 156/149/47 159/150/47 160/151/47 155/152/47
f 157/153/48 137/154/48 138/155/48 158/156/48
s 1
f 14/157/49 16/158/49 17/159/49 15/160/49
f 94/161/50 96/162/50 97/163/50 95/164/50
usemtl MI_Trim_02_Color
f 56/165/51 4/166/52 6/167/52 58/168/53
f 74/169/54 72/170/55 6/167/52 4/166/52
f 46/42/22 42/41/23 11/171/23 29/172/22
f 45/38/20 41/24/18 10/173/18 25/174/20
f 25/175/56 10/176/57 8/177/57 26/178/56
f 29/179/58 31/180/58 22/181/59 24/182/59
f 2/183/60 25/175/56 26/178/56 5/184/60
f 40/39/19 45/38/20 25/174/20 2/185/19
f 11/186/61 9/187/61 31/180/58 29/179/58
f 44/52/21 46/42/22 29/172/22 24/188/21
f 56/189/17 10/173/18 41/24/18 69/23/17
f 74/190/10 77/53/10 44/52/21 24/188/21
f 10/176/57 56/165/51 58/168/53 8/177/57
f 4/191/11 56/189/17 69/23/17 43/54/11
f 4/191/11 43/54/11 77/53/10 74/190/10
f 24/182/59 22/181/59 72/170/55 74/169/54
f 133/192/62 88/193/63 90/194/63 135/195/64
f 150/196/65 148/197/66 90/194/63 88/193/63
f 124/94/44 40/93/19 2/198/19 109/199/44
f 123/90/42 120/76/40 92/200/40 105/201/42
f 105/202/67 92/203/68 91/204/68 106/205/67
f 109/206/69 111/207/69 102/208/70 104/209/71
f 86/210/72 105/202/67 106/205/67 89/211/72
f 119/91/41 123/90/42 105/201/42 86/212/41
f 2/183/60 5/184/60 111/207/69 109/206/69
f 122/104/43 124/94/44 109/199/44 104/213/43
f 133/214/39 92/200/40 120/76/40 145/75/39
f 150/215/33 153/105/33 122/104/43 104/213/43
f 92/203/68 133/192/62 135/195/64 91/204/68
f 88/216/34 133/214/39 145/75/39 121/106/34
f 88/216/34 121/106/34 153/105/33 150/215/33
f 104/209/71 102/208/70 148/197/66 150/196/65
