# Blender v3.6.0 OBJ File: 'AllModules_Unreal.blend'
# www.blender.org
mtllib WallPipe_Corner_Round_Outer.mtl
o WallPipe_Corner_Round_Outer_Plane.040
v -2.828181 0.000000 -2.828196
v -1.530420 0.000000 -3.694706
v -2.828181 0.265611 -2.828196
v -1.530420 0.265611 -3.694705
v 0.000002 0.000000 -4.000000
v 0.000002 0.265611 -4.000000
v -2.686760 0.500000 -2.686774
v 0.000001 0.500000 -3.800000
v -1.453868 2.875976 -3.509937
v 0.000001 0.656889 -4.000000
v -2.828180 3.000000 -2.828195
v 0.000002 3.000000 -3.999999
v -2.686759 2.875976 -2.686774
v 0.000002 2.875975 -3.800000
v -2.828180 2.755010 -2.828195
v 0.000002 2.755009 -3.999999
v -1.486660 0.388324 -3.589085
v -1.498621 0.396697 -3.617955
v -1.507378 0.419574 -3.639089
v -1.510583 0.450824 -3.646825
v -1.507378 0.482074 -3.639089
v -1.498621 0.504950 -3.617955
v -1.486660 0.513324 -3.589085
v 0.000001 0.380827 -3.885672
v 0.000001 0.390204 -3.920671
v 0.000001 0.415825 -3.946291
v 0.000001 0.450824 -3.955669
v 0.000001 0.485822 -3.946291
v 0.000001 0.511443 -3.920671
v 0.000001 0.520821 -3.885672
v -0.085307 0.388324 -3.879790
v -0.085987 0.396697 -3.911032
v -0.086484 0.419574 -3.933903
v -0.086666 0.450824 -3.942275
v -0.086484 0.482074 -3.933903
v -0.085987 0.504950 -3.911032
v -0.085307 0.513324 -3.879790
v -0.081322 0.380827 -3.880063
v -0.082048 0.390204 -3.915054
v -0.082579 0.415825 -3.940669
v -0.082773 0.450824 -3.950045
v -0.082579 0.485822 -3.940669
v -0.082048 0.511443 -3.915054
v -0.081322 0.520821 -3.880063
v -0.126353 0.388324 -3.876978
v -0.127360 0.396697 -3.908212
v -0.128096 0.419574 -3.931077
v -0.128366 0.450824 -3.939446
v -0.128096 0.482074 -3.931077
v -0.127359 0.504950 -3.908212
v -0.126353 0.513324 -3.876978
v -0.099758 0.388324 -3.878798
v -0.100553 0.396697 -3.910038
v -0.101135 0.419574 -3.932907
v -0.101348 0.450824 -3.941278
v -0.101135 0.482074 -3.932907
v -0.100553 0.504950 -3.910038
v -0.099758 0.513324 -3.878798
v -0.102595 0.383083 -3.878604
v -0.123515 0.383083 -3.877172
v -0.103481 0.392158 -3.912463
v -0.124581 0.392158 -3.911026
v -0.104129 0.416953 -3.937250
v -0.125362 0.416953 -3.935809
v -0.104367 0.450824 -3.946322
v -0.125647 0.450824 -3.944880
v -0.104129 0.484694 -3.937250
v -0.125362 0.484694 -3.935809
v -0.103481 0.509489 -3.912463
v -0.124581 0.509489 -3.911026
v -0.102595 0.518565 -3.878604
v -0.123515 0.518565 -3.877172
v -2.747339 0.380827 -2.747353
v -2.772087 0.390204 -2.772101
v -2.790203 0.415825 -2.790218
v -2.796834 0.450824 -2.796849
v -2.790203 0.485822 -2.790218
v -2.772087 0.511443 -2.772101
v -2.747339 0.520821 -2.747353
v -2.683079 0.388324 -2.803742
v -2.704687 0.396697 -2.826318
v -2.720505 0.419574 -2.842844
v -2.726295 0.450824 -2.848894
v -2.720505 0.482074 -2.842844
v -2.704687 0.504950 -2.826318
v -2.683079 0.513324 -2.803742
v -2.686080 0.380827 -2.801107
v -2.710305 0.390204 -2.826366
v -2.728040 0.415825 -2.844857
v -2.734531 0.450824 -2.851625
v -2.728040 0.485822 -2.844857
v -2.710305 0.511443 -2.826366
v -2.686080 0.520821 -2.801107
v -2.652175 0.388324 -2.830887
v -2.673543 0.396697 -2.853689
v -2.689186 0.419574 -2.870382
v -2.694912 0.450824 -2.876492
v -2.689186 0.482074 -2.870382
v -2.673543 0.504950 -2.853689
v -2.652175 0.513324 -2.830887
v -2.672197 0.388324 -2.813298
v -2.693721 0.396697 -2.835954
v -2.709478 0.419574 -2.852539
v -2.715245 0.450824 -2.858610
v -2.709478 0.482074 -2.852539
v -2.693721 0.504950 -2.835954
v -2.672197 0.513324 -2.813298
v -2.670062 0.383082 -2.815173
v -2.654312 0.383082 -2.829009
v -2.693372 0.392158 -2.839746
v -2.677490 0.392158 -2.853707
v -2.710437 0.416953 -2.857735
v -2.694458 0.416953 -2.871787
v -2.716683 0.450824 -2.864319
v -2.700668 0.450824 -2.878405
v -2.710437 0.484694 -2.857735
v -2.694458 0.484694 -2.871787
v -2.693372 0.509489 -2.839746
v -2.677490 0.509489 -2.853707
v -2.670062 0.518565 -2.815173
v -2.654312 0.518565 -2.829009
v -2.217699 2.755010 -3.319238
v -2.217699 2.438357 -3.319238
v -2.828180 2.438357 -2.828195
v 0.000001 1.104416 -4.000000
v -0.778796 1.104416 -3.915198
v -0.778796 2.438357 -3.915197
v -2.106476 2.875975 -3.153017
v 0.000001 2.438357 -4.000000
v -1.443702 0.262142 -3.377022
v -1.443702 0.517944 -3.377022
v -1.365895 0.262142 -3.406009
v -1.365895 0.517944 -3.406009
v -1.554857 0.543330 -3.636887
v -1.471087 0.543330 -3.668344
v -1.531875 0.262142 -3.583158
v -1.551671 0.312478 -3.629438
v -1.468072 0.312478 -3.660824
v -1.449338 0.262142 -3.614104
v -1.480350 0.365509 -3.691444
v -1.564646 0.365509 -3.659770
v -1.441536 0.453215 -3.416517
v -1.395341 0.453215 -3.432328
v -1.548302 0.453215 -3.669444
v -1.498735 0.453215 -3.686652
v -1.441536 0.701389 -3.416517
v -1.395341 0.701389 -3.432328
v -1.498735 0.701389 -3.686652
v -1.548302 0.701389 -3.669444
v -2.828181 1.104416 -2.828195
v -2.217699 3.000000 -3.319238
v -2.828181 0.656889 -2.828196
v -2.217699 0.656889 -3.319238
v -2.217699 1.104416 -3.319238
v -1.530420 2.755010 -3.694705
v -1.530420 2.438357 -3.694705
v -1.530420 1.104416 -3.694706
v -1.530420 3.000000 -3.694705
v -2.106477 0.500000 -3.153017
v -1.453868 0.500000 -3.509936
v -0.740034 0.500000 -3.718990
v -0.778796 0.656889 -3.915198
v -1.530420 0.656889 -3.694706
v -0.778796 3.000001 -3.915197
v -0.740034 2.875976 -3.718990
v -0.778796 2.755009 -3.915197
v -2.217699 0.000000 -3.319238
v -2.217699 0.265611 -3.319238
v -0.778796 0.000000 -3.915198
v -0.778796 0.265611 -3.915198
v -2.159601 0.388324 -3.220516
v -2.177024 0.396697 -3.246459
v -2.189778 0.419574 -3.265450
v -2.194446 0.450824 -3.272402
v -2.189778 0.482074 -3.265450
v -2.177024 0.504950 -3.246459
v -2.159601 0.513324 -3.220516
v -0.756638 0.388324 -3.803037
v -0.762695 0.396697 -3.833695
v -0.767129 0.419574 -3.856138
v -0.768751 0.450824 -3.864353
v -0.767129 0.482074 -3.856138
v -0.762695 0.504950 -3.833695
v -0.756638 0.513324 -3.803037
v -2.533592 3.000000 -3.087502
v -2.533592 2.438357 -3.087502
v -2.533592 1.104416 -3.087502
v -2.533593 0.656889 -3.087503
v -2.406645 2.875975 -2.932957
v -2.406645 0.500000 -2.932957
v -2.533592 2.755010 -3.087502
v -2.533593 0.000000 -3.087503
v -2.533593 0.265611 -3.087502
v -1.882587 0.000000 -3.522007
v -1.882587 0.265611 -3.522006
v -1.882587 2.755010 -3.522006
v -1.882587 2.438357 -3.522006
v -1.788212 2.875975 -3.345674
v -1.882587 3.000000 -3.522006
v -1.882587 1.104416 -3.522007
v -1.788212 0.500000 -3.345674
v -1.882587 0.656889 -3.522007
v -1.159708 0.000000 -3.823517
v -1.159708 0.265611 -3.823516
v -1.101787 2.875976 -3.632087
v -1.159708 2.438357 -3.823516
v -1.159708 1.104416 -3.823517
v -1.101787 0.500000 -3.632087
v -1.159708 0.656889 -3.823516
v -1.159708 3.000000 -3.823516
v -1.159708 2.755010 -3.823516
v -0.372109 0.500000 -3.774587
v -0.372109 2.875976 -3.774588
v -0.391475 2.755009 -3.973648
v -0.391475 2.438356 -3.973648
v -0.391475 1.104416 -3.973648
v -0.391475 0.656889 -3.973648
v -0.391475 3.000000 -3.973648
v -0.391475 0.000000 -3.973649
v -0.391475 0.265611 -3.973648
v -1.126598 0.388324 -3.714088
v -1.135648 0.396697 -3.743999
v -1.142273 0.419574 -3.765895
v -1.144698 0.450824 -3.773910
v -1.142273 0.482074 -3.765895
v -1.135648 0.504950 -3.743999
v -1.126598 0.513324 -3.714088
v -0.380211 0.388324 -3.859870
v -0.383235 0.396697 -3.890973
v -0.385449 0.419574 -3.913743
v -0.386259 0.450824 -3.922077
v -0.385449 0.482074 -3.913743
v -0.383235 0.504950 -3.890973
v -0.380211 0.513324 -3.859870
v -1.831597 0.388324 -3.419726
v -1.846367 0.396697 -3.447265
v -1.857179 0.419574 -3.467425
v -1.861136 0.450824 -3.474805
v -1.857179 0.482074 -3.467425
v -1.846367 0.504950 -3.447265
v -1.831597 0.513324 -3.419726
v -2.463223 0.388324 -2.997220
v -2.483077 0.396697 -3.021352
v -2.497611 0.419574 -3.039019
v -2.502930 0.450824 -3.045485
v -2.497611 0.482074 -3.039019
v -2.483077 0.504950 -3.021352
v -2.463223 0.513324 -2.997220
v -4.000001 0.000000 -0.000020
v -3.694700 0.000000 -1.530441
v -4.000001 0.265611 -0.000020
v -3.694700 0.265611 -1.530441
v -3.800001 0.500000 -0.000019
v -3.509931 2.875975 -1.453888
v -4.000000 3.000001 -0.000020
v -3.800001 2.875976 -0.000019
v -4.000000 2.755010 -0.000020
v -3.589079 0.388324 -1.486680
v -3.617949 0.396697 -1.498642
v -3.639084 0.419574 -1.507398
v -3.646820 0.450824 -1.510603
v -3.639084 0.482074 -1.507398
v -3.617949 0.504950 -1.498642
v -3.589079 0.513323 -1.486680
v -2.803728 0.388324 -2.683094
v -2.826303 0.396697 -2.704702
v -2.842830 0.419574 -2.720520
v -2.848879 0.450824 -2.726310
v -2.842830 0.482074 -2.720520
v -2.826303 0.504950 -2.704702
v -2.803728 0.513324 -2.683094
v -2.801092 0.380827 -2.686097
v -2.826351 0.390204 -2.710322
v -2.844842 0.415825 -2.728056
v -2.851610 0.450824 -2.734548
v -2.844842 0.485822 -2.728056
v -2.826351 0.511443 -2.710322
v -2.801092 0.520821 -2.686097
v -2.830873 0.388324 -2.652190
v -2.853675 0.396697 -2.673558
v -2.870368 0.419574 -2.689201
v -2.876477 0.450824 -2.694927
v -2.870368 0.482074 -2.689201
v -2.853675 0.504950 -2.673558
v -2.830873 0.513324 -2.652190
v -2.813282 0.388324 -2.672214
v -2.835938 0.396697 -2.693738
v -2.852524 0.419574 -2.709494
v -2.858594 0.450824 -2.715261
v -2.852524 0.482074 -2.709494
v -2.835938 0.504950 -2.693738
v -2.813282 0.513324 -2.672214
v -2.815161 0.383082 -2.670075
v -2.828995 0.383082 -2.654327
v -2.839734 0.392158 -2.693386
v -2.853693 0.392158 -2.677505
v -2.857722 0.416953 -2.710451
v -2.871773 0.416953 -2.694473
v -2.864306 0.450824 -2.716697
v -2.878390 0.450824 -2.700684
v -2.857722 0.484694 -2.710451
v -2.871773 0.484694 -2.694473
v -2.839734 0.509489 -2.693386
v -2.853693 0.509489 -2.677505
v -2.815161 0.518565 -2.670075
v -2.828995 0.518565 -2.654327
v -3.885674 0.380827 -0.000020
v -3.920672 0.390204 -0.000020
v -3.946293 0.415825 -0.000020
v -3.955671 0.450824 -0.000020
v -3.946293 0.485822 -0.000020
v -3.920672 0.511443 -0.000020
v -3.885674 0.520821 -0.000020
v -3.879791 0.388324 -0.085328
v -3.911033 0.396697 -0.086008
v -3.933904 0.419574 -0.086506
v -3.942276 0.450824 -0.086688
v -3.933904 0.482074 -0.086506
v -3.911033 0.504950 -0.086008
v -3.879791 0.513324 -0.085328
v -3.880064 0.380827 -0.081343
v -3.915055 0.390204 -0.082069
v -3.940670 0.415825 -0.082600
v -3.950046 0.450824 -0.082795
v -3.940670 0.485822 -0.082600
v -3.915055 0.511443 -0.082069
v -3.880064 0.520821 -0.081343
v -3.876979 0.388324 -0.126372
v -3.908213 0.396697 -0.127379
v -3.931078 0.419574 -0.128116
v -3.939447 0.450824 -0.128386
v -3.931078 0.482074 -0.128116
v -3.908213 0.504950 -0.127379
v -3.876979 0.513324 -0.126372
v -3.878799 0.388324 -0.099778
v -3.910039 0.396697 -0.100572
v -3.932909 0.419574 -0.101154
v -3.941279 0.450824 -0.101367
v -3.932909 0.482074 -0.101154
v -3.910039 0.504950 -0.100572
v -3.878799 0.513324 -0.099778
v -3.878605 0.383082 -0.102616
v -3.877173 0.383082 -0.123538
v -3.912464 0.392158 -0.103502
v -3.911027 0.392158 -0.124604
v -3.937251 0.416953 -0.104151
v -3.935810 0.416953 -0.125385
v -3.946323 0.450824 -0.104388
v -3.944881 0.450824 -0.125671
v -3.937251 0.484694 -0.104151
v -3.935810 0.484694 -0.125385
v -3.912464 0.509489 -0.103502
v -3.911027 0.509489 -0.124604
v -3.878605 0.518565 -0.102616
v -3.877173 0.518565 -0.123538
v -3.915195 2.755010 -0.778818
v -3.915194 2.438356 -0.778818
v -4.000001 2.438357 -0.000020
v -3.319227 1.104416 -2.217717
v -3.319227 2.438357 -2.217716
v -3.718987 2.875975 -0.740054
v -3.406003 0.262142 -1.365914
v -3.406003 0.517944 -1.365914
v -3.377014 0.262142 -1.443720
v -3.377014 0.517944 -1.443720
v -3.668338 0.543330 -1.471108
v -3.636879 0.543330 -1.554877
v -3.614098 0.262142 -1.449358
v -3.660818 0.312478 -1.468092
v -3.629430 0.312478 -1.551690
v -3.583150 0.262142 -1.531894
v -3.659762 0.365509 -1.564665
v -3.691439 0.365509 -1.480371
v -3.432322 0.453215 -1.395362
v -3.416512 0.453215 -1.441555
v -3.686645 0.453215 -1.498758
v -3.669438 0.453215 -1.548322
v -3.432322 0.701389 -1.395362
v -3.416511 0.701389 -1.441555
v -3.669438 0.701389 -1.548322
v -3.686645 0.701389 -1.498758
v -4.000001 1.104416 -0.000020
v -3.915194 3.000000 -0.778818
v -4.000001 0.656889 -0.000020
v -3.915195 0.656889 -0.778818
v -3.915195 1.104416 -0.778818
v -3.694700 2.755010 -1.530441
v -3.694700 2.438356 -1.530441
v -3.694700 1.104416 -1.530441
v -3.694700 3.000000 -1.530441
v -3.718987 0.500000 -0.740054
v -3.509931 0.500000 -1.453888
v -3.153007 0.500000 -2.106492
v -3.319228 0.656889 -2.217715
v -3.694700 0.656889 -1.530441
v -3.319227 3.000000 -2.217716
v -3.153006 2.875975 -2.106493
v -3.319227 2.755009 -2.217716
v -3.915195 0.000000 -0.778818
v -3.915195 0.265611 -0.778818
v -3.319227 0.000000 -2.217717
v -3.319227 0.265611 -2.217717
v -3.804362 0.388324 -0.750180
v -3.835029 0.396697 -0.756184
v -3.857480 0.419574 -0.760580
v -3.865697 0.450824 -0.762188
v -3.857480 0.482074 -0.760580
v -3.835029 0.504950 -0.756184
v -3.804362 0.513324 -0.750180
v -3.224208 0.388324 -2.154137
v -3.250180 0.396697 -2.171516
v -3.269193 0.419574 -2.184238
v -3.276152 0.450824 -2.188894
v -3.269193 0.482074 -2.184238
v -3.250180 0.504950 -2.171516
v -3.224208 0.513324 -2.154137
v -3.973642 3.000000 -0.391588
v -3.973642 2.438357 -0.391588
v -3.973642 1.104416 -0.391588
v -3.973643 0.656889 -0.391588
v -3.774583 2.875976 -0.372217
v -3.774583 0.500000 -0.372217
v -3.973642 2.755010 -0.391588
v -3.973643 0.000000 -0.391588
v -3.973643 0.265611 -0.391588
v -3.823512 0.000000 -1.159727
v -3.823512 0.265611 -1.159727
v -3.823511 2.755010 -1.159727
v -3.823511 2.438357 -1.159727
v -3.632083 2.875975 -1.101805
v -3.823511 3.000000 -1.159726
v -3.823512 1.104416 -1.159727
v -3.632083 0.500000 -1.101805
v -3.823512 0.656889 -1.159727
v -3.521996 0.000000 -1.882608
v -3.521996 0.265611 -1.882608
v -3.345664 2.875976 -1.788232
v -3.521997 2.438356 -1.882606
v -3.521997 1.104416 -1.882607
v -3.345665 0.500000 -1.788230
v -3.521997 0.656889 -1.882607
v -3.521996 3.000000 -1.882608
v -3.521997 2.755009 -1.882606
v -2.932885 0.500000 -2.406726
v -2.932886 2.875975 -2.406726
v -3.087427 2.755009 -2.533678
v -3.087427 2.438357 -2.533678
v -3.087427 1.104416 -2.533679
v -3.087427 0.656889 -2.533679
v -3.087427 3.000000 -2.533678
v -3.087428 0.000000 -2.533679
v -3.087427 0.265611 -2.533679
v -3.421199 0.388324 -1.828658
v -3.448750 0.396697 -1.843404
v -3.468920 0.419574 -1.854199
v -3.476302 0.450824 -1.858150
v -3.468920 0.482074 -1.854199
v -3.448750 0.504950 -1.843404
v -3.421199 0.513324 -1.828658
v -2.998956 0.388324 -2.461253
v -3.023102 0.396697 -2.481091
v -3.040779 0.419574 -2.495613
v -3.047249 0.450824 -2.500928
v -3.040779 0.482074 -2.495613
v -3.023102 0.504950 -2.481091
v -2.998956 0.513323 -2.461253
v -3.715172 0.388324 -1.123496
v -3.745091 0.396697 -1.132521
v -3.766992 0.419574 -1.139127
v -3.775009 0.450824 -1.141546
v -3.766992 0.482074 -1.139127
v -3.745091 0.504950 -1.132521
v -3.715172 0.513324 -1.123496
v -3.860047 0.388324 -0.377591
v -3.891152 0.396697 -0.380594
v -3.913923 0.419574 -0.382793
v -3.922257 0.450824 -0.383598
v -3.913923 0.482074 -0.382793
v -3.891152 0.504950 -0.380594
v -3.860047 0.513324 -0.377591
vt 0.753356 0.408906
vt 0.837782 0.408906
vt 0.837782 0.362340
vt 0.753356 0.362340
vt 1.077276 0.750453
vt 1.159675 0.750453
vt 1.159675 0.697079
vt 1.077276 0.697079
vt 1.077276 0.688858
vt 1.159675 0.688858
vt 1.159675 0.751199
vt 1.077276 0.751199
vt 0.455026 0.569623
vt 0.455026 0.579777
vt 0.518179 0.579777
vt 0.518179 0.569623
vt 0.455026 0.589931
vt 0.518179 0.589931
vt 0.455026 0.600085
vt 0.518179 0.600085
vt 0.455026 0.610239
vt 0.518179 0.610239
vt 0.455026 0.620393
vt 0.518179 0.620393
vt 0.455026 0.630547
vt 0.518179 0.630547
vt 0.500917 0.365751
vt 0.460363 0.365751
vt 0.460363 0.371133
vt 0.500917 0.371133
vt 0.419809 0.365751
vt 0.419809 0.371133
vt 0.379255 0.365751
vt 0.379255 0.371133
vt 0.338701 0.365752
vt 0.338701 0.371133
vt 0.298147 0.365751
vt 0.298147 0.371133
vt 0.257593 0.365751
vt 0.257593 0.371133
vt 0.455026 0.569623
vt 0.518179 0.569623
vt 0.518179 0.579777
vt 0.455026 0.579777
vt 0.518179 0.589931
vt 0.455026 0.589931
vt 0.518179 0.600085
vt 0.455026 0.600085
vt 0.518179 0.610239
vt 0.455026 0.610239
vt 0.518179 0.620393
vt 0.455026 0.620393
vt 0.518179 0.630547
vt 0.455026 0.630547
vt 0.500917 0.365751
vt 0.500917 0.371133
vt 0.460363 0.371133
vt 0.460363 0.365751
vt 0.419809 0.371133
vt 0.419809 0.365751
vt 0.379255 0.371133
vt 0.379255 0.365751
vt 0.338701 0.371133
vt 0.338701 0.365752
vt 0.298147 0.371133
vt 0.298147 0.365751
vt 0.257593 0.371133
vt 0.257593 0.365751
vt 0.246664 0.408906
vt 0.331109 0.408906
vt 0.331109 0.362340
vt 0.246664 0.362340
vt 0.415555 0.408906
vt 0.500000 0.408906
vt 0.500000 0.362340
vt 0.415555 0.362340
vt 0.584445 0.408906
vt 0.668891 0.408906
vt 0.668891 0.362340
vt 0.584445 0.362340
vt 0.587932 0.688858
vt 0.665163 0.688858
vt 0.665163 0.751199
vt 0.587932 0.751199
vt 0.747581 0.688858
vt 0.830000 0.688858
vt 0.830000 0.751199
vt 0.747581 0.751199
vt 0.912419 0.688858
vt 0.994837 0.688858
vt 0.994837 0.751199
vt 0.912419 0.751199
vt 0.587932 0.750453
vt 0.665163 0.750453
vt 0.665163 0.697079
vt 0.587932 0.697079
vt 0.747581 0.750453
vt 0.830000 0.750453
vt 0.830000 0.697079
vt 0.747581 0.697079
vt 0.912419 0.750453
vt 0.994837 0.750453
vt 0.994837 0.697079
vt 0.912419 0.697079
vt 0.510701 0.750453
vt 0.510701 0.697079
vt 0.510701 0.688858
vt 0.510701 0.751199
vt 0.162218 0.408906
vt 0.162218 0.362340
vt 0.753356 0.408906
vt 0.837782 0.408906
vt 0.837782 0.362340
vt 0.753356 0.362340
vt 1.077276 0.750453
vt 1.159675 0.750453
vt 1.159675 0.697079
vt 1.077276 0.697079
vt 1.077276 0.688858
vt 1.159675 0.688858
vt 1.159675 0.751199
vt 1.077276 0.751199
vt 0.455026 0.569623
vt 0.455026 0.579777
vt 0.518179 0.579777
vt 0.518179 0.569623
vt 0.455026 0.589931
vt 0.518179 0.589931
vt 0.455026 0.600085
vt 0.518179 0.600085
vt 0.455026 0.610239
vt 0.518179 0.610239
vt 0.455026 0.620393
vt 0.518179 0.620393
vt 0.455026 0.630547
vt 0.518179 0.630547
vt 0.500917 0.365751
vt 0.460363 0.365751
vt 0.460363 0.371133
vt 0.500917 0.371133
vt 0.419809 0.365751
vt 0.419809 0.371133
vt 0.379255 0.365751
vt 0.379255 0.371133
vt 0.338701 0.365752
vt 0.338701 0.371133
vt 0.298147 0.365751
vt 0.298147 0.371133
vt 0.257593 0.365751
vt 0.257593 0.371133
vt 0.455026 0.569623
vt 0.518179 0.569623
vt 0.518179 0.579777
vt 0.455026 0.579777
vt 0.518179 0.589931
vt 0.455026 0.589931
vt 0.518179 0.600085
vt 0.455026 0.600085
vt 0.518179 0.610239
vt 0.455026 0.610239
vt 0.518179 0.620393
vt 0.455026 0.620393
vt 0.518179 0.630547
vt 0.455026 0.630547
vt 0.500917 0.365751
vt 0.500917 0.371133
vt 0.460363 0.371133
vt 0.460363 0.365751
vt 0.419809 0.371133
vt 0.419809 0.365751
vt 0.379255 0.371133
vt 0.379255 0.365751
vt 0.338701 0.371133
vt 0.338701 0.365752
vt 0.298147 0.371133
vt 0.298147 0.365751
vt 0.257593 0.371133
vt 0.257593 0.365751
vt 0.246664 0.408906
vt 0.331109 0.408906
vt 0.331109 0.362340
vt 0.246664 0.362340
vt 0.415555 0.408906
vt 0.500000 0.408906
vt 0.500000 0.362340
vt 0.415555 0.362340
vt 0.584445 0.408906
vt 0.668891 0.408906
vt 0.668891 0.362340
vt 0.584445 0.362340
vt 0.587932 0.688858
vt 0.665163 0.688858
vt 0.665163 0.751199
vt 0.587932 0.751199
vt 0.747581 0.688858
vt 0.830000 0.688858
vt 0.830000 0.751199
vt 0.747581 0.751199
vt 0.912419 0.688858
vt 0.994837 0.688858
vt 0.994837 0.751199
vt 0.912419 0.751199
vt 0.587932 0.750453
vt 0.665163 0.750453
vt 0.665163 0.697079
vt 0.587932 0.697079
vt 0.747581 0.750453
vt 0.830000 0.750453
vt 0.830000 0.697079
vt 0.747581 0.697079
vt 0.912419 0.750453
vt 0.994837 0.750453
vt 0.994837 0.697079
vt 0.912419 0.697079
vt 0.510701 0.750453
vt 0.510701 0.697079
vt 0.510701 0.688858
vt 0.510701 0.751199
vt 0.162218 0.408906
vt 0.162218 0.362340
vt 0.429516 0.293475
vt 0.397147 0.293475
vt 0.397147 0.483608
vt 0.429516 0.483608
vt 0.461886 0.293475
vt 0.461886 0.483608
vt 0.494255 0.293475
vt 0.494255 0.483608
vt 0.526625 0.293475
vt 0.526625 0.483608
vt 0.558994 0.293475
vt 0.558994 0.483608
vt 0.591364 0.293475
vt 0.591363 0.483608
vt 0.666232 0.590478
vt 0.666232 0.602610
vt 0.744230 0.602610
vt 0.744230 0.590478
vt 0.666232 0.578347
vt 0.744230 0.578347
vt 0.666232 0.566214
vt 0.744230 0.566215
vt 0.666232 0.554083
vt 0.744230 0.554083
vt 0.666232 0.541951
vt 0.744230 0.541951
vt 0.666232 0.529819
vt 0.744230 0.529819
vt 0.409955 0.965938
vt 0.409955 0.970938
vt 0.454088 0.970938
vt 0.454088 0.965938
vt 0.409955 0.998262
vt 0.409955 0.995137
vt 0.365822 0.995137
vt 0.365822 0.998262
vt 0.498221 0.970938
vt 0.498221 0.965938
vt 0.454088 0.998262
vt 0.454088 0.995137
vt 0.542353 0.970938
vt 0.542353 0.965938
vt 0.498221 0.998262
vt 0.498221 0.995137
vt 0.586486 0.970938
vt 0.586486 0.965938
vt 0.542353 0.998262
vt 0.542353 0.995137
vt 0.586486 0.995137
vt 0.630619 0.995137
vt 0.630619 0.970938
vt 0.365822 0.970938
vt 0.365822 0.965938
vt 0.630619 0.998262
vt 0.586486 0.998262
vt 0.630619 0.965938
vt 0.429516 0.293475
vt 0.429516 0.483608
vt 0.397147 0.483608
vt 0.397147 0.293475
vt 0.461886 0.293475
vt 0.461886 0.483608
vt 0.494255 0.293475
vt 0.494255 0.483608
vt 0.526625 0.293475
vt 0.526625 0.483608
vt 0.558994 0.293475
vt 0.558994 0.483608
vt 0.591364 0.293475
vt 0.591363 0.483608
vt 0.666232 0.590478
vt 0.744230 0.590478
vt 0.744230 0.602610
vt 0.666232 0.602610
vt 0.666232 0.578347
vt 0.744230 0.578347
vt 0.666232 0.566214
vt 0.744230 0.566215
vt 0.666232 0.554083
vt 0.744230 0.554083
vt 0.666232 0.541951
vt 0.744230 0.541951
vt 0.666232 0.529819
vt 0.744230 0.529819
vt 0.409955 0.965938
vt 0.454088 0.965938
vt 0.454088 0.970938
vt 0.409955 0.970938
vt 0.409955 0.998262
vt 0.365822 0.998262
vt 0.365822 0.995137
vt 0.409955 0.995137
vt 0.498221 0.965938
vt 0.498221 0.970938
vt 0.454088 0.998262
vt 0.454088 0.995137
vt 0.542353 0.965938
vt 0.542353 0.970938
vt 0.498221 0.998262
vt 0.498221 0.995137
vt 0.586486 0.965938
vt 0.586486 0.970938
vt 0.542353 0.998262
vt 0.542353 0.995137
vt 0.586486 0.995137
vt 0.630619 0.970938
vt 0.630619 0.995137
vt 0.365822 0.970938
vt 0.365822 0.965938
vt 0.630619 0.998262
vt 0.586486 0.998262
vt 0.630619 0.965938
vt 0.501925 0.997904
vt 0.616774 0.997904
vt 0.616774 0.930211
vt 0.501925 0.930211
vt 0.501925 0.710248
vt 0.404644 0.710248
vt 0.404644 0.661440
vt 0.501925 0.661440
vt 0.501898 0.997904
vt 0.501898 0.930211
vt 0.616774 0.930211
vt 0.616774 0.997904
vt 0.501925 0.661440
vt 0.404644 0.661440
vt 0.404644 0.710248
vt 0.501925 0.710248
vt 0.501948 0.661440
vt 0.501948 0.710248
vt 0.378289 0.985777
vt 0.378289 0.709169
vt 0.256310 0.709169
vt 0.256310 0.985777
vt 0.501925 0.661440
vt 0.501925 0.710248
vt 0.501925 0.997904
vt 0.501925 0.930211
vt 0.622246 0.709169
vt 0.622246 0.985777
vt 0.744224 0.985777
vt 0.744224 0.709169
vt 0.134332 0.985777
vt 0.134332 0.709169
vt 0.866231 0.985777
vt 0.866231 0.709169
vt 0.501925 0.997904
vt 0.501925 0.930211
vt 0.430070 0.529819
vt 0.549234 0.529819
vt 0.549234 0.541951
vt 0.430070 0.541951
vt 0.549234 0.554083
vt 0.430070 0.554083
vt 0.549234 0.566215
vt 0.430070 0.566215
vt 0.549234 0.578347
vt 0.430070 0.578347
vt 0.549234 0.590478
vt 0.430070 0.590478
vt 0.549234 0.602611
vt 0.430070 0.602611
vt 0.430070 0.529819
vt 0.430070 0.541951
vt 0.549234 0.541951
vt 0.549234 0.529819
vt 0.430070 0.554083
vt 0.549234 0.554083
vt 0.430070 0.566215
vt 0.549234 0.566215
vt 0.430070 0.578347
vt 0.549234 0.578347
vt 0.430070 0.590478
vt 0.549234 0.590478
vt 0.430070 0.602611
vt 0.549234 0.602611
vt 0.012354 0.985777
vt 0.012354 0.709169
vt 0.599206 0.661440
vt 0.599206 0.710248
vt 0.387076 0.997904
vt 0.387076 0.930211
vt 0.387076 0.997904
vt 0.387076 0.930211
vt 0.500267 0.985777
vt 0.500267 0.709169
vt 0.599206 0.710248
vt 0.599206 0.661440
vt 0.988181 0.985777
vt 0.988181 0.709169
vt 0.599206 0.661440
vt 0.599206 0.710248
vt 0.387076 0.997904
vt 0.387076 0.930211
vt 0.310906 0.590478
vt 0.310906 0.602611
vt 0.310906 0.578347
vt 0.310906 0.566215
vt 0.310906 0.554083
vt 0.310906 0.541951
vt 0.310906 0.529819
vt 0.429516 0.293475
vt 0.397147 0.293475
vt 0.461886 0.293475
vt 0.494255 0.293475
vt 0.526625 0.293475
vt 0.558994 0.293475
vt 0.591364 0.293475
vt 0.666232 0.590478
vt 0.666232 0.602610
vt 0.744230 0.602610
vt 0.744230 0.590478
vt 0.666232 0.578347
vt 0.744230 0.578347
vt 0.666232 0.566214
vt 0.744230 0.566215
vt 0.666232 0.554083
vt 0.744230 0.554083
vt 0.666232 0.541951
vt 0.744230 0.541951
vt 0.666232 0.529819
vt 0.744230 0.529819
vt 0.409955 0.965938
vt 0.409955 0.970938
vt 0.454088 0.970938
vt 0.454088 0.965938
vt 0.409955 0.998262
vt 0.409955 0.995137
vt 0.365822 0.995137
vt 0.365822 0.998262
vt 0.498221 0.970938
vt 0.498221 0.965938
vt 0.454088 0.998262
vt 0.454088 0.995137
vt 0.542353 0.970938
vt 0.542353 0.965938
vt 0.498221 0.998262
vt 0.498221 0.995137
vt 0.586486 0.970938
vt 0.586486 0.965938
vt 0.542353 0.998262
vt 0.542353 0.995137
vt 0.586486 0.995137
vt 0.630619 0.995137
vt 0.630619 0.970938
vt 0.365822 0.970938
vt 0.365822 0.965938
vt 0.630619 0.998262
vt 0.586486 0.998262
vt 0.630619 0.965938
vt 0.429516 0.293475
vt 0.429516 0.483608
vt 0.397147 0.483608
vt 0.397147 0.293475
vt 0.461886 0.293475
vt 0.461886 0.483608
vt 0.494255 0.293475
vt 0.494255 0.483608
vt 0.526625 0.293475
vt 0.526625 0.483608
vt 0.558994 0.293475
vt 0.558994 0.483608
vt 0.591364 0.293475
vt 0.591363 0.483608
vt 0.666232 0.590478
vt 0.744230 0.590478
vt 0.744230 0.602610
vt 0.666232 0.602610
vt 0.666232 0.578347
vt 0.744230 0.578347
vt 0.666232 0.566214
vt 0.744230 0.566215
vt 0.666232 0.554083
vt 0.744230 0.554083
vt 0.666232 0.541951
vt 0.744230 0.541951
vt 0.666232 0.529819
vt 0.744230 0.529819
vt 0.409955 0.965938
vt 0.454088 0.965938
vt 0.454088 0.970938
vt 0.409955 0.970938
vt 0.409955 0.998262
vt 0.365822 0.998262
vt 0.365822 0.995137
vt 0.409955 0.995137
vt 0.498221 0.965938
vt 0.498221 0.970938
vt 0.454088 0.998262
vt 0.454088 0.995137
vt 0.542353 0.965938
vt 0.542353 0.970938
vt 0.498221 0.998262
vt 0.498221 0.995137
vt 0.586486 0.965938
vt 0.586486 0.970938
vt 0.542353 0.998262
vt 0.542353 0.995137
vt 0.586486 0.995137
vt 0.630619 0.970938
vt 0.630619 0.995137
vt 0.365822 0.970938
vt 0.365822 0.965938
vt 0.630619 0.998262
vt 0.586486 0.998262
vt 0.630619 0.965938
vt 0.501925 0.997904
vt 0.616774 0.997904
vt 0.616774 0.930211
vt 0.501925 0.930211
vt 0.501925 0.710248
vt 0.404644 0.710248
vt 0.404644 0.661440
vt 0.501925 0.661440
vt 0.501898 0.997904
vt 0.501898 0.930211
vt 0.616774 0.930211
vt 0.616774 0.997904
vt 0.501925 0.661440
vt 0.404644 0.661440
vt 0.404644 0.710248
vt 0.501925 0.710248
vt 0.501948 0.661440
vt 0.501948 0.710248
vt 0.378289 0.985777
vt 0.378289 0.709169
vt 0.256310 0.709169
vt 0.256310 0.985777
vt 0.501925 0.661440
vt 0.501925 0.710248
vt 0.501925 0.997904
vt 0.501925 0.930211
vt 0.622246 0.709169
vt 0.622246 0.985777
vt 0.744224 0.985777
vt 0.744224 0.709169
vt 0.134332 0.985777
vt 0.134332 0.709169
vt 0.866231 0.985777
vt 0.866231 0.709169
vt 0.501925 0.997904
vt 0.501925 0.930211
vt 0.430070 0.529819
vt 0.549234 0.529819
vt 0.549234 0.541951
vt 0.430070 0.541951
vt 0.549234 0.554083
vt 0.430070 0.554083
vt 0.549234 0.566215
vt 0.430070 0.566215
vt 0.549234 0.578347
vt 0.430070 0.578347
vt 0.549234 0.590478
vt 0.430070 0.590478
vt 0.549234 0.602611
vt 0.430070 0.602611
vt 0.430070 0.529819
vt 0.430070 0.541951
vt 0.549234 0.541951
vt 0.549234 0.529819
vt 0.430070 0.554083
vt 0.549234 0.554083
vt 0.430070 0.566215
vt 0.549234 0.566215
vt 0.430070 0.578347
vt 0.549234 0.578347
vt 0.430070 0.590478
vt 0.549234 0.590478
vt 0.430070 0.602611
vt 0.549234 0.602611
vt 0.012354 0.985777
vt 0.012354 0.709169
vt 0.599206 0.661440
vt 0.599206 0.710248
vt 0.387076 0.997904
vt 0.387076 0.930211
vt 0.387076 0.997904
vt 0.387076 0.930211
vt 0.500267 0.985777
vt 0.500267 0.709169
vt 0.599206 0.710248
vt 0.599206 0.661440
vt 0.988181 0.985777
vt 0.988181 0.709169
vt 0.310906 0.590478
vt 0.310906 0.602611
vt 0.310906 0.578347
vt 0.310906 0.566215
vt 0.310906 0.554083
vt 0.310906 0.541951
vt 0.310906 0.529819
vt 0.625000 0.500000
vt 0.875000 0.500000
vt 0.875000 0.750000
vt 0.625000 0.750000
vt 0.625000 0.500000
vt 0.625000 0.750000
vt 0.875000 0.750000
vt 0.875000 0.500000
vt 0.625000 0.500000
vt 0.875000 0.500000
vt 0.875000 0.750000
vt 0.625000 0.750000
vt 0.625000 0.500000
vt 0.625000 0.750000
vt 0.875000 0.750000
vt 0.875000 0.500000
vt 0.558140 0.281270
vt 0.655196 0.281270
vt 0.655196 0.222317
vt 0.558140 0.222317
vt 0.558140 0.311098
vt 0.655196 0.311098
vt 0.558140 0.281270
vt 0.558140 0.222317
vt 0.558140 0.311098
vt 0.364028 0.311098
vt 0.461084 0.311098
vt 0.461084 0.281270
vt 0.364028 0.281270
vt 0.461084 0.222317
vt 0.364028 0.222317
vt 0.364005 0.311098
vt 0.364005 0.281270
vt 0.461084 0.281270
vt 0.461084 0.311098
vt 0.364005 0.222317
vt 0.461084 0.222317
vt 0.266972 0.281270
vt 0.266972 0.222317
vt 0.266972 0.311098
vt 0.266972 0.281270
vt 0.266972 0.222317
vt 0.266972 0.311098
vt 0.558140 0.281270
vt 0.655196 0.281270
vt 0.655196 0.222317
vt 0.558140 0.222317
vt 0.558140 0.311098
vt 0.655196 0.311098
vt 0.558140 0.281270
vt 0.558140 0.222317
vt 0.558140 0.311098
vt 0.364028 0.311098
vt 0.461084 0.311098
vt 0.461084 0.281270
vt 0.364028 0.281270
vt 0.461084 0.222317
vt 0.364028 0.222317
vt 0.364005 0.311098
vt 0.364005 0.281270
vt 0.461084 0.281270
vt 0.461084 0.311098
vt 0.364005 0.222317
vt 0.461084 0.222317
vt 0.266972 0.281270
vt 0.266972 0.222317
vt 0.266972 0.311098
vt 0.375000 0.000000
vt 0.375000 0.250000
vt 0.563603 0.250000
vt 0.563603 0.000000
vt 0.376561 0.454135
vt 0.302061 0.454135
vt 0.302061 0.539136
vt 0.393287 0.555025
vt 0.393287 0.518834
vt 0.393287 0.470861
vt 0.393287 0.566806
vt 0.467788 0.566806
vt 0.484514 0.550080
vt 0.484514 0.502108
vt 0.484514 0.465916
vt 0.393287 0.481806
vt 0.397393 0.993373
vt 0.397393 0.935918
vt 0.331347 0.935918
vt 0.331347 0.993373
vt 0.617622 0.500000
vt 0.617622 0.750000
vt 0.875000 0.750000
vt 0.875000 0.500000
vt 0.528106 0.935918
vt 0.484939 0.935918
vt 0.484939 0.993373
vt 0.528106 0.993372
vt 0.664063 0.993372
vt 0.664063 0.935918
vt 0.375000 0.000000
vt 0.375000 0.250000
vt 0.563603 0.250000
vt 0.563603 0.000000
vt 0.376561 0.454135
vt 0.302061 0.454135
vt 0.302061 0.539136
vt 0.393287 0.555025
vt 0.393287 0.518834
vt 0.393287 0.470861
vt 0.393287 0.566806
vt 0.467788 0.566806
vt 0.484514 0.550080
vt 0.484514 0.502108
vt 0.484514 0.465916
vt 0.393287 0.481806
vt 0.397393 0.993373
vt 0.397393 0.935918
vt 0.331347 0.935918
vt 0.331347 0.993373
vt 0.617622 0.500000
vt 0.617622 0.750000
vt 0.875000 0.750000
vt 0.875000 0.500000
vt 0.528106 0.935918
vt 0.484939 0.935918
vt 0.484939 0.993373
vt 0.528106 0.993372
vt 0.664063 0.993372
vt 0.664063 0.935918
vn -0.0669 -0.7867 -0.6137
vn -0.0418 -0.7864 -0.6163
vn -0.0672 -0.7867 -0.6137
vn -0.0571 -0.8498 -0.5241
vn -0.0357 -0.8495 -0.5263
vn -0.0574 -0.8498 -0.5241
vn -0.0563 0.8556 -0.5146
vn -0.0350 0.8554 -0.5169
vn -0.0561 0.8556 -0.5147
vn -0.0177 -0.9659 -0.2585
vn -0.0481 -0.7068 -0.7058
vn -0.0655 -0.2586 -0.9638
vn -0.0678 0.0000 -0.9977
vn -0.0654 0.2586 -0.9638
vn -0.0481 0.7068 -0.7058
vn -0.0177 0.9659 -0.2585
vn -0.8788 -0.4652 -0.1060
vn -0.8884 -0.4061 -0.2139
vn -0.8885 -0.4046 -0.2166
vn -0.8927 -0.2342 -0.3850
vn -0.8927 -0.2326 -0.3859
vn -0.8943 -0.0000 -0.4475
vn -0.8927 0.2342 -0.3850
vn -0.8927 0.2326 -0.3859
vn -0.8884 0.4061 -0.2139
vn -0.8885 0.4046 -0.2166
vn -0.8788 0.4652 -0.1060
vn -0.1710 -0.9659 -0.1946
vn -0.4670 -0.7068 -0.5313
vn -0.6378 -0.2586 -0.7254
vn -0.6603 0.0000 -0.7510
vn -0.6378 0.2586 -0.7255
vn -0.4670 0.7068 -0.5313
vn -0.1709 0.9659 -0.1946
vn 0.5464 -0.4654 -0.6963
vn 0.4750 -0.4049 -0.7813
vn 0.4767 -0.4064 -0.7795
vn 0.3579 -0.2330 -0.9042
vn 0.3585 -0.2344 -0.9036
vn 0.3153 0.0000 -0.9490
vn 0.3579 0.2330 -0.9042
vn 0.3585 0.2344 -0.9036
vn 0.4750 0.4049 -0.7813
vn 0.4767 0.4064 -0.7795
vn 0.5464 0.4654 -0.6963
vn -0.3869 -0.7867 -0.4810
vn -0.3427 -0.7867 -0.5134
vn -0.3427 -0.7867 -0.5135
vn -0.3866 -0.7867 -0.4812
vn -0.2960 -0.7867 -0.5417
vn -0.2375 -0.7870 -0.5694
vn -0.2376 -0.7870 -0.5694
vn -0.2962 -0.7867 -0.5416
vn -0.1737 -0.7868 -0.5923
vn -0.1184 -0.7867 -0.6059
vn -0.1183 -0.7867 -0.6059
vn -0.1735 -0.7868 -0.5923
vn -0.3242 0.8556 -0.4035
vn -0.2873 0.8556 -0.4306
vn -0.2874 0.8556 -0.4305
vn -0.3244 0.8556 -0.4034
vn -0.2484 0.8556 -0.4542
vn -0.1992 0.8558 -0.4774
vn -0.1991 0.8558 -0.4774
vn -0.2482 0.8556 -0.4543
vn -0.1454 0.8557 -0.4967
vn -0.0992 0.8556 -0.5080
vn -0.0993 0.8556 -0.5080
vn -0.1457 0.8557 -0.4966
vn -0.3304 -0.8498 -0.4108
vn -0.2926 -0.8498 -0.4384
vn -0.3302 -0.8498 -0.4109
vn -0.2527 -0.8498 -0.4626
vn -0.2028 -0.8500 -0.4862
vn -0.2029 -0.8500 -0.4862
vn -0.2529 -0.8498 -0.4625
vn -0.1483 -0.8498 -0.5057
vn -0.1011 -0.8498 -0.5173
vn -0.1010 -0.8498 -0.5174
vn -0.1481 -0.8498 -0.5058
vn -0.3725 -0.8500 -0.3725
vn -0.3658 0.8558 -0.3658
vn -0.4362 -0.7870 -0.4362
vn -0.4810 -0.7867 -0.3869
vn -0.4812 -0.7867 -0.3867
vn -0.4107 -0.8498 -0.3304
vn -0.4109 -0.8498 -0.3302
vn -0.4035 0.8556 -0.3242
vn -0.4034 0.8556 -0.3244
vn -0.1946 -0.9659 -0.1709
vn -0.5313 -0.7068 -0.4670
vn -0.7254 -0.2586 -0.6378
vn -0.7510 -0.0000 -0.6603
vn -0.7254 0.2586 -0.6378
vn -0.5313 0.7068 -0.4670
vn -0.1946 0.9659 -0.1709
vn -0.6962 -0.4656 0.5463
vn -0.7795 -0.4065 0.4766
vn -0.7813 -0.4051 0.4749
vn -0.9037 -0.2345 0.3583
vn -0.9043 -0.2331 0.3578
vn -0.9491 0.0000 0.3151
vn -0.9037 0.2345 0.3583
vn -0.9043 0.2331 0.3577
vn -0.7795 0.4065 0.4766
vn -0.7813 0.4051 0.4749
vn -0.6962 0.4656 0.5463
vn -0.2585 -0.9659 -0.0177
vn -0.7058 -0.7068 -0.0481
vn -0.9638 -0.2586 -0.0655
vn -0.9977 0.0000 -0.0678
vn -0.9638 0.2586 -0.0655
vn -0.7058 0.7068 -0.0481
vn -0.2585 0.9659 -0.0177
vn -0.1060 -0.4652 -0.8788
vn -0.2166 -0.4046 -0.8885
vn -0.2139 -0.4061 -0.8884
vn -0.3859 -0.2326 -0.8927
vn -0.3850 -0.2342 -0.8927
vn -0.4475 -0.0000 -0.8943
vn -0.3859 0.2326 -0.8927
vn -0.3850 0.2342 -0.8927
vn -0.2166 0.4046 -0.8885
vn -0.2139 0.4061 -0.8884
vn -0.1060 0.4652 -0.8788
vn -0.6137 -0.7867 -0.0669
vn -0.6059 -0.7867 -0.1184
vn -0.6059 -0.7867 -0.1183
vn -0.6137 -0.7867 -0.0672
vn -0.5923 -0.7868 -0.1737
vn -0.5694 -0.7870 -0.2375
vn -0.5694 -0.7870 -0.2376
vn -0.5923 -0.7868 -0.1735
vn -0.5417 -0.7867 -0.2960
vn -0.5134 -0.7867 -0.3427
vn -0.5135 -0.7867 -0.3427
vn -0.5416 -0.7867 -0.2962
vn -0.5146 0.8556 -0.0563
vn -0.5080 0.8556 -0.0992
vn -0.5080 0.8556 -0.0993
vn -0.5147 0.8556 -0.0561
vn -0.4967 0.8557 -0.1454
vn -0.4774 0.8558 -0.1992
vn -0.4774 0.8558 -0.1991
vn -0.4966 0.8557 -0.1457
vn -0.4542 0.8556 -0.2484
vn -0.4305 0.8556 -0.2873
vn -0.4305 0.8556 -0.2874
vn -0.4543 0.8556 -0.2482
vn -0.5241 -0.8498 -0.0571
vn -0.5173 -0.8498 -0.1011
vn -0.5174 -0.8498 -0.1011
vn -0.5241 -0.8498 -0.0574
vn -0.5057 -0.8498 -0.1483
vn -0.4862 -0.8500 -0.2028
vn -0.4862 -0.8500 -0.2029
vn -0.5058 -0.8498 -0.1481
vn -0.4626 -0.8498 -0.2527
vn -0.4384 -0.8498 -0.2926
vn -0.4625 -0.8498 -0.2529
vn -0.5263 -0.8495 -0.0357
vn -0.5169 0.8554 -0.0350
vn -0.6163 -0.7864 -0.0418
vn -0.0178 0.9658 -0.2586
vn -0.0482 0.7065 -0.7061
vn -0.0679 -0.0000 -0.9977
vn -0.0656 0.2584 -0.9638
vn -0.0656 -0.2584 -0.9638
vn -0.0482 -0.7065 -0.7061
vn -0.0178 -0.9658 -0.2586
vn -0.0280 0.9659 -0.2573
vn -0.0281 0.9659 -0.2573
vn -0.0174 0.9659 -0.2584
vn -0.0764 0.7071 -0.7030
vn -0.0767 0.7071 -0.7029
vn -0.0475 0.7069 -0.7057
vn -0.1082 -0.0000 -0.9941
vn -0.1047 0.2588 -0.9602
vn -0.0649 0.2587 -0.9638
vn -0.0672 -0.0000 -0.9977
vn -0.1047 -0.2588 -0.9602
vn -0.0649 -0.2587 -0.9638
vn -0.0767 -0.7071 -0.7029
vn -0.0764 -0.7071 -0.7030
vn -0.0475 -0.7069 -0.7057
vn -0.0281 -0.9659 -0.2573
vn -0.0280 -0.9659 -0.2573
vn -0.0174 -0.9659 -0.2584
vn 0.8687 -0.4178 -0.2662
vn 0.8688 -0.4192 -0.2636
vn 0.8611 -0.2449 -0.4455
vn 0.8611 -0.2434 -0.4464
vn -0.8865 -0.4128 -0.2089
vn -0.8866 -0.4116 -0.2111
vn -0.8757 -0.4726 -0.0988
vn 0.8583 -0.0000 -0.5132
vn -0.8924 -0.2383 -0.3832
vn -0.8924 -0.2371 -0.3839
vn 0.8611 0.2449 -0.4455
vn 0.8611 0.2434 -0.4464
vn -0.8945 0.0000 -0.4470
vn 0.8688 0.4192 -0.2636
vn 0.8687 0.4178 -0.2662
vn -0.8924 0.2383 -0.3832
vn -0.8924 0.2371 -0.3839
vn -0.0176 0.9659 -0.2584
vn -0.0480 0.7068 -0.7057
vn -0.0677 -0.0000 -0.9977
vn -0.0654 -0.2586 -0.9638
vn -0.0480 -0.7068 -0.7057
vn -0.0176 -0.9659 -0.2584
vn 0.8663 -0.4764 -0.1501
vn -0.8757 0.4726 -0.0988
vn -0.8866 0.4116 -0.2110
vn -0.8865 0.4128 -0.2089
vn 0.8663 0.4764 -0.1501
vn -0.1710 0.9658 -0.1948
vn -0.1829 0.9660 -0.1829
vn -0.4671 0.7066 -0.5316
vn -0.4999 0.7073 -0.4999
vn -0.6602 0.0000 -0.7511
vn -0.7071 0.0000 -0.7071
vn -0.6830 0.2590 -0.6830
vn -0.6378 0.2585 -0.7255
vn -0.6378 -0.2585 -0.7255
vn -0.6830 -0.2590 -0.6830
vn -0.4671 -0.7066 -0.5316
vn -0.4999 -0.7073 -0.4999
vn -0.1710 -0.9658 -0.1948
vn -0.1829 -0.9660 -0.1829
vn -0.1624 0.9659 -0.2015
vn -0.1711 0.9659 -0.1944
vn -0.1623 0.9659 -0.2016
vn -0.4436 0.7071 -0.5506
vn -0.4673 0.7069 -0.5309
vn -0.4434 0.7071 -0.5508
vn -0.6273 0.0000 -0.7788
vn -0.6607 0.0000 -0.7506
vn -0.6382 0.2587 -0.7251
vn -0.6058 0.2588 -0.7523
vn -0.6058 -0.2588 -0.7523
vn -0.6382 -0.2587 -0.7251
vn -0.4434 -0.7071 -0.5508
vn -0.4673 -0.7069 -0.5309
vn -0.4436 -0.7071 -0.5506
vn -0.1623 -0.9659 -0.2016
vn -0.1711 -0.9659 -0.1944
vn -0.1624 -0.9659 -0.2015
vn -0.8025 -0.4175 0.4263
vn -0.9244 -0.2431 0.2938
vn -0.9239 -0.2445 0.2944
vn -0.8009 -0.4188 0.4280
vn 0.4789 -0.4131 -0.7746
vn 0.5494 -0.4728 -0.6889
vn 0.4776 -0.4120 -0.7760
vn -0.9696 0.0000 0.2448
vn 0.3595 -0.2386 -0.9021
vn 0.3591 -0.2375 -0.9026
vn -0.9244 0.2431 0.2938
vn -0.9239 0.2445 0.2944
vn 0.3158 0.0000 -0.9488
vn -0.8025 0.4175 0.4263
vn -0.8009 0.4188 0.4280
vn 0.3595 0.2386 -0.9021
vn 0.3591 0.2375 -0.9026
vn -0.1709 0.9659 -0.1945
vn -0.4670 0.7069 -0.5312
vn -0.6604 -0.0000 -0.7509
vn -0.6379 0.2587 -0.7254
vn -0.6379 -0.2587 -0.7254
vn -0.4670 -0.7069 -0.5312
vn -0.1709 -0.9659 -0.1945
vn -0.7188 -0.4761 0.5065
vn 0.5494 0.4728 -0.6889
vn 0.4789 0.4131 -0.7746
vn 0.4776 0.4120 -0.7760
vn -0.7188 0.4761 0.5065
vn -0.6267 0.0000 -0.7792
vn -0.5551 0.0000 -0.8318
vn -0.4795 0.0000 -0.8776
vn -0.1083 0.0000 -0.9941
vn -0.1918 0.0000 -0.9814
vn -0.2815 0.0000 -0.9596
vn -0.1244 -0.9659 -0.2270
vn -0.1440 -0.9659 -0.2151
vn -0.1243 -0.9659 -0.2271
vn -0.3398 -0.7070 -0.6202
vn -0.3934 -0.7070 -0.5877
vn -0.3935 -0.7070 -0.5876
vn -0.3396 -0.7070 -0.6204
vn -0.4640 -0.2588 -0.8472
vn -0.5374 -0.2588 -0.8027
vn -0.5563 0.0000 -0.8310
vn -0.4802 0.0000 -0.8771
vn -0.5374 0.2588 -0.8027
vn -0.4640 0.2588 -0.8472
vn -0.3396 0.7070 -0.6204
vn -0.3935 0.7070 -0.5876
vn -0.3934 0.7070 -0.5877
vn -0.3398 0.7070 -0.6202
vn -0.1243 0.9659 -0.2271
vn -0.1440 0.9659 -0.2151
vn -0.1244 0.9659 -0.2270
vn -0.0727 -0.9659 -0.2484
vn -0.0729 -0.9659 -0.2484
vn -0.0496 -0.9659 -0.2541
vn -0.1988 -0.7071 -0.6786
vn -0.1990 -0.7071 -0.6785
vn -0.1356 -0.7070 -0.6941
vn -0.2717 -0.2588 -0.9269
vn -0.2814 0.0000 -0.9596
vn -0.1852 -0.2587 -0.9480
vn -0.2717 0.2588 -0.9269
vn -0.1852 0.2587 -0.9480
vn -0.1990 0.7071 -0.6785
vn -0.1988 0.7071 -0.6786
vn -0.1356 0.7070 -0.6941
vn -0.0729 0.9659 -0.2484
vn -0.0727 0.9659 -0.2484
vn -0.0496 0.9659 -0.2541
vn -0.3850 -0.0000 -0.9229
vn -0.0996 0.9660 -0.2387
vn -0.2721 0.7073 -0.6524
vn -0.2722 0.7073 -0.6524
vn -0.3719 0.2590 -0.8914
vn -0.3719 -0.2590 -0.8914
vn -0.2722 -0.7073 -0.6524
vn -0.2721 -0.7073 -0.6524
vn -0.0996 -0.9660 -0.2387
vn -0.1948 0.9658 -0.1710
vn -0.5316 0.7066 -0.4671
vn -0.7511 -0.0000 -0.6602
vn -0.7255 0.2585 -0.6378
vn -0.7255 -0.2585 -0.6378
vn -0.5316 -0.7066 -0.4671
vn -0.1948 -0.9658 -0.1710
vn -0.2016 0.9659 -0.1622
vn -0.2017 0.9659 -0.1621
vn -0.1944 0.9659 -0.1711
vn -0.5509 0.7071 -0.4433
vn -0.5511 0.7071 -0.4430
vn -0.5309 0.7069 -0.4673
vn -0.7792 0.0000 -0.6268
vn -0.7527 0.2588 -0.6053
vn -0.7251 0.2587 -0.6383
vn -0.7506 -0.0000 -0.6607
vn -0.7527 -0.2588 -0.6053
vn -0.7251 -0.2587 -0.6383
vn -0.5511 -0.7071 -0.4430
vn -0.5509 -0.7071 -0.4433
vn -0.5309 -0.7069 -0.4673
vn -0.2017 -0.9659 -0.1621
vn -0.2016 -0.9659 -0.1622
vn -0.1944 -0.9659 -0.1711
vn 0.4259 -0.4179 -0.8025
vn 0.4276 -0.4192 -0.8009
vn 0.2939 -0.2447 -0.9240
vn 0.2933 -0.2434 -0.9245
vn -0.7746 -0.4131 0.4789
vn -0.7760 -0.4120 0.4776
vn -0.6889 -0.4728 0.5494
vn 0.2442 0.0000 -0.9697
vn -0.9021 -0.2386 0.3595
vn -0.9026 -0.2375 0.3591
vn 0.2939 0.2447 -0.9240
vn 0.2933 0.2434 -0.9245
vn -0.9488 0.0000 0.3158
vn 0.4276 0.4192 -0.8009
vn 0.4259 0.4179 -0.8025
vn -0.9021 0.2386 0.3595
vn -0.9026 0.2375 0.3591
vn -0.1945 0.9659 -0.1709
vn -0.5312 0.7069 -0.4670
vn -0.7509 0.0000 -0.6604
vn -0.7254 0.2587 -0.6379
vn -0.7254 -0.2587 -0.6379
vn -0.5312 -0.7069 -0.4670
vn -0.1945 -0.9659 -0.1709
vn 0.5062 -0.4766 -0.7187
vn -0.6889 0.4728 0.5494
vn -0.7760 0.4120 0.4776
vn -0.7746 0.4131 0.4789
vn 0.5062 0.4766 -0.7187
vn -0.2586 0.9658 -0.0178
vn -0.7061 0.7065 -0.0482
vn -0.9977 -0.0000 -0.0679
vn -0.9638 0.2584 -0.0656
vn -0.9638 -0.2584 -0.0656
vn -0.7061 -0.7065 -0.0482
vn -0.2586 -0.9658 -0.0178
vn -0.2573 0.9659 -0.0278
vn -0.2584 0.9659 -0.0174
vn -0.2573 0.9659 -0.0279
vn -0.7030 0.7071 -0.0759
vn -0.7057 0.7069 -0.0475
vn -0.7030 0.7071 -0.0762
vn -0.9942 0.0000 -0.1075
vn -0.9977 0.0000 -0.0672
vn -0.9638 0.2587 -0.0649
vn -0.9603 0.2588 -0.1040
vn -0.9603 -0.2588 -0.1040
vn -0.9638 -0.2587 -0.0649
vn -0.7030 -0.7071 -0.0762
vn -0.7057 -0.7069 -0.0475
vn -0.7030 -0.7071 -0.0759
vn -0.2573 -0.9659 -0.0279
vn -0.2584 -0.9659 -0.0174
vn -0.2573 -0.9659 -0.0278
vn -0.2663 -0.4180 0.8685
vn -0.4466 -0.2435 0.8609
vn -0.4457 -0.2450 0.8610
vn -0.2637 -0.4194 0.8686
vn -0.2087 -0.4124 -0.8868
vn -0.0987 -0.4721 -0.8760
vn -0.2108 -0.4112 -0.8868
vn -0.5134 0.0000 0.8581
vn -0.3828 -0.2381 -0.8926
vn -0.3835 -0.2368 -0.8926
vn -0.4466 0.2435 0.8609
vn -0.4457 0.2450 0.8610
vn -0.4465 0.0000 -0.8948
vn -0.2663 0.4180 0.8685
vn -0.2637 0.4194 0.8686
vn -0.3828 0.2381 -0.8926
vn -0.3835 0.2368 -0.8926
vn -0.2584 0.9659 -0.0176
vn -0.7057 0.7068 -0.0480
vn -0.9977 0.0000 -0.0677
vn -0.9638 0.2586 -0.0653
vn -0.9638 -0.2586 -0.0654
vn -0.7057 -0.7068 -0.0480
vn -0.2584 -0.9659 -0.0176
vn -0.1501 -0.4766 0.8662
vn -0.0987 0.4721 -0.8760
vn -0.2087 0.4124 -0.8868
vn -0.2108 0.4112 -0.8868
vn -0.1501 0.4766 0.8662
vn -0.9941 0.0000 -0.1083
vn -0.9814 0.0000 -0.1918
vn -0.9596 0.0000 -0.2815
vn -0.7792 0.0000 -0.6267
vn -0.8317 0.0000 -0.5552
vn -0.8776 0.0000 -0.4795
vn -0.2485 -0.9659 -0.0726
vn -0.2542 -0.9659 -0.0492
vn -0.2542 -0.9659 -0.0493
vn -0.2484 -0.9659 -0.0727
vn -0.6788 -0.7071 -0.1983
vn -0.6943 -0.7070 -0.1346
vn -0.6787 -0.7071 -0.1986
vn -0.9271 -0.2588 -0.2710
vn -0.9483 -0.2587 -0.1838
vn -0.9817 0.0000 -0.1903
vn -0.9598 0.0000 -0.2807
vn -0.9483 0.2587 -0.1838
vn -0.9271 0.2588 -0.2710
vn -0.6787 0.7071 -0.1986
vn -0.6943 0.7070 -0.1346
vn -0.6787 0.7071 -0.1983
vn -0.2484 0.9659 -0.0727
vn -0.2542 0.9659 -0.0493
vn -0.2542 0.9659 -0.0492
vn -0.2485 0.9659 -0.0726
vn -0.2271 -0.9659 -0.1242
vn -0.2272 -0.9659 -0.1241
vn -0.2153 -0.9659 -0.1437
vn -0.6205 -0.7070 -0.3393
vn -0.6206 -0.7070 -0.3391
vn -0.5882 -0.7070 -0.3926
vn -0.8476 -0.2587 -0.4633
vn -0.8775 -0.0000 -0.4795
vn -0.8034 -0.2588 -0.5362
vn -0.8476 0.2587 -0.4633
vn -0.8034 0.2588 -0.5362
vn -0.6206 0.7070 -0.3391
vn -0.6205 0.7070 -0.3393
vn -0.5882 0.7070 -0.3926
vn -0.2272 0.9659 -0.1241
vn -0.2271 0.9659 -0.1242
vn -0.2153 0.9659 -0.1437
vn -0.9229 -0.0000 -0.3850
vn -0.2387 0.9660 -0.0996
vn -0.6524 0.7073 -0.2721
vn -0.6524 0.7073 -0.2722
vn -0.8914 0.2590 -0.3719
vn -0.8914 -0.2590 -0.3719
vn -0.6524 -0.7073 -0.2722
vn -0.6524 -0.7073 -0.2721
vn -0.2387 -0.9660 -0.0996
vn -0.0000 -1.0000 0.0000
vn 0.0000 1.0000 -0.0000
vn -0.9213 0.0000 0.3889
vn 0.9264 0.0000 -0.3766
vn -0.3280 0.0000 -0.9447
vn 0.3238 0.0000 0.9461
vn -0.3766 0.0000 0.9264
vn 0.3889 0.0000 -0.9213
vn -0.9447 -0.0000 -0.3280
vn 0.9461 0.0000 0.3238
vn -0.3650 0.6490 -0.6675
vn -0.2929 0.6493 -0.7019
vn -0.2928 0.6493 -0.7019
vn -0.3648 0.6490 -0.6676
vn -0.2138 0.6491 -0.7301
vn -0.2141 0.6491 -0.7300
vn -0.4765 0.6490 -0.5931
vn -0.4223 0.6490 -0.6328
vn -0.4768 0.6490 -0.5929
vn -0.0828 0.6489 -0.7563
vn -0.0825 0.6489 -0.7564
vn -0.1459 0.6490 -0.7467
vn -0.1458 0.6490 -0.7467
vn -0.5377 0.6494 -0.5377
vn -0.0515 0.6486 -0.7594
vn -0.7301 0.6491 -0.2138
vn -0.7019 0.6493 -0.2929
vn -0.7019 0.6493 -0.2928
vn -0.7300 0.6491 -0.2141
vn -0.6675 0.6490 -0.3650
vn -0.6676 0.6490 -0.3648
vn -0.7563 0.6489 -0.0828
vn -0.7467 0.6490 -0.1459
vn -0.7564 0.6489 -0.0825
vn -0.5930 0.6490 -0.4766
vn -0.5929 0.6490 -0.4768
vn -0.6328 0.6490 -0.4223
vn -0.7594 0.6486 -0.0515
vn 0.3491 0.0000 0.9371
vn -0.9194 -0.0000 0.3933
vn 0.9282 0.0000 -0.3722
vn -0.3483 0.1385 -0.9271
vn 0.0314 0.9960 0.0838
vn -0.2485 -0.7069 -0.6623
vn -0.2986 -0.5280 -0.7950
vn 0.9371 0.0000 0.3491
vn -0.3722 -0.0000 0.9282
vn 0.3933 -0.0000 -0.9194
vn -0.9271 0.1385 -0.3483
vn 0.0838 0.9960 0.0314
vn -0.6622 -0.7069 -0.2485
vn -0.7950 -0.5280 -0.2986
usemtl MI_Trim_02
s 1
f 217/1/1 10/2/2 8/3/2 212/4/3
f 218/5/4 12/6/5 14/7/5 213/8/6
f 213/9/7 14/10/8 16/11/8 214/12/9
f 52/13/10 53/14/10 32/15/10 31/16/10
f 53/14/11 54/17/11 33/18/11 32/15/11
f 54/17/12 55/19/13 34/20/13 33/18/12
f 55/19/13 56/21/14 35/22/14 34/20/13
f 56/21/15 57/23/15 36/24/15 35/22/15
f 57/23/16 58/25/16 37/26/16 36/24/16
f 31/27/17 32/28/18 39/29/19 38/30/17
f 32/28/18 33/31/20 40/32/21 39/29/19
f 33/31/20 34/33/22 41/34/22 40/32/21
f 34/33/22 35/35/23 42/36/24 41/34/22
f 35/35/23 36/37/25 43/38/26 42/36/24
f 36/37/25 37/39/27 44/40/27 43/38/26
f 101/41/28 80/42/28 81/43/28 102/44/28
f 102/44/29 81/43/29 82/45/29 103/46/29
f 103/46/30 82/45/30 83/47/31 104/48/31
f 104/48/31 83/47/31 84/49/32 105/50/32
f 105/50/33 84/49/33 85/51/33 106/52/33
f 106/52/34 85/51/34 86/53/34 107/54/34
f 80/55/35 87/56/35 88/57/36 81/58/37
f 81/58/37 88/57/36 89/59/38 82/60/39
f 82/60/39 89/59/38 90/61/40 83/62/40
f 83/62/40 90/61/40 91/63/41 84/64/42
f 84/64/42 91/63/41 92/65/43 85/66/44
f 85/66/44 92/65/43 93/67/45 86/68/45
f 188/69/46 153/70/47 159/71/48 190/72/49
f 202/73/50 163/74/51 160/75/52 201/76/53
f 209/77/54 162/78/55 161/79/56 208/80/57
f 189/81/58 128/82/59 122/83/60 191/84/61
f 198/85/62 9/86/63 155/87/64 196/88/65
f 205/89/66 165/90/67 166/91/68 211/92/69
f 185/93/70 151/94/71 128/95/71 189/96/72
f 199/97/73 158/98/74 9/99/75 198/100/76
f 210/101/77 164/102/78 165/103/79 205/104/80
f 11/105/81 185/93/70 189/96/72 13/106/81
f 13/107/82 189/81/58 191/84/61 15/108/82
f 152/109/83 188/69/46 190/72/49 7/110/83
f 151/94/71 199/97/73 198/100/76 128/95/71
f 128/82/59 198/85/62 196/88/65 122/83/60
f 153/70/47 202/73/50 201/76/53 159/71/48
f 158/98/74 210/101/77 205/104/80 9/99/75
f 9/86/63 205/89/66 211/92/69 155/87/64
f 163/74/51 209/77/54 208/80/57 160/75/52
f 165/90/67 213/9/7 214/12/9 166/91/68
f 164/102/78 218/5/4 213/8/6 165/103/79
f 162/78/55 217/1/1 212/4/3 161/79/56
f 449/111/84 152/112/83 7/113/83 444/114/85
f 450/115/86 11/116/81 13/117/81 445/118/87
f 445/119/88 13/120/82 15/121/82 446/122/89
f 286/123/90 287/124/90 266/125/90 265/126/90
f 287/124/91 288/127/91 267/128/91 266/125/91
f 288/127/92 289/129/93 268/130/93 267/128/92
f 289/129/93 290/131/94 269/132/94 268/130/93
f 290/131/95 291/133/95 270/134/95 269/132/95
f 291/133/96 292/135/96 271/136/96 270/134/96
f 265/137/97 266/138/98 273/139/99 272/140/97
f 266/138/98 267/141/100 274/142/101 273/139/99
f 267/141/100 268/143/102 275/144/102 274/142/101
f 268/143/102 269/145/103 276/146/104 275/144/102
f 269/145/103 270/147/105 277/148/106 276/146/104
f 270/147/105 271/149/107 278/150/107 277/148/106
f 335/151/108 314/152/108 315/153/108 336/154/108
f 336/154/109 315/153/109 316/155/109 337/156/109
f 337/156/110 316/155/110 317/157/111 338/158/111
f 338/158/111 317/157/111 318/159/112 339/160/112
f 339/160/113 318/159/113 319/161/113 340/162/113
f 340/162/114 319/161/114 320/163/114 341/164/114
f 314/165/115 321/166/115 322/167/116 315/168/117
f 315/168/117 322/167/116 323/169/118 316/170/119
f 316/170/119 323/169/118 324/171/120 317/172/120
f 317/172/120 324/171/120 325/173/121 318/174/122
f 318/174/122 325/173/121 326/175/123 319/176/124
f 319/176/124 326/175/123 327/177/125 320/178/125
f 420/179/126 385/180/127 391/181/128 422/182/129
f 434/183/130 395/184/131 392/185/132 433/186/133
f 441/187/134 394/188/135 393/189/136 440/190/137
f 421/191/138 361/192/139 356/193/140 423/194/141
f 430/195/142 254/196/143 387/197/144 428/198/145
f 437/199/146 397/200/147 398/201/148 443/202/149
f 417/203/150 383/204/151 361/205/152 421/206/153
f 431/207/154 390/208/155 254/209/156 430/210/157
f 442/211/158 396/212/159 397/213/159 437/214/160
f 255/215/161 417/203/150 421/206/153 256/216/161
f 256/217/162 421/191/138 423/194/141 257/218/162
f 384/219/163 420/179/126 422/182/129 253/220/163
f 383/204/151 431/207/154 430/210/157 361/205/152
f 361/192/139 430/195/142 428/198/145 356/193/140
f 385/180/127 434/183/130 433/186/133 391/181/128
f 390/208/155 442/211/158 437/214/160 254/209/156
f 254/196/143 437/199/146 443/202/149 387/197/144
f 395/184/131 441/187/134 440/190/137 392/185/132
f 397/200/147 445/119/88 446/122/89 398/201/148
f 396/212/159 450/115/86 445/118/87 397/213/159
f 394/188/135 449/111/84 444/114/85 393/189/136
usemtl MI_Trim_01
f 43/221/164 44/222/164 30/223/164 29/224/164
f 42/225/165 43/221/165 29/224/165 28/226/165
f 41/227/166 42/225/167 28/226/167 27/228/166
f 40/229/168 41/227/166 27/228/166 26/230/168
f 39/231/169 40/229/169 26/230/169 25/232/169
f 38/233/170 39/231/170 25/232/170 24/234/170
f 233/235/171 234/236/172 51/237/173 50/238/173
f 232/239/174 233/235/175 50/238/176 49/240/176
f 231/241/177 232/239/178 49/240/179 48/242/180
f 230/243/181 231/241/177 48/242/180 47/244/182
f 229/245/183 230/243/184 47/244/185 46/246/185
f 228/247/186 229/245/187 46/246/188 45/248/188
f 53/249/189 61/250/190 63/251/191 54/252/192
f 46/253/193 62/254/194 60/255/195 45/256/195
f 54/252/192 63/251/191 65/257/196 55/258/196
f 47/259/197 64/260/198 62/254/194 46/253/193
f 55/258/196 65/257/196 67/261/199 56/262/200
f 48/263/201 66/264/201 64/260/198 47/259/197
f 56/262/200 67/261/199 69/265/202 57/266/203
f 49/267/204 68/268/205 66/264/201 48/263/201
f 70/269/206 72/270/206 71/271/206 69/265/206
f 68/268/207 70/269/207 69/265/207 67/261/207
f 66/264/208 68/268/14 67/261/14 65/257/208
f 64/260/209 66/264/208 65/257/208 63/251/209
f 62/254/210 64/260/210 63/251/210 61/250/210
f 60/255/211 62/254/211 61/250/211 59/272/211
f 52/273/212 59/272/212 61/250/190 53/249/189
f 51/274/213 72/270/213 70/269/214 50/275/215
f 50/275/215 70/269/214 68/268/205 49/267/204
f 57/266/203 69/265/202 71/271/216 58/276/216
f 92/277/217 78/278/218 79/279/218 93/280/217
f 91/281/219 77/282/220 78/278/220 92/277/219
f 90/283/221 76/284/222 77/282/223 91/281/224
f 89/285/225 75/286/226 76/284/222 90/283/221
f 88/287/227 74/288/228 75/286/228 89/285/227
f 87/289/229 73/290/230 74/288/230 88/287/229
f 247/291/231 99/292/232 100/293/232 248/294/233
f 246/295/234 98/296/235 99/292/235 247/291/236
f 245/297/237 97/298/238 98/296/239 246/295/240
f 244/299/241 96/300/242 97/298/238 245/297/237
f 243/301/243 95/302/244 96/300/244 244/299/245
f 242/303/246 94/304/247 95/302/247 243/301/248
f 102/305/249 103/306/250 112/307/251 110/308/252
f 95/309/253 94/310/254 109/311/254 111/312/255
f 103/306/250 104/313/256 114/314/256 112/307/251
f 96/315/257 95/309/253 111/312/255 113/316/258
f 104/313/256 105/317/259 116/318/260 114/314/256
f 97/319/261 96/315/257 113/316/258 115/320/261
f 105/317/259 106/321/262 118/322/263 116/318/260
f 98/323/264 97/319/261 115/320/261 117/324/265
f 119/325/266 118/322/266 120/326/266 121/327/266
f 117/324/267 116/318/267 118/322/267 119/325/267
f 115/320/268 114/314/268 116/318/269 117/324/269
f 113/316/270 112/307/270 114/314/268 115/320/268
f 111/312/271 110/308/271 112/307/271 113/316/271
f 109/311/272 108/328/272 110/308/272 111/312/272
f 101/329/273 102/305/249 110/308/252 108/328/273
f 100/330/274 99/331/275 119/325/276 121/327/274
f 99/331/275 98/323/264 117/324/265 119/325/276
f 106/321/262 107/332/277 120/326/277 118/322/263
f 191/333/278 122/334/279 123/335/279 186/336/278
f 202/337/280 153/338/279 154/339/279 200/340/280
f 214/341/281 215/342/281 127/343/282 166/344/282
f 207/345/283 126/346/282 162/347/282 209/348/283
f 216/349/281 217/350/281 162/347/282 126/346/282
f 197/351/280 200/352/280 154/353/279 123/354/279
f 187/355/278 154/339/279 153/338/279 188/356/278
f 211/357/283 166/344/282 127/343/282 206/358/283
f 207/359/283 206/360/283 127/361/282 126/362/282
f 186/363/278 123/354/279 154/353/279 187/364/278
f 215/365/281 216/366/281 126/362/282 127/361/282
f 196/367/280 197/368/280 123/335/279 122/334/279
f 235/369/284 171/370/285 172/371/285 236/372/286
f 236/372/287 172/371/288 173/373/289 237/374/290
f 237/374/291 173/373/292 174/375/293 238/376/294
f 238/376/294 174/375/293 175/377/295 239/378/296
f 239/378/297 175/377/298 176/379/299 240/380/300
f 240/380/301 176/379/302 177/381/302 241/382/303
f 221/383/304 222/384/305 179/385/306 178/386/306
f 222/384/307 223/387/308 180/388/309 179/385/309
f 223/387/310 224/389/311 181/390/282 180/388/312
f 224/389/311 225/391/313 182/392/314 181/390/282
f 225/391/315 226/393/316 183/394/317 182/392/317
f 226/393/318 227/395/319 184/396/320 183/394/320
f 124/397/222 186/363/278 187/364/278 150/398/222
f 150/399/222 187/355/278 188/356/278 152/400/222
f 15/401/222 191/333/278 186/336/278 124/402/222
f 155/403/321 156/404/321 197/368/280 196/367/280
f 156/405/321 157/406/321 200/352/280 197/351/280
f 163/407/321 202/337/280 200/340/280 157/408/321
f 157/406/321 156/405/321 206/360/283 207/359/283
f 155/403/321 211/357/283 206/358/283 156/404/321
f 157/408/321 207/345/283 209/348/283 163/407/321
f 129/409/180 125/410/180 216/366/281 215/365/281
f 125/411/180 10/412/180 217/350/281 216/349/281
f 16/413/180 129/414/180 215/342/281 214/341/281
f 22/415/322 23/416/322 227/395/319 226/393/318
f 21/417/323 22/415/324 226/393/316 225/391/315
f 20/418/321 21/417/325 225/391/313 224/389/311
f 19/419/326 20/418/321 224/389/311 223/387/310
f 18/420/327 19/419/328 223/387/308 222/384/307
f 17/421/329 18/420/329 222/384/305 221/383/304
f 178/386/306 179/385/306 229/245/187 228/247/186
f 179/385/309 180/388/309 230/243/184 229/245/183
f 180/388/312 181/390/282 231/241/177 230/243/181
f 181/390/282 182/392/314 232/239/178 231/241/177
f 182/392/317 183/394/317 233/235/175 232/239/174
f 183/394/320 184/396/320 234/236/172 233/235/171
f 22/415/322 240/380/301 241/382/303 23/416/322
f 21/417/323 239/378/297 240/380/300 22/415/324
f 20/418/321 238/376/294 239/378/296 21/417/325
f 19/419/326 237/374/291 238/376/294 20/418/321
f 18/420/327 236/372/287 237/374/290 19/419/328
f 17/421/329 235/369/284 236/372/286 18/420/329
f 171/370/285 242/303/246 243/301/248 172/371/285
f 172/371/288 243/301/243 244/299/245 173/373/289
f 173/373/292 244/299/241 245/297/237 174/375/293
f 174/375/293 245/297/237 246/295/240 175/377/295
f 175/377/298 246/295/234 247/291/236 176/379/299
f 176/379/302 247/291/231 248/294/233 177/381/302
f 277/422/330 278/423/330 79/279/218 78/278/218
f 276/424/331 277/422/331 78/278/220 77/282/220
f 275/425/332 276/424/333 77/282/223 76/284/222
f 274/426/334 275/425/332 76/284/222 75/286/226
f 273/427/335 274/426/335 75/286/228 74/288/228
f 272/428/336 273/427/336 74/288/230 73/290/230
f 465/429/337 466/430/338 285/431/339 284/432/339
f 464/433/340 465/429/341 284/432/342 283/434/342
f 463/435/343 464/433/344 283/434/345 282/436/346
f 462/437/347 463/435/343 282/436/346 281/438/348
f 461/439/349 462/437/350 281/438/351 280/440/351
f 460/441/352 461/439/353 280/440/354 279/442/354
f 287/443/355 295/444/356 297/445/357 288/446/358
f 280/447/359 296/448/360 294/449/361 279/450/361
f 288/446/358 297/445/357 299/451/362 289/452/362
f 281/453/363 298/454/364 296/448/360 280/447/359
f 289/452/362 299/451/362 301/455/365 290/456/366
f 282/457/367 300/458/367 298/454/364 281/453/363
f 290/456/366 301/455/365 303/459/368 291/460/369
f 283/461/370 302/462/371 300/458/367 282/457/367
f 304/463/372 306/464/372 305/465/372 303/459/372
f 302/462/373 304/463/373 303/459/373 301/455/373
f 300/458/374 302/462/375 301/455/375 299/451/374
f 298/454/376 300/458/374 299/451/374 297/445/376
f 296/448/377 298/454/377 297/445/377 295/444/377
f 294/449/378 296/448/378 295/444/378 293/466/378
f 286/467/379 293/466/379 295/444/356 287/443/355
f 285/468/380 306/464/380 304/463/381 284/469/382
f 284/469/382 304/463/381 302/462/371 283/461/370
f 291/460/369 303/459/368 305/465/383 292/470/383
f 326/471/384 312/472/384 313/473/384 327/474/384
f 325/475/385 311/476/385 312/472/385 326/471/385
f 324/477/386 310/478/386 311/476/387 325/475/387
f 323/479/388 309/480/388 310/478/386 324/477/386
f 322/481/389 308/482/389 309/480/389 323/479/389
f 321/483/390 307/484/390 308/482/390 322/481/390
f 479/485/391 333/486/392 334/487/392 480/488/393
f 478/489/394 332/490/395 333/486/395 479/485/396
f 477/491/397 331/492/398 332/490/399 478/489/400
f 476/493/401 330/494/402 331/492/398 477/491/397
f 475/495/403 329/496/404 330/494/404 476/493/405
f 474/497/406 328/498/407 329/496/407 475/495/408
f 336/499/409 337/500/410 346/501/411 344/502/412
f 329/503/413 328/504/414 343/505/414 345/506/415
f 337/500/410 338/507/416 348/508/416 346/501/411
f 330/509/417 329/503/413 345/506/415 347/510/418
f 338/507/416 339/511/419 350/512/420 348/508/416
f 331/513/421 330/509/417 347/510/418 349/514/421
f 339/511/419 340/515/422 352/516/423 350/512/420
f 332/517/424 331/513/421 349/514/421 351/518/425
f 353/519/426 352/516/426 354/520/426 355/521/426
f 351/518/427 350/512/427 352/516/427 353/519/427
f 349/514/428 348/508/428 350/512/429 351/518/429
f 347/510/430 346/501/430 348/508/428 349/514/428
f 345/506/431 344/502/431 346/501/431 347/510/431
f 343/505/432 342/522/432 344/502/432 345/506/432
f 335/523/433 336/499/409 344/502/412 342/522/433
f 334/524/434 333/525/435 353/519/436 355/521/434
f 333/525/435 332/517/424 351/518/425 353/519/436
f 340/515/422 341/526/437 354/520/437 352/516/423
f 423/527/438 356/528/439 357/529/439 418/530/438
f 434/531/440 385/532/439 386/533/439 432/534/440
f 446/535/441 447/536/441 360/537/442 398/538/442
f 439/539/443 359/540/442 394/541/442 441/542/443
f 448/543/441 449/544/441 394/541/442 359/540/442
f 429/545/440 432/546/440 386/547/439 357/548/439
f 419/549/438 386/533/439 385/532/439 420/550/438
f 443/551/443 398/538/442 360/537/442 438/552/443
f 439/553/443 438/554/443 360/555/442 359/556/442
f 418/557/438 357/548/439 386/547/439 419/558/438
f 447/559/441 448/560/441 359/556/442 360/555/442
f 428/561/440 429/562/440 357/529/439 356/528/439
f 467/563/444 403/564/445 404/565/446 468/566/447
f 468/566/448 404/565/449 405/567/449 469/568/450
f 469/568/451 405/567/452 406/569/453 470/570/454
f 470/570/454 406/569/453 407/571/455 471/572/456
f 471/572/457 407/571/458 408/573/458 472/574/459
f 472/574/460 408/573/461 409/575/462 473/576/463
f 453/577/464 454/578/465 411/579/466 410/580/466
f 454/578/467 455/581/468 412/582/469 411/579/469
f 455/581/470 456/583/471 413/584/442 412/582/472
f 456/583/471 457/585/473 414/586/474 413/584/442
f 457/585/475 458/587/476 415/588/477 414/586/477
f 458/587/478 459/589/479 416/590/480 415/588/480
f 358/591/398 418/557/438 419/558/438 382/592/398
f 382/593/398 419/549/438 420/550/438 384/594/398
f 257/595/398 423/527/438 418/530/438 358/596/398
f 387/597/481 388/598/481 429/562/440 428/561/440
f 388/599/481 389/600/481 432/546/440 429/545/440
f 395/601/481 434/531/440 432/534/440 389/602/481
f 389/600/481 388/599/481 438/554/443 439/553/443
f 387/597/481 443/551/443 438/552/443 388/598/481
f 389/602/481 439/539/443 441/542/443 395/601/481
f 124/603/222 150/604/222 448/560/441 447/559/441
f 150/399/222 152/400/222 449/544/441 448/543/441
f 15/401/222 124/402/222 447/536/441 446/535/441
f 263/605/482 264/606/482 459/589/479 458/587/478
f 262/607/483 263/605/484 458/587/476 457/585/475
f 261/608/481 262/607/485 457/585/473 456/583/471
f 260/609/486 261/608/481 456/583/471 455/581/470
f 259/610/487 260/609/488 455/581/468 454/578/467
f 258/611/489 259/610/489 454/578/465 453/577/464
f 410/580/466 411/579/466 461/439/353 460/441/352
f 411/579/469 412/582/469 462/437/350 461/439/349
f 412/582/472 413/584/442 463/435/343 462/437/347
f 413/584/442 414/586/474 464/433/344 463/435/343
f 414/586/477 415/588/477 465/429/341 464/433/340
f 415/588/480 416/590/480 466/430/338 465/429/337
f 263/605/482 472/574/460 473/576/463 264/606/482
f 262/607/483 471/572/457 472/574/459 263/605/484
f 261/608/481 470/570/454 471/572/456 262/607/485
f 260/609/486 469/568/451 470/570/454 261/608/481
f 259/610/487 468/566/448 469/568/450 260/609/488
f 258/611/489 467/563/444 468/566/447 259/610/489
f 403/564/445 474/497/406 475/495/408 404/565/446
f 404/565/449 475/495/403 476/493/405 405/567/449
f 405/567/452 476/493/401 477/491/397 406/569/453
f 406/569/453 477/491/397 478/489/400 407/571/455
f 407/571/458 478/489/394 479/485/396 408/573/458
f 408/573/461 479/485/391 480/488/393 409/575/462
usemtl MI_Trim_03_Dark
s off
f 145/612/490 143/613/490 142/614/490 144/615/490
f 148/616/491 149/617/491 146/618/491 147/619/491
f 142/614/492 146/618/492 149/617/492 144/615/492
f 145/612/493 148/616/493 147/619/493 143/613/493
f 144/615/494 149/617/494 148/616/494 145/612/494
f 143/613/495 147/619/495 146/618/495 142/614/495
f 377/620/490 375/621/490 374/622/490 376/623/490
f 380/624/491 381/625/491 378/626/491 379/627/491
f 374/622/496 378/626/496 381/625/496 376/623/496
f 377/620/497 380/624/497 379/627/497 375/621/497
f 376/623/498 381/625/498 380/624/498 377/620/498
f 375/621/499 379/627/499 378/626/499 374/622/499
s 1
f 195/628/280 4/629/321 2/630/321 194/631/280
f 201/632/500 160/633/501 4/629/502 195/628/503
f 204/634/283 203/635/283 2/630/321 4/629/321
f 208/636/504 204/634/505 4/629/502 160/633/501
f 190/637/506 159/638/507 168/639/507 193/640/508
f 193/640/278 168/639/279 167/641/279 192/642/278
f 212/643/509 220/644/510 170/645/511 161/646/512
f 220/644/281 219/647/281 169/648/282 170/645/282
f 3/649/222 193/640/278 192/642/278 1/650/222
f 7/651/513 190/637/506 193/640/508 3/649/513
f 159/638/507 201/632/500 195/628/503 168/639/507
f 168/639/279 195/628/280 194/631/280 167/641/279
f 161/646/512 170/645/511 204/634/505 208/636/504
f 170/645/282 169/648/282 203/635/283 204/634/283
f 6/652/180 5/653/180 219/647/281 220/644/281
f 8/654/514 6/652/514 220/644/510 212/643/509
f 427/655/440 252/656/481 250/657/481 426/658/440
f 433/659/515 392/660/516 252/656/517 427/655/518
f 436/661/443 435/662/443 250/657/481 252/656/481
f 440/663/519 436/661/520 252/656/517 392/660/516
f 422/664/521 391/665/522 400/666/522 425/667/523
f 425/667/438 400/666/439 399/668/439 424/669/438
f 444/670/524 452/671/525 402/672/526 393/673/526
f 452/671/441 451/674/441 401/675/442 402/672/442
f 251/676/398 425/667/438 424/669/438 249/677/398
f 253/678/527 422/664/521 425/667/523 251/676/527
f 391/665/522 433/659/515 427/655/518 400/666/522
f 400/666/439 427/655/440 426/658/440 399/668/439
f 393/673/526 402/672/526 436/661/520 440/663/519
f 402/672/442 401/675/442 435/662/443 436/661/443
f 3/649/222 1/650/222 451/674/441 452/671/441
f 7/651/513 3/649/513 452/671/525 444/670/524
usemtl MI_Trim_03
s off
f 130/679/528 132/680/528 133/681/528 131/682/528
f 136/683/529 130/684/529 131/685/529 134/686/529 141/687/529 137/688/529
f 132/689/530 139/690/530 138/691/530 140/692/530 135/693/530 133/694/530
f 140/695/531 141/696/531 134/697/531 135/698/531
f 135/699/532 134/700/532 131/701/532 133/702/532
f 136/703/533 137/704/533 138/705/533 139/706/533
f 132/707/490 130/708/490 136/703/490 139/706/490
f 138/705/534 137/704/534 141/696/534 140/695/534
f 362/709/535 364/710/535 365/711/535 363/712/535
f 368/713/536 362/714/536 363/715/536 366/716/536 373/717/536 369/718/536
f 364/719/537 371/720/537 370/721/537 372/722/537 367/723/537 365/724/537
f 372/725/538 373/726/538 366/727/538 367/728/538
f 367/729/539 366/730/539 363/731/539 365/732/539
f 368/733/540 369/734/540 370/735/540 371/736/540
f 364/737/490 362/738/490 368/733/490 371/736/490
f 370/735/541 369/734/541 373/726/541 372/725/541
